solid OpenSCAD_Model
  facet normal -5.84043e-16 0.164595 0.986361
    outer loop
      vertex 1 -3.06162e-16 -5
      vertex 1 -1.6235 -4.72909
      vertex 4 -3.06162e-16 -5
    endloop
  endfacet
  facet normal -6.08408e-16 0.164595 0.986361
    outer loop
      vertex 1 -1.6235 -4.72909
      vertex 4 -1.6235 -4.72909
      vertex 4 -3.06162e-16 -5
    endloop
  endfacet
  facet normal -1 2.01227e-17 -5.92119e-16
    outer loop
      vertex 1 -3.52086e-16 -5.75
      vertex 1 -1.86702 -5.43845
      vertex 1 -3.06162e-16 -5
    endloop
  endfacet
  facet normal -1 -4.94036e-17 -2.96059e-16
    outer loop
      vertex 1 -1.86702 -5.43845
      vertex 1 -1.6235 -4.72909
      vertex 1 -3.06162e-16 -5
    endloop
  endfacet
  facet normal -0 0.164595 0.986361
    outer loop
      vertex 2.55351e-15 -3.52086e-16 -5.75
      vertex 2.48433e-15 -1.86702 -5.43845
      vertex 1 -3.52086e-16 -5.75
    endloop
  endfacet
  facet normal -0 0.164595 0.986361
    outer loop
      vertex 2.48433e-15 -1.86702 -5.43845
      vertex 1 -1.86702 -5.43845
      vertex 1 -3.52086e-16 -5.75
    endloop
  endfacet
  facet normal 1 3.70527e-17 4.44089e-16
    outer loop
      vertex 6.66134e-16 -9.18485e-17 -1.5
      vertex 6.48087e-16 -0.487049 -1.41873
      vertex 2.55351e-15 -3.52086e-16 -5.75
    endloop
  endfacet
  facet normal 1 3.70527e-17 4.44089e-16
    outer loop
      vertex 6.48087e-16 -0.487049 -1.41873
      vertex 2.48433e-15 -1.86702 -5.43845
      vertex 2.55351e-15 -3.52086e-16 -5.75
    endloop
  endfacet
  facet normal 4.38032e-16 -0.164595 -0.986361
    outer loop
      vertex 4 -9.18485e-17 -1.5
      vertex 4 -0.487049 -1.41873
      vertex 6.66134e-16 -9.18485e-17 -1.5
    endloop
  endfacet
  facet normal 4.49453e-16 -0.164595 -0.986361
    outer loop
      vertex 4 -0.487049 -1.41873
      vertex 6.48087e-16 -0.487049 -1.41873
      vertex 6.66134e-16 -9.18485e-17 -1.5
    endloop
  endfacet
  facet normal -1 -8.46919e-17 -5.07531e-16
    outer loop
      vertex 4 -3.06162e-16 -5
      vertex 4 -1.6235 -4.72909
      vertex 4 -9.18485e-17 -1.5
    endloop
  endfacet
  facet normal -1 -8.46919e-17 -5.07531e-16
    outer loop
      vertex 4 -1.6235 -4.72909
      vertex 4 -0.487049 -1.41873
      vertex 4 -9.18485e-17 -1.5
    endloop
  endfacet
  facet normal -5.91207e-16 0.475947 0.879474
    outer loop
      vertex 1 -1.6235 -4.72909
      vertex 1 -3.07106 -3.9457
      vertex 4 -1.6235 -4.72909
    endloop
  endfacet
  facet normal -4.61019e-16 0.475947 0.879474
    outer loop
      vertex 1 -3.07106 -3.9457
      vertex 4 -3.07106 -3.9457
      vertex 4 -1.6235 -4.72909
    endloop
  endfacet
  facet normal -1 -1.42857e-16 -2.63977e-16
    outer loop
      vertex 1 -1.86702 -5.43845
      vertex 1 -3.53172 -4.53756
      vertex 1 -1.6235 -4.72909
    endloop
  endfacet
  facet normal -1 -1.77784e-16 -6.11959e-16
    outer loop
      vertex 1 -3.53172 -4.53756
      vertex 1 -3.07106 -3.9457
      vertex 1 -1.6235 -4.72909
    endloop
  endfacet
  facet normal -0 0.475947 0.879474
    outer loop
      vertex 2.48433e-15 -1.86702 -5.43845
      vertex 2.2843e-15 -3.53172 -4.53756
      vertex 1 -1.86702 -5.43845
    endloop
  endfacet
  facet normal -0 0.475947 0.879474
    outer loop
      vertex 2.2843e-15 -3.53172 -4.53756
      vertex 1 -3.53172 -4.53756
      vertex 1 -1.86702 -5.43845
    endloop
  endfacet
  facet normal 1 1.07143e-16 4.20027e-16
    outer loop
      vertex 6.48087e-16 -0.487049 -1.41873
      vertex 5.95903e-16 -0.921319 -1.18371
      vertex 2.48433e-15 -1.86702 -5.43845
    endloop
  endfacet
  facet normal 1 1.07143e-16 4.20027e-16
    outer loop
      vertex 5.95903e-16 -0.921319 -1.18371
      vertex 2.2843e-15 -3.53172 -4.53756
      vertex 2.48433e-15 -1.86702 -5.43845
    endloop
  endfacet
  facet normal 4.2359e-16 -0.475947 -0.879474
    outer loop
      vertex 4 -0.487049 -1.41873
      vertex 4 -0.921319 -1.18371
      vertex 6.48087e-16 -0.487049 -1.41873
    endloop
  endfacet
  facet normal 3.94585e-16 -0.475947 -0.879474
    outer loop
      vertex 4 -0.921319 -1.18371
      vertex 5.95903e-16 -0.921319 -1.18371
      vertex 6.48087e-16 -0.487049 -1.41873
    endloop
  endfacet
  facet normal -1 -2.44898e-16 -4.52532e-16
    outer loop
      vertex 4 -1.6235 -4.72909
      vertex 4 -3.07106 -3.9457
      vertex 4 -0.487049 -1.41873
    endloop
  endfacet
  facet normal -1 -2.44898e-16 -4.52532e-16
    outer loop
      vertex 4 -3.07106 -3.9457
      vertex 4 -0.921319 -1.18371
      vertex 4 -0.487049 -1.41873
    endloop
  endfacet
  facet normal -4.09682e-16 0.735724 0.677282
    outer loop
      vertex 1 -3.07106 -3.9457
      vertex 1 -4.18583 -2.73474
      vertex 4 -3.07106 -3.9457
    endloop
  endfacet
  facet normal -2.00516e-16 0.735724 0.677282
    outer loop
      vertex 1 -4.18583 -2.73474
      vertex 4 -4.18583 -2.73474
      vertex 4 -3.07106 -3.9457
    endloop
  endfacet
  facet normal -1 -2.53955e-16 -5.52673e-16
    outer loop
      vertex 1 -3.53172 -4.53756
      vertex 1 -4.81371 -3.14495
      vertex 1 -3.07106 -3.9457
    endloop
  endfacet
  facet normal -1 -1.46024e-16 -3.17787e-16
    outer loop
      vertex 1 -4.81371 -3.14495
      vertex 1 -4.18583 -2.73474
      vertex 1 -3.07106 -3.9457
    endloop
  endfacet
  facet normal -0 0.735724 0.677282
    outer loop
      vertex 2.2843e-15 -3.53172 -4.53756
      vertex 1.97508e-15 -4.81371 -3.14495
      vertex 1 -3.53172 -4.53756
    endloop
  endfacet
  facet normal -3.00773e-16 0.735724 0.677282
    outer loop
      vertex 1.97508e-15 -4.81371 -3.14495
      vertex 1 -4.81371 -3.14495
      vertex 1 -3.53172 -4.53756
    endloop
  endfacet
  facet normal 1 1.65622e-16 3.74511e-16
    outer loop
      vertex 5.95903e-16 -0.921319 -1.18371
      vertex 5.15237e-16 -1.25575 -0.820422
      vertex 2.2843e-15 -3.53172 -4.53756
    endloop
  endfacet
  facet normal 1 1.65622e-16 3.74511e-16
    outer loop
      vertex 5.15237e-16 -1.25575 -0.820422
      vertex 1.97508e-15 -4.81371 -3.14495
      vertex 2.2843e-15 -3.53172 -4.53756
    endloop
  endfacet
  facet normal 3.44859e-16 -0.735724 -0.677282
    outer loop
      vertex 4 -0.921319 -1.18371
      vertex 4 -1.25575 -0.820422
      vertex 5.95903e-16 -0.921319 -1.18371
    endloop
  endfacet
  facet normal 3.66901e-16 -0.735724 -0.677282
    outer loop
      vertex 4 -1.25575 -0.820422
      vertex 5.15237e-16 -1.25575 -0.820422
      vertex 5.95903e-16 -0.921319 -1.18371
    endloop
  endfacet
  facet normal -1 -3.78565e-16 -3.48494e-16
    outer loop
      vertex 4 -3.07106 -3.9457
      vertex 4 -4.18583 -2.73474
      vertex 4 -0.921319 -1.18371
    endloop
  endfacet
  facet normal -1 -3.78565e-16 -3.48494e-16
    outer loop
      vertex 4 -4.18583 -2.73474
      vertex 4 -1.25575 -0.820422
      vertex 4 -0.921319 -1.18371
    endloop
  endfacet
  facet normal -1.18926e-16 0.915773 0.401695
    outer loop
      vertex 1 -4.18583 -2.73474
      vertex 1 -4.847 -1.22743
      vertex 4 -4.18583 -2.73474
    endloop
  endfacet
  facet normal -3.90049e-16 0.915773 0.401695
    outer loop
      vertex 1 -4.847 -1.22743
      vertex 4 -4.847 -1.22743
      vertex 4 -4.18583 -2.73474
    endloop
  endfacet
  facet normal -1 -1.44775e-16 -3.19698e-16
    outer loop
      vertex 1 -4.81371 -3.14495
      vertex 1 -5.57405 -1.41154
      vertex 1 -4.18583 -2.73474
    endloop
  endfacet
  facet normal -1 -2.07723e-16 -3.85739e-16
    outer loop
      vertex 1 -5.57405 -1.41154
      vertex 1 -4.847 -1.22743
      vertex 1 -4.18583 -2.73474
    endloop
  endfacet
  facet normal -1.78389e-16 0.915773 0.401695
    outer loop
      vertex 1.97508e-15 -4.81371 -3.14495
      vertex 1.59018e-15 -5.57405 -1.41154
      vertex 1 -4.81371 -3.14495
    endloop
  endfacet
  facet normal -8.91943e-17 0.915773 0.401695
    outer loop
      vertex 1.59018e-15 -5.57405 -1.41154
      vertex 1 -5.57405 -1.41154
      vertex 1 -4.81371 -3.14495
    endloop
  endfacet
  facet normal 1 2.06154e-16 3.12472e-16
    outer loop
      vertex 5.15237e-16 -1.25575 -0.820422
      vertex 4.1483e-16 -1.4541 -0.368228
      vertex 1.97508e-15 -4.81371 -3.14495
    endloop
  endfacet
  facet normal 1 2.06154e-16 3.12472e-16
    outer loop
      vertex 4.1483e-16 -1.4541 -0.368228
      vertex 1.59018e-15 -5.57405 -1.41154
      vertex 1.97508e-15 -4.81371 -3.14495
    endloop
  endfacet
  facet normal 2.97448e-16 -0.915773 -0.401695
    outer loop
      vertex 4 -1.25575 -0.820422
      vertex 4 -1.4541 -0.368228
      vertex 5.15237e-16 -1.25575 -0.820422
    endloop
  endfacet
  facet normal 3.14835e-16 -0.915773 -0.401695
    outer loop
      vertex 4 -1.4541 -0.368228
      vertex 4.1483e-16 -1.4541 -0.368228
      vertex 5.15237e-16 -1.25575 -0.820422
    endloop
  endfacet
  facet normal -1 -1.71987e-16 -6.64686e-16
    outer loop
      vertex 4 -4.18583 -2.73474
      vertex 4 -4.847 -1.22743
      vertex 4 -1.25575 -0.820422
    endloop
  endfacet
  facet normal -1 -2.35605e-16 -1.03346e-16
    outer loop
      vertex 4 -4.847 -1.22743
      vertex 4 -1.4541 -0.368228
      vertex 4 -1.25575 -0.820422
    endloop
  endfacet
  facet normal -3.19497e-16 0.996584 0.0825793
    outer loop
      vertex 1 -4.847 -1.22743
      vertex 1 -4.98292 0.412897
      vertex 4 -4.847 -1.22743
    endloop
  endfacet
  facet normal -3.10329e-16 0.996584 0.0825793
    outer loop
      vertex 1 -4.98292 0.412897
      vertex 4 -4.98292 0.412897
      vertex 4 -4.847 -1.22743
    endloop
  endfacet
  facet normal -1 -2.69932e-16 -1.40077e-16
    outer loop
      vertex 1 -5.57405 -1.41154
      vertex 1 -5.73036 0.474831
      vertex 1 -4.847 -1.22743
    endloop
  endfacet
  facet normal -1 -3.10422e-16 -1.61089e-16
    outer loop
      vertex 1 -5.73036 0.474831
      vertex 1 -4.98292 0.412897
      vertex 1 -4.847 -1.22743
    endloop
  endfacet
  facet normal -1.83363e-17 0.996584 0.0825793
    outer loop
      vertex 1.59018e-15 -5.57405 -1.41154
      vertex 1.17132e-15 -5.73036 0.474831
      vertex 1 -5.57405 -1.41154
    endloop
  endfacet
  facet normal -1.83363e-17 0.996584 0.0825793
    outer loop
      vertex 1.17132e-15 -5.73036 0.474831
      vertex 1 -5.73036 0.474831
      vertex 1 -5.57405 -1.41154
    endloop
  endfacet
  facet normal 1 2.24346e-16 2.40634e-16
    outer loop
      vertex 4.1483e-16 -1.4541 -0.368228
      vertex 3.05562e-16 -1.49488 0.123869
      vertex 1.59018e-15 -5.57405 -1.41154
    endloop
  endfacet
  facet normal 1 2.24346e-16 2.40634e-16
    outer loop
      vertex 3.05562e-16 -1.49488 0.123869
      vertex 1.17132e-15 -5.73036 0.474831
      vertex 1.59018e-15 -5.57405 -1.41154
    endloop
  endfacet
  facet normal 2.44207e-16 -0.996584 -0.0825793
    outer loop
      vertex 4 -1.4541 -0.368228
      vertex 4 -1.49488 0.123869
      vertex 4.1483e-16 -1.4541 -0.368228
    endloop
  endfacet
  facet normal 2.3819e-16 -0.996584 -0.0825793
    outer loop
      vertex 4 -1.49488 0.123869
      vertex 3.05562e-16 -1.49488 0.123869
      vertex 4.1483e-16 -1.4541 -0.368228
    endloop
  endfacet
  facet normal -1 -2.56395e-16 -2.12455e-17
    outer loop
      vertex 4 -4.847 -1.22743
      vertex 4 -4.98292 0.412897
      vertex 4 -1.4541 -0.368228
    endloop
  endfacet
  facet normal -1 -2.56395e-16 -2.12455e-17
    outer loop
      vertex 4 -4.98292 0.412897
      vertex 4 -1.49488 0.123869
      vertex 4 -1.4541 -0.368228
    endloop
  endfacet
  facet normal -2.41576e-16 0.9694 -0.245485
    outer loop
      vertex 1 -4.98292 0.412897
      vertex 1 -4.57887 2.00848
      vertex 4 -4.98292 0.412897
    endloop
  endfacet
  facet normal -2.87e-16 0.9694 -0.245485
    outer loop
      vertex 1 -4.57887 2.00848
      vertex 4 -4.57887 2.00848
      vertex 4 -4.98292 0.412897
    endloop
  endfacet
  facet normal -1 -3.10611e-16 -1.63364e-16
    outer loop
      vertex 1 -5.73036 0.474831
      vertex 1 -5.2657 2.30975
      vertex 1 -4.98292 0.412897
    endloop
  endfacet
  facet normal -1 -4.00848e-16 -1.76816e-16
    outer loop
      vertex 1 -5.2657 2.30975
      vertex 1 -4.57887 2.00848
      vertex 1 -4.98292 0.412897
    endloop
  endfacet
  facet normal 5.45087e-17 0.9694 -0.245485
    outer loop
      vertex 1.17132e-15 -5.73036 0.474831
      vertex 7.63889e-16 -5.2657 2.30975
      vertex 1 -5.73036 0.474831
    endloop
  endfacet
  facet normal 1.09017e-16 0.9694 -0.245485
    outer loop
      vertex 7.63889e-16 -5.2657 2.30975
      vertex 1 -5.2657 2.30975
      vertex 1 -5.73036 0.474831
    endloop
  endfacet
  facet normal 1 2.18226e-16 1.66782e-16
    outer loop
      vertex 3.05562e-16 -1.49488 0.123869
      vertex 1.99275e-16 -1.37366 0.602543
      vertex 1.17132e-15 -5.73036 0.474831
    endloop
  endfacet
  facet normal 1 2.18226e-16 1.66782e-16
    outer loop
      vertex 1.99275e-16 -1.37366 0.602543
      vertex 7.63889e-16 -5.2657 2.30975
      vertex 1.17132e-15 -5.73036 0.474831
    endloop
  endfacet
  facet normal 1.65e-16 -0.9694 0.245485
    outer loop
      vertex 4 -1.49488 0.123869
      vertex 4 -1.37366 0.602543
      vertex 3.05562e-16 -1.49488 0.123869
    endloop
  endfacet
  facet normal 1.87996e-16 -0.9694 0.245485
    outer loop
      vertex 4 -1.37366 0.602543
      vertex 1.99275e-16 -1.37366 0.602543
      vertex 3.05562e-16 -1.49488 0.123869
    endloop
  endfacet
  facet normal -1 -2.94579e-16 -4.82052e-16
    outer loop
      vertex 4 -4.98292 0.412897
      vertex 4 -4.57887 2.00848
      vertex 4 -1.49488 0.123869
    endloop
  endfacet
  facet normal -1 0 0
    outer loop
      vertex 4 -4.57887 2.00848
      vertex 4 -1.37366 0.602543
      vertex 4 -1.49488 0.123869
    endloop
  endfacet
  facet normal -2.47851e-16 0.837166 -0.546948
    outer loop
      vertex 1 -4.57887 2.00848
      vertex 1 -3.67862 3.38641
      vertex 4 -4.57887 2.00848
    endloop
  endfacet
  facet normal -2.0489e-16 0.837166 -0.546948
    outer loop
      vertex 1 -3.67862 3.38641
      vertex 4 -3.67862 3.38641
      vertex 4 -4.57887 2.00848
    endloop
  endfacet
  facet normal -1 -3.46825e-16 -5.36573e-17
    outer loop
      vertex 1 -5.2657 2.30975
      vertex 1 -4.23041 3.89437
      vertex 1 -4.57887 2.00848
    endloop
  endfacet
  facet normal -1 -9.26313e-17 -1.00624e-16
    outer loop
      vertex 1 -4.23041 3.89437
      vertex 1 -3.67862 3.38641
      vertex 1 -4.57887 2.00848
    endloop
  endfacet
  facet normal 2.42894e-16 0.837166 -0.546948
    outer loop
      vertex 7.63889e-16 -5.2657 2.30975
      vertex 4.12033e-16 -4.23041 3.89437
      vertex 1 -5.2657 2.30975
    endloop
  endfacet
  facet normal 2.42894e-16 0.837166 -0.546948
    outer loop
      vertex 4.12033e-16 -4.23041 3.89437
      vertex 1 -4.23041 3.89437
      vertex 1 -5.2657 2.30975
    endloop
  endfacet
  facet normal 1 1.88459e-16 9.89184e-17
    outer loop
      vertex 1.99275e-16 -1.37366 0.602543
      vertex 1.07487e-16 -1.10359 1.01592
      vertex 7.63889e-16 -5.2657 2.30975
    endloop
  endfacet
  facet normal 1 1.88459e-16 9.89184e-17
    outer loop
      vertex 1.07487e-16 -1.10359 1.01592
      vertex 4.12033e-16 -4.23041 3.89437
      vertex 7.63889e-16 -5.2657 2.30975
    endloop
  endfacet
  facet normal 1.25165e-16 -0.837166 0.546948
    outer loop
      vertex 4 -1.37366 0.602543
      vertex 4 -1.10359 1.01592
      vertex 1.99275e-16 -1.37366 0.602543
    endloop
  endfacet
  facet normal 7.86928e-17 -0.837166 0.546948
    outer loop
      vertex 4 -1.10359 1.01592
      vertex 1.07487e-16 -1.10359 1.01592
      vertex 1.99275e-16 -1.37366 0.602543
    endloop
  endfacet
  facet normal -1 0 0
    outer loop
      vertex 4 -4.57887 2.00848
      vertex 4 -3.67862 3.38641
      vertex 4 -1.37366 0.602543
    endloop
  endfacet
  facet normal -1 -7.25233e-16 -6.00472e-16
    outer loop
      vertex 4 -3.67862 3.38641
      vertex 4 -1.10359 1.01592
      vertex 4 -1.37366 0.602543
    endloop
  endfacet
  facet normal -2.07738e-16 0.614213 -0.789141
    outer loop
      vertex 1 -3.67862 3.38641
      vertex 1 -2.37974 4.39737
      vertex 4 -3.67862 3.38641
    endloop
  endfacet
  facet normal -9.09217e-17 0.614213 -0.789141
    outer loop
      vertex 1 -2.37974 4.39737
      vertex 4 -2.37974 4.39737
      vertex 4 -3.67862 3.38641
    endloop
  endfacet
  facet normal -1 -8.0549e-17 -8.74995e-17
    outer loop
      vertex 1 -4.23041 3.89437
      vertex 1 -2.7367 5.05697
      vertex 1 -3.67862 3.38641
    endloop
  endfacet
  facet normal -1 -1.20285e-16 -6.5095e-17
    outer loop
      vertex 1 -2.7367 5.05697
      vertex 1 -2.37974 4.39737
      vertex 1 -3.67862 3.38641
    endloop
  endfacet
  facet normal 3.50449e-16 0.614213 -0.789141
    outer loop
      vertex 4.12033e-16 -4.23041 3.89437
      vertex 1.53883e-16 -2.7367 5.05697
      vertex 1 -4.23041 3.89437
    endloop
  endfacet
  facet normal 0 0.614213 -0.789141
    outer loop
      vertex 1.53883e-16 -2.7367 5.05697
      vertex 1 -2.7367 5.05697
      vertex 1 -4.23041 3.89437
    endloop
  endfacet
  facet normal 1 1.38268e-16 4.43973e-17
    outer loop
      vertex 1.07487e-16 -1.10359 1.01592
      vertex 4.01433e-17 -0.713921 1.31921
      vertex 4.12033e-16 -4.23041 3.89437
    endloop
  endfacet
  facet normal 1 1.38268e-16 4.43973e-17
    outer loop
      vertex 4.01433e-17 -0.713921 1.31921
      vertex 1.53883e-16 -2.7367 5.05697
      vertex 4.12033e-16 -4.23041 3.89437
    endloop
  endfacet
  facet normal 1.46748e-17 -0.614213 0.789141
    outer loop
      vertex 4 -1.10359 1.01592
      vertex 4 -0.713921 1.31921
      vertex 1.07487e-16 -1.10359 1.01592
    endloop
  endfacet
  facet normal 6.81913e-17 -0.614213 0.789141
    outer loop
      vertex 4 -0.713921 1.31921
      vertex 4.01433e-17 -0.713921 1.31921
      vertex 1.07487e-16 -1.10359 1.01592
    endloop
  endfacet
  facet normal -1 -7.90105e-17 1.01513e-16
    outer loop
      vertex 4 -3.67862 3.38641
      vertex 4 -2.37974 4.39737
      vertex 4 -1.10359 1.01592
    endloop
  endfacet
  facet normal -1 -7.90105e-17 1.01513e-16
    outer loop
      vertex 4 -2.37974 4.39737
      vertex 4 -0.713921 1.31921
      vertex 4 -1.10359 1.01592
    endloop
  endfacet
  facet normal -4.80652e-17 0.324699 -0.945817
    outer loop
      vertex 1 -2.37974 4.39737
      vertex 1 -0.822973 4.93181
      vertex 4 -2.37974 4.39737
    endloop
  endfacet
  facet normal -1.20163e-17 0.324699 -0.945817
    outer loop
      vertex 1 -0.822973 4.93181
      vertex 4 -0.822973 4.93181
      vertex 4 -2.37974 4.39737
    endloop
  endfacet
  facet normal -1 -1.04596e-16 -5.66043e-17
    outer loop
      vertex 1 -2.7367 5.05697
      vertex 1 -0.946419 5.67158
      vertex 1 -2.37974 4.39737
    endloop
  endfacet
  facet normal -1 -1.34904e-16 -2.25115e-17
    outer loop
      vertex 1 -0.946419 5.67158
      vertex 1 -0.822973 4.93181
      vertex 1 -2.37974 4.39737
    endloop
  endfacet
  facet normal 0 0.324699 -0.945817
    outer loop
      vertex 1.53883e-16 -2.7367 5.05697
      vertex 1.74133e-17 -0.946419 5.67158
      vertex 1 -2.7367 5.05697
    endloop
  endfacet
  facet normal 0 0.324699 -0.945817
    outer loop
      vertex 1.74133e-17 -0.946419 5.67158
      vertex 1 -0.946419 5.67158
      vertex 1 -2.7367 5.05697
    endloop
  endfacet
  facet normal 1 7.30947e-17 9.12707e-18
    outer loop
      vertex 4.01433e-17 -0.713921 1.31921
      vertex 4.5426e-18 -0.246892 1.47954
      vertex 1.53883e-16 -2.7367 5.05697
    endloop
  endfacet
  facet normal 1 7.30947e-17 9.12707e-18
    outer loop
      vertex 4.5426e-18 -0.246892 1.47954
      vertex 1.74133e-17 -0.946419 5.67158
      vertex 1.53883e-16 -2.7367 5.05697
    endloop
  endfacet
  facet normal 3.60489e-17 -0.324699 0.945817
    outer loop
      vertex 4 -0.713921 1.31921
      vertex 4 -0.246892 1.47954
      vertex 4.01433e-17 -0.713921 1.31921
    endloop
  endfacet
  facet normal 1.12653e-17 -0.324699 0.945817
    outer loop
      vertex 4 -0.246892 1.47954
      vertex 4.5426e-18 -0.246892 1.47954
      vertex 4.01433e-17 -0.713921 1.31921
    endloop
  endfacet
  facet normal -1 -4.17684e-17 1.21667e-16
    outer loop
      vertex 4 -2.37974 4.39737
      vertex 4 -0.822973 4.93181
      vertex 4 -0.713921 1.31921
    endloop
  endfacet
  facet normal -1 -4.17684e-17 1.21667e-16
    outer loop
      vertex 4 -0.822973 4.93181
      vertex 4 -0.246892 1.47954
      vertex 4 -0.713921 1.31921
    endloop
  endfacet
  facet normal -1.99698e-32 5.39616e-16 -1
    outer loop
      vertex 1 -0.822973 4.93181
      vertex 1 0.822973 4.93181
      vertex 4 -0.822973 4.93181
    endloop
  endfacet
  facet normal 1.99698e-32 5.39616e-16 -1
    outer loop
      vertex 1 0.822973 4.93181
      vertex 4 0.822973 4.93181
      vertex 4 -0.822973 4.93181
    endloop
  endfacet
  facet normal -1 0 0
    outer loop
      vertex 1 -0.946419 5.67158
      vertex 1 0.946419 5.67158
      vertex 1 -0.822973 4.93181
    endloop
  endfacet
  facet normal -1 0 0
    outer loop
      vertex 1 0.946419 5.67158
      vertex 1 0.822973 4.93181
      vertex 1 -0.822973 4.93181
    endloop
  endfacet
  facet normal 0 4.69231e-16 -1
    outer loop
      vertex 1.74133e-17 -0.946419 5.67158
      vertex 1.74133e-17 0.946419 5.67158
      vertex 1 -0.946419 5.67158
    endloop
  endfacet
  facet normal 0 4.69231e-16 -1
    outer loop
      vertex 1.74133e-17 0.946419 5.67158
      vertex 1 0.946419 5.67158
      vertex 1 -0.946419 5.67158
    endloop
  endfacet
  facet normal 1 0 -3.07027e-18
    outer loop
      vertex 4.5426e-18 -0.246892 1.47954
      vertex 4.5426e-18 0.246892 1.47954
      vertex 1.74133e-17 -0.946419 5.67158
    endloop
  endfacet
  facet normal 1 1.07184e-31 -3.07027e-18
    outer loop
      vertex 4.5426e-18 0.246892 1.47954
      vertex 1.74133e-17 0.946419 5.67158
      vertex 1.74133e-17 -0.946419 5.67158
    endloop
  endfacet
  facet normal 0 -0 1
    outer loop
      vertex 4 -0.246892 1.47954
      vertex 4 0.246892 1.47954
      vertex 4.5426e-18 -0.246892 1.47954
    endloop
  endfacet
  facet normal 0 0 1
    outer loop
      vertex 4 0.246892 1.47954
      vertex 4.5426e-18 0.246892 1.47954
      vertex 4.5426e-18 -0.246892 1.47954
    endloop
  endfacet
  facet normal -1 -6.94146e-32 1.28637e-16
    outer loop
      vertex 4 -0.822973 4.93181
      vertex 4 0.822973 4.93181
      vertex 4 -0.246892 1.47954
    endloop
  endfacet
  facet normal -1 0 1.28637e-16
    outer loop
      vertex 4 0.822973 4.93181
      vertex 4 0.246892 1.47954
      vertex 4 -0.246892 1.47954
    endloop
  endfacet
  facet normal -1.20163e-17 -0.324699 -0.945817
    outer loop
      vertex 1 0.822973 4.93181
      vertex 1 2.37974 4.39737
      vertex 4 0.822973 4.93181
    endloop
  endfacet
  facet normal -4.80652e-17 -0.324699 -0.945817
    outer loop
      vertex 1 2.37974 4.39737
      vertex 4 2.37974 4.39737
      vertex 4 0.822973 4.93181
    endloop
  endfacet
  facet normal -1 1.17308e-16 -1.95752e-17
    outer loop
      vertex 1 0.946419 5.67158
      vertex 1 2.7367 5.05697
      vertex 1 0.822973 4.93181
    endloop
  endfacet
  facet normal -1 1.20285e-16 -6.5095e-17
    outer loop
      vertex 1 2.7367 5.05697
      vertex 1 2.37974 4.39737
      vertex 1 0.822973 4.93181
    endloop
  endfacet
  facet normal 0 -0.324699 -0.945817
    outer loop
      vertex 1.74133e-17 0.946419 5.67158
      vertex 1.53883e-16 2.7367 5.05697
      vertex 1 0.946419 5.67158
    endloop
  endfacet
  facet normal 0 -0.324699 -0.945817
    outer loop
      vertex 1.53883e-16 2.7367 5.05697
      vertex 1 2.7367 5.05697
      vertex 1 0.946419 5.67158
    endloop
  endfacet
  facet normal 1 -7.30947e-17 9.12707e-18
    outer loop
      vertex 4.5426e-18 0.246892 1.47954
      vertex 4.01433e-17 0.713921 1.31921
      vertex 1.74133e-17 0.946419 5.67158
    endloop
  endfacet
  facet normal 1 -7.30947e-17 9.12707e-18
    outer loop
      vertex 4.01433e-17 0.713921 1.31921
      vertex 1.53883e-16 2.7367 5.05697
      vertex 1.74133e-17 0.946419 5.67158
    endloop
  endfacet
  facet normal 1.12653e-17 0.324699 0.945817
    outer loop
      vertex 4 0.246892 1.47954
      vertex 4 0.713921 1.31921
      vertex 4.5426e-18 0.246892 1.47954
    endloop
  endfacet
  facet normal -1.64545e-17 0.324699 0.945817
    outer loop
      vertex 4 0.713921 1.31921
      vertex 4.01433e-17 0.713921 1.31921
      vertex 4.5426e-18 0.246892 1.47954
    endloop
  endfacet
  facet normal -1 4.17684e-17 1.21667e-16
    outer loop
      vertex 4 0.822973 4.93181
      vertex 4 2.37974 4.39737
      vertex 4 0.246892 1.47954
    endloop
  endfacet
  facet normal -1 4.17684e-17 1.21667e-16
    outer loop
      vertex 4 2.37974 4.39737
      vertex 4 0.713921 1.31921
      vertex 4 0.246892 1.47954
    endloop
  endfacet
  facet normal -9.09217e-17 -0.614213 -0.789141
    outer loop
      vertex 1 2.37974 4.39737
      vertex 1 3.67862 3.38641
      vertex 4 2.37974 4.39737
    endloop
  endfacet
  facet normal -2.07738e-16 -0.614213 -0.789141
    outer loop
      vertex 1 3.67862 3.38641
      vertex 4 3.67862 3.38641
      vertex 4 2.37974 4.39737
    endloop
  endfacet
  facet normal -1 1.04596e-16 -5.66043e-17
    outer loop
      vertex 1 2.7367 5.05697
      vertex 1 4.23041 3.89437
      vertex 1 2.37974 4.39737
    endloop
  endfacet
  facet normal -1 9.26313e-17 -1.00624e-16
    outer loop
      vertex 1 4.23041 3.89437
      vertex 1 3.67862 3.38641
      vertex 1 2.37974 4.39737
    endloop
  endfacet
  facet normal 0 -0.614213 -0.789141
    outer loop
      vertex 1.53883e-16 2.7367 5.05697
      vertex 4.12033e-16 4.23041 3.89437
      vertex 1 2.7367 5.05697
    endloop
  endfacet
  facet normal 3.50449e-16 -0.614213 -0.789141
    outer loop
      vertex 4.12033e-16 4.23041 3.89437
      vertex 1 4.23041 3.89437
      vertex 1 2.7367 5.05697
    endloop
  endfacet
  facet normal 1 -1.38268e-16 4.43973e-17
    outer loop
      vertex 4.01433e-17 0.713921 1.31921
      vertex 1.07487e-16 1.10359 1.01592
      vertex 1.53883e-16 2.7367 5.05697
    endloop
  endfacet
  facet normal 1 -1.38268e-16 4.43973e-17
    outer loop
      vertex 1.07487e-16 1.10359 1.01592
      vertex 4.12033e-16 4.23041 3.89437
      vertex 1.53883e-16 2.7367 5.05697
    endloop
  endfacet
  facet normal 2.43852e-17 0.614213 0.789141
    outer loop
      vertex 4 0.713921 1.31921
      vertex 4 1.10359 1.01592
      vertex 4.01433e-17 0.713921 1.31921
    endloop
  endfacet
  facet normal 1.46748e-17 0.614213 0.789141
    outer loop
      vertex 4 1.10359 1.01592
      vertex 1.07487e-16 1.10359 1.01592
      vertex 4.01433e-17 0.713921 1.31921
    endloop
  endfacet
  facet normal -1 7.90105e-17 1.01513e-16
    outer loop
      vertex 4 2.37974 4.39737
      vertex 4 3.67862 3.38641
      vertex 4 0.713921 1.31921
    endloop
  endfacet
  facet normal -1 7.90105e-17 1.01513e-16
    outer loop
      vertex 4 3.67862 3.38641
      vertex 4 1.10359 1.01592
      vertex 4 0.713921 1.31921
    endloop
  endfacet
  facet normal -2.0489e-16 -0.837166 -0.546948
    outer loop
      vertex 1 3.67862 3.38641
      vertex 1 4.57887 2.00848
      vertex 4 3.67862 3.38641
    endloop
  endfacet
  facet normal -2.47851e-16 -0.837166 -0.546948
    outer loop
      vertex 1 4.57887 2.00848
      vertex 4 4.57887 2.00848
      vertex 4 3.67862 3.38641
    endloop
  endfacet
  facet normal -1 1.61098e-16 -1.74999e-16
    outer loop
      vertex 1 4.23041 3.89437
      vertex 1 5.2657 2.30975
      vertex 1 3.67862 3.38641
    endloop
  endfacet
  facet normal -1 3.06218e-16 3.89185e-17
    outer loop
      vertex 1 5.2657 2.30975
      vertex 1 4.57887 2.00848
      vertex 1 3.67862 3.38641
    endloop
  endfacet
  facet normal 2.42894e-16 -0.837166 -0.546948
    outer loop
      vertex 4.12033e-16 4.23041 3.89437
      vertex 7.63889e-16 5.2657 2.30975
      vertex 1 4.23041 3.89437
    endloop
  endfacet
  facet normal 2.42894e-16 -0.837166 -0.546948
    outer loop
      vertex 7.63889e-16 5.2657 2.30975
      vertex 1 5.2657 2.30975
      vertex 1 4.23041 3.89437
    endloop
  endfacet
  facet normal 1 -1.88459e-16 9.89184e-17
    outer loop
      vertex 1.07487e-16 1.10359 1.01592
      vertex 1.99275e-16 1.37366 0.602543
      vertex 4.12033e-16 4.23041 3.89437
    endloop
  endfacet
  facet normal 1 -1.88459e-16 9.89184e-17
    outer loop
      vertex 1.99275e-16 1.37366 0.602543
      vertex 7.63889e-16 5.2657 2.30975
      vertex 4.12033e-16 4.23041 3.89437
    endloop
  endfacet
  facet normal 7.86928e-17 0.837166 0.546948
    outer loop
      vertex 4 1.10359 1.01592
      vertex 4 1.37366 0.602543
      vertex 1.07487e-16 1.10359 1.01592
    endloop
  endfacet
  facet normal 1.09984e-16 0.837166 0.546948
    outer loop
      vertex 4 1.37366 0.602543
      vertex 1.99275e-16 1.37366 0.602543
      vertex 1.07487e-16 1.10359 1.01592
    endloop
  endfacet
  facet normal -1 1.07691e-16 7.03578e-17
    outer loop
      vertex 4 3.67862 3.38641
      vertex 4 4.57887 2.00848
      vertex 4 1.10359 1.01592
    endloop
  endfacet
  facet normal -1 3.66264e-16 -8.34998e-16
    outer loop
      vertex 4 4.57887 2.00848
      vertex 4 1.37366 0.602543
      vertex 4 1.10359 1.01592
    endloop
  endfacet
  facet normal -2.87e-16 -0.9694 -0.245485
    outer loop
      vertex 1 4.57887 2.00848
      vertex 1 4.98292 0.412897
      vertex 4 4.57887 2.00848
    endloop
  endfacet
  facet normal -2.41576e-16 -0.9694 -0.245485
    outer loop
      vertex 1 4.98292 0.412897
      vertex 4 4.98292 0.412897
      vertex 4 4.57887 2.00848
    endloop
  endfacet
  facet normal -1 3.86516e-16 -1.44142e-16
    outer loop
      vertex 1 5.2657 2.30975
      vertex 1 5.73036 0.474831
      vertex 1 4.57887 2.00848
    endloop
  endfacet
  facet normal -1 3.13557e-16 -1.98921e-16
    outer loop
      vertex 1 5.73036 0.474831
      vertex 1 4.98292 0.412897
      vertex 1 4.57887 2.00848
    endloop
  endfacet
  facet normal 1.09017e-16 -0.9694 -0.245485
    outer loop
      vertex 7.63889e-16 5.2657 2.30975
      vertex 1.17132e-15 5.73036 0.474831
      vertex 1 5.2657 2.30975
    endloop
  endfacet
  facet normal 5.45087e-17 -0.9694 -0.245485
    outer loop
      vertex 1.17132e-15 5.73036 0.474831
      vertex 1 5.73036 0.474831
      vertex 1 5.2657 2.30975
    endloop
  endfacet
  facet normal 1 -2.18226e-16 1.66782e-16
    outer loop
      vertex 1.99275e-16 1.37366 0.602543
      vertex 3.05562e-16 1.49488 0.123869
      vertex 7.63889e-16 5.2657 2.30975
    endloop
  endfacet
  facet normal 1 -2.18226e-16 1.66782e-16
    outer loop
      vertex 3.05562e-16 1.49488 0.123869
      vertex 1.17132e-15 5.73036 0.474831
      vertex 7.63889e-16 5.2657 2.30975
    endloop
  endfacet
  facet normal 1.81182e-16 0.9694 0.245485
    outer loop
      vertex 4 1.37366 0.602543
      vertex 4 1.49488 0.123869
      vertex 1.99275e-16 1.37366 0.602543
    endloop
  endfacet
  facet normal 1.65e-16 0.9694 0.245485
    outer loop
      vertex 4 1.49488 0.123869
      vertex 3.05562e-16 1.49488 0.123869
      vertex 1.99275e-16 1.37366 0.602543
    endloop
  endfacet
  facet normal -1 2.19758e-16 -5.00999e-16
    outer loop
      vertex 4 4.57887 2.00848
      vertex 4 4.98292 0.412897
      vertex 4 1.37366 0.602543
    endloop
  endfacet
  facet normal -1 2.49402e-16 6.31571e-17
    outer loop
      vertex 4 4.98292 0.412897
      vertex 4 1.49488 0.123869
      vertex 4 1.37366 0.602543
    endloop
  endfacet
  facet normal -3.10329e-16 -0.996584 0.0825793
    outer loop
      vertex 1 4.98292 0.412897
      vertex 1 4.847 -1.22743
      vertex 4 4.98292 0.412897
    endloop
  endfacet
  facet normal -3.19497e-16 -0.996584 0.0825793
    outer loop
      vertex 1 4.847 -1.22743
      vertex 4 4.847 -1.22743
      vertex 4 4.98292 0.412897
    endloop
  endfacet
  facet normal -1 3.08949e-16 -1.4331e-16
    outer loop
      vertex 1 5.73036 0.474831
      vertex 1 5.57405 -1.41154
      vertex 1 4.98292 0.412897
    endloop
  endfacet
  facet normal -1 2.65553e-16 -1.57371e-16
    outer loop
      vertex 1 5.57405 -1.41154
      vertex 1 4.847 -1.22743
      vertex 1 4.98292 0.412897
    endloop
  endfacet
  facet normal -1.83363e-17 -0.996584 0.0825793
    outer loop
      vertex 1.17132e-15 5.73036 0.474831
      vertex 1.59018e-15 5.57405 -1.41154
      vertex 1 5.73036 0.474831
    endloop
  endfacet
  facet normal -1.83363e-17 -0.996584 0.0825793
    outer loop
      vertex 1.59018e-15 5.57405 -1.41154
      vertex 1 5.57405 -1.41154
      vertex 1 5.73036 0.474831
    endloop
  endfacet
  facet normal 1 -2.24346e-16 2.40634e-16
    outer loop
      vertex 3.05562e-16 1.49488 0.123869
      vertex 4.1483e-16 1.4541 -0.368228
      vertex 1.17132e-15 5.73036 0.474831
    endloop
  endfacet
  facet normal 1 -2.24346e-16 2.40634e-16
    outer loop
      vertex 4.1483e-16 1.4541 -0.368228
      vertex 1.59018e-15 5.57405 -1.41154
      vertex 1.17132e-15 5.73036 0.474831
    endloop
  endfacet
  facet normal 2.3819e-16 0.996584 -0.0825793
    outer loop
      vertex 4 1.49488 0.123869
      vertex 4 1.4541 -0.368228
      vertex 3.05562e-16 1.49488 0.123869
    endloop
  endfacet
  facet normal 2.44207e-16 0.996584 -0.0825793
    outer loop
      vertex 4 1.4541 -0.368228
      vertex 4.1483e-16 1.4541 -0.368228
      vertex 3.05562e-16 1.49488 0.123869
    endloop
  endfacet
  facet normal -1 2.56395e-16 -2.12455e-17
    outer loop
      vertex 4 4.98292 0.412897
      vertex 4 4.847 -1.22743
      vertex 4 1.49488 0.123869
    endloop
  endfacet
  facet normal -1 2.56395e-16 -2.12455e-17
    outer loop
      vertex 4 4.847 -1.22743
      vertex 4 1.4541 -0.368228
      vertex 4 1.49488 0.123869
    endloop
  endfacet
  facet normal -3.90049e-16 -0.915773 0.401695
    outer loop
      vertex 1 4.847 -1.22743
      vertex 1 4.18583 -2.73474
      vertex 4 4.847 -1.22743
    endloop
  endfacet
  facet normal -3.90049e-16 -0.915773 0.401695
    outer loop
      vertex 1 4.18583 -2.73474
      vertex 4 4.18583 -2.73474
      vertex 4 4.847 -1.22743
    endloop
  endfacet
  facet normal -1 2.16481e-16 -3.51151e-16
    outer loop
      vertex 1 5.57405 -1.41154
      vertex 1 4.81371 -3.14495
      vertex 1 4.847 -1.22743
    endloop
  endfacet
  facet normal -1 1.25261e-16 -3.49568e-16
    outer loop
      vertex 1 4.81371 -3.14495
      vertex 1 4.18583 -2.73474
      vertex 1 4.847 -1.22743
    endloop
  endfacet
  facet normal -8.91943e-17 -0.915773 0.401695
    outer loop
      vertex 1.59018e-15 5.57405 -1.41154
      vertex 1.97508e-15 4.81371 -3.14495
      vertex 1 5.57405 -1.41154
    endloop
  endfacet
  facet normal -1.78389e-16 -0.915773 0.401695
    outer loop
      vertex 1.97508e-15 4.81371 -3.14495
      vertex 1 4.81371 -3.14495
      vertex 1 5.57405 -1.41154
    endloop
  endfacet
  facet normal 1 -2.06154e-16 3.12472e-16
    outer loop
      vertex 4.1483e-16 1.4541 -0.368228
      vertex 5.15237e-16 1.25575 -0.820422
      vertex 1.59018e-15 5.57405 -1.41154
    endloop
  endfacet
  facet normal 1 -2.06154e-16 3.12472e-16
    outer loop
      vertex 5.15237e-16 1.25575 -0.820422
      vertex 1.97508e-15 4.81371 -3.14495
      vertex 1.59018e-15 5.57405 -1.41154
    endloop
  endfacet
  facet normal 3.14835e-16 0.915773 -0.401695
    outer loop
      vertex 4 1.4541 -0.368228
      vertex 4 1.25575 -0.820422
      vertex 4.1483e-16 1.4541 -0.368228
    endloop
  endfacet
  facet normal 2.86298e-16 0.915773 -0.401695
    outer loop
      vertex 4 1.25575 -0.820422
      vertex 5.15237e-16 1.25575 -0.820422
      vertex 4.1483e-16 1.4541 -0.368228
    endloop
  endfacet
  facet normal -1 1.01305e-16 -6.33683e-16
    outer loop
      vertex 4 4.847 -1.22743
      vertex 4 4.18583 -2.73474
      vertex 4 1.4541 -0.368228
    endloop
  endfacet
  facet normal -1 4.7121e-16 -2.06692e-16
    outer loop
      vertex 4 4.18583 -2.73474
      vertex 4 1.25575 -0.820422
      vertex 4 1.4541 -0.368228
    endloop
  endfacet
  facet normal -4.18334e-16 -0.735724 0.677282
    outer loop
      vertex 1 4.18583 -2.73474
      vertex 1 3.07106 -3.9457
      vertex 4 4.18583 -2.73474
    endloop
  endfacet
  facet normal -4.09682e-16 -0.735724 0.677282
    outer loop
      vertex 1 3.07106 -3.9457
      vertex 4 3.07106 -3.9457
      vertex 4 4.18583 -2.73474
    endloop
  endfacet
  facet normal -1 9.0733e-17 -4.02416e-16
    outer loop
      vertex 1 4.81371 -3.14495
      vertex 1 3.53172 -4.53756
      vertex 1 4.18583 -2.73474
    endloop
  endfacet
  facet normal -1 3.3373e-16 -4.90582e-16
    outer loop
      vertex 1 3.53172 -4.53756
      vertex 1 3.07106 -3.9457
      vertex 1 4.18583 -2.73474
    endloop
  endfacet
  facet normal -3.00773e-16 -0.735724 0.677282
    outer loop
      vertex 1.97508e-15 4.81371 -3.14495
      vertex 2.2843e-15 3.53172 -4.53756
      vertex 1 4.81371 -3.14495
    endloop
  endfacet
  facet normal 0 -0.735724 0.677282
    outer loop
      vertex 2.2843e-15 3.53172 -4.53756
      vertex 1 3.53172 -4.53756
      vertex 1 4.81371 -3.14495
    endloop
  endfacet
  facet normal 1 -1.65622e-16 3.74511e-16
    outer loop
      vertex 5.15237e-16 1.25575 -0.820422
      vertex 5.95903e-16 0.921319 -1.18371
      vertex 1.97508e-15 4.81371 -3.14495
    endloop
  endfacet
  facet normal 1 -1.65622e-16 3.74511e-16
    outer loop
      vertex 5.95903e-16 0.921319 -1.18371
      vertex 2.2843e-15 3.53172 -4.53756
      vertex 1.97508e-15 4.81371 -3.14495
    endloop
  endfacet
  facet normal 3.48103e-16 0.735724 -0.677282
    outer loop
      vertex 4 1.25575 -0.820422
      vertex 4 0.921319 -1.18371
      vertex 5.15237e-16 1.25575 -0.820422
    endloop
  endfacet
  facet normal 3.44859e-16 0.735724 -0.677282
    outer loop
      vertex 4 0.921319 -1.18371
      vertex 5.95903e-16 0.921319 -1.18371
      vertex 5.15237e-16 1.25575 -0.820422
    endloop
  endfacet
  facet normal -1 3.78565e-16 -3.48494e-16
    outer loop
      vertex 4 4.18583 -2.73474
      vertex 4 3.07106 -3.9457
      vertex 4 1.25575 -0.820422
    endloop
  endfacet
  facet normal -1 3.78565e-16 -3.48494e-16
    outer loop
      vertex 4 3.07106 -3.9457
      vertex 4 0.921319 -1.18371
      vertex 4 1.25575 -0.820422
    endloop
  endfacet
  facet normal -4.61019e-16 -0.475947 0.879474
    outer loop
      vertex 1 3.07106 -3.9457
      vertex 1 1.6235 -4.72909
      vertex 4 3.07106 -3.9457
    endloop
  endfacet
  facet normal -5.5598e-16 -0.475947 0.879474
    outer loop
      vertex 1 1.6235 -4.72909
      vertex 4 1.6235 -4.72909
      vertex 4 3.07106 -3.9457
    endloop
  endfacet
  facet normal -1 2.85714e-16 -5.27954e-16
    outer loop
      vertex 1 3.53172 -4.53756
      vertex 1 1.86702 -5.43845
      vertex 1 3.07106 -3.9457
    endloop
  endfacet
  facet normal -1 1.34984e-17 -3.08386e-16
    outer loop
      vertex 1 1.86702 -5.43845
      vertex 1 1.6235 -4.72909
      vertex 1 3.07106 -3.9457
    endloop
  endfacet
  facet normal 0 -0.475947 0.879474
    outer loop
      vertex 2.2843e-15 3.53172 -4.53756
      vertex 2.48433e-15 1.86702 -5.43845
      vertex 1 3.53172 -4.53756
    endloop
  endfacet
  facet normal 0 -0.475947 0.879474
    outer loop
      vertex 2.48433e-15 1.86702 -5.43845
      vertex 1 1.86702 -5.43845
      vertex 1 3.53172 -4.53756
    endloop
  endfacet
  facet normal 1 -1.07143e-16 4.20027e-16
    outer loop
      vertex 5.95903e-16 0.921319 -1.18371
      vertex 6.48087e-16 0.487049 -1.41873
      vertex 2.2843e-15 3.53172 -4.53756
    endloop
  endfacet
  facet normal 1 -1.07143e-16 4.20027e-16
    outer loop
      vertex 6.48087e-16 0.487049 -1.41873
      vertex 2.48433e-15 1.86702 -5.43845
      vertex 2.2843e-15 3.53172 -4.53756
    endloop
  endfacet
  facet normal 3.94585e-16 0.475947 -0.879474
    outer loop
      vertex 4 0.921319 -1.18371
      vertex 4 0.487049 -1.41873
      vertex 5.95903e-16 0.921319 -1.18371
    endloop
  endfacet
  facet normal 4.30195e-16 0.475947 -0.879474
    outer loop
      vertex 4 0.487049 -1.41873
      vertex 6.48087e-16 0.487049 -1.41873
      vertex 5.95903e-16 0.921319 -1.18371
    endloop
  endfacet
  facet normal -1 2.44898e-16 -4.52532e-16
    outer loop
      vertex 4 3.07106 -3.9457
      vertex 4 1.6235 -4.72909
      vertex 4 0.921319 -1.18371
    endloop
  endfacet
  facet normal -1 2.44898e-16 -4.52532e-16
    outer loop
      vertex 4 1.6235 -4.72909
      vertex 4 0.487049 -1.41873
      vertex 4 0.921319 -1.18371
    endloop
  endfacet
  facet normal -5.96226e-16 -0.164595 0.986361
    outer loop
      vertex 1 1.6235 -4.72909
      vertex 1 -3.06162e-16 -5
      vertex 4 1.6235 -4.72909
    endloop
  endfacet
  facet normal -5.84043e-16 -0.164595 0.986361
    outer loop
      vertex 1 -3.06162e-16 -5
      vertex 4 -3.06162e-16 -5
      vertex 4 1.6235 -4.72909
    endloop
  endfacet
  facet normal -1 -6.30823e-17 -3.34676e-16
    outer loop
      vertex 1 1.86702 -5.43845
      vertex 1 -3.52086e-16 -5.75
      vertex 1 1.6235 -4.72909
    endloop
  endfacet
  facet normal -1 9.88072e-17 -5.92119e-16
    outer loop
      vertex 1 -3.52086e-16 -5.75
      vertex 1 -3.06162e-16 -5
      vertex 1 1.6235 -4.72909
    endloop
  endfacet
  facet normal 0 -0.164595 0.986361
    outer loop
      vertex 2.48433e-15 1.86702 -5.43845
      vertex 2.55351e-15 -3.52086e-16 -5.75
      vertex 1 1.86702 -5.43845
    endloop
  endfacet
  facet normal 0 -0.164595 0.986361
    outer loop
      vertex 2.55351e-15 -3.52086e-16 -5.75
      vertex 1 -3.52086e-16 -5.75
      vertex 1 1.86702 -5.43845
    endloop
  endfacet
  facet normal 1 -3.70527e-17 4.44089e-16
    outer loop
      vertex 6.48087e-16 0.487049 -1.41873
      vertex 6.66134e-16 -9.18485e-17 -1.5
      vertex 2.48433e-15 1.86702 -5.43845
    endloop
  endfacet
  facet normal 1 -3.70527e-17 4.44089e-16
    outer loop
      vertex 6.66134e-16 -9.18485e-17 -1.5
      vertex 2.55351e-15 -3.52086e-16 -5.75
      vertex 2.48433e-15 1.86702 -5.43845
    endloop
  endfacet
  facet normal 4.51738e-16 0.164595 -0.986361
    outer loop
      vertex 4 0.487049 -1.41873
      vertex 4 -9.18485e-17 -1.5
      vertex 6.48087e-16 0.487049 -1.41873
    endloop
  endfacet
  facet normal 4.38032e-16 0.164595 -0.986361
    outer loop
      vertex 4 -9.18485e-17 -1.5
      vertex 6.66134e-16 -9.18485e-17 -1.5
      vertex 6.48087e-16 0.487049 -1.41873
    endloop
  endfacet
  facet normal -1 8.46919e-17 -5.07531e-16
    outer loop
      vertex 4 1.6235 -4.72909
      vertex 4 -3.06162e-16 -5
      vertex 4 0.487049 -1.41873
    endloop
  endfacet
  facet normal -1 8.46919e-17 -5.07531e-16
    outer loop
      vertex 4 -3.06162e-16 -5
      vertex 4 -9.18485e-17 -1.5
      vertex 4 0.487049 -1.41873
    endloop
  endfacet
endsolid OpenSCAD_Model
