solid OpenSCAD_Model
  facet normal 0 0.5 -0.866025
    outer loop
      vertex 1.02558e-15 0 -4.6188
      vertex 6 4 -2.3094
      vertex 6 0 -4.6188
    endloop
  endfacet
  facet normal 0 0.5 -0.866025
    outer loop
      vertex 6 4 -2.3094
      vertex 1.02558e-15 0 -4.6188
      vertex 5.1279e-16 4 -2.3094
    endloop
  endfacet
  facet normal -0 0.5 0.866025
    outer loop
      vertex -5.1279e-16 4 2.3094
      vertex 6 0 4.6188
      vertex 6 4 2.3094
    endloop
  endfacet
  facet normal 0 0.5 0.866025
    outer loop
      vertex 6 0 4.6188
      vertex -5.1279e-16 4 2.3094
      vertex -1.02558e-15 0 4.6188
    endloop
  endfacet
  facet normal 0 1 -2.06477e-07
    outer loop
      vertex 6 4 -2.3094
      vertex -5.1279e-16 4 2.3094
      vertex 6 4 2.3094
    endloop
  endfacet
  facet normal 0 1 -2.06477e-07
    outer loop
      vertex -5.1279e-16 4 2.3094
      vertex 6 4 -2.3094
      vertex 5.1279e-16 4 -2.3094
    endloop
  endfacet
  facet normal 1 0 0
    outer loop
      vertex 6 4 2.3094
      vertex 6 2.5 1.33227e-15
      vertex 6 4 -2.3094
    endloop
  endfacet
  facet normal 1 0 0
    outer loop
      vertex 6 4 2.3094
      vertex 6 2.47861 0.326315
      vertex 6 2.5 1.33227e-15
    endloop
  endfacet
  facet normal 1 0 0
    outer loop
      vertex 6 4 2.3094
      vertex 6 2.41481 0.647047
      vertex 6 2.47861 0.326315
    endloop
  endfacet
  facet normal 1 0 0
    outer loop
      vertex 6 4 2.3094
      vertex 6 2.3097 0.956708
      vertex 6 2.41481 0.647047
    endloop
  endfacet
  facet normal 1 0 0
    outer loop
      vertex 6 4 2.3094
      vertex 6 2.16506 1.25
      vertex 6 2.3097 0.956708
    endloop
  endfacet
  facet normal 1 0 0
    outer loop
      vertex 6 4 2.3094
      vertex 6 1.98338 1.5219
      vertex 6 2.16506 1.25
    endloop
  endfacet
  facet normal 1 0 0
    outer loop
      vertex 6 4 2.3094
      vertex 6 1.76777 1.76777
      vertex 6 1.98338 1.5219
    endloop
  endfacet
  facet normal 1 0 0
    outer loop
      vertex 6 4 2.3094
      vertex 6 1.5219 1.98338
      vertex 6 1.76777 1.76777
    endloop
  endfacet
  facet normal 1 0 0
    outer loop
      vertex 6 4 2.3094
      vertex 6 1.25 2.16506
      vertex 6 1.5219 1.98338
    endloop
  endfacet
  facet normal 1 0 0
    outer loop
      vertex 6 0 4.6188
      vertex 6 1.25 2.16506
      vertex 6 4 2.3094
    endloop
  endfacet
  facet normal 1 0 0
    outer loop
      vertex 6 1.25 2.16506
      vertex 6 0 4.6188
      vertex 6 0.956708 2.3097
    endloop
  endfacet
  facet normal 1 0 0
    outer loop
      vertex 6 0.956708 2.3097
      vertex 6 0 4.6188
      vertex 6 0.647047 2.41481
    endloop
  endfacet
  facet normal 1 0 0
    outer loop
      vertex 6 0.647047 2.41481
      vertex 6 0 4.6188
      vertex 6 0.326315 2.47861
    endloop
  endfacet
  facet normal 1 0 0
    outer loop
      vertex 6 0 4.6188
      vertex 6 0 2.5
      vertex 6 0.326315 2.47861
    endloop
  endfacet
  facet normal 1 0 0
    outer loop
      vertex 6 0 4.6188
      vertex 6 -0.326315 2.47861
      vertex 6 0 2.5
    endloop
  endfacet
  facet normal 1 0 0
    outer loop
      vertex 6 0 4.6188
      vertex 6 -0.647047 2.41481
      vertex 6 -0.326315 2.47861
    endloop
  endfacet
  facet normal 1 0 0
    outer loop
      vertex 6 0 4.6188
      vertex 6 -0.956708 2.3097
      vertex 6 -0.647047 2.41481
    endloop
  endfacet
  facet normal 1 0 0
    outer loop
      vertex 6 0 4.6188
      vertex 6 -1.25 2.16506
      vertex 6 -0.956708 2.3097
    endloop
  endfacet
  facet normal 1 -0 0
    outer loop
      vertex 6 -4 2.3094
      vertex 6 -1.25 2.16506
      vertex 6 0 4.6188
    endloop
  endfacet
  facet normal 1 0 0
    outer loop
      vertex 6 -1.25 2.16506
      vertex 6 -4 2.3094
      vertex 6 -1.5219 1.98338
    endloop
  endfacet
  facet normal 1 0 0
    outer loop
      vertex 6 -1.5219 1.98338
      vertex 6 -4 2.3094
      vertex 6 -1.76777 1.76777
    endloop
  endfacet
  facet normal 1 0 0
    outer loop
      vertex 6 -1.76777 1.76777
      vertex 6 -4 2.3094
      vertex 6 -1.98338 1.5219
    endloop
  endfacet
  facet normal 1 0 0
    outer loop
      vertex 6 -2.47861 0.326315
      vertex 6 -4 2.3094
      vertex 6 -2.5 1.33227e-15
    endloop
  endfacet
  facet normal 1 0 0
    outer loop
      vertex 6 -2.41481 0.647047
      vertex 6 -4 2.3094
      vertex 6 -2.47861 0.326315
    endloop
  endfacet
  facet normal 1 0 0
    outer loop
      vertex 6 -2.3097 0.956708
      vertex 6 -4 2.3094
      vertex 6 -2.41481 0.647047
    endloop
  endfacet
  facet normal 1 0 0
    outer loop
      vertex 6 -2.16506 1.25
      vertex 6 -4 2.3094
      vertex 6 -2.3097 0.956708
    endloop
  endfacet
  facet normal 1 0 0
    outer loop
      vertex 6 -1.98338 1.5219
      vertex 6 -4 2.3094
      vertex 6 -2.16506 1.25
    endloop
  endfacet
  facet normal 1 -0 0
    outer loop
      vertex 6 2.47861 -0.326315
      vertex 6 4 -2.3094
      vertex 6 2.5 1.33227e-15
    endloop
  endfacet
  facet normal 1 -0 0
    outer loop
      vertex 6 2.41481 -0.647047
      vertex 6 4 -2.3094
      vertex 6 2.47861 -0.326315
    endloop
  endfacet
  facet normal 1 -0 0
    outer loop
      vertex 6 2.3097 -0.956708
      vertex 6 4 -2.3094
      vertex 6 2.41481 -0.647047
    endloop
  endfacet
  facet normal 1 -0 0
    outer loop
      vertex 6 2.16506 -1.25
      vertex 6 4 -2.3094
      vertex 6 2.3097 -0.956708
    endloop
  endfacet
  facet normal 1 -0 0
    outer loop
      vertex 6 1.98338 -1.5219
      vertex 6 4 -2.3094
      vertex 6 2.16506 -1.25
    endloop
  endfacet
  facet normal 1 -0 0
    outer loop
      vertex 6 1.76777 -1.76777
      vertex 6 4 -2.3094
      vertex 6 1.98338 -1.5219
    endloop
  endfacet
  facet normal 1 -0 0
    outer loop
      vertex 6 1.5219 -1.98338
      vertex 6 4 -2.3094
      vertex 6 1.76777 -1.76777
    endloop
  endfacet
  facet normal 1 -0 0
    outer loop
      vertex 6 1.25 -2.16506
      vertex 6 4 -2.3094
      vertex 6 1.5219 -1.98338
    endloop
  endfacet
  facet normal 1 0 0
    outer loop
      vertex 6 0 -4.6188
      vertex 6 1.25 -2.16506
      vertex 6 0.956708 -2.3097
    endloop
  endfacet
  facet normal 1 0 0
    outer loop
      vertex 6 0 -4.6188
      vertex 6 0.956708 -2.3097
      vertex 6 0.647047 -2.41481
    endloop
  endfacet
  facet normal 1 0 0
    outer loop
      vertex 6 0 -4.6188
      vertex 6 0.647047 -2.41481
      vertex 6 0.326315 -2.47861
    endloop
  endfacet
  facet normal 1 0 0
    outer loop
      vertex 6 0 -4.6188
      vertex 6 0.326315 -2.47861
      vertex 6 0 -2.5
    endloop
  endfacet
  facet normal 1 0 0
    outer loop
      vertex 6 1.25 -2.16506
      vertex 6 0 -4.6188
      vertex 6 4 -2.3094
    endloop
  endfacet
  facet normal 1 0 0
    outer loop
      vertex 6 -0.326315 -2.47861
      vertex 6 0 -4.6188
      vertex 6 0 -2.5
    endloop
  endfacet
  facet normal 1 0 0
    outer loop
      vertex 6 -0.647047 -2.41481
      vertex 6 0 -4.6188
      vertex 6 -0.326315 -2.47861
    endloop
  endfacet
  facet normal 1 0 0
    outer loop
      vertex 6 -0.956708 -2.3097
      vertex 6 0 -4.6188
      vertex 6 -0.647047 -2.41481
    endloop
  endfacet
  facet normal 1 0 0
    outer loop
      vertex 6 -1.25 -2.16506
      vertex 6 0 -4.6188
      vertex 6 -0.956708 -2.3097
    endloop
  endfacet
  facet normal 1 0 0
    outer loop
      vertex 6 -4 -2.3094
      vertex 6 -1.25 -2.16506
      vertex 6 -1.5219 -1.98338
    endloop
  endfacet
  facet normal 1 0 0
    outer loop
      vertex 6 -4 -2.3094
      vertex 6 -1.5219 -1.98338
      vertex 6 -1.76777 -1.76777
    endloop
  endfacet
  facet normal 1 0 0
    outer loop
      vertex 6 -4 -2.3094
      vertex 6 -1.76777 -1.76777
      vertex 6 -1.98338 -1.5219
    endloop
  endfacet
  facet normal 1 0 0
    outer loop
      vertex 6 -4 -2.3094
      vertex 6 -1.98338 -1.5219
      vertex 6 -2.16506 -1.25
    endloop
  endfacet
  facet normal 1 0 0
    outer loop
      vertex 6 -4 -2.3094
      vertex 6 -2.5 1.33227e-15
      vertex 6 -4 2.3094
    endloop
  endfacet
  facet normal 1 0 0
    outer loop
      vertex 6 -2.5 1.33227e-15
      vertex 6 -4 -2.3094
      vertex 6 -2.47861 -0.326315
    endloop
  endfacet
  facet normal 1 0 0
    outer loop
      vertex 6 -2.47861 -0.326315
      vertex 6 -4 -2.3094
      vertex 6 -2.41481 -0.647047
    endloop
  endfacet
  facet normal 1 0 0
    outer loop
      vertex 6 -2.41481 -0.647047
      vertex 6 -4 -2.3094
      vertex 6 -2.3097 -0.956708
    endloop
  endfacet
  facet normal 1 0 0
    outer loop
      vertex 6 -1.25 -2.16506
      vertex 6 -4 -2.3094
      vertex 6 0 -4.6188
    endloop
  endfacet
  facet normal 1 0 0
    outer loop
      vertex 6 -2.3097 -0.956708
      vertex 6 -4 -2.3094
      vertex 6 -2.16506 -1.25
    endloop
  endfacet
  facet normal 0 -0.5 -0.866025
    outer loop
      vertex 6 -4 -2.3094
      vertex 1.02558e-15 0 -4.6188
      vertex 6 0 -4.6188
    endloop
  endfacet
  facet normal 0 -0.5 -0.866025
    outer loop
      vertex 1.02558e-15 0 -4.6188
      vertex 6 -4 -2.3094
      vertex 5.1279e-16 -4 -2.3094
    endloop
  endfacet
  facet normal -1 0 -2.22045e-16
    outer loop
      vertex 5.1279e-16 4 -2.3094
      vertex 1.03178e-16 3.52954 -0.464673
      vertex 0 3.56 0
    endloop
  endfacet
  facet normal -1 0 -2.22045e-16
    outer loop
      vertex 5.1279e-16 4 -2.3094
      vertex 2.04591e-16 3.4387 -0.921395
      vertex 1.03178e-16 3.52954 -0.464673
    endloop
  endfacet
  facet normal -1 0 -2.22045e-16
    outer loop
      vertex 5.1279e-16 4 -2.3094
      vertex 3.02503e-16 3.28901 -1.36235
      vertex 2.04591e-16 3.4387 -0.921395
    endloop
  endfacet
  facet normal -1 0 -2.22045e-16
    outer loop
      vertex 5.1279e-16 4 -2.3094
      vertex 3.95239e-16 3.08305 -1.78
      vertex 3.02503e-16 3.28901 -1.36235
    endloop
  endfacet
  facet normal -1 0 -2.22045e-16
    outer loop
      vertex 5.1279e-16 4 -2.3094
      vertex 4.81213e-16 2.82434 -2.16719
      vertex 3.95239e-16 3.08305 -1.78
    endloop
  endfacet
  facet normal -1 0 -2.22045e-16
    outer loop
      vertex 5.1279e-16 4 -2.3094
      vertex 5.58953e-16 2.5173 -2.5173
      vertex 4.81213e-16 2.82434 -2.16719
    endloop
  endfacet
  facet normal -1 0 -2.22045e-16
    outer loop
      vertex 5.1279e-16 4 -2.3094
      vertex 6.27129e-16 2.16719 -2.82434
      vertex 5.58953e-16 2.5173 -2.5173
    endloop
  endfacet
  facet normal -1 0 -2.22045e-16
    outer loop
      vertex 5.1279e-16 4 -2.3094
      vertex 6.84575e-16 1.78 -3.08305
      vertex 6.27129e-16 2.16719 -2.82434
    endloop
  endfacet
  facet normal -1 0 -2.22045e-16
    outer loop
      vertex 1.02558e-15 0 -4.6188
      vertex 6.84575e-16 1.78 -3.08305
      vertex 5.1279e-16 4 -2.3094
    endloop
  endfacet
  facet normal -1 0 -2.22045e-16
    outer loop
      vertex 6.84575e-16 1.78 -3.08305
      vertex 1.02558e-15 0 -4.6188
      vertex 7.30307e-16 1.36235 -3.28901
    endloop
  endfacet
  facet normal -1 0 -2.22045e-16
    outer loop
      vertex 1.02558e-15 0 -4.6188
      vertex 7.63544e-16 0.921395 -3.4387
      vertex 7.30307e-16 1.36235 -3.28901
    endloop
  endfacet
  facet normal -1 0 -2.22045e-16
    outer loop
      vertex 1.02558e-15 0 -4.6188
      vertex 7.83716e-16 0.464673 -3.52954
      vertex 7.63544e-16 0.921395 -3.4387
    endloop
  endfacet
  facet normal -1 0 -2.22045e-16
    outer loop
      vertex 1.02558e-15 0 -4.6188
      vertex 7.90479e-16 0 -3.56
      vertex 7.83716e-16 0.464673 -3.52954
    endloop
  endfacet
  facet normal -1 0 -2.22045e-16
    outer loop
      vertex 1.02558e-15 0 -4.6188
      vertex 7.83716e-16 -0.464673 -3.52954
      vertex 7.90479e-16 0 -3.56
    endloop
  endfacet
  facet normal -1 0 -2.22045e-16
    outer loop
      vertex 1.02558e-15 0 -4.6188
      vertex 7.63544e-16 -0.921395 -3.4387
      vertex 7.83716e-16 -0.464673 -3.52954
    endloop
  endfacet
  facet normal -1 0 -2.22045e-16
    outer loop
      vertex 1.02558e-15 0 -4.6188
      vertex 7.30307e-16 -1.36235 -3.28901
      vertex 7.63544e-16 -0.921395 -3.4387
    endloop
  endfacet
  facet normal -1 0 -2.22045e-16
    outer loop
      vertex 1.02558e-15 0 -4.6188
      vertex 6.84575e-16 -1.78 -3.08305
      vertex 7.30307e-16 -1.36235 -3.28901
    endloop
  endfacet
  facet normal -1 0 -2.22045e-16
    outer loop
      vertex 5.1279e-16 -4 -2.3094
      vertex 6.84575e-16 -1.78 -3.08305
      vertex 1.02558e-15 0 -4.6188
    endloop
  endfacet
  facet normal -1 0 -2.22045e-16
    outer loop
      vertex 1.03178e-16 -3.52954 -0.464673
      vertex 5.1279e-16 -4 -2.3094
      vertex 0 -3.56 0
    endloop
  endfacet
  facet normal -1 0 -2.22045e-16
    outer loop
      vertex 2.04591e-16 -3.4387 -0.921395
      vertex 5.1279e-16 -4 -2.3094
      vertex 1.03178e-16 -3.52954 -0.464673
    endloop
  endfacet
  facet normal -1 0 -2.22045e-16
    outer loop
      vertex 3.02503e-16 -3.28901 -1.36235
      vertex 5.1279e-16 -4 -2.3094
      vertex 2.04591e-16 -3.4387 -0.921395
    endloop
  endfacet
  facet normal -1 0 -2.22045e-16
    outer loop
      vertex 3.95239e-16 -3.08305 -1.78
      vertex 5.1279e-16 -4 -2.3094
      vertex 3.02503e-16 -3.28901 -1.36235
    endloop
  endfacet
  facet normal -1 0 -2.22045e-16
    outer loop
      vertex 4.81213e-16 -2.82434 -2.16719
      vertex 5.1279e-16 -4 -2.3094
      vertex 3.95239e-16 -3.08305 -1.78
    endloop
  endfacet
  facet normal -1 0 -2.22045e-16
    outer loop
      vertex 5.58953e-16 -2.5173 -2.5173
      vertex 5.1279e-16 -4 -2.3094
      vertex 4.81213e-16 -2.82434 -2.16719
    endloop
  endfacet
  facet normal -1 0 -2.22045e-16
    outer loop
      vertex 6.27129e-16 -2.16719 -2.82434
      vertex 5.1279e-16 -4 -2.3094
      vertex 5.58953e-16 -2.5173 -2.5173
    endloop
  endfacet
  facet normal -1 0 -2.22045e-16
    outer loop
      vertex 6.84575e-16 -1.78 -3.08305
      vertex 5.1279e-16 -4 -2.3094
      vertex 6.27129e-16 -2.16719 -2.82434
    endloop
  endfacet
  facet normal -1 0 -2.22045e-16
    outer loop
      vertex 0 3.56 0
      vertex -5.1279e-16 4 2.3094
      vertex 5.1279e-16 4 -2.3094
    endloop
  endfacet
  facet normal -1 0 -2.22045e-16
    outer loop
      vertex -1.03178e-16 3.52954 0.464673
      vertex -5.1279e-16 4 2.3094
      vertex 0 3.56 0
    endloop
  endfacet
  facet normal -1 0 -2.22045e-16
    outer loop
      vertex -2.04591e-16 3.4387 0.921395
      vertex -5.1279e-16 4 2.3094
      vertex -1.03178e-16 3.52954 0.464673
    endloop
  endfacet
  facet normal -1 0 -2.22045e-16
    outer loop
      vertex -3.02503e-16 3.28901 1.36235
      vertex -5.1279e-16 4 2.3094
      vertex -2.04591e-16 3.4387 0.921395
    endloop
  endfacet
  facet normal -1 0 -2.22045e-16
    outer loop
      vertex -3.95239e-16 3.08305 1.78
      vertex -5.1279e-16 4 2.3094
      vertex -3.02503e-16 3.28901 1.36235
    endloop
  endfacet
  facet normal -1 0 -2.22045e-16
    outer loop
      vertex -4.81213e-16 2.82434 2.16719
      vertex -5.1279e-16 4 2.3094
      vertex -3.95239e-16 3.08305 1.78
    endloop
  endfacet
  facet normal -1 0 -2.22045e-16
    outer loop
      vertex -5.58953e-16 2.5173 2.5173
      vertex -5.1279e-16 4 2.3094
      vertex -4.81213e-16 2.82434 2.16719
    endloop
  endfacet
  facet normal -1 0 -2.22045e-16
    outer loop
      vertex -6.27129e-16 2.16719 2.82434
      vertex -5.1279e-16 4 2.3094
      vertex -5.58953e-16 2.5173 2.5173
    endloop
  endfacet
  facet normal -1 0 -2.22045e-16
    outer loop
      vertex -6.84575e-16 1.78 3.08305
      vertex -5.1279e-16 4 2.3094
      vertex -6.27129e-16 2.16719 2.82434
    endloop
  endfacet
  facet normal -1 0 -2.22045e-16
    outer loop
      vertex -1.02558e-15 0 4.6188
      vertex -6.84575e-16 1.78 3.08305
      vertex -7.30307e-16 1.36235 3.28901
    endloop
  endfacet
  facet normal -1 0 -2.22045e-16
    outer loop
      vertex -6.84575e-16 1.78 3.08305
      vertex -1.02558e-15 0 4.6188
      vertex -5.1279e-16 4 2.3094
    endloop
  endfacet
  facet normal -1 0 -2.22045e-16
    outer loop
      vertex -7.63544e-16 0.921395 3.4387
      vertex -1.02558e-15 0 4.6188
      vertex -7.30307e-16 1.36235 3.28901
    endloop
  endfacet
  facet normal -1 0 -2.22045e-16
    outer loop
      vertex -7.83716e-16 0.464673 3.52954
      vertex -1.02558e-15 0 4.6188
      vertex -7.63544e-16 0.921395 3.4387
    endloop
  endfacet
  facet normal -1 0 -2.22045e-16
    outer loop
      vertex -7.90479e-16 0 3.56
      vertex -1.02558e-15 0 4.6188
      vertex -7.83716e-16 0.464673 3.52954
    endloop
  endfacet
  facet normal -1 0 -2.22045e-16
    outer loop
      vertex -7.83716e-16 -0.464673 3.52954
      vertex -1.02558e-15 0 4.6188
      vertex -7.90479e-16 0 3.56
    endloop
  endfacet
  facet normal -1 0 -2.22045e-16
    outer loop
      vertex -7.63544e-16 -0.921395 3.4387
      vertex -1.02558e-15 0 4.6188
      vertex -7.83716e-16 -0.464673 3.52954
    endloop
  endfacet
  facet normal -1 0 -2.22045e-16
    outer loop
      vertex -7.30307e-16 -1.36235 3.28901
      vertex -1.02558e-15 0 4.6188
      vertex -7.63544e-16 -0.921395 3.4387
    endloop
  endfacet
  facet normal -1 0 -2.22045e-16
    outer loop
      vertex -6.84575e-16 -1.78 3.08305
      vertex -1.02558e-15 0 4.6188
      vertex -7.30307e-16 -1.36235 3.28901
    endloop
  endfacet
  facet normal -1 0 -2.22045e-16
    outer loop
      vertex -5.1279e-16 -4 2.3094
      vertex -6.84575e-16 -1.78 3.08305
      vertex -6.27129e-16 -2.16719 2.82434
    endloop
  endfacet
  facet normal -1 0 -2.22045e-16
    outer loop
      vertex -5.1279e-16 -4 2.3094
      vertex 0 -3.56 0
      vertex 5.1279e-16 -4 -2.3094
    endloop
  endfacet
  facet normal -1 0 -2.22045e-16
    outer loop
      vertex -6.84575e-16 -1.78 3.08305
      vertex -5.1279e-16 -4 2.3094
      vertex -1.02558e-15 0 4.6188
    endloop
  endfacet
  facet normal -1 0 -2.22045e-16
    outer loop
      vertex -5.58953e-16 -2.5173 2.5173
      vertex -5.1279e-16 -4 2.3094
      vertex -6.27129e-16 -2.16719 2.82434
    endloop
  endfacet
  facet normal -1 0 -2.22045e-16
    outer loop
      vertex -4.81213e-16 -2.82434 2.16719
      vertex -5.1279e-16 -4 2.3094
      vertex -5.58953e-16 -2.5173 2.5173
    endloop
  endfacet
  facet normal -1 0 -2.22045e-16
    outer loop
      vertex -3.95239e-16 -3.08305 1.78
      vertex -5.1279e-16 -4 2.3094
      vertex -4.81213e-16 -2.82434 2.16719
    endloop
  endfacet
  facet normal -1 0 -2.22045e-16
    outer loop
      vertex -3.02503e-16 -3.28901 1.36235
      vertex -5.1279e-16 -4 2.3094
      vertex -3.95239e-16 -3.08305 1.78
    endloop
  endfacet
  facet normal -1 0 -2.22045e-16
    outer loop
      vertex -2.04591e-16 -3.4387 0.921395
      vertex -5.1279e-16 -4 2.3094
      vertex -3.02503e-16 -3.28901 1.36235
    endloop
  endfacet
  facet normal -1 0 -2.22045e-16
    outer loop
      vertex -1.03178e-16 -3.52954 0.464673
      vertex -5.1279e-16 -4 2.3094
      vertex -2.04591e-16 -3.4387 0.921395
    endloop
  endfacet
  facet normal -1 0 -2.22045e-16
    outer loop
      vertex 0 -3.56 0
      vertex -5.1279e-16 -4 2.3094
      vertex -1.03178e-16 -3.52954 0.464673
    endloop
  endfacet
  facet normal 0 -1 0
    outer loop
      vertex 5.1279e-16 -4 -2.3094
      vertex 6 -4 2.3094
      vertex -5.1279e-16 -4 2.3094
    endloop
  endfacet
  facet normal 0 -1 -0
    outer loop
      vertex 6 -4 2.3094
      vertex 5.1279e-16 -4 -2.3094
      vertex 6 -4 -2.3094
    endloop
  endfacet
  facet normal 0 -0.5 0.866025
    outer loop
      vertex 6 0 4.6188
      vertex -5.1279e-16 -4 2.3094
      vertex 6 -4 2.3094
    endloop
  endfacet
  facet normal 0 -0.5 0.866025
    outer loop
      vertex -5.1279e-16 -4 2.3094
      vertex 6 0 4.6188
      vertex -1.02558e-15 0 4.6188
    endloop
  endfacet
  facet normal 0 0.0654037 -0.997859
    outer loop
      vertex -2 0 -3.56
      vertex 7.83716e-16 0.464673 -3.52954
      vertex 7.90479e-16 0 -3.56
    endloop
  endfacet
  facet normal 0 0.0654037 -0.997859
    outer loop
      vertex 7.83716e-16 0.464673 -3.52954
      vertex -2 0 -3.56
      vertex -2 0.464673 -3.52954
    endloop
  endfacet
  facet normal -0 0.0654037 0.997859
    outer loop
      vertex -2 0.464673 3.52954
      vertex -7.90479e-16 0 3.56
      vertex -7.83716e-16 0.464673 3.52954
    endloop
  endfacet
  facet normal 0 0.0654037 0.997859
    outer loop
      vertex -7.90479e-16 0 3.56
      vertex -2 0.464673 3.52954
      vertex -2 0 3.56
    endloop
  endfacet
  facet normal 1.49009e-17 0.997859 -0.0654037
    outer loop
      vertex 1.03178e-16 3.52954 -0.464673
      vertex -2 3.56 -4.44089e-16
      vertex 0 3.56 0
    endloop
  endfacet
  facet normal 0 0.997859 -0.0654037
    outer loop
      vertex -2 3.56 -4.44089e-16
      vertex 1.03178e-16 3.52954 -0.464673
      vertex -2 3.52954 -0.464673
    endloop
  endfacet
  facet normal 0 -0.997859 0.0654037
    outer loop
      vertex -2 -3.52954 0.464673
      vertex 0 -3.56 0
      vertex -1.03178e-16 -3.52954 0.464673
    endloop
  endfacet
  facet normal -1.45225e-17 -0.997859 0.0654037
    outer loop
      vertex 0 -3.56 0
      vertex -2 -3.52954 0.464673
      vertex -2 -3.56 -4.44089e-16
    endloop
  endfacet
  facet normal 0 -0.659346 0.75184
    outer loop
      vertex -2 -2.16719 2.82434
      vertex -5.58953e-16 -2.5173 2.5173
      vertex -6.27129e-16 -2.16719 2.82434
    endloop
  endfacet
  facet normal 0 -0.659346 0.75184
    outer loop
      vertex -5.58953e-16 -2.5173 2.5173
      vertex -2 -2.16719 2.82434
      vertex -2 -2.5173 2.5173
    endloop
  endfacet
  facet normal 0 0.659346 -0.75184
    outer loop
      vertex -2 2.16719 -2.82434
      vertex 5.58953e-16 2.5173 -2.5173
      vertex 6.27129e-16 2.16719 -2.82434
    endloop
  endfacet
  facet normal 0 0.659346 -0.75184
    outer loop
      vertex 5.58953e-16 2.5173 -2.5173
      vertex -2 2.16719 -2.82434
      vertex -2 2.5173 -2.5173
    endloop
  endfacet
  facet normal 0 0.75184 0.659346
    outer loop
      vertex -4.81213e-16 2.82434 2.16719
      vertex -2 2.5173 2.5173
      vertex -5.58953e-16 2.5173 2.5173
    endloop
  endfacet
  facet normal 0 0.75184 0.659346
    outer loop
      vertex -2 2.5173 2.5173
      vertex -4.81213e-16 2.82434 2.16719
      vertex -2 2.82434 2.16719
    endloop
  endfacet
  facet normal 0 0.94693 0.32144
    outer loop
      vertex -2.04591e-16 3.4387 0.921395
      vertex -2 3.28901 1.36235
      vertex -3.02503e-16 3.28901 1.36235
    endloop
  endfacet
  facet normal 0 0.94693 0.32144
    outer loop
      vertex -2 3.28901 1.36235
      vertex -2.04591e-16 3.4387 0.921395
      vertex -2 3.4387 0.921395
    endloop
  endfacet
  facet normal 0 0.32144 -0.94693
    outer loop
      vertex -2 0.921395 -3.4387
      vertex 7.30307e-16 1.36235 -3.28901
      vertex 7.63544e-16 0.921395 -3.4387
    endloop
  endfacet
  facet normal 0 0.32144 -0.94693
    outer loop
      vertex 7.30307e-16 1.36235 -3.28901
      vertex -2 0.921395 -3.4387
      vertex -2 1.36235 -3.28901
    endloop
  endfacet
  facet normal 0 0.195089 -0.980786
    outer loop
      vertex -2 0.464673 -3.52954
      vertex 7.63544e-16 0.921395 -3.4387
      vertex 7.83716e-16 0.464673 -3.52954
    endloop
  endfacet
  facet normal 0 0.195089 -0.980786
    outer loop
      vertex 7.63544e-16 0.921395 -3.4387
      vertex -2 0.464673 -3.52954
      vertex -2 0.921395 -3.4387
    endloop
  endfacet
  facet normal 0 0.442289 -0.896872
    outer loop
      vertex -2 1.36235 -3.28901
      vertex 6.84575e-16 1.78 -3.08305
      vertex 7.30307e-16 1.36235 -3.28901
    endloop
  endfacet
  facet normal 0 0.442289 -0.896872
    outer loop
      vertex 6.84575e-16 1.78 -3.08305
      vertex -2 1.36235 -3.28901
      vertex -2 1.78 -3.08305
    endloop
  endfacet
  facet normal 0 0.896872 -0.442289
    outer loop
      vertex 3.95239e-16 3.08305 -1.78
      vertex -2 3.28901 -1.36235
      vertex 3.02503e-16 3.28901 -1.36235
    endloop
  endfacet
  facet normal 0 0.896872 -0.442289
    outer loop
      vertex -2 3.28901 -1.36235
      vertex 3.95239e-16 3.08305 -1.78
      vertex -2 3.08305 -1.78
    endloop
  endfacet
  facet normal 0 0.94693 -0.32144
    outer loop
      vertex 3.02503e-16 3.28901 -1.36235
      vertex -2 3.4387 -0.921395
      vertex 2.04591e-16 3.4387 -0.921395
    endloop
  endfacet
  facet normal 0 0.94693 -0.32144
    outer loop
      vertex -2 3.4387 -0.921395
      vertex 3.02503e-16 3.28901 -1.36235
      vertex -2 3.28901 -1.36235
    endloop
  endfacet
  facet normal 0 0.831469 -0.55557
    outer loop
      vertex 4.81213e-16 2.82434 -2.16719
      vertex -2 3.08305 -1.78
      vertex 3.95239e-16 3.08305 -1.78
    endloop
  endfacet
  facet normal 0 0.831469 -0.55557
    outer loop
      vertex -2 3.08305 -1.78
      vertex 4.81213e-16 2.82434 -2.16719
      vertex -2 2.82434 -2.16719
    endloop
  endfacet
  facet normal -0 0.442289 0.896872
    outer loop
      vertex -2 1.78 3.08305
      vertex -7.30307e-16 1.36235 3.28901
      vertex -6.84575e-16 1.78 3.08305
    endloop
  endfacet
  facet normal 0 0.442289 0.896872
    outer loop
      vertex -7.30307e-16 1.36235 3.28901
      vertex -2 1.78 3.08305
      vertex -2 1.36235 3.28901
    endloop
  endfacet
  facet normal -0 0.32144 0.94693
    outer loop
      vertex -2 1.36235 3.28901
      vertex -7.63544e-16 0.921395 3.4387
      vertex -7.30307e-16 1.36235 3.28901
    endloop
  endfacet
  facet normal 0 0.32144 0.94693
    outer loop
      vertex -7.63544e-16 0.921395 3.4387
      vertex -2 1.36235 3.28901
      vertex -2 0.921395 3.4387
    endloop
  endfacet
  facet normal 0 0.896872 0.442289
    outer loop
      vertex -3.02503e-16 3.28901 1.36235
      vertex -2 3.08305 1.78
      vertex -3.95239e-16 3.08305 1.78
    endloop
  endfacet
  facet normal 0 0.896872 0.442289
    outer loop
      vertex -2 3.08305 1.78
      vertex -3.02503e-16 3.28901 1.36235
      vertex -2 3.28901 1.36235
    endloop
  endfacet
  facet normal 0 0.980786 0.195089
    outer loop
      vertex -1.03178e-16 3.52954 0.464673
      vertex -2 3.4387 0.921395
      vertex -2.04591e-16 3.4387 0.921395
    endloop
  endfacet
  facet normal 0 0.980786 0.195089
    outer loop
      vertex -2 3.4387 0.921395
      vertex -1.03178e-16 3.52954 0.464673
      vertex -2 3.52954 0.464673
    endloop
  endfacet
  facet normal 0 -0.896872 -0.442289
    outer loop
      vertex -2 -3.08305 -1.78
      vertex 3.02503e-16 -3.28901 -1.36235
      vertex -2 -3.28901 -1.36235
    endloop
  endfacet
  facet normal 0 -0.896872 -0.442289
    outer loop
      vertex 3.02503e-16 -3.28901 -1.36235
      vertex -2 -3.08305 -1.78
      vertex 3.95239e-16 -3.08305 -1.78
    endloop
  endfacet
  facet normal 0 -0.32144 -0.94693
    outer loop
      vertex -2 -1.36235 -3.28901
      vertex 7.63544e-16 -0.921395 -3.4387
      vertex 7.30307e-16 -1.36235 -3.28901
    endloop
  endfacet
  facet normal -0 -0.32144 -0.94693
    outer loop
      vertex 7.63544e-16 -0.921395 -3.4387
      vertex -2 -1.36235 -3.28901
      vertex -2 -0.921395 -3.4387
    endloop
  endfacet
  facet normal 0 -0.195089 -0.980786
    outer loop
      vertex -2 -0.921395 -3.4387
      vertex 7.83716e-16 -0.464673 -3.52954
      vertex 7.63544e-16 -0.921395 -3.4387
    endloop
  endfacet
  facet normal -0 -0.195089 -0.980786
    outer loop
      vertex 7.83716e-16 -0.464673 -3.52954
      vertex -2 -0.921395 -3.4387
      vertex -2 -0.464673 -3.52954
    endloop
  endfacet
  facet normal 0 -0.94693 0.32144
    outer loop
      vertex -2 -3.4387 0.921395
      vertex -3.02503e-16 -3.28901 1.36235
      vertex -2 -3.28901 1.36235
    endloop
  endfacet
  facet normal 0 -0.94693 0.32144
    outer loop
      vertex -3.02503e-16 -3.28901 1.36235
      vertex -2 -3.4387 0.921395
      vertex -2.04591e-16 -3.4387 0.921395
    endloop
  endfacet
  facet normal 0 -0.442289 0.896872
    outer loop
      vertex -2 -1.36235 3.28901
      vertex -6.84575e-16 -1.78 3.08305
      vertex -7.30307e-16 -1.36235 3.28901
    endloop
  endfacet
  facet normal 0 -0.442289 0.896872
    outer loop
      vertex -6.84575e-16 -1.78 3.08305
      vertex -2 -1.36235 3.28901
      vertex -2 -1.78 3.08305
    endloop
  endfacet
  facet normal -1 0 0
    outer loop
      vertex -2 2.5 -4.44089e-16
      vertex -2 3.56 -4.44089e-16
      vertex -2 3.52954 -0.464673
    endloop
  endfacet
  facet normal -1 0 0
    outer loop
      vertex -2 2.47861 -0.326315
      vertex -2 3.52954 -0.464673
      vertex -2 3.4387 -0.921395
    endloop
  endfacet
  facet normal -1 0 0
    outer loop
      vertex -2 3.56 -4.44089e-16
      vertex -2 2.5 -4.44089e-16
      vertex -2 3.52954 0.464673
    endloop
  endfacet
  facet normal -1 0 0
    outer loop
      vertex -2 2.41481 -0.647047
      vertex -2 3.4387 -0.921395
      vertex -2 3.28901 -1.36235
    endloop
  endfacet
  facet normal -1 0 0
    outer loop
      vertex -2 2.47861 0.326315
      vertex -2 3.52954 0.464673
      vertex -2 2.5 -4.44089e-16
    endloop
  endfacet
  facet normal -1 0 0
    outer loop
      vertex -2 2.3097 -0.956708
      vertex -2 3.28901 -1.36235
      vertex -2 3.08305 -1.78
    endloop
  endfacet
  facet normal -1 -0 0
    outer loop
      vertex -2 3.52954 0.464673
      vertex -2 2.47861 0.326315
      vertex -2 3.4387 0.921395
    endloop
  endfacet
  facet normal -1 0 0
    outer loop
      vertex -2 2.16506 -1.25
      vertex -2 3.08305 -1.78
      vertex -2 2.82434 -2.16719
    endloop
  endfacet
  facet normal -1 0 0
    outer loop
      vertex -2 2.41481 0.647047
      vertex -2 3.4387 0.921395
      vertex -2 2.47861 0.326315
    endloop
  endfacet
  facet normal -1 0 0
    outer loop
      vertex -2 1.98338 -1.5219
      vertex -2 2.82434 -2.16719
      vertex -2 2.5173 -2.5173
    endloop
  endfacet
  facet normal -1 -0 0
    outer loop
      vertex -2 3.4387 0.921395
      vertex -2 2.41481 0.647047
      vertex -2 3.28901 1.36235
    endloop
  endfacet
  facet normal -1 0 0
    outer loop
      vertex -2 2.3097 0.956708
      vertex -2 3.28901 1.36235
      vertex -2 2.41481 0.647047
    endloop
  endfacet
  facet normal -1 0 0
    outer loop
      vertex -2 3.52954 -0.464673
      vertex -2 2.47861 -0.326315
      vertex -2 2.5 -4.44089e-16
    endloop
  endfacet
  facet normal -1 0 0
    outer loop
      vertex -2 3.4387 -0.921395
      vertex -2 2.41481 -0.647047
      vertex -2 2.47861 -0.326315
    endloop
  endfacet
  facet normal -1 0 0
    outer loop
      vertex -2 3.28901 -1.36235
      vertex -2 2.3097 -0.956708
      vertex -2 2.41481 -0.647047
    endloop
  endfacet
  facet normal -1 0 0
    outer loop
      vertex -2 1.76777 -1.76777
      vertex -2 2.5173 -2.5173
      vertex -2 2.16719 -2.82434
    endloop
  endfacet
  facet normal -1 0 0
    outer loop
      vertex -2 3.08305 -1.78
      vertex -2 2.16506 -1.25
      vertex -2 2.3097 -0.956708
    endloop
  endfacet
  facet normal -1 0 0
    outer loop
      vertex -2 2.82434 -2.16719
      vertex -2 1.98338 -1.5219
      vertex -2 2.16506 -1.25
    endloop
  endfacet
  facet normal -1 0 0
    outer loop
      vertex -2 1.5219 -1.98338
      vertex -2 2.16719 -2.82434
      vertex -2 1.78 -3.08305
    endloop
  endfacet
  facet normal -1 0 0
    outer loop
      vertex -2 2.5173 -2.5173
      vertex -2 1.76777 -1.76777
      vertex -2 1.98338 -1.5219
    endloop
  endfacet
  facet normal -1 0 0
    outer loop
      vertex -2 2.16719 -2.82434
      vertex -2 1.5219 -1.98338
      vertex -2 1.76777 -1.76777
    endloop
  endfacet
  facet normal -1 0 0
    outer loop
      vertex -2 1.25 -2.16506
      vertex -2 1.78 -3.08305
      vertex -2 1.36235 -3.28901
    endloop
  endfacet
  facet normal -1 0 0
    outer loop
      vertex -2 1.78 -3.08305
      vertex -2 1.25 -2.16506
      vertex -2 1.5219 -1.98338
    endloop
  endfacet
  facet normal -1 0 0
    outer loop
      vertex -2 1.36235 -3.28901
      vertex -2 0.956708 -2.3097
      vertex -2 1.25 -2.16506
    endloop
  endfacet
  facet normal -1 0 0
    outer loop
      vertex -2 0.921395 -3.4387
      vertex -2 0.956708 -2.3097
      vertex -2 1.36235 -3.28901
    endloop
  endfacet
  facet normal -1 0 0
    outer loop
      vertex -2 0.921395 -3.4387
      vertex -2 0.647047 -2.41481
      vertex -2 0.956708 -2.3097
    endloop
  endfacet
  facet normal -1 0 0
    outer loop
      vertex -2 0.464673 -3.52954
      vertex -2 0.647047 -2.41481
      vertex -2 0.921395 -3.4387
    endloop
  endfacet
  facet normal -1 0 0
    outer loop
      vertex -2 0.464673 -3.52954
      vertex -2 0.326315 -2.47861
      vertex -2 0.647047 -2.41481
    endloop
  endfacet
  facet normal -1 0 0
    outer loop
      vertex -2 0 -3.56
      vertex -2 0.326315 -2.47861
      vertex -2 0.464673 -3.52954
    endloop
  endfacet
  facet normal -1 0 0
    outer loop
      vertex -2 0 -3.56
      vertex -2 0 -2.5
      vertex -2 0.326315 -2.47861
    endloop
  endfacet
  facet normal -1 0 0
    outer loop
      vertex -2 0 -3.56
      vertex -2 -0.326315 -2.47861
      vertex -2 0 -2.5
    endloop
  endfacet
  facet normal -1 0 0
    outer loop
      vertex -2 -0.464673 -3.52954
      vertex -2 -0.326315 -2.47861
      vertex -2 0 -3.56
    endloop
  endfacet
  facet normal -1 0 0
    outer loop
      vertex -2 -0.464673 -3.52954
      vertex -2 -0.647047 -2.41481
      vertex -2 -0.326315 -2.47861
    endloop
  endfacet
  facet normal -1 0 0
    outer loop
      vertex -2 -0.921395 -3.4387
      vertex -2 -0.647047 -2.41481
      vertex -2 -0.464673 -3.52954
    endloop
  endfacet
  facet normal -1 0 0
    outer loop
      vertex -2 -0.921395 -3.4387
      vertex -2 -0.956708 -2.3097
      vertex -2 -0.647047 -2.41481
    endloop
  endfacet
  facet normal -1 0 0
    outer loop
      vertex -2 -1.36235 -3.28901
      vertex -2 -0.956708 -2.3097
      vertex -2 -0.921395 -3.4387
    endloop
  endfacet
  facet normal -1 -0 0
    outer loop
      vertex -2 -0.956708 -2.3097
      vertex -2 -1.36235 -3.28901
      vertex -2 -1.25 -2.16506
    endloop
  endfacet
  facet normal -1 0 0
    outer loop
      vertex -2 -1.78 -3.08305
      vertex -2 -1.25 -2.16506
      vertex -2 -1.36235 -3.28901
    endloop
  endfacet
  facet normal -1 -0 0
    outer loop
      vertex -2 -1.25 -2.16506
      vertex -2 -1.78 -3.08305
      vertex -2 -1.5219 -1.98338
    endloop
  endfacet
  facet normal -1 0 0
    outer loop
      vertex -2 -2.16719 -2.82434
      vertex -2 -1.5219 -1.98338
      vertex -2 -1.78 -3.08305
    endloop
  endfacet
  facet normal -1 -0 0
    outer loop
      vertex -2 -1.5219 -1.98338
      vertex -2 -2.16719 -2.82434
      vertex -2 -1.76777 -1.76777
    endloop
  endfacet
  facet normal -1 0 0
    outer loop
      vertex -2 -2.5173 -2.5173
      vertex -2 -1.76777 -1.76777
      vertex -2 -2.16719 -2.82434
    endloop
  endfacet
  facet normal -1 -0 0
    outer loop
      vertex -2 -1.76777 -1.76777
      vertex -2 -2.5173 -2.5173
      vertex -2 -1.98338 -1.5219
    endloop
  endfacet
  facet normal -1 0 0
    outer loop
      vertex -2 -2.82434 -2.16719
      vertex -2 -1.98338 -1.5219
      vertex -2 -2.5173 -2.5173
    endloop
  endfacet
  facet normal -1 -0 0
    outer loop
      vertex -2 -1.98338 -1.5219
      vertex -2 -2.82434 -2.16719
      vertex -2 -2.16506 -1.25
    endloop
  endfacet
  facet normal -1 0 0
    outer loop
      vertex -2 -3.08305 -1.78
      vertex -2 -2.16506 -1.25
      vertex -2 -2.82434 -2.16719
    endloop
  endfacet
  facet normal -1 0 0
    outer loop
      vertex -2 -3.28901 -1.36235
      vertex -2 -2.3097 -0.956708
      vertex -2 -3.08305 -1.78
    endloop
  endfacet
  facet normal -1 -0 0
    outer loop
      vertex -2 -2.16506 -1.25
      vertex -2 -3.08305 -1.78
      vertex -2 -2.3097 -0.956708
    endloop
  endfacet
  facet normal -1 -0 0
    outer loop
      vertex -2 3.28901 1.36235
      vertex -2 2.3097 0.956708
      vertex -2 3.08305 1.78
    endloop
  endfacet
  facet normal -1 0 0
    outer loop
      vertex -2 2.16506 1.25
      vertex -2 3.08305 1.78
      vertex -2 2.3097 0.956708
    endloop
  endfacet
  facet normal -1 -0 0
    outer loop
      vertex -2 3.08305 1.78
      vertex -2 2.16506 1.25
      vertex -2 2.82434 2.16719
    endloop
  endfacet
  facet normal -1 0 0
    outer loop
      vertex -2 1.98338 1.5219
      vertex -2 2.82434 2.16719
      vertex -2 2.16506 1.25
    endloop
  endfacet
  facet normal -1 -0 0
    outer loop
      vertex -2 2.82434 2.16719
      vertex -2 1.98338 1.5219
      vertex -2 2.5173 2.5173
    endloop
  endfacet
  facet normal -1 0 0
    outer loop
      vertex -2 1.76777 1.76777
      vertex -2 2.5173 2.5173
      vertex -2 1.98338 1.5219
    endloop
  endfacet
  facet normal -1 -0 0
    outer loop
      vertex -2 2.5173 2.5173
      vertex -2 1.76777 1.76777
      vertex -2 2.16719 2.82434
    endloop
  endfacet
  facet normal -1 0 0
    outer loop
      vertex -2 1.5219 1.98338
      vertex -2 2.16719 2.82434
      vertex -2 1.76777 1.76777
    endloop
  endfacet
  facet normal -1 -0 0
    outer loop
      vertex -2 2.16719 2.82434
      vertex -2 1.5219 1.98338
      vertex -2 1.78 3.08305
    endloop
  endfacet
  facet normal -1 0 0
    outer loop
      vertex -2 1.25 2.16506
      vertex -2 1.78 3.08305
      vertex -2 1.5219 1.98338
    endloop
  endfacet
  facet normal -1 -0 0
    outer loop
      vertex -2 1.78 3.08305
      vertex -2 1.25 2.16506
      vertex -2 1.36235 3.28901
    endloop
  endfacet
  facet normal -1 0 0
    outer loop
      vertex -2 0.956708 2.3097
      vertex -2 1.36235 3.28901
      vertex -2 1.25 2.16506
    endloop
  endfacet
  facet normal -1 0 0
    outer loop
      vertex -2 0.956708 2.3097
      vertex -2 0.921395 3.4387
      vertex -2 1.36235 3.28901
    endloop
  endfacet
  facet normal -1 0 0
    outer loop
      vertex -2 0.647047 2.41481
      vertex -2 0.921395 3.4387
      vertex -2 0.956708 2.3097
    endloop
  endfacet
  facet normal -1 0 0
    outer loop
      vertex -2 0.647047 2.41481
      vertex -2 0.464673 3.52954
      vertex -2 0.921395 3.4387
    endloop
  endfacet
  facet normal -1 0 0
    outer loop
      vertex -2 0.326315 2.47861
      vertex -2 0.464673 3.52954
      vertex -2 0.647047 2.41481
    endloop
  endfacet
  facet normal -1 0 0
    outer loop
      vertex -2 0 2.5
      vertex -2 0.464673 3.52954
      vertex -2 0.326315 2.47861
    endloop
  endfacet
  facet normal -1 0 0
    outer loop
      vertex -2 0 2.5
      vertex -2 0 3.56
      vertex -2 0.464673 3.52954
    endloop
  endfacet
  facet normal -1 0 0
    outer loop
      vertex -2 -0.326315 2.47861
      vertex -2 0 3.56
      vertex -2 0 2.5
    endloop
  endfacet
  facet normal -1 0 0
    outer loop
      vertex -2 -0.326315 2.47861
      vertex -2 -0.464673 3.52954
      vertex -2 0 3.56
    endloop
  endfacet
  facet normal -1 0 0
    outer loop
      vertex -2 -0.647047 2.41481
      vertex -2 -0.464673 3.52954
      vertex -2 -0.326315 2.47861
    endloop
  endfacet
  facet normal -1 0 0
    outer loop
      vertex -2 -0.647047 2.41481
      vertex -2 -0.921395 3.4387
      vertex -2 -0.464673 3.52954
    endloop
  endfacet
  facet normal -1 0 0
    outer loop
      vertex -2 -0.956708 2.3097
      vertex -2 -0.921395 3.4387
      vertex -2 -0.647047 2.41481
    endloop
  endfacet
  facet normal -1 0 0
    outer loop
      vertex -2 -1.36235 3.28901
      vertex -2 -0.956708 2.3097
      vertex -2 -1.25 2.16506
    endloop
  endfacet
  facet normal -1 0 0
    outer loop
      vertex -2 -0.956708 2.3097
      vertex -2 -1.36235 3.28901
      vertex -2 -0.921395 3.4387
    endloop
  endfacet
  facet normal -1 0 0
    outer loop
      vertex -2 -1.78 3.08305
      vertex -2 -1.25 2.16506
      vertex -2 -1.5219 1.98338
    endloop
  endfacet
  facet normal -1 0 0
    outer loop
      vertex -2 -2.16719 2.82434
      vertex -2 -1.5219 1.98338
      vertex -2 -1.76777 1.76777
    endloop
  endfacet
  facet normal -1 0 0
    outer loop
      vertex -2 -1.25 2.16506
      vertex -2 -1.78 3.08305
      vertex -2 -1.36235 3.28901
    endloop
  endfacet
  facet normal -1 0 0
    outer loop
      vertex -2 -2.5173 2.5173
      vertex -2 -1.76777 1.76777
      vertex -2 -1.98338 1.5219
    endloop
  endfacet
  facet normal -1 0 0
    outer loop
      vertex -2 -2.82434 2.16719
      vertex -2 -1.98338 1.5219
      vertex -2 -2.16506 1.25
    endloop
  endfacet
  facet normal -1 0 0
    outer loop
      vertex -2 -1.5219 1.98338
      vertex -2 -2.16719 2.82434
      vertex -2 -1.78 3.08305
    endloop
  endfacet
  facet normal -1 0 0
    outer loop
      vertex -2 -3.08305 1.78
      vertex -2 -2.16506 1.25
      vertex -2 -2.3097 0.956708
    endloop
  endfacet
  facet normal -1 0 0
    outer loop
      vertex -2 -3.28901 1.36235
      vertex -2 -2.3097 0.956708
      vertex -2 -2.41481 0.647047
    endloop
  endfacet
  facet normal -1 0 0
    outer loop
      vertex -2 -3.4387 0.921395
      vertex -2 -2.41481 0.647047
      vertex -2 -2.47861 0.326315
    endloop
  endfacet
  facet normal -1 0 0
    outer loop
      vertex -2 -1.76777 1.76777
      vertex -2 -2.5173 2.5173
      vertex -2 -2.16719 2.82434
    endloop
  endfacet
  facet normal -1 0 0
    outer loop
      vertex -2 -3.52954 0.464673
      vertex -2 -2.47861 0.326315
      vertex -2 -2.5 -4.44089e-16
    endloop
  endfacet
  facet normal -1 -0 0
    outer loop
      vertex -2 -2.3097 -0.956708
      vertex -2 -3.28901 -1.36235
      vertex -2 -2.41481 -0.647047
    endloop
  endfacet
  facet normal -1 0 0
    outer loop
      vertex -2 -3.4387 -0.921395
      vertex -2 -2.41481 -0.647047
      vertex -2 -3.28901 -1.36235
    endloop
  endfacet
  facet normal -1 0 0
    outer loop
      vertex -2 -1.98338 1.5219
      vertex -2 -2.82434 2.16719
      vertex -2 -2.5173 2.5173
    endloop
  endfacet
  facet normal -1 -0 0
    outer loop
      vertex -2 -2.41481 -0.647047
      vertex -2 -3.4387 -0.921395
      vertex -2 -2.47861 -0.326315
    endloop
  endfacet
  facet normal -1 0 0
    outer loop
      vertex -2 -2.16506 1.25
      vertex -2 -3.08305 1.78
      vertex -2 -2.82434 2.16719
    endloop
  endfacet
  facet normal -1 0 0
    outer loop
      vertex -2 -3.52954 -0.464673
      vertex -2 -2.47861 -0.326315
      vertex -2 -3.4387 -0.921395
    endloop
  endfacet
  facet normal -1 0 0
    outer loop
      vertex -2 -2.3097 0.956708
      vertex -2 -3.28901 1.36235
      vertex -2 -3.08305 1.78
    endloop
  endfacet
  facet normal -1 -0 0
    outer loop
      vertex -2 -2.47861 -0.326315
      vertex -2 -3.52954 -0.464673
      vertex -2 -2.5 -4.44089e-16
    endloop
  endfacet
  facet normal -1 0 0
    outer loop
      vertex -2 -2.41481 0.647047
      vertex -2 -3.4387 0.921395
      vertex -2 -3.28901 1.36235
    endloop
  endfacet
  facet normal -1 0 0
    outer loop
      vertex -2 -3.56 -4.44089e-16
      vertex -2 -2.5 -4.44089e-16
      vertex -2 -3.52954 -0.464673
    endloop
  endfacet
  facet normal -1 0 0
    outer loop
      vertex -2 -2.47861 0.326315
      vertex -2 -3.52954 0.464673
      vertex -2 -3.4387 0.921395
    endloop
  endfacet
  facet normal -1 0 0
    outer loop
      vertex -2 -2.5 -4.44089e-16
      vertex -2 -3.56 -4.44089e-16
      vertex -2 -3.52954 0.464673
    endloop
  endfacet
  facet normal 0 0.55557 -0.831469
    outer loop
      vertex -2 1.78 -3.08305
      vertex 6.27129e-16 2.16719 -2.82434
      vertex 6.84575e-16 1.78 -3.08305
    endloop
  endfacet
  facet normal 0 0.55557 -0.831469
    outer loop
      vertex 6.27129e-16 2.16719 -2.82434
      vertex -2 1.78 -3.08305
      vertex -2 2.16719 -2.82434
    endloop
  endfacet
  facet normal 0 0.980786 -0.195089
    outer loop
      vertex 2.04591e-16 3.4387 -0.921395
      vertex -2 3.52954 -0.464673
      vertex 1.03178e-16 3.52954 -0.464673
    endloop
  endfacet
  facet normal 0 0.980786 -0.195089
    outer loop
      vertex -2 3.52954 -0.464673
      vertex 2.04591e-16 3.4387 -0.921395
      vertex -2 3.4387 -0.921395
    endloop
  endfacet
  facet normal 0 0.75184 -0.659346
    outer loop
      vertex 5.58953e-16 2.5173 -2.5173
      vertex -2 2.82434 -2.16719
      vertex 4.81213e-16 2.82434 -2.16719
    endloop
  endfacet
  facet normal 0 0.75184 -0.659346
    outer loop
      vertex -2 2.82434 -2.16719
      vertex 5.58953e-16 2.5173 -2.5173
      vertex -2 2.5173 -2.5173
    endloop
  endfacet
  facet normal -0 0.55557 0.831469
    outer loop
      vertex -2 2.16719 2.82434
      vertex -6.84575e-16 1.78 3.08305
      vertex -6.27129e-16 2.16719 2.82434
    endloop
  endfacet
  facet normal 0 0.55557 0.831469
    outer loop
      vertex -6.84575e-16 1.78 3.08305
      vertex -2 2.16719 2.82434
      vertex -2 1.78 3.08305
    endloop
  endfacet
  facet normal -0 0.659346 0.75184
    outer loop
      vertex -2 2.5173 2.5173
      vertex -6.27129e-16 2.16719 2.82434
      vertex -5.58953e-16 2.5173 2.5173
    endloop
  endfacet
  facet normal 0 0.659346 0.75184
    outer loop
      vertex -6.27129e-16 2.16719 2.82434
      vertex -2 2.5173 2.5173
      vertex -2 2.16719 2.82434
    endloop
  endfacet
  facet normal -0 0.195089 0.980786
    outer loop
      vertex -2 0.921395 3.4387
      vertex -7.83716e-16 0.464673 3.52954
      vertex -7.63544e-16 0.921395 3.4387
    endloop
  endfacet
  facet normal 0 0.195089 0.980786
    outer loop
      vertex -7.83716e-16 0.464673 3.52954
      vertex -2 0.921395 3.4387
      vertex -2 0.464673 3.52954
    endloop
  endfacet
  facet normal 0 0.831469 0.55557
    outer loop
      vertex -3.95239e-16 3.08305 1.78
      vertex -2 2.82434 2.16719
      vertex -4.81213e-16 2.82434 2.16719
    endloop
  endfacet
  facet normal 0 0.831469 0.55557
    outer loop
      vertex -2 2.82434 2.16719
      vertex -3.95239e-16 3.08305 1.78
      vertex -2 3.08305 1.78
    endloop
  endfacet
  facet normal 0 0.997859 0.0654037
    outer loop
      vertex 0 3.56 0
      vertex -2 3.52954 0.464673
      vertex -1.03178e-16 3.52954 0.464673
    endloop
  endfacet
  facet normal -1.49009e-17 0.997859 0.0654037
    outer loop
      vertex -2 3.52954 0.464673
      vertex 0 3.56 0
      vertex -2 3.56 -4.44089e-16
    endloop
  endfacet
  facet normal 1.49009e-17 -0.997859 -0.0654037
    outer loop
      vertex -2 -3.52954 -0.464673
      vertex 0 -3.56 0
      vertex -2 -3.56 -4.44089e-16
    endloop
  endfacet
  facet normal 0 -0.997859 -0.0654037
    outer loop
      vertex 0 -3.56 0
      vertex -2 -3.52954 -0.464673
      vertex 1.03178e-16 -3.52954 -0.464673
    endloop
  endfacet
  facet normal 0 -0.94693 -0.32144
    outer loop
      vertex -2 -3.28901 -1.36235
      vertex 2.04591e-16 -3.4387 -0.921395
      vertex -2 -3.4387 -0.921395
    endloop
  endfacet
  facet normal 0 -0.94693 -0.32144
    outer loop
      vertex 2.04591e-16 -3.4387 -0.921395
      vertex -2 -3.28901 -1.36235
      vertex 3.02503e-16 -3.28901 -1.36235
    endloop
  endfacet
  facet normal 0 -0.831469 -0.55557
    outer loop
      vertex -2 -2.82434 -2.16719
      vertex 3.95239e-16 -3.08305 -1.78
      vertex -2 -3.08305 -1.78
    endloop
  endfacet
  facet normal 0 -0.831469 -0.55557
    outer loop
      vertex 3.95239e-16 -3.08305 -1.78
      vertex -2 -2.82434 -2.16719
      vertex 4.81213e-16 -2.82434 -2.16719
    endloop
  endfacet
  facet normal 0 -0.659346 -0.75184
    outer loop
      vertex -2 -2.5173 -2.5173
      vertex 6.27129e-16 -2.16719 -2.82434
      vertex 5.58953e-16 -2.5173 -2.5173
    endloop
  endfacet
  facet normal -0 -0.659346 -0.75184
    outer loop
      vertex 6.27129e-16 -2.16719 -2.82434
      vertex -2 -2.5173 -2.5173
      vertex -2 -2.16719 -2.82434
    endloop
  endfacet
  facet normal 0 -0.442289 -0.896872
    outer loop
      vertex -2 -1.78 -3.08305
      vertex 7.30307e-16 -1.36235 -3.28901
      vertex 6.84575e-16 -1.78 -3.08305
    endloop
  endfacet
  facet normal -0 -0.442289 -0.896872
    outer loop
      vertex 7.30307e-16 -1.36235 -3.28901
      vertex -2 -1.78 -3.08305
      vertex -2 -1.36235 -3.28901
    endloop
  endfacet
  facet normal 0 -0.75184 0.659346
    outer loop
      vertex -2 -2.82434 2.16719
      vertex -5.58953e-16 -2.5173 2.5173
      vertex -2 -2.5173 2.5173
    endloop
  endfacet
  facet normal 0 -0.75184 0.659346
    outer loop
      vertex -5.58953e-16 -2.5173 2.5173
      vertex -2 -2.82434 2.16719
      vertex -4.81213e-16 -2.82434 2.16719
    endloop
  endfacet
  facet normal 0 -0.896872 0.442289
    outer loop
      vertex -2 -3.28901 1.36235
      vertex -3.95239e-16 -3.08305 1.78
      vertex -2 -3.08305 1.78
    endloop
  endfacet
  facet normal 0 -0.896872 0.442289
    outer loop
      vertex -3.95239e-16 -3.08305 1.78
      vertex -2 -3.28901 1.36235
      vertex -3.02503e-16 -3.28901 1.36235
    endloop
  endfacet
  facet normal 0 -0.980786 0.195089
    outer loop
      vertex -2 -3.52954 0.464673
      vertex -2.04591e-16 -3.4387 0.921395
      vertex -2 -3.4387 0.921395
    endloop
  endfacet
  facet normal 0 -0.980786 0.195089
    outer loop
      vertex -2.04591e-16 -3.4387 0.921395
      vertex -2 -3.52954 0.464673
      vertex -1.03178e-16 -3.52954 0.464673
    endloop
  endfacet
  facet normal 0 -0.55557 0.831469
    outer loop
      vertex -2 -1.78 3.08305
      vertex -6.27129e-16 -2.16719 2.82434
      vertex -6.84575e-16 -1.78 3.08305
    endloop
  endfacet
  facet normal 0 -0.55557 0.831469
    outer loop
      vertex -6.27129e-16 -2.16719 2.82434
      vertex -2 -1.78 3.08305
      vertex -2 -2.16719 2.82434
    endloop
  endfacet
  facet normal 0 -0.32144 0.94693
    outer loop
      vertex -2 -0.921395 3.4387
      vertex -7.30307e-16 -1.36235 3.28901
      vertex -7.63544e-16 -0.921395 3.4387
    endloop
  endfacet
  facet normal 0 -0.32144 0.94693
    outer loop
      vertex -7.30307e-16 -1.36235 3.28901
      vertex -2 -0.921395 3.4387
      vertex -2 -1.36235 3.28901
    endloop
  endfacet
  facet normal 0 -0.0654037 0.997859
    outer loop
      vertex -2 0 3.56
      vertex -7.83716e-16 -0.464673 3.52954
      vertex -7.90479e-16 0 3.56
    endloop
  endfacet
  facet normal 0 -0.0654037 0.997859
    outer loop
      vertex -7.83716e-16 -0.464673 3.52954
      vertex -2 0 3.56
      vertex -2 -0.464673 3.52954
    endloop
  endfacet
  facet normal 0 -0.0654037 -0.997859
    outer loop
      vertex -2 -0.464673 -3.52954
      vertex 7.90479e-16 0 -3.56
      vertex 7.83716e-16 -0.464673 -3.52954
    endloop
  endfacet
  facet normal -0 -0.0654037 -0.997859
    outer loop
      vertex 7.90479e-16 0 -3.56
      vertex -2 -0.464673 -3.52954
      vertex -2 0 -3.56
    endloop
  endfacet
  facet normal 0 -0.980786 -0.195089
    outer loop
      vertex -2 -3.4387 -0.921395
      vertex 1.03178e-16 -3.52954 -0.464673
      vertex -2 -3.52954 -0.464673
    endloop
  endfacet
  facet normal 0 -0.980786 -0.195089
    outer loop
      vertex 1.03178e-16 -3.52954 -0.464673
      vertex -2 -3.4387 -0.921395
      vertex 2.04591e-16 -3.4387 -0.921395
    endloop
  endfacet
  facet normal 0 -0.75184 -0.659346
    outer loop
      vertex -2 -2.5173 -2.5173
      vertex 4.81213e-16 -2.82434 -2.16719
      vertex -2 -2.82434 -2.16719
    endloop
  endfacet
  facet normal 0 -0.75184 -0.659346
    outer loop
      vertex 4.81213e-16 -2.82434 -2.16719
      vertex -2 -2.5173 -2.5173
      vertex 5.58953e-16 -2.5173 -2.5173
    endloop
  endfacet
  facet normal 0 -0.55557 -0.831469
    outer loop
      vertex -2 -2.16719 -2.82434
      vertex 6.84575e-16 -1.78 -3.08305
      vertex 6.27129e-16 -2.16719 -2.82434
    endloop
  endfacet
  facet normal -0 -0.55557 -0.831469
    outer loop
      vertex 6.84575e-16 -1.78 -3.08305
      vertex -2 -2.16719 -2.82434
      vertex -2 -1.78 -3.08305
    endloop
  endfacet
  facet normal 0 -0.831469 0.55557
    outer loop
      vertex -2 -3.08305 1.78
      vertex -4.81213e-16 -2.82434 2.16719
      vertex -2 -2.82434 2.16719
    endloop
  endfacet
  facet normal 0 -0.831469 0.55557
    outer loop
      vertex -4.81213e-16 -2.82434 2.16719
      vertex -2 -3.08305 1.78
      vertex -3.95239e-16 -3.08305 1.78
    endloop
  endfacet
  facet normal 0 -0.195089 0.980786
    outer loop
      vertex -2 -0.464673 3.52954
      vertex -7.63544e-16 -0.921395 3.4387
      vertex -7.83716e-16 -0.464673 3.52954
    endloop
  endfacet
  facet normal 0 -0.195089 0.980786
    outer loop
      vertex -7.63544e-16 -0.921395 3.4387
      vertex -2 -0.464673 3.52954
      vertex -2 -0.921395 3.4387
    endloop
  endfacet
  facet normal 0 -0.0654039 0.997859
    outer loop
      vertex -2 0.326315 -2.47861
      vertex 6 0 -2.5
      vertex 6 0.326315 -2.47861
    endloop
  endfacet
  facet normal 0 -0.0654039 0.997859
    outer loop
      vertex 6 0 -2.5
      vertex -2 0.326315 -2.47861
      vertex -2 0 -2.5
    endloop
  endfacet
  facet normal 0 -0.0654039 -0.997859
    outer loop
      vertex -2 0 2.5
      vertex 6 0.326315 2.47861
      vertex 6 0 2.5
    endloop
  endfacet
  facet normal -0 -0.0654039 -0.997859
    outer loop
      vertex 6 0.326315 2.47861
      vertex -2 0 2.5
      vertex -2 0.326315 2.47861
    endloop
  endfacet
  facet normal -1.4588e-17 -0.997859 0.0654039
    outer loop
      vertex -2 2.47861 -0.326315
      vertex 6 2.5 1.33227e-15
      vertex -2 2.5 -4.44089e-16
    endloop
  endfacet
  facet normal 0 -0.997859 0.0654039
    outer loop
      vertex 6 2.5 1.33227e-15
      vertex -2 2.47861 -0.326315
      vertex 6 2.47861 -0.326315
    endloop
  endfacet
  facet normal 0 -0.659345 0.751841
    outer loop
      vertex -2 1.76777 -1.76777
      vertex 6 1.5219 -1.98338
      vertex 6 1.76777 -1.76777
    endloop
  endfacet
  facet normal 0 -0.659345 0.751841
    outer loop
      vertex 6 1.5219 -1.98338
      vertex -2 1.76777 -1.76777
      vertex -2 1.5219 -1.98338
    endloop
  endfacet
  facet normal 0 -0.751841 -0.659345
    outer loop
      vertex -2 1.98338 1.5219
      vertex 6 1.76777 1.76777
      vertex -2 1.76777 1.76777
    endloop
  endfacet
  facet normal 0 -0.751841 -0.659345
    outer loop
      vertex 6 1.76777 1.76777
      vertex -2 1.98338 1.5219
      vertex 6 1.98338 1.5219
    endloop
  endfacet
  facet normal 0 -0.94693 -0.32144
    outer loop
      vertex -2 2.41481 0.647047
      vertex 6 2.3097 0.956708
      vertex -2 2.3097 0.956708
    endloop
  endfacet
  facet normal 0 -0.94693 -0.32144
    outer loop
      vertex 6 2.3097 0.956708
      vertex -2 2.41481 0.647047
      vertex 6 2.41481 0.647047
    endloop
  endfacet
  facet normal 0 -0.32144 0.94693
    outer loop
      vertex -2 0.956708 -2.3097
      vertex 6 0.647047 -2.41481
      vertex 6 0.956708 -2.3097
    endloop
  endfacet
  facet normal 0 -0.32144 0.94693
    outer loop
      vertex 6 0.647047 -2.41481
      vertex -2 0.956708 -2.3097
      vertex -2 0.647047 -2.41481
    endloop
  endfacet
  facet normal 0 -0.195091 0.980785
    outer loop
      vertex -2 0.647047 -2.41481
      vertex 6 0.326315 -2.47861
      vertex 6 0.647047 -2.41481
    endloop
  endfacet
  facet normal 0 -0.195091 0.980785
    outer loop
      vertex 6 0.326315 -2.47861
      vertex -2 0.647047 -2.41481
      vertex -2 0.326315 -2.47861
    endloop
  endfacet
  facet normal 0 -0.896873 0.442288
    outer loop
      vertex -2 2.16506 -1.25
      vertex 6 2.3097 -0.956708
      vertex -2 2.3097 -0.956708
    endloop
  endfacet
  facet normal 0 -0.896873 0.442288
    outer loop
      vertex 6 2.3097 -0.956708
      vertex -2 2.16506 -1.25
      vertex 6 2.16506 -1.25
    endloop
  endfacet
  facet normal 0 -0.83147 0.55557
    outer loop
      vertex -2 1.98338 -1.5219
      vertex 6 2.16506 -1.25
      vertex -2 2.16506 -1.25
    endloop
  endfacet
  facet normal 0 -0.83147 0.55557
    outer loop
      vertex 6 2.16506 -1.25
      vertex -2 1.98338 -1.5219
      vertex 6 1.98338 -1.5219
    endloop
  endfacet
  facet normal 0 -0.442289 -0.896873
    outer loop
      vertex -2 0.956708 2.3097
      vertex 6 1.25 2.16506
      vertex 6 0.956708 2.3097
    endloop
  endfacet
  facet normal -0 -0.442289 -0.896873
    outer loop
      vertex 6 1.25 2.16506
      vertex -2 0.956708 2.3097
      vertex -2 1.25 2.16506
    endloop
  endfacet
  facet normal 0 -0.659345 -0.751841
    outer loop
      vertex -2 1.5219 1.98338
      vertex 6 1.76777 1.76777
      vertex 6 1.5219 1.98338
    endloop
  endfacet
  facet normal -0 -0.659345 -0.751841
    outer loop
      vertex 6 1.76777 1.76777
      vertex -2 1.5219 1.98338
      vertex -2 1.76777 1.76777
    endloop
  endfacet
  facet normal 0 -0.997859 -0.0654039
    outer loop
      vertex -2 2.47861 0.326315
      vertex 6 2.5 1.33227e-15
      vertex 6 2.47861 0.326315
    endloop
  endfacet
  facet normal 1.45226e-17 -0.997859 -0.0654039
    outer loop
      vertex 6 2.5 1.33227e-15
      vertex -2 2.47861 0.326315
      vertex -2 2.5 -4.44089e-16
    endloop
  endfacet
  facet normal -0 0.32144 0.94693
    outer loop
      vertex -2 -0.647047 -2.41481
      vertex 6 -0.956708 -2.3097
      vertex 6 -0.647047 -2.41481
    endloop
  endfacet
  facet normal 0 0.32144 0.94693
    outer loop
      vertex 6 -0.956708 -2.3097
      vertex -2 -0.647047 -2.41481
      vertex -2 -0.956708 -2.3097
    endloop
  endfacet
  facet normal 0 0.94693 0.32144
    outer loop
      vertex 6 -2.3097 -0.956708
      vertex -2 -2.41481 -0.647047
      vertex 6 -2.41481 -0.647047
    endloop
  endfacet
  facet normal 0 0.94693 0.32144
    outer loop
      vertex -2 -2.41481 -0.647047
      vertex 6 -2.3097 -0.956708
      vertex -2 -2.3097 -0.956708
    endloop
  endfacet
  facet normal -1.4588e-17 0.997859 0.0654039
    outer loop
      vertex 6 -2.47861 -0.326315
      vertex -2 -2.5 -4.44089e-16
      vertex 6 -2.5 1.33227e-15
    endloop
  endfacet
  facet normal 0 0.997859 0.0654039
    outer loop
      vertex -2 -2.5 -4.44089e-16
      vertex 6 -2.47861 -0.326315
      vertex -2 -2.47861 -0.326315
    endloop
  endfacet
  facet normal 0 0.896873 0.442288
    outer loop
      vertex 6 -2.16506 -1.25
      vertex -2 -2.3097 -0.956708
      vertex 6 -2.3097 -0.956708
    endloop
  endfacet
  facet normal 0 0.896873 0.442288
    outer loop
      vertex -2 -2.3097 -0.956708
      vertex 6 -2.16506 -1.25
      vertex -2 -2.16506 -1.25
    endloop
  endfacet
  facet normal 0 0.0654039 -0.997859
    outer loop
      vertex -2 -0.326315 2.47861
      vertex 6 0 2.5
      vertex 6 -0.326315 2.47861
    endloop
  endfacet
  facet normal 0 0.0654039 -0.997859
    outer loop
      vertex 6 0 2.5
      vertex -2 -0.326315 2.47861
      vertex -2 0 2.5
    endloop
  endfacet
  facet normal 0 -0.555569 0.831471
    outer loop
      vertex -2 1.5219 -1.98338
      vertex 6 1.25 -2.16506
      vertex 6 1.5219 -1.98338
    endloop
  endfacet
  facet normal 0 -0.555569 0.831471
    outer loop
      vertex 6 1.25 -2.16506
      vertex -2 1.5219 -1.98338
      vertex -2 1.25 -2.16506
    endloop
  endfacet
  facet normal 0 -0.442289 0.896873
    outer loop
      vertex -2 1.25 -2.16506
      vertex 6 0.956708 -2.3097
      vertex 6 1.25 -2.16506
    endloop
  endfacet
  facet normal 0 -0.442289 0.896873
    outer loop
      vertex 6 0.956708 -2.3097
      vertex -2 1.25 -2.16506
      vertex -2 0.956708 -2.3097
    endloop
  endfacet
  facet normal 0 -0.94693 0.32144
    outer loop
      vertex -2 2.3097 -0.956708
      vertex 6 2.41481 -0.647047
      vertex -2 2.41481 -0.647047
    endloop
  endfacet
  facet normal 0 -0.94693 0.32144
    outer loop
      vertex 6 2.41481 -0.647047
      vertex -2 2.3097 -0.956708
      vertex 6 2.3097 -0.956708
    endloop
  endfacet
  facet normal 0 -0.980785 0.195091
    outer loop
      vertex -2 2.41481 -0.647047
      vertex 6 2.47861 -0.326315
      vertex -2 2.47861 -0.326315
    endloop
  endfacet
  facet normal 0 -0.980785 0.195091
    outer loop
      vertex 6 2.47861 -0.326315
      vertex -2 2.41481 -0.647047
      vertex 6 2.41481 -0.647047
    endloop
  endfacet
  facet normal 0 -0.751841 0.659345
    outer loop
      vertex -2 1.76777 -1.76777
      vertex 6 1.98338 -1.5219
      vertex -2 1.98338 -1.5219
    endloop
  endfacet
  facet normal 0 -0.751841 0.659345
    outer loop
      vertex 6 1.98338 -1.5219
      vertex -2 1.76777 -1.76777
      vertex 6 1.76777 -1.76777
    endloop
  endfacet
  facet normal 0 -0.555569 -0.831471
    outer loop
      vertex -2 1.25 2.16506
      vertex 6 1.5219 1.98338
      vertex 6 1.25 2.16506
    endloop
  endfacet
  facet normal -0 -0.555569 -0.831471
    outer loop
      vertex 6 1.5219 1.98338
      vertex -2 1.25 2.16506
      vertex -2 1.5219 1.98338
    endloop
  endfacet
  facet normal 0 -0.32144 -0.94693
    outer loop
      vertex -2 0.647047 2.41481
      vertex 6 0.956708 2.3097
      vertex 6 0.647047 2.41481
    endloop
  endfacet
  facet normal -0 -0.32144 -0.94693
    outer loop
      vertex 6 0.956708 2.3097
      vertex -2 0.647047 2.41481
      vertex -2 0.956708 2.3097
    endloop
  endfacet
  facet normal 0 -0.195091 -0.980785
    outer loop
      vertex -2 0.326315 2.47861
      vertex 6 0.647047 2.41481
      vertex 6 0.326315 2.47861
    endloop
  endfacet
  facet normal -0 -0.195091 -0.980785
    outer loop
      vertex 6 0.647047 2.41481
      vertex -2 0.326315 2.47861
      vertex -2 0.647047 2.41481
    endloop
  endfacet
  facet normal 0 -0.896873 -0.442289
    outer loop
      vertex -2 2.3097 0.956708
      vertex 6 2.16506 1.25
      vertex -2 2.16506 1.25
    endloop
  endfacet
  facet normal 0 -0.896873 -0.442289
    outer loop
      vertex 6 2.16506 1.25
      vertex -2 2.3097 0.956708
      vertex 6 2.3097 0.956708
    endloop
  endfacet
  facet normal 0 -0.831471 -0.555569
    outer loop
      vertex -2 2.16506 1.25
      vertex 6 1.98338 1.5219
      vertex -2 1.98338 1.5219
    endloop
  endfacet
  facet normal 0 -0.831471 -0.555569
    outer loop
      vertex 6 1.98338 1.5219
      vertex -2 2.16506 1.25
      vertex 6 2.16506 1.25
    endloop
  endfacet
  facet normal 0 -0.980785 -0.195091
    outer loop
      vertex -2 2.47861 0.326315
      vertex 6 2.41481 0.647047
      vertex -2 2.41481 0.647047
    endloop
  endfacet
  facet normal 0 -0.980785 -0.195091
    outer loop
      vertex 6 2.41481 0.647047
      vertex -2 2.47861 0.326315
      vertex 6 2.47861 0.326315
    endloop
  endfacet
  facet normal 0 0.980785 0.195091
    outer loop
      vertex 6 -2.41481 -0.647047
      vertex -2 -2.47861 -0.326315
      vertex 6 -2.47861 -0.326315
    endloop
  endfacet
  facet normal 0 0.980785 0.195091
    outer loop
      vertex -2 -2.47861 -0.326315
      vertex 6 -2.41481 -0.647047
      vertex -2 -2.41481 -0.647047
    endloop
  endfacet
  facet normal 0 0.83147 0.55557
    outer loop
      vertex 6 -1.98338 -1.5219
      vertex -2 -2.16506 -1.25
      vertex 6 -2.16506 -1.25
    endloop
  endfacet
  facet normal 0 0.83147 0.55557
    outer loop
      vertex -2 -2.16506 -1.25
      vertex 6 -1.98338 -1.5219
      vertex -2 -1.98338 -1.5219
    endloop
  endfacet
  facet normal -0 0.659345 0.751841
    outer loop
      vertex -2 -1.5219 -1.98338
      vertex 6 -1.76777 -1.76777
      vertex 6 -1.5219 -1.98338
    endloop
  endfacet
  facet normal 0 0.659345 0.751841
    outer loop
      vertex 6 -1.76777 -1.76777
      vertex -2 -1.5219 -1.98338
      vertex -2 -1.76777 -1.76777
    endloop
  endfacet
  facet normal 0 0.751841 -0.659345
    outer loop
      vertex 6 -1.98338 1.5219
      vertex -2 -1.76777 1.76777
      vertex 6 -1.76777 1.76777
    endloop
  endfacet
  facet normal 0 0.751841 -0.659345
    outer loop
      vertex -2 -1.76777 1.76777
      vertex 6 -1.98338 1.5219
      vertex -2 -1.98338 1.5219
    endloop
  endfacet
  facet normal 0 0.896873 -0.442288
    outer loop
      vertex 6 -2.3097 0.956708
      vertex -2 -2.16506 1.25
      vertex 6 -2.16506 1.25
    endloop
  endfacet
  facet normal 0 0.896873 -0.442288
    outer loop
      vertex -2 -2.16506 1.25
      vertex 6 -2.3097 0.956708
      vertex -2 -2.3097 0.956708
    endloop
  endfacet
  facet normal 0 0.94693 -0.32144
    outer loop
      vertex 6 -2.41481 0.647047
      vertex -2 -2.3097 0.956708
      vertex 6 -2.3097 0.956708
    endloop
  endfacet
  facet normal 0 0.94693 -0.32144
    outer loop
      vertex -2 -2.3097 0.956708
      vertex 6 -2.41481 0.647047
      vertex -2 -2.41481 0.647047
    endloop
  endfacet
  facet normal 0 0.997859 -0.0654039
    outer loop
      vertex 6 -2.5 1.33227e-15
      vertex -2 -2.47861 0.326315
      vertex 6 -2.47861 0.326315
    endloop
  endfacet
  facet normal 1.4588e-17 0.997859 -0.0654039
    outer loop
      vertex -2 -2.47861 0.326315
      vertex 6 -2.5 1.33227e-15
      vertex -2 -2.5 -4.44089e-16
    endloop
  endfacet
  facet normal 0 0.442289 -0.896873
    outer loop
      vertex -2 -1.25 2.16506
      vertex 6 -0.956708 2.3097
      vertex 6 -1.25 2.16506
    endloop
  endfacet
  facet normal 0 0.442289 -0.896873
    outer loop
      vertex 6 -0.956708 2.3097
      vertex -2 -1.25 2.16506
      vertex -2 -0.956708 2.3097
    endloop
  endfacet
  facet normal 0 0.659345 -0.751841
    outer loop
      vertex -2 -1.76777 1.76777
      vertex 6 -1.5219 1.98338
      vertex 6 -1.76777 1.76777
    endloop
  endfacet
  facet normal 0 0.659345 -0.751841
    outer loop
      vertex 6 -1.5219 1.98338
      vertex -2 -1.76777 1.76777
      vertex -2 -1.5219 1.98338
    endloop
  endfacet
  facet normal 0 0.195091 -0.980785
    outer loop
      vertex -2 -0.647047 2.41481
      vertex 6 -0.326315 2.47861
      vertex 6 -0.647047 2.41481
    endloop
  endfacet
  facet normal 0 0.195091 -0.980785
    outer loop
      vertex 6 -0.326315 2.47861
      vertex -2 -0.647047 2.41481
      vertex -2 -0.326315 2.47861
    endloop
  endfacet
  facet normal 0 0.751841 0.659345
    outer loop
      vertex 6 -1.76777 -1.76777
      vertex -2 -1.98338 -1.5219
      vertex 6 -1.98338 -1.5219
    endloop
  endfacet
  facet normal 0 0.751841 0.659345
    outer loop
      vertex -2 -1.98338 -1.5219
      vertex 6 -1.76777 -1.76777
      vertex -2 -1.76777 -1.76777
    endloop
  endfacet
  facet normal -0 0.442288 0.896873
    outer loop
      vertex -2 -0.956708 -2.3097
      vertex 6 -1.25 -2.16506
      vertex 6 -0.956708 -2.3097
    endloop
  endfacet
  facet normal 0 0.442288 0.896873
    outer loop
      vertex 6 -1.25 -2.16506
      vertex -2 -0.956708 -2.3097
      vertex -2 -1.25 -2.16506
    endloop
  endfacet
  facet normal -0 0.195091 0.980785
    outer loop
      vertex -2 -0.326315 -2.47861
      vertex 6 -0.647047 -2.41481
      vertex 6 -0.326315 -2.47861
    endloop
  endfacet
  facet normal 0 0.195091 0.980785
    outer loop
      vertex 6 -0.647047 -2.41481
      vertex -2 -0.326315 -2.47861
      vertex -2 -0.647047 -2.41481
    endloop
  endfacet
  facet normal 0 0.83147 -0.55557
    outer loop
      vertex 6 -2.16506 1.25
      vertex -2 -1.98338 1.5219
      vertex 6 -1.98338 1.5219
    endloop
  endfacet
  facet normal 0 0.83147 -0.55557
    outer loop
      vertex -2 -1.98338 1.5219
      vertex 6 -2.16506 1.25
      vertex -2 -2.16506 1.25
    endloop
  endfacet
  facet normal 0 0.980785 -0.195091
    outer loop
      vertex 6 -2.47861 0.326315
      vertex -2 -2.41481 0.647047
      vertex 6 -2.41481 0.647047
    endloop
  endfacet
  facet normal 0 0.980785 -0.195091
    outer loop
      vertex -2 -2.41481 0.647047
      vertex 6 -2.47861 0.326315
      vertex -2 -2.47861 0.326315
    endloop
  endfacet
  facet normal 0 0.555569 -0.831471
    outer loop
      vertex -2 -1.5219 1.98338
      vertex 6 -1.25 2.16506
      vertex 6 -1.5219 1.98338
    endloop
  endfacet
  facet normal 0 0.555569 -0.831471
    outer loop
      vertex 6 -1.25 2.16506
      vertex -2 -1.5219 1.98338
      vertex -2 -1.25 2.16506
    endloop
  endfacet
  facet normal 0 0.32144 -0.94693
    outer loop
      vertex -2 -0.956708 2.3097
      vertex 6 -0.647047 2.41481
      vertex 6 -0.956708 2.3097
    endloop
  endfacet
  facet normal 0 0.32144 -0.94693
    outer loop
      vertex 6 -0.647047 2.41481
      vertex -2 -0.956708 2.3097
      vertex -2 -0.647047 2.41481
    endloop
  endfacet
  facet normal -0 0.55557 0.83147
    outer loop
      vertex -2 -1.25 -2.16506
      vertex 6 -1.5219 -1.98338
      vertex 6 -1.25 -2.16506
    endloop
  endfacet
  facet normal 0 0.55557 0.83147
    outer loop
      vertex 6 -1.5219 -1.98338
      vertex -2 -1.25 -2.16506
      vertex -2 -1.5219 -1.98338
    endloop
  endfacet
  facet normal -0 0.0654039 0.997859
    outer loop
      vertex -2 0 -2.5
      vertex 6 -0.326315 -2.47861
      vertex 6 0 -2.5
    endloop
  endfacet
  facet normal 0 0.0654039 0.997859
    outer loop
      vertex 6 -0.326315 -2.47861
      vertex -2 0 -2.5
      vertex -2 -0.326315 -2.47861
    endloop
  endfacet
endsolid OpenSCAD_Model
