solid OpenSCAD_Model
  facet normal 0 0.0654042 -0.997859
    outer loop
      vertex 7.77156e-16 0 -3.5
      vertex 0.5 0.456841 -3.47006
      vertex 0.5 0 -3.5
    endloop
  endfacet
  facet normal 0 0.0654042 -0.997859
    outer loop
      vertex 0.5 0.456841 -3.47006
      vertex 7.77156e-16 0 -3.5
      vertex 7.70507e-16 0.456841 -3.47006
    endloop
  endfacet
  facet normal -0 0.0654042 0.997859
    outer loop
      vertex -7.70507e-16 0.456841 3.47006
      vertex 0.5 0 3.5
      vertex 0.5 0.456841 3.47006
    endloop
  endfacet
  facet normal 0 0.0654042 0.997859
    outer loop
      vertex 0.5 0 3.5
      vertex -7.70507e-16 0.456841 3.47006
      vertex -7.77156e-16 0 3.5
    endloop
  endfacet
  facet normal 1.51563e-17 0.997859 -0.0654042
    outer loop
      vertex 0.5 3.47006 -0.456841
      vertex 0 3.5 0
      vertex 0.5 3.5 1.11022e-16
    endloop
  endfacet
  facet normal 0 0.997859 -0.0654042
    outer loop
      vertex 0 3.5 0
      vertex 0.5 3.47006 -0.456841
      vertex 1.01439e-16 3.47006 -0.456841
    endloop
  endfacet
  facet normal 0 -0.659346 0.75184
    outer loop
      vertex 0.5 -2.13066 2.77674
      vertex -5.49532e-16 -2.47487 2.47487
      vertex 0.5 -2.47487 2.47487
    endloop
  endfacet
  facet normal 0 -0.659346 0.75184
    outer loop
      vertex -5.49532e-16 -2.47487 2.47487
      vertex 0.5 -2.13066 2.77674
      vertex -6.16559e-16 -2.13066 2.77674
    endloop
  endfacet
  facet normal 0 0.659346 -0.75184
    outer loop
      vertex 6.16559e-16 2.13066 -2.77674
      vertex 0.5 2.47487 -2.47487
      vertex 0.5 2.13066 -2.77674
    endloop
  endfacet
  facet normal 0 0.659346 -0.75184
    outer loop
      vertex 0.5 2.47487 -2.47487
      vertex 6.16559e-16 2.13066 -2.77674
      vertex 5.49532e-16 2.47487 -2.47487
    endloop
  endfacet
  facet normal 0 0.75184 0.659346
    outer loop
      vertex 0.5 2.77674 2.13066
      vertex -5.49532e-16 2.47487 2.47487
      vertex 0.5 2.47487 2.47487
    endloop
  endfacet
  facet normal 0 0.75184 0.659346
    outer loop
      vertex -5.49532e-16 2.47487 2.47487
      vertex 0.5 2.77674 2.13066
      vertex -4.73103e-16 2.77674 2.13066
    endloop
  endfacet
  facet normal 0 0.94693 0.32144
    outer loop
      vertex 0.5 3.38074 0.905867
      vertex -2.97405e-16 3.23358 1.33939
      vertex 0.5 3.23358 1.33939
    endloop
  endfacet
  facet normal 0 0.94693 0.32144
    outer loop
      vertex -2.97405e-16 3.23358 1.33939
      vertex 0.5 3.38074 0.905867
      vertex -2.01143e-16 3.38074 0.905867
    endloop
  endfacet
  facet normal 0 0.442288 -0.896873
    outer loop
      vertex 7.17998e-16 1.33939 -3.23358
      vertex 0.5 1.75 -3.03109
      vertex 0.5 1.33939 -3.23358
    endloop
  endfacet
  facet normal 0 0.442288 -0.896873
    outer loop
      vertex 0.5 1.75 -3.03109
      vertex 7.17998e-16 1.33939 -3.23358
      vertex 6.73037e-16 1.75 -3.03109
    endloop
  endfacet
  facet normal 0 0.19509 -0.980785
    outer loop
      vertex 7.70507e-16 0.456841 -3.47006
      vertex 0.5 0.905867 -3.38074
      vertex 0.5 0.456841 -3.47006
    endloop
  endfacet
  facet normal 0 0.19509 -0.980785
    outer loop
      vertex 0.5 0.905867 -3.38074
      vertex 7.70507e-16 0.456841 -3.47006
      vertex 7.50675e-16 0.905867 -3.38074
    endloop
  endfacet
  facet normal 0 0.55557 -0.83147
    outer loop
      vertex 6.73037e-16 1.75 -3.03109
      vertex 0.5 2.13066 -2.77674
      vertex 0.5 1.75 -3.03109
    endloop
  endfacet
  facet normal 0 0.55557 -0.83147
    outer loop
      vertex 0.5 2.13066 -2.77674
      vertex 6.73037e-16 1.75 -3.03109
      vertex 6.16559e-16 2.13066 -2.77674
    endloop
  endfacet
  facet normal 0 0.896873 -0.442287
    outer loop
      vertex 0.5 3.03109 -1.75
      vertex 2.97405e-16 3.23358 -1.33939
      vertex 0.5 3.23358 -1.33939
    endloop
  endfacet
  facet normal 0 0.896873 -0.442287
    outer loop
      vertex 2.97405e-16 3.23358 -1.33939
      vertex 0.5 3.03109 -1.75
      vertex 3.88578e-16 3.03109 -1.75
    endloop
  endfacet
  facet normal 0 0.94693 -0.32144
    outer loop
      vertex 0.5 3.23358 -1.33939
      vertex 2.01143e-16 3.38074 -0.905867
      vertex 0.5 3.38074 -0.905867
    endloop
  endfacet
  facet normal 0 0.94693 -0.32144
    outer loop
      vertex 2.01143e-16 3.38074 -0.905867
      vertex 0.5 3.23358 -1.33939
      vertex 2.97405e-16 3.23358 -1.33939
    endloop
  endfacet
  facet normal 0 0.831469 -0.555571
    outer loop
      vertex 0.5 2.77674 -2.13066
      vertex 3.88578e-16 3.03109 -1.75
      vertex 0.5 3.03109 -1.75
    endloop
  endfacet
  facet normal 0 0.831469 -0.555571
    outer loop
      vertex 3.88578e-16 3.03109 -1.75
      vertex 0.5 2.77674 -2.13066
      vertex 4.73103e-16 2.77674 -2.13066
    endloop
  endfacet
  facet normal -0 0.442288 0.896873
    outer loop
      vertex -6.73037e-16 1.75 3.03109
      vertex 0.5 1.33939 3.23358
      vertex 0.5 1.75 3.03109
    endloop
  endfacet
  facet normal 0 0.442288 0.896873
    outer loop
      vertex 0.5 1.33939 3.23358
      vertex -6.73037e-16 1.75 3.03109
      vertex -7.17998e-16 1.33939 3.23358
    endloop
  endfacet
  facet normal -0 0.32144 0.94693
    outer loop
      vertex -7.17998e-16 1.33939 3.23358
      vertex 0.5 0.905867 3.38074
      vertex 0.5 1.33939 3.23358
    endloop
  endfacet
  facet normal 0 0.32144 0.94693
    outer loop
      vertex 0.5 0.905867 3.38074
      vertex -7.17998e-16 1.33939 3.23358
      vertex -7.50675e-16 0.905867 3.38074
    endloop
  endfacet
  facet normal 0 0.896873 0.442288
    outer loop
      vertex 0.5 3.23358 1.33939
      vertex -3.88578e-16 3.03109 1.75
      vertex 0.5 3.03109 1.75
    endloop
  endfacet
  facet normal 0 0.896873 0.442288
    outer loop
      vertex -3.88578e-16 3.03109 1.75
      vertex 0.5 3.23358 1.33939
      vertex -2.97405e-16 3.23358 1.33939
    endloop
  endfacet
  facet normal 0 0.980785 0.19509
    outer loop
      vertex 0.5 3.47006 0.456841
      vertex -2.01143e-16 3.38074 0.905867
      vertex 0.5 3.38074 0.905867
    endloop
  endfacet
  facet normal 0 0.980785 0.19509
    outer loop
      vertex -2.01143e-16 3.38074 0.905867
      vertex 0.5 3.47006 0.456841
      vertex -1.01439e-16 3.47006 0.456841
    endloop
  endfacet
  facet normal 0 -0.896873 -0.442287
    outer loop
      vertex 3.88578e-16 -3.03109 -1.75
      vertex 0.5 -3.23358 -1.33939
      vertex 2.97405e-16 -3.23358 -1.33939
    endloop
  endfacet
  facet normal 0 -0.896873 -0.442287
    outer loop
      vertex 0.5 -3.23358 -1.33939
      vertex 3.88578e-16 -3.03109 -1.75
      vertex 0.5 -3.03109 -1.75
    endloop
  endfacet
  facet normal 0 -0.94693 0.32144
    outer loop
      vertex -2.01143e-16 -3.38074 0.905867
      vertex 0.5 -3.23358 1.33939
      vertex -2.97405e-16 -3.23358 1.33939
    endloop
  endfacet
  facet normal 0 -0.94693 0.32144
    outer loop
      vertex 0.5 -3.23358 1.33939
      vertex -2.01143e-16 -3.38074 0.905867
      vertex 0.5 -3.38074 0.905867
    endloop
  endfacet
  facet normal 0 -0.442288 0.896873
    outer loop
      vertex 0.5 -1.33939 3.23358
      vertex -6.73037e-16 -1.75 3.03109
      vertex 0.5 -1.75 3.03109
    endloop
  endfacet
  facet normal 0 -0.442288 0.896873
    outer loop
      vertex -6.73037e-16 -1.75 3.03109
      vertex 0.5 -1.33939 3.23358
      vertex -7.17998e-16 -1.33939 3.23358
    endloop
  endfacet
  facet normal -1 0 -2.22045e-16
    outer loop
      vertex 0 1.6 0
      vertex 0 3.5 0
      vertex 1.01439e-16 3.47006 -0.456841
    endloop
  endfacet
  facet normal -1 0 -2.22045e-16
    outer loop
      vertex 4.63721e-17 1.58631 -0.208841
      vertex 1.01439e-16 3.47006 -0.456841
      vertex 2.01143e-16 3.38074 -0.905867
    endloop
  endfacet
  facet normal -1 -0 -2.22045e-16
    outer loop
      vertex 0 3.5 0
      vertex 0 1.6 0
      vertex -1.01439e-16 3.47006 0.456841
    endloop
  endfacet
  facet normal -1 0 -2.22045e-16
    outer loop
      vertex 9.19509e-17 1.54548 -0.41411
      vertex 2.01143e-16 3.38074 -0.905867
      vertex 2.97405e-16 3.23358 -1.33939
    endloop
  endfacet
  facet normal -1 0 -2.22045e-16
    outer loop
      vertex -4.63721e-17 1.58631 0.208841
      vertex -1.01439e-16 3.47006 0.456841
      vertex 0 1.6 0
    endloop
  endfacet
  facet normal -1 0 -2.22045e-16
    outer loop
      vertex 1.35956e-16 1.47821 -0.612293
      vertex 2.97405e-16 3.23358 -1.33939
      vertex 3.88578e-16 3.03109 -1.75
    endloop
  endfacet
  facet normal -1 0 -2.22045e-16
    outer loop
      vertex -1.01439e-16 3.47006 0.456841
      vertex -4.63721e-17 1.58631 0.208841
      vertex -2.01143e-16 3.38074 0.905867
    endloop
  endfacet
  facet normal -1 0 -2.22045e-16
    outer loop
      vertex 1.77636e-16 1.38564 -0.799999
      vertex 3.88578e-16 3.03109 -1.75
      vertex 4.73103e-16 2.77674 -2.13066
    endloop
  endfacet
  facet normal -1 0 -2.22045e-16
    outer loop
      vertex -9.19509e-17 1.54548 0.41411
      vertex -2.01143e-16 3.38074 0.905867
      vertex -4.63721e-17 1.58631 0.208841
    endloop
  endfacet
  facet normal -1 0 -2.22045e-16
    outer loop
      vertex 2.16275e-16 1.26937 -0.974018
      vertex 4.73103e-16 2.77674 -2.13066
      vertex 5.49532e-16 2.47487 -2.47487
    endloop
  endfacet
  facet normal -1 0 -2.22045e-16
    outer loop
      vertex -2.01143e-16 3.38074 0.905867
      vertex -9.19509e-17 1.54548 0.41411
      vertex -2.97405e-16 3.23358 1.33939
    endloop
  endfacet
  facet normal -1 0 -2.22045e-16
    outer loop
      vertex 2.51215e-16 1.13137 -1.13137
      vertex 5.49532e-16 2.47487 -2.47487
      vertex 6.16559e-16 2.13066 -2.77674
    endloop
  endfacet
  facet normal -1 0 -2.22045e-16
    outer loop
      vertex -1.35956e-16 1.47821 0.612293
      vertex -2.97405e-16 3.23358 1.33939
      vertex -9.19509e-17 1.54548 0.41411
    endloop
  endfacet
  facet normal -1 0 -2.22045e-16
    outer loop
      vertex 2.81856e-16 0.974018 -1.26937
      vertex 6.16559e-16 2.13066 -2.77674
      vertex 6.73037e-16 1.75 -3.03109
    endloop
  endfacet
  facet normal -1 0 -2.22045e-16
    outer loop
      vertex -2.97405e-16 3.23358 1.33939
      vertex -1.35956e-16 1.47821 0.612293
      vertex -3.88578e-16 3.03109 1.75
    endloop
  endfacet
  facet normal -1 0 -2.22045e-16
    outer loop
      vertex -1.77636e-16 1.38564 0.799999
      vertex -3.88578e-16 3.03109 1.75
      vertex -1.35956e-16 1.47821 0.612293
    endloop
  endfacet
  facet normal -1 0 -2.22045e-16
    outer loop
      vertex 1.01439e-16 3.47006 -0.456841
      vertex 4.63721e-17 1.58631 -0.208841
      vertex 0 1.6 0
    endloop
  endfacet
  facet normal -1 0 -2.22045e-16
    outer loop
      vertex 2.01143e-16 3.38074 -0.905867
      vertex 9.19509e-17 1.54548 -0.41411
      vertex 4.63721e-17 1.58631 -0.208841
    endloop
  endfacet
  facet normal -1 0 -2.22045e-16
    outer loop
      vertex 2.97405e-16 3.23358 -1.33939
      vertex 1.35956e-16 1.47821 -0.612293
      vertex 9.19509e-17 1.54548 -0.41411
    endloop
  endfacet
  facet normal -1 0 -2.22045e-16
    outer loop
      vertex 3.88578e-16 3.03109 -1.75
      vertex 1.77636e-16 1.38564 -0.799999
      vertex 1.35956e-16 1.47821 -0.612293
    endloop
  endfacet
  facet normal -1 0 -2.22045e-16
    outer loop
      vertex 3.07674e-16 0.799999 -1.38564
      vertex 6.73037e-16 1.75 -3.03109
      vertex 7.17998e-16 1.33939 -3.23358
    endloop
  endfacet
  facet normal -1 0 -2.22045e-16
    outer loop
      vertex 4.73103e-16 2.77674 -2.13066
      vertex 2.16275e-16 1.26937 -0.974018
      vertex 1.77636e-16 1.38564 -0.799999
    endloop
  endfacet
  facet normal -1 0 -2.22045e-16
    outer loop
      vertex 5.49532e-16 2.47487 -2.47487
      vertex 2.51215e-16 1.13137 -1.13137
      vertex 2.16275e-16 1.26937 -0.974018
    endloop
  endfacet
  facet normal -1 0 -2.22045e-16
    outer loop
      vertex 6.16559e-16 2.13066 -2.77674
      vertex 2.81856e-16 0.974018 -1.26937
      vertex 2.51215e-16 1.13137 -1.13137
    endloop
  endfacet
  facet normal -1 0 -2.22045e-16
    outer loop
      vertex 3.28228e-16 0.612293 -1.47821
      vertex 7.17998e-16 1.33939 -3.23358
      vertex 7.50675e-16 0.905867 -3.38074
    endloop
  endfacet
  facet normal -1 0 -2.22045e-16
    outer loop
      vertex 6.73037e-16 1.75 -3.03109
      vertex 3.07674e-16 0.799999 -1.38564
      vertex 2.81856e-16 0.974018 -1.26937
    endloop
  endfacet
  facet normal -1 0 -2.22045e-16
    outer loop
      vertex 7.17998e-16 1.33939 -3.23358
      vertex 3.28228e-16 0.612293 -1.47821
      vertex 3.07674e-16 0.799999 -1.38564
    endloop
  endfacet
  facet normal -1 0 -2.22045e-16
    outer loop
      vertex 3.43166e-16 0.41411 -1.54548
      vertex 7.50675e-16 0.905867 -3.38074
      vertex 7.70507e-16 0.456841 -3.47006
    endloop
  endfacet
  facet normal -1 0 -2.22045e-16
    outer loop
      vertex 7.50675e-16 0.905867 -3.38074
      vertex 3.43166e-16 0.41411 -1.54548
      vertex 3.28228e-16 0.612293 -1.47821
    endloop
  endfacet
  facet normal -1 0 -2.22045e-16
    outer loop
      vertex 7.70507e-16 0.456841 -3.47006
      vertex 3.52232e-16 0.208841 -1.58631
      vertex 3.43166e-16 0.41411 -1.54548
    endloop
  endfacet
  facet normal -1 0 -2.22045e-16
    outer loop
      vertex 7.77156e-16 0 -3.5
      vertex 3.52232e-16 0.208841 -1.58631
      vertex 7.70507e-16 0.456841 -3.47006
    endloop
  endfacet
  facet normal -1 0 -2.22045e-16
    outer loop
      vertex 7.77156e-16 0 -3.5
      vertex 3.55271e-16 0 -1.6
      vertex 3.52232e-16 0.208841 -1.58631
    endloop
  endfacet
  facet normal -1 0 -2.22045e-16
    outer loop
      vertex 7.77156e-16 0 -3.5
      vertex 3.52232e-16 -0.208841 -1.58631
      vertex 3.55271e-16 0 -1.6
    endloop
  endfacet
  facet normal -1 0 -2.22045e-16
    outer loop
      vertex 7.70507e-16 -0.456841 -3.47006
      vertex 3.52232e-16 -0.208841 -1.58631
      vertex 7.77156e-16 0 -3.5
    endloop
  endfacet
  facet normal -1 0 -2.22045e-16
    outer loop
      vertex 3.52232e-16 -0.208841 -1.58631
      vertex 7.70507e-16 -0.456841 -3.47006
      vertex 3.43166e-16 -0.41411 -1.54548
    endloop
  endfacet
  facet normal -1 0 -2.22045e-16
    outer loop
      vertex 7.50675e-16 -0.905867 -3.38074
      vertex 3.43166e-16 -0.41411 -1.54548
      vertex 7.70507e-16 -0.456841 -3.47006
    endloop
  endfacet
  facet normal -1 0 -2.22045e-16
    outer loop
      vertex 3.43166e-16 -0.41411 -1.54548
      vertex 7.50675e-16 -0.905867 -3.38074
      vertex 3.28228e-16 -0.612293 -1.47821
    endloop
  endfacet
  facet normal -1 0 -2.22045e-16
    outer loop
      vertex 7.17998e-16 -1.33939 -3.23358
      vertex 3.28228e-16 -0.612293 -1.47821
      vertex 7.50675e-16 -0.905867 -3.38074
    endloop
  endfacet
  facet normal -1 0 -2.22045e-16
    outer loop
      vertex 3.28228e-16 -0.612293 -1.47821
      vertex 7.17998e-16 -1.33939 -3.23358
      vertex 3.07674e-16 -0.799999 -1.38564
    endloop
  endfacet
  facet normal -1 0 -2.22045e-16
    outer loop
      vertex 6.73037e-16 -1.75 -3.03109
      vertex 3.07674e-16 -0.799999 -1.38564
      vertex 7.17998e-16 -1.33939 -3.23358
    endloop
  endfacet
  facet normal -1 0 -2.22045e-16
    outer loop
      vertex 3.07674e-16 -0.799999 -1.38564
      vertex 6.73037e-16 -1.75 -3.03109
      vertex 2.81856e-16 -0.974018 -1.26937
    endloop
  endfacet
  facet normal -1 0 -2.22045e-16
    outer loop
      vertex 6.16559e-16 -2.13066 -2.77674
      vertex 2.81856e-16 -0.974018 -1.26937
      vertex 6.73037e-16 -1.75 -3.03109
    endloop
  endfacet
  facet normal -1 0 -2.22045e-16
    outer loop
      vertex 2.81856e-16 -0.974018 -1.26937
      vertex 6.16559e-16 -2.13066 -2.77674
      vertex 2.51215e-16 -1.13137 -1.13137
    endloop
  endfacet
  facet normal -1 0 -2.22045e-16
    outer loop
      vertex 5.49532e-16 -2.47487 -2.47487
      vertex 2.51215e-16 -1.13137 -1.13137
      vertex 6.16559e-16 -2.13066 -2.77674
    endloop
  endfacet
  facet normal -1 0 -2.22045e-16
    outer loop
      vertex 2.51215e-16 -1.13137 -1.13137
      vertex 5.49532e-16 -2.47487 -2.47487
      vertex 2.16275e-16 -1.26937 -0.974018
    endloop
  endfacet
  facet normal -1 0 -2.22045e-16
    outer loop
      vertex 4.73103e-16 -2.77674 -2.13066
      vertex 2.16275e-16 -1.26937 -0.974018
      vertex 5.49532e-16 -2.47487 -2.47487
    endloop
  endfacet
  facet normal -1 0 -2.22045e-16
    outer loop
      vertex 2.16275e-16 -1.26937 -0.974018
      vertex 4.73103e-16 -2.77674 -2.13066
      vertex 1.77636e-16 -1.38564 -0.799999
    endloop
  endfacet
  facet normal -1 0 -2.22045e-16
    outer loop
      vertex 3.88578e-16 -3.03109 -1.75
      vertex 1.77636e-16 -1.38564 -0.799999
      vertex 4.73103e-16 -2.77674 -2.13066
    endloop
  endfacet
  facet normal -1 0 -2.22045e-16
    outer loop
      vertex 1.77636e-16 -1.38564 -0.799999
      vertex 3.88578e-16 -3.03109 -1.75
      vertex 1.35956e-16 -1.47821 -0.612293
    endloop
  endfacet
  facet normal -1 0 -2.22045e-16
    outer loop
      vertex 2.97405e-16 -3.23358 -1.33939
      vertex 1.35956e-16 -1.47821 -0.612293
      vertex 3.88578e-16 -3.03109 -1.75
    endloop
  endfacet
  facet normal -1 0 -2.22045e-16
    outer loop
      vertex 0 -1.6 0
      vertex -6.16559e-16 -2.13066 2.77674
      vertex -6.73037e-16 -1.75 3.03109
    endloop
  endfacet
  facet normal -1 0 -2.22045e-16
    outer loop
      vertex 1.35956e-16 -1.47821 -0.612293
      vertex 2.97405e-16 -3.23358 -1.33939
      vertex 9.19509e-17 -1.54548 -0.41411
    endloop
  endfacet
  facet normal -1 0 -2.22045e-16
    outer loop
      vertex 0 -1.6 0
      vertex -5.49532e-16 -2.47487 2.47487
      vertex -6.16559e-16 -2.13066 2.77674
    endloop
  endfacet
  facet normal -1 0 -2.22045e-16
    outer loop
      vertex 2.01143e-16 -3.38074 -0.905867
      vertex 9.19509e-17 -1.54548 -0.41411
      vertex 2.97405e-16 -3.23358 -1.33939
    endloop
  endfacet
  facet normal -1 0 -2.22045e-16
    outer loop
      vertex 0 -1.6 0
      vertex -4.73103e-16 -2.77674 2.13066
      vertex -5.49532e-16 -2.47487 2.47487
    endloop
  endfacet
  facet normal -1 0 -2.22045e-16
    outer loop
      vertex 9.19509e-17 -1.54548 -0.41411
      vertex 2.01143e-16 -3.38074 -0.905867
      vertex 4.63721e-17 -1.58631 -0.208841
    endloop
  endfacet
  facet normal -1 0 -2.22045e-16
    outer loop
      vertex 0 -1.6 0
      vertex -3.88578e-16 -3.03109 1.75
      vertex -4.73103e-16 -2.77674 2.13066
    endloop
  endfacet
  facet normal -1 0 -2.22045e-16
    outer loop
      vertex 1.01439e-16 -3.47006 -0.456841
      vertex 4.63721e-17 -1.58631 -0.208841
      vertex 2.01143e-16 -3.38074 -0.905867
    endloop
  endfacet
  facet normal -1 0 -2.22045e-16
    outer loop
      vertex 0 -1.6 0
      vertex -2.97405e-16 -3.23358 1.33939
      vertex -3.88578e-16 -3.03109 1.75
    endloop
  endfacet
  facet normal -1 0 -2.22045e-16
    outer loop
      vertex 4.63721e-17 -1.58631 -0.208841
      vertex 1.01439e-16 -3.47006 -0.456841
      vertex 0 -1.6 0
    endloop
  endfacet
  facet normal -1 0 -2.22045e-16
    outer loop
      vertex 0 -1.6 0
      vertex -2.01143e-16 -3.38074 0.905867
      vertex -2.97405e-16 -3.23358 1.33939
    endloop
  endfacet
  facet normal -1 0 -2.22045e-16
    outer loop
      vertex 0 -3.5 0
      vertex 0 -1.6 0
      vertex 1.01439e-16 -3.47006 -0.456841
    endloop
  endfacet
  facet normal -1 0 -2.22045e-16
    outer loop
      vertex 0 -1.6 0
      vertex -1.01439e-16 -3.47006 0.456841
      vertex -2.01143e-16 -3.38074 0.905867
    endloop
  endfacet
  facet normal -1 -0 -2.22045e-16
    outer loop
      vertex 0 -1.6 0
      vertex 0 -3.5 0
      vertex -1.01439e-16 -3.47006 0.456841
    endloop
  endfacet
  facet normal -1 0 -2.22045e-16
    outer loop
      vertex -3.88578e-16 3.03109 1.75
      vertex -1.77636e-16 1.38564 0.799999
      vertex -4.73103e-16 2.77674 2.13066
    endloop
  endfacet
  facet normal -1 0 -2.22045e-16
    outer loop
      vertex -2.16275e-16 1.26937 0.974018
      vertex -4.73103e-16 2.77674 2.13066
      vertex -1.77636e-16 1.38564 0.799999
    endloop
  endfacet
  facet normal -1 0 -2.22045e-16
    outer loop
      vertex -4.73103e-16 2.77674 2.13066
      vertex -2.16275e-16 1.26937 0.974018
      vertex -5.49532e-16 2.47487 2.47487
    endloop
  endfacet
  facet normal -1 0 -2.22045e-16
    outer loop
      vertex -2.51215e-16 1.13137 1.13137
      vertex -5.49532e-16 2.47487 2.47487
      vertex -2.16275e-16 1.26937 0.974018
    endloop
  endfacet
  facet normal -1 0 -2.22045e-16
    outer loop
      vertex -5.49532e-16 2.47487 2.47487
      vertex -2.51215e-16 1.13137 1.13137
      vertex -6.16559e-16 2.13066 2.77674
    endloop
  endfacet
  facet normal -1 0 -2.22045e-16
    outer loop
      vertex -2.81856e-16 0.974018 1.26937
      vertex -6.16559e-16 2.13066 2.77674
      vertex -2.51215e-16 1.13137 1.13137
    endloop
  endfacet
  facet normal -1 0 -2.22045e-16
    outer loop
      vertex -6.16559e-16 2.13066 2.77674
      vertex -2.81856e-16 0.974018 1.26937
      vertex -6.73037e-16 1.75 3.03109
    endloop
  endfacet
  facet normal -1 0 -2.22045e-16
    outer loop
      vertex -3.07674e-16 0.799999 1.38564
      vertex -6.73037e-16 1.75 3.03109
      vertex -2.81856e-16 0.974018 1.26937
    endloop
  endfacet
  facet normal -1 0 -2.22045e-16
    outer loop
      vertex -6.73037e-16 1.75 3.03109
      vertex -3.07674e-16 0.799999 1.38564
      vertex -7.17998e-16 1.33939 3.23358
    endloop
  endfacet
  facet normal -1 0 -2.22045e-16
    outer loop
      vertex -3.28228e-16 0.612293 1.47821
      vertex -7.17998e-16 1.33939 3.23358
      vertex -3.07674e-16 0.799999 1.38564
    endloop
  endfacet
  facet normal -1 0 -2.22045e-16
    outer loop
      vertex -7.17998e-16 1.33939 3.23358
      vertex -3.28228e-16 0.612293 1.47821
      vertex -7.50675e-16 0.905867 3.38074
    endloop
  endfacet
  facet normal -1 0 -2.22045e-16
    outer loop
      vertex -3.43166e-16 0.41411 1.54548
      vertex -7.50675e-16 0.905867 3.38074
      vertex -3.28228e-16 0.612293 1.47821
    endloop
  endfacet
  facet normal -1 0 -2.22045e-16
    outer loop
      vertex -7.50675e-16 0.905867 3.38074
      vertex -3.43166e-16 0.41411 1.54548
      vertex -7.70507e-16 0.456841 3.47006
    endloop
  endfacet
  facet normal -1 0 -2.22045e-16
    outer loop
      vertex -3.52232e-16 0.208841 1.58631
      vertex -7.70507e-16 0.456841 3.47006
      vertex -3.43166e-16 0.41411 1.54548
    endloop
  endfacet
  facet normal -1 0 -2.22045e-16
    outer loop
      vertex -3.55271e-16 0 1.6
      vertex -7.70507e-16 0.456841 3.47006
      vertex -3.52232e-16 0.208841 1.58631
    endloop
  endfacet
  facet normal -1 0 -2.22045e-16
    outer loop
      vertex -3.55271e-16 0 1.6
      vertex -7.77156e-16 0 3.5
      vertex -7.70507e-16 0.456841 3.47006
    endloop
  endfacet
  facet normal -1 0 -2.22045e-16
    outer loop
      vertex -3.52232e-16 -0.208841 1.58631
      vertex -7.77156e-16 0 3.5
      vertex -3.55271e-16 0 1.6
    endloop
  endfacet
  facet normal -1 0 -2.22045e-16
    outer loop
      vertex -7.70507e-16 -0.456841 3.47006
      vertex -3.52232e-16 -0.208841 1.58631
      vertex -3.43166e-16 -0.41411 1.54548
    endloop
  endfacet
  facet normal -1 0 -2.22045e-16
    outer loop
      vertex -3.52232e-16 -0.208841 1.58631
      vertex -7.70507e-16 -0.456841 3.47006
      vertex -7.77156e-16 0 3.5
    endloop
  endfacet
  facet normal -1 0 -2.22045e-16
    outer loop
      vertex -7.50675e-16 -0.905867 3.38074
      vertex -3.43166e-16 -0.41411 1.54548
      vertex -3.28228e-16 -0.612293 1.47821
    endloop
  endfacet
  facet normal -1 0 -2.22045e-16
    outer loop
      vertex -7.17998e-16 -1.33939 3.23358
      vertex -3.28228e-16 -0.612293 1.47821
      vertex -3.07674e-16 -0.799999 1.38564
    endloop
  endfacet
  facet normal -1 0 -2.22045e-16
    outer loop
      vertex -3.43166e-16 -0.41411 1.54548
      vertex -7.50675e-16 -0.905867 3.38074
      vertex -7.70507e-16 -0.456841 3.47006
    endloop
  endfacet
  facet normal -1 0 -2.22045e-16
    outer loop
      vertex -6.73037e-16 -1.75 3.03109
      vertex -3.07674e-16 -0.799999 1.38564
      vertex -2.81856e-16 -0.974018 1.26937
    endloop
  endfacet
  facet normal -1 0 -2.22045e-16
    outer loop
      vertex -6.73037e-16 -1.75 3.03109
      vertex -2.81856e-16 -0.974018 1.26937
      vertex -2.51215e-16 -1.13137 1.13137
    endloop
  endfacet
  facet normal -1 0 -2.22045e-16
    outer loop
      vertex -6.73037e-16 -1.75 3.03109
      vertex -2.51215e-16 -1.13137 1.13137
      vertex -2.16275e-16 -1.26937 0.974018
    endloop
  endfacet
  facet normal -1 0 -2.22045e-16
    outer loop
      vertex -3.28228e-16 -0.612293 1.47821
      vertex -7.17998e-16 -1.33939 3.23358
      vertex -7.50675e-16 -0.905867 3.38074
    endloop
  endfacet
  facet normal -1 0 -2.22045e-16
    outer loop
      vertex -6.73037e-16 -1.75 3.03109
      vertex -2.16275e-16 -1.26937 0.974018
      vertex -1.77636e-16 -1.38564 0.799999
    endloop
  endfacet
  facet normal -1 0 -2.22045e-16
    outer loop
      vertex -6.73037e-16 -1.75 3.03109
      vertex -1.77636e-16 -1.38564 0.799999
      vertex -1.35956e-16 -1.47821 0.612293
    endloop
  endfacet
  facet normal -1 0 -2.22045e-16
    outer loop
      vertex -6.73037e-16 -1.75 3.03109
      vertex -1.35956e-16 -1.47821 0.612293
      vertex -9.19509e-17 -1.54548 0.41411
    endloop
  endfacet
  facet normal -1 0 -2.22045e-16
    outer loop
      vertex -6.73037e-16 -1.75 3.03109
      vertex -9.19509e-17 -1.54548 0.41411
      vertex -4.63721e-17 -1.58631 0.208841
    endloop
  endfacet
  facet normal -1 0 -2.22045e-16
    outer loop
      vertex -3.07674e-16 -0.799999 1.38564
      vertex -6.73037e-16 -1.75 3.03109
      vertex -7.17998e-16 -1.33939 3.23358
    endloop
  endfacet
  facet normal -1 0 -2.22045e-16
    outer loop
      vertex -6.73037e-16 -1.75 3.03109
      vertex -4.63721e-17 -1.58631 0.208841
      vertex 0 -1.6 0
    endloop
  endfacet
  facet normal 0 0.32144 -0.94693
    outer loop
      vertex 7.50675e-16 0.905867 -3.38074
      vertex 0.5 1.33939 -3.23358
      vertex 0.5 0.905867 -3.38074
    endloop
  endfacet
  facet normal 0 0.32144 -0.94693
    outer loop
      vertex 0.5 1.33939 -3.23358
      vertex 7.50675e-16 0.905867 -3.38074
      vertex 7.17998e-16 1.33939 -3.23358
    endloop
  endfacet
  facet normal 0 0.980785 -0.19509
    outer loop
      vertex 0.5 3.38074 -0.905867
      vertex 1.01439e-16 3.47006 -0.456841
      vertex 0.5 3.47006 -0.456841
    endloop
  endfacet
  facet normal 0 0.980785 -0.19509
    outer loop
      vertex 1.01439e-16 3.47006 -0.456841
      vertex 0.5 3.38074 -0.905867
      vertex 2.01143e-16 3.38074 -0.905867
    endloop
  endfacet
  facet normal 0 0.75184 -0.659346
    outer loop
      vertex 0.5 2.47487 -2.47487
      vertex 4.73103e-16 2.77674 -2.13066
      vertex 0.5 2.77674 -2.13066
    endloop
  endfacet
  facet normal 0 0.75184 -0.659346
    outer loop
      vertex 4.73103e-16 2.77674 -2.13066
      vertex 0.5 2.47487 -2.47487
      vertex 5.49532e-16 2.47487 -2.47487
    endloop
  endfacet
  facet normal -0 0.55557 0.83147
    outer loop
      vertex -6.16559e-16 2.13066 2.77674
      vertex 0.5 1.75 3.03109
      vertex 0.5 2.13066 2.77674
    endloop
  endfacet
  facet normal 0 0.55557 0.83147
    outer loop
      vertex 0.5 1.75 3.03109
      vertex -6.16559e-16 2.13066 2.77674
      vertex -6.73037e-16 1.75 3.03109
    endloop
  endfacet
  facet normal -0 0.659346 0.75184
    outer loop
      vertex -5.49532e-16 2.47487 2.47487
      vertex 0.5 2.13066 2.77674
      vertex 0.5 2.47487 2.47487
    endloop
  endfacet
  facet normal 0 0.659346 0.75184
    outer loop
      vertex 0.5 2.13066 2.77674
      vertex -5.49532e-16 2.47487 2.47487
      vertex -6.16559e-16 2.13066 2.77674
    endloop
  endfacet
  facet normal -0 0.19509 0.980785
    outer loop
      vertex -7.50675e-16 0.905867 3.38074
      vertex 0.5 0.456841 3.47006
      vertex 0.5 0.905867 3.38074
    endloop
  endfacet
  facet normal 0 0.19509 0.980785
    outer loop
      vertex 0.5 0.456841 3.47006
      vertex -7.50675e-16 0.905867 3.38074
      vertex -7.70507e-16 0.456841 3.47006
    endloop
  endfacet
  facet normal 1 0 0
    outer loop
      vertex 0.5 1.6 1.11022e-16
      vertex 0.5 3.5 1.11022e-16
      vertex 0.5 3.47006 0.456841
    endloop
  endfacet
  facet normal 1 0 0
    outer loop
      vertex 0.5 1.58631 0.208841
      vertex 0.5 3.47006 0.456841
      vertex 0.5 3.38074 0.905867
    endloop
  endfacet
  facet normal 1 0 0
    outer loop
      vertex 0.5 3.5 1.11022e-16
      vertex 0.5 1.6 1.11022e-16
      vertex 0.5 3.47006 -0.456841
    endloop
  endfacet
  facet normal 1 0 0
    outer loop
      vertex 0.5 1.54548 0.41411
      vertex 0.5 3.38074 0.905867
      vertex 0.5 3.23358 1.33939
    endloop
  endfacet
  facet normal 1 -0 0
    outer loop
      vertex 0.5 1.58631 -0.208841
      vertex 0.5 3.47006 -0.456841
      vertex 0.5 1.6 1.11022e-16
    endloop
  endfacet
  facet normal 1 0 0
    outer loop
      vertex 0.5 1.47821 0.612293
      vertex 0.5 3.23358 1.33939
      vertex 0.5 3.03109 1.75
    endloop
  endfacet
  facet normal 1 0 0
    outer loop
      vertex 0.5 3.47006 -0.456841
      vertex 0.5 1.58631 -0.208841
      vertex 0.5 3.38074 -0.905867
    endloop
  endfacet
  facet normal 1 0 0
    outer loop
      vertex 0.5 1.38564 0.799999
      vertex 0.5 3.03109 1.75
      vertex 0.5 2.77674 2.13066
    endloop
  endfacet
  facet normal 1 -0 0
    outer loop
      vertex 0.5 1.54548 -0.41411
      vertex 0.5 3.38074 -0.905867
      vertex 0.5 1.58631 -0.208841
    endloop
  endfacet
  facet normal 1 0 0
    outer loop
      vertex 0.5 1.26937 0.974018
      vertex 0.5 2.77674 2.13066
      vertex 0.5 2.47487 2.47487
    endloop
  endfacet
  facet normal 1 0 0
    outer loop
      vertex 0.5 3.38074 -0.905867
      vertex 0.5 1.54548 -0.41411
      vertex 0.5 3.23358 -1.33939
    endloop
  endfacet
  facet normal 1 0 0
    outer loop
      vertex 0.5 1.13137 1.13137
      vertex 0.5 2.47487 2.47487
      vertex 0.5 2.13066 2.77674
    endloop
  endfacet
  facet normal 1 -0 0
    outer loop
      vertex 0.5 1.47821 -0.612293
      vertex 0.5 3.23358 -1.33939
      vertex 0.5 1.54548 -0.41411
    endloop
  endfacet
  facet normal 1 0 0
    outer loop
      vertex 0.5 0.974018 1.26937
      vertex 0.5 2.13066 2.77674
      vertex 0.5 1.75 3.03109
    endloop
  endfacet
  facet normal 1 0 0
    outer loop
      vertex 0.5 3.23358 -1.33939
      vertex 0.5 1.47821 -0.612293
      vertex 0.5 3.03109 -1.75
    endloop
  endfacet
  facet normal 1 -0 0
    outer loop
      vertex 0.5 1.38564 -0.799999
      vertex 0.5 3.03109 -1.75
      vertex 0.5 1.47821 -0.612293
    endloop
  endfacet
  facet normal 1 0 0
    outer loop
      vertex 0.5 3.47006 0.456841
      vertex 0.5 1.58631 0.208841
      vertex 0.5 1.6 1.11022e-16
    endloop
  endfacet
  facet normal 1 0 0
    outer loop
      vertex 0.5 3.38074 0.905867
      vertex 0.5 1.54548 0.41411
      vertex 0.5 1.58631 0.208841
    endloop
  endfacet
  facet normal 1 0 0
    outer loop
      vertex 0.5 3.23358 1.33939
      vertex 0.5 1.47821 0.612293
      vertex 0.5 1.54548 0.41411
    endloop
  endfacet
  facet normal 1 0 0
    outer loop
      vertex 0.5 3.03109 1.75
      vertex 0.5 1.38564 0.799999
      vertex 0.5 1.47821 0.612293
    endloop
  endfacet
  facet normal 1 0 0
    outer loop
      vertex 0.5 0.799999 1.38564
      vertex 0.5 1.75 3.03109
      vertex 0.5 1.33939 3.23358
    endloop
  endfacet
  facet normal 1 0 0
    outer loop
      vertex 0.5 2.77674 2.13066
      vertex 0.5 1.26937 0.974018
      vertex 0.5 1.38564 0.799999
    endloop
  endfacet
  facet normal 1 0 0
    outer loop
      vertex 0.5 2.47487 2.47487
      vertex 0.5 1.13137 1.13137
      vertex 0.5 1.26937 0.974018
    endloop
  endfacet
  facet normal 1 0 0
    outer loop
      vertex 0.5 2.13066 2.77674
      vertex 0.5 0.974018 1.26937
      vertex 0.5 1.13137 1.13137
    endloop
  endfacet
  facet normal 1 0 0
    outer loop
      vertex 0.5 0.612293 1.47821
      vertex 0.5 1.33939 3.23358
      vertex 0.5 0.905867 3.38074
    endloop
  endfacet
  facet normal 1 0 0
    outer loop
      vertex 0.5 1.75 3.03109
      vertex 0.5 0.799999 1.38564
      vertex 0.5 0.974018 1.26937
    endloop
  endfacet
  facet normal 1 0 0
    outer loop
      vertex 0.5 1.33939 3.23358
      vertex 0.5 0.612293 1.47821
      vertex 0.5 0.799999 1.38564
    endloop
  endfacet
  facet normal 1 0 0
    outer loop
      vertex 0.5 0.41411 1.54548
      vertex 0.5 0.905867 3.38074
      vertex 0.5 0.456841 3.47006
    endloop
  endfacet
  facet normal 1 0 0
    outer loop
      vertex 0.5 0.905867 3.38074
      vertex 0.5 0.41411 1.54548
      vertex 0.5 0.612293 1.47821
    endloop
  endfacet
  facet normal 1 0 0
    outer loop
      vertex 0.5 0.456841 3.47006
      vertex 0.5 0.208841 1.58631
      vertex 0.5 0.41411 1.54548
    endloop
  endfacet
  facet normal 1 0 0
    outer loop
      vertex 0.5 0 3.5
      vertex 0.5 0.208841 1.58631
      vertex 0.5 0.456841 3.47006
    endloop
  endfacet
  facet normal 1 0 0
    outer loop
      vertex 0.5 0 3.5
      vertex 0.5 0 1.6
      vertex 0.5 0.208841 1.58631
    endloop
  endfacet
  facet normal 1 0 0
    outer loop
      vertex 0.5 0 3.5
      vertex 0.5 -0.208841 1.58631
      vertex 0.5 0 1.6
    endloop
  endfacet
  facet normal 1 -0 0
    outer loop
      vertex 0.5 -0.456841 3.47006
      vertex 0.5 -0.208841 1.58631
      vertex 0.5 0 3.5
    endloop
  endfacet
  facet normal 1 0 0
    outer loop
      vertex 0.5 -0.208841 1.58631
      vertex 0.5 -0.456841 3.47006
      vertex 0.5 -0.41411 1.54548
    endloop
  endfacet
  facet normal 1 -0 0
    outer loop
      vertex 0.5 -0.905867 3.38074
      vertex 0.5 -0.41411 1.54548
      vertex 0.5 -0.456841 3.47006
    endloop
  endfacet
  facet normal 1 0 0
    outer loop
      vertex 0.5 -0.41411 1.54548
      vertex 0.5 -0.905867 3.38074
      vertex 0.5 -0.612293 1.47821
    endloop
  endfacet
  facet normal 1 -0 0
    outer loop
      vertex 0.5 -1.33939 3.23358
      vertex 0.5 -0.612293 1.47821
      vertex 0.5 -0.905867 3.38074
    endloop
  endfacet
  facet normal 1 0 0
    outer loop
      vertex 0.5 -0.612293 1.47821
      vertex 0.5 -1.33939 3.23358
      vertex 0.5 -0.799999 1.38564
    endloop
  endfacet
  facet normal 1 -0 0
    outer loop
      vertex 0.5 -1.75 3.03109
      vertex 0.5 -0.799999 1.38564
      vertex 0.5 -1.33939 3.23358
    endloop
  endfacet
  facet normal 1 0 0
    outer loop
      vertex 0.5 -0.799999 1.38564
      vertex 0.5 -1.75 3.03109
      vertex 0.5 -0.974018 1.26937
    endloop
  endfacet
  facet normal 1 -0 0
    outer loop
      vertex 0.5 -2.13066 2.77674
      vertex 0.5 -0.974018 1.26937
      vertex 0.5 -1.75 3.03109
    endloop
  endfacet
  facet normal 1 0 0
    outer loop
      vertex 0.5 -0.974018 1.26937
      vertex 0.5 -2.13066 2.77674
      vertex 0.5 -1.13137 1.13137
    endloop
  endfacet
  facet normal 1 -0 0
    outer loop
      vertex 0.5 -2.47487 2.47487
      vertex 0.5 -1.13137 1.13137
      vertex 0.5 -2.13066 2.77674
    endloop
  endfacet
  facet normal 1 0 0
    outer loop
      vertex 0.5 -1.13137 1.13137
      vertex 0.5 -2.47487 2.47487
      vertex 0.5 -1.26937 0.974018
    endloop
  endfacet
  facet normal 1 -0 0
    outer loop
      vertex 0.5 -2.77674 2.13066
      vertex 0.5 -1.26937 0.974018
      vertex 0.5 -2.47487 2.47487
    endloop
  endfacet
  facet normal 1 -0 0
    outer loop
      vertex 0.5 -3.03109 1.75
      vertex 0.5 -1.38564 0.799999
      vertex 0.5 -2.77674 2.13066
    endloop
  endfacet
  facet normal 1 0 0
    outer loop
      vertex 0.5 -1.26937 0.974018
      vertex 0.5 -2.77674 2.13066
      vertex 0.5 -1.38564 0.799999
    endloop
  endfacet
  facet normal 1 0 0
    outer loop
      vertex 0.5 3.03109 -1.75
      vertex 0.5 1.38564 -0.799999
      vertex 0.5 2.77674 -2.13066
    endloop
  endfacet
  facet normal 1 -0 0
    outer loop
      vertex 0.5 1.26937 -0.974018
      vertex 0.5 2.77674 -2.13066
      vertex 0.5 1.38564 -0.799999
    endloop
  endfacet
  facet normal 1 0 0
    outer loop
      vertex 0.5 2.77674 -2.13066
      vertex 0.5 1.26937 -0.974018
      vertex 0.5 2.47487 -2.47487
    endloop
  endfacet
  facet normal 1 -0 0
    outer loop
      vertex 0.5 1.13137 -1.13137
      vertex 0.5 2.47487 -2.47487
      vertex 0.5 1.26937 -0.974018
    endloop
  endfacet
  facet normal 1 0 0
    outer loop
      vertex 0.5 2.47487 -2.47487
      vertex 0.5 1.13137 -1.13137
      vertex 0.5 2.13066 -2.77674
    endloop
  endfacet
  facet normal 1 -0 0
    outer loop
      vertex 0.5 0.974018 -1.26937
      vertex 0.5 2.13066 -2.77674
      vertex 0.5 1.13137 -1.13137
    endloop
  endfacet
  facet normal 1 0 0
    outer loop
      vertex 0.5 2.13066 -2.77674
      vertex 0.5 0.974018 -1.26937
      vertex 0.5 1.75 -3.03109
    endloop
  endfacet
  facet normal 1 -0 0
    outer loop
      vertex 0.5 0.799999 -1.38564
      vertex 0.5 1.75 -3.03109
      vertex 0.5 0.974018 -1.26937
    endloop
  endfacet
  facet normal 1 0 0
    outer loop
      vertex 0.5 1.75 -3.03109
      vertex 0.5 0.799999 -1.38564
      vertex 0.5 1.33939 -3.23358
    endloop
  endfacet
  facet normal 1 -0 0
    outer loop
      vertex 0.5 0.612293 -1.47821
      vertex 0.5 1.33939 -3.23358
      vertex 0.5 0.799999 -1.38564
    endloop
  endfacet
  facet normal 1 0 0
    outer loop
      vertex 0.5 1.33939 -3.23358
      vertex 0.5 0.612293 -1.47821
      vertex 0.5 0.905867 -3.38074
    endloop
  endfacet
  facet normal 1 -0 0
    outer loop
      vertex 0.5 0.41411 -1.54548
      vertex 0.5 0.905867 -3.38074
      vertex 0.5 0.612293 -1.47821
    endloop
  endfacet
  facet normal 1 0 0
    outer loop
      vertex 0.5 0.905867 -3.38074
      vertex 0.5 0.41411 -1.54548
      vertex 0.5 0.456841 -3.47006
    endloop
  endfacet
  facet normal 1 -0 0
    outer loop
      vertex 0.5 0.208841 -1.58631
      vertex 0.5 0.456841 -3.47006
      vertex 0.5 0.41411 -1.54548
    endloop
  endfacet
  facet normal 1 -0 0
    outer loop
      vertex 0.5 0 -1.6
      vertex 0.5 0.456841 -3.47006
      vertex 0.5 0.208841 -1.58631
    endloop
  endfacet
  facet normal 1 0 0
    outer loop
      vertex 0.5 0 -1.6
      vertex 0.5 0 -3.5
      vertex 0.5 0.456841 -3.47006
    endloop
  endfacet
  facet normal 1 0 0
    outer loop
      vertex 0.5 -0.208841 -1.58631
      vertex 0.5 0 -3.5
      vertex 0.5 0 -1.6
    endloop
  endfacet
  facet normal 1 0 0
    outer loop
      vertex 0.5 -0.456841 -3.47006
      vertex 0.5 -0.208841 -1.58631
      vertex 0.5 -0.41411 -1.54548
    endloop
  endfacet
  facet normal 1 0 0
    outer loop
      vertex 0.5 -0.208841 -1.58631
      vertex 0.5 -0.456841 -3.47006
      vertex 0.5 0 -3.5
    endloop
  endfacet
  facet normal 1 0 0
    outer loop
      vertex 0.5 -0.905867 -3.38074
      vertex 0.5 -0.41411 -1.54548
      vertex 0.5 -0.612293 -1.47821
    endloop
  endfacet
  facet normal 1 0 0
    outer loop
      vertex 0.5 -1.33939 -3.23358
      vertex 0.5 -0.612293 -1.47821
      vertex 0.5 -0.799999 -1.38564
    endloop
  endfacet
  facet normal 1 0 0
    outer loop
      vertex 0.5 -0.41411 -1.54548
      vertex 0.5 -0.905867 -3.38074
      vertex 0.5 -0.456841 -3.47006
    endloop
  endfacet
  facet normal 1 0 0
    outer loop
      vertex 0.5 -1.75 -3.03109
      vertex 0.5 -0.799999 -1.38564
      vertex 0.5 -0.974018 -1.26937
    endloop
  endfacet
  facet normal 1 0 0
    outer loop
      vertex 0.5 -2.13066 -2.77674
      vertex 0.5 -0.974018 -1.26937
      vertex 0.5 -1.13137 -1.13137
    endloop
  endfacet
  facet normal 1 0 0
    outer loop
      vertex 0.5 -2.47487 -2.47487
      vertex 0.5 -1.13137 -1.13137
      vertex 0.5 -1.26937 -0.974018
    endloop
  endfacet
  facet normal 1 0 0
    outer loop
      vertex 0.5 -0.612293 -1.47821
      vertex 0.5 -1.33939 -3.23358
      vertex 0.5 -0.905867 -3.38074
    endloop
  endfacet
  facet normal 1 0 0
    outer loop
      vertex 0.5 -2.77674 -2.13066
      vertex 0.5 -1.26937 -0.974018
      vertex 0.5 -1.38564 -0.799999
    endloop
  endfacet
  facet normal 1 0 0
    outer loop
      vertex 0.5 -3.03109 -1.75
      vertex 0.5 -1.38564 -0.799999
      vertex 0.5 -1.47821 -0.612293
    endloop
  endfacet
  facet normal 1 0 0
    outer loop
      vertex 0.5 -3.23358 -1.33939
      vertex 0.5 -1.47821 -0.612293
      vertex 0.5 -1.54548 -0.41411
    endloop
  endfacet
  facet normal 1 0 0
    outer loop
      vertex 0.5 -3.38074 -0.905867
      vertex 0.5 -1.54548 -0.41411
      vertex 0.5 -1.58631 -0.208841
    endloop
  endfacet
  facet normal 1 0 0
    outer loop
      vertex 0.5 -0.799999 -1.38564
      vertex 0.5 -1.75 -3.03109
      vertex 0.5 -1.33939 -3.23358
    endloop
  endfacet
  facet normal 1 0 0
    outer loop
      vertex 0.5 -3.47006 -0.456841
      vertex 0.5 -1.58631 -0.208841
      vertex 0.5 -1.6 1.11022e-16
    endloop
  endfacet
  facet normal 1 0 0
    outer loop
      vertex 0.5 -1.38564 0.799999
      vertex 0.5 -3.03109 1.75
      vertex 0.5 -1.47821 0.612293
    endloop
  endfacet
  facet normal 1 -0 0
    outer loop
      vertex 0.5 -3.23358 1.33939
      vertex 0.5 -1.47821 0.612293
      vertex 0.5 -3.03109 1.75
    endloop
  endfacet
  facet normal 1 0 0
    outer loop
      vertex 0.5 -0.974018 -1.26937
      vertex 0.5 -2.13066 -2.77674
      vertex 0.5 -1.75 -3.03109
    endloop
  endfacet
  facet normal 1 0 0
    outer loop
      vertex 0.5 -1.47821 0.612293
      vertex 0.5 -3.23358 1.33939
      vertex 0.5 -1.54548 0.41411
    endloop
  endfacet
  facet normal 1 0 0
    outer loop
      vertex 0.5 -1.13137 -1.13137
      vertex 0.5 -2.47487 -2.47487
      vertex 0.5 -2.13066 -2.77674
    endloop
  endfacet
  facet normal 1 -0 0
    outer loop
      vertex 0.5 -3.38074 0.905867
      vertex 0.5 -1.54548 0.41411
      vertex 0.5 -3.23358 1.33939
    endloop
  endfacet
  facet normal 1 0 0
    outer loop
      vertex 0.5 -1.26937 -0.974018
      vertex 0.5 -2.77674 -2.13066
      vertex 0.5 -2.47487 -2.47487
    endloop
  endfacet
  facet normal 1 0 0
    outer loop
      vertex 0.5 -1.54548 0.41411
      vertex 0.5 -3.38074 0.905867
      vertex 0.5 -1.58631 0.208841
    endloop
  endfacet
  facet normal 1 0 0
    outer loop
      vertex 0.5 -1.38564 -0.799999
      vertex 0.5 -3.03109 -1.75
      vertex 0.5 -2.77674 -2.13066
    endloop
  endfacet
  facet normal 1 -0 0
    outer loop
      vertex 0.5 -3.47006 0.456841
      vertex 0.5 -1.58631 0.208841
      vertex 0.5 -3.38074 0.905867
    endloop
  endfacet
  facet normal 1 0 0
    outer loop
      vertex 0.5 -1.47821 -0.612293
      vertex 0.5 -3.23358 -1.33939
      vertex 0.5 -3.03109 -1.75
    endloop
  endfacet
  facet normal 1 0 0
    outer loop
      vertex 0.5 -1.58631 0.208841
      vertex 0.5 -3.47006 0.456841
      vertex 0.5 -1.6 1.11022e-16
    endloop
  endfacet
  facet normal 1 0 0
    outer loop
      vertex 0.5 -1.54548 -0.41411
      vertex 0.5 -3.38074 -0.905867
      vertex 0.5 -3.23358 -1.33939
    endloop
  endfacet
  facet normal 1 0 0
    outer loop
      vertex 0.5 -3.5 1.11022e-16
      vertex 0.5 -1.6 1.11022e-16
      vertex 0.5 -3.47006 0.456841
    endloop
  endfacet
  facet normal 1 0 0
    outer loop
      vertex 0.5 -1.58631 -0.208841
      vertex 0.5 -3.47006 -0.456841
      vertex 0.5 -3.38074 -0.905867
    endloop
  endfacet
  facet normal 1 0 0
    outer loop
      vertex 0.5 -1.6 1.11022e-16
      vertex 0.5 -3.5 1.11022e-16
      vertex 0.5 -3.47006 -0.456841
    endloop
  endfacet
  facet normal 0 0.83147 0.55557
    outer loop
      vertex 0.5 3.03109 1.75
      vertex -4.73103e-16 2.77674 2.13066
      vertex 0.5 2.77674 2.13066
    endloop
  endfacet
  facet normal 0 0.83147 0.55557
    outer loop
      vertex -4.73103e-16 2.77674 2.13066
      vertex 0.5 3.03109 1.75
      vertex -3.88578e-16 3.03109 1.75
    endloop
  endfacet
  facet normal 0 0.997859 0.0654042
    outer loop
      vertex 0.5 3.5 1.11022e-16
      vertex -1.01439e-16 3.47006 0.456841
      vertex 0.5 3.47006 0.456841
    endloop
  endfacet
  facet normal -1.51563e-17 0.997859 0.0654042
    outer loop
      vertex -1.01439e-16 3.47006 0.456841
      vertex 0.5 3.5 1.11022e-16
      vertex 0 3.5 0
    endloop
  endfacet
  facet normal 1.51563e-17 -0.997859 -0.0654042
    outer loop
      vertex 1.01439e-16 -3.47006 -0.456841
      vertex 0.5 -3.5 1.11022e-16
      vertex 0 -3.5 0
    endloop
  endfacet
  facet normal 0 -0.997859 -0.0654042
    outer loop
      vertex 0.5 -3.5 1.11022e-16
      vertex 1.01439e-16 -3.47006 -0.456841
      vertex 0.5 -3.47006 -0.456841
    endloop
  endfacet
  facet normal 0 -0.94693 -0.32144
    outer loop
      vertex 2.97405e-16 -3.23358 -1.33939
      vertex 0.5 -3.38074 -0.905867
      vertex 2.01143e-16 -3.38074 -0.905867
    endloop
  endfacet
  facet normal 0 -0.94693 -0.32144
    outer loop
      vertex 0.5 -3.38074 -0.905867
      vertex 2.97405e-16 -3.23358 -1.33939
      vertex 0.5 -3.23358 -1.33939
    endloop
  endfacet
  facet normal 0 -0.831469 -0.555571
    outer loop
      vertex 4.73103e-16 -2.77674 -2.13066
      vertex 0.5 -3.03109 -1.75
      vertex 3.88578e-16 -3.03109 -1.75
    endloop
  endfacet
  facet normal 0 -0.831469 -0.555571
    outer loop
      vertex 0.5 -3.03109 -1.75
      vertex 4.73103e-16 -2.77674 -2.13066
      vertex 0.5 -2.77674 -2.13066
    endloop
  endfacet
  facet normal 0 -0.32144 -0.94693
    outer loop
      vertex 0.5 -1.33939 -3.23358
      vertex 7.50675e-16 -0.905867 -3.38074
      vertex 0.5 -0.905867 -3.38074
    endloop
  endfacet
  facet normal 0 -0.32144 -0.94693
    outer loop
      vertex 7.50675e-16 -0.905867 -3.38074
      vertex 0.5 -1.33939 -3.23358
      vertex 7.17998e-16 -1.33939 -3.23358
    endloop
  endfacet
  facet normal 0 -0.659346 -0.75184
    outer loop
      vertex 0.5 -2.47487 -2.47487
      vertex 6.16559e-16 -2.13066 -2.77674
      vertex 0.5 -2.13066 -2.77674
    endloop
  endfacet
  facet normal 0 -0.659346 -0.75184
    outer loop
      vertex 6.16559e-16 -2.13066 -2.77674
      vertex 0.5 -2.47487 -2.47487
      vertex 5.49532e-16 -2.47487 -2.47487
    endloop
  endfacet
  facet normal 0 -0.75184 0.659346
    outer loop
      vertex -4.73103e-16 -2.77674 2.13066
      vertex 0.5 -2.47487 2.47487
      vertex -5.49532e-16 -2.47487 2.47487
    endloop
  endfacet
  facet normal 0 -0.75184 0.659346
    outer loop
      vertex 0.5 -2.47487 2.47487
      vertex -4.73103e-16 -2.77674 2.13066
      vertex 0.5 -2.77674 2.13066
    endloop
  endfacet
  facet normal 0 -0.896873 0.442287
    outer loop
      vertex -2.97405e-16 -3.23358 1.33939
      vertex 0.5 -3.03109 1.75
      vertex -3.88578e-16 -3.03109 1.75
    endloop
  endfacet
  facet normal 0 -0.896873 0.442287
    outer loop
      vertex 0.5 -3.03109 1.75
      vertex -2.97405e-16 -3.23358 1.33939
      vertex 0.5 -3.23358 1.33939
    endloop
  endfacet
  facet normal 0 -0.980785 0.19509
    outer loop
      vertex -1.01439e-16 -3.47006 0.456841
      vertex 0.5 -3.38074 0.905867
      vertex -2.01143e-16 -3.38074 0.905867
    endloop
  endfacet
  facet normal 0 -0.980785 0.19509
    outer loop
      vertex 0.5 -3.38074 0.905867
      vertex -1.01439e-16 -3.47006 0.456841
      vertex 0.5 -3.47006 0.456841
    endloop
  endfacet
  facet normal 0 -0.55557 0.83147
    outer loop
      vertex 0.5 -1.75 3.03109
      vertex -6.16559e-16 -2.13066 2.77674
      vertex 0.5 -2.13066 2.77674
    endloop
  endfacet
  facet normal 0 -0.55557 0.83147
    outer loop
      vertex -6.16559e-16 -2.13066 2.77674
      vertex 0.5 -1.75 3.03109
      vertex -6.73037e-16 -1.75 3.03109
    endloop
  endfacet
  facet normal 0 -0.32144 0.94693
    outer loop
      vertex 0.5 -0.905867 3.38074
      vertex -7.17998e-16 -1.33939 3.23358
      vertex 0.5 -1.33939 3.23358
    endloop
  endfacet
  facet normal 0 -0.32144 0.94693
    outer loop
      vertex -7.17998e-16 -1.33939 3.23358
      vertex 0.5 -0.905867 3.38074
      vertex -7.50675e-16 -0.905867 3.38074
    endloop
  endfacet
  facet normal 0 -0.0654042 0.997859
    outer loop
      vertex 0.5 0 3.5
      vertex -7.70507e-16 -0.456841 3.47006
      vertex 0.5 -0.456841 3.47006
    endloop
  endfacet
  facet normal 0 -0.0654042 0.997859
    outer loop
      vertex -7.70507e-16 -0.456841 3.47006
      vertex 0.5 0 3.5
      vertex -7.77156e-16 0 3.5
    endloop
  endfacet
  facet normal 0 -0.980785 -0.19509
    outer loop
      vertex 2.01143e-16 -3.38074 -0.905867
      vertex 0.5 -3.47006 -0.456841
      vertex 1.01439e-16 -3.47006 -0.456841
    endloop
  endfacet
  facet normal 0 -0.980785 -0.19509
    outer loop
      vertex 0.5 -3.47006 -0.456841
      vertex 2.01143e-16 -3.38074 -0.905867
      vertex 0.5 -3.38074 -0.905867
    endloop
  endfacet
  facet normal 0 -0.75184 -0.659346
    outer loop
      vertex 5.49532e-16 -2.47487 -2.47487
      vertex 0.5 -2.77674 -2.13066
      vertex 4.73103e-16 -2.77674 -2.13066
    endloop
  endfacet
  facet normal 0 -0.75184 -0.659346
    outer loop
      vertex 0.5 -2.77674 -2.13066
      vertex 5.49532e-16 -2.47487 -2.47487
      vertex 0.5 -2.47487 -2.47487
    endloop
  endfacet
  facet normal 0 -0.442287 -0.896873
    outer loop
      vertex 0.5 -1.75 -3.03109
      vertex 7.17998e-16 -1.33939 -3.23358
      vertex 0.5 -1.33939 -3.23358
    endloop
  endfacet
  facet normal 0 -0.442287 -0.896873
    outer loop
      vertex 7.17998e-16 -1.33939 -3.23358
      vertex 0.5 -1.75 -3.03109
      vertex 6.73037e-16 -1.75 -3.03109
    endloop
  endfacet
  facet normal 0 -0.19509 -0.980785
    outer loop
      vertex 0.5 -0.905867 -3.38074
      vertex 7.70507e-16 -0.456841 -3.47006
      vertex 0.5 -0.456841 -3.47006
    endloop
  endfacet
  facet normal 0 -0.19509 -0.980785
    outer loop
      vertex 7.70507e-16 -0.456841 -3.47006
      vertex 0.5 -0.905867 -3.38074
      vertex 7.50675e-16 -0.905867 -3.38074
    endloop
  endfacet
  facet normal 0 -0.831469 0.555571
    outer loop
      vertex -3.88578e-16 -3.03109 1.75
      vertex 0.5 -2.77674 2.13066
      vertex -4.73103e-16 -2.77674 2.13066
    endloop
  endfacet
  facet normal 0 -0.831469 0.555571
    outer loop
      vertex 0.5 -2.77674 2.13066
      vertex -3.88578e-16 -3.03109 1.75
      vertex 0.5 -3.03109 1.75
    endloop
  endfacet
  facet normal 0 -0.997859 0.0654042
    outer loop
      vertex -1.01439e-16 -3.47006 0.456841
      vertex 0.5 -3.5 1.11022e-16
      vertex 0.5 -3.47006 0.456841
    endloop
  endfacet
  facet normal -1.45227e-17 -0.997859 0.0654042
    outer loop
      vertex 0.5 -3.5 1.11022e-16
      vertex -1.01439e-16 -3.47006 0.456841
      vertex 0 -3.5 0
    endloop
  endfacet
  facet normal 0 -0.19509 0.980785
    outer loop
      vertex 0.5 -0.456841 3.47006
      vertex -7.50675e-16 -0.905867 3.38074
      vertex 0.5 -0.905867 3.38074
    endloop
  endfacet
  facet normal 0 -0.19509 0.980785
    outer loop
      vertex -7.50675e-16 -0.905867 3.38074
      vertex 0.5 -0.456841 3.47006
      vertex -7.70507e-16 -0.456841 3.47006
    endloop
  endfacet
  facet normal 0 -0.555571 -0.831469
    outer loop
      vertex 0.5 -2.13066 -2.77674
      vertex 6.73037e-16 -1.75 -3.03109
      vertex 0.5 -1.75 -3.03109
    endloop
  endfacet
  facet normal 0 -0.555571 -0.831469
    outer loop
      vertex 6.73037e-16 -1.75 -3.03109
      vertex 0.5 -2.13066 -2.77674
      vertex 6.16559e-16 -2.13066 -2.77674
    endloop
  endfacet
  facet normal 0 -0.0654042 -0.997859
    outer loop
      vertex 0.5 -0.456841 -3.47006
      vertex 7.77156e-16 0 -3.5
      vertex 0.5 0 -3.5
    endloop
  endfacet
  facet normal 0 -0.0654042 -0.997859
    outer loop
      vertex 7.77156e-16 0 -3.5
      vertex 0.5 -0.456841 -3.47006
      vertex 7.70507e-16 -0.456841 -3.47006
    endloop
  endfacet
  facet normal 0 -0.0654027 0.997859
    outer loop
      vertex 0.5 0.208841 -1.58631
      vertex 3.55271e-16 0 -1.6
      vertex 0.5 0 -1.6
    endloop
  endfacet
  facet normal 0 -0.0654027 0.997859
    outer loop
      vertex 3.55271e-16 0 -1.6
      vertex 0.5 0.208841 -1.58631
      vertex 3.52232e-16 0.208841 -1.58631
    endloop
  endfacet
  facet normal 0 -0.0654027 -0.997859
    outer loop
      vertex 0.5 0 1.6
      vertex -3.52232e-16 0.208841 1.58631
      vertex 0.5 0.208841 1.58631
    endloop
  endfacet
  facet normal 0 -0.0654027 -0.997859
    outer loop
      vertex -3.52232e-16 0.208841 1.58631
      vertex 0.5 0 1.6
      vertex -3.55271e-16 0 1.6
    endloop
  endfacet
  facet normal 0 -0.997859 -0.0654027
    outer loop
      vertex -4.63721e-17 1.58631 0.208841
      vertex 0.5 1.6 1.11022e-16
      vertex 0.5 1.58631 0.208841
    endloop
  endfacet
  facet normal 1.45223e-17 -0.997859 -0.0654027
    outer loop
      vertex 0.5 1.6 1.11022e-16
      vertex -4.63721e-17 1.58631 0.208841
      vertex 0 1.6 0
    endloop
  endfacet
  facet normal -1.65773e-17 0.997859 0.0654027
    outer loop
      vertex 0.5 -1.58631 -0.208841
      vertex 0 -1.6 0
      vertex 0.5 -1.6 1.11022e-16
    endloop
  endfacet
  facet normal 0 0.997859 0.0654027
    outer loop
      vertex 0 -1.6 0
      vertex 0.5 -1.58631 -0.208841
      vertex 4.63721e-17 -1.58631 -0.208841
    endloop
  endfacet
  facet normal -0 0.659347 0.751839
    outer loop
      vertex 2.81856e-16 -0.974018 -1.26937
      vertex 0.5 -1.13137 -1.13137
      vertex 0.5 -0.974018 -1.26937
    endloop
  endfacet
  facet normal 0 0.659347 0.751839
    outer loop
      vertex 0.5 -1.13137 -1.13137
      vertex 2.81856e-16 -0.974018 -1.26937
      vertex 2.51215e-16 -1.13137 -1.13137
    endloop
  endfacet
  facet normal 0 -0.751839 0.659347
    outer loop
      vertex 2.51215e-16 1.13137 -1.13137
      vertex 0.5 1.26937 -0.974018
      vertex 2.16275e-16 1.26937 -0.974018
    endloop
  endfacet
  facet normal 0 -0.751839 0.659347
    outer loop
      vertex 0.5 1.26937 -0.974018
      vertex 2.51215e-16 1.13137 -1.13137
      vertex 0.5 1.13137 -1.13137
    endloop
  endfacet
  facet normal 0 -0.659347 -0.751839
    outer loop
      vertex 0.5 0.974018 1.26937
      vertex -2.51215e-16 1.13137 1.13137
      vertex 0.5 1.13137 1.13137
    endloop
  endfacet
  facet normal 0 -0.659347 -0.751839
    outer loop
      vertex -2.51215e-16 1.13137 1.13137
      vertex 0.5 0.974018 1.26937
      vertex -2.81856e-16 0.974018 1.26937
    endloop
  endfacet
  facet normal 0 -0.896872 -0.442289
    outer loop
      vertex -1.35956e-16 1.47821 0.612293
      vertex 0.5 1.38564 0.799999
      vertex -1.77636e-16 1.38564 0.799999
    endloop
  endfacet
  facet normal 0 -0.896872 -0.442289
    outer loop
      vertex 0.5 1.38564 0.799999
      vertex -1.35956e-16 1.47821 0.612293
      vertex 0.5 1.47821 0.612293
    endloop
  endfacet
  facet normal 0 -0.442289 0.896872
    outer loop
      vertex 0.5 0.799999 -1.38564
      vertex 3.28228e-16 0.612293 -1.47821
      vertex 0.5 0.612293 -1.47821
    endloop
  endfacet
  facet normal 0 -0.442289 0.896872
    outer loop
      vertex 3.28228e-16 0.612293 -1.47821
      vertex 0.5 0.799999 -1.38564
      vertex 3.07674e-16 0.799999 -1.38564
    endloop
  endfacet
  facet normal 0 -0.555567 0.831471
    outer loop
      vertex 0.5 0.974018 -1.26937
      vertex 3.07674e-16 0.799999 -1.38564
      vertex 0.5 0.799999 -1.38564
    endloop
  endfacet
  facet normal 0 -0.555567 0.831471
    outer loop
      vertex 3.07674e-16 0.799999 -1.38564
      vertex 0.5 0.974018 -1.26937
      vertex 2.81856e-16 0.974018 -1.26937
    endloop
  endfacet
  facet normal 0 -0.94693 0.32144
    outer loop
      vertex 1.35956e-16 1.47821 -0.612293
      vertex 0.5 1.54548 -0.41411
      vertex 9.19509e-17 1.54548 -0.41411
    endloop
  endfacet
  facet normal 0 -0.94693 0.32144
    outer loop
      vertex 0.5 1.54548 -0.41411
      vertex 1.35956e-16 1.47821 -0.612293
      vertex 0.5 1.47821 -0.612293
    endloop
  endfacet
  facet normal 0 -0.980785 0.195091
    outer loop
      vertex 9.19509e-17 1.54548 -0.41411
      vertex 0.5 1.58631 -0.208841
      vertex 4.63721e-17 1.58631 -0.208841
    endloop
  endfacet
  facet normal 0 -0.980785 0.195091
    outer loop
      vertex 0.5 1.58631 -0.208841
      vertex 9.19509e-17 1.54548 -0.41411
      vertex 0.5 1.54548 -0.41411
    endloop
  endfacet
  facet normal 0 -0.896872 0.442289
    outer loop
      vertex 1.77636e-16 1.38564 -0.799999
      vertex 0.5 1.47821 -0.612293
      vertex 1.35956e-16 1.47821 -0.612293
    endloop
  endfacet
  facet normal 0 -0.896872 0.442289
    outer loop
      vertex 0.5 1.47821 -0.612293
      vertex 1.77636e-16 1.38564 -0.799999
      vertex 0.5 1.38564 -0.799999
    endloop
  endfacet
  facet normal 0 -0.32144 -0.94693
    outer loop
      vertex 0.5 0.41411 1.54548
      vertex -3.28228e-16 0.612293 1.47821
      vertex 0.5 0.612293 1.47821
    endloop
  endfacet
  facet normal 0 -0.32144 -0.94693
    outer loop
      vertex -3.28228e-16 0.612293 1.47821
      vertex 0.5 0.41411 1.54548
      vertex -3.43166e-16 0.41411 1.54548
    endloop
  endfacet
  facet normal 0 -0.442289 -0.896872
    outer loop
      vertex 0.5 0.612293 1.47821
      vertex -3.07674e-16 0.799999 1.38564
      vertex 0.5 0.799999 1.38564
    endloop
  endfacet
  facet normal 0 -0.442289 -0.896872
    outer loop
      vertex -3.07674e-16 0.799999 1.38564
      vertex 0.5 0.612293 1.47821
      vertex -3.28228e-16 0.612293 1.47821
    endloop
  endfacet
  facet normal 0 -0.195091 -0.980785
    outer loop
      vertex 0.5 0.208841 1.58631
      vertex -3.43166e-16 0.41411 1.54548
      vertex 0.5 0.41411 1.54548
    endloop
  endfacet
  facet normal 0 -0.195091 -0.980785
    outer loop
      vertex -3.43166e-16 0.41411 1.54548
      vertex 0.5 0.208841 1.58631
      vertex -3.52232e-16 0.208841 1.58631
    endloop
  endfacet
  facet normal 0 -0.831471 -0.555567
    outer loop
      vertex -1.77636e-16 1.38564 0.799999
      vertex 0.5 1.26937 0.974018
      vertex -2.16275e-16 1.26937 0.974018
    endloop
  endfacet
  facet normal 0 -0.831471 -0.555567
    outer loop
      vertex 0.5 1.26937 0.974018
      vertex -1.77636e-16 1.38564 0.799999
      vertex 0.5 1.38564 0.799999
    endloop
  endfacet
  facet normal 0 -0.94693 -0.32144
    outer loop
      vertex -9.19509e-17 1.54548 0.41411
      vertex 0.5 1.47821 0.612293
      vertex -1.35956e-16 1.47821 0.612293
    endloop
  endfacet
  facet normal 0 -0.94693 -0.32144
    outer loop
      vertex 0.5 1.47821 0.612293
      vertex -9.19509e-17 1.54548 0.41411
      vertex 0.5 1.54548 0.41411
    endloop
  endfacet
  facet normal 0 0.980785 0.195091
    outer loop
      vertex 0.5 -1.54548 -0.41411
      vertex 4.63721e-17 -1.58631 -0.208841
      vertex 0.5 -1.58631 -0.208841
    endloop
  endfacet
  facet normal 0 0.980785 0.195091
    outer loop
      vertex 4.63721e-17 -1.58631 -0.208841
      vertex 0.5 -1.54548 -0.41411
      vertex 9.19509e-17 -1.54548 -0.41411
    endloop
  endfacet
  facet normal 0 -0.32144 0.94693
    outer loop
      vertex 0.5 0.612293 -1.47821
      vertex 3.43166e-16 0.41411 -1.54548
      vertex 0.5 0.41411 -1.54548
    endloop
  endfacet
  facet normal 0 -0.32144 0.94693
    outer loop
      vertex 3.43166e-16 0.41411 -1.54548
      vertex 0.5 0.612293 -1.47821
      vertex 3.28228e-16 0.612293 -1.47821
    endloop
  endfacet
  facet normal 0 -0.195091 0.980785
    outer loop
      vertex 0.5 0.41411 -1.54548
      vertex 3.52232e-16 0.208841 -1.58631
      vertex 0.5 0.208841 -1.58631
    endloop
  endfacet
  facet normal 0 -0.195091 0.980785
    outer loop
      vertex 3.52232e-16 0.208841 -1.58631
      vertex 0.5 0.41411 -1.54548
      vertex 3.43166e-16 0.41411 -1.54548
    endloop
  endfacet
  facet normal 0 -0.659347 0.751839
    outer loop
      vertex 0.5 1.13137 -1.13137
      vertex 2.81856e-16 0.974018 -1.26937
      vertex 0.5 0.974018 -1.26937
    endloop
  endfacet
  facet normal 0 -0.659347 0.751839
    outer loop
      vertex 2.81856e-16 0.974018 -1.26937
      vertex 0.5 1.13137 -1.13137
      vertex 2.51215e-16 1.13137 -1.13137
    endloop
  endfacet
  facet normal -1.65773e-17 -0.997859 0.0654027
    outer loop
      vertex 4.63721e-17 1.58631 -0.208841
      vertex 0.5 1.6 1.11022e-16
      vertex 0 1.6 0
    endloop
  endfacet
  facet normal 0 -0.997859 0.0654027
    outer loop
      vertex 0.5 1.6 1.11022e-16
      vertex 4.63721e-17 1.58631 -0.208841
      vertex 0.5 1.58631 -0.208841
    endloop
  endfacet
  facet normal 0 -0.831471 0.555567
    outer loop
      vertex 2.16275e-16 1.26937 -0.974018
      vertex 0.5 1.38564 -0.799999
      vertex 1.77636e-16 1.38564 -0.799999
    endloop
  endfacet
  facet normal 0 -0.831471 0.555567
    outer loop
      vertex 0.5 1.38564 -0.799999
      vertex 2.16275e-16 1.26937 -0.974018
      vertex 0.5 1.26937 -0.974018
    endloop
  endfacet
  facet normal 0 -0.555567 -0.831471
    outer loop
      vertex 0.5 0.799999 1.38564
      vertex -2.81856e-16 0.974018 1.26937
      vertex 0.5 0.974018 1.26937
    endloop
  endfacet
  facet normal 0 -0.555567 -0.831471
    outer loop
      vertex -2.81856e-16 0.974018 1.26937
      vertex 0.5 0.799999 1.38564
      vertex -3.07674e-16 0.799999 1.38564
    endloop
  endfacet
  facet normal 0 -0.751839 -0.659347
    outer loop
      vertex -2.16275e-16 1.26937 0.974018
      vertex 0.5 1.13137 1.13137
      vertex -2.51215e-16 1.13137 1.13137
    endloop
  endfacet
  facet normal 0 -0.751839 -0.659347
    outer loop
      vertex 0.5 1.13137 1.13137
      vertex -2.16275e-16 1.26937 0.974018
      vertex 0.5 1.26937 0.974018
    endloop
  endfacet
  facet normal 0 -0.980785 -0.195091
    outer loop
      vertex -4.63721e-17 1.58631 0.208841
      vertex 0.5 1.54548 0.41411
      vertex -9.19509e-17 1.54548 0.41411
    endloop
  endfacet
  facet normal 0 -0.980785 -0.195091
    outer loop
      vertex 0.5 1.54548 0.41411
      vertex -4.63721e-17 1.58631 0.208841
      vertex 0.5 1.58631 0.208841
    endloop
  endfacet
  facet normal -0 0.0654027 0.997859
    outer loop
      vertex 3.55271e-16 0 -1.6
      vertex 0.5 -0.208841 -1.58631
      vertex 0.5 0 -1.6
    endloop
  endfacet
  facet normal 0 0.0654027 0.997859
    outer loop
      vertex 0.5 -0.208841 -1.58631
      vertex 3.55271e-16 0 -1.6
      vertex 3.52232e-16 -0.208841 -1.58631
    endloop
  endfacet
  facet normal -0 0.32144 0.94693
    outer loop
      vertex 3.43166e-16 -0.41411 -1.54548
      vertex 0.5 -0.612293 -1.47821
      vertex 0.5 -0.41411 -1.54548
    endloop
  endfacet
  facet normal 0 0.32144 0.94693
    outer loop
      vertex 0.5 -0.612293 -1.47821
      vertex 3.43166e-16 -0.41411 -1.54548
      vertex 3.28228e-16 -0.612293 -1.47821
    endloop
  endfacet
  facet normal -0 0.195091 0.980785
    outer loop
      vertex 3.52232e-16 -0.208841 -1.58631
      vertex 0.5 -0.41411 -1.54548
      vertex 0.5 -0.208841 -1.58631
    endloop
  endfacet
  facet normal 0 0.195091 0.980785
    outer loop
      vertex 0.5 -0.41411 -1.54548
      vertex 3.52232e-16 -0.208841 -1.58631
      vertex 3.43166e-16 -0.41411 -1.54548
    endloop
  endfacet
  facet normal 0 0.0654027 -0.997859
    outer loop
      vertex -3.52232e-16 -0.208841 1.58631
      vertex 0.5 0 1.6
      vertex 0.5 -0.208841 1.58631
    endloop
  endfacet
  facet normal 0 0.0654027 -0.997859
    outer loop
      vertex 0.5 0 1.6
      vertex -3.52232e-16 -0.208841 1.58631
      vertex -3.55271e-16 0 1.6
    endloop
  endfacet
  facet normal 0 0.831471 0.555567
    outer loop
      vertex 0.5 -1.26937 -0.974018
      vertex 1.77636e-16 -1.38564 -0.799999
      vertex 0.5 -1.38564 -0.799999
    endloop
  endfacet
  facet normal 0 0.831471 0.555567
    outer loop
      vertex 1.77636e-16 -1.38564 -0.799999
      vertex 0.5 -1.26937 -0.974018
      vertex 2.16275e-16 -1.26937 -0.974018
    endloop
  endfacet
  facet normal 0 0.896872 0.442289
    outer loop
      vertex 0.5 -1.38564 -0.799999
      vertex 1.35956e-16 -1.47821 -0.612293
      vertex 0.5 -1.47821 -0.612293
    endloop
  endfacet
  facet normal 0 0.896872 0.442289
    outer loop
      vertex 1.35956e-16 -1.47821 -0.612293
      vertex 0.5 -1.38564 -0.799999
      vertex 1.77636e-16 -1.38564 -0.799999
    endloop
  endfacet
  facet normal 0 0.94693 -0.32144
    outer loop
      vertex 0.5 -1.54548 0.41411
      vertex -1.35956e-16 -1.47821 0.612293
      vertex 0.5 -1.47821 0.612293
    endloop
  endfacet
  facet normal 0 0.94693 -0.32144
    outer loop
      vertex -1.35956e-16 -1.47821 0.612293
      vertex 0.5 -1.54548 0.41411
      vertex -9.19509e-17 -1.54548 0.41411
    endloop
  endfacet
  facet normal 0 0.659347 -0.751839
    outer loop
      vertex -2.51215e-16 -1.13137 1.13137
      vertex 0.5 -0.974018 1.26937
      vertex 0.5 -1.13137 1.13137
    endloop
  endfacet
  facet normal 0 0.659347 -0.751839
    outer loop
      vertex 0.5 -0.974018 1.26937
      vertex -2.51215e-16 -1.13137 1.13137
      vertex -2.81856e-16 -0.974018 1.26937
    endloop
  endfacet
  facet normal 0 0.195091 -0.980785
    outer loop
      vertex -3.43166e-16 -0.41411 1.54548
      vertex 0.5 -0.208841 1.58631
      vertex 0.5 -0.41411 1.54548
    endloop
  endfacet
  facet normal 0 0.195091 -0.980785
    outer loop
      vertex 0.5 -0.208841 1.58631
      vertex -3.43166e-16 -0.41411 1.54548
      vertex -3.52232e-16 -0.208841 1.58631
    endloop
  endfacet
  facet normal 0 0.32144 -0.94693
    outer loop
      vertex -3.28228e-16 -0.612293 1.47821
      vertex 0.5 -0.41411 1.54548
      vertex 0.5 -0.612293 1.47821
    endloop
  endfacet
  facet normal 0 0.32144 -0.94693
    outer loop
      vertex 0.5 -0.41411 1.54548
      vertex -3.28228e-16 -0.612293 1.47821
      vertex -3.43166e-16 -0.41411 1.54548
    endloop
  endfacet
  facet normal 0 0.751839 0.659347
    outer loop
      vertex 0.5 -1.13137 -1.13137
      vertex 2.16275e-16 -1.26937 -0.974018
      vertex 0.5 -1.26937 -0.974018
    endloop
  endfacet
  facet normal 0 0.751839 0.659347
    outer loop
      vertex 2.16275e-16 -1.26937 -0.974018
      vertex 0.5 -1.13137 -1.13137
      vertex 2.51215e-16 -1.13137 -1.13137
    endloop
  endfacet
  facet normal 0 0.94693 0.32144
    outer loop
      vertex 0.5 -1.47821 -0.612293
      vertex 9.19509e-17 -1.54548 -0.41411
      vertex 0.5 -1.54548 -0.41411
    endloop
  endfacet
  facet normal 0 0.94693 0.32144
    outer loop
      vertex 9.19509e-17 -1.54548 -0.41411
      vertex 0.5 -1.47821 -0.612293
      vertex 1.35956e-16 -1.47821 -0.612293
    endloop
  endfacet
  facet normal -0 0.442289 0.896872
    outer loop
      vertex 3.28228e-16 -0.612293 -1.47821
      vertex 0.5 -0.799999 -1.38564
      vertex 0.5 -0.612293 -1.47821
    endloop
  endfacet
  facet normal 0 0.442289 0.896872
    outer loop
      vertex 0.5 -0.799999 -1.38564
      vertex 3.28228e-16 -0.612293 -1.47821
      vertex 3.07674e-16 -0.799999 -1.38564
    endloop
  endfacet
  facet normal -0 0.555567 0.831471
    outer loop
      vertex 3.07674e-16 -0.799999 -1.38564
      vertex 0.5 -0.974018 -1.26937
      vertex 0.5 -0.799999 -1.38564
    endloop
  endfacet
  facet normal 0 0.555567 0.831471
    outer loop
      vertex 0.5 -0.974018 -1.26937
      vertex 3.07674e-16 -0.799999 -1.38564
      vertex 2.81856e-16 -0.974018 -1.26937
    endloop
  endfacet
  facet normal 0 0.831471 -0.555567
    outer loop
      vertex 0.5 -1.38564 0.799999
      vertex -2.16275e-16 -1.26937 0.974018
      vertex 0.5 -1.26937 0.974018
    endloop
  endfacet
  facet normal 0 0.831471 -0.555567
    outer loop
      vertex -2.16275e-16 -1.26937 0.974018
      vertex 0.5 -1.38564 0.799999
      vertex -1.77636e-16 -1.38564 0.799999
    endloop
  endfacet
  facet normal 0 0.980785 -0.195091
    outer loop
      vertex 0.5 -1.58631 0.208841
      vertex -9.19509e-17 -1.54548 0.41411
      vertex 0.5 -1.54548 0.41411
    endloop
  endfacet
  facet normal 0 0.980785 -0.195091
    outer loop
      vertex -9.19509e-17 -1.54548 0.41411
      vertex 0.5 -1.58631 0.208841
      vertex -4.63721e-17 -1.58631 0.208841
    endloop
  endfacet
  facet normal 0 0.751839 -0.659347
    outer loop
      vertex 0.5 -1.26937 0.974018
      vertex -2.51215e-16 -1.13137 1.13137
      vertex 0.5 -1.13137 1.13137
    endloop
  endfacet
  facet normal 0 0.751839 -0.659347
    outer loop
      vertex -2.51215e-16 -1.13137 1.13137
      vertex 0.5 -1.26937 0.974018
      vertex -2.16275e-16 -1.26937 0.974018
    endloop
  endfacet
  facet normal 0 0.555567 -0.831471
    outer loop
      vertex -2.81856e-16 -0.974018 1.26937
      vertex 0.5 -0.799999 1.38564
      vertex 0.5 -0.974018 1.26937
    endloop
  endfacet
  facet normal 0 0.555567 -0.831471
    outer loop
      vertex 0.5 -0.799999 1.38564
      vertex -2.81856e-16 -0.974018 1.26937
      vertex -3.07674e-16 -0.799999 1.38564
    endloop
  endfacet
  facet normal 0 0.442289 -0.896872
    outer loop
      vertex -3.07674e-16 -0.799999 1.38564
      vertex 0.5 -0.612293 1.47821
      vertex 0.5 -0.799999 1.38564
    endloop
  endfacet
  facet normal 0 0.442289 -0.896872
    outer loop
      vertex 0.5 -0.612293 1.47821
      vertex -3.07674e-16 -0.799999 1.38564
      vertex -3.28228e-16 -0.612293 1.47821
    endloop
  endfacet
  facet normal 0 0.896872 -0.442289
    outer loop
      vertex 0.5 -1.47821 0.612293
      vertex -1.77636e-16 -1.38564 0.799999
      vertex 0.5 -1.38564 0.799999
    endloop
  endfacet
  facet normal 0 0.896872 -0.442289
    outer loop
      vertex -1.77636e-16 -1.38564 0.799999
      vertex 0.5 -1.47821 0.612293
      vertex -1.35956e-16 -1.47821 0.612293
    endloop
  endfacet
  facet normal 0 0.997859 -0.0654027
    outer loop
      vertex 0.5 -1.6 1.11022e-16
      vertex -4.63721e-17 -1.58631 0.208841
      vertex 0.5 -1.58631 0.208841
    endloop
  endfacet
  facet normal 1.65773e-17 0.997859 -0.0654027
    outer loop
      vertex -4.63721e-17 -1.58631 0.208841
      vertex 0.5 -1.6 1.11022e-16
      vertex 0 -1.6 0
    endloop
  endfacet
endsolid OpenSCAD_Model
