solid OpenSCAD_Model
  facet normal 0 0.0654045 -0.997859
    outer loop
      vertex 9.99201e-16 0 -4.5
      vertex 0.799999 0.587367 -4.4615
      vertex 0.799999 0 -4.5
    endloop
  endfacet
  facet normal 0 0.0654045 -0.997859
    outer loop
      vertex 0.799999 0.587367 -4.4615
      vertex 9.99201e-16 0 -4.5
      vertex 9.90652e-16 0.587367 -4.4615
    endloop
  endfacet
  facet normal -0 0.0654045 0.997859
    outer loop
      vertex -9.90652e-16 0.587367 4.4615
      vertex 0.799999 0 4.5
      vertex 0.799999 0.587367 4.4615
    endloop
  endfacet
  facet normal 0 0.0654045 0.997859
    outer loop
      vertex 0.799999 0 4.5
      vertex -9.90652e-16 0.587367 4.4615
      vertex -9.99201e-16 0 4.5
    endloop
  endfacet
  facet normal 1.47353e-17 0.997859 -0.0654045
    outer loop
      vertex 0.799999 4.4615 -0.587367
      vertex 0 4.5 0
      vertex 0.799999 4.5 1.77636e-16
    endloop
  endfacet
  facet normal 0 0.997859 -0.0654045
    outer loop
      vertex 0 4.5 0
      vertex 0.799999 4.4615 -0.587367
      vertex 1.30422e-16 4.4615 -0.587367
    endloop
  endfacet
  facet normal 0 0.659345 -0.75184
    outer loop
      vertex 7.92719e-16 2.73943 -3.57009
      vertex 0.799999 3.18198 -3.18198
      vertex 0.799999 2.73943 -3.57009
    endloop
  endfacet
  facet normal 0 0.659345 -0.75184
    outer loop
      vertex 0.799999 3.18198 -3.18198
      vertex 7.92719e-16 2.73943 -3.57009
      vertex 7.06542e-16 3.18198 -3.18198
    endloop
  endfacet
  facet normal 0 0.75184 0.659345
    outer loop
      vertex 0.799999 3.57009 2.73943
      vertex -7.06542e-16 3.18198 3.18198
      vertex 0.799999 3.18198 3.18198
    endloop
  endfacet
  facet normal 0 0.75184 0.659345
    outer loop
      vertex -7.06542e-16 3.18198 3.18198
      vertex 0.799999 3.57009 2.73943
      vertex -6.08275e-16 3.57009 2.73943
    endloop
  endfacet
  facet normal 0 0.94693 0.321439
    outer loop
      vertex 0.799999 4.34667 1.16469
      vertex -3.82377e-16 4.15746 1.72207
      vertex 0.799999 4.15746 1.72207
    endloop
  endfacet
  facet normal 0 0.94693 0.321439
    outer loop
      vertex -3.82377e-16 4.15746 1.72207
      vertex 0.799999 4.34667 1.16469
      vertex -2.58612e-16 4.34667 1.16469
    endloop
  endfacet
  facet normal 0 0.321439 -0.94693
    outer loop
      vertex 9.65154e-16 1.16469 -4.34667
      vertex 0.799999 1.72207 -4.15746
      vertex 0.799999 1.16469 -4.34667
    endloop
  endfacet
  facet normal 0 0.321439 -0.94693
    outer loop
      vertex 0.799999 1.72207 -4.15746
      vertex 9.65154e-16 1.16469 -4.34667
      vertex 9.23141e-16 1.72207 -4.15746
    endloop
  endfacet
  facet normal 0 0.19509 -0.980785
    outer loop
      vertex 9.90652e-16 0.587367 -4.4615
      vertex 0.799999 1.16469 -4.34667
      vertex 0.799999 0.587367 -4.4615
    endloop
  endfacet
  facet normal 0 0.19509 -0.980785
    outer loop
      vertex 0.799999 1.16469 -4.34667
      vertex 9.90652e-16 0.587367 -4.4615
      vertex 9.65154e-16 1.16469 -4.34667
    endloop
  endfacet
  facet normal 0 0.442289 -0.896873
    outer loop
      vertex 9.23141e-16 1.72207 -4.15746
      vertex 0.799999 2.25 -3.89711
      vertex 0.799999 1.72207 -4.15746
    endloop
  endfacet
  facet normal 0 0.442289 -0.896873
    outer loop
      vertex 0.799999 2.25 -3.89711
      vertex 9.23141e-16 1.72207 -4.15746
      vertex 8.65333e-16 2.25 -3.89711
    endloop
  endfacet
  facet normal 0 0.896873 -0.442288
    outer loop
      vertex 0.799999 3.89711 -2.25
      vertex 3.82377e-16 4.15746 -1.72207
      vertex 0.799999 4.15746 -1.72207
    endloop
  endfacet
  facet normal 0 0.896873 -0.442288
    outer loop
      vertex 3.82377e-16 4.15746 -1.72207
      vertex 0.799999 3.89711 -2.25
      vertex 4.996e-16 3.89711 -2.25
    endloop
  endfacet
  facet normal 0 0.94693 -0.321439
    outer loop
      vertex 0.799999 4.15746 -1.72207
      vertex 2.58612e-16 4.34667 -1.16469
      vertex 0.799999 4.34667 -1.16469
    endloop
  endfacet
  facet normal 0 0.94693 -0.321439
    outer loop
      vertex 2.58612e-16 4.34667 -1.16469
      vertex 0.799999 4.15746 -1.72207
      vertex 3.82377e-16 4.15746 -1.72207
    endloop
  endfacet
  facet normal 0 0.831469 -0.555571
    outer loop
      vertex 0.799999 3.57009 -2.73943
      vertex 4.996e-16 3.89711 -2.25
      vertex 0.799999 3.89711 -2.25
    endloop
  endfacet
  facet normal 0 0.831469 -0.555571
    outer loop
      vertex 4.996e-16 3.89711 -2.25
      vertex 0.799999 3.57009 -2.73943
      vertex 6.08275e-16 3.57009 -2.73943
    endloop
  endfacet
  facet normal -0 0.442289 0.896873
    outer loop
      vertex -8.65333e-16 2.25 3.89711
      vertex 0.799999 1.72207 4.15746
      vertex 0.799999 2.25 3.89711
    endloop
  endfacet
  facet normal 0 0.442289 0.896873
    outer loop
      vertex 0.799999 1.72207 4.15746
      vertex -8.65333e-16 2.25 3.89711
      vertex -9.23141e-16 1.72207 4.15746
    endloop
  endfacet
  facet normal -0 0.55557 0.83147
    outer loop
      vertex -7.92719e-16 2.73943 3.57009
      vertex 0.799999 2.25 3.89711
      vertex 0.799999 2.73943 3.57009
    endloop
  endfacet
  facet normal 0 0.55557 0.83147
    outer loop
      vertex 0.799999 2.25 3.89711
      vertex -7.92719e-16 2.73943 3.57009
      vertex -8.65333e-16 2.25 3.89711
    endloop
  endfacet
  facet normal -0 0.321439 0.94693
    outer loop
      vertex -9.23141e-16 1.72207 4.15746
      vertex 0.799999 1.16469 4.34667
      vertex 0.799999 1.72207 4.15746
    endloop
  endfacet
  facet normal 0 0.321439 0.94693
    outer loop
      vertex 0.799999 1.16469 4.34667
      vertex -9.23141e-16 1.72207 4.15746
      vertex -9.65154e-16 1.16469 4.34667
    endloop
  endfacet
  facet normal 0 0.896873 0.442289
    outer loop
      vertex 0.799999 4.15746 1.72207
      vertex -4.996e-16 3.89711 2.25
      vertex 0.799999 3.89711 2.25
    endloop
  endfacet
  facet normal 0 0.896873 0.442289
    outer loop
      vertex -4.996e-16 3.89711 2.25
      vertex 0.799999 4.15746 1.72207
      vertex -3.82377e-16 4.15746 1.72207
    endloop
  endfacet
  facet normal 0 0.980785 0.19509
    outer loop
      vertex 0.799999 4.4615 0.587367
      vertex -2.58612e-16 4.34667 1.16469
      vertex 0.799999 4.34667 1.16469
    endloop
  endfacet
  facet normal 0 0.980785 0.19509
    outer loop
      vertex -2.58612e-16 4.34667 1.16469
      vertex 0.799999 4.4615 0.587367
      vertex -1.30422e-16 4.4615 0.587367
    endloop
  endfacet
  facet normal 0 -0.75184 -0.659345
    outer loop
      vertex 7.06542e-16 -3.18198 -3.18198
      vertex 0.799999 -3.57009 -2.73943
      vertex 6.08275e-16 -3.57009 -2.73943
    endloop
  endfacet
  facet normal 0 -0.75184 -0.659345
    outer loop
      vertex 0.799999 -3.57009 -2.73943
      vertex 7.06542e-16 -3.18198 -3.18198
      vertex 0.799999 -3.18198 -3.18198
    endloop
  endfacet
  facet normal 0 -0.896873 -0.442288
    outer loop
      vertex 4.996e-16 -3.89711 -2.25
      vertex 0.799999 -4.15746 -1.72207
      vertex 3.82377e-16 -4.15746 -1.72207
    endloop
  endfacet
  facet normal 0 -0.896873 -0.442288
    outer loop
      vertex 0.799999 -4.15746 -1.72207
      vertex 4.996e-16 -3.89711 -2.25
      vertex 0.799999 -3.89711 -2.25
    endloop
  endfacet
  facet normal 0 -0.321439 -0.94693
    outer loop
      vertex 0.799999 -1.72207 -4.15746
      vertex 9.65154e-16 -1.16469 -4.34667
      vertex 0.799999 -1.16469 -4.34667
    endloop
  endfacet
  facet normal 0 -0.321439 -0.94693
    outer loop
      vertex 9.65154e-16 -1.16469 -4.34667
      vertex 0.799999 -1.72207 -4.15746
      vertex 9.23141e-16 -1.72207 -4.15746
    endloop
  endfacet
  facet normal 0 -0.896873 0.442288
    outer loop
      vertex -3.82377e-16 -4.15746 1.72207
      vertex 0.799999 -3.89711 2.25
      vertex -4.996e-16 -3.89711 2.25
    endloop
  endfacet
  facet normal 0 -0.896873 0.442288
    outer loop
      vertex 0.799999 -3.89711 2.25
      vertex -3.82377e-16 -4.15746 1.72207
      vertex 0.799999 -4.15746 1.72207
    endloop
  endfacet
  facet normal 0 -0.94693 0.321439
    outer loop
      vertex -2.58612e-16 -4.34667 1.16469
      vertex 0.799999 -4.15746 1.72207
      vertex -3.82377e-16 -4.15746 1.72207
    endloop
  endfacet
  facet normal 0 -0.94693 0.321439
    outer loop
      vertex 0.799999 -4.15746 1.72207
      vertex -2.58612e-16 -4.34667 1.16469
      vertex 0.799999 -4.34667 1.16469
    endloop
  endfacet
  facet normal 0 -0.442289 0.896873
    outer loop
      vertex 0.799999 -1.72207 4.15746
      vertex -8.65333e-16 -2.25 3.89711
      vertex 0.799999 -2.25 3.89711
    endloop
  endfacet
  facet normal 0 -0.442289 0.896873
    outer loop
      vertex -8.65333e-16 -2.25 3.89711
      vertex 0.799999 -1.72207 4.15746
      vertex -9.23141e-16 -1.72207 4.15746
    endloop
  endfacet
  facet normal 0 -0.55557 0.83147
    outer loop
      vertex 0.799999 -2.25 3.89711
      vertex -7.92719e-16 -2.73943 3.57009
      vertex 0.799999 -2.73943 3.57009
    endloop
  endfacet
  facet normal 0 -0.55557 0.83147
    outer loop
      vertex -7.92719e-16 -2.73943 3.57009
      vertex 0.799999 -2.25 3.89711
      vertex -8.65333e-16 -2.25 3.89711
    endloop
  endfacet
  facet normal -1 0 -2.22045e-16
    outer loop
      vertex 0 2.15 0
      vertex 0 4.5 0
      vertex 1.30422e-16 4.4615 -0.587367
    endloop
  endfacet
  facet normal -1 0 -2.22045e-16
    outer loop
      vertex 6.23126e-17 2.13161 -0.280631
      vertex 1.30422e-16 4.4615 -0.587367
      vertex 2.58612e-16 4.34667 -1.16469
    endloop
  endfacet
  facet normal -1 -0 -2.22045e-16
    outer loop
      vertex 0 4.5 0
      vertex 0 2.15 0
      vertex -1.30422e-16 4.4615 0.587367
    endloop
  endfacet
  facet normal -1 0 -2.22045e-16
    outer loop
      vertex 1.23559e-16 2.07674 -0.55646
      vertex 2.58612e-16 4.34667 -1.16469
      vertex 3.82377e-16 4.15746 -1.72207
    endloop
  endfacet
  facet normal -1 0 -2.22045e-16
    outer loop
      vertex -6.23126e-17 2.13161 0.280631
      vertex -1.30422e-16 4.4615 0.587367
      vertex 0 2.15 0
    endloop
  endfacet
  facet normal -1 0 -2.22045e-16
    outer loop
      vertex 1.82691e-16 1.98634 -0.822769
      vertex 3.82377e-16 4.15746 -1.72207
      vertex 4.996e-16 3.89711 -2.25
    endloop
  endfacet
  facet normal -1 0 -2.22045e-16
    outer loop
      vertex -1.30422e-16 4.4615 0.587367
      vertex -6.23126e-17 2.13161 0.280631
      vertex -2.58612e-16 4.34667 1.16469
    endloop
  endfacet
  facet normal -1 0 -2.22045e-16
    outer loop
      vertex 2.38698e-16 1.86195 -1.075
      vertex 4.996e-16 3.89711 -2.25
      vertex 6.08275e-16 3.57009 -2.73943
    endloop
  endfacet
  facet normal -1 0 -2.22045e-16
    outer loop
      vertex -1.23559e-16 2.07674 0.55646
      vertex -2.58612e-16 4.34667 1.16469
      vertex -6.23126e-17 2.13161 0.280631
    endloop
  endfacet
  facet normal -1 0 -2.22045e-16
    outer loop
      vertex 2.9062e-16 1.70571 -1.30884
      vertex 6.08275e-16 3.57009 -2.73943
      vertex 7.06542e-16 3.18198 -3.18198
    endloop
  endfacet
  facet normal -1 0 -2.22045e-16
    outer loop
      vertex -2.58612e-16 4.34667 1.16469
      vertex -1.23559e-16 2.07674 0.55646
      vertex -3.82377e-16 4.15746 1.72207
    endloop
  endfacet
  facet normal -1 0 -2.22045e-16
    outer loop
      vertex 3.3757e-16 1.52028 -1.52028
      vertex 7.06542e-16 3.18198 -3.18198
      vertex 7.92719e-16 2.73943 -3.57009
    endloop
  endfacet
  facet normal -1 0 -2.22045e-16
    outer loop
      vertex -1.82691e-16 1.98634 0.822769
      vertex -3.82377e-16 4.15746 1.72207
      vertex -1.23559e-16 2.07674 0.55646
    endloop
  endfacet
  facet normal -1 0 -2.22045e-16
    outer loop
      vertex 3.78744e-16 1.30884 -1.70571
      vertex 7.92719e-16 2.73943 -3.57009
      vertex 8.65333e-16 2.25 -3.89711
    endloop
  endfacet
  facet normal -1 0 -2.22045e-16
    outer loop
      vertex -3.82377e-16 4.15746 1.72207
      vertex -1.82691e-16 1.98634 0.822769
      vertex -4.996e-16 3.89711 2.25
    endloop
  endfacet
  facet normal -1 0 -2.22045e-16
    outer loop
      vertex -2.38698e-16 1.86195 1.075
      vertex -4.996e-16 3.89711 2.25
      vertex -1.82691e-16 1.98634 0.822769
    endloop
  endfacet
  facet normal -1 0 -2.22045e-16
    outer loop
      vertex 1.30422e-16 4.4615 -0.587367
      vertex 6.23126e-17 2.13161 -0.280631
      vertex 0 2.15 0
    endloop
  endfacet
  facet normal -1 0 -2.22045e-16
    outer loop
      vertex 2.58612e-16 4.34667 -1.16469
      vertex 1.23559e-16 2.07674 -0.55646
      vertex 6.23126e-17 2.13161 -0.280631
    endloop
  endfacet
  facet normal -1 0 -2.22045e-16
    outer loop
      vertex 3.82377e-16 4.15746 -1.72207
      vertex 1.82691e-16 1.98634 -0.822769
      vertex 1.23559e-16 2.07674 -0.55646
    endloop
  endfacet
  facet normal -1 0 -2.22045e-16
    outer loop
      vertex 4.996e-16 3.89711 -2.25
      vertex 2.38698e-16 1.86195 -1.075
      vertex 1.82691e-16 1.98634 -0.822769
    endloop
  endfacet
  facet normal -1 0 -2.22045e-16
    outer loop
      vertex 4.13437e-16 1.075 -1.86195
      vertex 8.65333e-16 2.25 -3.89711
      vertex 9.23141e-16 1.72207 -4.15746
    endloop
  endfacet
  facet normal -1 0 -2.22045e-16
    outer loop
      vertex 6.08275e-16 3.57009 -2.73943
      vertex 2.9062e-16 1.70571 -1.30884
      vertex 2.38698e-16 1.86195 -1.075
    endloop
  endfacet
  facet normal -1 0 -2.22045e-16
    outer loop
      vertex 7.06542e-16 3.18198 -3.18198
      vertex 3.3757e-16 1.52028 -1.52028
      vertex 2.9062e-16 1.70571 -1.30884
    endloop
  endfacet
  facet normal -1 0 -2.22045e-16
    outer loop
      vertex 7.92719e-16 2.73943 -3.57009
      vertex 3.78744e-16 1.30884 -1.70571
      vertex 3.3757e-16 1.52028 -1.52028
    endloop
  endfacet
  facet normal -1 0 -2.22045e-16
    outer loop
      vertex 4.41056e-16 0.822769 -1.98634
      vertex 9.23141e-16 1.72207 -4.15746
      vertex 9.65154e-16 1.16469 -4.34667
    endloop
  endfacet
  facet normal -1 0 -2.22045e-16
    outer loop
      vertex 8.65333e-16 2.25 -3.89711
      vertex 4.13437e-16 1.075 -1.86195
      vertex 3.78744e-16 1.30884 -1.70571
    endloop
  endfacet
  facet normal -1 0 -2.22045e-16
    outer loop
      vertex 9.23141e-16 1.72207 -4.15746
      vertex 4.41056e-16 0.822769 -1.98634
      vertex 4.13437e-16 1.075 -1.86195
    endloop
  endfacet
  facet normal -1 0 -2.22045e-16
    outer loop
      vertex 4.61129e-16 0.55646 -2.07674
      vertex 9.65154e-16 1.16469 -4.34667
      vertex 9.90652e-16 0.587367 -4.4615
    endloop
  endfacet
  facet normal -1 0 -2.22045e-16
    outer loop
      vertex 9.65154e-16 1.16469 -4.34667
      vertex 4.61129e-16 0.55646 -2.07674
      vertex 4.41056e-16 0.822769 -1.98634
    endloop
  endfacet
  facet normal -1 0 -2.22045e-16
    outer loop
      vertex 9.90652e-16 0.587367 -4.4615
      vertex 4.73312e-16 0.280631 -2.13161
      vertex 4.61129e-16 0.55646 -2.07674
    endloop
  endfacet
  facet normal -1 0 -2.22045e-16
    outer loop
      vertex 9.99201e-16 0 -4.5
      vertex 4.73312e-16 0.280631 -2.13161
      vertex 9.90652e-16 0.587367 -4.4615
    endloop
  endfacet
  facet normal -1 0 -2.22045e-16
    outer loop
      vertex 9.99201e-16 0 -4.5
      vertex 4.77396e-16 0 -2.15
      vertex 4.73312e-16 0.280631 -2.13161
    endloop
  endfacet
  facet normal -1 0 -2.22045e-16
    outer loop
      vertex 9.99201e-16 0 -4.5
      vertex 4.73312e-16 -0.280631 -2.13161
      vertex 4.77396e-16 0 -2.15
    endloop
  endfacet
  facet normal -1 0 -2.22045e-16
    outer loop
      vertex 9.90652e-16 -0.587367 -4.4615
      vertex 4.73312e-16 -0.280631 -2.13161
      vertex 9.99201e-16 0 -4.5
    endloop
  endfacet
  facet normal -1 0 -2.22045e-16
    outer loop
      vertex 4.73312e-16 -0.280631 -2.13161
      vertex 9.90652e-16 -0.587367 -4.4615
      vertex 4.61129e-16 -0.55646 -2.07674
    endloop
  endfacet
  facet normal -1 0 -2.22045e-16
    outer loop
      vertex 9.65154e-16 -1.16469 -4.34667
      vertex 4.61129e-16 -0.55646 -2.07674
      vertex 9.90652e-16 -0.587367 -4.4615
    endloop
  endfacet
  facet normal -1 0 -2.22045e-16
    outer loop
      vertex 4.61129e-16 -0.55646 -2.07674
      vertex 9.65154e-16 -1.16469 -4.34667
      vertex 4.41056e-16 -0.822769 -1.98634
    endloop
  endfacet
  facet normal -1 0 -2.22045e-16
    outer loop
      vertex 9.23141e-16 -1.72207 -4.15746
      vertex 4.41056e-16 -0.822769 -1.98634
      vertex 9.65154e-16 -1.16469 -4.34667
    endloop
  endfacet
  facet normal -1 0 -2.22045e-16
    outer loop
      vertex 4.41056e-16 -0.822769 -1.98634
      vertex 9.23141e-16 -1.72207 -4.15746
      vertex 4.13437e-16 -1.075 -1.86195
    endloop
  endfacet
  facet normal -1 0 -2.22045e-16
    outer loop
      vertex 8.65333e-16 -2.25 -3.89711
      vertex 4.13437e-16 -1.075 -1.86195
      vertex 9.23141e-16 -1.72207 -4.15746
    endloop
  endfacet
  facet normal -1 0 -2.22045e-16
    outer loop
      vertex 4.13437e-16 -1.075 -1.86195
      vertex 8.65333e-16 -2.25 -3.89711
      vertex 3.78744e-16 -1.30884 -1.70571
    endloop
  endfacet
  facet normal -1 0 -2.22045e-16
    outer loop
      vertex 7.92719e-16 -2.73943 -3.57009
      vertex 3.78744e-16 -1.30884 -1.70571
      vertex 8.65333e-16 -2.25 -3.89711
    endloop
  endfacet
  facet normal -1 0 -2.22045e-16
    outer loop
      vertex 3.78744e-16 -1.30884 -1.70571
      vertex 7.92719e-16 -2.73943 -3.57009
      vertex 3.3757e-16 -1.52028 -1.52028
    endloop
  endfacet
  facet normal -1 0 -2.22045e-16
    outer loop
      vertex 7.06542e-16 -3.18198 -3.18198
      vertex 3.3757e-16 -1.52028 -1.52028
      vertex 7.92719e-16 -2.73943 -3.57009
    endloop
  endfacet
  facet normal -1 0 -2.22045e-16
    outer loop
      vertex 3.3757e-16 -1.52028 -1.52028
      vertex 7.06542e-16 -3.18198 -3.18198
      vertex 2.9062e-16 -1.70571 -1.30884
    endloop
  endfacet
  facet normal -1 0 -2.22045e-16
    outer loop
      vertex 6.08275e-16 -3.57009 -2.73943
      vertex 2.9062e-16 -1.70571 -1.30884
      vertex 7.06542e-16 -3.18198 -3.18198
    endloop
  endfacet
  facet normal -1 0 -2.22045e-16
    outer loop
      vertex 2.9062e-16 -1.70571 -1.30884
      vertex 6.08275e-16 -3.57009 -2.73943
      vertex 2.38698e-16 -1.86195 -1.075
    endloop
  endfacet
  facet normal -1 0 -2.22045e-16
    outer loop
      vertex 4.996e-16 -3.89711 -2.25
      vertex 2.38698e-16 -1.86195 -1.075
      vertex 6.08275e-16 -3.57009 -2.73943
    endloop
  endfacet
  facet normal -1 0 -2.22045e-16
    outer loop
      vertex 2.38698e-16 -1.86195 -1.075
      vertex 4.996e-16 -3.89711 -2.25
      vertex 1.82691e-16 -1.98634 -0.822769
    endloop
  endfacet
  facet normal -1 0 -2.22045e-16
    outer loop
      vertex 3.82377e-16 -4.15746 -1.72207
      vertex 1.82691e-16 -1.98634 -0.822769
      vertex 4.996e-16 -3.89711 -2.25
    endloop
  endfacet
  facet normal -1 0 -2.22045e-16
    outer loop
      vertex 0 -2.15 0
      vertex -7.92719e-16 -2.73943 3.57009
      vertex -8.65333e-16 -2.25 3.89711
    endloop
  endfacet
  facet normal -1 0 -2.22045e-16
    outer loop
      vertex 1.82691e-16 -1.98634 -0.822769
      vertex 3.82377e-16 -4.15746 -1.72207
      vertex 1.23559e-16 -2.07674 -0.55646
    endloop
  endfacet
  facet normal -1 0 -2.22045e-16
    outer loop
      vertex 0 -2.15 0
      vertex -7.06542e-16 -3.18198 3.18198
      vertex -7.92719e-16 -2.73943 3.57009
    endloop
  endfacet
  facet normal -1 0 -2.22045e-16
    outer loop
      vertex 2.58612e-16 -4.34667 -1.16469
      vertex 1.23559e-16 -2.07674 -0.55646
      vertex 3.82377e-16 -4.15746 -1.72207
    endloop
  endfacet
  facet normal -1 0 -2.22045e-16
    outer loop
      vertex 0 -2.15 0
      vertex -6.08275e-16 -3.57009 2.73943
      vertex -7.06542e-16 -3.18198 3.18198
    endloop
  endfacet
  facet normal -1 0 -2.22045e-16
    outer loop
      vertex 1.23559e-16 -2.07674 -0.55646
      vertex 2.58612e-16 -4.34667 -1.16469
      vertex 6.23126e-17 -2.13161 -0.280631
    endloop
  endfacet
  facet normal -1 0 -2.22045e-16
    outer loop
      vertex 0 -2.15 0
      vertex -4.996e-16 -3.89711 2.25
      vertex -6.08275e-16 -3.57009 2.73943
    endloop
  endfacet
  facet normal -1 0 -2.22045e-16
    outer loop
      vertex 1.30422e-16 -4.4615 -0.587367
      vertex 6.23126e-17 -2.13161 -0.280631
      vertex 2.58612e-16 -4.34667 -1.16469
    endloop
  endfacet
  facet normal -1 0 -2.22045e-16
    outer loop
      vertex 0 -2.15 0
      vertex -3.82377e-16 -4.15746 1.72207
      vertex -4.996e-16 -3.89711 2.25
    endloop
  endfacet
  facet normal -1 0 -2.22045e-16
    outer loop
      vertex 6.23126e-17 -2.13161 -0.280631
      vertex 1.30422e-16 -4.4615 -0.587367
      vertex 0 -2.15 0
    endloop
  endfacet
  facet normal -1 0 -2.22045e-16
    outer loop
      vertex 0 -2.15 0
      vertex -2.58612e-16 -4.34667 1.16469
      vertex -3.82377e-16 -4.15746 1.72207
    endloop
  endfacet
  facet normal -1 0 -2.22045e-16
    outer loop
      vertex 0 -4.5 0
      vertex 0 -2.15 0
      vertex 1.30422e-16 -4.4615 -0.587367
    endloop
  endfacet
  facet normal -1 0 -2.22045e-16
    outer loop
      vertex 0 -2.15 0
      vertex -1.30422e-16 -4.4615 0.587367
      vertex -2.58612e-16 -4.34667 1.16469
    endloop
  endfacet
  facet normal -1 -0 -2.22045e-16
    outer loop
      vertex 0 -2.15 0
      vertex 0 -4.5 0
      vertex -1.30422e-16 -4.4615 0.587367
    endloop
  endfacet
  facet normal -1 0 -2.22045e-16
    outer loop
      vertex -4.996e-16 3.89711 2.25
      vertex -2.38698e-16 1.86195 1.075
      vertex -6.08275e-16 3.57009 2.73943
    endloop
  endfacet
  facet normal -1 0 -2.22045e-16
    outer loop
      vertex -2.9062e-16 1.70571 1.30884
      vertex -6.08275e-16 3.57009 2.73943
      vertex -2.38698e-16 1.86195 1.075
    endloop
  endfacet
  facet normal -1 0 -2.22045e-16
    outer loop
      vertex -6.08275e-16 3.57009 2.73943
      vertex -2.9062e-16 1.70571 1.30884
      vertex -7.06542e-16 3.18198 3.18198
    endloop
  endfacet
  facet normal -1 0 -2.22045e-16
    outer loop
      vertex -3.3757e-16 1.52028 1.52028
      vertex -7.06542e-16 3.18198 3.18198
      vertex -2.9062e-16 1.70571 1.30884
    endloop
  endfacet
  facet normal -1 0 -2.22045e-16
    outer loop
      vertex -7.06542e-16 3.18198 3.18198
      vertex -3.3757e-16 1.52028 1.52028
      vertex -7.92719e-16 2.73943 3.57009
    endloop
  endfacet
  facet normal -1 0 -2.22045e-16
    outer loop
      vertex -3.78744e-16 1.30884 1.70571
      vertex -7.92719e-16 2.73943 3.57009
      vertex -3.3757e-16 1.52028 1.52028
    endloop
  endfacet
  facet normal -1 0 -2.22045e-16
    outer loop
      vertex -7.92719e-16 2.73943 3.57009
      vertex -3.78744e-16 1.30884 1.70571
      vertex -8.65333e-16 2.25 3.89711
    endloop
  endfacet
  facet normal -1 0 -2.22045e-16
    outer loop
      vertex -4.13437e-16 1.075 1.86195
      vertex -8.65333e-16 2.25 3.89711
      vertex -3.78744e-16 1.30884 1.70571
    endloop
  endfacet
  facet normal -1 0 -2.22045e-16
    outer loop
      vertex -8.65333e-16 2.25 3.89711
      vertex -4.13437e-16 1.075 1.86195
      vertex -9.23141e-16 1.72207 4.15746
    endloop
  endfacet
  facet normal -1 0 -2.22045e-16
    outer loop
      vertex -4.41056e-16 0.822769 1.98634
      vertex -9.23141e-16 1.72207 4.15746
      vertex -4.13437e-16 1.075 1.86195
    endloop
  endfacet
  facet normal -1 0 -2.22045e-16
    outer loop
      vertex -9.23141e-16 1.72207 4.15746
      vertex -4.41056e-16 0.822769 1.98634
      vertex -9.65154e-16 1.16469 4.34667
    endloop
  endfacet
  facet normal -1 0 -2.22045e-16
    outer loop
      vertex -4.61129e-16 0.55646 2.07674
      vertex -9.65154e-16 1.16469 4.34667
      vertex -4.41056e-16 0.822769 1.98634
    endloop
  endfacet
  facet normal -1 0 -2.22045e-16
    outer loop
      vertex -9.65154e-16 1.16469 4.34667
      vertex -4.61129e-16 0.55646 2.07674
      vertex -9.90652e-16 0.587367 4.4615
    endloop
  endfacet
  facet normal -1 0 -2.22045e-16
    outer loop
      vertex -4.73312e-16 0.280631 2.13161
      vertex -9.90652e-16 0.587367 4.4615
      vertex -4.61129e-16 0.55646 2.07674
    endloop
  endfacet
  facet normal -1 0 -2.22045e-16
    outer loop
      vertex -4.77396e-16 0 2.15
      vertex -9.90652e-16 0.587367 4.4615
      vertex -4.73312e-16 0.280631 2.13161
    endloop
  endfacet
  facet normal -1 0 -2.22045e-16
    outer loop
      vertex -4.77396e-16 0 2.15
      vertex -9.99201e-16 0 4.5
      vertex -9.90652e-16 0.587367 4.4615
    endloop
  endfacet
  facet normal -1 0 -2.22045e-16
    outer loop
      vertex -4.73312e-16 -0.280631 2.13161
      vertex -9.99201e-16 0 4.5
      vertex -4.77396e-16 0 2.15
    endloop
  endfacet
  facet normal -1 0 -2.22045e-16
    outer loop
      vertex -9.90652e-16 -0.587367 4.4615
      vertex -4.73312e-16 -0.280631 2.13161
      vertex -4.61129e-16 -0.55646 2.07674
    endloop
  endfacet
  facet normal -1 0 -2.22045e-16
    outer loop
      vertex -4.73312e-16 -0.280631 2.13161
      vertex -9.90652e-16 -0.587367 4.4615
      vertex -9.99201e-16 0 4.5
    endloop
  endfacet
  facet normal -1 0 -2.22045e-16
    outer loop
      vertex -9.65154e-16 -1.16469 4.34667
      vertex -4.61129e-16 -0.55646 2.07674
      vertex -4.41056e-16 -0.822769 1.98634
    endloop
  endfacet
  facet normal -1 0 -2.22045e-16
    outer loop
      vertex -9.23141e-16 -1.72207 4.15746
      vertex -4.41056e-16 -0.822769 1.98634
      vertex -4.13437e-16 -1.075 1.86195
    endloop
  endfacet
  facet normal -1 0 -2.22045e-16
    outer loop
      vertex -4.61129e-16 -0.55646 2.07674
      vertex -9.65154e-16 -1.16469 4.34667
      vertex -9.90652e-16 -0.587367 4.4615
    endloop
  endfacet
  facet normal -1 0 -2.22045e-16
    outer loop
      vertex -8.65333e-16 -2.25 3.89711
      vertex -4.13437e-16 -1.075 1.86195
      vertex -3.78744e-16 -1.30884 1.70571
    endloop
  endfacet
  facet normal -1 0 -2.22045e-16
    outer loop
      vertex -8.65333e-16 -2.25 3.89711
      vertex -3.78744e-16 -1.30884 1.70571
      vertex -3.3757e-16 -1.52028 1.52028
    endloop
  endfacet
  facet normal -1 0 -2.22045e-16
    outer loop
      vertex -8.65333e-16 -2.25 3.89711
      vertex -3.3757e-16 -1.52028 1.52028
      vertex -2.9062e-16 -1.70571 1.30884
    endloop
  endfacet
  facet normal -1 0 -2.22045e-16
    outer loop
      vertex -4.41056e-16 -0.822769 1.98634
      vertex -9.23141e-16 -1.72207 4.15746
      vertex -9.65154e-16 -1.16469 4.34667
    endloop
  endfacet
  facet normal -1 0 -2.22045e-16
    outer loop
      vertex -8.65333e-16 -2.25 3.89711
      vertex -2.9062e-16 -1.70571 1.30884
      vertex -2.38698e-16 -1.86195 1.075
    endloop
  endfacet
  facet normal -1 0 -2.22045e-16
    outer loop
      vertex -8.65333e-16 -2.25 3.89711
      vertex -2.38698e-16 -1.86195 1.075
      vertex -1.82691e-16 -1.98634 0.822769
    endloop
  endfacet
  facet normal -1 0 -2.22045e-16
    outer loop
      vertex -8.65333e-16 -2.25 3.89711
      vertex -1.82691e-16 -1.98634 0.822769
      vertex -1.23559e-16 -2.07674 0.55646
    endloop
  endfacet
  facet normal -1 0 -2.22045e-16
    outer loop
      vertex -8.65333e-16 -2.25 3.89711
      vertex -1.23559e-16 -2.07674 0.55646
      vertex -6.23126e-17 -2.13161 0.280631
    endloop
  endfacet
  facet normal -1 0 -2.22045e-16
    outer loop
      vertex -4.13437e-16 -1.075 1.86195
      vertex -8.65333e-16 -2.25 3.89711
      vertex -9.23141e-16 -1.72207 4.15746
    endloop
  endfacet
  facet normal -1 0 -2.22045e-16
    outer loop
      vertex -8.65333e-16 -2.25 3.89711
      vertex -6.23126e-17 -2.13161 0.280631
      vertex 0 -2.15 0
    endloop
  endfacet
  facet normal 0 0.55557 -0.83147
    outer loop
      vertex 8.65333e-16 2.25 -3.89711
      vertex 0.799999 2.73943 -3.57009
      vertex 0.799999 2.25 -3.89711
    endloop
  endfacet
  facet normal 0 0.55557 -0.83147
    outer loop
      vertex 0.799999 2.73943 -3.57009
      vertex 8.65333e-16 2.25 -3.89711
      vertex 7.92719e-16 2.73943 -3.57009
    endloop
  endfacet
  facet normal 0 0.980785 -0.19509
    outer loop
      vertex 0.799999 4.34667 -1.16469
      vertex 1.30422e-16 4.4615 -0.587367
      vertex 0.799999 4.4615 -0.587367
    endloop
  endfacet
  facet normal 0 0.980785 -0.19509
    outer loop
      vertex 1.30422e-16 4.4615 -0.587367
      vertex 0.799999 4.34667 -1.16469
      vertex 2.58612e-16 4.34667 -1.16469
    endloop
  endfacet
  facet normal 0 0.75184 -0.659345
    outer loop
      vertex 0.799999 3.18198 -3.18198
      vertex 6.08275e-16 3.57009 -2.73943
      vertex 0.799999 3.57009 -2.73943
    endloop
  endfacet
  facet normal 0 0.75184 -0.659345
    outer loop
      vertex 6.08275e-16 3.57009 -2.73943
      vertex 0.799999 3.18198 -3.18198
      vertex 7.06542e-16 3.18198 -3.18198
    endloop
  endfacet
  facet normal -0 0.19509 0.980785
    outer loop
      vertex -9.65154e-16 1.16469 4.34667
      vertex 0.799999 0.587367 4.4615
      vertex 0.799999 1.16469 4.34667
    endloop
  endfacet
  facet normal 0 0.19509 0.980785
    outer loop
      vertex 0.799999 0.587367 4.4615
      vertex -9.65154e-16 1.16469 4.34667
      vertex -9.90652e-16 0.587367 4.4615
    endloop
  endfacet
  facet normal 1 0 0
    outer loop
      vertex 0.799999 2.15 1.77636e-16
      vertex 0.799999 4.5 1.77636e-16
      vertex 0.799999 4.4615 0.587367
    endloop
  endfacet
  facet normal 1 0 0
    outer loop
      vertex 0.799999 2.13161 0.280631
      vertex 0.799999 4.4615 0.587367
      vertex 0.799999 4.34667 1.16469
    endloop
  endfacet
  facet normal 1 0 0
    outer loop
      vertex 0.799999 4.5 1.77636e-16
      vertex 0.799999 2.15 1.77636e-16
      vertex 0.799999 4.4615 -0.587367
    endloop
  endfacet
  facet normal 1 0 0
    outer loop
      vertex 0.799999 2.07674 0.55646
      vertex 0.799999 4.34667 1.16469
      vertex 0.799999 4.15746 1.72207
    endloop
  endfacet
  facet normal 1 -0 0
    outer loop
      vertex 0.799999 2.13161 -0.280631
      vertex 0.799999 4.4615 -0.587367
      vertex 0.799999 2.15 1.77636e-16
    endloop
  endfacet
  facet normal 1 0 0
    outer loop
      vertex 0.799999 1.98634 0.822769
      vertex 0.799999 4.15746 1.72207
      vertex 0.799999 3.89711 2.25
    endloop
  endfacet
  facet normal 1 0 0
    outer loop
      vertex 0.799999 4.4615 -0.587367
      vertex 0.799999 2.13161 -0.280631
      vertex 0.799999 4.34667 -1.16469
    endloop
  endfacet
  facet normal 1 0 0
    outer loop
      vertex 0.799999 1.86195 1.075
      vertex 0.799999 3.89711 2.25
      vertex 0.799999 3.57009 2.73943
    endloop
  endfacet
  facet normal 1 -0 0
    outer loop
      vertex 0.799999 2.07674 -0.55646
      vertex 0.799999 4.34667 -1.16469
      vertex 0.799999 2.13161 -0.280631
    endloop
  endfacet
  facet normal 1 0 0
    outer loop
      vertex 0.799999 1.70571 1.30884
      vertex 0.799999 3.57009 2.73943
      vertex 0.799999 3.18198 3.18198
    endloop
  endfacet
  facet normal 1 0 0
    outer loop
      vertex 0.799999 4.34667 -1.16469
      vertex 0.799999 2.07674 -0.55646
      vertex 0.799999 4.15746 -1.72207
    endloop
  endfacet
  facet normal 1 0 0
    outer loop
      vertex 0.799999 1.52028 1.52028
      vertex 0.799999 3.18198 3.18198
      vertex 0.799999 2.73943 3.57009
    endloop
  endfacet
  facet normal 1 -0 0
    outer loop
      vertex 0.799999 1.98634 -0.822769
      vertex 0.799999 4.15746 -1.72207
      vertex 0.799999 2.07674 -0.55646
    endloop
  endfacet
  facet normal 1 0 0
    outer loop
      vertex 0.799999 1.30884 1.70571
      vertex 0.799999 2.73943 3.57009
      vertex 0.799999 2.25 3.89711
    endloop
  endfacet
  facet normal 1 0 0
    outer loop
      vertex 0.799999 4.15746 -1.72207
      vertex 0.799999 1.98634 -0.822769
      vertex 0.799999 3.89711 -2.25
    endloop
  endfacet
  facet normal 1 -0 0
    outer loop
      vertex 0.799999 1.86195 -1.075
      vertex 0.799999 3.89711 -2.25
      vertex 0.799999 1.98634 -0.822769
    endloop
  endfacet
  facet normal 1 0 0
    outer loop
      vertex 0.799999 4.4615 0.587367
      vertex 0.799999 2.13161 0.280631
      vertex 0.799999 2.15 1.77636e-16
    endloop
  endfacet
  facet normal 1 0 0
    outer loop
      vertex 0.799999 4.34667 1.16469
      vertex 0.799999 2.07674 0.55646
      vertex 0.799999 2.13161 0.280631
    endloop
  endfacet
  facet normal 1 0 0
    outer loop
      vertex 0.799999 4.15746 1.72207
      vertex 0.799999 1.98634 0.822769
      vertex 0.799999 2.07674 0.55646
    endloop
  endfacet
  facet normal 1 0 0
    outer loop
      vertex 0.799999 3.89711 2.25
      vertex 0.799999 1.86195 1.075
      vertex 0.799999 1.98634 0.822769
    endloop
  endfacet
  facet normal 1 0 0
    outer loop
      vertex 0.799999 1.075 1.86195
      vertex 0.799999 2.25 3.89711
      vertex 0.799999 1.72207 4.15746
    endloop
  endfacet
  facet normal 1 0 0
    outer loop
      vertex 0.799999 3.57009 2.73943
      vertex 0.799999 1.70571 1.30884
      vertex 0.799999 1.86195 1.075
    endloop
  endfacet
  facet normal 1 0 0
    outer loop
      vertex 0.799999 3.18198 3.18198
      vertex 0.799999 1.52028 1.52028
      vertex 0.799999 1.70571 1.30884
    endloop
  endfacet
  facet normal 1 0 0
    outer loop
      vertex 0.799999 2.73943 3.57009
      vertex 0.799999 1.30884 1.70571
      vertex 0.799999 1.52028 1.52028
    endloop
  endfacet
  facet normal 1 0 0
    outer loop
      vertex 0.799999 0.822769 1.98634
      vertex 0.799999 1.72207 4.15746
      vertex 0.799999 1.16469 4.34667
    endloop
  endfacet
  facet normal 1 0 0
    outer loop
      vertex 0.799999 2.25 3.89711
      vertex 0.799999 1.075 1.86195
      vertex 0.799999 1.30884 1.70571
    endloop
  endfacet
  facet normal 1 0 0
    outer loop
      vertex 0.799999 1.72207 4.15746
      vertex 0.799999 0.822769 1.98634
      vertex 0.799999 1.075 1.86195
    endloop
  endfacet
  facet normal 1 0 0
    outer loop
      vertex 0.799999 0.55646 2.07674
      vertex 0.799999 1.16469 4.34667
      vertex 0.799999 0.587367 4.4615
    endloop
  endfacet
  facet normal 1 0 0
    outer loop
      vertex 0.799999 1.16469 4.34667
      vertex 0.799999 0.55646 2.07674
      vertex 0.799999 0.822769 1.98634
    endloop
  endfacet
  facet normal 1 0 0
    outer loop
      vertex 0.799999 0.587367 4.4615
      vertex 0.799999 0.280631 2.13161
      vertex 0.799999 0.55646 2.07674
    endloop
  endfacet
  facet normal 1 0 0
    outer loop
      vertex 0.799999 0 4.5
      vertex 0.799999 0.280631 2.13161
      vertex 0.799999 0.587367 4.4615
    endloop
  endfacet
  facet normal 1 0 0
    outer loop
      vertex 0.799999 0 4.5
      vertex 0.799999 0 2.15
      vertex 0.799999 0.280631 2.13161
    endloop
  endfacet
  facet normal 1 0 0
    outer loop
      vertex 0.799999 0 4.5
      vertex 0.799999 -0.280631 2.13161
      vertex 0.799999 0 2.15
    endloop
  endfacet
  facet normal 1 -0 0
    outer loop
      vertex 0.799999 -0.587367 4.4615
      vertex 0.799999 -0.280631 2.13161
      vertex 0.799999 0 4.5
    endloop
  endfacet
  facet normal 1 0 0
    outer loop
      vertex 0.799999 -0.280631 2.13161
      vertex 0.799999 -0.587367 4.4615
      vertex 0.799999 -0.55646 2.07674
    endloop
  endfacet
  facet normal 1 -0 0
    outer loop
      vertex 0.799999 -1.16469 4.34667
      vertex 0.799999 -0.55646 2.07674
      vertex 0.799999 -0.587367 4.4615
    endloop
  endfacet
  facet normal 1 0 0
    outer loop
      vertex 0.799999 -0.55646 2.07674
      vertex 0.799999 -1.16469 4.34667
      vertex 0.799999 -0.822769 1.98634
    endloop
  endfacet
  facet normal 1 -0 0
    outer loop
      vertex 0.799999 -1.72207 4.15746
      vertex 0.799999 -0.822769 1.98634
      vertex 0.799999 -1.16469 4.34667
    endloop
  endfacet
  facet normal 1 0 0
    outer loop
      vertex 0.799999 -0.822769 1.98634
      vertex 0.799999 -1.72207 4.15746
      vertex 0.799999 -1.075 1.86195
    endloop
  endfacet
  facet normal 1 -0 0
    outer loop
      vertex 0.799999 -2.25 3.89711
      vertex 0.799999 -1.075 1.86195
      vertex 0.799999 -1.72207 4.15746
    endloop
  endfacet
  facet normal 1 0 0
    outer loop
      vertex 0.799999 -1.075 1.86195
      vertex 0.799999 -2.25 3.89711
      vertex 0.799999 -1.30884 1.70571
    endloop
  endfacet
  facet normal 1 -0 0
    outer loop
      vertex 0.799999 -2.73943 3.57009
      vertex 0.799999 -1.30884 1.70571
      vertex 0.799999 -2.25 3.89711
    endloop
  endfacet
  facet normal 1 0 0
    outer loop
      vertex 0.799999 -1.30884 1.70571
      vertex 0.799999 -2.73943 3.57009
      vertex 0.799999 -1.52028 1.52028
    endloop
  endfacet
  facet normal 1 -0 0
    outer loop
      vertex 0.799999 -3.18198 3.18198
      vertex 0.799999 -1.52028 1.52028
      vertex 0.799999 -2.73943 3.57009
    endloop
  endfacet
  facet normal 1 0 0
    outer loop
      vertex 0.799999 -1.52028 1.52028
      vertex 0.799999 -3.18198 3.18198
      vertex 0.799999 -1.70571 1.30884
    endloop
  endfacet
  facet normal 1 -0 0
    outer loop
      vertex 0.799999 -3.57009 2.73943
      vertex 0.799999 -1.70571 1.30884
      vertex 0.799999 -3.18198 3.18198
    endloop
  endfacet
  facet normal 1 -0 0
    outer loop
      vertex 0.799999 -3.89711 2.25
      vertex 0.799999 -1.86195 1.075
      vertex 0.799999 -3.57009 2.73943
    endloop
  endfacet
  facet normal 1 0 0
    outer loop
      vertex 0.799999 -1.70571 1.30884
      vertex 0.799999 -3.57009 2.73943
      vertex 0.799999 -1.86195 1.075
    endloop
  endfacet
  facet normal 1 0 0
    outer loop
      vertex 0.799999 3.89711 -2.25
      vertex 0.799999 1.86195 -1.075
      vertex 0.799999 3.57009 -2.73943
    endloop
  endfacet
  facet normal 1 -0 0
    outer loop
      vertex 0.799999 1.70571 -1.30884
      vertex 0.799999 3.57009 -2.73943
      vertex 0.799999 1.86195 -1.075
    endloop
  endfacet
  facet normal 1 0 0
    outer loop
      vertex 0.799999 3.57009 -2.73943
      vertex 0.799999 1.70571 -1.30884
      vertex 0.799999 3.18198 -3.18198
    endloop
  endfacet
  facet normal 1 -0 0
    outer loop
      vertex 0.799999 1.52028 -1.52028
      vertex 0.799999 3.18198 -3.18198
      vertex 0.799999 1.70571 -1.30884
    endloop
  endfacet
  facet normal 1 0 0
    outer loop
      vertex 0.799999 3.18198 -3.18198
      vertex 0.799999 1.52028 -1.52028
      vertex 0.799999 2.73943 -3.57009
    endloop
  endfacet
  facet normal 1 -0 0
    outer loop
      vertex 0.799999 1.30884 -1.70571
      vertex 0.799999 2.73943 -3.57009
      vertex 0.799999 1.52028 -1.52028
    endloop
  endfacet
  facet normal 1 0 0
    outer loop
      vertex 0.799999 2.73943 -3.57009
      vertex 0.799999 1.30884 -1.70571
      vertex 0.799999 2.25 -3.89711
    endloop
  endfacet
  facet normal 1 -0 0
    outer loop
      vertex 0.799999 1.075 -1.86195
      vertex 0.799999 2.25 -3.89711
      vertex 0.799999 1.30884 -1.70571
    endloop
  endfacet
  facet normal 1 0 0
    outer loop
      vertex 0.799999 2.25 -3.89711
      vertex 0.799999 1.075 -1.86195
      vertex 0.799999 1.72207 -4.15746
    endloop
  endfacet
  facet normal 1 -0 0
    outer loop
      vertex 0.799999 0.822769 -1.98634
      vertex 0.799999 1.72207 -4.15746
      vertex 0.799999 1.075 -1.86195
    endloop
  endfacet
  facet normal 1 0 0
    outer loop
      vertex 0.799999 1.72207 -4.15746
      vertex 0.799999 0.822769 -1.98634
      vertex 0.799999 1.16469 -4.34667
    endloop
  endfacet
  facet normal 1 -0 0
    outer loop
      vertex 0.799999 0.55646 -2.07674
      vertex 0.799999 1.16469 -4.34667
      vertex 0.799999 0.822769 -1.98634
    endloop
  endfacet
  facet normal 1 0 0
    outer loop
      vertex 0.799999 1.16469 -4.34667
      vertex 0.799999 0.55646 -2.07674
      vertex 0.799999 0.587367 -4.4615
    endloop
  endfacet
  facet normal 1 -0 0
    outer loop
      vertex 0.799999 0.280631 -2.13161
      vertex 0.799999 0.587367 -4.4615
      vertex 0.799999 0.55646 -2.07674
    endloop
  endfacet
  facet normal 1 -0 0
    outer loop
      vertex 0.799999 0 -2.15
      vertex 0.799999 0.587367 -4.4615
      vertex 0.799999 0.280631 -2.13161
    endloop
  endfacet
  facet normal 1 0 0
    outer loop
      vertex 0.799999 0 -2.15
      vertex 0.799999 0 -4.5
      vertex 0.799999 0.587367 -4.4615
    endloop
  endfacet
  facet normal 1 0 0
    outer loop
      vertex 0.799999 -0.280631 -2.13161
      vertex 0.799999 0 -4.5
      vertex 0.799999 0 -2.15
    endloop
  endfacet
  facet normal 1 0 0
    outer loop
      vertex 0.799999 -0.587367 -4.4615
      vertex 0.799999 -0.280631 -2.13161
      vertex 0.799999 -0.55646 -2.07674
    endloop
  endfacet
  facet normal 1 0 0
    outer loop
      vertex 0.799999 -0.280631 -2.13161
      vertex 0.799999 -0.587367 -4.4615
      vertex 0.799999 0 -4.5
    endloop
  endfacet
  facet normal 1 0 0
    outer loop
      vertex 0.799999 -1.16469 -4.34667
      vertex 0.799999 -0.55646 -2.07674
      vertex 0.799999 -0.822769 -1.98634
    endloop
  endfacet
  facet normal 1 0 0
    outer loop
      vertex 0.799999 -1.72207 -4.15746
      vertex 0.799999 -0.822769 -1.98634
      vertex 0.799999 -1.075 -1.86195
    endloop
  endfacet
  facet normal 1 0 0
    outer loop
      vertex 0.799999 -0.55646 -2.07674
      vertex 0.799999 -1.16469 -4.34667
      vertex 0.799999 -0.587367 -4.4615
    endloop
  endfacet
  facet normal 1 0 0
    outer loop
      vertex 0.799999 -2.25 -3.89711
      vertex 0.799999 -1.075 -1.86195
      vertex 0.799999 -1.30884 -1.70571
    endloop
  endfacet
  facet normal 1 0 0
    outer loop
      vertex 0.799999 -2.73943 -3.57009
      vertex 0.799999 -1.30884 -1.70571
      vertex 0.799999 -1.52028 -1.52028
    endloop
  endfacet
  facet normal 1 0 0
    outer loop
      vertex 0.799999 -3.18198 -3.18198
      vertex 0.799999 -1.52028 -1.52028
      vertex 0.799999 -1.70571 -1.30884
    endloop
  endfacet
  facet normal 1 0 0
    outer loop
      vertex 0.799999 -0.822769 -1.98634
      vertex 0.799999 -1.72207 -4.15746
      vertex 0.799999 -1.16469 -4.34667
    endloop
  endfacet
  facet normal 1 0 0
    outer loop
      vertex 0.799999 -3.57009 -2.73943
      vertex 0.799999 -1.70571 -1.30884
      vertex 0.799999 -1.86195 -1.075
    endloop
  endfacet
  facet normal 1 0 0
    outer loop
      vertex 0.799999 -3.89711 -2.25
      vertex 0.799999 -1.86195 -1.075
      vertex 0.799999 -1.98634 -0.822769
    endloop
  endfacet
  facet normal 1 0 0
    outer loop
      vertex 0.799999 -4.15746 -1.72207
      vertex 0.799999 -1.98634 -0.822769
      vertex 0.799999 -2.07674 -0.55646
    endloop
  endfacet
  facet normal 1 0 0
    outer loop
      vertex 0.799999 -4.34667 -1.16469
      vertex 0.799999 -2.07674 -0.55646
      vertex 0.799999 -2.13161 -0.280631
    endloop
  endfacet
  facet normal 1 0 0
    outer loop
      vertex 0.799999 -1.075 -1.86195
      vertex 0.799999 -2.25 -3.89711
      vertex 0.799999 -1.72207 -4.15746
    endloop
  endfacet
  facet normal 1 0 0
    outer loop
      vertex 0.799999 -4.4615 -0.587367
      vertex 0.799999 -2.13161 -0.280631
      vertex 0.799999 -2.15 1.77636e-16
    endloop
  endfacet
  facet normal 1 0 0
    outer loop
      vertex 0.799999 -1.86195 1.075
      vertex 0.799999 -3.89711 2.25
      vertex 0.799999 -1.98634 0.822769
    endloop
  endfacet
  facet normal 1 -0 0
    outer loop
      vertex 0.799999 -4.15746 1.72207
      vertex 0.799999 -1.98634 0.822769
      vertex 0.799999 -3.89711 2.25
    endloop
  endfacet
  facet normal 1 0 0
    outer loop
      vertex 0.799999 -1.30884 -1.70571
      vertex 0.799999 -2.73943 -3.57009
      vertex 0.799999 -2.25 -3.89711
    endloop
  endfacet
  facet normal 1 0 0
    outer loop
      vertex 0.799999 -1.98634 0.822769
      vertex 0.799999 -4.15746 1.72207
      vertex 0.799999 -2.07674 0.55646
    endloop
  endfacet
  facet normal 1 0 0
    outer loop
      vertex 0.799999 -1.52028 -1.52028
      vertex 0.799999 -3.18198 -3.18198
      vertex 0.799999 -2.73943 -3.57009
    endloop
  endfacet
  facet normal 1 -0 0
    outer loop
      vertex 0.799999 -4.34667 1.16469
      vertex 0.799999 -2.07674 0.55646
      vertex 0.799999 -4.15746 1.72207
    endloop
  endfacet
  facet normal 1 0 0
    outer loop
      vertex 0.799999 -1.70571 -1.30884
      vertex 0.799999 -3.57009 -2.73943
      vertex 0.799999 -3.18198 -3.18198
    endloop
  endfacet
  facet normal 1 0 0
    outer loop
      vertex 0.799999 -2.07674 0.55646
      vertex 0.799999 -4.34667 1.16469
      vertex 0.799999 -2.13161 0.280631
    endloop
  endfacet
  facet normal 1 0 0
    outer loop
      vertex 0.799999 -1.86195 -1.075
      vertex 0.799999 -3.89711 -2.25
      vertex 0.799999 -3.57009 -2.73943
    endloop
  endfacet
  facet normal 1 -0 0
    outer loop
      vertex 0.799999 -4.4615 0.587367
      vertex 0.799999 -2.13161 0.280631
      vertex 0.799999 -4.34667 1.16469
    endloop
  endfacet
  facet normal 1 0 0
    outer loop
      vertex 0.799999 -1.98634 -0.822769
      vertex 0.799999 -4.15746 -1.72207
      vertex 0.799999 -3.89711 -2.25
    endloop
  endfacet
  facet normal 1 0 0
    outer loop
      vertex 0.799999 -2.13161 0.280631
      vertex 0.799999 -4.4615 0.587367
      vertex 0.799999 -2.15 1.77636e-16
    endloop
  endfacet
  facet normal 1 0 0
    outer loop
      vertex 0.799999 -2.07674 -0.55646
      vertex 0.799999 -4.34667 -1.16469
      vertex 0.799999 -4.15746 -1.72207
    endloop
  endfacet
  facet normal 1 0 0
    outer loop
      vertex 0.799999 -4.5 1.77636e-16
      vertex 0.799999 -2.15 1.77636e-16
      vertex 0.799999 -4.4615 0.587367
    endloop
  endfacet
  facet normal 1 0 0
    outer loop
      vertex 0.799999 -2.13161 -0.280631
      vertex 0.799999 -4.4615 -0.587367
      vertex 0.799999 -4.34667 -1.16469
    endloop
  endfacet
  facet normal 1 0 0
    outer loop
      vertex 0.799999 -2.15 1.77636e-16
      vertex 0.799999 -4.5 1.77636e-16
      vertex 0.799999 -4.4615 -0.587367
    endloop
  endfacet
  facet normal 0 0.83147 0.55557
    outer loop
      vertex 0.799999 3.89711 2.25
      vertex -6.08275e-16 3.57009 2.73943
      vertex 0.799999 3.57009 2.73943
    endloop
  endfacet
  facet normal 0 0.83147 0.55557
    outer loop
      vertex -6.08275e-16 3.57009 2.73943
      vertex 0.799999 3.89711 2.25
      vertex -4.996e-16 3.89711 2.25
    endloop
  endfacet
  facet normal 0 0.997859 0.0654045
    outer loop
      vertex 0.799999 4.5 1.77636e-16
      vertex -1.30422e-16 4.4615 0.587367
      vertex 0.799999 4.4615 0.587367
    endloop
  endfacet
  facet normal -1.47353e-17 0.997859 0.0654045
    outer loop
      vertex -1.30422e-16 4.4615 0.587367
      vertex 0.799999 4.5 1.77636e-16
      vertex 0 4.5 0
    endloop
  endfacet
  facet normal 1.47353e-17 -0.997859 -0.0654045
    outer loop
      vertex 1.30422e-16 -4.4615 -0.587367
      vertex 0.799999 -4.5 1.77636e-16
      vertex 0 -4.5 0
    endloop
  endfacet
  facet normal 0 -0.997859 -0.0654045
    outer loop
      vertex 0.799999 -4.5 1.77636e-16
      vertex 1.30422e-16 -4.4615 -0.587367
      vertex 0.799999 -4.4615 -0.587367
    endloop
  endfacet
  facet normal 0 -0.94693 -0.321439
    outer loop
      vertex 3.82377e-16 -4.15746 -1.72207
      vertex 0.799999 -4.34667 -1.16469
      vertex 2.58612e-16 -4.34667 -1.16469
    endloop
  endfacet
  facet normal 0 -0.94693 -0.321439
    outer loop
      vertex 0.799999 -4.34667 -1.16469
      vertex 3.82377e-16 -4.15746 -1.72207
      vertex 0.799999 -4.15746 -1.72207
    endloop
  endfacet
  facet normal 0 -0.831469 -0.555571
    outer loop
      vertex 6.08275e-16 -3.57009 -2.73943
      vertex 0.799999 -3.89711 -2.25
      vertex 4.996e-16 -3.89711 -2.25
    endloop
  endfacet
  facet normal 0 -0.831469 -0.555571
    outer loop
      vertex 0.799999 -3.89711 -2.25
      vertex 6.08275e-16 -3.57009 -2.73943
      vertex 0.799999 -3.57009 -2.73943
    endloop
  endfacet
  facet normal 0 -0.442288 -0.896873
    outer loop
      vertex 0.799999 -2.25 -3.89711
      vertex 9.23141e-16 -1.72207 -4.15746
      vertex 0.799999 -1.72207 -4.15746
    endloop
  endfacet
  facet normal 0 -0.442288 -0.896873
    outer loop
      vertex 9.23141e-16 -1.72207 -4.15746
      vertex 0.799999 -2.25 -3.89711
      vertex 8.65333e-16 -2.25 -3.89711
    endloop
  endfacet
  facet normal 0 -0.659345 -0.75184
    outer loop
      vertex 0.799999 -3.18198 -3.18198
      vertex 7.92719e-16 -2.73943 -3.57009
      vertex 0.799999 -2.73943 -3.57009
    endloop
  endfacet
  facet normal 0 -0.659345 -0.75184
    outer loop
      vertex 7.92719e-16 -2.73943 -3.57009
      vertex 0.799999 -3.18198 -3.18198
      vertex 7.06542e-16 -3.18198 -3.18198
    endloop
  endfacet
  facet normal 0 -0.555571 -0.831469
    outer loop
      vertex 0.799999 -2.73943 -3.57009
      vertex 8.65333e-16 -2.25 -3.89711
      vertex 0.799999 -2.25 -3.89711
    endloop
  endfacet
  facet normal 0 -0.555571 -0.831469
    outer loop
      vertex 8.65333e-16 -2.25 -3.89711
      vertex 0.799999 -2.73943 -3.57009
      vertex 7.92719e-16 -2.73943 -3.57009
    endloop
  endfacet
  facet normal 0 -0.75184 0.659345
    outer loop
      vertex -6.08275e-16 -3.57009 2.73943
      vertex 0.799999 -3.18198 3.18198
      vertex -7.06542e-16 -3.18198 3.18198
    endloop
  endfacet
  facet normal 0 -0.75184 0.659345
    outer loop
      vertex 0.799999 -3.18198 3.18198
      vertex -6.08275e-16 -3.57009 2.73943
      vertex 0.799999 -3.57009 2.73943
    endloop
  endfacet
  facet normal 0 -0.831469 0.555571
    outer loop
      vertex -4.996e-16 -3.89711 2.25
      vertex 0.799999 -3.57009 2.73943
      vertex -6.08275e-16 -3.57009 2.73943
    endloop
  endfacet
  facet normal 0 -0.831469 0.555571
    outer loop
      vertex 0.799999 -3.57009 2.73943
      vertex -4.996e-16 -3.89711 2.25
      vertex 0.799999 -3.89711 2.25
    endloop
  endfacet
  facet normal 0 -0.980785 0.19509
    outer loop
      vertex -1.30422e-16 -4.4615 0.587367
      vertex 0.799999 -4.34667 1.16469
      vertex -2.58612e-16 -4.34667 1.16469
    endloop
  endfacet
  facet normal 0 -0.980785 0.19509
    outer loop
      vertex 0.799999 -4.34667 1.16469
      vertex -1.30422e-16 -4.4615 0.587367
      vertex 0.799999 -4.4615 0.587367
    endloop
  endfacet
  facet normal 0 -0.659345 0.75184
    outer loop
      vertex 0.799999 -2.73943 3.57009
      vertex -7.06542e-16 -3.18198 3.18198
      vertex 0.799999 -3.18198 3.18198
    endloop
  endfacet
  facet normal 0 -0.659345 0.75184
    outer loop
      vertex -7.06542e-16 -3.18198 3.18198
      vertex 0.799999 -2.73943 3.57009
      vertex -7.92719e-16 -2.73943 3.57009
    endloop
  endfacet
  facet normal 0 -0.321439 0.94693
    outer loop
      vertex 0.799999 -1.16469 4.34667
      vertex -9.23141e-16 -1.72207 4.15746
      vertex 0.799999 -1.72207 4.15746
    endloop
  endfacet
  facet normal 0 -0.321439 0.94693
    outer loop
      vertex -9.23141e-16 -1.72207 4.15746
      vertex 0.799999 -1.16469 4.34667
      vertex -9.65154e-16 -1.16469 4.34667
    endloop
  endfacet
  facet normal 0 -0.0654045 0.997859
    outer loop
      vertex 0.799999 0 4.5
      vertex -9.90652e-16 -0.587367 4.4615
      vertex 0.799999 -0.587367 4.4615
    endloop
  endfacet
  facet normal 0 -0.0654045 0.997859
    outer loop
      vertex -9.90652e-16 -0.587367 4.4615
      vertex 0.799999 0 4.5
      vertex -9.99201e-16 0 4.5
    endloop
  endfacet
  facet normal -0 0.659345 0.75184
    outer loop
      vertex -7.06542e-16 3.18198 3.18198
      vertex 0.799999 2.73943 3.57009
      vertex 0.799999 3.18198 3.18198
    endloop
  endfacet
  facet normal 0 0.659345 0.75184
    outer loop
      vertex 0.799999 2.73943 3.57009
      vertex -7.06542e-16 3.18198 3.18198
      vertex -7.92719e-16 2.73943 3.57009
    endloop
  endfacet
  facet normal 0 -0.980785 -0.19509
    outer loop
      vertex 2.58612e-16 -4.34667 -1.16469
      vertex 0.799999 -4.4615 -0.587367
      vertex 1.30422e-16 -4.4615 -0.587367
    endloop
  endfacet
  facet normal 0 -0.980785 -0.19509
    outer loop
      vertex 0.799999 -4.4615 -0.587367
      vertex 2.58612e-16 -4.34667 -1.16469
      vertex 0.799999 -4.34667 -1.16469
    endloop
  endfacet
  facet normal 0 -0.19509 -0.980785
    outer loop
      vertex 0.799999 -1.16469 -4.34667
      vertex 9.90652e-16 -0.587367 -4.4615
      vertex 0.799999 -0.587367 -4.4615
    endloop
  endfacet
  facet normal 0 -0.19509 -0.980785
    outer loop
      vertex 9.90652e-16 -0.587367 -4.4615
      vertex 0.799999 -1.16469 -4.34667
      vertex 9.65154e-16 -1.16469 -4.34667
    endloop
  endfacet
  facet normal 0 -0.0654045 -0.997859
    outer loop
      vertex 0.799999 -0.587367 -4.4615
      vertex 9.99201e-16 0 -4.5
      vertex 0.799999 0 -4.5
    endloop
  endfacet
  facet normal 0 -0.0654045 -0.997859
    outer loop
      vertex 9.99201e-16 0 -4.5
      vertex 0.799999 -0.587367 -4.4615
      vertex 9.90652e-16 -0.587367 -4.4615
    endloop
  endfacet
  facet normal 0 -0.997859 0.0654045
    outer loop
      vertex -1.30422e-16 -4.4615 0.587367
      vertex 0.799999 -4.5 1.77636e-16
      vertex 0.799999 -4.4615 0.587367
    endloop
  endfacet
  facet normal -1.45227e-17 -0.997859 0.0654045
    outer loop
      vertex 0.799999 -4.5 1.77636e-16
      vertex -1.30422e-16 -4.4615 0.587367
      vertex 0 -4.5 0
    endloop
  endfacet
  facet normal 0 -0.19509 0.980785
    outer loop
      vertex 0.799999 -0.587367 4.4615
      vertex -9.65154e-16 -1.16469 4.34667
      vertex 0.799999 -1.16469 4.34667
    endloop
  endfacet
  facet normal 0 -0.19509 0.980785
    outer loop
      vertex -9.65154e-16 -1.16469 4.34667
      vertex 0.799999 -0.587367 4.4615
      vertex -9.90652e-16 -0.587367 4.4615
    endloop
  endfacet
  facet normal 0 -0.0654031 0.997859
    outer loop
      vertex 0.799999 0.280631 -2.13161
      vertex 4.77396e-16 0 -2.15
      vertex 0.799999 0 -2.15
    endloop
  endfacet
  facet normal 0 -0.0654031 0.997859
    outer loop
      vertex 4.77396e-16 0 -2.15
      vertex 0.799999 0.280631 -2.13161
      vertex 4.73312e-16 0.280631 -2.13161
    endloop
  endfacet
  facet normal 0 -0.0654031 -0.997859
    outer loop
      vertex 0.799999 0 2.15
      vertex -4.73312e-16 0.280631 2.13161
      vertex 0.799999 0.280631 2.13161
    endloop
  endfacet
  facet normal 0 -0.0654031 -0.997859
    outer loop
      vertex -4.73312e-16 0.280631 2.13161
      vertex 0.799999 0 2.15
      vertex -4.77396e-16 0 2.15
    endloop
  endfacet
  facet normal 0 -0.997859 -0.0654031
    outer loop
      vertex -6.23126e-17 2.13161 0.280631
      vertex 0.799999 2.15 1.77636e-16
      vertex 0.799999 2.13161 0.280631
    endloop
  endfacet
  facet normal 1.45224e-17 -0.997859 -0.0654031
    outer loop
      vertex 0.799999 2.15 1.77636e-16
      vertex -6.23126e-17 2.13161 0.280631
      vertex 0 2.15 0
    endloop
  endfacet
  facet normal -1.54207e-17 0.997859 0.0654031
    outer loop
      vertex 0.799999 -2.13161 -0.280631
      vertex 0 -2.15 0
      vertex 0.799999 -2.15 1.77636e-16
    endloop
  endfacet
  facet normal 0 0.997859 0.0654031
    outer loop
      vertex 0 -2.15 0
      vertex 0.799999 -2.13161 -0.280631
      vertex 6.23126e-17 -2.13161 -0.280631
    endloop
  endfacet
  facet normal -0 0.659348 0.751838
    outer loop
      vertex 3.78744e-16 -1.30884 -1.70571
      vertex 0.799999 -1.52028 -1.52028
      vertex 0.799999 -1.30884 -1.70571
    endloop
  endfacet
  facet normal 0 0.659348 0.751838
    outer loop
      vertex 0.799999 -1.52028 -1.52028
      vertex 3.78744e-16 -1.30884 -1.70571
      vertex 3.3757e-16 -1.52028 -1.52028
    endloop
  endfacet
  facet normal 0 -0.751838 0.659348
    outer loop
      vertex 3.3757e-16 1.52028 -1.52028
      vertex 0.799999 1.70571 -1.30884
      vertex 2.9062e-16 1.70571 -1.30884
    endloop
  endfacet
  facet normal 0 -0.751838 0.659348
    outer loop
      vertex 0.799999 1.70571 -1.30884
      vertex 3.3757e-16 1.52028 -1.52028
      vertex 0.799999 1.52028 -1.52028
    endloop
  endfacet
  facet normal 0 -0.659348 -0.751838
    outer loop
      vertex 0.799999 1.30884 1.70571
      vertex -3.3757e-16 1.52028 1.52028
      vertex 0.799999 1.52028 1.52028
    endloop
  endfacet
  facet normal 0 -0.659348 -0.751838
    outer loop
      vertex -3.3757e-16 1.52028 1.52028
      vertex 0.799999 1.30884 1.70571
      vertex -3.78744e-16 1.30884 1.70571
    endloop
  endfacet
  facet normal 0 -0.896872 -0.44229
    outer loop
      vertex -1.82691e-16 1.98634 0.822769
      vertex 0.799999 1.86195 1.075
      vertex -2.38698e-16 1.86195 1.075
    endloop
  endfacet
  facet normal 0 -0.896872 -0.44229
    outer loop
      vertex 0.799999 1.86195 1.075
      vertex -1.82691e-16 1.98634 0.822769
      vertex 0.799999 1.98634 0.822769
    endloop
  endfacet
  facet normal 0 -0.44229 0.896872
    outer loop
      vertex 0.799999 1.075 -1.86195
      vertex 4.41056e-16 0.822769 -1.98634
      vertex 0.799999 0.822769 -1.98634
    endloop
  endfacet
  facet normal 0 -0.44229 0.896872
    outer loop
      vertex 4.41056e-16 0.822769 -1.98634
      vertex 0.799999 1.075 -1.86195
      vertex 4.13437e-16 1.075 -1.86195
    endloop
  endfacet
  facet normal 0 -0.555569 0.831471
    outer loop
      vertex 0.799999 1.30884 -1.70571
      vertex 4.13437e-16 1.075 -1.86195
      vertex 0.799999 1.075 -1.86195
    endloop
  endfacet
  facet normal 0 -0.555569 0.831471
    outer loop
      vertex 4.13437e-16 1.075 -1.86195
      vertex 0.799999 1.30884 -1.70571
      vertex 3.78744e-16 1.30884 -1.70571
    endloop
  endfacet
  facet normal 0 -0.94693 0.32144
    outer loop
      vertex 1.82691e-16 1.98634 -0.822769
      vertex 0.799999 2.07674 -0.55646
      vertex 1.23559e-16 2.07674 -0.55646
    endloop
  endfacet
  facet normal 0 -0.94693 0.32144
    outer loop
      vertex 0.799999 2.07674 -0.55646
      vertex 1.82691e-16 1.98634 -0.822769
      vertex 0.799999 1.98634 -0.822769
    endloop
  endfacet
  facet normal 0 -0.980785 0.19509
    outer loop
      vertex 1.23559e-16 2.07674 -0.55646
      vertex 0.799999 2.13161 -0.280631
      vertex 6.23126e-17 2.13161 -0.280631
    endloop
  endfacet
  facet normal 0 -0.980785 0.19509
    outer loop
      vertex 0.799999 2.13161 -0.280631
      vertex 1.23559e-16 2.07674 -0.55646
      vertex 0.799999 2.07674 -0.55646
    endloop
  endfacet
  facet normal 0 -0.896872 0.44229
    outer loop
      vertex 2.38698e-16 1.86195 -1.075
      vertex 0.799999 1.98634 -0.822769
      vertex 1.82691e-16 1.98634 -0.822769
    endloop
  endfacet
  facet normal 0 -0.896872 0.44229
    outer loop
      vertex 0.799999 1.98634 -0.822769
      vertex 2.38698e-16 1.86195 -1.075
      vertex 0.799999 1.86195 -1.075
    endloop
  endfacet
  facet normal 0 -0.32144 -0.94693
    outer loop
      vertex 0.799999 0.55646 2.07674
      vertex -4.41056e-16 0.822769 1.98634
      vertex 0.799999 0.822769 1.98634
    endloop
  endfacet
  facet normal 0 -0.32144 -0.94693
    outer loop
      vertex -4.41056e-16 0.822769 1.98634
      vertex 0.799999 0.55646 2.07674
      vertex -4.61129e-16 0.55646 2.07674
    endloop
  endfacet
  facet normal 0 -0.19509 -0.980785
    outer loop
      vertex 0.799999 0.280631 2.13161
      vertex -4.61129e-16 0.55646 2.07674
      vertex 0.799999 0.55646 2.07674
    endloop
  endfacet
  facet normal 0 -0.19509 -0.980785
    outer loop
      vertex -4.61129e-16 0.55646 2.07674
      vertex 0.799999 0.280631 2.13161
      vertex -4.73312e-16 0.280631 2.13161
    endloop
  endfacet
  facet normal 0 -0.831471 -0.555569
    outer loop
      vertex -2.38698e-16 1.86195 1.075
      vertex 0.799999 1.70571 1.30884
      vertex -2.9062e-16 1.70571 1.30884
    endloop
  endfacet
  facet normal 0 -0.831471 -0.555569
    outer loop
      vertex 0.799999 1.70571 1.30884
      vertex -2.38698e-16 1.86195 1.075
      vertex 0.799999 1.86195 1.075
    endloop
  endfacet
  facet normal 0 -0.94693 -0.32144
    outer loop
      vertex -1.23559e-16 2.07674 0.55646
      vertex 0.799999 1.98634 0.822769
      vertex -1.82691e-16 1.98634 0.822769
    endloop
  endfacet
  facet normal 0 -0.94693 -0.32144
    outer loop
      vertex 0.799999 1.98634 0.822769
      vertex -1.23559e-16 2.07674 0.55646
      vertex 0.799999 2.07674 0.55646
    endloop
  endfacet
  facet normal -0 0.19509 0.980785
    outer loop
      vertex 4.73312e-16 -0.280631 -2.13161
      vertex 0.799999 -0.55646 -2.07674
      vertex 0.799999 -0.280631 -2.13161
    endloop
  endfacet
  facet normal 0 0.19509 0.980785
    outer loop
      vertex 0.799999 -0.55646 -2.07674
      vertex 4.73312e-16 -0.280631 -2.13161
      vertex 4.61129e-16 -0.55646 -2.07674
    endloop
  endfacet
  facet normal 0 0.980785 0.19509
    outer loop
      vertex 0.799999 -2.07674 -0.55646
      vertex 6.23126e-17 -2.13161 -0.280631
      vertex 0.799999 -2.13161 -0.280631
    endloop
  endfacet
  facet normal 0 0.980785 0.19509
    outer loop
      vertex 6.23126e-17 -2.13161 -0.280631
      vertex 0.799999 -2.07674 -0.55646
      vertex 1.23559e-16 -2.07674 -0.55646
    endloop
  endfacet
  facet normal 0 0.896872 0.44229
    outer loop
      vertex 0.799999 -1.86195 -1.075
      vertex 1.82691e-16 -1.98634 -0.822769
      vertex 0.799999 -1.98634 -0.822769
    endloop
  endfacet
  facet normal 0 0.896872 0.44229
    outer loop
      vertex 1.82691e-16 -1.98634 -0.822769
      vertex 0.799999 -1.86195 -1.075
      vertex 2.38698e-16 -1.86195 -1.075
    endloop
  endfacet
  facet normal 0 -0.32144 0.94693
    outer loop
      vertex 0.799999 0.822769 -1.98634
      vertex 4.61129e-16 0.55646 -2.07674
      vertex 0.799999 0.55646 -2.07674
    endloop
  endfacet
  facet normal 0 -0.32144 0.94693
    outer loop
      vertex 4.61129e-16 0.55646 -2.07674
      vertex 0.799999 0.822769 -1.98634
      vertex 4.41056e-16 0.822769 -1.98634
    endloop
  endfacet
  facet normal 0 -0.19509 0.980785
    outer loop
      vertex 0.799999 0.55646 -2.07674
      vertex 4.73312e-16 0.280631 -2.13161
      vertex 0.799999 0.280631 -2.13161
    endloop
  endfacet
  facet normal 0 -0.19509 0.980785
    outer loop
      vertex 4.73312e-16 0.280631 -2.13161
      vertex 0.799999 0.55646 -2.07674
      vertex 4.61129e-16 0.55646 -2.07674
    endloop
  endfacet
  facet normal 0 -0.659348 0.751838
    outer loop
      vertex 0.799999 1.52028 -1.52028
      vertex 3.78744e-16 1.30884 -1.70571
      vertex 0.799999 1.30884 -1.70571
    endloop
  endfacet
  facet normal 0 -0.659348 0.751838
    outer loop
      vertex 3.78744e-16 1.30884 -1.70571
      vertex 0.799999 1.52028 -1.52028
      vertex 3.3757e-16 1.52028 -1.52028
    endloop
  endfacet
  facet normal -1.54207e-17 -0.997859 0.0654031
    outer loop
      vertex 6.23126e-17 2.13161 -0.280631
      vertex 0.799999 2.15 1.77636e-16
      vertex 0 2.15 0
    endloop
  endfacet
  facet normal 0 -0.997859 0.0654031
    outer loop
      vertex 0.799999 2.15 1.77636e-16
      vertex 6.23126e-17 2.13161 -0.280631
      vertex 0.799999 2.13161 -0.280631
    endloop
  endfacet
  facet normal 0 -0.831471 0.555569
    outer loop
      vertex 2.9062e-16 1.70571 -1.30884
      vertex 0.799999 1.86195 -1.075
      vertex 2.38698e-16 1.86195 -1.075
    endloop
  endfacet
  facet normal 0 -0.831471 0.555569
    outer loop
      vertex 0.799999 1.86195 -1.075
      vertex 2.9062e-16 1.70571 -1.30884
      vertex 0.799999 1.70571 -1.30884
    endloop
  endfacet
  facet normal 0 -0.44229 -0.896872
    outer loop
      vertex 0.799999 0.822769 1.98634
      vertex -4.13437e-16 1.075 1.86195
      vertex 0.799999 1.075 1.86195
    endloop
  endfacet
  facet normal 0 -0.44229 -0.896872
    outer loop
      vertex -4.13437e-16 1.075 1.86195
      vertex 0.799999 0.822769 1.98634
      vertex -4.41056e-16 0.822769 1.98634
    endloop
  endfacet
  facet normal 0 -0.555569 -0.831471
    outer loop
      vertex 0.799999 1.075 1.86195
      vertex -3.78744e-16 1.30884 1.70571
      vertex 0.799999 1.30884 1.70571
    endloop
  endfacet
  facet normal 0 -0.555569 -0.831471
    outer loop
      vertex -3.78744e-16 1.30884 1.70571
      vertex 0.799999 1.075 1.86195
      vertex -4.13437e-16 1.075 1.86195
    endloop
  endfacet
  facet normal 0 -0.751838 -0.659348
    outer loop
      vertex -2.9062e-16 1.70571 1.30884
      vertex 0.799999 1.52028 1.52028
      vertex -3.3757e-16 1.52028 1.52028
    endloop
  endfacet
  facet normal 0 -0.751838 -0.659348
    outer loop
      vertex 0.799999 1.52028 1.52028
      vertex -2.9062e-16 1.70571 1.30884
      vertex 0.799999 1.70571 1.30884
    endloop
  endfacet
  facet normal 0 -0.980785 -0.19509
    outer loop
      vertex -6.23126e-17 2.13161 0.280631
      vertex 0.799999 2.07674 0.55646
      vertex -1.23559e-16 2.07674 0.55646
    endloop
  endfacet
  facet normal 0 -0.980785 -0.19509
    outer loop
      vertex 0.799999 2.07674 0.55646
      vertex -6.23126e-17 2.13161 0.280631
      vertex 0.799999 2.13161 0.280631
    endloop
  endfacet
  facet normal -0 0.0654031 0.997859
    outer loop
      vertex 4.77396e-16 0 -2.15
      vertex 0.799999 -0.280631 -2.13161
      vertex 0.799999 0 -2.15
    endloop
  endfacet
  facet normal 0 0.0654031 0.997859
    outer loop
      vertex 0.799999 -0.280631 -2.13161
      vertex 4.77396e-16 0 -2.15
      vertex 4.73312e-16 -0.280631 -2.13161
    endloop
  endfacet
  facet normal -0 0.32144 0.94693
    outer loop
      vertex 4.61129e-16 -0.55646 -2.07674
      vertex 0.799999 -0.822769 -1.98634
      vertex 0.799999 -0.55646 -2.07674
    endloop
  endfacet
  facet normal 0 0.32144 0.94693
    outer loop
      vertex 0.799999 -0.822769 -1.98634
      vertex 4.61129e-16 -0.55646 -2.07674
      vertex 4.41056e-16 -0.822769 -1.98634
    endloop
  endfacet
  facet normal 0 0.44229 -0.896872
    outer loop
      vertex -4.13437e-16 -1.075 1.86195
      vertex 0.799999 -0.822769 1.98634
      vertex 0.799999 -1.075 1.86195
    endloop
  endfacet
  facet normal 0 0.44229 -0.896872
    outer loop
      vertex 0.799999 -0.822769 1.98634
      vertex -4.13437e-16 -1.075 1.86195
      vertex -4.41056e-16 -0.822769 1.98634
    endloop
  endfacet
  facet normal 0 0.831471 0.555569
    outer loop
      vertex 0.799999 -1.70571 -1.30884
      vertex 2.38698e-16 -1.86195 -1.075
      vertex 0.799999 -1.86195 -1.075
    endloop
  endfacet
  facet normal 0 0.831471 0.555569
    outer loop
      vertex 2.38698e-16 -1.86195 -1.075
      vertex 0.799999 -1.70571 -1.30884
      vertex 2.9062e-16 -1.70571 -1.30884
    endloop
  endfacet
  facet normal -0 0.555569 0.831471
    outer loop
      vertex 4.13437e-16 -1.075 -1.86195
      vertex 0.799999 -1.30884 -1.70571
      vertex 0.799999 -1.075 -1.86195
    endloop
  endfacet
  facet normal 0 0.555569 0.831471
    outer loop
      vertex 0.799999 -1.30884 -1.70571
      vertex 4.13437e-16 -1.075 -1.86195
      vertex 3.78744e-16 -1.30884 -1.70571
    endloop
  endfacet
  facet normal 0 0.980785 -0.19509
    outer loop
      vertex 0.799999 -2.13161 0.280631
      vertex -1.23559e-16 -2.07674 0.55646
      vertex 0.799999 -2.07674 0.55646
    endloop
  endfacet
  facet normal 0 0.980785 -0.19509
    outer loop
      vertex -1.23559e-16 -2.07674 0.55646
      vertex 0.799999 -2.13161 0.280631
      vertex -6.23126e-17 -2.13161 0.280631
    endloop
  endfacet
  facet normal 0 0.32144 -0.94693
    outer loop
      vertex -4.41056e-16 -0.822769 1.98634
      vertex 0.799999 -0.55646 2.07674
      vertex 0.799999 -0.822769 1.98634
    endloop
  endfacet
  facet normal 0 0.32144 -0.94693
    outer loop
      vertex 0.799999 -0.55646 2.07674
      vertex -4.41056e-16 -0.822769 1.98634
      vertex -4.61129e-16 -0.55646 2.07674
    endloop
  endfacet
  facet normal 0 0.751838 0.659348
    outer loop
      vertex 0.799999 -1.52028 -1.52028
      vertex 2.9062e-16 -1.70571 -1.30884
      vertex 0.799999 -1.70571 -1.30884
    endloop
  endfacet
  facet normal 0 0.751838 0.659348
    outer loop
      vertex 2.9062e-16 -1.70571 -1.30884
      vertex 0.799999 -1.52028 -1.52028
      vertex 3.3757e-16 -1.52028 -1.52028
    endloop
  endfacet
  facet normal 0 0.94693 0.32144
    outer loop
      vertex 0.799999 -1.98634 -0.822769
      vertex 1.23559e-16 -2.07674 -0.55646
      vertex 0.799999 -2.07674 -0.55646
    endloop
  endfacet
  facet normal 0 0.94693 0.32144
    outer loop
      vertex 1.23559e-16 -2.07674 -0.55646
      vertex 0.799999 -1.98634 -0.822769
      vertex 1.82691e-16 -1.98634 -0.822769
    endloop
  endfacet
  facet normal -0 0.44229 0.896872
    outer loop
      vertex 4.41056e-16 -0.822769 -1.98634
      vertex 0.799999 -1.075 -1.86195
      vertex 0.799999 -0.822769 -1.98634
    endloop
  endfacet
  facet normal 0 0.44229 0.896872
    outer loop
      vertex 0.799999 -1.075 -1.86195
      vertex 4.41056e-16 -0.822769 -1.98634
      vertex 4.13437e-16 -1.075 -1.86195
    endloop
  endfacet
  facet normal 0 0.997859 -0.0654031
    outer loop
      vertex 0.799999 -2.15 1.77636e-16
      vertex -6.23126e-17 -2.13161 0.280631
      vertex 0.799999 -2.13161 0.280631
    endloop
  endfacet
  facet normal 1.54207e-17 0.997859 -0.0654031
    outer loop
      vertex -6.23126e-17 -2.13161 0.280631
      vertex 0.799999 -2.15 1.77636e-16
      vertex 0 -2.15 0
    endloop
  endfacet
  facet normal 0 0.94693 -0.32144
    outer loop
      vertex 0.799999 -2.07674 0.55646
      vertex -1.82691e-16 -1.98634 0.822769
      vertex 0.799999 -1.98634 0.822769
    endloop
  endfacet
  facet normal 0 0.94693 -0.32144
    outer loop
      vertex -1.82691e-16 -1.98634 0.822769
      vertex 0.799999 -2.07674 0.55646
      vertex -1.23559e-16 -2.07674 0.55646
    endloop
  endfacet
  facet normal 0 0.659348 -0.751838
    outer loop
      vertex -3.3757e-16 -1.52028 1.52028
      vertex 0.799999 -1.30884 1.70571
      vertex 0.799999 -1.52028 1.52028
    endloop
  endfacet
  facet normal 0 0.659348 -0.751838
    outer loop
      vertex 0.799999 -1.30884 1.70571
      vertex -3.3757e-16 -1.52028 1.52028
      vertex -3.78744e-16 -1.30884 1.70571
    endloop
  endfacet
  facet normal 0 0.751838 -0.659348
    outer loop
      vertex 0.799999 -1.70571 1.30884
      vertex -3.3757e-16 -1.52028 1.52028
      vertex 0.799999 -1.52028 1.52028
    endloop
  endfacet
  facet normal 0 0.751838 -0.659348
    outer loop
      vertex -3.3757e-16 -1.52028 1.52028
      vertex 0.799999 -1.70571 1.30884
      vertex -2.9062e-16 -1.70571 1.30884
    endloop
  endfacet
  facet normal 0 0.19509 -0.980785
    outer loop
      vertex -4.61129e-16 -0.55646 2.07674
      vertex 0.799999 -0.280631 2.13161
      vertex 0.799999 -0.55646 2.07674
    endloop
  endfacet
  facet normal 0 0.19509 -0.980785
    outer loop
      vertex 0.799999 -0.280631 2.13161
      vertex -4.61129e-16 -0.55646 2.07674
      vertex -4.73312e-16 -0.280631 2.13161
    endloop
  endfacet
  facet normal 0 0.0654031 -0.997859
    outer loop
      vertex -4.73312e-16 -0.280631 2.13161
      vertex 0.799999 0 2.15
      vertex 0.799999 -0.280631 2.13161
    endloop
  endfacet
  facet normal 0 0.0654031 -0.997859
    outer loop
      vertex 0.799999 0 2.15
      vertex -4.73312e-16 -0.280631 2.13161
      vertex -4.77396e-16 0 2.15
    endloop
  endfacet
  facet normal 0 0.555569 -0.831471
    outer loop
      vertex -3.78744e-16 -1.30884 1.70571
      vertex 0.799999 -1.075 1.86195
      vertex 0.799999 -1.30884 1.70571
    endloop
  endfacet
  facet normal 0 0.555569 -0.831471
    outer loop
      vertex 0.799999 -1.075 1.86195
      vertex -3.78744e-16 -1.30884 1.70571
      vertex -4.13437e-16 -1.075 1.86195
    endloop
  endfacet
  facet normal 0 0.896872 -0.44229
    outer loop
      vertex 0.799999 -1.98634 0.822769
      vertex -2.38698e-16 -1.86195 1.075
      vertex 0.799999 -1.86195 1.075
    endloop
  endfacet
  facet normal 0 0.896872 -0.44229
    outer loop
      vertex -2.38698e-16 -1.86195 1.075
      vertex 0.799999 -1.98634 0.822769
      vertex -1.82691e-16 -1.98634 0.822769
    endloop
  endfacet
  facet normal 0 0.831471 -0.555569
    outer loop
      vertex 0.799999 -1.86195 1.075
      vertex -2.9062e-16 -1.70571 1.30884
      vertex 0.799999 -1.70571 1.30884
    endloop
  endfacet
  facet normal 0 0.831471 -0.555569
    outer loop
      vertex -2.9062e-16 -1.70571 1.30884
      vertex 0.799999 -1.86195 1.075
      vertex -2.38698e-16 -1.86195 1.075
    endloop
  endfacet
endsolid OpenSCAD_Model
