solid OpenSCAD_Model
  facet normal 0 0.0654038 -0.997859
    outer loop
      vertex 1.66533e-15 0 -7.5
      vertex 1.2 0.978946 -7.43584
      vertex 1.2 0 -7.5
    endloop
  endfacet
  facet normal 0 0.0654038 -0.997859
    outer loop
      vertex 1.2 0.978946 -7.43584
      vertex 1.66533e-15 0 -7.5
      vertex 1.65109e-15 0.978946 -7.43584
    endloop
  endfacet
  facet normal -0 0.0654038 0.997859
    outer loop
      vertex -1.65109e-15 0.978946 7.43584
      vertex 1.2 0 7.5
      vertex 1.2 0.978946 7.43584
    endloop
  endfacet
  facet normal 0 0.0654038 0.997859
    outer loop
      vertex 1.2 0 7.5
      vertex -1.65109e-15 0.978946 7.43584
      vertex -1.66533e-15 0 7.5
    endloop
  endfacet
  facet normal 1.17883e-17 0.997859 -0.0654038
    outer loop
      vertex 1.2 7.43584 -0.978946
      vertex 0 7.5 0
      vertex 1.2 7.5 2.66453e-16
    endloop
  endfacet
  facet normal 0 0.997859 -0.0654038
    outer loop
      vertex 0 7.5 0
      vertex 1.2 7.43584 -0.978946
      vertex 2.1737e-16 7.43584 -0.978946
    endloop
  endfacet
  facet normal 0 -0.997859 0.0654038
    outer loop
      vertex -2.1737e-16 -7.43584 0.978946
      vertex 1.2 -7.5 2.66453e-16
      vertex 1.2 -7.43584 0.978946
    endloop
  endfacet
  facet normal -1.45226e-17 -0.997859 0.0654038
    outer loop
      vertex 1.2 -7.5 2.66453e-16
      vertex -2.1737e-16 -7.43584 0.978946
      vertex 0 -7.5 0
    endloop
  endfacet
  facet normal 0 0.659345 -0.75184
    outer loop
      vertex 1.3212e-15 4.56571 -5.95015
      vertex 1.2 5.3033 -5.3033
      vertex 1.2 4.56571 -5.95015
    endloop
  endfacet
  facet normal 0 0.659345 -0.75184
    outer loop
      vertex 1.2 5.3033 -5.3033
      vertex 1.3212e-15 4.56571 -5.95015
      vertex 1.17757e-15 5.3033 -5.3033
    endloop
  endfacet
  facet normal 0 0.75184 0.659345
    outer loop
      vertex 1.2 5.95015 4.56571
      vertex -1.17757e-15 5.3033 5.3033
      vertex 1.2 5.3033 5.3033
    endloop
  endfacet
  facet normal 0 0.75184 0.659345
    outer loop
      vertex -1.17757e-15 5.3033 5.3033
      vertex 1.2 5.95015 4.56571
      vertex -1.01379e-15 5.95015 4.56571
    endloop
  endfacet
  facet normal 0 0.94693 0.321439
    outer loop
      vertex 1.2 7.24444 1.94114
      vertex -6.37296e-16 6.9291 2.87012
      vertex 1.2 6.9291 2.87012
    endloop
  endfacet
  facet normal 0 0.94693 0.321439
    outer loop
      vertex -6.37296e-16 6.9291 2.87012
      vertex 1.2 7.24444 1.94114
      vertex -4.3102e-16 7.24444 1.94114
    endloop
  endfacet
  facet normal 0 0.321439 -0.94693
    outer loop
      vertex 1.60859e-15 1.94114 -7.24444
      vertex 1.2 2.87012 -6.9291
      vertex 1.2 1.94114 -7.24444
    endloop
  endfacet
  facet normal 0 0.321439 -0.94693
    outer loop
      vertex 1.2 2.87012 -6.9291
      vertex 1.60859e-15 1.94114 -7.24444
      vertex 1.53857e-15 2.87012 -6.9291
    endloop
  endfacet
  facet normal 0 0.19509 -0.980785
    outer loop
      vertex 1.65109e-15 0.978946 -7.43584
      vertex 1.2 1.94114 -7.24444
      vertex 1.2 0.978946 -7.43584
    endloop
  endfacet
  facet normal 0 0.19509 -0.980785
    outer loop
      vertex 1.2 1.94114 -7.24444
      vertex 1.65109e-15 0.978946 -7.43584
      vertex 1.60859e-15 1.94114 -7.24444
    endloop
  endfacet
  facet normal 0 0.896873 -0.442289
    outer loop
      vertex 1.2 6.49519 -3.75
      vertex 6.37296e-16 6.9291 -2.87012
      vertex 1.2 6.9291 -2.87012
    endloop
  endfacet
  facet normal 0 0.896873 -0.442289
    outer loop
      vertex 6.37296e-16 6.9291 -2.87012
      vertex 1.2 6.49519 -3.75
      vertex 8.32667e-16 6.49519 -3.75
    endloop
  endfacet
  facet normal 0 0.94693 -0.321439
    outer loop
      vertex 1.2 6.9291 -2.87012
      vertex 4.3102e-16 7.24444 -1.94114
      vertex 1.2 7.24444 -1.94114
    endloop
  endfacet
  facet normal 0 0.94693 -0.321439
    outer loop
      vertex 4.3102e-16 7.24444 -1.94114
      vertex 1.2 6.9291 -2.87012
      vertex 6.37296e-16 6.9291 -2.87012
    endloop
  endfacet
  facet normal 0 0.83147 -0.55557
    outer loop
      vertex 1.2 5.95015 -4.56571
      vertex 8.32667e-16 6.49519 -3.75
      vertex 1.2 6.49519 -3.75
    endloop
  endfacet
  facet normal 0 0.83147 -0.55557
    outer loop
      vertex 8.32667e-16 6.49519 -3.75
      vertex 1.2 5.95015 -4.56571
      vertex 1.01379e-15 5.95015 -4.56571
    endloop
  endfacet
  facet normal -0 0.442289 0.896872
    outer loop
      vertex -1.44222e-15 3.75 6.49519
      vertex 1.2 2.87012 6.9291
      vertex 1.2 3.75 6.49519
    endloop
  endfacet
  facet normal 0 0.442289 0.896872
    outer loop
      vertex 1.2 2.87012 6.9291
      vertex -1.44222e-15 3.75 6.49519
      vertex -1.53857e-15 2.87012 6.9291
    endloop
  endfacet
  facet normal -0 0.659345 0.75184
    outer loop
      vertex -1.17757e-15 5.3033 5.3033
      vertex 1.2 4.56571 5.95015
      vertex 1.2 5.3033 5.3033
    endloop
  endfacet
  facet normal 0 0.659345 0.75184
    outer loop
      vertex 1.2 4.56571 5.95015
      vertex -1.17757e-15 5.3033 5.3033
      vertex -1.3212e-15 4.56571 5.95015
    endloop
  endfacet
  facet normal -0 0.321439 0.94693
    outer loop
      vertex -1.53857e-15 2.87012 6.9291
      vertex 1.2 1.94114 7.24444
      vertex 1.2 2.87012 6.9291
    endloop
  endfacet
  facet normal 0 0.321439 0.94693
    outer loop
      vertex 1.2 1.94114 7.24444
      vertex -1.53857e-15 2.87012 6.9291
      vertex -1.60859e-15 1.94114 7.24444
    endloop
  endfacet
  facet normal 0 0.980785 0.19509
    outer loop
      vertex 1.2 7.43584 0.978946
      vertex -4.3102e-16 7.24444 1.94114
      vertex 1.2 7.24444 1.94114
    endloop
  endfacet
  facet normal 0 0.980785 0.19509
    outer loop
      vertex -4.3102e-16 7.24444 1.94114
      vertex 1.2 7.43584 0.978946
      vertex -2.1737e-16 7.43584 0.978946
    endloop
  endfacet
  facet normal 0 -0.896873 -0.442289
    outer loop
      vertex 8.32667e-16 -6.49519 -3.75
      vertex 1.2 -6.9291 -2.87012
      vertex 6.37296e-16 -6.9291 -2.87012
    endloop
  endfacet
  facet normal 0 -0.896873 -0.442289
    outer loop
      vertex 1.2 -6.9291 -2.87012
      vertex 8.32667e-16 -6.49519 -3.75
      vertex 1.2 -6.49519 -3.75
    endloop
  endfacet
  facet normal 0 -0.321439 -0.94693
    outer loop
      vertex 1.2 -2.87012 -6.9291
      vertex 1.60859e-15 -1.94114 -7.24444
      vertex 1.2 -1.94114 -7.24444
    endloop
  endfacet
  facet normal 0 -0.321439 -0.94693
    outer loop
      vertex 1.60859e-15 -1.94114 -7.24444
      vertex 1.2 -2.87012 -6.9291
      vertex 1.53857e-15 -2.87012 -6.9291
    endloop
  endfacet
  facet normal 0 -0.94693 0.321439
    outer loop
      vertex -4.3102e-16 -7.24444 1.94114
      vertex 1.2 -6.9291 2.87012
      vertex -6.37296e-16 -6.9291 2.87012
    endloop
  endfacet
  facet normal 0 -0.94693 0.321439
    outer loop
      vertex 1.2 -6.9291 2.87012
      vertex -4.3102e-16 -7.24444 1.94114
      vertex 1.2 -7.24444 1.94114
    endloop
  endfacet
  facet normal -1 0 -2.22045e-16
    outer loop
      vertex 0 2.65 0
      vertex 0 7.5 0
      vertex 2.1737e-16 7.43584 -0.978946
    endloop
  endfacet
  facet normal -1 0 -2.22045e-16
    outer loop
      vertex 7.68039e-17 2.62733 -0.345894
      vertex 2.1737e-16 7.43584 -0.978946
      vertex 4.3102e-16 7.24444 -1.94114
    endloop
  endfacet
  facet normal -1 -0 -2.22045e-16
    outer loop
      vertex 0 7.5 0
      vertex 0 2.65 0
      vertex -2.1737e-16 7.43584 0.978946
    endloop
  endfacet
  facet normal -1 0 -2.22045e-16
    outer loop
      vertex 1.52294e-16 2.5597 -0.68587
      vertex 4.3102e-16 7.24444 -1.94114
      vertex 6.37296e-16 6.9291 -2.87012
    endloop
  endfacet
  facet normal -1 0 -2.22045e-16
    outer loop
      vertex -7.68039e-17 2.62733 0.345894
      vertex -2.1737e-16 7.43584 0.978946
      vertex 0 2.65 0
    endloop
  endfacet
  facet normal -1 0 -2.22045e-16
    outer loop
      vertex 2.25178e-16 2.44828 -1.01411
      vertex 6.37296e-16 6.9291 -2.87012
      vertex 8.32667e-16 6.49519 -3.75
    endloop
  endfacet
  facet normal -1 0 -2.22045e-16
    outer loop
      vertex -2.1737e-16 7.43584 0.978946
      vertex -7.68039e-17 2.62733 0.345894
      vertex -4.3102e-16 7.24444 1.94114
    endloop
  endfacet
  facet normal -1 0 -2.22045e-16
    outer loop
      vertex 2.94209e-16 2.29497 -1.325
      vertex 8.32667e-16 6.49519 -3.75
      vertex 1.01379e-15 5.95015 -4.56571
    endloop
  endfacet
  facet normal -1 0 -2.22045e-16
    outer loop
      vertex -1.52294e-16 2.5597 0.68587
      vertex -4.3102e-16 7.24444 1.94114
      vertex -7.68039e-17 2.62733 0.345894
    endloop
  endfacet
  facet normal -1 0 -2.22045e-16
    outer loop
      vertex 3.58206e-16 2.10239 -1.61322
      vertex 1.01379e-15 5.95015 -4.56571
      vertex 1.17757e-15 5.3033 -5.3033
    endloop
  endfacet
  facet normal -1 0 -2.22045e-16
    outer loop
      vertex -4.3102e-16 7.24444 1.94114
      vertex -1.52294e-16 2.5597 0.68587
      vertex -6.37296e-16 6.9291 2.87012
    endloop
  endfacet
  facet normal -1 0 -2.22045e-16
    outer loop
      vertex 4.16074e-16 1.87383 -1.87383
      vertex 1.17757e-15 5.3033 -5.3033
      vertex 1.3212e-15 4.56571 -5.95015
    endloop
  endfacet
  facet normal -1 0 -2.22045e-16
    outer loop
      vertex -2.25178e-16 2.44828 1.01411
      vertex -6.37296e-16 6.9291 2.87012
      vertex -1.52294e-16 2.5597 0.68587
    endloop
  endfacet
  facet normal -1 0 -2.22045e-16
    outer loop
      vertex 4.66823e-16 1.61322 -2.10239
      vertex 1.3212e-15 4.56571 -5.95015
      vertex 1.44222e-15 3.75 -6.49519
    endloop
  endfacet
  facet normal -1 0 -2.22045e-16
    outer loop
      vertex -6.37296e-16 6.9291 2.87012
      vertex -2.25178e-16 2.44828 1.01411
      vertex -8.32667e-16 6.49519 3.75
    endloop
  endfacet
  facet normal -1 0 -2.22045e-16
    outer loop
      vertex 5.09585e-16 1.325 -2.29497
      vertex 1.44222e-15 3.75 -6.49519
      vertex 1.53857e-15 2.87012 -6.9291
    endloop
  endfacet
  facet normal -1 0 -2.22045e-16
    outer loop
      vertex -2.94209e-16 2.29497 1.325
      vertex -8.32667e-16 6.49519 3.75
      vertex -2.25178e-16 2.44828 1.01411
    endloop
  endfacet
  facet normal -1 0 -2.22045e-16
    outer loop
      vertex -8.32667e-16 6.49519 3.75
      vertex -2.94209e-16 2.29497 1.325
      vertex -1.01379e-15 5.95015 4.56571
    endloop
  endfacet
  facet normal -1 0 -2.22045e-16
    outer loop
      vertex 2.1737e-16 7.43584 -0.978946
      vertex 7.68039e-17 2.62733 -0.345894
      vertex 0 2.65 0
    endloop
  endfacet
  facet normal -1 0 -2.22045e-16
    outer loop
      vertex 4.3102e-16 7.24444 -1.94114
      vertex 1.52294e-16 2.5597 -0.68587
      vertex 7.68039e-17 2.62733 -0.345894
    endloop
  endfacet
  facet normal -1 0 -2.22045e-16
    outer loop
      vertex 6.37296e-16 6.9291 -2.87012
      vertex 2.25178e-16 2.44828 -1.01411
      vertex 1.52294e-16 2.5597 -0.68587
    endloop
  endfacet
  facet normal -1 0 -2.22045e-16
    outer loop
      vertex 8.32667e-16 6.49519 -3.75
      vertex 2.94209e-16 2.29497 -1.325
      vertex 2.25178e-16 2.44828 -1.01411
    endloop
  endfacet
  facet normal -1 0 -2.22045e-16
    outer loop
      vertex 1.01379e-15 5.95015 -4.56571
      vertex 3.58206e-16 2.10239 -1.61322
      vertex 2.94209e-16 2.29497 -1.325
    endloop
  endfacet
  facet normal -1 0 -2.22045e-16
    outer loop
      vertex 5.43627e-16 1.01411 -2.44828
      vertex 1.53857e-15 2.87012 -6.9291
      vertex 1.60859e-15 1.94114 -7.24444
    endloop
  endfacet
  facet normal -1 0 -2.22045e-16
    outer loop
      vertex 1.17757e-15 5.3033 -5.3033
      vertex 4.16074e-16 1.87383 -1.87383
      vertex 3.58206e-16 2.10239 -1.61322
    endloop
  endfacet
  facet normal -1 0 -2.22045e-16
    outer loop
      vertex 1.3212e-15 4.56571 -5.95015
      vertex 4.66823e-16 1.61322 -2.10239
      vertex 4.16074e-16 1.87383 -1.87383
    endloop
  endfacet
  facet normal -1 0 -2.22045e-16
    outer loop
      vertex 1.44222e-15 3.75 -6.49519
      vertex 5.09585e-16 1.325 -2.29497
      vertex 4.66823e-16 1.61322 -2.10239
    endloop
  endfacet
  facet normal -1 0 -2.22045e-16
    outer loop
      vertex 1.53857e-15 2.87012 -6.9291
      vertex 5.43627e-16 1.01411 -2.44828
      vertex 5.09585e-16 1.325 -2.29497
    endloop
  endfacet
  facet normal -1 0 -2.22045e-16
    outer loop
      vertex 5.68368e-16 0.68587 -2.5597
      vertex 1.60859e-15 1.94114 -7.24444
      vertex 1.65109e-15 0.978946 -7.43584
    endloop
  endfacet
  facet normal -1 0 -2.22045e-16
    outer loop
      vertex 1.60859e-15 1.94114 -7.24444
      vertex 5.68368e-16 0.68587 -2.5597
      vertex 5.43627e-16 1.01411 -2.44828
    endloop
  endfacet
  facet normal -1 0 -2.22045e-16
    outer loop
      vertex 1.65109e-15 0.978946 -7.43584
      vertex 5.83384e-16 0.345894 -2.62733
      vertex 5.68368e-16 0.68587 -2.5597
    endloop
  endfacet
  facet normal -1 0 -2.22045e-16
    outer loop
      vertex 1.66533e-15 0 -7.5
      vertex 5.83384e-16 0.345894 -2.62733
      vertex 1.65109e-15 0.978946 -7.43584
    endloop
  endfacet
  facet normal -1 0 -2.22045e-16
    outer loop
      vertex 1.66533e-15 0 -7.5
      vertex 5.88418e-16 0 -2.65
      vertex 5.83384e-16 0.345894 -2.62733
    endloop
  endfacet
  facet normal -1 0 -2.22045e-16
    outer loop
      vertex 1.66533e-15 0 -7.5
      vertex 5.83384e-16 -0.345894 -2.62733
      vertex 5.88418e-16 0 -2.65
    endloop
  endfacet
  facet normal -1 0 -2.22045e-16
    outer loop
      vertex 1.65109e-15 -0.978946 -7.43584
      vertex 5.83384e-16 -0.345894 -2.62733
      vertex 1.66533e-15 0 -7.5
    endloop
  endfacet
  facet normal -1 0 -2.22045e-16
    outer loop
      vertex 5.83384e-16 -0.345894 -2.62733
      vertex 1.65109e-15 -0.978946 -7.43584
      vertex 5.68368e-16 -0.68587 -2.5597
    endloop
  endfacet
  facet normal -1 0 -2.22045e-16
    outer loop
      vertex 1.60859e-15 -1.94114 -7.24444
      vertex 5.68368e-16 -0.68587 -2.5597
      vertex 1.65109e-15 -0.978946 -7.43584
    endloop
  endfacet
  facet normal -1 0 -2.22045e-16
    outer loop
      vertex 5.68368e-16 -0.68587 -2.5597
      vertex 1.60859e-15 -1.94114 -7.24444
      vertex 5.43627e-16 -1.01411 -2.44828
    endloop
  endfacet
  facet normal -1 0 -2.22045e-16
    outer loop
      vertex 1.53857e-15 -2.87012 -6.9291
      vertex 5.43627e-16 -1.01411 -2.44828
      vertex 1.60859e-15 -1.94114 -7.24444
    endloop
  endfacet
  facet normal -1 0 -2.22045e-16
    outer loop
      vertex 5.43627e-16 -1.01411 -2.44828
      vertex 1.53857e-15 -2.87012 -6.9291
      vertex 5.09585e-16 -1.325 -2.29497
    endloop
  endfacet
  facet normal -1 0 -2.22045e-16
    outer loop
      vertex 1.44222e-15 -3.75 -6.49519
      vertex 5.09585e-16 -1.325 -2.29497
      vertex 1.53857e-15 -2.87012 -6.9291
    endloop
  endfacet
  facet normal -1 0 -2.22045e-16
    outer loop
      vertex 5.09585e-16 -1.325 -2.29497
      vertex 1.44222e-15 -3.75 -6.49519
      vertex 4.66823e-16 -1.61322 -2.10239
    endloop
  endfacet
  facet normal -1 0 -2.22045e-16
    outer loop
      vertex 1.3212e-15 -4.56571 -5.95015
      vertex 4.66823e-16 -1.61322 -2.10239
      vertex 1.44222e-15 -3.75 -6.49519
    endloop
  endfacet
  facet normal -1 0 -2.22045e-16
    outer loop
      vertex 4.66823e-16 -1.61322 -2.10239
      vertex 1.3212e-15 -4.56571 -5.95015
      vertex 4.16074e-16 -1.87383 -1.87383
    endloop
  endfacet
  facet normal -1 0 -2.22045e-16
    outer loop
      vertex 1.17757e-15 -5.3033 -5.3033
      vertex 4.16074e-16 -1.87383 -1.87383
      vertex 1.3212e-15 -4.56571 -5.95015
    endloop
  endfacet
  facet normal -1 0 -2.22045e-16
    outer loop
      vertex 4.16074e-16 -1.87383 -1.87383
      vertex 1.17757e-15 -5.3033 -5.3033
      vertex 3.58206e-16 -2.10239 -1.61322
    endloop
  endfacet
  facet normal -1 0 -2.22045e-16
    outer loop
      vertex 3.58206e-16 -2.10239 -1.61322
      vertex 1.01379e-15 -5.95015 -4.56571
      vertex 2.94209e-16 -2.29497 -1.325
    endloop
  endfacet
  facet normal -1 0 -2.22045e-16
    outer loop
      vertex 1.01379e-15 -5.95015 -4.56571
      vertex 3.58206e-16 -2.10239 -1.61322
      vertex 1.17757e-15 -5.3033 -5.3033
    endloop
  endfacet
  facet normal -1 0 -2.22045e-16
    outer loop
      vertex -3.58206e-16 2.10239 1.61322
      vertex -1.01379e-15 5.95015 4.56571
      vertex -2.94209e-16 2.29497 1.325
    endloop
  endfacet
  facet normal -1 0 -2.22045e-16
    outer loop
      vertex -1.01379e-15 5.95015 4.56571
      vertex -3.58206e-16 2.10239 1.61322
      vertex -1.17757e-15 5.3033 5.3033
    endloop
  endfacet
  facet normal -1 0 -2.22045e-16
    outer loop
      vertex -4.16074e-16 1.87383 1.87383
      vertex -1.17757e-15 5.3033 5.3033
      vertex -3.58206e-16 2.10239 1.61322
    endloop
  endfacet
  facet normal -1 0 -2.22045e-16
    outer loop
      vertex -1.17757e-15 5.3033 5.3033
      vertex -4.16074e-16 1.87383 1.87383
      vertex -1.3212e-15 4.56571 5.95015
    endloop
  endfacet
  facet normal -1 0 -2.22045e-16
    outer loop
      vertex -4.66823e-16 1.61322 2.10239
      vertex -1.3212e-15 4.56571 5.95015
      vertex -4.16074e-16 1.87383 1.87383
    endloop
  endfacet
  facet normal -1 0 -2.22045e-16
    outer loop
      vertex -1.3212e-15 4.56571 5.95015
      vertex -4.66823e-16 1.61322 2.10239
      vertex -1.44222e-15 3.75 6.49519
    endloop
  endfacet
  facet normal -1 0 -2.22045e-16
    outer loop
      vertex -5.09585e-16 1.325 2.29497
      vertex -1.44222e-15 3.75 6.49519
      vertex -4.66823e-16 1.61322 2.10239
    endloop
  endfacet
  facet normal -1 0 -2.22045e-16
    outer loop
      vertex -1.44222e-15 3.75 6.49519
      vertex -5.09585e-16 1.325 2.29497
      vertex -1.53857e-15 2.87012 6.9291
    endloop
  endfacet
  facet normal -1 0 -2.22045e-16
    outer loop
      vertex -5.43627e-16 1.01411 2.44828
      vertex -1.53857e-15 2.87012 6.9291
      vertex -5.09585e-16 1.325 2.29497
    endloop
  endfacet
  facet normal -1 0 -2.22045e-16
    outer loop
      vertex -1.53857e-15 2.87012 6.9291
      vertex -5.43627e-16 1.01411 2.44828
      vertex -1.60859e-15 1.94114 7.24444
    endloop
  endfacet
  facet normal -1 0 -2.22045e-16
    outer loop
      vertex -5.68368e-16 0.68587 2.5597
      vertex -1.60859e-15 1.94114 7.24444
      vertex -5.43627e-16 1.01411 2.44828
    endloop
  endfacet
  facet normal -1 0 -2.22045e-16
    outer loop
      vertex -1.60859e-15 1.94114 7.24444
      vertex -5.68368e-16 0.68587 2.5597
      vertex -1.65109e-15 0.978946 7.43584
    endloop
  endfacet
  facet normal -1 0 -2.22045e-16
    outer loop
      vertex -5.83384e-16 0.345894 2.62733
      vertex -1.65109e-15 0.978946 7.43584
      vertex -5.68368e-16 0.68587 2.5597
    endloop
  endfacet
  facet normal -1 0 -2.22045e-16
    outer loop
      vertex -5.88418e-16 0 2.65
      vertex -1.65109e-15 0.978946 7.43584
      vertex -5.83384e-16 0.345894 2.62733
    endloop
  endfacet
  facet normal -1 0 -2.22045e-16
    outer loop
      vertex -5.88418e-16 0 2.65
      vertex -1.66533e-15 0 7.5
      vertex -1.65109e-15 0.978946 7.43584
    endloop
  endfacet
  facet normal -1 0 -2.22045e-16
    outer loop
      vertex -5.83384e-16 -0.345894 2.62733
      vertex -1.66533e-15 0 7.5
      vertex -5.88418e-16 0 2.65
    endloop
  endfacet
  facet normal -1 0 -2.22045e-16
    outer loop
      vertex -1.65109e-15 -0.978946 7.43584
      vertex -5.83384e-16 -0.345894 2.62733
      vertex -5.68368e-16 -0.68587 2.5597
    endloop
  endfacet
  facet normal -1 0 -2.22045e-16
    outer loop
      vertex -5.83384e-16 -0.345894 2.62733
      vertex -1.65109e-15 -0.978946 7.43584
      vertex -1.66533e-15 0 7.5
    endloop
  endfacet
  facet normal -1 0 -2.22045e-16
    outer loop
      vertex -1.60859e-15 -1.94114 7.24444
      vertex -5.68368e-16 -0.68587 2.5597
      vertex -5.43627e-16 -1.01411 2.44828
    endloop
  endfacet
  facet normal -1 0 -2.22045e-16
    outer loop
      vertex -1.53857e-15 -2.87012 6.9291
      vertex -5.43627e-16 -1.01411 2.44828
      vertex -5.09585e-16 -1.325 2.29497
    endloop
  endfacet
  facet normal -1 0 -2.22045e-16
    outer loop
      vertex -1.44222e-15 -3.75 6.49519
      vertex -5.09585e-16 -1.325 2.29497
      vertex -4.66823e-16 -1.61322 2.10239
    endloop
  endfacet
  facet normal -1 0 -2.22045e-16
    outer loop
      vertex -1.3212e-15 -4.56571 5.95015
      vertex -4.66823e-16 -1.61322 2.10239
      vertex -4.16074e-16 -1.87383 1.87383
    endloop
  endfacet
  facet normal -1 0 -2.22045e-16
    outer loop
      vertex -5.68368e-16 -0.68587 2.5597
      vertex -1.60859e-15 -1.94114 7.24444
      vertex -1.65109e-15 -0.978946 7.43584
    endloop
  endfacet
  facet normal -1 0 -2.22045e-16
    outer loop
      vertex -1.17757e-15 -5.3033 5.3033
      vertex -4.16074e-16 -1.87383 1.87383
      vertex -3.58206e-16 -2.10239 1.61322
    endloop
  endfacet
  facet normal -1 0 -2.22045e-16
    outer loop
      vertex -1.01379e-15 -5.95015 4.56571
      vertex -3.58206e-16 -2.10239 1.61322
      vertex -2.94209e-16 -2.29497 1.325
    endloop
  endfacet
  facet normal -1 0 -2.22045e-16
    outer loop
      vertex -8.32667e-16 -6.49519 3.75
      vertex -2.94209e-16 -2.29497 1.325
      vertex -2.25178e-16 -2.44828 1.01411
    endloop
  endfacet
  facet normal -1 0 -2.22045e-16
    outer loop
      vertex -6.37296e-16 -6.9291 2.87012
      vertex -2.25178e-16 -2.44828 1.01411
      vertex -1.52294e-16 -2.5597 0.68587
    endloop
  endfacet
  facet normal -1 0 -2.22045e-16
    outer loop
      vertex -4.3102e-16 -7.24444 1.94114
      vertex -1.52294e-16 -2.5597 0.68587
      vertex -7.68039e-17 -2.62733 0.345894
    endloop
  endfacet
  facet normal -1 0 -2.22045e-16
    outer loop
      vertex -5.43627e-16 -1.01411 2.44828
      vertex -1.53857e-15 -2.87012 6.9291
      vertex -1.60859e-15 -1.94114 7.24444
    endloop
  endfacet
  facet normal -1 0 -2.22045e-16
    outer loop
      vertex -2.1737e-16 -7.43584 0.978946
      vertex -7.68039e-17 -2.62733 0.345894
      vertex 0 -2.65 0
    endloop
  endfacet
  facet normal -1 0 -2.22045e-16
    outer loop
      vertex 8.32667e-16 -6.49519 -3.75
      vertex 2.94209e-16 -2.29497 -1.325
      vertex 1.01379e-15 -5.95015 -4.56571
    endloop
  endfacet
  facet normal -1 0 -2.22045e-16
    outer loop
      vertex -5.09585e-16 -1.325 2.29497
      vertex -1.44222e-15 -3.75 6.49519
      vertex -1.53857e-15 -2.87012 6.9291
    endloop
  endfacet
  facet normal -1 0 -2.22045e-16
    outer loop
      vertex 2.94209e-16 -2.29497 -1.325
      vertex 8.32667e-16 -6.49519 -3.75
      vertex 2.25178e-16 -2.44828 -1.01411
    endloop
  endfacet
  facet normal -1 0 -2.22045e-16
    outer loop
      vertex 6.37296e-16 -6.9291 -2.87012
      vertex 2.25178e-16 -2.44828 -1.01411
      vertex 8.32667e-16 -6.49519 -3.75
    endloop
  endfacet
  facet normal -1 0 -2.22045e-16
    outer loop
      vertex -4.66823e-16 -1.61322 2.10239
      vertex -1.3212e-15 -4.56571 5.95015
      vertex -1.44222e-15 -3.75 6.49519
    endloop
  endfacet
  facet normal -1 0 -2.22045e-16
    outer loop
      vertex 2.25178e-16 -2.44828 -1.01411
      vertex 6.37296e-16 -6.9291 -2.87012
      vertex 1.52294e-16 -2.5597 -0.68587
    endloop
  endfacet
  facet normal -1 0 -2.22045e-16
    outer loop
      vertex -4.16074e-16 -1.87383 1.87383
      vertex -1.17757e-15 -5.3033 5.3033
      vertex -1.3212e-15 -4.56571 5.95015
    endloop
  endfacet
  facet normal -1 0 -2.22045e-16
    outer loop
      vertex 4.3102e-16 -7.24444 -1.94114
      vertex 1.52294e-16 -2.5597 -0.68587
      vertex 6.37296e-16 -6.9291 -2.87012
    endloop
  endfacet
  facet normal -1 0 -2.22045e-16
    outer loop
      vertex -3.58206e-16 -2.10239 1.61322
      vertex -1.01379e-15 -5.95015 4.56571
      vertex -1.17757e-15 -5.3033 5.3033
    endloop
  endfacet
  facet normal -1 0 -2.22045e-16
    outer loop
      vertex 1.52294e-16 -2.5597 -0.68587
      vertex 4.3102e-16 -7.24444 -1.94114
      vertex 7.68039e-17 -2.62733 -0.345894
    endloop
  endfacet
  facet normal -1 0 -2.22045e-16
    outer loop
      vertex -2.94209e-16 -2.29497 1.325
      vertex -8.32667e-16 -6.49519 3.75
      vertex -1.01379e-15 -5.95015 4.56571
    endloop
  endfacet
  facet normal -1 0 -2.22045e-16
    outer loop
      vertex 2.1737e-16 -7.43584 -0.978946
      vertex 7.68039e-17 -2.62733 -0.345894
      vertex 4.3102e-16 -7.24444 -1.94114
    endloop
  endfacet
  facet normal -1 0 -2.22045e-16
    outer loop
      vertex -2.25178e-16 -2.44828 1.01411
      vertex -6.37296e-16 -6.9291 2.87012
      vertex -8.32667e-16 -6.49519 3.75
    endloop
  endfacet
  facet normal -1 0 -2.22045e-16
    outer loop
      vertex 7.68039e-17 -2.62733 -0.345894
      vertex 2.1737e-16 -7.43584 -0.978946
      vertex 0 -2.65 0
    endloop
  endfacet
  facet normal -1 0 -2.22045e-16
    outer loop
      vertex -1.52294e-16 -2.5597 0.68587
      vertex -4.3102e-16 -7.24444 1.94114
      vertex -6.37296e-16 -6.9291 2.87012
    endloop
  endfacet
  facet normal -1 0 -2.22045e-16
    outer loop
      vertex 0 -7.5 0
      vertex 0 -2.65 0
      vertex 2.1737e-16 -7.43584 -0.978946
    endloop
  endfacet
  facet normal -1 0 -2.22045e-16
    outer loop
      vertex -7.68039e-17 -2.62733 0.345894
      vertex -2.1737e-16 -7.43584 0.978946
      vertex -4.3102e-16 -7.24444 1.94114
    endloop
  endfacet
  facet normal -1 -0 -2.22045e-16
    outer loop
      vertex 0 -2.65 0
      vertex 0 -7.5 0
      vertex -2.1737e-16 -7.43584 0.978946
    endloop
  endfacet
  facet normal 0 0.55557 -0.83147
    outer loop
      vertex 1.44222e-15 3.75 -6.49519
      vertex 1.2 4.56571 -5.95015
      vertex 1.2 3.75 -6.49519
    endloop
  endfacet
  facet normal 0 0.55557 -0.83147
    outer loop
      vertex 1.2 4.56571 -5.95015
      vertex 1.44222e-15 3.75 -6.49519
      vertex 1.3212e-15 4.56571 -5.95015
    endloop
  endfacet
  facet normal 0 0.442289 -0.896872
    outer loop
      vertex 1.53857e-15 2.87012 -6.9291
      vertex 1.2 3.75 -6.49519
      vertex 1.2 2.87012 -6.9291
    endloop
  endfacet
  facet normal 0 0.442289 -0.896872
    outer loop
      vertex 1.2 3.75 -6.49519
      vertex 1.53857e-15 2.87012 -6.9291
      vertex 1.44222e-15 3.75 -6.49519
    endloop
  endfacet
  facet normal 0 0.980785 -0.19509
    outer loop
      vertex 1.2 7.24444 -1.94114
      vertex 2.1737e-16 7.43584 -0.978946
      vertex 1.2 7.43584 -0.978946
    endloop
  endfacet
  facet normal 0 0.980785 -0.19509
    outer loop
      vertex 2.1737e-16 7.43584 -0.978946
      vertex 1.2 7.24444 -1.94114
      vertex 4.3102e-16 7.24444 -1.94114
    endloop
  endfacet
  facet normal 0 0.75184 -0.659345
    outer loop
      vertex 1.2 5.3033 -5.3033
      vertex 1.01379e-15 5.95015 -4.56571
      vertex 1.2 5.95015 -4.56571
    endloop
  endfacet
  facet normal 0 0.75184 -0.659345
    outer loop
      vertex 1.01379e-15 5.95015 -4.56571
      vertex 1.2 5.3033 -5.3033
      vertex 1.17757e-15 5.3033 -5.3033
    endloop
  endfacet
  facet normal -0 0.55557 0.83147
    outer loop
      vertex -1.3212e-15 4.56571 5.95015
      vertex 1.2 3.75 6.49519
      vertex 1.2 4.56571 5.95015
    endloop
  endfacet
  facet normal 0 0.55557 0.83147
    outer loop
      vertex 1.2 3.75 6.49519
      vertex -1.3212e-15 4.56571 5.95015
      vertex -1.44222e-15 3.75 6.49519
    endloop
  endfacet
  facet normal -0 0.19509 0.980785
    outer loop
      vertex -1.60859e-15 1.94114 7.24444
      vertex 1.2 0.978946 7.43584
      vertex 1.2 1.94114 7.24444
    endloop
  endfacet
  facet normal 0 0.19509 0.980785
    outer loop
      vertex 1.2 0.978946 7.43584
      vertex -1.60859e-15 1.94114 7.24444
      vertex -1.65109e-15 0.978946 7.43584
    endloop
  endfacet
  facet normal 1 0 0
    outer loop
      vertex 1.2 2.65 2.66453e-16
      vertex 1.2 7.5 2.66453e-16
      vertex 1.2 7.43584 0.978946
    endloop
  endfacet
  facet normal 1 0 0
    outer loop
      vertex 1.2 2.62733 0.345894
      vertex 1.2 7.43584 0.978946
      vertex 1.2 7.24444 1.94114
    endloop
  endfacet
  facet normal 1 0 0
    outer loop
      vertex 1.2 7.5 2.66453e-16
      vertex 1.2 2.65 2.66453e-16
      vertex 1.2 7.43584 -0.978946
    endloop
  endfacet
  facet normal 1 0 0
    outer loop
      vertex 1.2 2.5597 0.68587
      vertex 1.2 7.24444 1.94114
      vertex 1.2 6.9291 2.87012
    endloop
  endfacet
  facet normal 1 -0 0
    outer loop
      vertex 1.2 2.62733 -0.345894
      vertex 1.2 7.43584 -0.978946
      vertex 1.2 2.65 2.66453e-16
    endloop
  endfacet
  facet normal 1 0 0
    outer loop
      vertex 1.2 2.44828 1.01411
      vertex 1.2 6.9291 2.87012
      vertex 1.2 6.49519 3.75
    endloop
  endfacet
  facet normal 1 0 0
    outer loop
      vertex 1.2 7.43584 -0.978946
      vertex 1.2 2.62733 -0.345894
      vertex 1.2 7.24444 -1.94114
    endloop
  endfacet
  facet normal 1 0 0
    outer loop
      vertex 1.2 2.29497 1.325
      vertex 1.2 6.49519 3.75
      vertex 1.2 5.95015 4.56571
    endloop
  endfacet
  facet normal 1 -0 0
    outer loop
      vertex 1.2 2.5597 -0.68587
      vertex 1.2 7.24444 -1.94114
      vertex 1.2 2.62733 -0.345894
    endloop
  endfacet
  facet normal 1 0 0
    outer loop
      vertex 1.2 2.10239 1.61322
      vertex 1.2 5.95015 4.56571
      vertex 1.2 5.3033 5.3033
    endloop
  endfacet
  facet normal 1 0 0
    outer loop
      vertex 1.2 7.24444 -1.94114
      vertex 1.2 2.5597 -0.68587
      vertex 1.2 6.9291 -2.87012
    endloop
  endfacet
  facet normal 1 0 0
    outer loop
      vertex 1.2 1.87383 1.87383
      vertex 1.2 5.3033 5.3033
      vertex 1.2 4.56571 5.95015
    endloop
  endfacet
  facet normal 1 -0 0
    outer loop
      vertex 1.2 2.44828 -1.01411
      vertex 1.2 6.9291 -2.87012
      vertex 1.2 2.5597 -0.68587
    endloop
  endfacet
  facet normal 1 0 0
    outer loop
      vertex 1.2 1.61322 2.10239
      vertex 1.2 4.56571 5.95015
      vertex 1.2 3.75 6.49519
    endloop
  endfacet
  facet normal 1 0 0
    outer loop
      vertex 1.2 6.9291 -2.87012
      vertex 1.2 2.44828 -1.01411
      vertex 1.2 6.49519 -3.75
    endloop
  endfacet
  facet normal 1 0 0
    outer loop
      vertex 1.2 1.325 2.29497
      vertex 1.2 3.75 6.49519
      vertex 1.2 2.87012 6.9291
    endloop
  endfacet
  facet normal 1 -0 0
    outer loop
      vertex 1.2 2.29497 -1.325
      vertex 1.2 6.49519 -3.75
      vertex 1.2 2.44828 -1.01411
    endloop
  endfacet
  facet normal 1 0 0
    outer loop
      vertex 1.2 6.49519 -3.75
      vertex 1.2 2.29497 -1.325
      vertex 1.2 5.95015 -4.56571
    endloop
  endfacet
  facet normal 1 0 0
    outer loop
      vertex 1.2 7.43584 0.978946
      vertex 1.2 2.62733 0.345894
      vertex 1.2 2.65 2.66453e-16
    endloop
  endfacet
  facet normal 1 0 0
    outer loop
      vertex 1.2 7.24444 1.94114
      vertex 1.2 2.5597 0.68587
      vertex 1.2 2.62733 0.345894
    endloop
  endfacet
  facet normal 1 0 0
    outer loop
      vertex 1.2 6.9291 2.87012
      vertex 1.2 2.44828 1.01411
      vertex 1.2 2.5597 0.68587
    endloop
  endfacet
  facet normal 1 0 0
    outer loop
      vertex 1.2 6.49519 3.75
      vertex 1.2 2.29497 1.325
      vertex 1.2 2.44828 1.01411
    endloop
  endfacet
  facet normal 1 0 0
    outer loop
      vertex 1.2 5.95015 4.56571
      vertex 1.2 2.10239 1.61322
      vertex 1.2 2.29497 1.325
    endloop
  endfacet
  facet normal 1 0 0
    outer loop
      vertex 1.2 1.01411 2.44828
      vertex 1.2 2.87012 6.9291
      vertex 1.2 1.94114 7.24444
    endloop
  endfacet
  facet normal 1 0 0
    outer loop
      vertex 1.2 5.3033 5.3033
      vertex 1.2 1.87383 1.87383
      vertex 1.2 2.10239 1.61322
    endloop
  endfacet
  facet normal 1 0 0
    outer loop
      vertex 1.2 4.56571 5.95015
      vertex 1.2 1.61322 2.10239
      vertex 1.2 1.87383 1.87383
    endloop
  endfacet
  facet normal 1 0 0
    outer loop
      vertex 1.2 3.75 6.49519
      vertex 1.2 1.325 2.29497
      vertex 1.2 1.61322 2.10239
    endloop
  endfacet
  facet normal 1 0 0
    outer loop
      vertex 1.2 2.87012 6.9291
      vertex 1.2 1.01411 2.44828
      vertex 1.2 1.325 2.29497
    endloop
  endfacet
  facet normal 1 0 0
    outer loop
      vertex 1.2 0.68587 2.5597
      vertex 1.2 1.94114 7.24444
      vertex 1.2 0.978946 7.43584
    endloop
  endfacet
  facet normal 1 0 0
    outer loop
      vertex 1.2 1.94114 7.24444
      vertex 1.2 0.68587 2.5597
      vertex 1.2 1.01411 2.44828
    endloop
  endfacet
  facet normal 1 0 0
    outer loop
      vertex 1.2 0.978946 7.43584
      vertex 1.2 0.345894 2.62733
      vertex 1.2 0.68587 2.5597
    endloop
  endfacet
  facet normal 1 0 0
    outer loop
      vertex 1.2 0 7.5
      vertex 1.2 0.345894 2.62733
      vertex 1.2 0.978946 7.43584
    endloop
  endfacet
  facet normal 1 0 0
    outer loop
      vertex 1.2 0 7.5
      vertex 1.2 0 2.65
      vertex 1.2 0.345894 2.62733
    endloop
  endfacet
  facet normal 1 0 0
    outer loop
      vertex 1.2 0 7.5
      vertex 1.2 -0.345894 2.62733
      vertex 1.2 0 2.65
    endloop
  endfacet
  facet normal 1 -0 0
    outer loop
      vertex 1.2 -0.978946 7.43584
      vertex 1.2 -0.345894 2.62733
      vertex 1.2 0 7.5
    endloop
  endfacet
  facet normal 1 0 0
    outer loop
      vertex 1.2 -0.345894 2.62733
      vertex 1.2 -0.978946 7.43584
      vertex 1.2 -0.68587 2.5597
    endloop
  endfacet
  facet normal 1 -0 0
    outer loop
      vertex 1.2 -1.94114 7.24444
      vertex 1.2 -0.68587 2.5597
      vertex 1.2 -0.978946 7.43584
    endloop
  endfacet
  facet normal 1 0 0
    outer loop
      vertex 1.2 -0.68587 2.5597
      vertex 1.2 -1.94114 7.24444
      vertex 1.2 -1.01411 2.44828
    endloop
  endfacet
  facet normal 1 -0 0
    outer loop
      vertex 1.2 -2.87012 6.9291
      vertex 1.2 -1.01411 2.44828
      vertex 1.2 -1.94114 7.24444
    endloop
  endfacet
  facet normal 1 0 0
    outer loop
      vertex 1.2 -1.01411 2.44828
      vertex 1.2 -2.87012 6.9291
      vertex 1.2 -1.325 2.29497
    endloop
  endfacet
  facet normal 1 -0 0
    outer loop
      vertex 1.2 -3.75 6.49519
      vertex 1.2 -1.325 2.29497
      vertex 1.2 -2.87012 6.9291
    endloop
  endfacet
  facet normal 1 0 0
    outer loop
      vertex 1.2 -1.325 2.29497
      vertex 1.2 -3.75 6.49519
      vertex 1.2 -1.61322 2.10239
    endloop
  endfacet
  facet normal 1 -0 0
    outer loop
      vertex 1.2 -4.56571 5.95015
      vertex 1.2 -1.61322 2.10239
      vertex 1.2 -3.75 6.49519
    endloop
  endfacet
  facet normal 1 0 0
    outer loop
      vertex 1.2 -1.61322 2.10239
      vertex 1.2 -4.56571 5.95015
      vertex 1.2 -1.87383 1.87383
    endloop
  endfacet
  facet normal 1 -0 0
    outer loop
      vertex 1.2 -5.3033 5.3033
      vertex 1.2 -1.87383 1.87383
      vertex 1.2 -4.56571 5.95015
    endloop
  endfacet
  facet normal 1 0 0
    outer loop
      vertex 1.2 -1.87383 1.87383
      vertex 1.2 -5.3033 5.3033
      vertex 1.2 -2.10239 1.61322
    endloop
  endfacet
  facet normal 1 0 0
    outer loop
      vertex 1.2 -2.10239 1.61322
      vertex 1.2 -5.95015 4.56571
      vertex 1.2 -2.29497 1.325
    endloop
  endfacet
  facet normal 1 -0 0
    outer loop
      vertex 1.2 -5.95015 4.56571
      vertex 1.2 -2.10239 1.61322
      vertex 1.2 -5.3033 5.3033
    endloop
  endfacet
  facet normal 1 -0 0
    outer loop
      vertex 1.2 2.10239 -1.61322
      vertex 1.2 5.95015 -4.56571
      vertex 1.2 2.29497 -1.325
    endloop
  endfacet
  facet normal 1 0 0
    outer loop
      vertex 1.2 5.95015 -4.56571
      vertex 1.2 2.10239 -1.61322
      vertex 1.2 5.3033 -5.3033
    endloop
  endfacet
  facet normal 1 -0 0
    outer loop
      vertex 1.2 1.87383 -1.87383
      vertex 1.2 5.3033 -5.3033
      vertex 1.2 2.10239 -1.61322
    endloop
  endfacet
  facet normal 1 0 0
    outer loop
      vertex 1.2 5.3033 -5.3033
      vertex 1.2 1.87383 -1.87383
      vertex 1.2 4.56571 -5.95015
    endloop
  endfacet
  facet normal 1 -0 0
    outer loop
      vertex 1.2 1.61322 -2.10239
      vertex 1.2 4.56571 -5.95015
      vertex 1.2 1.87383 -1.87383
    endloop
  endfacet
  facet normal 1 0 0
    outer loop
      vertex 1.2 4.56571 -5.95015
      vertex 1.2 1.61322 -2.10239
      vertex 1.2 3.75 -6.49519
    endloop
  endfacet
  facet normal 1 -0 0
    outer loop
      vertex 1.2 1.325 -2.29497
      vertex 1.2 3.75 -6.49519
      vertex 1.2 1.61322 -2.10239
    endloop
  endfacet
  facet normal 1 0 0
    outer loop
      vertex 1.2 3.75 -6.49519
      vertex 1.2 1.325 -2.29497
      vertex 1.2 2.87012 -6.9291
    endloop
  endfacet
  facet normal 1 -0 0
    outer loop
      vertex 1.2 1.01411 -2.44828
      vertex 1.2 2.87012 -6.9291
      vertex 1.2 1.325 -2.29497
    endloop
  endfacet
  facet normal 1 0 0
    outer loop
      vertex 1.2 2.87012 -6.9291
      vertex 1.2 1.01411 -2.44828
      vertex 1.2 1.94114 -7.24444
    endloop
  endfacet
  facet normal 1 -0 0
    outer loop
      vertex 1.2 0.68587 -2.5597
      vertex 1.2 1.94114 -7.24444
      vertex 1.2 1.01411 -2.44828
    endloop
  endfacet
  facet normal 1 0 0
    outer loop
      vertex 1.2 1.94114 -7.24444
      vertex 1.2 0.68587 -2.5597
      vertex 1.2 0.978946 -7.43584
    endloop
  endfacet
  facet normal 1 -0 0
    outer loop
      vertex 1.2 0.345894 -2.62733
      vertex 1.2 0.978946 -7.43584
      vertex 1.2 0.68587 -2.5597
    endloop
  endfacet
  facet normal 1 -0 0
    outer loop
      vertex 1.2 0 -2.65
      vertex 1.2 0.978946 -7.43584
      vertex 1.2 0.345894 -2.62733
    endloop
  endfacet
  facet normal 1 0 0
    outer loop
      vertex 1.2 0 -2.65
      vertex 1.2 0 -7.5
      vertex 1.2 0.978946 -7.43584
    endloop
  endfacet
  facet normal 1 0 0
    outer loop
      vertex 1.2 -0.345894 -2.62733
      vertex 1.2 0 -7.5
      vertex 1.2 0 -2.65
    endloop
  endfacet
  facet normal 1 0 0
    outer loop
      vertex 1.2 -0.978946 -7.43584
      vertex 1.2 -0.345894 -2.62733
      vertex 1.2 -0.68587 -2.5597
    endloop
  endfacet
  facet normal 1 0 0
    outer loop
      vertex 1.2 -0.345894 -2.62733
      vertex 1.2 -0.978946 -7.43584
      vertex 1.2 0 -7.5
    endloop
  endfacet
  facet normal 1 0 0
    outer loop
      vertex 1.2 -1.94114 -7.24444
      vertex 1.2 -0.68587 -2.5597
      vertex 1.2 -1.01411 -2.44828
    endloop
  endfacet
  facet normal 1 0 0
    outer loop
      vertex 1.2 -2.87012 -6.9291
      vertex 1.2 -1.01411 -2.44828
      vertex 1.2 -1.325 -2.29497
    endloop
  endfacet
  facet normal 1 0 0
    outer loop
      vertex 1.2 -3.75 -6.49519
      vertex 1.2 -1.325 -2.29497
      vertex 1.2 -1.61322 -2.10239
    endloop
  endfacet
  facet normal 1 0 0
    outer loop
      vertex 1.2 -4.56571 -5.95015
      vertex 1.2 -1.61322 -2.10239
      vertex 1.2 -1.87383 -1.87383
    endloop
  endfacet
  facet normal 1 0 0
    outer loop
      vertex 1.2 -0.68587 -2.5597
      vertex 1.2 -1.94114 -7.24444
      vertex 1.2 -0.978946 -7.43584
    endloop
  endfacet
  facet normal 1 0 0
    outer loop
      vertex 1.2 -5.3033 -5.3033
      vertex 1.2 -1.87383 -1.87383
      vertex 1.2 -2.10239 -1.61322
    endloop
  endfacet
  facet normal 1 0 0
    outer loop
      vertex 1.2 -5.95015 -4.56571
      vertex 1.2 -2.10239 -1.61322
      vertex 1.2 -2.29497 -1.325
    endloop
  endfacet
  facet normal 1 0 0
    outer loop
      vertex 1.2 -6.49519 -3.75
      vertex 1.2 -2.29497 -1.325
      vertex 1.2 -2.44828 -1.01411
    endloop
  endfacet
  facet normal 1 0 0
    outer loop
      vertex 1.2 -6.9291 -2.87012
      vertex 1.2 -2.44828 -1.01411
      vertex 1.2 -2.5597 -0.68587
    endloop
  endfacet
  facet normal 1 0 0
    outer loop
      vertex 1.2 -7.24444 -1.94114
      vertex 1.2 -2.5597 -0.68587
      vertex 1.2 -2.62733 -0.345894
    endloop
  endfacet
  facet normal 1 0 0
    outer loop
      vertex 1.2 -1.01411 -2.44828
      vertex 1.2 -2.87012 -6.9291
      vertex 1.2 -1.94114 -7.24444
    endloop
  endfacet
  facet normal 1 0 0
    outer loop
      vertex 1.2 -7.43584 -0.978946
      vertex 1.2 -2.62733 -0.345894
      vertex 1.2 -2.65 2.66453e-16
    endloop
  endfacet
  facet normal 1 -0 0
    outer loop
      vertex 1.2 -6.49519 3.75
      vertex 1.2 -2.29497 1.325
      vertex 1.2 -5.95015 4.56571
    endloop
  endfacet
  facet normal 1 0 0
    outer loop
      vertex 1.2 -2.29497 1.325
      vertex 1.2 -6.49519 3.75
      vertex 1.2 -2.44828 1.01411
    endloop
  endfacet
  facet normal 1 0 0
    outer loop
      vertex 1.2 -1.325 -2.29497
      vertex 1.2 -3.75 -6.49519
      vertex 1.2 -2.87012 -6.9291
    endloop
  endfacet
  facet normal 1 -0 0
    outer loop
      vertex 1.2 -6.9291 2.87012
      vertex 1.2 -2.44828 1.01411
      vertex 1.2 -6.49519 3.75
    endloop
  endfacet
  facet normal 1 0 0
    outer loop
      vertex 1.2 -1.61322 -2.10239
      vertex 1.2 -4.56571 -5.95015
      vertex 1.2 -3.75 -6.49519
    endloop
  endfacet
  facet normal 1 0 0
    outer loop
      vertex 1.2 -2.44828 1.01411
      vertex 1.2 -6.9291 2.87012
      vertex 1.2 -2.5597 0.68587
    endloop
  endfacet
  facet normal 1 0 0
    outer loop
      vertex 1.2 -1.87383 -1.87383
      vertex 1.2 -5.3033 -5.3033
      vertex 1.2 -4.56571 -5.95015
    endloop
  endfacet
  facet normal 1 -0 0
    outer loop
      vertex 1.2 -7.24444 1.94114
      vertex 1.2 -2.5597 0.68587
      vertex 1.2 -6.9291 2.87012
    endloop
  endfacet
  facet normal 1 0 0
    outer loop
      vertex 1.2 -2.10239 -1.61322
      vertex 1.2 -5.95015 -4.56571
      vertex 1.2 -5.3033 -5.3033
    endloop
  endfacet
  facet normal 1 0 0
    outer loop
      vertex 1.2 -2.5597 0.68587
      vertex 1.2 -7.24444 1.94114
      vertex 1.2 -2.62733 0.345894
    endloop
  endfacet
  facet normal 1 0 0
    outer loop
      vertex 1.2 -2.29497 -1.325
      vertex 1.2 -6.49519 -3.75
      vertex 1.2 -5.95015 -4.56571
    endloop
  endfacet
  facet normal 1 -0 0
    outer loop
      vertex 1.2 -7.43584 0.978946
      vertex 1.2 -2.62733 0.345894
      vertex 1.2 -7.24444 1.94114
    endloop
  endfacet
  facet normal 1 0 0
    outer loop
      vertex 1.2 -2.44828 -1.01411
      vertex 1.2 -6.9291 -2.87012
      vertex 1.2 -6.49519 -3.75
    endloop
  endfacet
  facet normal 1 0 0
    outer loop
      vertex 1.2 -2.62733 0.345894
      vertex 1.2 -7.43584 0.978946
      vertex 1.2 -2.65 2.66453e-16
    endloop
  endfacet
  facet normal 1 0 0
    outer loop
      vertex 1.2 -2.5597 -0.68587
      vertex 1.2 -7.24444 -1.94114
      vertex 1.2 -6.9291 -2.87012
    endloop
  endfacet
  facet normal 1 0 0
    outer loop
      vertex 1.2 -7.5 2.66453e-16
      vertex 1.2 -2.65 2.66453e-16
      vertex 1.2 -7.43584 0.978946
    endloop
  endfacet
  facet normal 1 0 0
    outer loop
      vertex 1.2 -2.62733 -0.345894
      vertex 1.2 -7.43584 -0.978946
      vertex 1.2 -7.24444 -1.94114
    endloop
  endfacet
  facet normal 1 0 0
    outer loop
      vertex 1.2 -2.65 2.66453e-16
      vertex 1.2 -7.5 2.66453e-16
      vertex 1.2 -7.43584 -0.978946
    endloop
  endfacet
  facet normal 0 0.896872 0.442289
    outer loop
      vertex 1.2 6.9291 2.87012
      vertex -8.32667e-16 6.49519 3.75
      vertex 1.2 6.49519 3.75
    endloop
  endfacet
  facet normal 0 0.896872 0.442289
    outer loop
      vertex -8.32667e-16 6.49519 3.75
      vertex 1.2 6.9291 2.87012
      vertex -6.37296e-16 6.9291 2.87012
    endloop
  endfacet
  facet normal 0 0.83147 0.55557
    outer loop
      vertex 1.2 6.49519 3.75
      vertex -1.01379e-15 5.95015 4.56571
      vertex 1.2 5.95015 4.56571
    endloop
  endfacet
  facet normal 0 0.83147 0.55557
    outer loop
      vertex -1.01379e-15 5.95015 4.56571
      vertex 1.2 6.49519 3.75
      vertex -8.32667e-16 6.49519 3.75
    endloop
  endfacet
  facet normal 0 0.997859 0.0654038
    outer loop
      vertex 1.2 7.5 2.66453e-16
      vertex -2.1737e-16 7.43584 0.978946
      vertex 1.2 7.43584 0.978946
    endloop
  endfacet
  facet normal -1.17883e-17 0.997859 0.0654038
    outer loop
      vertex -2.1737e-16 7.43584 0.978946
      vertex 1.2 7.5 2.66453e-16
      vertex 0 7.5 0
    endloop
  endfacet
  facet normal 0 -0.0654038 -0.997859
    outer loop
      vertex 1.2 -0.978946 -7.43584
      vertex 1.66533e-15 0 -7.5
      vertex 1.2 0 -7.5
    endloop
  endfacet
  facet normal 0 -0.0654038 -0.997859
    outer loop
      vertex 1.66533e-15 0 -7.5
      vertex 1.2 -0.978946 -7.43584
      vertex 1.65109e-15 -0.978946 -7.43584
    endloop
  endfacet
  facet normal 1.17883e-17 -0.997859 -0.0654038
    outer loop
      vertex 2.1737e-16 -7.43584 -0.978946
      vertex 1.2 -7.5 2.66453e-16
      vertex 0 -7.5 0
    endloop
  endfacet
  facet normal 0 -0.997859 -0.0654038
    outer loop
      vertex 1.2 -7.5 2.66453e-16
      vertex 2.1737e-16 -7.43584 -0.978946
      vertex 1.2 -7.43584 -0.978946
    endloop
  endfacet
  facet normal 0 -0.94693 -0.321439
    outer loop
      vertex 6.37296e-16 -6.9291 -2.87012
      vertex 1.2 -7.24444 -1.94114
      vertex 4.3102e-16 -7.24444 -1.94114
    endloop
  endfacet
  facet normal 0 -0.94693 -0.321439
    outer loop
      vertex 1.2 -7.24444 -1.94114
      vertex 6.37296e-16 -6.9291 -2.87012
      vertex 1.2 -6.9291 -2.87012
    endloop
  endfacet
  facet normal 0 -0.83147 -0.55557
    outer loop
      vertex 1.01379e-15 -5.95015 -4.56571
      vertex 1.2 -6.49519 -3.75
      vertex 8.32667e-16 -6.49519 -3.75
    endloop
  endfacet
  facet normal 0 -0.83147 -0.55557
    outer loop
      vertex 1.2 -6.49519 -3.75
      vertex 1.01379e-15 -5.95015 -4.56571
      vertex 1.2 -5.95015 -4.56571
    endloop
  endfacet
  facet normal 0 -0.659345 -0.75184
    outer loop
      vertex 1.2 -5.3033 -5.3033
      vertex 1.3212e-15 -4.56571 -5.95015
      vertex 1.2 -4.56571 -5.95015
    endloop
  endfacet
  facet normal 0 -0.659345 -0.75184
    outer loop
      vertex 1.3212e-15 -4.56571 -5.95015
      vertex 1.2 -5.3033 -5.3033
      vertex 1.17757e-15 -5.3033 -5.3033
    endloop
  endfacet
  facet normal 0 -0.442289 -0.896873
    outer loop
      vertex 1.2 -3.75 -6.49519
      vertex 1.53857e-15 -2.87012 -6.9291
      vertex 1.2 -2.87012 -6.9291
    endloop
  endfacet
  facet normal 0 -0.442289 -0.896873
    outer loop
      vertex 1.53857e-15 -2.87012 -6.9291
      vertex 1.2 -3.75 -6.49519
      vertex 1.44222e-15 -3.75 -6.49519
    endloop
  endfacet
  facet normal 0 -0.75184 0.659345
    outer loop
      vertex -1.01379e-15 -5.95015 4.56571
      vertex 1.2 -5.3033 5.3033
      vertex -1.17757e-15 -5.3033 5.3033
    endloop
  endfacet
  facet normal 0 -0.75184 0.659345
    outer loop
      vertex 1.2 -5.3033 5.3033
      vertex -1.01379e-15 -5.95015 4.56571
      vertex 1.2 -5.95015 4.56571
    endloop
  endfacet
  facet normal 0 -0.896873 0.442289
    outer loop
      vertex -6.37296e-16 -6.9291 2.87012
      vertex 1.2 -6.49519 3.75
      vertex -8.32667e-16 -6.49519 3.75
    endloop
  endfacet
  facet normal 0 -0.896873 0.442289
    outer loop
      vertex 1.2 -6.49519 3.75
      vertex -6.37296e-16 -6.9291 2.87012
      vertex 1.2 -6.9291 2.87012
    endloop
  endfacet
  facet normal 0 -0.980785 0.19509
    outer loop
      vertex -2.1737e-16 -7.43584 0.978946
      vertex 1.2 -7.24444 1.94114
      vertex -4.3102e-16 -7.24444 1.94114
    endloop
  endfacet
  facet normal 0 -0.980785 0.19509
    outer loop
      vertex 1.2 -7.24444 1.94114
      vertex -2.1737e-16 -7.43584 0.978946
      vertex 1.2 -7.43584 0.978946
    endloop
  endfacet
  facet normal 0 -0.442289 0.896872
    outer loop
      vertex 1.2 -2.87012 6.9291
      vertex -1.44222e-15 -3.75 6.49519
      vertex 1.2 -3.75 6.49519
    endloop
  endfacet
  facet normal 0 -0.442289 0.896872
    outer loop
      vertex -1.44222e-15 -3.75 6.49519
      vertex 1.2 -2.87012 6.9291
      vertex -1.53857e-15 -2.87012 6.9291
    endloop
  endfacet
  facet normal 0 -0.659345 0.75184
    outer loop
      vertex 1.2 -4.56571 5.95015
      vertex -1.17757e-15 -5.3033 5.3033
      vertex 1.2 -5.3033 5.3033
    endloop
  endfacet
  facet normal 0 -0.659345 0.75184
    outer loop
      vertex -1.17757e-15 -5.3033 5.3033
      vertex 1.2 -4.56571 5.95015
      vertex -1.3212e-15 -4.56571 5.95015
    endloop
  endfacet
  facet normal 0 -0.321439 0.94693
    outer loop
      vertex 1.2 -1.94114 7.24444
      vertex -1.53857e-15 -2.87012 6.9291
      vertex 1.2 -2.87012 6.9291
    endloop
  endfacet
  facet normal 0 -0.321439 0.94693
    outer loop
      vertex -1.53857e-15 -2.87012 6.9291
      vertex 1.2 -1.94114 7.24444
      vertex -1.60859e-15 -1.94114 7.24444
    endloop
  endfacet
  facet normal 0 -0.0654038 0.997859
    outer loop
      vertex 1.2 0 7.5
      vertex -1.65109e-15 -0.978946 7.43584
      vertex 1.2 -0.978946 7.43584
    endloop
  endfacet
  facet normal 0 -0.0654038 0.997859
    outer loop
      vertex -1.65109e-15 -0.978946 7.43584
      vertex 1.2 0 7.5
      vertex -1.66533e-15 0 7.5
    endloop
  endfacet
  facet normal 0 -0.980785 -0.19509
    outer loop
      vertex 4.3102e-16 -7.24444 -1.94114
      vertex 1.2 -7.43584 -0.978946
      vertex 2.1737e-16 -7.43584 -0.978946
    endloop
  endfacet
  facet normal 0 -0.980785 -0.19509
    outer loop
      vertex 1.2 -7.43584 -0.978946
      vertex 4.3102e-16 -7.24444 -1.94114
      vertex 1.2 -7.24444 -1.94114
    endloop
  endfacet
  facet normal 0 -0.75184 -0.659345
    outer loop
      vertex 1.17757e-15 -5.3033 -5.3033
      vertex 1.2 -5.95015 -4.56571
      vertex 1.01379e-15 -5.95015 -4.56571
    endloop
  endfacet
  facet normal 0 -0.75184 -0.659345
    outer loop
      vertex 1.2 -5.95015 -4.56571
      vertex 1.17757e-15 -5.3033 -5.3033
      vertex 1.2 -5.3033 -5.3033
    endloop
  endfacet
  facet normal 0 -0.55557 -0.83147
    outer loop
      vertex 1.2 -4.56571 -5.95015
      vertex 1.44222e-15 -3.75 -6.49519
      vertex 1.2 -3.75 -6.49519
    endloop
  endfacet
  facet normal 0 -0.55557 -0.83147
    outer loop
      vertex 1.44222e-15 -3.75 -6.49519
      vertex 1.2 -4.56571 -5.95015
      vertex 1.3212e-15 -4.56571 -5.95015
    endloop
  endfacet
  facet normal 0 -0.19509 -0.980785
    outer loop
      vertex 1.2 -1.94114 -7.24444
      vertex 1.65109e-15 -0.978946 -7.43584
      vertex 1.2 -0.978946 -7.43584
    endloop
  endfacet
  facet normal 0 -0.19509 -0.980785
    outer loop
      vertex 1.65109e-15 -0.978946 -7.43584
      vertex 1.2 -1.94114 -7.24444
      vertex 1.60859e-15 -1.94114 -7.24444
    endloop
  endfacet
  facet normal 0 -0.83147 0.55557
    outer loop
      vertex -8.32667e-16 -6.49519 3.75
      vertex 1.2 -5.95015 4.56571
      vertex -1.01379e-15 -5.95015 4.56571
    endloop
  endfacet
  facet normal 0 -0.83147 0.55557
    outer loop
      vertex 1.2 -5.95015 4.56571
      vertex -8.32667e-16 -6.49519 3.75
      vertex 1.2 -6.49519 3.75
    endloop
  endfacet
  facet normal 0 -0.55557 0.83147
    outer loop
      vertex 1.2 -3.75 6.49519
      vertex -1.3212e-15 -4.56571 5.95015
      vertex 1.2 -4.56571 5.95015
    endloop
  endfacet
  facet normal 0 -0.55557 0.83147
    outer loop
      vertex -1.3212e-15 -4.56571 5.95015
      vertex 1.2 -3.75 6.49519
      vertex -1.44222e-15 -3.75 6.49519
    endloop
  endfacet
  facet normal 0 -0.19509 0.980785
    outer loop
      vertex 1.2 -0.978946 7.43584
      vertex -1.60859e-15 -1.94114 7.24444
      vertex 1.2 -1.94114 7.24444
    endloop
  endfacet
  facet normal 0 -0.19509 0.980785
    outer loop
      vertex -1.60859e-15 -1.94114 7.24444
      vertex 1.2 -0.978946 7.43584
      vertex -1.65109e-15 -0.978946 7.43584
    endloop
  endfacet
  facet normal 0 -0.0654022 0.997859
    outer loop
      vertex 1.2 0.345894 -2.62733
      vertex 5.88418e-16 0 -2.65
      vertex 1.2 0 -2.65
    endloop
  endfacet
  facet normal 0 -0.0654022 0.997859
    outer loop
      vertex 5.88418e-16 0 -2.65
      vertex 1.2 0.345894 -2.62733
      vertex 5.83384e-16 0.345894 -2.62733
    endloop
  endfacet
  facet normal 0 -0.0654022 -0.997859
    outer loop
      vertex 1.2 0 2.65
      vertex -5.83384e-16 0.345894 2.62733
      vertex 1.2 0.345894 2.62733
    endloop
  endfacet
  facet normal 0 -0.0654022 -0.997859
    outer loop
      vertex -5.83384e-16 0.345894 2.62733
      vertex 1.2 0 2.65
      vertex -5.88418e-16 0 2.65
    endloop
  endfacet
  facet normal 0 -0.997859 -0.0654022
    outer loop
      vertex -7.68039e-17 2.62733 0.345894
      vertex 1.2 2.65 2.66453e-16
      vertex 1.2 2.62733 0.345894
    endloop
  endfacet
  facet normal 1.45222e-17 -0.997859 -0.0654022
    outer loop
      vertex 1.2 2.65 2.66453e-16
      vertex -7.68039e-17 2.62733 0.345894
      vertex 0 2.65 0
    endloop
  endfacet
  facet normal -1.66815e-17 0.997859 0.0654022
    outer loop
      vertex 1.2 -2.62733 -0.345894
      vertex 0 -2.65 0
      vertex 1.2 -2.65 2.66453e-16
    endloop
  endfacet
  facet normal 0 0.997859 0.0654022
    outer loop
      vertex 0 -2.65 0
      vertex 1.2 -2.62733 -0.345894
      vertex 7.68039e-17 -2.62733 -0.345894
    endloop
  endfacet
  facet normal 0 -0.751841 0.659345
    outer loop
      vertex 4.16074e-16 1.87383 -1.87383
      vertex 1.2 2.10239 -1.61322
      vertex 3.58206e-16 2.10239 -1.61322
    endloop
  endfacet
  facet normal 0 -0.751841 0.659345
    outer loop
      vertex 1.2 2.10239 -1.61322
      vertex 4.16074e-16 1.87383 -1.87383
      vertex 1.2 1.87383 -1.87383
    endloop
  endfacet
  facet normal 0 -0.751841 -0.659345
    outer loop
      vertex -3.58206e-16 2.10239 1.61322
      vertex 1.2 1.87383 1.87383
      vertex -4.16074e-16 1.87383 1.87383
    endloop
  endfacet
  facet normal 0 -0.751841 -0.659345
    outer loop
      vertex 1.2 1.87383 1.87383
      vertex -3.58206e-16 2.10239 1.61322
      vertex 1.2 2.10239 1.61322
    endloop
  endfacet
  facet normal 0 -0.94693 -0.321439
    outer loop
      vertex -1.52294e-16 2.5597 0.68587
      vertex 1.2 2.44828 1.01411
      vertex -2.25178e-16 2.44828 1.01411
    endloop
  endfacet
  facet normal 0 -0.94693 -0.321439
    outer loop
      vertex 1.2 2.44828 1.01411
      vertex -1.52294e-16 2.5597 0.68587
      vertex 1.2 2.5597 0.68587
    endloop
  endfacet
  facet normal -0 0.555571 0.831469
    outer loop
      vertex 5.09585e-16 -1.325 -2.29497
      vertex 1.2 -1.61322 -2.10239
      vertex 1.2 -1.325 -2.29497
    endloop
  endfacet
  facet normal 0 0.555571 0.831469
    outer loop
      vertex 1.2 -1.61322 -2.10239
      vertex 5.09585e-16 -1.325 -2.29497
      vertex 4.66823e-16 -1.61322 -2.10239
    endloop
  endfacet
  facet normal 0 -0.442289 0.896873
    outer loop
      vertex 1.2 1.325 -2.29497
      vertex 5.43627e-16 1.01411 -2.44828
      vertex 1.2 1.01411 -2.44828
    endloop
  endfacet
  facet normal 0 -0.442289 0.896873
    outer loop
      vertex 5.43627e-16 1.01411 -2.44828
      vertex 1.2 1.325 -2.29497
      vertex 5.09585e-16 1.325 -2.29497
    endloop
  endfacet
  facet normal 0 -0.94693 0.321439
    outer loop
      vertex 2.25178e-16 2.44828 -1.01411
      vertex 1.2 2.5597 -0.68587
      vertex 1.52294e-16 2.5597 -0.68587
    endloop
  endfacet
  facet normal 0 -0.94693 0.321439
    outer loop
      vertex 1.2 2.5597 -0.68587
      vertex 2.25178e-16 2.44828 -1.01411
      vertex 1.2 2.44828 -1.01411
    endloop
  endfacet
  facet normal 0 -0.980785 0.195092
    outer loop
      vertex 1.52294e-16 2.5597 -0.68587
      vertex 1.2 2.62733 -0.345894
      vertex 7.68039e-17 2.62733 -0.345894
    endloop
  endfacet
  facet normal 0 -0.980785 0.195092
    outer loop
      vertex 1.2 2.62733 -0.345894
      vertex 1.52294e-16 2.5597 -0.68587
      vertex 1.2 2.5597 -0.68587
    endloop
  endfacet
  facet normal 0 -0.831469 0.555571
    outer loop
      vertex 3.58206e-16 2.10239 -1.61322
      vertex 1.2 2.29497 -1.325
      vertex 2.94209e-16 2.29497 -1.325
    endloop
  endfacet
  facet normal 0 -0.831469 0.555571
    outer loop
      vertex 1.2 2.29497 -1.325
      vertex 3.58206e-16 2.10239 -1.61322
      vertex 1.2 2.10239 -1.61322
    endloop
  endfacet
  facet normal 0 -0.442289 -0.896873
    outer loop
      vertex 1.2 1.01411 2.44828
      vertex -5.09585e-16 1.325 2.29497
      vertex 1.2 1.325 2.29497
    endloop
  endfacet
  facet normal 0 -0.442289 -0.896873
    outer loop
      vertex -5.09585e-16 1.325 2.29497
      vertex 1.2 1.01411 2.44828
      vertex -5.43627e-16 1.01411 2.44828
    endloop
  endfacet
  facet normal 0 -0.555571 -0.831469
    outer loop
      vertex 1.2 1.325 2.29497
      vertex -4.66823e-16 1.61322 2.10239
      vertex 1.2 1.61322 2.10239
    endloop
  endfacet
  facet normal 0 -0.555571 -0.831469
    outer loop
      vertex -4.66823e-16 1.61322 2.10239
      vertex 1.2 1.325 2.29497
      vertex -5.09585e-16 1.325 2.29497
    endloop
  endfacet
  facet normal 0 -0.896873 -0.442289
    outer loop
      vertex -2.25178e-16 2.44828 1.01411
      vertex 1.2 2.29497 1.325
      vertex -2.94209e-16 2.29497 1.325
    endloop
  endfacet
  facet normal 0 -0.896873 -0.442289
    outer loop
      vertex 1.2 2.29497 1.325
      vertex -2.25178e-16 2.44828 1.01411
      vertex 1.2 2.44828 1.01411
    endloop
  endfacet
  facet normal 0 -0.980785 -0.195092
    outer loop
      vertex -7.68039e-17 2.62733 0.345894
      vertex 1.2 2.5597 0.68587
      vertex -1.52294e-16 2.5597 0.68587
    endloop
  endfacet
  facet normal 0 -0.980785 -0.195092
    outer loop
      vertex 1.2 2.5597 0.68587
      vertex -7.68039e-17 2.62733 0.345894
      vertex 1.2 2.62733 0.345894
    endloop
  endfacet
  facet normal 0 0.980785 0.195092
    outer loop
      vertex 1.2 -2.5597 -0.68587
      vertex 7.68039e-17 -2.62733 -0.345894
      vertex 1.2 -2.62733 -0.345894
    endloop
  endfacet
  facet normal 0 0.980785 0.195092
    outer loop
      vertex 7.68039e-17 -2.62733 -0.345894
      vertex 1.2 -2.5597 -0.68587
      vertex 1.52294e-16 -2.5597 -0.68587
    endloop
  endfacet
  facet normal 0 -0.321439 0.94693
    outer loop
      vertex 1.2 1.01411 -2.44828
      vertex 5.68368e-16 0.68587 -2.5597
      vertex 1.2 0.68587 -2.5597
    endloop
  endfacet
  facet normal 0 -0.321439 0.94693
    outer loop
      vertex 5.68368e-16 0.68587 -2.5597
      vertex 1.2 1.01411 -2.44828
      vertex 5.43627e-16 1.01411 -2.44828
    endloop
  endfacet
  facet normal 0 -0.195092 0.980785
    outer loop
      vertex 1.2 0.68587 -2.5597
      vertex 5.83384e-16 0.345894 -2.62733
      vertex 1.2 0.345894 -2.62733
    endloop
  endfacet
  facet normal 0 -0.195092 0.980785
    outer loop
      vertex 5.83384e-16 0.345894 -2.62733
      vertex 1.2 0.68587 -2.5597
      vertex 5.68368e-16 0.68587 -2.5597
    endloop
  endfacet
  facet normal 0 -0.659345 0.751841
    outer loop
      vertex 1.2 1.87383 -1.87383
      vertex 4.66823e-16 1.61322 -2.10239
      vertex 1.2 1.61322 -2.10239
    endloop
  endfacet
  facet normal 0 -0.659345 0.751841
    outer loop
      vertex 4.66823e-16 1.61322 -2.10239
      vertex 1.2 1.87383 -1.87383
      vertex 4.16074e-16 1.87383 -1.87383
    endloop
  endfacet
  facet normal 0 -0.555571 0.831469
    outer loop
      vertex 1.2 1.61322 -2.10239
      vertex 5.09585e-16 1.325 -2.29497
      vertex 1.2 1.325 -2.29497
    endloop
  endfacet
  facet normal 0 -0.555571 0.831469
    outer loop
      vertex 5.09585e-16 1.325 -2.29497
      vertex 1.2 1.61322 -2.10239
      vertex 4.66823e-16 1.61322 -2.10239
    endloop
  endfacet
  facet normal -1.66815e-17 -0.997859 0.0654022
    outer loop
      vertex 7.68039e-17 2.62733 -0.345894
      vertex 1.2 2.65 2.66453e-16
      vertex 0 2.65 0
    endloop
  endfacet
  facet normal 0 -0.997859 0.0654022
    outer loop
      vertex 1.2 2.65 2.66453e-16
      vertex 7.68039e-17 2.62733 -0.345894
      vertex 1.2 2.62733 -0.345894
    endloop
  endfacet
  facet normal 0 -0.659345 -0.751841
    outer loop
      vertex 1.2 1.61322 2.10239
      vertex -4.16074e-16 1.87383 1.87383
      vertex 1.2 1.87383 1.87383
    endloop
  endfacet
  facet normal 0 -0.659345 -0.751841
    outer loop
      vertex -4.16074e-16 1.87383 1.87383
      vertex 1.2 1.61322 2.10239
      vertex -4.66823e-16 1.61322 2.10239
    endloop
  endfacet
  facet normal 0 -0.321439 -0.94693
    outer loop
      vertex 1.2 0.68587 2.5597
      vertex -5.43627e-16 1.01411 2.44828
      vertex 1.2 1.01411 2.44828
    endloop
  endfacet
  facet normal 0 -0.321439 -0.94693
    outer loop
      vertex -5.43627e-16 1.01411 2.44828
      vertex 1.2 0.68587 2.5597
      vertex -5.68368e-16 0.68587 2.5597
    endloop
  endfacet
  facet normal 0 -0.195092 -0.980785
    outer loop
      vertex 1.2 0.345894 2.62733
      vertex -5.68368e-16 0.68587 2.5597
      vertex 1.2 0.68587 2.5597
    endloop
  endfacet
  facet normal 0 -0.195092 -0.980785
    outer loop
      vertex -5.68368e-16 0.68587 2.5597
      vertex 1.2 0.345894 2.62733
      vertex -5.83384e-16 0.345894 2.62733
    endloop
  endfacet
  facet normal -0 0.0654022 0.997859
    outer loop
      vertex 5.88418e-16 0 -2.65
      vertex 1.2 -0.345894 -2.62733
      vertex 1.2 0 -2.65
    endloop
  endfacet
  facet normal 0 0.0654022 0.997859
    outer loop
      vertex 1.2 -0.345894 -2.62733
      vertex 5.88418e-16 0 -2.65
      vertex 5.83384e-16 -0.345894 -2.62733
    endloop
  endfacet
  facet normal -0 0.659345 0.751841
    outer loop
      vertex 4.66823e-16 -1.61322 -2.10239
      vertex 1.2 -1.87383 -1.87383
      vertex 1.2 -1.61322 -2.10239
    endloop
  endfacet
  facet normal 0 0.659345 0.751841
    outer loop
      vertex 1.2 -1.87383 -1.87383
      vertex 4.66823e-16 -1.61322 -2.10239
      vertex 4.16074e-16 -1.87383 -1.87383
    endloop
  endfacet
  facet normal 0 0.555571 -0.831469
    outer loop
      vertex -4.66823e-16 -1.61322 2.10239
      vertex 1.2 -1.325 2.29497
      vertex 1.2 -1.61322 2.10239
    endloop
  endfacet
  facet normal 0 0.555571 -0.831469
    outer loop
      vertex 1.2 -1.325 2.29497
      vertex -4.66823e-16 -1.61322 2.10239
      vertex -5.09585e-16 -1.325 2.29497
    endloop
  endfacet
  facet normal 0 0.442289 -0.896873
    outer loop
      vertex -5.09585e-16 -1.325 2.29497
      vertex 1.2 -1.01411 2.44828
      vertex 1.2 -1.325 2.29497
    endloop
  endfacet
  facet normal 0 0.442289 -0.896873
    outer loop
      vertex 1.2 -1.01411 2.44828
      vertex -5.09585e-16 -1.325 2.29497
      vertex -5.43627e-16 -1.01411 2.44828
    endloop
  endfacet
  facet normal 0 0.0654022 -0.997859
    outer loop
      vertex -5.83384e-16 -0.345894 2.62733
      vertex 1.2 0 2.65
      vertex 1.2 -0.345894 2.62733
    endloop
  endfacet
  facet normal 0 0.0654022 -0.997859
    outer loop
      vertex 1.2 0 2.65
      vertex -5.83384e-16 -0.345894 2.62733
      vertex -5.88418e-16 0 2.65
    endloop
  endfacet
  facet normal 0 0.896873 0.442289
    outer loop
      vertex 1.2 -2.29497 -1.325
      vertex 2.25178e-16 -2.44828 -1.01411
      vertex 1.2 -2.44828 -1.01411
    endloop
  endfacet
  facet normal 0 0.896873 0.442289
    outer loop
      vertex 2.25178e-16 -2.44828 -1.01411
      vertex 1.2 -2.29497 -1.325
      vertex 2.94209e-16 -2.29497 -1.325
    endloop
  endfacet
  facet normal 0 -0.896873 0.442289
    outer loop
      vertex 2.94209e-16 2.29497 -1.325
      vertex 1.2 2.44828 -1.01411
      vertex 2.25178e-16 2.44828 -1.01411
    endloop
  endfacet
  facet normal 0 -0.896873 0.442289
    outer loop
      vertex 1.2 2.44828 -1.01411
      vertex 2.94209e-16 2.29497 -1.325
      vertex 1.2 2.29497 -1.325
    endloop
  endfacet
  facet normal 0 -0.831469 -0.555571
    outer loop
      vertex -2.94209e-16 2.29497 1.325
      vertex 1.2 2.10239 1.61322
      vertex -3.58206e-16 2.10239 1.61322
    endloop
  endfacet
  facet normal 0 -0.831469 -0.555571
    outer loop
      vertex 1.2 2.10239 1.61322
      vertex -2.94209e-16 2.29497 1.325
      vertex 1.2 2.29497 1.325
    endloop
  endfacet
  facet normal 0 0.831469 0.555571
    outer loop
      vertex 1.2 -2.10239 -1.61322
      vertex 2.94209e-16 -2.29497 -1.325
      vertex 1.2 -2.29497 -1.325
    endloop
  endfacet
  facet normal 0 0.831469 0.555571
    outer loop
      vertex 2.94209e-16 -2.29497 -1.325
      vertex 1.2 -2.10239 -1.61322
      vertex 3.58206e-16 -2.10239 -1.61322
    endloop
  endfacet
  facet normal 0 0.195092 -0.980785
    outer loop
      vertex -5.68368e-16 -0.68587 2.5597
      vertex 1.2 -0.345894 2.62733
      vertex 1.2 -0.68587 2.5597
    endloop
  endfacet
  facet normal 0 0.195092 -0.980785
    outer loop
      vertex 1.2 -0.345894 2.62733
      vertex -5.68368e-16 -0.68587 2.5597
      vertex -5.83384e-16 -0.345894 2.62733
    endloop
  endfacet
  facet normal 0 0.321439 -0.94693
    outer loop
      vertex -5.43627e-16 -1.01411 2.44828
      vertex 1.2 -0.68587 2.5597
      vertex 1.2 -1.01411 2.44828
    endloop
  endfacet
  facet normal 0 0.321439 -0.94693
    outer loop
      vertex 1.2 -0.68587 2.5597
      vertex -5.43627e-16 -1.01411 2.44828
      vertex -5.68368e-16 -0.68587 2.5597
    endloop
  endfacet
  facet normal 0 0.94693 0.321439
    outer loop
      vertex 1.2 -2.44828 -1.01411
      vertex 1.52294e-16 -2.5597 -0.68587
      vertex 1.2 -2.5597 -0.68587
    endloop
  endfacet
  facet normal 0 0.94693 0.321439
    outer loop
      vertex 1.52294e-16 -2.5597 -0.68587
      vertex 1.2 -2.44828 -1.01411
      vertex 2.25178e-16 -2.44828 -1.01411
    endloop
  endfacet
  facet normal -0 0.321439 0.94693
    outer loop
      vertex 5.68368e-16 -0.68587 -2.5597
      vertex 1.2 -1.01411 -2.44828
      vertex 1.2 -0.68587 -2.5597
    endloop
  endfacet
  facet normal 0 0.321439 0.94693
    outer loop
      vertex 1.2 -1.01411 -2.44828
      vertex 5.68368e-16 -0.68587 -2.5597
      vertex 5.43627e-16 -1.01411 -2.44828
    endloop
  endfacet
  facet normal -0 0.442289 0.896873
    outer loop
      vertex 5.43627e-16 -1.01411 -2.44828
      vertex 1.2 -1.325 -2.29497
      vertex 1.2 -1.01411 -2.44828
    endloop
  endfacet
  facet normal 0 0.442289 0.896873
    outer loop
      vertex 1.2 -1.325 -2.29497
      vertex 5.43627e-16 -1.01411 -2.44828
      vertex 5.09585e-16 -1.325 -2.29497
    endloop
  endfacet
  facet normal -0 0.195092 0.980785
    outer loop
      vertex 5.83384e-16 -0.345894 -2.62733
      vertex 1.2 -0.68587 -2.5597
      vertex 1.2 -0.345894 -2.62733
    endloop
  endfacet
  facet normal 0 0.195092 0.980785
    outer loop
      vertex 1.2 -0.68587 -2.5597
      vertex 5.83384e-16 -0.345894 -2.62733
      vertex 5.68368e-16 -0.68587 -2.5597
    endloop
  endfacet
  facet normal 0 0.751841 0.659345
    outer loop
      vertex 1.2 -1.87383 -1.87383
      vertex 3.58206e-16 -2.10239 -1.61322
      vertex 1.2 -2.10239 -1.61322
    endloop
  endfacet
  facet normal 0 0.751841 0.659345
    outer loop
      vertex 3.58206e-16 -2.10239 -1.61322
      vertex 1.2 -1.87383 -1.87383
      vertex 4.16074e-16 -1.87383 -1.87383
    endloop
  endfacet
  facet normal 0 0.997859 -0.0654022
    outer loop
      vertex 1.2 -2.65 2.66453e-16
      vertex -7.68039e-17 -2.62733 0.345894
      vertex 1.2 -2.62733 0.345894
    endloop
  endfacet
  facet normal 1.66815e-17 0.997859 -0.0654022
    outer loop
      vertex -7.68039e-17 -2.62733 0.345894
      vertex 1.2 -2.65 2.66453e-16
      vertex 0 -2.65 0
    endloop
  endfacet
  facet normal 0 0.94693 -0.321439
    outer loop
      vertex 1.2 -2.5597 0.68587
      vertex -2.25178e-16 -2.44828 1.01411
      vertex 1.2 -2.44828 1.01411
    endloop
  endfacet
  facet normal 0 0.94693 -0.321439
    outer loop
      vertex -2.25178e-16 -2.44828 1.01411
      vertex 1.2 -2.5597 0.68587
      vertex -1.52294e-16 -2.5597 0.68587
    endloop
  endfacet
  facet normal 0 0.896873 -0.442289
    outer loop
      vertex 1.2 -2.44828 1.01411
      vertex -2.94209e-16 -2.29497 1.325
      vertex 1.2 -2.29497 1.325
    endloop
  endfacet
  facet normal 0 0.896873 -0.442289
    outer loop
      vertex -2.94209e-16 -2.29497 1.325
      vertex 1.2 -2.44828 1.01411
      vertex -2.25178e-16 -2.44828 1.01411
    endloop
  endfacet
  facet normal 0 0.751841 -0.659345
    outer loop
      vertex 1.2 -2.10239 1.61322
      vertex -4.16074e-16 -1.87383 1.87383
      vertex 1.2 -1.87383 1.87383
    endloop
  endfacet
  facet normal 0 0.751841 -0.659345
    outer loop
      vertex -4.16074e-16 -1.87383 1.87383
      vertex 1.2 -2.10239 1.61322
      vertex -3.58206e-16 -2.10239 1.61322
    endloop
  endfacet
  facet normal 0 0.659345 -0.751841
    outer loop
      vertex -4.16074e-16 -1.87383 1.87383
      vertex 1.2 -1.61322 2.10239
      vertex 1.2 -1.87383 1.87383
    endloop
  endfacet
  facet normal 0 0.659345 -0.751841
    outer loop
      vertex 1.2 -1.61322 2.10239
      vertex -4.16074e-16 -1.87383 1.87383
      vertex -4.66823e-16 -1.61322 2.10239
    endloop
  endfacet
  facet normal 0 0.980785 -0.195092
    outer loop
      vertex 1.2 -2.62733 0.345894
      vertex -1.52294e-16 -2.5597 0.68587
      vertex 1.2 -2.5597 0.68587
    endloop
  endfacet
  facet normal 0 0.980785 -0.195092
    outer loop
      vertex -1.52294e-16 -2.5597 0.68587
      vertex 1.2 -2.62733 0.345894
      vertex -7.68039e-17 -2.62733 0.345894
    endloop
  endfacet
  facet normal 0 0.831469 -0.555571
    outer loop
      vertex 1.2 -2.29497 1.325
      vertex -3.58206e-16 -2.10239 1.61322
      vertex 1.2 -2.10239 1.61322
    endloop
  endfacet
  facet normal 0 0.831469 -0.555571
    outer loop
      vertex -3.58206e-16 -2.10239 1.61322
      vertex 1.2 -2.29497 1.325
      vertex -2.94209e-16 -2.29497 1.325
    endloop
  endfacet
endsolid OpenSCAD_Model
