solid OpenSCAD_Model
  facet normal 0 0.0654039 -0.997859
    outer loop
      vertex 5.55112e-16 0 -2.5
      vertex 7 0.326315 -2.47861
      vertex 7 0 -2.5
    endloop
  endfacet
  facet normal 0 0.0654039 -0.997859
    outer loop
      vertex 7 0.326315 -2.47861
      vertex 5.55112e-16 0 -2.5
      vertex 5.50362e-16 0.326315 -2.47861
    endloop
  endfacet
  facet normal -0 0.0654039 0.997859
    outer loop
      vertex -5.50362e-16 0.326315 2.47861
      vertex 7 0 2.5
      vertex 7 0.326315 2.47861
    endloop
  endfacet
  facet normal 0 0.0654039 0.997859
    outer loop
      vertex 7 0 2.5
      vertex -5.50362e-16 0.326315 2.47861
      vertex -5.55112e-16 0 2.5
    endloop
  endfacet
  facet normal 1.43985e-17 0.997859 -0.0654039
    outer loop
      vertex 7 2.47861 -0.326315
      vertex 0 2.5 0
      vertex 7 2.5 1.55431e-15
    endloop
  endfacet
  facet normal 0 0.997859 -0.0654039
    outer loop
      vertex 0 2.5 0
      vertex 7 2.47861 -0.326315
      vertex 7.24565e-17 2.47861 -0.326315
    endloop
  endfacet
  facet normal 0 -0.997859 0.0654039
    outer loop
      vertex -7.24565e-17 -2.47861 0.326315
      vertex 7 -2.5 1.55431e-15
      vertex 7 -2.47861 0.326315
    endloop
  endfacet
  facet normal -1.45226e-17 -0.997859 0.0654039
    outer loop
      vertex 7 -2.5 1.55431e-15
      vertex -7.24565e-17 -2.47861 0.326315
      vertex 0 -2.5 0
    endloop
  endfacet
  facet normal 0 0.659345 -0.751841
    outer loop
      vertex 4.404e-16 1.5219 -1.98338
      vertex 7 1.76777 -1.76777
      vertex 7 1.5219 -1.98338
    endloop
  endfacet
  facet normal 0 0.659345 -0.751841
    outer loop
      vertex 7 1.76777 -1.76777
      vertex 4.404e-16 1.5219 -1.98338
      vertex 3.92523e-16 1.76777 -1.76777
    endloop
  endfacet
  facet normal 0 0.751841 0.659345
    outer loop
      vertex 7 1.98338 1.5219
      vertex -3.92523e-16 1.76777 1.76777
      vertex 7 1.76777 1.76777
    endloop
  endfacet
  facet normal 0 0.751841 0.659345
    outer loop
      vertex -3.92523e-16 1.76777 1.76777
      vertex 7 1.98338 1.5219
      vertex -3.3793e-16 1.98338 1.5219
    endloop
  endfacet
  facet normal 0 0.94693 0.32144
    outer loop
      vertex 7 2.41481 0.647047
      vertex -2.12432e-16 2.3097 0.956708
      vertex 7 2.3097 0.956708
    endloop
  endfacet
  facet normal 0 0.94693 0.32144
    outer loop
      vertex -2.12432e-16 2.3097 0.956708
      vertex 7 2.41481 0.647047
      vertex -1.43673e-16 2.41481 0.647047
    endloop
  endfacet
  facet normal 0 -0.195091 0.980785
    outer loop
      vertex 7 -0.326315 2.47861
      vertex -5.36196e-16 -0.647047 2.41481
      vertex 7 -0.647047 2.41481
    endloop
  endfacet
  facet normal 0 -0.195091 0.980785
    outer loop
      vertex -5.36196e-16 -0.647047 2.41481
      vertex 7 -0.326315 2.47861
      vertex -5.50362e-16 -0.326315 2.47861
    endloop
  endfacet
  facet normal -1 0 -2.22045e-16
    outer loop
      vertex 0 1.5 0
      vertex 0 2.5 0
      vertex 7.24565e-17 2.47861 -0.326315
    endloop
  endfacet
  facet normal -1 0 -2.22045e-16
    outer loop
      vertex 4.34738e-17 1.48717 -0.195788
      vertex 7.24565e-17 2.47861 -0.326315
      vertex 1.43673e-16 2.41481 -0.647047
    endloop
  endfacet
  facet normal -1 -0 -2.22045e-16
    outer loop
      vertex 0 2.5 0
      vertex 0 1.5 0
      vertex -7.24565e-17 2.47861 0.326315
    endloop
  endfacet
  facet normal -1 0 -2.22045e-16
    outer loop
      vertex 8.6204e-17 1.44889 -0.388228
      vertex 1.43673e-16 2.41481 -0.647047
      vertex 2.12432e-16 2.3097 -0.956708
    endloop
  endfacet
  facet normal -1 0 -2.22045e-16
    outer loop
      vertex -4.34738e-17 1.48717 0.195788
      vertex -7.24565e-17 2.47861 0.326315
      vertex 0 1.5 0
    endloop
  endfacet
  facet normal -1 0 -2.22045e-16
    outer loop
      vertex 1.27459e-16 1.38582 -0.574024
      vertex 2.12432e-16 2.3097 -0.956708
      vertex 2.77556e-16 2.16506 -1.25
    endloop
  endfacet
  facet normal -1 0 -2.22045e-16
    outer loop
      vertex -7.24565e-17 2.47861 0.326315
      vertex -4.34738e-17 1.48717 0.195788
      vertex -1.43673e-16 2.41481 0.647047
    endloop
  endfacet
  facet normal -1 0 -2.22045e-16
    outer loop
      vertex 1.66533e-16 1.29904 -0.75
      vertex 2.77556e-16 2.16506 -1.25
      vertex 3.3793e-16 1.98338 -1.5219
    endloop
  endfacet
  facet normal -1 0 -2.22045e-16
    outer loop
      vertex -8.6204e-17 1.44889 0.388228
      vertex -1.43673e-16 2.41481 0.647047
      vertex -4.34738e-17 1.48717 0.195788
    endloop
  endfacet
  facet normal -1 0 -2.22045e-16
    outer loop
      vertex 2.02758e-16 1.19003 -0.913141
      vertex 3.3793e-16 1.98338 -1.5219
      vertex 3.92523e-16 1.76777 -1.76777
    endloop
  endfacet
  facet normal -1 0 -2.22045e-16
    outer loop
      vertex -1.43673e-16 2.41481 0.647047
      vertex -8.6204e-17 1.44889 0.388228
      vertex -2.12432e-16 2.3097 0.956708
    endloop
  endfacet
  facet normal -1 0 -2.22045e-16
    outer loop
      vertex 2.35514e-16 1.06066 -1.06066
      vertex 3.92523e-16 1.76777 -1.76777
      vertex 4.404e-16 1.5219 -1.98338
    endloop
  endfacet
  facet normal -1 0 -2.22045e-16
    outer loop
      vertex -1.27459e-16 1.38582 0.574024
      vertex -2.12432e-16 2.3097 0.956708
      vertex -8.6204e-17 1.44889 0.388228
    endloop
  endfacet
  facet normal -1 0 -2.22045e-16
    outer loop
      vertex -2.12432e-16 2.3097 0.956708
      vertex -1.27459e-16 1.38582 0.574024
      vertex -2.77556e-16 2.16506 1.25
    endloop
  endfacet
  facet normal -1 0 -2.22045e-16
    outer loop
      vertex 7.24565e-17 2.47861 -0.326315
      vertex 4.34738e-17 1.48717 -0.195788
      vertex 0 1.5 0
    endloop
  endfacet
  facet normal -1 0 -2.22045e-16
    outer loop
      vertex 1.43673e-16 2.41481 -0.647047
      vertex 8.6204e-17 1.44889 -0.388228
      vertex 4.34738e-17 1.48717 -0.195788
    endloop
  endfacet
  facet normal -1 0 -2.22045e-16
    outer loop
      vertex 2.12432e-16 2.3097 -0.956708
      vertex 1.27459e-16 1.38582 -0.574024
      vertex 8.6204e-17 1.44889 -0.388228
    endloop
  endfacet
  facet normal -1 0 -2.22045e-16
    outer loop
      vertex 2.77556e-16 2.16506 -1.25
      vertex 1.66533e-16 1.29904 -0.75
      vertex 1.27459e-16 1.38582 -0.574024
    endloop
  endfacet
  facet normal -1 0 -2.22045e-16
    outer loop
      vertex 2.6424e-16 0.913141 -1.19003
      vertex 4.404e-16 1.5219 -1.98338
      vertex 4.80741e-16 1.25 -2.16506
    endloop
  endfacet
  facet normal -1 0 -2.22045e-16
    outer loop
      vertex 3.3793e-16 1.98338 -1.5219
      vertex 2.02758e-16 1.19003 -0.913141
      vertex 1.66533e-16 1.29904 -0.75
    endloop
  endfacet
  facet normal -1 0 -2.22045e-16
    outer loop
      vertex 3.92523e-16 1.76777 -1.76777
      vertex 2.35514e-16 1.06066 -1.06066
      vertex 2.02758e-16 1.19003 -0.913141
    endloop
  endfacet
  facet normal -1 0 -2.22045e-16
    outer loop
      vertex 2.88444e-16 0.749999 -1.29904
      vertex 4.80741e-16 1.25 -2.16506
      vertex 5.12856e-16 0.956708 -2.3097
    endloop
  endfacet
  facet normal -1 0 -2.22045e-16
    outer loop
      vertex 4.404e-16 1.5219 -1.98338
      vertex 2.6424e-16 0.913141 -1.19003
      vertex 2.35514e-16 1.06066 -1.06066
    endloop
  endfacet
  facet normal -1 0 -2.22045e-16
    outer loop
      vertex 4.80741e-16 1.25 -2.16506
      vertex 2.88444e-16 0.749999 -1.29904
      vertex 2.6424e-16 0.913141 -1.19003
    endloop
  endfacet
  facet normal -1 0 -2.22045e-16
    outer loop
      vertex 3.07714e-16 0.574024 -1.38582
      vertex 5.12856e-16 0.956708 -2.3097
      vertex 5.36196e-16 0.647047 -2.41481
    endloop
  endfacet
  facet normal -1 0 -2.22045e-16
    outer loop
      vertex 5.12856e-16 0.956708 -2.3097
      vertex 3.07714e-16 0.574024 -1.38582
      vertex 2.88444e-16 0.749999 -1.29904
    endloop
  endfacet
  facet normal -1 0 -2.22045e-16
    outer loop
      vertex 5.36196e-16 0.647047 -2.41481
      vertex 3.21718e-16 0.388228 -1.44889
      vertex 3.07714e-16 0.574024 -1.38582
    endloop
  endfacet
  facet normal -1 0 -2.22045e-16
    outer loop
      vertex 5.50362e-16 0.326315 -2.47861
      vertex 3.21718e-16 0.388228 -1.44889
      vertex 5.36196e-16 0.647047 -2.41481
    endloop
  endfacet
  facet normal -1 0 -2.22045e-16
    outer loop
      vertex 5.50362e-16 0.326315 -2.47861
      vertex 3.30217e-16 0.195788 -1.48717
      vertex 3.21718e-16 0.388228 -1.44889
    endloop
  endfacet
  facet normal -1 0 -2.22045e-16
    outer loop
      vertex 5.55112e-16 0 -2.5
      vertex 3.30217e-16 0.195788 -1.48717
      vertex 5.50362e-16 0.326315 -2.47861
    endloop
  endfacet
  facet normal -1 0 -2.22045e-16
    outer loop
      vertex 5.55112e-16 0 -2.5
      vertex 3.33067e-16 0 -1.5
      vertex 3.30217e-16 0.195788 -1.48717
    endloop
  endfacet
  facet normal -1 0 -2.22045e-16
    outer loop
      vertex 5.55112e-16 0 -2.5
      vertex 3.30217e-16 -0.195788 -1.48717
      vertex 3.33067e-16 0 -1.5
    endloop
  endfacet
  facet normal -1 0 -2.22045e-16
    outer loop
      vertex 5.50362e-16 -0.326315 -2.47861
      vertex 3.30217e-16 -0.195788 -1.48717
      vertex 5.55112e-16 0 -2.5
    endloop
  endfacet
  facet normal -1 0 -2.22045e-16
    outer loop
      vertex 5.50362e-16 -0.326315 -2.47861
      vertex 3.21718e-16 -0.388228 -1.44889
      vertex 3.30217e-16 -0.195788 -1.48717
    endloop
  endfacet
  facet normal -1 0 -2.22045e-16
    outer loop
      vertex 5.36196e-16 -0.647047 -2.41481
      vertex 3.21718e-16 -0.388228 -1.44889
      vertex 5.50362e-16 -0.326315 -2.47861
    endloop
  endfacet
  facet normal -1 0 -2.22045e-16
    outer loop
      vertex 3.21718e-16 -0.388228 -1.44889
      vertex 5.36196e-16 -0.647047 -2.41481
      vertex 3.07714e-16 -0.574024 -1.38582
    endloop
  endfacet
  facet normal -1 0 -2.22045e-16
    outer loop
      vertex 5.12856e-16 -0.956708 -2.3097
      vertex 3.07714e-16 -0.574024 -1.38582
      vertex 5.36196e-16 -0.647047 -2.41481
    endloop
  endfacet
  facet normal -1 0 -2.22045e-16
    outer loop
      vertex 3.07714e-16 -0.574024 -1.38582
      vertex 5.12856e-16 -0.956708 -2.3097
      vertex 2.88444e-16 -0.75 -1.29904
    endloop
  endfacet
  facet normal -1 0 -2.22045e-16
    outer loop
      vertex 4.80741e-16 -1.25 -2.16506
      vertex 2.88444e-16 -0.75 -1.29904
      vertex 5.12856e-16 -0.956708 -2.3097
    endloop
  endfacet
  facet normal -1 0 -2.22045e-16
    outer loop
      vertex 2.88444e-16 -0.75 -1.29904
      vertex 4.80741e-16 -1.25 -2.16506
      vertex 2.6424e-16 -0.913141 -1.19003
    endloop
  endfacet
  facet normal -1 0 -2.22045e-16
    outer loop
      vertex 4.404e-16 -1.5219 -1.98338
      vertex 2.6424e-16 -0.913141 -1.19003
      vertex 4.80741e-16 -1.25 -2.16506
    endloop
  endfacet
  facet normal -1 0 -2.22045e-16
    outer loop
      vertex 2.6424e-16 -0.913141 -1.19003
      vertex 4.404e-16 -1.5219 -1.98338
      vertex 2.35514e-16 -1.06066 -1.06066
    endloop
  endfacet
  facet normal -1 0 -2.22045e-16
    outer loop
      vertex 3.92523e-16 -1.76777 -1.76777
      vertex 2.35514e-16 -1.06066 -1.06066
      vertex 4.404e-16 -1.5219 -1.98338
    endloop
  endfacet
  facet normal -1 0 -2.22045e-16
    outer loop
      vertex 2.35514e-16 -1.06066 -1.06066
      vertex 3.92523e-16 -1.76777 -1.76777
      vertex 2.02758e-16 -1.19003 -0.913141
    endloop
  endfacet
  facet normal -1 0 -2.22045e-16
    outer loop
      vertex 3.3793e-16 -1.98338 -1.5219
      vertex 2.02758e-16 -1.19003 -0.913141
      vertex 3.92523e-16 -1.76777 -1.76777
    endloop
  endfacet
  facet normal -1 0 -2.22045e-16
    outer loop
      vertex 2.02758e-16 -1.19003 -0.913141
      vertex 3.3793e-16 -1.98338 -1.5219
      vertex 1.66533e-16 -1.29904 -0.75
    endloop
  endfacet
  facet normal -1 0 -2.22045e-16
    outer loop
      vertex 1.66533e-16 -1.29904 -0.75
      vertex 2.77556e-16 -2.16506 -1.25
      vertex 1.27459e-16 -1.38582 -0.574024
    endloop
  endfacet
  facet normal -1 0 -2.22045e-16
    outer loop
      vertex 2.77556e-16 -2.16506 -1.25
      vertex 1.66533e-16 -1.29904 -0.75
      vertex 3.3793e-16 -1.98338 -1.5219
    endloop
  endfacet
  facet normal -1 0 -2.22045e-16
    outer loop
      vertex -1.66533e-16 1.29904 0.749999
      vertex -2.77556e-16 2.16506 1.25
      vertex -1.27459e-16 1.38582 0.574024
    endloop
  endfacet
  facet normal -1 0 -2.22045e-16
    outer loop
      vertex -2.77556e-16 2.16506 1.25
      vertex -1.66533e-16 1.29904 0.749999
      vertex -3.3793e-16 1.98338 1.5219
    endloop
  endfacet
  facet normal -1 0 -2.22045e-16
    outer loop
      vertex -2.02758e-16 1.19003 0.913141
      vertex -3.3793e-16 1.98338 1.5219
      vertex -1.66533e-16 1.29904 0.749999
    endloop
  endfacet
  facet normal -1 0 -2.22045e-16
    outer loop
      vertex -3.3793e-16 1.98338 1.5219
      vertex -2.02758e-16 1.19003 0.913141
      vertex -3.92523e-16 1.76777 1.76777
    endloop
  endfacet
  facet normal -1 0 -2.22045e-16
    outer loop
      vertex -2.35514e-16 1.06066 1.06066
      vertex -3.92523e-16 1.76777 1.76777
      vertex -2.02758e-16 1.19003 0.913141
    endloop
  endfacet
  facet normal -1 0 -2.22045e-16
    outer loop
      vertex -3.92523e-16 1.76777 1.76777
      vertex -2.35514e-16 1.06066 1.06066
      vertex -4.404e-16 1.5219 1.98338
    endloop
  endfacet
  facet normal -1 0 -2.22045e-16
    outer loop
      vertex -2.6424e-16 0.913141 1.19003
      vertex -4.404e-16 1.5219 1.98338
      vertex -2.35514e-16 1.06066 1.06066
    endloop
  endfacet
  facet normal -1 0 -2.22045e-16
    outer loop
      vertex -4.404e-16 1.5219 1.98338
      vertex -2.6424e-16 0.913141 1.19003
      vertex -4.80741e-16 1.25 2.16506
    endloop
  endfacet
  facet normal -1 0 -2.22045e-16
    outer loop
      vertex -2.88444e-16 0.749999 1.29904
      vertex -4.80741e-16 1.25 2.16506
      vertex -2.6424e-16 0.913141 1.19003
    endloop
  endfacet
  facet normal -1 0 -2.22045e-16
    outer loop
      vertex -4.80741e-16 1.25 2.16506
      vertex -2.88444e-16 0.749999 1.29904
      vertex -5.12856e-16 0.956708 2.3097
    endloop
  endfacet
  facet normal -1 0 -2.22045e-16
    outer loop
      vertex -3.07714e-16 0.574024 1.38582
      vertex -5.12856e-16 0.956708 2.3097
      vertex -2.88444e-16 0.749999 1.29904
    endloop
  endfacet
  facet normal -1 0 -2.22045e-16
    outer loop
      vertex -5.12856e-16 0.956708 2.3097
      vertex -3.07714e-16 0.574024 1.38582
      vertex -5.36196e-16 0.647047 2.41481
    endloop
  endfacet
  facet normal -1 0 -2.22045e-16
    outer loop
      vertex -3.21718e-16 0.388228 1.44889
      vertex -5.36196e-16 0.647047 2.41481
      vertex -3.07714e-16 0.574024 1.38582
    endloop
  endfacet
  facet normal -1 0 -2.22045e-16
    outer loop
      vertex -3.21718e-16 0.388228 1.44889
      vertex -5.50362e-16 0.326315 2.47861
      vertex -5.36196e-16 0.647047 2.41481
    endloop
  endfacet
  facet normal -1 0 -2.22045e-16
    outer loop
      vertex -3.30217e-16 0.195788 1.48717
      vertex -5.50362e-16 0.326315 2.47861
      vertex -3.21718e-16 0.388228 1.44889
    endloop
  endfacet
  facet normal -1 0 -2.22045e-16
    outer loop
      vertex -3.33067e-16 0 1.5
      vertex -5.50362e-16 0.326315 2.47861
      vertex -3.30217e-16 0.195788 1.48717
    endloop
  endfacet
  facet normal -1 0 -2.22045e-16
    outer loop
      vertex -3.33067e-16 0 1.5
      vertex -5.55112e-16 0 2.5
      vertex -5.50362e-16 0.326315 2.47861
    endloop
  endfacet
  facet normal -1 0 -2.22045e-16
    outer loop
      vertex -3.30217e-16 -0.195788 1.48717
      vertex -5.55112e-16 0 2.5
      vertex -3.33067e-16 0 1.5
    endloop
  endfacet
  facet normal -1 0 -2.22045e-16
    outer loop
      vertex -3.30217e-16 -0.195788 1.48717
      vertex -5.50362e-16 -0.326315 2.47861
      vertex -5.55112e-16 0 2.5
    endloop
  endfacet
  facet normal -1 0 -2.22045e-16
    outer loop
      vertex -3.21718e-16 -0.388228 1.44889
      vertex -5.50362e-16 -0.326315 2.47861
      vertex -3.30217e-16 -0.195788 1.48717
    endloop
  endfacet
  facet normal -1 0 -2.22045e-16
    outer loop
      vertex -5.36196e-16 -0.647047 2.41481
      vertex -3.21718e-16 -0.388228 1.44889
      vertex -3.07714e-16 -0.574024 1.38582
    endloop
  endfacet
  facet normal -1 0 -2.22045e-16
    outer loop
      vertex -3.21718e-16 -0.388228 1.44889
      vertex -5.36196e-16 -0.647047 2.41481
      vertex -5.50362e-16 -0.326315 2.47861
    endloop
  endfacet
  facet normal -1 0 -2.22045e-16
    outer loop
      vertex -5.12856e-16 -0.956708 2.3097
      vertex -3.07714e-16 -0.574024 1.38582
      vertex -2.88444e-16 -0.749999 1.29904
    endloop
  endfacet
  facet normal -1 0 -2.22045e-16
    outer loop
      vertex -4.80741e-16 -1.25 2.16506
      vertex -2.88444e-16 -0.749999 1.29904
      vertex -2.6424e-16 -0.913141 1.19003
    endloop
  endfacet
  facet normal -1 0 -2.22045e-16
    outer loop
      vertex -3.07714e-16 -0.574024 1.38582
      vertex -5.12856e-16 -0.956708 2.3097
      vertex -5.36196e-16 -0.647047 2.41481
    endloop
  endfacet
  facet normal -1 0 -2.22045e-16
    outer loop
      vertex -4.404e-16 -1.5219 1.98338
      vertex -2.6424e-16 -0.913141 1.19003
      vertex -2.35514e-16 -1.06066 1.06066
    endloop
  endfacet
  facet normal -1 0 -2.22045e-16
    outer loop
      vertex -3.92523e-16 -1.76777 1.76777
      vertex -2.35514e-16 -1.06066 1.06066
      vertex -2.02758e-16 -1.19003 0.913141
    endloop
  endfacet
  facet normal -1 0 -2.22045e-16
    outer loop
      vertex -2.88444e-16 -0.749999 1.29904
      vertex -4.80741e-16 -1.25 2.16506
      vertex -5.12856e-16 -0.956708 2.3097
    endloop
  endfacet
  facet normal -1 0 -2.22045e-16
    outer loop
      vertex -3.3793e-16 -1.98338 1.5219
      vertex -2.02758e-16 -1.19003 0.913141
      vertex -1.66533e-16 -1.29904 0.75
    endloop
  endfacet
  facet normal -1 0 -2.22045e-16
    outer loop
      vertex -2.77556e-16 -2.16506 1.25
      vertex -1.66533e-16 -1.29904 0.75
      vertex -1.27459e-16 -1.38582 0.574024
    endloop
  endfacet
  facet normal -1 0 -2.22045e-16
    outer loop
      vertex -2.12432e-16 -2.3097 0.956708
      vertex -1.27459e-16 -1.38582 0.574024
      vertex -8.6204e-17 -1.44889 0.388228
    endloop
  endfacet
  facet normal -1 0 -2.22045e-16
    outer loop
      vertex -1.43673e-16 -2.41481 0.647047
      vertex -8.6204e-17 -1.44889 0.388228
      vertex -4.34738e-17 -1.48717 0.195788
    endloop
  endfacet
  facet normal -1 0 -2.22045e-16
    outer loop
      vertex -2.6424e-16 -0.913141 1.19003
      vertex -4.404e-16 -1.5219 1.98338
      vertex -4.80741e-16 -1.25 2.16506
    endloop
  endfacet
  facet normal -1 0 -2.22045e-16
    outer loop
      vertex -7.24565e-17 -2.47861 0.326315
      vertex -4.34738e-17 -1.48717 0.195788
      vertex 0 -1.5 0
    endloop
  endfacet
  facet normal -1 0 -2.22045e-16
    outer loop
      vertex 2.12432e-16 -2.3097 -0.956708
      vertex 1.27459e-16 -1.38582 -0.574024
      vertex 2.77556e-16 -2.16506 -1.25
    endloop
  endfacet
  facet normal -1 0 -2.22045e-16
    outer loop
      vertex 1.27459e-16 -1.38582 -0.574024
      vertex 2.12432e-16 -2.3097 -0.956708
      vertex 8.6204e-17 -1.44889 -0.388228
    endloop
  endfacet
  facet normal -1 0 -2.22045e-16
    outer loop
      vertex -2.35514e-16 -1.06066 1.06066
      vertex -3.92523e-16 -1.76777 1.76777
      vertex -4.404e-16 -1.5219 1.98338
    endloop
  endfacet
  facet normal -1 0 -2.22045e-16
    outer loop
      vertex 1.43673e-16 -2.41481 -0.647047
      vertex 8.6204e-17 -1.44889 -0.388228
      vertex 2.12432e-16 -2.3097 -0.956708
    endloop
  endfacet
  facet normal -1 0 -2.22045e-16
    outer loop
      vertex -2.02758e-16 -1.19003 0.913141
      vertex -3.3793e-16 -1.98338 1.5219
      vertex -3.92523e-16 -1.76777 1.76777
    endloop
  endfacet
  facet normal -1 0 -2.22045e-16
    outer loop
      vertex 8.6204e-17 -1.44889 -0.388228
      vertex 1.43673e-16 -2.41481 -0.647047
      vertex 4.34738e-17 -1.48717 -0.195788
    endloop
  endfacet
  facet normal -1 0 -2.22045e-16
    outer loop
      vertex -1.66533e-16 -1.29904 0.75
      vertex -2.77556e-16 -2.16506 1.25
      vertex -3.3793e-16 -1.98338 1.5219
    endloop
  endfacet
  facet normal -1 0 -2.22045e-16
    outer loop
      vertex 7.24565e-17 -2.47861 -0.326315
      vertex 4.34738e-17 -1.48717 -0.195788
      vertex 1.43673e-16 -2.41481 -0.647047
    endloop
  endfacet
  facet normal -1 0 -2.22045e-16
    outer loop
      vertex -1.27459e-16 -1.38582 0.574024
      vertex -2.12432e-16 -2.3097 0.956708
      vertex -2.77556e-16 -2.16506 1.25
    endloop
  endfacet
  facet normal -1 0 -2.22045e-16
    outer loop
      vertex 4.34738e-17 -1.48717 -0.195788
      vertex 7.24565e-17 -2.47861 -0.326315
      vertex 0 -1.5 0
    endloop
  endfacet
  facet normal -1 0 -2.22045e-16
    outer loop
      vertex -8.6204e-17 -1.44889 0.388228
      vertex -1.43673e-16 -2.41481 0.647047
      vertex -2.12432e-16 -2.3097 0.956708
    endloop
  endfacet
  facet normal -1 0 -2.22045e-16
    outer loop
      vertex 0 -2.5 0
      vertex 0 -1.5 0
      vertex 7.24565e-17 -2.47861 -0.326315
    endloop
  endfacet
  facet normal -1 0 -2.22045e-16
    outer loop
      vertex -4.34738e-17 -1.48717 0.195788
      vertex -7.24565e-17 -2.47861 0.326315
      vertex -1.43673e-16 -2.41481 0.647047
    endloop
  endfacet
  facet normal -1 -0 -2.22045e-16
    outer loop
      vertex 0 -1.5 0
      vertex 0 -2.5 0
      vertex -7.24565e-17 -2.47861 0.326315
    endloop
  endfacet
  facet normal 0 0.32144 -0.94693
    outer loop
      vertex 5.36196e-16 0.647047 -2.41481
      vertex 7 0.956708 -2.3097
      vertex 7 0.647047 -2.41481
    endloop
  endfacet
  facet normal 0 0.32144 -0.94693
    outer loop
      vertex 7 0.956708 -2.3097
      vertex 5.36196e-16 0.647047 -2.41481
      vertex 5.12856e-16 0.956708 -2.3097
    endloop
  endfacet
  facet normal 0 0.195091 -0.980785
    outer loop
      vertex 5.50362e-16 0.326315 -2.47861
      vertex 7 0.647047 -2.41481
      vertex 7 0.326315 -2.47861
    endloop
  endfacet
  facet normal 0 0.195091 -0.980785
    outer loop
      vertex 7 0.647047 -2.41481
      vertex 5.50362e-16 0.326315 -2.47861
      vertex 5.36196e-16 0.647047 -2.41481
    endloop
  endfacet
  facet normal 0 0.896873 -0.442288
    outer loop
      vertex 7 2.16506 -1.25
      vertex 2.12432e-16 2.3097 -0.956708
      vertex 7 2.3097 -0.956708
    endloop
  endfacet
  facet normal 0 0.896873 -0.442288
    outer loop
      vertex 2.12432e-16 2.3097 -0.956708
      vertex 7 2.16506 -1.25
      vertex 2.77556e-16 2.16506 -1.25
    endloop
  endfacet
  facet normal 0 0.83147 -0.55557
    outer loop
      vertex 7 1.98338 -1.5219
      vertex 2.77556e-16 2.16506 -1.25
      vertex 7 2.16506 -1.25
    endloop
  endfacet
  facet normal 0 0.83147 -0.55557
    outer loop
      vertex 2.77556e-16 2.16506 -1.25
      vertex 7 1.98338 -1.5219
      vertex 3.3793e-16 1.98338 -1.5219
    endloop
  endfacet
  facet normal -0 0.555569 0.831471
    outer loop
      vertex -4.404e-16 1.5219 1.98338
      vertex 7 1.25 2.16506
      vertex 7 1.5219 1.98338
    endloop
  endfacet
  facet normal 0 0.555569 0.831471
    outer loop
      vertex 7 1.25 2.16506
      vertex -4.404e-16 1.5219 1.98338
      vertex -4.80741e-16 1.25 2.16506
    endloop
  endfacet
  facet normal -0 0.659345 0.751841
    outer loop
      vertex -3.92523e-16 1.76777 1.76777
      vertex 7 1.5219 1.98338
      vertex 7 1.76777 1.76777
    endloop
  endfacet
  facet normal 0 0.659345 0.751841
    outer loop
      vertex 7 1.5219 1.98338
      vertex -3.92523e-16 1.76777 1.76777
      vertex -4.404e-16 1.5219 1.98338
    endloop
  endfacet
  facet normal 1 0 0
    outer loop
      vertex 7 1.5 1.55431e-15
      vertex 7 2.5 1.55431e-15
      vertex 7 2.47861 0.326315
    endloop
  endfacet
  facet normal 1 0 0
    outer loop
      vertex 7 1.48717 0.195788
      vertex 7 2.47861 0.326315
      vertex 7 2.41481 0.647047
    endloop
  endfacet
  facet normal 1 0 0
    outer loop
      vertex 7 2.5 1.55431e-15
      vertex 7 1.5 1.55431e-15
      vertex 7 2.47861 -0.326315
    endloop
  endfacet
  facet normal 1 0 0
    outer loop
      vertex 7 1.44889 0.388228
      vertex 7 2.41481 0.647047
      vertex 7 2.3097 0.956708
    endloop
  endfacet
  facet normal 1 -0 0
    outer loop
      vertex 7 1.48717 -0.195788
      vertex 7 2.47861 -0.326315
      vertex 7 1.5 1.55431e-15
    endloop
  endfacet
  facet normal 1 0 0
    outer loop
      vertex 7 1.38582 0.574024
      vertex 7 2.3097 0.956708
      vertex 7 2.16506 1.25
    endloop
  endfacet
  facet normal 1 0 0
    outer loop
      vertex 7 2.47861 -0.326315
      vertex 7 1.48717 -0.195788
      vertex 7 2.41481 -0.647047
    endloop
  endfacet
  facet normal 1 0 0
    outer loop
      vertex 7 1.29904 0.749999
      vertex 7 2.16506 1.25
      vertex 7 1.98338 1.5219
    endloop
  endfacet
  facet normal 1 -0 0
    outer loop
      vertex 7 1.44889 -0.388228
      vertex 7 2.41481 -0.647047
      vertex 7 1.48717 -0.195788
    endloop
  endfacet
  facet normal 1 0 0
    outer loop
      vertex 7 1.19003 0.913141
      vertex 7 1.98338 1.5219
      vertex 7 1.76777 1.76777
    endloop
  endfacet
  facet normal 1 0 0
    outer loop
      vertex 7 2.41481 -0.647047
      vertex 7 1.44889 -0.388228
      vertex 7 2.3097 -0.956708
    endloop
  endfacet
  facet normal 1 0 0
    outer loop
      vertex 7 1.06066 1.06066
      vertex 7 1.76777 1.76777
      vertex 7 1.5219 1.98338
    endloop
  endfacet
  facet normal 1 -0 0
    outer loop
      vertex 7 1.38582 -0.574024
      vertex 7 2.3097 -0.956708
      vertex 7 1.44889 -0.388228
    endloop
  endfacet
  facet normal 1 0 0
    outer loop
      vertex 7 2.3097 -0.956708
      vertex 7 1.38582 -0.574024
      vertex 7 2.16506 -1.25
    endloop
  endfacet
  facet normal 1 0 0
    outer loop
      vertex 7 2.47861 0.326315
      vertex 7 1.48717 0.195788
      vertex 7 1.5 1.55431e-15
    endloop
  endfacet
  facet normal 1 0 0
    outer loop
      vertex 7 2.41481 0.647047
      vertex 7 1.44889 0.388228
      vertex 7 1.48717 0.195788
    endloop
  endfacet
  facet normal 1 0 0
    outer loop
      vertex 7 2.3097 0.956708
      vertex 7 1.38582 0.574024
      vertex 7 1.44889 0.388228
    endloop
  endfacet
  facet normal 1 0 0
    outer loop
      vertex 7 2.16506 1.25
      vertex 7 1.29904 0.749999
      vertex 7 1.38582 0.574024
    endloop
  endfacet
  facet normal 1 0 0
    outer loop
      vertex 7 0.913141 1.19003
      vertex 7 1.5219 1.98338
      vertex 7 1.25 2.16506
    endloop
  endfacet
  facet normal 1 0 0
    outer loop
      vertex 7 1.98338 1.5219
      vertex 7 1.19003 0.913141
      vertex 7 1.29904 0.749999
    endloop
  endfacet
  facet normal 1 0 0
    outer loop
      vertex 7 1.76777 1.76777
      vertex 7 1.06066 1.06066
      vertex 7 1.19003 0.913141
    endloop
  endfacet
  facet normal 1 0 0
    outer loop
      vertex 7 0.749999 1.29904
      vertex 7 1.25 2.16506
      vertex 7 0.956708 2.3097
    endloop
  endfacet
  facet normal 1 0 0
    outer loop
      vertex 7 1.5219 1.98338
      vertex 7 0.913141 1.19003
      vertex 7 1.06066 1.06066
    endloop
  endfacet
  facet normal 1 0 0
    outer loop
      vertex 7 1.25 2.16506
      vertex 7 0.749999 1.29904
      vertex 7 0.913141 1.19003
    endloop
  endfacet
  facet normal 1 0 0
    outer loop
      vertex 7 0.574024 1.38582
      vertex 7 0.956708 2.3097
      vertex 7 0.647047 2.41481
    endloop
  endfacet
  facet normal 1 0 0
    outer loop
      vertex 7 0.956708 2.3097
      vertex 7 0.574024 1.38582
      vertex 7 0.749999 1.29904
    endloop
  endfacet
  facet normal 1 0 0
    outer loop
      vertex 7 0.647047 2.41481
      vertex 7 0.388228 1.44889
      vertex 7 0.574024 1.38582
    endloop
  endfacet
  facet normal 1 0 0
    outer loop
      vertex 7 0.326315 2.47861
      vertex 7 0.388228 1.44889
      vertex 7 0.647047 2.41481
    endloop
  endfacet
  facet normal 1 0 0
    outer loop
      vertex 7 0.326315 2.47861
      vertex 7 0.195788 1.48717
      vertex 7 0.388228 1.44889
    endloop
  endfacet
  facet normal 1 0 0
    outer loop
      vertex 7 0 2.5
      vertex 7 0.195788 1.48717
      vertex 7 0.326315 2.47861
    endloop
  endfacet
  facet normal 1 0 0
    outer loop
      vertex 7 0 2.5
      vertex 7 0 1.5
      vertex 7 0.195788 1.48717
    endloop
  endfacet
  facet normal 1 0 0
    outer loop
      vertex 7 0 2.5
      vertex 7 -0.195788 1.48717
      vertex 7 0 1.5
    endloop
  endfacet
  facet normal 1 -0 0
    outer loop
      vertex 7 -0.326315 2.47861
      vertex 7 -0.195788 1.48717
      vertex 7 0 2.5
    endloop
  endfacet
  facet normal 1 0 0
    outer loop
      vertex 7 -0.326315 2.47861
      vertex 7 -0.388228 1.44889
      vertex 7 -0.195788 1.48717
    endloop
  endfacet
  facet normal 1 -0 0
    outer loop
      vertex 7 -0.647047 2.41481
      vertex 7 -0.388228 1.44889
      vertex 7 -0.326315 2.47861
    endloop
  endfacet
  facet normal 1 0 0
    outer loop
      vertex 7 -0.388228 1.44889
      vertex 7 -0.647047 2.41481
      vertex 7 -0.574024 1.38582
    endloop
  endfacet
  facet normal 1 -0 0
    outer loop
      vertex 7 -0.956708 2.3097
      vertex 7 -0.574024 1.38582
      vertex 7 -0.647047 2.41481
    endloop
  endfacet
  facet normal 1 0 0
    outer loop
      vertex 7 -0.574024 1.38582
      vertex 7 -0.956708 2.3097
      vertex 7 -0.749999 1.29904
    endloop
  endfacet
  facet normal 1 -0 0
    outer loop
      vertex 7 -1.25 2.16506
      vertex 7 -0.749999 1.29904
      vertex 7 -0.956708 2.3097
    endloop
  endfacet
  facet normal 1 0 0
    outer loop
      vertex 7 -0.749999 1.29904
      vertex 7 -1.25 2.16506
      vertex 7 -0.913141 1.19003
    endloop
  endfacet
  facet normal 1 -0 0
    outer loop
      vertex 7 -1.5219 1.98338
      vertex 7 -0.913141 1.19003
      vertex 7 -1.25 2.16506
    endloop
  endfacet
  facet normal 1 0 0
    outer loop
      vertex 7 -0.913141 1.19003
      vertex 7 -1.5219 1.98338
      vertex 7 -1.06066 1.06066
    endloop
  endfacet
  facet normal 1 -0 0
    outer loop
      vertex 7 -1.76777 1.76777
      vertex 7 -1.06066 1.06066
      vertex 7 -1.5219 1.98338
    endloop
  endfacet
  facet normal 1 0 0
    outer loop
      vertex 7 -1.06066 1.06066
      vertex 7 -1.76777 1.76777
      vertex 7 -1.19003 0.913141
    endloop
  endfacet
  facet normal 1 -0 0
    outer loop
      vertex 7 -1.98338 1.5219
      vertex 7 -1.19003 0.913141
      vertex 7 -1.76777 1.76777
    endloop
  endfacet
  facet normal 1 0 0
    outer loop
      vertex 7 -1.19003 0.913141
      vertex 7 -1.98338 1.5219
      vertex 7 -1.29904 0.75
    endloop
  endfacet
  facet normal 1 0 0
    outer loop
      vertex 7 -1.29904 0.75
      vertex 7 -2.16506 1.25
      vertex 7 -1.38582 0.574024
    endloop
  endfacet
  facet normal 1 -0 0
    outer loop
      vertex 7 -2.16506 1.25
      vertex 7 -1.29904 0.75
      vertex 7 -1.98338 1.5219
    endloop
  endfacet
  facet normal 1 -0 0
    outer loop
      vertex 7 1.29904 -0.75
      vertex 7 2.16506 -1.25
      vertex 7 1.38582 -0.574024
    endloop
  endfacet
  facet normal 1 0 0
    outer loop
      vertex 7 2.16506 -1.25
      vertex 7 1.29904 -0.75
      vertex 7 1.98338 -1.5219
    endloop
  endfacet
  facet normal 1 -0 0
    outer loop
      vertex 7 1.19003 -0.913141
      vertex 7 1.98338 -1.5219
      vertex 7 1.29904 -0.75
    endloop
  endfacet
  facet normal 1 0 0
    outer loop
      vertex 7 1.98338 -1.5219
      vertex 7 1.19003 -0.913141
      vertex 7 1.76777 -1.76777
    endloop
  endfacet
  facet normal 1 -0 0
    outer loop
      vertex 7 1.06066 -1.06066
      vertex 7 1.76777 -1.76777
      vertex 7 1.19003 -0.913141
    endloop
  endfacet
  facet normal 1 0 0
    outer loop
      vertex 7 1.76777 -1.76777
      vertex 7 1.06066 -1.06066
      vertex 7 1.5219 -1.98338
    endloop
  endfacet
  facet normal 1 -0 0
    outer loop
      vertex 7 0.913141 -1.19003
      vertex 7 1.5219 -1.98338
      vertex 7 1.06066 -1.06066
    endloop
  endfacet
  facet normal 1 0 0
    outer loop
      vertex 7 1.5219 -1.98338
      vertex 7 0.913141 -1.19003
      vertex 7 1.25 -2.16506
    endloop
  endfacet
  facet normal 1 -0 0
    outer loop
      vertex 7 0.749999 -1.29904
      vertex 7 1.25 -2.16506
      vertex 7 0.913141 -1.19003
    endloop
  endfacet
  facet normal 1 0 0
    outer loop
      vertex 7 1.25 -2.16506
      vertex 7 0.749999 -1.29904
      vertex 7 0.956708 -2.3097
    endloop
  endfacet
  facet normal 1 -0 0
    outer loop
      vertex 7 0.574024 -1.38582
      vertex 7 0.956708 -2.3097
      vertex 7 0.749999 -1.29904
    endloop
  endfacet
  facet normal 1 0 0
    outer loop
      vertex 7 0.956708 -2.3097
      vertex 7 0.574024 -1.38582
      vertex 7 0.647047 -2.41481
    endloop
  endfacet
  facet normal 1 -0 0
    outer loop
      vertex 7 0.388228 -1.44889
      vertex 7 0.647047 -2.41481
      vertex 7 0.574024 -1.38582
    endloop
  endfacet
  facet normal 1 0 0
    outer loop
      vertex 7 0.388228 -1.44889
      vertex 7 0.326315 -2.47861
      vertex 7 0.647047 -2.41481
    endloop
  endfacet
  facet normal 1 -0 0
    outer loop
      vertex 7 0.195788 -1.48717
      vertex 7 0.326315 -2.47861
      vertex 7 0.388228 -1.44889
    endloop
  endfacet
  facet normal 1 -0 0
    outer loop
      vertex 7 0 -1.5
      vertex 7 0.326315 -2.47861
      vertex 7 0.195788 -1.48717
    endloop
  endfacet
  facet normal 1 0 0
    outer loop
      vertex 7 0 -1.5
      vertex 7 0 -2.5
      vertex 7 0.326315 -2.47861
    endloop
  endfacet
  facet normal 1 0 0
    outer loop
      vertex 7 -0.195788 -1.48717
      vertex 7 0 -2.5
      vertex 7 0 -1.5
    endloop
  endfacet
  facet normal 1 0 0
    outer loop
      vertex 7 -0.195788 -1.48717
      vertex 7 -0.326315 -2.47861
      vertex 7 0 -2.5
    endloop
  endfacet
  facet normal 1 0 0
    outer loop
      vertex 7 -0.388228 -1.44889
      vertex 7 -0.326315 -2.47861
      vertex 7 -0.195788 -1.48717
    endloop
  endfacet
  facet normal 1 0 0
    outer loop
      vertex 7 -0.647047 -2.41481
      vertex 7 -0.388228 -1.44889
      vertex 7 -0.574024 -1.38582
    endloop
  endfacet
  facet normal 1 0 0
    outer loop
      vertex 7 -0.388228 -1.44889
      vertex 7 -0.647047 -2.41481
      vertex 7 -0.326315 -2.47861
    endloop
  endfacet
  facet normal 1 0 0
    outer loop
      vertex 7 -0.956708 -2.3097
      vertex 7 -0.574024 -1.38582
      vertex 7 -0.75 -1.29904
    endloop
  endfacet
  facet normal 1 0 0
    outer loop
      vertex 7 -1.25 -2.16506
      vertex 7 -0.75 -1.29904
      vertex 7 -0.913141 -1.19003
    endloop
  endfacet
  facet normal 1 0 0
    outer loop
      vertex 7 -0.574024 -1.38582
      vertex 7 -0.956708 -2.3097
      vertex 7 -0.647047 -2.41481
    endloop
  endfacet
  facet normal 1 0 0
    outer loop
      vertex 7 -1.5219 -1.98338
      vertex 7 -0.913141 -1.19003
      vertex 7 -1.06066 -1.06066
    endloop
  endfacet
  facet normal 1 0 0
    outer loop
      vertex 7 -1.76777 -1.76777
      vertex 7 -1.06066 -1.06066
      vertex 7 -1.19003 -0.913141
    endloop
  endfacet
  facet normal 1 0 0
    outer loop
      vertex 7 -0.75 -1.29904
      vertex 7 -1.25 -2.16506
      vertex 7 -0.956708 -2.3097
    endloop
  endfacet
  facet normal 1 0 0
    outer loop
      vertex 7 -1.98338 -1.5219
      vertex 7 -1.19003 -0.913141
      vertex 7 -1.29904 -0.75
    endloop
  endfacet
  facet normal 1 0 0
    outer loop
      vertex 7 -2.16506 -1.25
      vertex 7 -1.29904 -0.75
      vertex 7 -1.38582 -0.574024
    endloop
  endfacet
  facet normal 1 0 0
    outer loop
      vertex 7 -2.3097 -0.956708
      vertex 7 -1.38582 -0.574024
      vertex 7 -1.44889 -0.388228
    endloop
  endfacet
  facet normal 1 0 0
    outer loop
      vertex 7 -2.41481 -0.647047
      vertex 7 -1.44889 -0.388228
      vertex 7 -1.48717 -0.195788
    endloop
  endfacet
  facet normal 1 0 0
    outer loop
      vertex 7 -0.913141 -1.19003
      vertex 7 -1.5219 -1.98338
      vertex 7 -1.25 -2.16506
    endloop
  endfacet
  facet normal 1 0 0
    outer loop
      vertex 7 -2.47861 -0.326315
      vertex 7 -1.48717 -0.195788
      vertex 7 -1.5 1.55431e-15
    endloop
  endfacet
  facet normal 1 -0 0
    outer loop
      vertex 7 -2.3097 0.956708
      vertex 7 -1.38582 0.574024
      vertex 7 -2.16506 1.25
    endloop
  endfacet
  facet normal 1 0 0
    outer loop
      vertex 7 -1.38582 0.574024
      vertex 7 -2.3097 0.956708
      vertex 7 -1.44889 0.388228
    endloop
  endfacet
  facet normal 1 0 0
    outer loop
      vertex 7 -1.06066 -1.06066
      vertex 7 -1.76777 -1.76777
      vertex 7 -1.5219 -1.98338
    endloop
  endfacet
  facet normal 1 -0 0
    outer loop
      vertex 7 -2.41481 0.647047
      vertex 7 -1.44889 0.388228
      vertex 7 -2.3097 0.956708
    endloop
  endfacet
  facet normal 1 0 0
    outer loop
      vertex 7 -1.19003 -0.913141
      vertex 7 -1.98338 -1.5219
      vertex 7 -1.76777 -1.76777
    endloop
  endfacet
  facet normal 1 0 0
    outer loop
      vertex 7 -1.44889 0.388228
      vertex 7 -2.41481 0.647047
      vertex 7 -1.48717 0.195788
    endloop
  endfacet
  facet normal 1 0 0
    outer loop
      vertex 7 -1.29904 -0.75
      vertex 7 -2.16506 -1.25
      vertex 7 -1.98338 -1.5219
    endloop
  endfacet
  facet normal 1 -0 0
    outer loop
      vertex 7 -2.47861 0.326315
      vertex 7 -1.48717 0.195788
      vertex 7 -2.41481 0.647047
    endloop
  endfacet
  facet normal 1 0 0
    outer loop
      vertex 7 -1.38582 -0.574024
      vertex 7 -2.3097 -0.956708
      vertex 7 -2.16506 -1.25
    endloop
  endfacet
  facet normal 1 0 0
    outer loop
      vertex 7 -1.48717 0.195788
      vertex 7 -2.47861 0.326315
      vertex 7 -1.5 1.55431e-15
    endloop
  endfacet
  facet normal 1 0 0
    outer loop
      vertex 7 -1.44889 -0.388228
      vertex 7 -2.41481 -0.647047
      vertex 7 -2.3097 -0.956708
    endloop
  endfacet
  facet normal 1 0 0
    outer loop
      vertex 7 -2.5 1.55431e-15
      vertex 7 -1.5 1.55431e-15
      vertex 7 -2.47861 0.326315
    endloop
  endfacet
  facet normal 1 0 0
    outer loop
      vertex 7 -1.48717 -0.195788
      vertex 7 -2.47861 -0.326315
      vertex 7 -2.41481 -0.647047
    endloop
  endfacet
  facet normal 1 0 0
    outer loop
      vertex 7 -1.5 1.55431e-15
      vertex 7 -2.5 1.55431e-15
      vertex 7 -2.47861 -0.326315
    endloop
  endfacet
  facet normal 0 0.831471 0.555569
    outer loop
      vertex 7 2.16506 1.25
      vertex -3.3793e-16 1.98338 1.5219
      vertex 7 1.98338 1.5219
    endloop
  endfacet
  facet normal 0 0.831471 0.555569
    outer loop
      vertex -3.3793e-16 1.98338 1.5219
      vertex 7 2.16506 1.25
      vertex -2.77556e-16 2.16506 1.25
    endloop
  endfacet
  facet normal 0 0.997859 0.0654039
    outer loop
      vertex 7 2.5 1.55431e-15
      vertex -7.24565e-17 2.47861 0.326315
      vertex 7 2.47861 0.326315
    endloop
  endfacet
  facet normal -1.43985e-17 0.997859 0.0654039
    outer loop
      vertex -7.24565e-17 2.47861 0.326315
      vertex 7 2.5 1.55431e-15
      vertex 0 2.5 0
    endloop
  endfacet
  facet normal 0 -0.980785 -0.195091
    outer loop
      vertex 1.43673e-16 -2.41481 -0.647047
      vertex 7 -2.47861 -0.326315
      vertex 7.24565e-17 -2.47861 -0.326315
    endloop
  endfacet
  facet normal 0 -0.980785 -0.195091
    outer loop
      vertex 7 -2.47861 -0.326315
      vertex 1.43673e-16 -2.41481 -0.647047
      vertex 7 -2.41481 -0.647047
    endloop
  endfacet
  facet normal 1.43985e-17 -0.997859 -0.0654039
    outer loop
      vertex 7.24565e-17 -2.47861 -0.326315
      vertex 7 -2.5 1.55431e-15
      vertex 0 -2.5 0
    endloop
  endfacet
  facet normal 0 -0.997859 -0.0654039
    outer loop
      vertex 7 -2.5 1.55431e-15
      vertex 7.24565e-17 -2.47861 -0.326315
      vertex 7 -2.47861 -0.326315
    endloop
  endfacet
  facet normal 0 -0.751841 -0.659345
    outer loop
      vertex 3.92523e-16 -1.76777 -1.76777
      vertex 7 -1.98338 -1.5219
      vertex 3.3793e-16 -1.98338 -1.5219
    endloop
  endfacet
  facet normal 0 -0.751841 -0.659345
    outer loop
      vertex 7 -1.98338 -1.5219
      vertex 3.92523e-16 -1.76777 -1.76777
      vertex 7 -1.76777 -1.76777
    endloop
  endfacet
  facet normal 0 -0.896873 -0.442288
    outer loop
      vertex 2.77556e-16 -2.16506 -1.25
      vertex 7 -2.3097 -0.956708
      vertex 2.12432e-16 -2.3097 -0.956708
    endloop
  endfacet
  facet normal 0 -0.896873 -0.442288
    outer loop
      vertex 7 -2.3097 -0.956708
      vertex 2.77556e-16 -2.16506 -1.25
      vertex 7 -2.16506 -1.25
    endloop
  endfacet
  facet normal 0 -0.94693 0.32144
    outer loop
      vertex -1.43673e-16 -2.41481 0.647047
      vertex 7 -2.3097 0.956708
      vertex -2.12432e-16 -2.3097 0.956708
    endloop
  endfacet
  facet normal 0 -0.94693 0.32144
    outer loop
      vertex 7 -2.3097 0.956708
      vertex -1.43673e-16 -2.41481 0.647047
      vertex 7 -2.41481 0.647047
    endloop
  endfacet
  facet normal 0 -0.659345 0.751841
    outer loop
      vertex 7 -1.5219 1.98338
      vertex -3.92523e-16 -1.76777 1.76777
      vertex 7 -1.76777 1.76777
    endloop
  endfacet
  facet normal 0 -0.659345 0.751841
    outer loop
      vertex -3.92523e-16 -1.76777 1.76777
      vertex 7 -1.5219 1.98338
      vertex -4.404e-16 -1.5219 1.98338
    endloop
  endfacet
  facet normal 0 -0.0654039 0.997859
    outer loop
      vertex 7 0 2.5
      vertex -5.50362e-16 -0.326315 2.47861
      vertex 7 -0.326315 2.47861
    endloop
  endfacet
  facet normal 0 -0.0654039 0.997859
    outer loop
      vertex -5.50362e-16 -0.326315 2.47861
      vertex 7 0 2.5
      vertex -5.55112e-16 0 2.5
    endloop
  endfacet
  facet normal 0 0.555569 -0.831471
    outer loop
      vertex 4.80741e-16 1.25 -2.16506
      vertex 7 1.5219 -1.98338
      vertex 7 1.25 -2.16506
    endloop
  endfacet
  facet normal 0 0.555569 -0.831471
    outer loop
      vertex 7 1.5219 -1.98338
      vertex 4.80741e-16 1.25 -2.16506
      vertex 4.404e-16 1.5219 -1.98338
    endloop
  endfacet
  facet normal 0 0.442289 -0.896873
    outer loop
      vertex 5.12856e-16 0.956708 -2.3097
      vertex 7 1.25 -2.16506
      vertex 7 0.956708 -2.3097
    endloop
  endfacet
  facet normal 0 0.442289 -0.896873
    outer loop
      vertex 7 1.25 -2.16506
      vertex 5.12856e-16 0.956708 -2.3097
      vertex 4.80741e-16 1.25 -2.16506
    endloop
  endfacet
  facet normal 0 0.94693 -0.32144
    outer loop
      vertex 7 2.3097 -0.956708
      vertex 1.43673e-16 2.41481 -0.647047
      vertex 7 2.41481 -0.647047
    endloop
  endfacet
  facet normal 0 0.94693 -0.32144
    outer loop
      vertex 1.43673e-16 2.41481 -0.647047
      vertex 7 2.3097 -0.956708
      vertex 2.12432e-16 2.3097 -0.956708
    endloop
  endfacet
  facet normal 0 0.980785 -0.195091
    outer loop
      vertex 7 2.41481 -0.647047
      vertex 7.24565e-17 2.47861 -0.326315
      vertex 7 2.47861 -0.326315
    endloop
  endfacet
  facet normal 0 0.980785 -0.195091
    outer loop
      vertex 7.24565e-17 2.47861 -0.326315
      vertex 7 2.41481 -0.647047
      vertex 1.43673e-16 2.41481 -0.647047
    endloop
  endfacet
  facet normal 0 0.751841 -0.659345
    outer loop
      vertex 7 1.76777 -1.76777
      vertex 3.3793e-16 1.98338 -1.5219
      vertex 7 1.98338 -1.5219
    endloop
  endfacet
  facet normal 0 0.751841 -0.659345
    outer loop
      vertex 3.3793e-16 1.98338 -1.5219
      vertex 7 1.76777 -1.76777
      vertex 3.92523e-16 1.76777 -1.76777
    endloop
  endfacet
  facet normal -0 0.442289 0.896873
    outer loop
      vertex -4.80741e-16 1.25 2.16506
      vertex 7 0.956708 2.3097
      vertex 7 1.25 2.16506
    endloop
  endfacet
  facet normal 0 0.442289 0.896873
    outer loop
      vertex 7 0.956708 2.3097
      vertex -4.80741e-16 1.25 2.16506
      vertex -5.12856e-16 0.956708 2.3097
    endloop
  endfacet
  facet normal -0 0.32144 0.94693
    outer loop
      vertex -5.12856e-16 0.956708 2.3097
      vertex 7 0.647047 2.41481
      vertex 7 0.956708 2.3097
    endloop
  endfacet
  facet normal 0 0.32144 0.94693
    outer loop
      vertex 7 0.647047 2.41481
      vertex -5.12856e-16 0.956708 2.3097
      vertex -5.36196e-16 0.647047 2.41481
    endloop
  endfacet
  facet normal -0 0.195091 0.980785
    outer loop
      vertex -5.36196e-16 0.647047 2.41481
      vertex 7 0.326315 2.47861
      vertex 7 0.647047 2.41481
    endloop
  endfacet
  facet normal 0 0.195091 0.980785
    outer loop
      vertex 7 0.326315 2.47861
      vertex -5.36196e-16 0.647047 2.41481
      vertex -5.50362e-16 0.326315 2.47861
    endloop
  endfacet
  facet normal 0 0.896873 0.442289
    outer loop
      vertex 7 2.3097 0.956708
      vertex -2.77556e-16 2.16506 1.25
      vertex 7 2.16506 1.25
    endloop
  endfacet
  facet normal 0 0.896873 0.442289
    outer loop
      vertex -2.77556e-16 2.16506 1.25
      vertex 7 2.3097 0.956708
      vertex -2.12432e-16 2.3097 0.956708
    endloop
  endfacet
  facet normal 0 -0.0654039 -0.997859
    outer loop
      vertex 7 -0.326315 -2.47861
      vertex 5.55112e-16 0 -2.5
      vertex 7 0 -2.5
    endloop
  endfacet
  facet normal 0 -0.0654039 -0.997859
    outer loop
      vertex 5.55112e-16 0 -2.5
      vertex 7 -0.326315 -2.47861
      vertex 5.50362e-16 -0.326315 -2.47861
    endloop
  endfacet
  facet normal 0 -0.83147 -0.55557
    outer loop
      vertex 3.3793e-16 -1.98338 -1.5219
      vertex 7 -2.16506 -1.25
      vertex 2.77556e-16 -2.16506 -1.25
    endloop
  endfacet
  facet normal 0 -0.83147 -0.55557
    outer loop
      vertex 7 -2.16506 -1.25
      vertex 3.3793e-16 -1.98338 -1.5219
      vertex 7 -1.98338 -1.5219
    endloop
  endfacet
  facet normal 0 -0.55557 -0.83147
    outer loop
      vertex 7 -1.5219 -1.98338
      vertex 4.80741e-16 -1.25 -2.16506
      vertex 7 -1.25 -2.16506
    endloop
  endfacet
  facet normal 0 -0.55557 -0.83147
    outer loop
      vertex 4.80741e-16 -1.25 -2.16506
      vertex 7 -1.5219 -1.98338
      vertex 4.404e-16 -1.5219 -1.98338
    endloop
  endfacet
  facet normal 0 -0.659345 -0.751841
    outer loop
      vertex 7 -1.76777 -1.76777
      vertex 4.404e-16 -1.5219 -1.98338
      vertex 7 -1.5219 -1.98338
    endloop
  endfacet
  facet normal 0 -0.659345 -0.751841
    outer loop
      vertex 4.404e-16 -1.5219 -1.98338
      vertex 7 -1.76777 -1.76777
      vertex 3.92523e-16 -1.76777 -1.76777
    endloop
  endfacet
  facet normal 0 -0.83147 0.55557
    outer loop
      vertex -2.77556e-16 -2.16506 1.25
      vertex 7 -1.98338 1.5219
      vertex -3.3793e-16 -1.98338 1.5219
    endloop
  endfacet
  facet normal 0 -0.83147 0.55557
    outer loop
      vertex 7 -1.98338 1.5219
      vertex -2.77556e-16 -2.16506 1.25
      vertex 7 -2.16506 1.25
    endloop
  endfacet
  facet normal 0 -0.751841 0.659345
    outer loop
      vertex -3.3793e-16 -1.98338 1.5219
      vertex 7 -1.76777 1.76777
      vertex -3.92523e-16 -1.76777 1.76777
    endloop
  endfacet
  facet normal 0 -0.751841 0.659345
    outer loop
      vertex 7 -1.76777 1.76777
      vertex -3.3793e-16 -1.98338 1.5219
      vertex 7 -1.98338 1.5219
    endloop
  endfacet
  facet normal 0 -0.896873 0.442288
    outer loop
      vertex -2.12432e-16 -2.3097 0.956708
      vertex 7 -2.16506 1.25
      vertex -2.77556e-16 -2.16506 1.25
    endloop
  endfacet
  facet normal 0 -0.896873 0.442288
    outer loop
      vertex 7 -2.16506 1.25
      vertex -2.12432e-16 -2.3097 0.956708
      vertex 7 -2.3097 0.956708
    endloop
  endfacet
  facet normal 0 -0.442289 0.896873
    outer loop
      vertex 7 -0.956708 2.3097
      vertex -4.80741e-16 -1.25 2.16506
      vertex 7 -1.25 2.16506
    endloop
  endfacet
  facet normal 0 -0.442289 0.896873
    outer loop
      vertex -4.80741e-16 -1.25 2.16506
      vertex 7 -0.956708 2.3097
      vertex -5.12856e-16 -0.956708 2.3097
    endloop
  endfacet
  facet normal 0 0.980785 0.195091
    outer loop
      vertex 7 2.47861 0.326315
      vertex -1.43673e-16 2.41481 0.647047
      vertex 7 2.41481 0.647047
    endloop
  endfacet
  facet normal 0 0.980785 0.195091
    outer loop
      vertex -1.43673e-16 2.41481 0.647047
      vertex 7 2.47861 0.326315
      vertex -7.24565e-17 2.47861 0.326315
    endloop
  endfacet
  facet normal 0 -0.94693 -0.32144
    outer loop
      vertex 2.12432e-16 -2.3097 -0.956708
      vertex 7 -2.41481 -0.647047
      vertex 1.43673e-16 -2.41481 -0.647047
    endloop
  endfacet
  facet normal 0 -0.94693 -0.32144
    outer loop
      vertex 7 -2.41481 -0.647047
      vertex 2.12432e-16 -2.3097 -0.956708
      vertex 7 -2.3097 -0.956708
    endloop
  endfacet
  facet normal 0 -0.442288 -0.896873
    outer loop
      vertex 7 -1.25 -2.16506
      vertex 5.12856e-16 -0.956708 -2.3097
      vertex 7 -0.956708 -2.3097
    endloop
  endfacet
  facet normal 0 -0.442288 -0.896873
    outer loop
      vertex 5.12856e-16 -0.956708 -2.3097
      vertex 7 -1.25 -2.16506
      vertex 4.80741e-16 -1.25 -2.16506
    endloop
  endfacet
  facet normal 0 -0.32144 -0.94693
    outer loop
      vertex 7 -0.956708 -2.3097
      vertex 5.36196e-16 -0.647047 -2.41481
      vertex 7 -0.647047 -2.41481
    endloop
  endfacet
  facet normal 0 -0.32144 -0.94693
    outer loop
      vertex 5.36196e-16 -0.647047 -2.41481
      vertex 7 -0.956708 -2.3097
      vertex 5.12856e-16 -0.956708 -2.3097
    endloop
  endfacet
  facet normal 0 -0.195091 -0.980785
    outer loop
      vertex 7 -0.647047 -2.41481
      vertex 5.50362e-16 -0.326315 -2.47861
      vertex 7 -0.326315 -2.47861
    endloop
  endfacet
  facet normal 0 -0.195091 -0.980785
    outer loop
      vertex 5.50362e-16 -0.326315 -2.47861
      vertex 7 -0.647047 -2.41481
      vertex 5.36196e-16 -0.647047 -2.41481
    endloop
  endfacet
  facet normal 0 -0.980785 0.195091
    outer loop
      vertex -7.24565e-17 -2.47861 0.326315
      vertex 7 -2.41481 0.647047
      vertex -1.43673e-16 -2.41481 0.647047
    endloop
  endfacet
  facet normal 0 -0.980785 0.195091
    outer loop
      vertex 7 -2.41481 0.647047
      vertex -7.24565e-17 -2.47861 0.326315
      vertex 7 -2.47861 0.326315
    endloop
  endfacet
  facet normal 0 -0.555569 0.831471
    outer loop
      vertex 7 -1.25 2.16506
      vertex -4.404e-16 -1.5219 1.98338
      vertex 7 -1.5219 1.98338
    endloop
  endfacet
  facet normal 0 -0.555569 0.831471
    outer loop
      vertex -4.404e-16 -1.5219 1.98338
      vertex 7 -1.25 2.16506
      vertex -4.80741e-16 -1.25 2.16506
    endloop
  endfacet
  facet normal 0 -0.32144 0.94693
    outer loop
      vertex 7 -0.647047 2.41481
      vertex -5.12856e-16 -0.956708 2.3097
      vertex 7 -0.956708 2.3097
    endloop
  endfacet
  facet normal 0 -0.32144 0.94693
    outer loop
      vertex -5.12856e-16 -0.956708 2.3097
      vertex 7 -0.647047 2.41481
      vertex -5.36196e-16 -0.647047 2.41481
    endloop
  endfacet
  facet normal 0 -0.0654079 0.997859
    outer loop
      vertex 7 0.195788 -1.48717
      vertex 3.33067e-16 0 -1.5
      vertex 7 0 -1.5
    endloop
  endfacet
  facet normal 0 -0.0654079 0.997859
    outer loop
      vertex 3.33067e-16 0 -1.5
      vertex 7 0.195788 -1.48717
      vertex 3.30217e-16 0.195788 -1.48717
    endloop
  endfacet
  facet normal 0 -0.0654079 -0.997859
    outer loop
      vertex 7 0 1.5
      vertex -3.30217e-16 0.195788 1.48717
      vertex 7 0.195788 1.48717
    endloop
  endfacet
  facet normal 0 -0.0654079 -0.997859
    outer loop
      vertex -3.30217e-16 0.195788 1.48717
      vertex 7 0 1.5
      vertex -3.33067e-16 0 1.5
    endloop
  endfacet
  facet normal -1.45249e-17 -0.997859 0.0654079
    outer loop
      vertex 4.34738e-17 1.48717 -0.195788
      vertex 7 1.5 1.55431e-15
      vertex 0 1.5 0
    endloop
  endfacet
  facet normal 0 -0.997859 0.0654079
    outer loop
      vertex 7 1.5 1.55431e-15
      vertex 4.34738e-17 1.48717 -0.195788
      vertex 7 1.48717 -0.195788
    endloop
  endfacet
  facet normal 0 0.997859 -0.0654079
    outer loop
      vertex 7 -1.5 1.55431e-15
      vertex -4.34738e-17 -1.48717 0.195788
      vertex 7 -1.48717 0.195788
    endloop
  endfacet
  facet normal 1.45249e-17 0.997859 -0.0654079
    outer loop
      vertex -4.34738e-17 -1.48717 0.195788
      vertex 7 -1.5 1.55431e-15
      vertex 0 -1.5 0
    endloop
  endfacet
  facet normal 0 0.659345 -0.75184
    outer loop
      vertex -2.35514e-16 -1.06066 1.06066
      vertex 7 -0.913141 1.19003
      vertex 7 -1.06066 1.06066
    endloop
  endfacet
  facet normal 0 0.659345 -0.75184
    outer loop
      vertex 7 -0.913141 1.19003
      vertex -2.35514e-16 -1.06066 1.06066
      vertex -2.6424e-16 -0.913141 1.19003
    endloop
  endfacet
  facet normal 0 -0.659345 0.75184
    outer loop
      vertex 7 1.06066 -1.06066
      vertex 2.6424e-16 0.913141 -1.19003
      vertex 7 0.913141 -1.19003
    endloop
  endfacet
  facet normal 0 -0.659345 0.75184
    outer loop
      vertex 2.6424e-16 0.913141 -1.19003
      vertex 7 1.06066 -1.06066
      vertex 2.35514e-16 1.06066 -1.06066
    endloop
  endfacet
  facet normal 0 -0.75184 -0.659345
    outer loop
      vertex -2.02758e-16 1.19003 0.913141
      vertex 7 1.06066 1.06066
      vertex -2.35514e-16 1.06066 1.06066
    endloop
  endfacet
  facet normal 0 -0.75184 -0.659345
    outer loop
      vertex 7 1.06066 1.06066
      vertex -2.02758e-16 1.19003 0.913141
      vertex 7 1.19003 0.913141
    endloop
  endfacet
  facet normal 0 -0.94693 -0.32144
    outer loop
      vertex -8.6204e-17 1.44889 0.388228
      vertex 7 1.38582 0.574024
      vertex -1.27459e-16 1.38582 0.574024
    endloop
  endfacet
  facet normal 0 -0.94693 -0.32144
    outer loop
      vertex 7 1.38582 0.574024
      vertex -8.6204e-17 1.44889 0.388228
      vertex 7 1.44889 0.388228
    endloop
  endfacet
  facet normal 0 -0.442286 0.896874
    outer loop
      vertex 7 0.749999 -1.29904
      vertex 3.07714e-16 0.574024 -1.38582
      vertex 7 0.574024 -1.38582
    endloop
  endfacet
  facet normal 0 -0.442286 0.896874
    outer loop
      vertex 3.07714e-16 0.574024 -1.38582
      vertex 7 0.749999 -1.29904
      vertex 2.88444e-16 0.749999 -1.29904
    endloop
  endfacet
  facet normal 0 -0.19509 0.980785
    outer loop
      vertex 7 0.388228 -1.44889
      vertex 3.30217e-16 0.195788 -1.48717
      vertex 7 0.195788 -1.48717
    endloop
  endfacet
  facet normal 0 -0.19509 0.980785
    outer loop
      vertex 3.30217e-16 0.195788 -1.48717
      vertex 7 0.388228 -1.44889
      vertex 3.21718e-16 0.388228 -1.44889
    endloop
  endfacet
  facet normal 0 -0.555573 0.831468
    outer loop
      vertex 7 0.913141 -1.19003
      vertex 2.88444e-16 0.749999 -1.29904
      vertex 7 0.749999 -1.29904
    endloop
  endfacet
  facet normal 0 -0.555573 0.831468
    outer loop
      vertex 2.88444e-16 0.749999 -1.29904
      vertex 7 0.913141 -1.19003
      vertex 2.6424e-16 0.913141 -1.19003
    endloop
  endfacet
  facet normal 0 -0.896875 0.442284
    outer loop
      vertex 1.66533e-16 1.29904 -0.75
      vertex 7 1.38582 -0.574024
      vertex 1.27459e-16 1.38582 -0.574024
    endloop
  endfacet
  facet normal 0 -0.896875 0.442284
    outer loop
      vertex 7 1.38582 -0.574024
      vertex 1.66533e-16 1.29904 -0.75
      vertex 7 1.29904 -0.75
    endloop
  endfacet
  facet normal 0 -0.94693 0.32144
    outer loop
      vertex 1.27459e-16 1.38582 -0.574024
      vertex 7 1.44889 -0.388228
      vertex 8.6204e-17 1.44889 -0.388228
    endloop
  endfacet
  facet normal 0 -0.94693 0.32144
    outer loop
      vertex 7 1.44889 -0.388228
      vertex 1.27459e-16 1.38582 -0.574024
      vertex 7 1.38582 -0.574024
    endloop
  endfacet
  facet normal 0 -0.831467 0.555575
    outer loop
      vertex 2.02758e-16 1.19003 -0.913141
      vertex 7 1.29904 -0.75
      vertex 1.66533e-16 1.29904 -0.75
    endloop
  endfacet
  facet normal 0 -0.831467 0.555575
    outer loop
      vertex 7 1.29904 -0.75
      vertex 2.02758e-16 1.19003 -0.913141
      vertex 7 1.19003 -0.913141
    endloop
  endfacet
  facet normal 0 -0.442286 -0.896874
    outer loop
      vertex 7 0.574024 1.38582
      vertex -2.88444e-16 0.749999 1.29904
      vertex 7 0.749999 1.29904
    endloop
  endfacet
  facet normal 0 -0.442286 -0.896874
    outer loop
      vertex -2.88444e-16 0.749999 1.29904
      vertex 7 0.574024 1.38582
      vertex -3.07714e-16 0.574024 1.38582
    endloop
  endfacet
  facet normal 0 -0.32144 -0.94693
    outer loop
      vertex 7 0.388228 1.44889
      vertex -3.07714e-16 0.574024 1.38582
      vertex 7 0.574024 1.38582
    endloop
  endfacet
  facet normal 0 -0.32144 -0.94693
    outer loop
      vertex -3.07714e-16 0.574024 1.38582
      vertex 7 0.388228 1.44889
      vertex -3.21718e-16 0.388228 1.44889
    endloop
  endfacet
  facet normal 0 -0.896874 -0.442286
    outer loop
      vertex -1.27459e-16 1.38582 0.574024
      vertex 7 1.29904 0.749999
      vertex -1.66533e-16 1.29904 0.749999
    endloop
  endfacet
  facet normal 0 -0.896874 -0.442286
    outer loop
      vertex 7 1.29904 0.749999
      vertex -1.27459e-16 1.38582 0.574024
      vertex 7 1.38582 0.574024
    endloop
  endfacet
  facet normal 0 -0.980785 -0.19509
    outer loop
      vertex -4.34738e-17 1.48717 0.195788
      vertex 7 1.44889 0.388228
      vertex -8.6204e-17 1.44889 0.388228
    endloop
  endfacet
  facet normal 0 -0.980785 -0.19509
    outer loop
      vertex 7 1.44889 0.388228
      vertex -4.34738e-17 1.48717 0.195788
      vertex 7 1.48717 0.195788
    endloop
  endfacet
  facet normal 0 0.896875 0.442284
    outer loop
      vertex 7 -1.29904 -0.75
      vertex 1.27459e-16 -1.38582 -0.574024
      vertex 7 -1.38582 -0.574024
    endloop
  endfacet
  facet normal 0 0.896875 0.442284
    outer loop
      vertex 1.27459e-16 -1.38582 -0.574024
      vertex 7 -1.29904 -0.75
      vertex 1.66533e-16 -1.29904 -0.75
    endloop
  endfacet
  facet normal 0 0.94693 -0.32144
    outer loop
      vertex 7 -1.44889 0.388228
      vertex -1.27459e-16 -1.38582 0.574024
      vertex 7 -1.38582 0.574024
    endloop
  endfacet
  facet normal 0 0.94693 -0.32144
    outer loop
      vertex -1.27459e-16 -1.38582 0.574024
      vertex 7 -1.44889 0.388228
      vertex -8.6204e-17 -1.44889 0.388228
    endloop
  endfacet
  facet normal 0 0.442286 -0.896874
    outer loop
      vertex -2.88444e-16 -0.749999 1.29904
      vertex 7 -0.574024 1.38582
      vertex 7 -0.749999 1.29904
    endloop
  endfacet
  facet normal 0 0.442286 -0.896874
    outer loop
      vertex 7 -0.574024 1.38582
      vertex -2.88444e-16 -0.749999 1.29904
      vertex -3.07714e-16 -0.574024 1.38582
    endloop
  endfacet
  facet normal 0 -0.32144 0.94693
    outer loop
      vertex 7 0.574024 -1.38582
      vertex 3.21718e-16 0.388228 -1.44889
      vertex 7 0.388228 -1.44889
    endloop
  endfacet
  facet normal 0 -0.32144 0.94693
    outer loop
      vertex 3.21718e-16 0.388228 -1.44889
      vertex 7 0.574024 -1.38582
      vertex 3.07714e-16 0.574024 -1.38582
    endloop
  endfacet
  facet normal 0 -0.980785 0.19509
    outer loop
      vertex 8.6204e-17 1.44889 -0.388228
      vertex 7 1.48717 -0.195788
      vertex 4.34738e-17 1.48717 -0.195788
    endloop
  endfacet
  facet normal 0 -0.980785 0.19509
    outer loop
      vertex 7 1.48717 -0.195788
      vertex 8.6204e-17 1.44889 -0.388228
      vertex 7 1.44889 -0.388228
    endloop
  endfacet
  facet normal 0 -0.75184 0.659345
    outer loop
      vertex 2.35514e-16 1.06066 -1.06066
      vertex 7 1.19003 -0.913141
      vertex 2.02758e-16 1.19003 -0.913141
    endloop
  endfacet
  facet normal 0 -0.75184 0.659345
    outer loop
      vertex 7 1.19003 -0.913141
      vertex 2.35514e-16 1.06066 -1.06066
      vertex 7 1.06066 -1.06066
    endloop
  endfacet
  facet normal 0 -0.555573 -0.831468
    outer loop
      vertex 7 0.749999 1.29904
      vertex -2.6424e-16 0.913141 1.19003
      vertex 7 0.913141 1.19003
    endloop
  endfacet
  facet normal 0 -0.555573 -0.831468
    outer loop
      vertex -2.6424e-16 0.913141 1.19003
      vertex 7 0.749999 1.29904
      vertex -2.88444e-16 0.749999 1.29904
    endloop
  endfacet
  facet normal 0 -0.659345 -0.75184
    outer loop
      vertex 7 0.913141 1.19003
      vertex -2.35514e-16 1.06066 1.06066
      vertex 7 1.06066 1.06066
    endloop
  endfacet
  facet normal 0 -0.659345 -0.75184
    outer loop
      vertex -2.35514e-16 1.06066 1.06066
      vertex 7 0.913141 1.19003
      vertex -2.6424e-16 0.913141 1.19003
    endloop
  endfacet
  facet normal 0 -0.19509 -0.980785
    outer loop
      vertex 7 0.195788 1.48717
      vertex -3.21718e-16 0.388228 1.44889
      vertex 7 0.388228 1.44889
    endloop
  endfacet
  facet normal 0 -0.19509 -0.980785
    outer loop
      vertex -3.21718e-16 0.388228 1.44889
      vertex 7 0.195788 1.48717
      vertex -3.30217e-16 0.195788 1.48717
    endloop
  endfacet
  facet normal 0 -0.831468 -0.555573
    outer loop
      vertex -1.66533e-16 1.29904 0.749999
      vertex 7 1.19003 0.913141
      vertex -2.02758e-16 1.19003 0.913141
    endloop
  endfacet
  facet normal 0 -0.831468 -0.555573
    outer loop
      vertex 7 1.19003 0.913141
      vertex -1.66533e-16 1.29904 0.749999
      vertex 7 1.29904 0.749999
    endloop
  endfacet
  facet normal 0 -0.997859 -0.0654079
    outer loop
      vertex -4.34738e-17 1.48717 0.195788
      vertex 7 1.5 1.55431e-15
      vertex 7 1.48717 0.195788
    endloop
  endfacet
  facet normal 1.45235e-17 -0.997859 -0.0654079
    outer loop
      vertex 7 1.5 1.55431e-15
      vertex -4.34738e-17 1.48717 0.195788
      vertex 0 1.5 0
    endloop
  endfacet
  facet normal -0 0.0654079 0.997859
    outer loop
      vertex 3.33067e-16 0 -1.5
      vertex 7 -0.195788 -1.48717
      vertex 7 0 -1.5
    endloop
  endfacet
  facet normal 0 0.0654079 0.997859
    outer loop
      vertex 7 -0.195788 -1.48717
      vertex 3.33067e-16 0 -1.5
      vertex 3.30217e-16 -0.195788 -1.48717
    endloop
  endfacet
  facet normal -1.45249e-17 0.997859 0.0654079
    outer loop
      vertex 7 -1.48717 -0.195788
      vertex 0 -1.5 0
      vertex 7 -1.5 1.55431e-15
    endloop
  endfacet
  facet normal 0 0.997859 0.0654079
    outer loop
      vertex 0 -1.5 0
      vertex 7 -1.48717 -0.195788
      vertex 4.34738e-17 -1.48717 -0.195788
    endloop
  endfacet
  facet normal 0 0.94693 0.32144
    outer loop
      vertex 7 -1.38582 -0.574024
      vertex 8.6204e-17 -1.44889 -0.388228
      vertex 7 -1.44889 -0.388228
    endloop
  endfacet
  facet normal 0 0.94693 0.32144
    outer loop
      vertex 8.6204e-17 -1.44889 -0.388228
      vertex 7 -1.38582 -0.574024
      vertex 1.27459e-16 -1.38582 -0.574024
    endloop
  endfacet
  facet normal 0 0.831467 0.555575
    outer loop
      vertex 7 -1.19003 -0.913141
      vertex 1.66533e-16 -1.29904 -0.75
      vertex 7 -1.29904 -0.75
    endloop
  endfacet
  facet normal 0 0.831467 0.555575
    outer loop
      vertex 1.66533e-16 -1.29904 -0.75
      vertex 7 -1.19003 -0.913141
      vertex 2.02758e-16 -1.19003 -0.913141
    endloop
  endfacet
  facet normal -0 0.32144 0.94693
    outer loop
      vertex 3.21718e-16 -0.388228 -1.44889
      vertex 7 -0.574024 -1.38582
      vertex 7 -0.388228 -1.44889
    endloop
  endfacet
  facet normal 0 0.32144 0.94693
    outer loop
      vertex 7 -0.574024 -1.38582
      vertex 3.21718e-16 -0.388228 -1.44889
      vertex 3.07714e-16 -0.574024 -1.38582
    endloop
  endfacet
  facet normal -0 0.659345 0.75184
    outer loop
      vertex 2.6424e-16 -0.913141 -1.19003
      vertex 7 -1.06066 -1.06066
      vertex 7 -0.913141 -1.19003
    endloop
  endfacet
  facet normal 0 0.659345 0.75184
    outer loop
      vertex 7 -1.06066 -1.06066
      vertex 2.6424e-16 -0.913141 -1.19003
      vertex 2.35514e-16 -1.06066 -1.06066
    endloop
  endfacet
  facet normal 0 0.75184 -0.659345
    outer loop
      vertex 7 -1.19003 0.913141
      vertex -2.35514e-16 -1.06066 1.06066
      vertex 7 -1.06066 1.06066
    endloop
  endfacet
  facet normal 0 0.75184 -0.659345
    outer loop
      vertex -2.35514e-16 -1.06066 1.06066
      vertex 7 -1.19003 0.913141
      vertex -2.02758e-16 -1.19003 0.913141
    endloop
  endfacet
  facet normal 0 0.896875 -0.442284
    outer loop
      vertex 7 -1.38582 0.574024
      vertex -1.66533e-16 -1.29904 0.75
      vertex 7 -1.29904 0.75
    endloop
  endfacet
  facet normal 0 0.896875 -0.442284
    outer loop
      vertex -1.66533e-16 -1.29904 0.75
      vertex 7 -1.38582 0.574024
      vertex -1.27459e-16 -1.38582 0.574024
    endloop
  endfacet
  facet normal 0 0.980785 -0.19509
    outer loop
      vertex 7 -1.48717 0.195788
      vertex -8.6204e-17 -1.44889 0.388228
      vertex 7 -1.44889 0.388228
    endloop
  endfacet
  facet normal 0 0.980785 -0.19509
    outer loop
      vertex -8.6204e-17 -1.44889 0.388228
      vertex 7 -1.48717 0.195788
      vertex -4.34738e-17 -1.48717 0.195788
    endloop
  endfacet
  facet normal 0 0.555573 -0.831468
    outer loop
      vertex -2.6424e-16 -0.913141 1.19003
      vertex 7 -0.749999 1.29904
      vertex 7 -0.913141 1.19003
    endloop
  endfacet
  facet normal 0 0.555573 -0.831468
    outer loop
      vertex 7 -0.749999 1.29904
      vertex -2.6424e-16 -0.913141 1.19003
      vertex -2.88444e-16 -0.749999 1.29904
    endloop
  endfacet
  facet normal 0 0.32144 -0.94693
    outer loop
      vertex -3.07714e-16 -0.574024 1.38582
      vertex 7 -0.388228 1.44889
      vertex 7 -0.574024 1.38582
    endloop
  endfacet
  facet normal 0 0.32144 -0.94693
    outer loop
      vertex 7 -0.388228 1.44889
      vertex -3.07714e-16 -0.574024 1.38582
      vertex -3.21718e-16 -0.388228 1.44889
    endloop
  endfacet
  facet normal 0 0.0654079 -0.997859
    outer loop
      vertex -3.30217e-16 -0.195788 1.48717
      vertex 7 0 1.5
      vertex 7 -0.195788 1.48717
    endloop
  endfacet
  facet normal 0 0.0654079 -0.997859
    outer loop
      vertex 7 0 1.5
      vertex -3.30217e-16 -0.195788 1.48717
      vertex -3.33067e-16 0 1.5
    endloop
  endfacet
  facet normal 0 0.980785 0.19509
    outer loop
      vertex 7 -1.44889 -0.388228
      vertex 4.34738e-17 -1.48717 -0.195788
      vertex 7 -1.48717 -0.195788
    endloop
  endfacet
  facet normal 0 0.980785 0.19509
    outer loop
      vertex 4.34738e-17 -1.48717 -0.195788
      vertex 7 -1.44889 -0.388228
      vertex 8.6204e-17 -1.44889 -0.388228
    endloop
  endfacet
  facet normal 0 0.75184 0.659345
    outer loop
      vertex 7 -1.06066 -1.06066
      vertex 2.02758e-16 -1.19003 -0.913141
      vertex 7 -1.19003 -0.913141
    endloop
  endfacet
  facet normal 0 0.75184 0.659345
    outer loop
      vertex 2.02758e-16 -1.19003 -0.913141
      vertex 7 -1.06066 -1.06066
      vertex 2.35514e-16 -1.06066 -1.06066
    endloop
  endfacet
  facet normal -0 0.442284 0.896875
    outer loop
      vertex 3.07714e-16 -0.574024 -1.38582
      vertex 7 -0.75 -1.29904
      vertex 7 -0.574024 -1.38582
    endloop
  endfacet
  facet normal 0 0.442284 0.896875
    outer loop
      vertex 7 -0.75 -1.29904
      vertex 3.07714e-16 -0.574024 -1.38582
      vertex 2.88444e-16 -0.75 -1.29904
    endloop
  endfacet
  facet normal -0 0.19509 0.980785
    outer loop
      vertex 3.30217e-16 -0.195788 -1.48717
      vertex 7 -0.388228 -1.44889
      vertex 7 -0.195788 -1.48717
    endloop
  endfacet
  facet normal 0 0.19509 0.980785
    outer loop
      vertex 7 -0.388228 -1.44889
      vertex 3.30217e-16 -0.195788 -1.48717
      vertex 3.21718e-16 -0.388228 -1.44889
    endloop
  endfacet
  facet normal 0 0.831467 -0.555575
    outer loop
      vertex 7 -1.29904 0.75
      vertex -2.02758e-16 -1.19003 0.913141
      vertex 7 -1.19003 0.913141
    endloop
  endfacet
  facet normal 0 0.831467 -0.555575
    outer loop
      vertex -2.02758e-16 -1.19003 0.913141
      vertex 7 -1.29904 0.75
      vertex -1.66533e-16 -1.29904 0.75
    endloop
  endfacet
  facet normal 0 0.19509 -0.980785
    outer loop
      vertex -3.21718e-16 -0.388228 1.44889
      vertex 7 -0.195788 1.48717
      vertex 7 -0.388228 1.44889
    endloop
  endfacet
  facet normal 0 0.19509 -0.980785
    outer loop
      vertex 7 -0.195788 1.48717
      vertex -3.21718e-16 -0.388228 1.44889
      vertex -3.30217e-16 -0.195788 1.48717
    endloop
  endfacet
  facet normal -0 0.555575 0.831467
    outer loop
      vertex 2.88444e-16 -0.75 -1.29904
      vertex 7 -0.913141 -1.19003
      vertex 7 -0.75 -1.29904
    endloop
  endfacet
  facet normal 0 0.555575 0.831467
    outer loop
      vertex 7 -0.913141 -1.19003
      vertex 2.88444e-16 -0.75 -1.29904
      vertex 2.6424e-16 -0.913141 -1.19003
    endloop
  endfacet
endsolid OpenSCAD_Model
