solid OpenSCAD_Model
  facet normal 0.999465 0.0327191 0
    outer loop
      vertex 3 0 3
      vertex 2.99358 0.196209 0
      vertex 2.99358 0.196209 3
    endloop
  endfacet
  facet normal 0.999465 0.0327191 0
    outer loop
      vertex 2.99358 0.196209 0
      vertex 3 0 3
      vertex 3 0 0
    endloop
  endfacet
  facet normal 0.995185 0.0980176 0
    outer loop
      vertex 2.99358 0.196209 3
      vertex 2.97433 0.391579 0
      vertex 2.97433 0.391579 3
    endloop
  endfacet
  facet normal 0.995185 0.0980176 0
    outer loop
      vertex 2.97433 0.391579 0
      vertex 2.99358 0.196209 3
      vertex 2.99358 0.196209 0
    endloop
  endfacet
  facet normal 0.986643 0.162895 0
    outer loop
      vertex 2.97433 0.391579 3
      vertex 2.94236 0.585271 0
      vertex 2.94236 0.585271 3
    endloop
  endfacet
  facet normal 0.986643 0.162895 0
    outer loop
      vertex 2.94236 0.585271 0
      vertex 2.97433 0.391579 3
      vertex 2.97433 0.391579 0
    endloop
  endfacet
  facet normal 0.973877 0.227076 0
    outer loop
      vertex 2.94236 0.585271 3
      vertex 2.89778 0.776457 0
      vertex 2.89778 0.776457 3
    endloop
  endfacet
  facet normal 0.973877 0.227076 0
    outer loop
      vertex 2.89778 0.776457 0
      vertex 2.94236 0.585271 3
      vertex 2.94236 0.585271 0
    endloop
  endfacet
  facet normal 0.95694 0.290286 0
    outer loop
      vertex 2.89778 0.776457 3
      vertex 2.84079 0.964318 0
      vertex 2.84079 0.964318 3
    endloop
  endfacet
  facet normal 0.95694 0.290286 0
    outer loop
      vertex 2.84079 0.964318 0
      vertex 2.89778 0.776457 3
      vertex 2.89778 0.776457 0
    endloop
  endfacet
  facet normal 0.935906 0.352249 0
    outer loop
      vertex 2.84079 0.964318 3
      vertex 2.77164 1.14805 0
      vertex 2.77164 1.14805 3
    endloop
  endfacet
  facet normal 0.935906 0.352249 0
    outer loop
      vertex 2.77164 1.14805 0
      vertex 2.84079 0.964318 3
      vertex 2.84079 0.964318 0
    endloop
  endfacet
  facet normal 0.910864 0.412707 0
    outer loop
      vertex 2.77164 1.14805 3
      vertex 2.69062 1.32687 0
      vertex 2.69062 1.32687 3
    endloop
  endfacet
  facet normal 0.910864 0.412707 0
    outer loop
      vertex 2.69062 1.32687 0
      vertex 2.77164 1.14805 3
      vertex 2.77164 1.14805 0
    endloop
  endfacet
  facet normal 0.881921 0.471397 0
    outer loop
      vertex 2.69062 1.32687 3
      vertex 2.59808 1.5 0
      vertex 2.59808 1.5 3
    endloop
  endfacet
  facet normal 0.881921 0.471397 0
    outer loop
      vertex 2.59808 1.5 0
      vertex 2.69062 1.32687 3
      vertex 2.69062 1.32687 0
    endloop
  endfacet
  facet normal 0.849202 0.528067 0
    outer loop
      vertex 2.59808 1.5 3
      vertex 2.49441 1.66671 0
      vertex 2.49441 1.66671 3
    endloop
  endfacet
  facet normal 0.849202 0.528067 0
    outer loop
      vertex 2.49441 1.66671 0
      vertex 2.59808 1.5 3
      vertex 2.59808 1.5 0
    endloop
  endfacet
  facet normal 0.812846 0.582478 0
    outer loop
      vertex 2.49441 1.66671 3
      vertex 2.38006 1.82628 0
      vertex 2.38006 1.82628 3
    endloop
  endfacet
  facet normal 0.812846 0.582478 0
    outer loop
      vertex 2.38006 1.82628 0
      vertex 2.49441 1.66671 3
      vertex 2.49441 1.66671 0
    endloop
  endfacet
  facet normal 0.773011 0.634393 0
    outer loop
      vertex 2.38006 1.82628 3
      vertex 2.25552 1.97804 0
      vertex 2.25552 1.97804 3
    endloop
  endfacet
  facet normal 0.773011 0.634393 0
    outer loop
      vertex 2.25552 1.97804 0
      vertex 2.38006 1.82628 3
      vertex 2.38006 1.82628 0
    endloop
  endfacet
  facet normal 0.729864 0.683593 0
    outer loop
      vertex 2.25552 1.97804 3
      vertex 2.12132 2.12132 0
      vertex 2.12132 2.12132 3
    endloop
  endfacet
  facet normal 0.729864 0.683593 0
    outer loop
      vertex 2.12132 2.12132 0
      vertex 2.25552 1.97804 3
      vertex 2.25552 1.97804 0
    endloop
  endfacet
  facet normal 0.683593 0.729864 -0
    outer loop
      vertex 2.12132 2.12132 0
      vertex 1.97804 2.25552 3
      vertex 2.12132 2.12132 3
    endloop
  endfacet
  facet normal 0.683593 0.729864 0
    outer loop
      vertex 1.97804 2.25552 3
      vertex 2.12132 2.12132 0
      vertex 1.97804 2.25552 0
    endloop
  endfacet
  facet normal 0.634393 0.773011 -0
    outer loop
      vertex 1.97804 2.25552 0
      vertex 1.82628 2.38006 3
      vertex 1.97804 2.25552 3
    endloop
  endfacet
  facet normal 0.634393 0.773011 0
    outer loop
      vertex 1.82628 2.38006 3
      vertex 1.97804 2.25552 0
      vertex 1.82628 2.38006 0
    endloop
  endfacet
  facet normal 0.582478 0.812846 -0
    outer loop
      vertex 1.82628 2.38006 0
      vertex 1.66671 2.49441 3
      vertex 1.82628 2.38006 3
    endloop
  endfacet
  facet normal 0.582478 0.812846 0
    outer loop
      vertex 1.66671 2.49441 3
      vertex 1.82628 2.38006 0
      vertex 1.66671 2.49441 0
    endloop
  endfacet
  facet normal 0.528067 0.849202 -0
    outer loop
      vertex 1.66671 2.49441 0
      vertex 1.5 2.59808 3
      vertex 1.66671 2.49441 3
    endloop
  endfacet
  facet normal 0.528067 0.849202 0
    outer loop
      vertex 1.5 2.59808 3
      vertex 1.66671 2.49441 0
      vertex 1.5 2.59808 0
    endloop
  endfacet
  facet normal 0.471397 0.881921 -0
    outer loop
      vertex 1.5 2.59808 0
      vertex 1.32687 2.69062 3
      vertex 1.5 2.59808 3
    endloop
  endfacet
  facet normal 0.471397 0.881921 0
    outer loop
      vertex 1.32687 2.69062 3
      vertex 1.5 2.59808 0
      vertex 1.32687 2.69062 0
    endloop
  endfacet
  facet normal 0.412707 0.910864 -0
    outer loop
      vertex 1.32687 2.69062 0
      vertex 1.14805 2.77164 3
      vertex 1.32687 2.69062 3
    endloop
  endfacet
  facet normal 0.412707 0.910864 0
    outer loop
      vertex 1.14805 2.77164 3
      vertex 1.32687 2.69062 0
      vertex 1.14805 2.77164 0
    endloop
  endfacet
  facet normal 0.352249 0.935906 -0
    outer loop
      vertex 1.14805 2.77164 0
      vertex 0.964318 2.84079 3
      vertex 1.14805 2.77164 3
    endloop
  endfacet
  facet normal 0.352249 0.935906 0
    outer loop
      vertex 0.964318 2.84079 3
      vertex 1.14805 2.77164 0
      vertex 0.964318 2.84079 0
    endloop
  endfacet
  facet normal 0.290286 0.95694 -0
    outer loop
      vertex 0.964318 2.84079 0
      vertex 0.776457 2.89778 3
      vertex 0.964318 2.84079 3
    endloop
  endfacet
  facet normal 0.290286 0.95694 0
    outer loop
      vertex 0.776457 2.89778 3
      vertex 0.964318 2.84079 0
      vertex 0.776457 2.89778 0
    endloop
  endfacet
  facet normal 0.227076 0.973877 -0
    outer loop
      vertex 0.776457 2.89778 0
      vertex 0.585271 2.94236 3
      vertex 0.776457 2.89778 3
    endloop
  endfacet
  facet normal 0.227076 0.973877 0
    outer loop
      vertex 0.585271 2.94236 3
      vertex 0.776457 2.89778 0
      vertex 0.585271 2.94236 0
    endloop
  endfacet
  facet normal 0.162895 0.986643 -0
    outer loop
      vertex 0.585271 2.94236 0
      vertex 0.391579 2.97433 3
      vertex 0.585271 2.94236 3
    endloop
  endfacet
  facet normal 0.162895 0.986643 0
    outer loop
      vertex 0.391579 2.97433 3
      vertex 0.585271 2.94236 0
      vertex 0.391579 2.97433 0
    endloop
  endfacet
  facet normal 0.0980176 0.995185 -0
    outer loop
      vertex 0.391579 2.97433 0
      vertex 0.196209 2.99358 3
      vertex 0.391579 2.97433 3
    endloop
  endfacet
  facet normal 0.0980176 0.995185 0
    outer loop
      vertex 0.196209 2.99358 3
      vertex 0.391579 2.97433 0
      vertex 0.196209 2.99358 0
    endloop
  endfacet
  facet normal 0.0327191 0.999465 -0
    outer loop
      vertex 0.196209 2.99358 0
      vertex 1.83697e-16 3 3
      vertex 0.196209 2.99358 3
    endloop
  endfacet
  facet normal 0.0327191 0.999465 0
    outer loop
      vertex 1.83697e-16 3 3
      vertex 0.196209 2.99358 0
      vertex 1.83697e-16 3 0
    endloop
  endfacet
  facet normal -0.0327191 0.999465 0
    outer loop
      vertex 1.83697e-16 3 0
      vertex -0.196209 2.99358 3
      vertex 1.83697e-16 3 3
    endloop
  endfacet
  facet normal -0.0327191 0.999465 0
    outer loop
      vertex -0.196209 2.99358 3
      vertex 1.83697e-16 3 0
      vertex -0.196209 2.99358 0
    endloop
  endfacet
  facet normal -0.0980176 0.995185 0
    outer loop
      vertex -0.196209 2.99358 0
      vertex -0.391579 2.97433 3
      vertex -0.196209 2.99358 3
    endloop
  endfacet
  facet normal -0.0980176 0.995185 0
    outer loop
      vertex -0.391579 2.97433 3
      vertex -0.196209 2.99358 0
      vertex -0.391579 2.97433 0
    endloop
  endfacet
  facet normal -0.162895 0.986643 0
    outer loop
      vertex -0.391579 2.97433 0
      vertex -0.585271 2.94236 3
      vertex -0.391579 2.97433 3
    endloop
  endfacet
  facet normal -0.162895 0.986643 0
    outer loop
      vertex -0.585271 2.94236 3
      vertex -0.391579 2.97433 0
      vertex -0.585271 2.94236 0
    endloop
  endfacet
  facet normal -0.227076 0.973877 0
    outer loop
      vertex -0.585271 2.94236 0
      vertex -0.776457 2.89778 3
      vertex -0.585271 2.94236 3
    endloop
  endfacet
  facet normal -0.227076 0.973877 0
    outer loop
      vertex -0.776457 2.89778 3
      vertex -0.585271 2.94236 0
      vertex -0.776457 2.89778 0
    endloop
  endfacet
  facet normal -0.290286 0.95694 0
    outer loop
      vertex -0.776457 2.89778 0
      vertex -0.964318 2.84079 3
      vertex -0.776457 2.89778 3
    endloop
  endfacet
  facet normal -0.290286 0.95694 0
    outer loop
      vertex -0.964318 2.84079 3
      vertex -0.776457 2.89778 0
      vertex -0.964318 2.84079 0
    endloop
  endfacet
  facet normal -0.352249 0.935906 0
    outer loop
      vertex -0.964318 2.84079 0
      vertex -1.14805 2.77164 3
      vertex -0.964318 2.84079 3
    endloop
  endfacet
  facet normal -0.352249 0.935906 0
    outer loop
      vertex -1.14805 2.77164 3
      vertex -0.964318 2.84079 0
      vertex -1.14805 2.77164 0
    endloop
  endfacet
  facet normal -0.412707 0.910864 0
    outer loop
      vertex -1.14805 2.77164 0
      vertex -1.32687 2.69062 3
      vertex -1.14805 2.77164 3
    endloop
  endfacet
  facet normal -0.412707 0.910864 0
    outer loop
      vertex -1.32687 2.69062 3
      vertex -1.14805 2.77164 0
      vertex -1.32687 2.69062 0
    endloop
  endfacet
  facet normal -0.471397 0.881921 0
    outer loop
      vertex -1.32687 2.69062 0
      vertex -1.5 2.59808 3
      vertex -1.32687 2.69062 3
    endloop
  endfacet
  facet normal -0.471397 0.881921 0
    outer loop
      vertex -1.5 2.59808 3
      vertex -1.32687 2.69062 0
      vertex -1.5 2.59808 0
    endloop
  endfacet
  facet normal -0.528067 0.849202 0
    outer loop
      vertex -1.5 2.59808 0
      vertex -1.66671 2.49441 3
      vertex -1.5 2.59808 3
    endloop
  endfacet
  facet normal -0.528067 0.849202 0
    outer loop
      vertex -1.66671 2.49441 3
      vertex -1.5 2.59808 0
      vertex -1.66671 2.49441 0
    endloop
  endfacet
  facet normal -0.582478 0.812846 0
    outer loop
      vertex -1.66671 2.49441 0
      vertex -1.82628 2.38006 3
      vertex -1.66671 2.49441 3
    endloop
  endfacet
  facet normal -0.582478 0.812846 0
    outer loop
      vertex -1.82628 2.38006 3
      vertex -1.66671 2.49441 0
      vertex -1.82628 2.38006 0
    endloop
  endfacet
  facet normal -0.634393 0.773011 0
    outer loop
      vertex -1.82628 2.38006 0
      vertex -1.97804 2.25552 3
      vertex -1.82628 2.38006 3
    endloop
  endfacet
  facet normal -0.634393 0.773011 0
    outer loop
      vertex -1.97804 2.25552 3
      vertex -1.82628 2.38006 0
      vertex -1.97804 2.25552 0
    endloop
  endfacet
  facet normal -0.683593 0.729864 0
    outer loop
      vertex -1.97804 2.25552 0
      vertex -2.12132 2.12132 3
      vertex -1.97804 2.25552 3
    endloop
  endfacet
  facet normal -0.683593 0.729864 0
    outer loop
      vertex -2.12132 2.12132 3
      vertex -1.97804 2.25552 0
      vertex -2.12132 2.12132 0
    endloop
  endfacet
  facet normal -0.729864 0.683593 0
    outer loop
      vertex -2.25552 1.97804 0
      vertex -2.12132 2.12132 3
      vertex -2.12132 2.12132 0
    endloop
  endfacet
  facet normal -0.729864 0.683593 0
    outer loop
      vertex -2.12132 2.12132 3
      vertex -2.25552 1.97804 0
      vertex -2.25552 1.97804 3
    endloop
  endfacet
  facet normal -0.773011 0.634393 0
    outer loop
      vertex -2.38006 1.82628 0
      vertex -2.25552 1.97804 3
      vertex -2.25552 1.97804 0
    endloop
  endfacet
  facet normal -0.773011 0.634393 0
    outer loop
      vertex -2.25552 1.97804 3
      vertex -2.38006 1.82628 0
      vertex -2.38006 1.82628 3
    endloop
  endfacet
  facet normal -0.812846 0.582478 0
    outer loop
      vertex -2.49441 1.66671 0
      vertex -2.38006 1.82628 3
      vertex -2.38006 1.82628 0
    endloop
  endfacet
  facet normal -0.812846 0.582478 0
    outer loop
      vertex -2.38006 1.82628 3
      vertex -2.49441 1.66671 0
      vertex -2.49441 1.66671 3
    endloop
  endfacet
  facet normal -0.849202 0.528067 0
    outer loop
      vertex -2.59808 1.5 0
      vertex -2.49441 1.66671 3
      vertex -2.49441 1.66671 0
    endloop
  endfacet
  facet normal -0.849202 0.528067 0
    outer loop
      vertex -2.49441 1.66671 3
      vertex -2.59808 1.5 0
      vertex -2.59808 1.5 3
    endloop
  endfacet
  facet normal -0.881921 0.471397 0
    outer loop
      vertex -2.69062 1.32687 0
      vertex -2.59808 1.5 3
      vertex -2.59808 1.5 0
    endloop
  endfacet
  facet normal -0.881921 0.471397 0
    outer loop
      vertex -2.59808 1.5 3
      vertex -2.69062 1.32687 0
      vertex -2.69062 1.32687 3
    endloop
  endfacet
  facet normal -0.910864 0.412707 0
    outer loop
      vertex -2.77164 1.14805 0
      vertex -2.69062 1.32687 3
      vertex -2.69062 1.32687 0
    endloop
  endfacet
  facet normal -0.910864 0.412707 0
    outer loop
      vertex -2.69062 1.32687 3
      vertex -2.77164 1.14805 0
      vertex -2.77164 1.14805 3
    endloop
  endfacet
  facet normal -0.935906 0.352249 0
    outer loop
      vertex -2.84079 0.964318 0
      vertex -2.77164 1.14805 3
      vertex -2.77164 1.14805 0
    endloop
  endfacet
  facet normal -0.935906 0.352249 0
    outer loop
      vertex -2.77164 1.14805 3
      vertex -2.84079 0.964318 0
      vertex -2.84079 0.964318 3
    endloop
  endfacet
  facet normal -0.95694 0.290286 0
    outer loop
      vertex -2.89778 0.776457 0
      vertex -2.84079 0.964318 3
      vertex -2.84079 0.964318 0
    endloop
  endfacet
  facet normal -0.95694 0.290286 0
    outer loop
      vertex -2.84079 0.964318 3
      vertex -2.89778 0.776457 0
      vertex -2.89778 0.776457 3
    endloop
  endfacet
  facet normal -0.973877 0.227076 0
    outer loop
      vertex -2.94236 0.585271 0
      vertex -2.89778 0.776457 3
      vertex -2.89778 0.776457 0
    endloop
  endfacet
  facet normal -0.973877 0.227076 0
    outer loop
      vertex -2.89778 0.776457 3
      vertex -2.94236 0.585271 0
      vertex -2.94236 0.585271 3
    endloop
  endfacet
  facet normal -0.986643 0.162895 0
    outer loop
      vertex -2.97433 0.391579 0
      vertex -2.94236 0.585271 3
      vertex -2.94236 0.585271 0
    endloop
  endfacet
  facet normal -0.986643 0.162895 0
    outer loop
      vertex -2.94236 0.585271 3
      vertex -2.97433 0.391579 0
      vertex -2.97433 0.391579 3
    endloop
  endfacet
  facet normal -0.995185 0.0980176 0
    outer loop
      vertex -2.99358 0.196209 0
      vertex -2.97433 0.391579 3
      vertex -2.97433 0.391579 0
    endloop
  endfacet
  facet normal -0.995185 0.0980176 0
    outer loop
      vertex -2.97433 0.391579 3
      vertex -2.99358 0.196209 0
      vertex -2.99358 0.196209 3
    endloop
  endfacet
  facet normal -0.999465 0.0327191 0
    outer loop
      vertex -3 3.67394e-16 0
      vertex -2.99358 0.196209 3
      vertex -2.99358 0.196209 0
    endloop
  endfacet
  facet normal -0.999465 0.0327191 0
    outer loop
      vertex -2.99358 0.196209 3
      vertex -3 3.67394e-16 0
      vertex -3 3.67394e-16 3
    endloop
  endfacet
  facet normal -0.999465 -0.0327191 0
    outer loop
      vertex -2.99358 -0.196209 0
      vertex -3 3.67394e-16 3
      vertex -3 3.67394e-16 0
    endloop
  endfacet
  facet normal -0.999465 -0.0327191 0
    outer loop
      vertex -3 3.67394e-16 3
      vertex -2.99358 -0.196209 0
      vertex -2.99358 -0.196209 3
    endloop
  endfacet
  facet normal -0.995185 -0.0980176 0
    outer loop
      vertex -2.97433 -0.391579 0
      vertex -2.99358 -0.196209 3
      vertex -2.99358 -0.196209 0
    endloop
  endfacet
  facet normal -0.995185 -0.0980176 0
    outer loop
      vertex -2.99358 -0.196209 3
      vertex -2.97433 -0.391579 0
      vertex -2.97433 -0.391579 3
    endloop
  endfacet
  facet normal -0.986643 -0.162895 0
    outer loop
      vertex -2.94236 -0.585271 0
      vertex -2.97433 -0.391579 3
      vertex -2.97433 -0.391579 0
    endloop
  endfacet
  facet normal -0.986643 -0.162895 0
    outer loop
      vertex -2.97433 -0.391579 3
      vertex -2.94236 -0.585271 0
      vertex -2.94236 -0.585271 3
    endloop
  endfacet
  facet normal -0.973877 -0.227076 0
    outer loop
      vertex -2.89778 -0.776457 0
      vertex -2.94236 -0.585271 3
      vertex -2.94236 -0.585271 0
    endloop
  endfacet
  facet normal -0.973877 -0.227076 0
    outer loop
      vertex -2.94236 -0.585271 3
      vertex -2.89778 -0.776457 0
      vertex -2.89778 -0.776457 3
    endloop
  endfacet
  facet normal -0.95694 -0.290286 0
    outer loop
      vertex -2.84079 -0.964318 0
      vertex -2.89778 -0.776457 3
      vertex -2.89778 -0.776457 0
    endloop
  endfacet
  facet normal -0.95694 -0.290286 0
    outer loop
      vertex -2.89778 -0.776457 3
      vertex -2.84079 -0.964318 0
      vertex -2.84079 -0.964318 3
    endloop
  endfacet
  facet normal -0.935906 -0.352249 0
    outer loop
      vertex -2.77164 -1.14805 0
      vertex -2.84079 -0.964318 3
      vertex -2.84079 -0.964318 0
    endloop
  endfacet
  facet normal -0.935906 -0.352249 0
    outer loop
      vertex -2.84079 -0.964318 3
      vertex -2.77164 -1.14805 0
      vertex -2.77164 -1.14805 3
    endloop
  endfacet
  facet normal -0.910864 -0.412707 0
    outer loop
      vertex -2.69062 -1.32687 0
      vertex -2.77164 -1.14805 3
      vertex -2.77164 -1.14805 0
    endloop
  endfacet
  facet normal -0.910864 -0.412707 0
    outer loop
      vertex -2.77164 -1.14805 3
      vertex -2.69062 -1.32687 0
      vertex -2.69062 -1.32687 3
    endloop
  endfacet
  facet normal -0.881921 -0.471397 0
    outer loop
      vertex -2.59808 -1.5 0
      vertex -2.69062 -1.32687 3
      vertex -2.69062 -1.32687 0
    endloop
  endfacet
  facet normal -0.881921 -0.471397 0
    outer loop
      vertex -2.69062 -1.32687 3
      vertex -2.59808 -1.5 0
      vertex -2.59808 -1.5 3
    endloop
  endfacet
  facet normal -0.849202 -0.528067 0
    outer loop
      vertex -2.49441 -1.66671 0
      vertex -2.59808 -1.5 3
      vertex -2.59808 -1.5 0
    endloop
  endfacet
  facet normal -0.849202 -0.528067 0
    outer loop
      vertex -2.59808 -1.5 3
      vertex -2.49441 -1.66671 0
      vertex -2.49441 -1.66671 3
    endloop
  endfacet
  facet normal -0.812846 -0.582478 0
    outer loop
      vertex -2.38006 -1.82628 0
      vertex -2.49441 -1.66671 3
      vertex -2.49441 -1.66671 0
    endloop
  endfacet
  facet normal -0.812846 -0.582478 0
    outer loop
      vertex -2.49441 -1.66671 3
      vertex -2.38006 -1.82628 0
      vertex -2.38006 -1.82628 3
    endloop
  endfacet
  facet normal -0.773011 -0.634393 0
    outer loop
      vertex -2.25552 -1.97804 0
      vertex -2.38006 -1.82628 3
      vertex -2.38006 -1.82628 0
    endloop
  endfacet
  facet normal -0.773011 -0.634393 0
    outer loop
      vertex -2.38006 -1.82628 3
      vertex -2.25552 -1.97804 0
      vertex -2.25552 -1.97804 3
    endloop
  endfacet
  facet normal -0.729864 -0.683593 0
    outer loop
      vertex -2.12132 -2.12132 0
      vertex -2.25552 -1.97804 3
      vertex -2.25552 -1.97804 0
    endloop
  endfacet
  facet normal -0.729864 -0.683593 0
    outer loop
      vertex -2.25552 -1.97804 3
      vertex -2.12132 -2.12132 0
      vertex -2.12132 -2.12132 3
    endloop
  endfacet
  facet normal -0.683593 -0.729864 0
    outer loop
      vertex -2.12132 -2.12132 0
      vertex -1.97804 -2.25552 3
      vertex -2.12132 -2.12132 3
    endloop
  endfacet
  facet normal -0.683593 -0.729864 -0
    outer loop
      vertex -1.97804 -2.25552 3
      vertex -2.12132 -2.12132 0
      vertex -1.97804 -2.25552 0
    endloop
  endfacet
  facet normal -0.634393 -0.773011 0
    outer loop
      vertex -1.97804 -2.25552 0
      vertex -1.82628 -2.38006 3
      vertex -1.97804 -2.25552 3
    endloop
  endfacet
  facet normal -0.634393 -0.773011 -0
    outer loop
      vertex -1.82628 -2.38006 3
      vertex -1.97804 -2.25552 0
      vertex -1.82628 -2.38006 0
    endloop
  endfacet
  facet normal -0.582478 -0.812846 0
    outer loop
      vertex -1.82628 -2.38006 0
      vertex -1.66671 -2.49441 3
      vertex -1.82628 -2.38006 3
    endloop
  endfacet
  facet normal -0.582478 -0.812846 -0
    outer loop
      vertex -1.66671 -2.49441 3
      vertex -1.82628 -2.38006 0
      vertex -1.66671 -2.49441 0
    endloop
  endfacet
  facet normal -0.528067 -0.849202 0
    outer loop
      vertex -1.66671 -2.49441 0
      vertex -1.5 -2.59808 3
      vertex -1.66671 -2.49441 3
    endloop
  endfacet
  facet normal -0.528067 -0.849202 -0
    outer loop
      vertex -1.5 -2.59808 3
      vertex -1.66671 -2.49441 0
      vertex -1.5 -2.59808 0
    endloop
  endfacet
  facet normal -0.471397 -0.881921 0
    outer loop
      vertex -1.5 -2.59808 0
      vertex -1.32687 -2.69062 3
      vertex -1.5 -2.59808 3
    endloop
  endfacet
  facet normal -0.471397 -0.881921 -0
    outer loop
      vertex -1.32687 -2.69062 3
      vertex -1.5 -2.59808 0
      vertex -1.32687 -2.69062 0
    endloop
  endfacet
  facet normal -0.412707 -0.910864 0
    outer loop
      vertex -1.32687 -2.69062 0
      vertex -1.14805 -2.77164 3
      vertex -1.32687 -2.69062 3
    endloop
  endfacet
  facet normal -0.412707 -0.910864 -0
    outer loop
      vertex -1.14805 -2.77164 3
      vertex -1.32687 -2.69062 0
      vertex -1.14805 -2.77164 0
    endloop
  endfacet
  facet normal -0.352249 -0.935906 0
    outer loop
      vertex -1.14805 -2.77164 0
      vertex -0.964318 -2.84079 3
      vertex -1.14805 -2.77164 3
    endloop
  endfacet
  facet normal -0.352249 -0.935906 -0
    outer loop
      vertex -0.964318 -2.84079 3
      vertex -1.14805 -2.77164 0
      vertex -0.964318 -2.84079 0
    endloop
  endfacet
  facet normal -0.290286 -0.95694 0
    outer loop
      vertex -0.964318 -2.84079 0
      vertex -0.776457 -2.89778 3
      vertex -0.964318 -2.84079 3
    endloop
  endfacet
  facet normal -0.290286 -0.95694 -0
    outer loop
      vertex -0.776457 -2.89778 3
      vertex -0.964318 -2.84079 0
      vertex -0.776457 -2.89778 0
    endloop
  endfacet
  facet normal -0.227076 -0.973877 0
    outer loop
      vertex -0.776457 -2.89778 0
      vertex -0.585271 -2.94236 3
      vertex -0.776457 -2.89778 3
    endloop
  endfacet
  facet normal -0.227076 -0.973877 -0
    outer loop
      vertex -0.585271 -2.94236 3
      vertex -0.776457 -2.89778 0
      vertex -0.585271 -2.94236 0
    endloop
  endfacet
  facet normal -0.162895 -0.986643 0
    outer loop
      vertex -0.585271 -2.94236 0
      vertex -0.391579 -2.97433 3
      vertex -0.585271 -2.94236 3
    endloop
  endfacet
  facet normal -0.162895 -0.986643 -0
    outer loop
      vertex -0.391579 -2.97433 3
      vertex -0.585271 -2.94236 0
      vertex -0.391579 -2.97433 0
    endloop
  endfacet
  facet normal -0.0980176 -0.995185 0
    outer loop
      vertex -0.391579 -2.97433 0
      vertex -0.196209 -2.99358 3
      vertex -0.391579 -2.97433 3
    endloop
  endfacet
  facet normal -0.0980176 -0.995185 -0
    outer loop
      vertex -0.196209 -2.99358 3
      vertex -0.391579 -2.97433 0
      vertex -0.196209 -2.99358 0
    endloop
  endfacet
  facet normal -0.0327191 -0.999465 0
    outer loop
      vertex -0.196209 -2.99358 0
      vertex -5.51091e-16 -3 3
      vertex -0.196209 -2.99358 3
    endloop
  endfacet
  facet normal -0.0327191 -0.999465 -0
    outer loop
      vertex -5.51091e-16 -3 3
      vertex -0.196209 -2.99358 0
      vertex -5.51091e-16 -3 0
    endloop
  endfacet
  facet normal 0.0327191 -0.999465 0
    outer loop
      vertex -5.51091e-16 -3 0
      vertex 0.196209 -2.99358 3
      vertex -5.51091e-16 -3 3
    endloop
  endfacet
  facet normal 0.0327191 -0.999465 0
    outer loop
      vertex 0.196209 -2.99358 3
      vertex -5.51091e-16 -3 0
      vertex 0.196209 -2.99358 0
    endloop
  endfacet
  facet normal 0.0980176 -0.995185 0
    outer loop
      vertex 0.196209 -2.99358 0
      vertex 0.391579 -2.97433 3
      vertex 0.196209 -2.99358 3
    endloop
  endfacet
  facet normal 0.0980176 -0.995185 0
    outer loop
      vertex 0.391579 -2.97433 3
      vertex 0.196209 -2.99358 0
      vertex 0.391579 -2.97433 0
    endloop
  endfacet
  facet normal 0.162895 -0.986643 0
    outer loop
      vertex 0.391579 -2.97433 0
      vertex 0.585271 -2.94236 3
      vertex 0.391579 -2.97433 3
    endloop
  endfacet
  facet normal 0.162895 -0.986643 0
    outer loop
      vertex 0.585271 -2.94236 3
      vertex 0.391579 -2.97433 0
      vertex 0.585271 -2.94236 0
    endloop
  endfacet
  facet normal 0.227076 -0.973877 0
    outer loop
      vertex 0.585271 -2.94236 0
      vertex 0.776457 -2.89778 3
      vertex 0.585271 -2.94236 3
    endloop
  endfacet
  facet normal 0.227076 -0.973877 0
    outer loop
      vertex 0.776457 -2.89778 3
      vertex 0.585271 -2.94236 0
      vertex 0.776457 -2.89778 0
    endloop
  endfacet
  facet normal 0.290286 -0.95694 0
    outer loop
      vertex 0.776457 -2.89778 0
      vertex 0.964318 -2.84079 3
      vertex 0.776457 -2.89778 3
    endloop
  endfacet
  facet normal 0.290286 -0.95694 0
    outer loop
      vertex 0.964318 -2.84079 3
      vertex 0.776457 -2.89778 0
      vertex 0.964318 -2.84079 0
    endloop
  endfacet
  facet normal 0.352249 -0.935906 0
    outer loop
      vertex 0.964318 -2.84079 0
      vertex 1.14805 -2.77164 3
      vertex 0.964318 -2.84079 3
    endloop
  endfacet
  facet normal 0.352249 -0.935906 0
    outer loop
      vertex 1.14805 -2.77164 3
      vertex 0.964318 -2.84079 0
      vertex 1.14805 -2.77164 0
    endloop
  endfacet
  facet normal 0.412707 -0.910864 0
    outer loop
      vertex 1.14805 -2.77164 0
      vertex 1.32687 -2.69062 3
      vertex 1.14805 -2.77164 3
    endloop
  endfacet
  facet normal 0.412707 -0.910864 0
    outer loop
      vertex 1.32687 -2.69062 3
      vertex 1.14805 -2.77164 0
      vertex 1.32687 -2.69062 0
    endloop
  endfacet
  facet normal 0.471397 -0.881921 0
    outer loop
      vertex 1.32687 -2.69062 0
      vertex 1.5 -2.59808 3
      vertex 1.32687 -2.69062 3
    endloop
  endfacet
  facet normal 0.471397 -0.881921 0
    outer loop
      vertex 1.5 -2.59808 3
      vertex 1.32687 -2.69062 0
      vertex 1.5 -2.59808 0
    endloop
  endfacet
  facet normal 0.528067 -0.849202 0
    outer loop
      vertex 1.5 -2.59808 0
      vertex 1.66671 -2.49441 3
      vertex 1.5 -2.59808 3
    endloop
  endfacet
  facet normal 0.528067 -0.849202 0
    outer loop
      vertex 1.66671 -2.49441 3
      vertex 1.5 -2.59808 0
      vertex 1.66671 -2.49441 0
    endloop
  endfacet
  facet normal 0.582478 -0.812846 0
    outer loop
      vertex 1.66671 -2.49441 0
      vertex 1.82628 -2.38006 3
      vertex 1.66671 -2.49441 3
    endloop
  endfacet
  facet normal 0.582478 -0.812846 0
    outer loop
      vertex 1.82628 -2.38006 3
      vertex 1.66671 -2.49441 0
      vertex 1.82628 -2.38006 0
    endloop
  endfacet
  facet normal 0.634393 -0.773011 0
    outer loop
      vertex 1.82628 -2.38006 0
      vertex 1.97804 -2.25552 3
      vertex 1.82628 -2.38006 3
    endloop
  endfacet
  facet normal 0.634393 -0.773011 0
    outer loop
      vertex 1.97804 -2.25552 3
      vertex 1.82628 -2.38006 0
      vertex 1.97804 -2.25552 0
    endloop
  endfacet
  facet normal 0.683593 -0.729864 0
    outer loop
      vertex 1.97804 -2.25552 0
      vertex 2.12132 -2.12132 3
      vertex 1.97804 -2.25552 3
    endloop
  endfacet
  facet normal 0.683593 -0.729864 0
    outer loop
      vertex 2.12132 -2.12132 3
      vertex 1.97804 -2.25552 0
      vertex 2.12132 -2.12132 0
    endloop
  endfacet
  facet normal 0.729864 -0.683593 0
    outer loop
      vertex 2.12132 -2.12132 3
      vertex 2.25552 -1.97804 0
      vertex 2.25552 -1.97804 3
    endloop
  endfacet
  facet normal 0.729864 -0.683593 0
    outer loop
      vertex 2.25552 -1.97804 0
      vertex 2.12132 -2.12132 3
      vertex 2.12132 -2.12132 0
    endloop
  endfacet
  facet normal 0.773011 -0.634393 0
    outer loop
      vertex 2.25552 -1.97804 3
      vertex 2.38006 -1.82628 0
      vertex 2.38006 -1.82628 3
    endloop
  endfacet
  facet normal 0.773011 -0.634393 0
    outer loop
      vertex 2.38006 -1.82628 0
      vertex 2.25552 -1.97804 3
      vertex 2.25552 -1.97804 0
    endloop
  endfacet
  facet normal 0.812846 -0.582478 0
    outer loop
      vertex 2.38006 -1.82628 3
      vertex 2.49441 -1.66671 0
      vertex 2.49441 -1.66671 3
    endloop
  endfacet
  facet normal 0.812846 -0.582478 0
    outer loop
      vertex 2.49441 -1.66671 0
      vertex 2.38006 -1.82628 3
      vertex 2.38006 -1.82628 0
    endloop
  endfacet
  facet normal 0.849202 -0.528067 0
    outer loop
      vertex 2.49441 -1.66671 3
      vertex 2.59808 -1.5 0
      vertex 2.59808 -1.5 3
    endloop
  endfacet
  facet normal 0.849202 -0.528067 0
    outer loop
      vertex 2.59808 -1.5 0
      vertex 2.49441 -1.66671 3
      vertex 2.49441 -1.66671 0
    endloop
  endfacet
  facet normal 0.881921 -0.471397 0
    outer loop
      vertex 2.59808 -1.5 3
      vertex 2.69062 -1.32687 0
      vertex 2.69062 -1.32687 3
    endloop
  endfacet
  facet normal 0.881921 -0.471397 0
    outer loop
      vertex 2.69062 -1.32687 0
      vertex 2.59808 -1.5 3
      vertex 2.59808 -1.5 0
    endloop
  endfacet
  facet normal 0.910864 -0.412707 0
    outer loop
      vertex 2.69062 -1.32687 3
      vertex 2.77164 -1.14805 0
      vertex 2.77164 -1.14805 3
    endloop
  endfacet
  facet normal 0.910864 -0.412707 0
    outer loop
      vertex 2.77164 -1.14805 0
      vertex 2.69062 -1.32687 3
      vertex 2.69062 -1.32687 0
    endloop
  endfacet
  facet normal 0.935906 -0.352249 0
    outer loop
      vertex 2.77164 -1.14805 3
      vertex 2.84079 -0.964318 0
      vertex 2.84079 -0.964318 3
    endloop
  endfacet
  facet normal 0.935906 -0.352249 0
    outer loop
      vertex 2.84079 -0.964318 0
      vertex 2.77164 -1.14805 3
      vertex 2.77164 -1.14805 0
    endloop
  endfacet
  facet normal 0.95694 -0.290286 0
    outer loop
      vertex 2.84079 -0.964318 3
      vertex 2.89778 -0.776457 0
      vertex 2.89778 -0.776457 3
    endloop
  endfacet
  facet normal 0.95694 -0.290286 0
    outer loop
      vertex 2.89778 -0.776457 0
      vertex 2.84079 -0.964318 3
      vertex 2.84079 -0.964318 0
    endloop
  endfacet
  facet normal 0.973877 -0.227076 0
    outer loop
      vertex 2.89778 -0.776457 3
      vertex 2.94236 -0.585271 0
      vertex 2.94236 -0.585271 3
    endloop
  endfacet
  facet normal 0.973877 -0.227076 0
    outer loop
      vertex 2.94236 -0.585271 0
      vertex 2.89778 -0.776457 3
      vertex 2.89778 -0.776457 0
    endloop
  endfacet
  facet normal 0.986643 -0.162895 0
    outer loop
      vertex 2.94236 -0.585271 3
      vertex 2.97433 -0.391579 0
      vertex 2.97433 -0.391579 3
    endloop
  endfacet
  facet normal 0.986643 -0.162895 0
    outer loop
      vertex 2.97433 -0.391579 0
      vertex 2.94236 -0.585271 3
      vertex 2.94236 -0.585271 0
    endloop
  endfacet
  facet normal 0.995185 -0.0980176 0
    outer loop
      vertex 2.97433 -0.391579 3
      vertex 2.99358 -0.196209 0
      vertex 2.99358 -0.196209 3
    endloop
  endfacet
  facet normal 0.995185 -0.0980176 0
    outer loop
      vertex 2.99358 -0.196209 0
      vertex 2.97433 -0.391579 3
      vertex 2.97433 -0.391579 0
    endloop
  endfacet
  facet normal 0.999465 -0.0327191 0
    outer loop
      vertex 2.99358 -0.196209 3
      vertex 3 0 0
      vertex 3 0 3
    endloop
  endfacet
  facet normal 0.999465 -0.0327191 0
    outer loop
      vertex 3 0 0
      vertex 2.99358 -0.196209 3
      vertex 2.99358 -0.196209 0
    endloop
  endfacet
  facet normal 0 0 -1
    outer loop
      vertex 2.99358 -0.196209 0
      vertex 2.99358 0.196209 0
      vertex 3 0 0
    endloop
  endfacet
  facet normal 0 0 -1
    outer loop
      vertex 2.97433 -0.391579 0
      vertex 2.99358 0.196209 0
      vertex 2.99358 -0.196209 0
    endloop
  endfacet
  facet normal 0 0 -1
    outer loop
      vertex 2.97433 -0.391579 0
      vertex 2.97433 0.391579 0
      vertex 2.99358 0.196209 0
    endloop
  endfacet
  facet normal 0 0 -1
    outer loop
      vertex 2.94236 -0.585271 0
      vertex 2.97433 0.391579 0
      vertex 2.97433 -0.391579 0
    endloop
  endfacet
  facet normal 0 0 -1
    outer loop
      vertex 2.94236 -0.585271 0
      vertex 2.94236 0.585271 0
      vertex 2.97433 0.391579 0
    endloop
  endfacet
  facet normal 0 0 -1
    outer loop
      vertex 2.89778 -0.776457 0
      vertex 2.94236 0.585271 0
      vertex 2.94236 -0.585271 0
    endloop
  endfacet
  facet normal 0 0 -1
    outer loop
      vertex 2.89778 -0.776457 0
      vertex 2.89778 0.776457 0
      vertex 2.94236 0.585271 0
    endloop
  endfacet
  facet normal 0 0 -1
    outer loop
      vertex 2.84079 -0.964318 0
      vertex 2.89778 0.776457 0
      vertex 2.89778 -0.776457 0
    endloop
  endfacet
  facet normal 0 0 -1
    outer loop
      vertex 2.84079 -0.964318 0
      vertex 2.84079 0.964318 0
      vertex 2.89778 0.776457 0
    endloop
  endfacet
  facet normal 0 0 -1
    outer loop
      vertex 2.77164 -1.14805 0
      vertex 2.84079 0.964318 0
      vertex 2.84079 -0.964318 0
    endloop
  endfacet
  facet normal 0 0 -1
    outer loop
      vertex 2.77164 -1.14805 0
      vertex 2.77164 1.14805 0
      vertex 2.84079 0.964318 0
    endloop
  endfacet
  facet normal 0 0 -1
    outer loop
      vertex 2.69062 -1.32687 0
      vertex 2.77164 1.14805 0
      vertex 2.77164 -1.14805 0
    endloop
  endfacet
  facet normal 0 0 -1
    outer loop
      vertex 2.69062 -1.32687 0
      vertex 2.69062 1.32687 0
      vertex 2.77164 1.14805 0
    endloop
  endfacet
  facet normal 0 0 -1
    outer loop
      vertex 2.59808 -1.5 0
      vertex 2.69062 1.32687 0
      vertex 2.69062 -1.32687 0
    endloop
  endfacet
  facet normal 0 0 -1
    outer loop
      vertex 2.59808 -1.5 0
      vertex 2.59808 1.5 0
      vertex 2.69062 1.32687 0
    endloop
  endfacet
  facet normal 0 0 -1
    outer loop
      vertex 2.49441 -1.66671 0
      vertex 2.59808 1.5 0
      vertex 2.59808 -1.5 0
    endloop
  endfacet
  facet normal 0 0 -1
    outer loop
      vertex 2.49441 -1.66671 0
      vertex 2.49441 1.66671 0
      vertex 2.59808 1.5 0
    endloop
  endfacet
  facet normal 0 0 -1
    outer loop
      vertex 2.38006 -1.82628 0
      vertex 2.49441 1.66671 0
      vertex 2.49441 -1.66671 0
    endloop
  endfacet
  facet normal 0 0 -1
    outer loop
      vertex 2.38006 -1.82628 0
      vertex 2.38006 1.82628 0
      vertex 2.49441 1.66671 0
    endloop
  endfacet
  facet normal 0 0 -1
    outer loop
      vertex 2.25552 -1.97804 0
      vertex 2.38006 1.82628 0
      vertex 2.38006 -1.82628 0
    endloop
  endfacet
  facet normal 0 0 -1
    outer loop
      vertex 2.25552 -1.97804 0
      vertex 2.25552 1.97804 0
      vertex 2.38006 1.82628 0
    endloop
  endfacet
  facet normal 0 0 -1
    outer loop
      vertex 2.12132 -2.12132 0
      vertex 2.25552 1.97804 0
      vertex 2.25552 -1.97804 0
    endloop
  endfacet
  facet normal 0 0 -1
    outer loop
      vertex 2.12132 -2.12132 0
      vertex 2.12132 2.12132 0
      vertex 2.25552 1.97804 0
    endloop
  endfacet
  facet normal 0 0 -1
    outer loop
      vertex 1.97804 -2.25552 0
      vertex 2.12132 2.12132 0
      vertex 2.12132 -2.12132 0
    endloop
  endfacet
  facet normal 0 0 -1
    outer loop
      vertex 1.97804 -2.25552 0
      vertex 1.97804 2.25552 0
      vertex 2.12132 2.12132 0
    endloop
  endfacet
  facet normal 0 0 -1
    outer loop
      vertex 1.82628 -2.38006 0
      vertex 1.97804 2.25552 0
      vertex 1.97804 -2.25552 0
    endloop
  endfacet
  facet normal 0 0 -1
    outer loop
      vertex 1.82628 -2.38006 0
      vertex 1.82628 2.38006 0
      vertex 1.97804 2.25552 0
    endloop
  endfacet
  facet normal 0 0 -1
    outer loop
      vertex 1.66671 -2.49441 0
      vertex 1.82628 2.38006 0
      vertex 1.82628 -2.38006 0
    endloop
  endfacet
  facet normal 0 0 -1
    outer loop
      vertex 1.66671 -2.49441 0
      vertex 1.66671 2.49441 0
      vertex 1.82628 2.38006 0
    endloop
  endfacet
  facet normal 0 0 -1
    outer loop
      vertex 1.5 -2.59808 0
      vertex 1.66671 2.49441 0
      vertex 1.66671 -2.49441 0
    endloop
  endfacet
  facet normal 0 0 -1
    outer loop
      vertex 1.5 -2.59808 0
      vertex 1.5 2.59808 0
      vertex 1.66671 2.49441 0
    endloop
  endfacet
  facet normal 0 0 -1
    outer loop
      vertex 1.32687 -2.69062 0
      vertex 1.5 2.59808 0
      vertex 1.5 -2.59808 0
    endloop
  endfacet
  facet normal 0 0 -1
    outer loop
      vertex 1.32687 -2.69062 0
      vertex 1.32687 2.69062 0
      vertex 1.5 2.59808 0
    endloop
  endfacet
  facet normal 0 0 -1
    outer loop
      vertex 1.14805 -2.77164 0
      vertex 1.32687 2.69062 0
      vertex 1.32687 -2.69062 0
    endloop
  endfacet
  facet normal 0 0 -1
    outer loop
      vertex 1.14805 -2.77164 0
      vertex 1.14805 2.77164 0
      vertex 1.32687 2.69062 0
    endloop
  endfacet
  facet normal 0 0 -1
    outer loop
      vertex 0.964318 -2.84079 0
      vertex 1.14805 2.77164 0
      vertex 1.14805 -2.77164 0
    endloop
  endfacet
  facet normal 0 0 -1
    outer loop
      vertex 0.964318 -2.84079 0
      vertex 0.964318 2.84079 0
      vertex 1.14805 2.77164 0
    endloop
  endfacet
  facet normal 0 0 -1
    outer loop
      vertex 0.776457 -2.89778 0
      vertex 0.964318 2.84079 0
      vertex 0.964318 -2.84079 0
    endloop
  endfacet
  facet normal 0 0 -1
    outer loop
      vertex 0.776457 -2.89778 0
      vertex 0.776457 2.89778 0
      vertex 0.964318 2.84079 0
    endloop
  endfacet
  facet normal 0 0 -1
    outer loop
      vertex 0.585271 -2.94236 0
      vertex 0.776457 2.89778 0
      vertex 0.776457 -2.89778 0
    endloop
  endfacet
  facet normal 0 0 -1
    outer loop
      vertex 0.585271 -2.94236 0
      vertex 0.585271 2.94236 0
      vertex 0.776457 2.89778 0
    endloop
  endfacet
  facet normal 0 0 -1
    outer loop
      vertex 0.391579 -2.97433 0
      vertex 0.585271 2.94236 0
      vertex 0.585271 -2.94236 0
    endloop
  endfacet
  facet normal 0 0 -1
    outer loop
      vertex 0.391579 -2.97433 0
      vertex 0.391579 2.97433 0
      vertex 0.585271 2.94236 0
    endloop
  endfacet
  facet normal 0 0 -1
    outer loop
      vertex 0.196209 -2.99358 0
      vertex 0.391579 2.97433 0
      vertex 0.391579 -2.97433 0
    endloop
  endfacet
  facet normal 0 0 -1
    outer loop
      vertex 0.196209 -2.99358 0
      vertex 0.196209 2.99358 0
      vertex 0.391579 2.97433 0
    endloop
  endfacet
  facet normal 0 0 -1
    outer loop
      vertex 0.196209 -2.99358 0
      vertex 1.83697e-16 3 0
      vertex 0.196209 2.99358 0
    endloop
  endfacet
  facet normal 0 0 -1
    outer loop
      vertex -5.51091e-16 -3 0
      vertex 1.83697e-16 3 0
      vertex 0.196209 -2.99358 0
    endloop
  endfacet
  facet normal 0 0 -1
    outer loop
      vertex -0.196209 -2.99358 0
      vertex 1.83697e-16 3 0
      vertex -5.51091e-16 -3 0
    endloop
  endfacet
  facet normal 0 0 -1
    outer loop
      vertex -0.196209 -2.99358 0
      vertex -0.196209 2.99358 0
      vertex 1.83697e-16 3 0
    endloop
  endfacet
  facet normal 0 0 -1
    outer loop
      vertex -0.391579 -2.97433 0
      vertex -0.196209 2.99358 0
      vertex -0.196209 -2.99358 0
    endloop
  endfacet
  facet normal 0 0 -1
    outer loop
      vertex -0.391579 -2.97433 0
      vertex -0.391579 2.97433 0
      vertex -0.196209 2.99358 0
    endloop
  endfacet
  facet normal 0 0 -1
    outer loop
      vertex -0.585271 -2.94236 0
      vertex -0.391579 2.97433 0
      vertex -0.391579 -2.97433 0
    endloop
  endfacet
  facet normal 0 0 -1
    outer loop
      vertex -0.585271 -2.94236 0
      vertex -0.585271 2.94236 0
      vertex -0.391579 2.97433 0
    endloop
  endfacet
  facet normal 0 0 -1
    outer loop
      vertex -0.776457 -2.89778 0
      vertex -0.585271 2.94236 0
      vertex -0.585271 -2.94236 0
    endloop
  endfacet
  facet normal 0 0 -1
    outer loop
      vertex -0.776457 -2.89778 0
      vertex -0.776457 2.89778 0
      vertex -0.585271 2.94236 0
    endloop
  endfacet
  facet normal 0 0 -1
    outer loop
      vertex -0.964318 -2.84079 0
      vertex -0.776457 2.89778 0
      vertex -0.776457 -2.89778 0
    endloop
  endfacet
  facet normal 0 0 -1
    outer loop
      vertex -0.964318 -2.84079 0
      vertex -0.964318 2.84079 0
      vertex -0.776457 2.89778 0
    endloop
  endfacet
  facet normal 0 0 -1
    outer loop
      vertex -1.14805 -2.77164 0
      vertex -0.964318 2.84079 0
      vertex -0.964318 -2.84079 0
    endloop
  endfacet
  facet normal 0 0 -1
    outer loop
      vertex -1.14805 -2.77164 0
      vertex -1.14805 2.77164 0
      vertex -0.964318 2.84079 0
    endloop
  endfacet
  facet normal 0 0 -1
    outer loop
      vertex -1.32687 -2.69062 0
      vertex -1.14805 2.77164 0
      vertex -1.14805 -2.77164 0
    endloop
  endfacet
  facet normal 0 0 -1
    outer loop
      vertex -1.32687 -2.69062 0
      vertex -1.32687 2.69062 0
      vertex -1.14805 2.77164 0
    endloop
  endfacet
  facet normal 0 0 -1
    outer loop
      vertex -1.5 -2.59808 0
      vertex -1.32687 2.69062 0
      vertex -1.32687 -2.69062 0
    endloop
  endfacet
  facet normal 0 0 -1
    outer loop
      vertex -1.5 -2.59808 0
      vertex -1.5 2.59808 0
      vertex -1.32687 2.69062 0
    endloop
  endfacet
  facet normal 0 0 -1
    outer loop
      vertex -1.66671 -2.49441 0
      vertex -1.5 2.59808 0
      vertex -1.5 -2.59808 0
    endloop
  endfacet
  facet normal 0 0 -1
    outer loop
      vertex -1.66671 -2.49441 0
      vertex -1.66671 2.49441 0
      vertex -1.5 2.59808 0
    endloop
  endfacet
  facet normal 0 0 -1
    outer loop
      vertex -1.82628 -2.38006 0
      vertex -1.66671 2.49441 0
      vertex -1.66671 -2.49441 0
    endloop
  endfacet
  facet normal 0 0 -1
    outer loop
      vertex -1.82628 -2.38006 0
      vertex -1.82628 2.38006 0
      vertex -1.66671 2.49441 0
    endloop
  endfacet
  facet normal 0 0 -1
    outer loop
      vertex -1.97804 -2.25552 0
      vertex -1.82628 2.38006 0
      vertex -1.82628 -2.38006 0
    endloop
  endfacet
  facet normal 0 0 -1
    outer loop
      vertex -1.97804 -2.25552 0
      vertex -1.97804 2.25552 0
      vertex -1.82628 2.38006 0
    endloop
  endfacet
  facet normal 0 0 -1
    outer loop
      vertex -2.12132 -2.12132 0
      vertex -1.97804 2.25552 0
      vertex -1.97804 -2.25552 0
    endloop
  endfacet
  facet normal 0 0 -1
    outer loop
      vertex -2.12132 -2.12132 0
      vertex -2.12132 2.12132 0
      vertex -1.97804 2.25552 0
    endloop
  endfacet
  facet normal 0 0 -1
    outer loop
      vertex -2.25552 -1.97804 0
      vertex -2.12132 2.12132 0
      vertex -2.12132 -2.12132 0
    endloop
  endfacet
  facet normal 0 0 -1
    outer loop
      vertex -2.25552 -1.97804 0
      vertex -2.25552 1.97804 0
      vertex -2.12132 2.12132 0
    endloop
  endfacet
  facet normal 0 0 -1
    outer loop
      vertex -2.38006 -1.82628 0
      vertex -2.25552 1.97804 0
      vertex -2.25552 -1.97804 0
    endloop
  endfacet
  facet normal 0 0 -1
    outer loop
      vertex -2.38006 -1.82628 0
      vertex -2.38006 1.82628 0
      vertex -2.25552 1.97804 0
    endloop
  endfacet
  facet normal 0 0 -1
    outer loop
      vertex -2.49441 -1.66671 0
      vertex -2.38006 1.82628 0
      vertex -2.38006 -1.82628 0
    endloop
  endfacet
  facet normal 0 0 -1
    outer loop
      vertex -2.49441 -1.66671 0
      vertex -2.49441 1.66671 0
      vertex -2.38006 1.82628 0
    endloop
  endfacet
  facet normal 0 0 -1
    outer loop
      vertex -2.59808 -1.5 0
      vertex -2.49441 1.66671 0
      vertex -2.49441 -1.66671 0
    endloop
  endfacet
  facet normal 0 0 -1
    outer loop
      vertex -2.59808 -1.5 0
      vertex -2.59808 1.5 0
      vertex -2.49441 1.66671 0
    endloop
  endfacet
  facet normal 0 0 -1
    outer loop
      vertex -2.69062 -1.32687 0
      vertex -2.59808 1.5 0
      vertex -2.59808 -1.5 0
    endloop
  endfacet
  facet normal 0 0 -1
    outer loop
      vertex -2.69062 -1.32687 0
      vertex -2.69062 1.32687 0
      vertex -2.59808 1.5 0
    endloop
  endfacet
  facet normal 0 0 -1
    outer loop
      vertex -2.77164 -1.14805 0
      vertex -2.69062 1.32687 0
      vertex -2.69062 -1.32687 0
    endloop
  endfacet
  facet normal 0 0 -1
    outer loop
      vertex -2.77164 -1.14805 0
      vertex -2.77164 1.14805 0
      vertex -2.69062 1.32687 0
    endloop
  endfacet
  facet normal 0 0 -1
    outer loop
      vertex -2.84079 -0.964318 0
      vertex -2.77164 1.14805 0
      vertex -2.77164 -1.14805 0
    endloop
  endfacet
  facet normal 0 0 -1
    outer loop
      vertex -2.84079 -0.964318 0
      vertex -2.84079 0.964318 0
      vertex -2.77164 1.14805 0
    endloop
  endfacet
  facet normal 0 0 -1
    outer loop
      vertex -2.89778 -0.776457 0
      vertex -2.84079 0.964318 0
      vertex -2.84079 -0.964318 0
    endloop
  endfacet
  facet normal 0 0 -1
    outer loop
      vertex -2.89778 -0.776457 0
      vertex -2.89778 0.776457 0
      vertex -2.84079 0.964318 0
    endloop
  endfacet
  facet normal 0 0 -1
    outer loop
      vertex -2.94236 -0.585271 0
      vertex -2.89778 0.776457 0
      vertex -2.89778 -0.776457 0
    endloop
  endfacet
  facet normal 0 0 -1
    outer loop
      vertex -2.94236 -0.585271 0
      vertex -2.94236 0.585271 0
      vertex -2.89778 0.776457 0
    endloop
  endfacet
  facet normal 0 0 -1
    outer loop
      vertex -2.97433 -0.391579 0
      vertex -2.94236 0.585271 0
      vertex -2.94236 -0.585271 0
    endloop
  endfacet
  facet normal 0 0 -1
    outer loop
      vertex -2.97433 -0.391579 0
      vertex -2.97433 0.391579 0
      vertex -2.94236 0.585271 0
    endloop
  endfacet
  facet normal 0 0 -1
    outer loop
      vertex -2.99358 -0.196209 0
      vertex -2.97433 0.391579 0
      vertex -2.97433 -0.391579 0
    endloop
  endfacet
  facet normal 0 0 -1
    outer loop
      vertex -2.99358 -0.196209 0
      vertex -2.99358 0.196209 0
      vertex -2.97433 0.391579 0
    endloop
  endfacet
  facet normal 0 -0 -1
    outer loop
      vertex -2.99358 0.196209 0
      vertex -2.99358 -0.196209 0
      vertex -3 3.67394e-16 0
    endloop
  endfacet
  facet normal 0 0 1
    outer loop
      vertex 2.99358 0.196209 3
      vertex 2.99358 -0.196209 3
      vertex 3 0 3
    endloop
  endfacet
  facet normal 0 0 1
    outer loop
      vertex 2.97433 0.391579 3
      vertex 2.99358 -0.196209 3
      vertex 2.99358 0.196209 3
    endloop
  endfacet
  facet normal 0 0 1
    outer loop
      vertex 2.97433 0.391579 3
      vertex 2.97433 -0.391579 3
      vertex 2.99358 -0.196209 3
    endloop
  endfacet
  facet normal 0 0 1
    outer loop
      vertex 2.94236 0.585271 3
      vertex 2.97433 -0.391579 3
      vertex 2.97433 0.391579 3
    endloop
  endfacet
  facet normal 0 0 1
    outer loop
      vertex 2.94236 0.585271 3
      vertex 2.94236 -0.585271 3
      vertex 2.97433 -0.391579 3
    endloop
  endfacet
  facet normal 0 0 1
    outer loop
      vertex 2.89778 0.776457 3
      vertex 2.94236 -0.585271 3
      vertex 2.94236 0.585271 3
    endloop
  endfacet
  facet normal 0 0 1
    outer loop
      vertex 2.89778 0.776457 3
      vertex 2.89778 -0.776457 3
      vertex 2.94236 -0.585271 3
    endloop
  endfacet
  facet normal 0 0 1
    outer loop
      vertex 2.84079 0.964318 3
      vertex 2.89778 -0.776457 3
      vertex 2.89778 0.776457 3
    endloop
  endfacet
  facet normal 0 0 1
    outer loop
      vertex 2.84079 0.964318 3
      vertex 2.84079 -0.964318 3
      vertex 2.89778 -0.776457 3
    endloop
  endfacet
  facet normal 0 0 1
    outer loop
      vertex 2.77164 1.14805 3
      vertex 2.84079 -0.964318 3
      vertex 2.84079 0.964318 3
    endloop
  endfacet
  facet normal 0 0 1
    outer loop
      vertex 2.77164 1.14805 3
      vertex 2.77164 -1.14805 3
      vertex 2.84079 -0.964318 3
    endloop
  endfacet
  facet normal 0 0 1
    outer loop
      vertex 2.69062 1.32687 3
      vertex 2.77164 -1.14805 3
      vertex 2.77164 1.14805 3
    endloop
  endfacet
  facet normal 0 0 1
    outer loop
      vertex 2.69062 1.32687 3
      vertex 2.69062 -1.32687 3
      vertex 2.77164 -1.14805 3
    endloop
  endfacet
  facet normal 0 0 1
    outer loop
      vertex 2.59808 1.5 3
      vertex 2.69062 -1.32687 3
      vertex 2.69062 1.32687 3
    endloop
  endfacet
  facet normal 0 0 1
    outer loop
      vertex 2.59808 1.5 3
      vertex 2.59808 -1.5 3
      vertex 2.69062 -1.32687 3
    endloop
  endfacet
  facet normal 0 0 1
    outer loop
      vertex 2.49441 1.66671 3
      vertex 2.59808 -1.5 3
      vertex 2.59808 1.5 3
    endloop
  endfacet
  facet normal 0 0 1
    outer loop
      vertex 2.49441 1.66671 3
      vertex 2.49441 -1.66671 3
      vertex 2.59808 -1.5 3
    endloop
  endfacet
  facet normal 0 0 1
    outer loop
      vertex 2.38006 1.82628 3
      vertex 2.49441 -1.66671 3
      vertex 2.49441 1.66671 3
    endloop
  endfacet
  facet normal 0 0 1
    outer loop
      vertex 2.38006 1.82628 3
      vertex 2.38006 -1.82628 3
      vertex 2.49441 -1.66671 3
    endloop
  endfacet
  facet normal 0 0 1
    outer loop
      vertex 2.25552 1.97804 3
      vertex 2.38006 -1.82628 3
      vertex 2.38006 1.82628 3
    endloop
  endfacet
  facet normal 0 0 1
    outer loop
      vertex 2.25552 1.97804 3
      vertex 2.25552 -1.97804 3
      vertex 2.38006 -1.82628 3
    endloop
  endfacet
  facet normal 0 0 1
    outer loop
      vertex 2.12132 2.12132 3
      vertex 2.25552 -1.97804 3
      vertex 2.25552 1.97804 3
    endloop
  endfacet
  facet normal 0 0 1
    outer loop
      vertex 2.12132 2.12132 3
      vertex 2.12132 -2.12132 3
      vertex 2.25552 -1.97804 3
    endloop
  endfacet
  facet normal 0 0 1
    outer loop
      vertex 1.97804 2.25552 3
      vertex 2.12132 -2.12132 3
      vertex 2.12132 2.12132 3
    endloop
  endfacet
  facet normal 0 0 1
    outer loop
      vertex 1.97804 2.25552 3
      vertex 1.97804 -2.25552 3
      vertex 2.12132 -2.12132 3
    endloop
  endfacet
  facet normal 0 0 1
    outer loop
      vertex 1.82628 2.38006 3
      vertex 1.97804 -2.25552 3
      vertex 1.97804 2.25552 3
    endloop
  endfacet
  facet normal 0 0 1
    outer loop
      vertex 1.82628 2.38006 3
      vertex 1.82628 -2.38006 3
      vertex 1.97804 -2.25552 3
    endloop
  endfacet
  facet normal 0 0 1
    outer loop
      vertex 1.66671 2.49441 3
      vertex 1.82628 -2.38006 3
      vertex 1.82628 2.38006 3
    endloop
  endfacet
  facet normal 0 0 1
    outer loop
      vertex 1.66671 2.49441 3
      vertex 1.66671 -2.49441 3
      vertex 1.82628 -2.38006 3
    endloop
  endfacet
  facet normal 0 0 1
    outer loop
      vertex 1.5 2.59808 3
      vertex 1.66671 -2.49441 3
      vertex 1.66671 2.49441 3
    endloop
  endfacet
  facet normal 0 0 1
    outer loop
      vertex 1.5 2.59808 3
      vertex 1.5 -2.59808 3
      vertex 1.66671 -2.49441 3
    endloop
  endfacet
  facet normal 0 0 1
    outer loop
      vertex 1.32687 2.69062 3
      vertex 1.5 -2.59808 3
      vertex 1.5 2.59808 3
    endloop
  endfacet
  facet normal 0 0 1
    outer loop
      vertex 1.32687 2.69062 3
      vertex 1.32687 -2.69062 3
      vertex 1.5 -2.59808 3
    endloop
  endfacet
  facet normal 0 0 1
    outer loop
      vertex 1.14805 2.77164 3
      vertex 1.32687 -2.69062 3
      vertex 1.32687 2.69062 3
    endloop
  endfacet
  facet normal 0 0 1
    outer loop
      vertex 1.14805 2.77164 3
      vertex 1.14805 -2.77164 3
      vertex 1.32687 -2.69062 3
    endloop
  endfacet
  facet normal 0 0 1
    outer loop
      vertex 0.964318 2.84079 3
      vertex 1.14805 -2.77164 3
      vertex 1.14805 2.77164 3
    endloop
  endfacet
  facet normal 0 0 1
    outer loop
      vertex 0.964318 2.84079 3
      vertex 0.964318 -2.84079 3
      vertex 1.14805 -2.77164 3
    endloop
  endfacet
  facet normal 0 0 1
    outer loop
      vertex 0.776457 2.89778 3
      vertex 0.964318 -2.84079 3
      vertex 0.964318 2.84079 3
    endloop
  endfacet
  facet normal 0 0 1
    outer loop
      vertex 0.776457 2.89778 3
      vertex 0.776457 -2.89778 3
      vertex 0.964318 -2.84079 3
    endloop
  endfacet
  facet normal 0 0 1
    outer loop
      vertex 0.585271 2.94236 3
      vertex 0.776457 -2.89778 3
      vertex 0.776457 2.89778 3
    endloop
  endfacet
  facet normal 0 0 1
    outer loop
      vertex 0.585271 2.94236 3
      vertex 0.585271 -2.94236 3
      vertex 0.776457 -2.89778 3
    endloop
  endfacet
  facet normal 0 0 1
    outer loop
      vertex 0.391579 2.97433 3
      vertex 0.585271 -2.94236 3
      vertex 0.585271 2.94236 3
    endloop
  endfacet
  facet normal 0 0 1
    outer loop
      vertex 0.391579 2.97433 3
      vertex 0.391579 -2.97433 3
      vertex 0.585271 -2.94236 3
    endloop
  endfacet
  facet normal 0 0 1
    outer loop
      vertex 0.196209 2.99358 3
      vertex 0.391579 -2.97433 3
      vertex 0.391579 2.97433 3
    endloop
  endfacet
  facet normal 0 0 1
    outer loop
      vertex 0.196209 2.99358 3
      vertex 0.196209 -2.99358 3
      vertex 0.391579 -2.97433 3
    endloop
  endfacet
  facet normal 0 0 1
    outer loop
      vertex 1.83697e-16 3 3
      vertex 0.196209 -2.99358 3
      vertex 0.196209 2.99358 3
    endloop
  endfacet
  facet normal 0 0 1
    outer loop
      vertex 1.83697e-16 3 3
      vertex -5.51091e-16 -3 3
      vertex 0.196209 -2.99358 3
    endloop
  endfacet
  facet normal -0 0 1
    outer loop
      vertex -0.196209 2.99358 3
      vertex -5.51091e-16 -3 3
      vertex 1.83697e-16 3 3
    endloop
  endfacet
  facet normal 0 0 1
    outer loop
      vertex -0.196209 2.99358 3
      vertex -0.196209 -2.99358 3
      vertex -5.51091e-16 -3 3
    endloop
  endfacet
  facet normal -0 0 1
    outer loop
      vertex -0.391579 2.97433 3
      vertex -0.196209 -2.99358 3
      vertex -0.196209 2.99358 3
    endloop
  endfacet
  facet normal 0 0 1
    outer loop
      vertex -0.391579 2.97433 3
      vertex -0.391579 -2.97433 3
      vertex -0.196209 -2.99358 3
    endloop
  endfacet
  facet normal -0 0 1
    outer loop
      vertex -0.585271 2.94236 3
      vertex -0.391579 -2.97433 3
      vertex -0.391579 2.97433 3
    endloop
  endfacet
  facet normal 0 0 1
    outer loop
      vertex -0.585271 2.94236 3
      vertex -0.585271 -2.94236 3
      vertex -0.391579 -2.97433 3
    endloop
  endfacet
  facet normal -0 0 1
    outer loop
      vertex -0.776457 2.89778 3
      vertex -0.585271 -2.94236 3
      vertex -0.585271 2.94236 3
    endloop
  endfacet
  facet normal 0 0 1
    outer loop
      vertex -0.776457 2.89778 3
      vertex -0.776457 -2.89778 3
      vertex -0.585271 -2.94236 3
    endloop
  endfacet
  facet normal -0 0 1
    outer loop
      vertex -0.964318 2.84079 3
      vertex -0.776457 -2.89778 3
      vertex -0.776457 2.89778 3
    endloop
  endfacet
  facet normal 0 0 1
    outer loop
      vertex -0.964318 2.84079 3
      vertex -0.964318 -2.84079 3
      vertex -0.776457 -2.89778 3
    endloop
  endfacet
  facet normal -0 0 1
    outer loop
      vertex -1.14805 2.77164 3
      vertex -0.964318 -2.84079 3
      vertex -0.964318 2.84079 3
    endloop
  endfacet
  facet normal 0 0 1
    outer loop
      vertex -1.14805 2.77164 3
      vertex -1.14805 -2.77164 3
      vertex -0.964318 -2.84079 3
    endloop
  endfacet
  facet normal -0 0 1
    outer loop
      vertex -1.32687 2.69062 3
      vertex -1.14805 -2.77164 3
      vertex -1.14805 2.77164 3
    endloop
  endfacet
  facet normal 0 0 1
    outer loop
      vertex -1.32687 2.69062 3
      vertex -1.32687 -2.69062 3
      vertex -1.14805 -2.77164 3
    endloop
  endfacet
  facet normal -0 0 1
    outer loop
      vertex -1.5 2.59808 3
      vertex -1.32687 -2.69062 3
      vertex -1.32687 2.69062 3
    endloop
  endfacet
  facet normal 0 0 1
    outer loop
      vertex -1.5 2.59808 3
      vertex -1.5 -2.59808 3
      vertex -1.32687 -2.69062 3
    endloop
  endfacet
  facet normal -0 0 1
    outer loop
      vertex -1.66671 2.49441 3
      vertex -1.5 -2.59808 3
      vertex -1.5 2.59808 3
    endloop
  endfacet
  facet normal 0 0 1
    outer loop
      vertex -1.66671 2.49441 3
      vertex -1.66671 -2.49441 3
      vertex -1.5 -2.59808 3
    endloop
  endfacet
  facet normal -0 0 1
    outer loop
      vertex -1.82628 2.38006 3
      vertex -1.66671 -2.49441 3
      vertex -1.66671 2.49441 3
    endloop
  endfacet
  facet normal 0 0 1
    outer loop
      vertex -1.82628 2.38006 3
      vertex -1.82628 -2.38006 3
      vertex -1.66671 -2.49441 3
    endloop
  endfacet
  facet normal -0 0 1
    outer loop
      vertex -1.97804 2.25552 3
      vertex -1.82628 -2.38006 3
      vertex -1.82628 2.38006 3
    endloop
  endfacet
  facet normal 0 0 1
    outer loop
      vertex -1.97804 2.25552 3
      vertex -1.97804 -2.25552 3
      vertex -1.82628 -2.38006 3
    endloop
  endfacet
  facet normal -0 0 1
    outer loop
      vertex -2.12132 2.12132 3
      vertex -1.97804 -2.25552 3
      vertex -1.97804 2.25552 3
    endloop
  endfacet
  facet normal 0 0 1
    outer loop
      vertex -2.12132 2.12132 3
      vertex -2.12132 -2.12132 3
      vertex -1.97804 -2.25552 3
    endloop
  endfacet
  facet normal -0 0 1
    outer loop
      vertex -2.25552 1.97804 3
      vertex -2.12132 -2.12132 3
      vertex -2.12132 2.12132 3
    endloop
  endfacet
  facet normal 0 0 1
    outer loop
      vertex -2.25552 1.97804 3
      vertex -2.25552 -1.97804 3
      vertex -2.12132 -2.12132 3
    endloop
  endfacet
  facet normal -0 0 1
    outer loop
      vertex -2.38006 1.82628 3
      vertex -2.25552 -1.97804 3
      vertex -2.25552 1.97804 3
    endloop
  endfacet
  facet normal 0 0 1
    outer loop
      vertex -2.38006 1.82628 3
      vertex -2.38006 -1.82628 3
      vertex -2.25552 -1.97804 3
    endloop
  endfacet
  facet normal -0 0 1
    outer loop
      vertex -2.49441 1.66671 3
      vertex -2.38006 -1.82628 3
      vertex -2.38006 1.82628 3
    endloop
  endfacet
  facet normal 0 0 1
    outer loop
      vertex -2.49441 1.66671 3
      vertex -2.49441 -1.66671 3
      vertex -2.38006 -1.82628 3
    endloop
  endfacet
  facet normal -0 0 1
    outer loop
      vertex -2.59808 1.5 3
      vertex -2.49441 -1.66671 3
      vertex -2.49441 1.66671 3
    endloop
  endfacet
  facet normal 0 0 1
    outer loop
      vertex -2.59808 1.5 3
      vertex -2.59808 -1.5 3
      vertex -2.49441 -1.66671 3
    endloop
  endfacet
  facet normal -0 0 1
    outer loop
      vertex -2.69062 1.32687 3
      vertex -2.59808 -1.5 3
      vertex -2.59808 1.5 3
    endloop
  endfacet
  facet normal 0 0 1
    outer loop
      vertex -2.69062 1.32687 3
      vertex -2.69062 -1.32687 3
      vertex -2.59808 -1.5 3
    endloop
  endfacet
  facet normal -0 0 1
    outer loop
      vertex -2.77164 1.14805 3
      vertex -2.69062 -1.32687 3
      vertex -2.69062 1.32687 3
    endloop
  endfacet
  facet normal 0 0 1
    outer loop
      vertex -2.77164 1.14805 3
      vertex -2.77164 -1.14805 3
      vertex -2.69062 -1.32687 3
    endloop
  endfacet
  facet normal -0 0 1
    outer loop
      vertex -2.84079 0.964318 3
      vertex -2.77164 -1.14805 3
      vertex -2.77164 1.14805 3
    endloop
  endfacet
  facet normal 0 0 1
    outer loop
      vertex -2.84079 0.964318 3
      vertex -2.84079 -0.964318 3
      vertex -2.77164 -1.14805 3
    endloop
  endfacet
  facet normal -0 0 1
    outer loop
      vertex -2.89778 0.776457 3
      vertex -2.84079 -0.964318 3
      vertex -2.84079 0.964318 3
    endloop
  endfacet
  facet normal 0 0 1
    outer loop
      vertex -2.89778 0.776457 3
      vertex -2.89778 -0.776457 3
      vertex -2.84079 -0.964318 3
    endloop
  endfacet
  facet normal -0 0 1
    outer loop
      vertex -2.94236 0.585271 3
      vertex -2.89778 -0.776457 3
      vertex -2.89778 0.776457 3
    endloop
  endfacet
  facet normal 0 0 1
    outer loop
      vertex -2.94236 0.585271 3
      vertex -2.94236 -0.585271 3
      vertex -2.89778 -0.776457 3
    endloop
  endfacet
  facet normal -0 0 1
    outer loop
      vertex -2.97433 0.391579 3
      vertex -2.94236 -0.585271 3
      vertex -2.94236 0.585271 3
    endloop
  endfacet
  facet normal 0 0 1
    outer loop
      vertex -2.97433 0.391579 3
      vertex -2.97433 -0.391579 3
      vertex -2.94236 -0.585271 3
    endloop
  endfacet
  facet normal -0 0 1
    outer loop
      vertex -2.99358 0.196209 3
      vertex -2.97433 -0.391579 3
      vertex -2.97433 0.391579 3
    endloop
  endfacet
  facet normal 0 0 1
    outer loop
      vertex -2.99358 0.196209 3
      vertex -2.99358 -0.196209 3
      vertex -2.97433 -0.391579 3
    endloop
  endfacet
  facet normal 0 -0 1
    outer loop
      vertex -2.99358 -0.196209 3
      vertex -2.99358 0.196209 3
      vertex -3 3.67394e-16 3
    endloop
  endfacet
endsolid OpenSCAD_Model
