solid OpenSCAD_Model
  facet normal -0 0.5 0.866025
    outer loop
      vertex 5.72205e-07 3.5 2.02073
      vertex 3.2 0 4.04145
      vertex 3.2 3.5 2.02073
    endloop
  endfacet
  facet normal 0 0.5 0.866025
    outer loop
      vertex 3.2 0 4.04145
      vertex 5.72205e-07 3.5 2.02073
      vertex 5.72205e-07 0 4.04145
    endloop
  endfacet
  facet normal 0 0.5 -0.866025
    outer loop
      vertex 5.72205e-07 0 -4.04145
      vertex 3.2 3.5 -2.02073
      vertex 3.2 0 -4.04145
    endloop
  endfacet
  facet normal 0 0.5 -0.866025
    outer loop
      vertex 3.2 3.5 -2.02073
      vertex 5.72205e-07 0 -4.04145
      vertex 5.72205e-07 3.5 -2.02073
    endloop
  endfacet
  facet normal 0 1 -0
    outer loop
      vertex 3.2 3.5 -2.02073
      vertex 5.72205e-07 3.5 2.02073
      vertex 3.2 3.5 2.02073
    endloop
  endfacet
  facet normal 0 1 0
    outer loop
      vertex 5.72205e-07 3.5 2.02073
      vertex 3.2 3.5 -2.02073
      vertex 5.72205e-07 3.5 -2.02073
    endloop
  endfacet
  facet normal 1 0 0
    outer loop
      vertex 3.2 3.5 2.02073
      vertex 3.2 1.3 -7.10543e-16
      vertex 3.2 3.5 -2.02073
    endloop
  endfacet
  facet normal 1 0 0
    outer loop
      vertex 3.2 3.5 2.02073
      vertex 3.2 1.28888 0.169683
      vertex 3.2 1.3 -7.10543e-16
    endloop
  endfacet
  facet normal 1 0 0
    outer loop
      vertex 3.2 3.5 2.02073
      vertex 3.2 1.2557 0.336464
      vertex 3.2 1.28888 0.169683
    endloop
  endfacet
  facet normal 1 0 0
    outer loop
      vertex 3.2 3.5 2.02073
      vertex 3.2 1.20104 0.497488
      vertex 3.2 1.2557 0.336464
    endloop
  endfacet
  facet normal 1 0 0
    outer loop
      vertex 3.2 3.5 2.02073
      vertex 3.2 1.12583 0.65
      vertex 3.2 1.20104 0.497488
    endloop
  endfacet
  facet normal 1 0 0
    outer loop
      vertex 3.2 3.5 2.02073
      vertex 3.2 1.03136 0.791389
      vertex 3.2 1.12583 0.65
    endloop
  endfacet
  facet normal 1 0 0
    outer loop
      vertex 3.2 3.5 2.02073
      vertex 3.2 0.919238 0.919238
      vertex 3.2 1.03136 0.791389
    endloop
  endfacet
  facet normal 1 0 0
    outer loop
      vertex 3.2 3.5 2.02073
      vertex 3.2 0.791389 1.03136
      vertex 3.2 0.919238 0.919238
    endloop
  endfacet
  facet normal 1 0 0
    outer loop
      vertex 3.2 3.5 2.02073
      vertex 3.2 0.65 1.12583
      vertex 3.2 0.791389 1.03136
    endloop
  endfacet
  facet normal 1 0 0
    outer loop
      vertex 3.2 0 4.04145
      vertex 3.2 0.65 1.12583
      vertex 3.2 3.5 2.02073
    endloop
  endfacet
  facet normal 1 0 0
    outer loop
      vertex 3.2 0.65 1.12583
      vertex 3.2 0 4.04145
      vertex 3.2 0.497488 1.20104
    endloop
  endfacet
  facet normal 1 0 0
    outer loop
      vertex 3.2 0.497488 1.20104
      vertex 3.2 0 4.04145
      vertex 3.2 0.336464 1.2557
    endloop
  endfacet
  facet normal 1 0 0
    outer loop
      vertex 3.2 0.336464 1.2557
      vertex 3.2 0 4.04145
      vertex 3.2 0.169683 1.28888
    endloop
  endfacet
  facet normal 1 0 0
    outer loop
      vertex 3.2 0 4.04145
      vertex 3.2 0 1.3
      vertex 3.2 0.169683 1.28888
    endloop
  endfacet
  facet normal 1 0 0
    outer loop
      vertex 3.2 0 4.04145
      vertex 3.2 -0.169683 1.28888
      vertex 3.2 0 1.3
    endloop
  endfacet
  facet normal 1 0 0
    outer loop
      vertex 3.2 0 4.04145
      vertex 3.2 -0.336464 1.2557
      vertex 3.2 -0.169683 1.28888
    endloop
  endfacet
  facet normal 1 0 0
    outer loop
      vertex 3.2 0 4.04145
      vertex 3.2 -0.497488 1.20104
      vertex 3.2 -0.336464 1.2557
    endloop
  endfacet
  facet normal 1 0 0
    outer loop
      vertex 3.2 0 4.04145
      vertex 3.2 -0.65 1.12583
      vertex 3.2 -0.497488 1.20104
    endloop
  endfacet
  facet normal 1 -0 0
    outer loop
      vertex 3.2 -3.5 2.02073
      vertex 3.2 -0.65 1.12583
      vertex 3.2 0 4.04145
    endloop
  endfacet
  facet normal 1 0 0
    outer loop
      vertex 3.2 -0.65 1.12583
      vertex 3.2 -3.5 2.02073
      vertex 3.2 -0.791389 1.03136
    endloop
  endfacet
  facet normal 1 0 0
    outer loop
      vertex 3.2 -0.791389 1.03136
      vertex 3.2 -3.5 2.02073
      vertex 3.2 -0.919238 0.919238
    endloop
  endfacet
  facet normal 1 0 0
    outer loop
      vertex 3.2 -0.919238 0.919238
      vertex 3.2 -3.5 2.02073
      vertex 3.2 -1.03136 0.791389
    endloop
  endfacet
  facet normal 1 0 0
    outer loop
      vertex 3.2 -1.03136 0.791389
      vertex 3.2 -3.5 2.02073
      vertex 3.2 -1.12583 0.65
    endloop
  endfacet
  facet normal 1 0 0
    outer loop
      vertex 3.2 -1.12583 0.65
      vertex 3.2 -3.5 2.02073
      vertex 3.2 -1.20104 0.497488
    endloop
  endfacet
  facet normal 1 0 0
    outer loop
      vertex 3.2 -3.5 2.02073
      vertex 3.2 -1.3 -7.10543e-16
      vertex 3.2 -1.28888 0.169683
    endloop
  endfacet
  facet normal 1 0 0
    outer loop
      vertex 3.2 -3.5 2.02073
      vertex 3.2 -1.28888 0.169683
      vertex 3.2 -1.2557 0.336464
    endloop
  endfacet
  facet normal 1 0 0
    outer loop
      vertex 3.2 -1.20104 0.497488
      vertex 3.2 -3.5 2.02073
      vertex 3.2 -1.2557 0.336464
    endloop
  endfacet
  facet normal 1 0 0
    outer loop
      vertex 3.2 -1.3 -7.10543e-16
      vertex 3.2 -3.5 2.02073
      vertex 3.2 -3.5 -2.02073
    endloop
  endfacet
  facet normal 1 -0 0
    outer loop
      vertex 3.2 1.28888 -0.169683
      vertex 3.2 3.5 -2.02073
      vertex 3.2 1.3 -7.10543e-16
    endloop
  endfacet
  facet normal 1 -0 0
    outer loop
      vertex 3.2 1.2557 -0.336464
      vertex 3.2 3.5 -2.02073
      vertex 3.2 1.28888 -0.169683
    endloop
  endfacet
  facet normal 1 -0 0
    outer loop
      vertex 3.2 1.20104 -0.497488
      vertex 3.2 3.5 -2.02073
      vertex 3.2 1.2557 -0.336464
    endloop
  endfacet
  facet normal 1 -0 0
    outer loop
      vertex 3.2 1.12583 -0.65
      vertex 3.2 3.5 -2.02073
      vertex 3.2 1.20104 -0.497488
    endloop
  endfacet
  facet normal 1 -0 0
    outer loop
      vertex 3.2 1.03136 -0.791389
      vertex 3.2 3.5 -2.02073
      vertex 3.2 1.12583 -0.65
    endloop
  endfacet
  facet normal 1 -0 0
    outer loop
      vertex 3.2 0.919238 -0.919238
      vertex 3.2 3.5 -2.02073
      vertex 3.2 1.03136 -0.791389
    endloop
  endfacet
  facet normal 1 -0 0
    outer loop
      vertex 3.2 0.791389 -1.03136
      vertex 3.2 3.5 -2.02073
      vertex 3.2 0.919238 -0.919238
    endloop
  endfacet
  facet normal 1 -0 0
    outer loop
      vertex 3.2 0.65 -1.12583
      vertex 3.2 3.5 -2.02073
      vertex 3.2 0.791389 -1.03136
    endloop
  endfacet
  facet normal 1 0 0
    outer loop
      vertex 3.2 0 -4.04145
      vertex 3.2 0.65 -1.12583
      vertex 3.2 0.497488 -1.20104
    endloop
  endfacet
  facet normal 1 0 0
    outer loop
      vertex 3.2 0 -4.04145
      vertex 3.2 0.497488 -1.20104
      vertex 3.2 0.336464 -1.2557
    endloop
  endfacet
  facet normal 1 0 0
    outer loop
      vertex 3.2 0 -4.04145
      vertex 3.2 0.336464 -1.2557
      vertex 3.2 0.169683 -1.28888
    endloop
  endfacet
  facet normal 1 0 0
    outer loop
      vertex 3.2 0 -4.04145
      vertex 3.2 0.169683 -1.28888
      vertex 3.2 0 -1.3
    endloop
  endfacet
  facet normal 1 0 0
    outer loop
      vertex 3.2 0.65 -1.12583
      vertex 3.2 0 -4.04145
      vertex 3.2 3.5 -2.02073
    endloop
  endfacet
  facet normal 1 0 0
    outer loop
      vertex 3.2 -0.169683 -1.28888
      vertex 3.2 0 -4.04145
      vertex 3.2 0 -1.3
    endloop
  endfacet
  facet normal 1 0 0
    outer loop
      vertex 3.2 -0.336464 -1.2557
      vertex 3.2 0 -4.04145
      vertex 3.2 -0.169683 -1.28888
    endloop
  endfacet
  facet normal 1 0 0
    outer loop
      vertex 3.2 -0.497488 -1.20104
      vertex 3.2 0 -4.04145
      vertex 3.2 -0.336464 -1.2557
    endloop
  endfacet
  facet normal 1 0 0
    outer loop
      vertex 3.2 -0.65 -1.12583
      vertex 3.2 0 -4.04145
      vertex 3.2 -0.497488 -1.20104
    endloop
  endfacet
  facet normal 1 0 0
    outer loop
      vertex 3.2 -3.5 -2.02073
      vertex 3.2 -0.65 -1.12583
      vertex 3.2 -0.791389 -1.03136
    endloop
  endfacet
  facet normal 1 0 0
    outer loop
      vertex 3.2 -3.5 -2.02073
      vertex 3.2 -0.791389 -1.03136
      vertex 3.2 -0.919238 -0.919238
    endloop
  endfacet
  facet normal 1 0 0
    outer loop
      vertex 3.2 -3.5 -2.02073
      vertex 3.2 -0.919238 -0.919238
      vertex 3.2 -1.03136 -0.791389
    endloop
  endfacet
  facet normal 1 0 0
    outer loop
      vertex 3.2 -3.5 -2.02073
      vertex 3.2 -1.03136 -0.791389
      vertex 3.2 -1.12583 -0.65
    endloop
  endfacet
  facet normal 1 0 0
    outer loop
      vertex 3.2 -3.5 -2.02073
      vertex 3.2 -1.12583 -0.65
      vertex 3.2 -1.20104 -0.497488
    endloop
  endfacet
  facet normal 1 0 0
    outer loop
      vertex 3.2 -3.5 -2.02073
      vertex 3.2 -1.20104 -0.497488
      vertex 3.2 -1.2557 -0.336464
    endloop
  endfacet
  facet normal 1 0 0
    outer loop
      vertex 3.2 -0.65 -1.12583
      vertex 3.2 -3.5 -2.02073
      vertex 3.2 0 -4.04145
    endloop
  endfacet
  facet normal 1 0 0
    outer loop
      vertex 3.2 -1.28888 -0.169683
      vertex 3.2 -3.5 -2.02073
      vertex 3.2 -1.2557 -0.336464
    endloop
  endfacet
  facet normal 1 0 0
    outer loop
      vertex 3.2 -3.5 -2.02073
      vertex 3.2 -1.28888 -0.169683
      vertex 3.2 -1.3 -7.10543e-16
    endloop
  endfacet
  facet normal -1 0 0
    outer loop
      vertex 5.72205e-07 3.5 -2.02073
      vertex 5.72205e-07 1.3 -1.27055e-22
      vertex 5.72205e-07 3.5 2.02073
    endloop
  endfacet
  facet normal -1 0 0
    outer loop
      vertex 5.72205e-07 3.5 -2.02073
      vertex 5.72205e-07 1.28888 -0.169683
      vertex 5.72205e-07 1.3 -1.27055e-22
    endloop
  endfacet
  facet normal -1 0 0
    outer loop
      vertex 5.72205e-07 3.5 -2.02073
      vertex 5.72205e-07 1.2557 -0.336464
      vertex 5.72205e-07 1.28888 -0.169683
    endloop
  endfacet
  facet normal -1 0 0
    outer loop
      vertex 5.72205e-07 3.5 -2.02073
      vertex 5.72205e-07 1.20104 -0.497488
      vertex 5.72205e-07 1.2557 -0.336464
    endloop
  endfacet
  facet normal -1 0 0
    outer loop
      vertex 5.72205e-07 3.5 -2.02073
      vertex 5.72205e-07 1.12583 -0.65
      vertex 5.72205e-07 1.20104 -0.497488
    endloop
  endfacet
  facet normal -1 0 0
    outer loop
      vertex 5.72205e-07 3.5 -2.02073
      vertex 5.72205e-07 1.03136 -0.791389
      vertex 5.72205e-07 1.12583 -0.65
    endloop
  endfacet
  facet normal -1 0 0
    outer loop
      vertex 5.72205e-07 3.5 -2.02073
      vertex 5.72205e-07 0.919238 -0.919238
      vertex 5.72205e-07 1.03136 -0.791389
    endloop
  endfacet
  facet normal -1 0 0
    outer loop
      vertex 5.72205e-07 3.5 -2.02073
      vertex 5.72205e-07 0.791389 -1.03136
      vertex 5.72205e-07 0.919238 -0.919238
    endloop
  endfacet
  facet normal -1 0 0
    outer loop
      vertex 5.72205e-07 3.5 -2.02073
      vertex 5.72205e-07 0.65 -1.12583
      vertex 5.72205e-07 0.791389 -1.03136
    endloop
  endfacet
  facet normal -1 0 0
    outer loop
      vertex 5.72205e-07 0 -4.04145
      vertex 5.72205e-07 0.65 -1.12583
      vertex 5.72205e-07 3.5 -2.02073
    endloop
  endfacet
  facet normal -1 0 0
    outer loop
      vertex 5.72205e-07 0.65 -1.12583
      vertex 5.72205e-07 0 -4.04145
      vertex 5.72205e-07 0.497488 -1.20104
    endloop
  endfacet
  facet normal -1 0 0
    outer loop
      vertex 5.72205e-07 0.497488 -1.20104
      vertex 5.72205e-07 0 -4.04145
      vertex 5.72205e-07 0.336464 -1.2557
    endloop
  endfacet
  facet normal -1 0 0
    outer loop
      vertex 5.72205e-07 0.336464 -1.2557
      vertex 5.72205e-07 0 -4.04145
      vertex 5.72205e-07 0.169683 -1.28888
    endloop
  endfacet
  facet normal -1 0 0
    outer loop
      vertex 5.72205e-07 0 -4.04145
      vertex 5.72205e-07 0 -1.3
      vertex 5.72205e-07 0.169683 -1.28888
    endloop
  endfacet
  facet normal -1 0 0
    outer loop
      vertex 5.72205e-07 0 -4.04145
      vertex 5.72205e-07 -0.169683 -1.28888
      vertex 5.72205e-07 0 -1.3
    endloop
  endfacet
  facet normal -1 0 0
    outer loop
      vertex 5.72205e-07 0 -4.04145
      vertex 5.72205e-07 -0.336464 -1.2557
      vertex 5.72205e-07 -0.169683 -1.28888
    endloop
  endfacet
  facet normal -1 0 0
    outer loop
      vertex 5.72205e-07 0 -4.04145
      vertex 5.72205e-07 -0.497488 -1.20104
      vertex 5.72205e-07 -0.336464 -1.2557
    endloop
  endfacet
  facet normal -1 0 0
    outer loop
      vertex 5.72205e-07 0 -4.04145
      vertex 5.72205e-07 -0.65 -1.12583
      vertex 5.72205e-07 -0.497488 -1.20104
    endloop
  endfacet
  facet normal -1 0 0
    outer loop
      vertex 5.72205e-07 -3.5 -2.02073
      vertex 5.72205e-07 -0.65 -1.12583
      vertex 5.72205e-07 0 -4.04145
    endloop
  endfacet
  facet normal -1 -0 0
    outer loop
      vertex 5.72205e-07 -0.65 -1.12583
      vertex 5.72205e-07 -3.5 -2.02073
      vertex 5.72205e-07 -0.791389 -1.03136
    endloop
  endfacet
  facet normal -1 -0 0
    outer loop
      vertex 5.72205e-07 -0.791389 -1.03136
      vertex 5.72205e-07 -3.5 -2.02073
      vertex 5.72205e-07 -0.919238 -0.919238
    endloop
  endfacet
  facet normal -1 -0 0
    outer loop
      vertex 5.72205e-07 -0.919238 -0.919238
      vertex 5.72205e-07 -3.5 -2.02073
      vertex 5.72205e-07 -1.03136 -0.791389
    endloop
  endfacet
  facet normal -1 -0 0
    outer loop
      vertex 5.72205e-07 -1.03136 -0.791389
      vertex 5.72205e-07 -3.5 -2.02073
      vertex 5.72205e-07 -1.12583 -0.65
    endloop
  endfacet
  facet normal -1 -0 0
    outer loop
      vertex 5.72205e-07 -1.12583 -0.65
      vertex 5.72205e-07 -3.5 -2.02073
      vertex 5.72205e-07 -1.20104 -0.497488
    endloop
  endfacet
  facet normal -1 -0 0
    outer loop
      vertex 5.72205e-07 -1.28888 -0.169683
      vertex 5.72205e-07 -3.5 -2.02073
      vertex 5.72205e-07 -1.3 -1.27055e-22
    endloop
  endfacet
  facet normal -1 -0 0
    outer loop
      vertex 5.72205e-07 -1.2557 -0.336464
      vertex 5.72205e-07 -3.5 -2.02073
      vertex 5.72205e-07 -1.28888 -0.169683
    endloop
  endfacet
  facet normal -1 -0 0
    outer loop
      vertex 5.72205e-07 -1.20104 -0.497488
      vertex 5.72205e-07 -3.5 -2.02073
      vertex 5.72205e-07 -1.2557 -0.336464
    endloop
  endfacet
  facet normal -1 0 0
    outer loop
      vertex 5.72205e-07 1.28888 0.169683
      vertex 5.72205e-07 3.5 2.02073
      vertex 5.72205e-07 1.3 -1.27055e-22
    endloop
  endfacet
  facet normal -1 0 0
    outer loop
      vertex 5.72205e-07 1.2557 0.336464
      vertex 5.72205e-07 3.5 2.02073
      vertex 5.72205e-07 1.28888 0.169683
    endloop
  endfacet
  facet normal -1 0 0
    outer loop
      vertex 5.72205e-07 1.20104 0.497488
      vertex 5.72205e-07 3.5 2.02073
      vertex 5.72205e-07 1.2557 0.336464
    endloop
  endfacet
  facet normal -1 0 0
    outer loop
      vertex 5.72205e-07 1.12583 0.65
      vertex 5.72205e-07 3.5 2.02073
      vertex 5.72205e-07 1.20104 0.497488
    endloop
  endfacet
  facet normal -1 0 0
    outer loop
      vertex 5.72205e-07 1.03136 0.791389
      vertex 5.72205e-07 3.5 2.02073
      vertex 5.72205e-07 1.12583 0.65
    endloop
  endfacet
  facet normal -1 0 0
    outer loop
      vertex 5.72205e-07 0.919238 0.919238
      vertex 5.72205e-07 3.5 2.02073
      vertex 5.72205e-07 1.03136 0.791389
    endloop
  endfacet
  facet normal -1 0 0
    outer loop
      vertex 5.72205e-07 0.791389 1.03136
      vertex 5.72205e-07 3.5 2.02073
      vertex 5.72205e-07 0.919238 0.919238
    endloop
  endfacet
  facet normal -1 0 0
    outer loop
      vertex 5.72205e-07 0.65 1.12583
      vertex 5.72205e-07 3.5 2.02073
      vertex 5.72205e-07 0.791389 1.03136
    endloop
  endfacet
  facet normal -1 0 0
    outer loop
      vertex 5.72205e-07 0 4.04145
      vertex 5.72205e-07 0.65 1.12583
      vertex 5.72205e-07 0.497488 1.20104
    endloop
  endfacet
  facet normal -1 0 0
    outer loop
      vertex 5.72205e-07 0 4.04145
      vertex 5.72205e-07 0.497488 1.20104
      vertex 5.72205e-07 0.336464 1.2557
    endloop
  endfacet
  facet normal -1 0 0
    outer loop
      vertex 5.72205e-07 0 4.04145
      vertex 5.72205e-07 0.336464 1.2557
      vertex 5.72205e-07 0.169683 1.28888
    endloop
  endfacet
  facet normal -1 0 0
    outer loop
      vertex 5.72205e-07 0 4.04145
      vertex 5.72205e-07 0.169683 1.28888
      vertex 5.72205e-07 0 1.3
    endloop
  endfacet
  facet normal -1 0 0
    outer loop
      vertex 5.72205e-07 0.65 1.12583
      vertex 5.72205e-07 0 4.04145
      vertex 5.72205e-07 3.5 2.02073
    endloop
  endfacet
  facet normal -1 0 0
    outer loop
      vertex 5.72205e-07 -0.169683 1.28888
      vertex 5.72205e-07 0 4.04145
      vertex 5.72205e-07 0 1.3
    endloop
  endfacet
  facet normal -1 0 0
    outer loop
      vertex 5.72205e-07 -0.336464 1.2557
      vertex 5.72205e-07 0 4.04145
      vertex 5.72205e-07 -0.169683 1.28888
    endloop
  endfacet
  facet normal -1 0 0
    outer loop
      vertex 5.72205e-07 -0.497488 1.20104
      vertex 5.72205e-07 0 4.04145
      vertex 5.72205e-07 -0.336464 1.2557
    endloop
  endfacet
  facet normal -1 0 0
    outer loop
      vertex 5.72205e-07 -0.65 1.12583
      vertex 5.72205e-07 0 4.04145
      vertex 5.72205e-07 -0.497488 1.20104
    endloop
  endfacet
  facet normal -1 0 0
    outer loop
      vertex 5.72205e-07 -3.5 2.02073
      vertex 5.72205e-07 -0.65 1.12583
      vertex 5.72205e-07 -0.791389 1.03136
    endloop
  endfacet
  facet normal -1 0 0
    outer loop
      vertex 5.72205e-07 -3.5 2.02073
      vertex 5.72205e-07 -0.791389 1.03136
      vertex 5.72205e-07 -0.919238 0.919238
    endloop
  endfacet
  facet normal -1 0 0
    outer loop
      vertex 5.72205e-07 -3.5 2.02073
      vertex 5.72205e-07 -0.919238 0.919238
      vertex 5.72205e-07 -1.03136 0.791389
    endloop
  endfacet
  facet normal -1 0 0
    outer loop
      vertex 5.72205e-07 -3.5 2.02073
      vertex 5.72205e-07 -1.03136 0.791389
      vertex 5.72205e-07 -1.12583 0.65
    endloop
  endfacet
  facet normal -1 0 0
    outer loop
      vertex 5.72205e-07 -3.5 2.02073
      vertex 5.72205e-07 -1.12583 0.65
      vertex 5.72205e-07 -1.20104 0.497488
    endloop
  endfacet
  facet normal -1 0 0
    outer loop
      vertex 5.72205e-07 -3.5 2.02073
      vertex 5.72205e-07 -1.20104 0.497488
      vertex 5.72205e-07 -1.2557 0.336464
    endloop
  endfacet
  facet normal -1 0 0
    outer loop
      vertex 5.72205e-07 -3.5 2.02073
      vertex 5.72205e-07 -1.3 -1.27055e-22
      vertex 5.72205e-07 -3.5 -2.02073
    endloop
  endfacet
  facet normal -1 0 0
    outer loop
      vertex 5.72205e-07 -1.3 -1.27055e-22
      vertex 5.72205e-07 -3.5 2.02073
      vertex 5.72205e-07 -1.28888 0.169683
    endloop
  endfacet
  facet normal -1 0 0
    outer loop
      vertex 5.72205e-07 -1.28888 0.169683
      vertex 5.72205e-07 -3.5 2.02073
      vertex 5.72205e-07 -1.2557 0.336464
    endloop
  endfacet
  facet normal -1 0 0
    outer loop
      vertex 5.72205e-07 -0.65 1.12583
      vertex 5.72205e-07 -3.5 2.02073
      vertex 5.72205e-07 0 4.04145
    endloop
  endfacet
  facet normal 0 -0.5 0.866025
    outer loop
      vertex 5.72205e-07 0 4.04145
      vertex 3.2 -3.5 2.02073
      vertex 3.2 0 4.04145
    endloop
  endfacet
  facet normal 0 -0.5 0.866025
    outer loop
      vertex 3.2 -3.5 2.02073
      vertex 5.72205e-07 0 4.04145
      vertex 5.72205e-07 -3.5 2.02073
    endloop
  endfacet
  facet normal 0 -0.5 -0.866025
    outer loop
      vertex 5.72205e-07 -3.5 -2.02073
      vertex 3.2 0 -4.04145
      vertex 3.2 -3.5 -2.02073
    endloop
  endfacet
  facet normal -0 -0.5 -0.866025
    outer loop
      vertex 3.2 0 -4.04145
      vertex 5.72205e-07 -3.5 -2.02073
      vertex 5.72205e-07 0 -4.04145
    endloop
  endfacet
  facet normal 0 -1 -2.35973e-07
    outer loop
      vertex 5.72205e-07 -3.5 -2.02073
      vertex 3.2 -3.5 2.02073
      vertex 5.72205e-07 -3.5 2.02073
    endloop
  endfacet
  facet normal 0 -1 -2.35973e-07
    outer loop
      vertex 3.2 -3.5 2.02073
      vertex 5.72205e-07 -3.5 -2.02073
      vertex 3.2 -3.5 -2.02073
    endloop
  endfacet
  facet normal 0 -0.0654038 -0.997859
    outer loop
      vertex 5.72205e-07 0 1.3
      vertex 3.2 0.169683 1.28888
      vertex 3.2 0 1.3
    endloop
  endfacet
  facet normal -0 -0.0654038 -0.997859
    outer loop
      vertex 3.2 0.169683 1.28888
      vertex 5.72205e-07 0 1.3
      vertex 5.72205e-07 0.169683 1.28888
    endloop
  endfacet
  facet normal 0 -0.0654038 0.997859
    outer loop
      vertex 5.72205e-07 0.169683 -1.28888
      vertex 3.2 0 -1.3
      vertex 3.2 0.169683 -1.28888
    endloop
  endfacet
  facet normal 0 -0.0654038 0.997859
    outer loop
      vertex 3.2 0 -1.3
      vertex 5.72205e-07 0.169683 -1.28888
      vertex 5.72205e-07 0 -1.3
    endloop
  endfacet
  facet normal 0 -0.997859 -0.0654038
    outer loop
      vertex 5.72205e-07 1.3 -1.27055e-22
      vertex 3.2 1.28888 0.169683
      vertex 5.72205e-07 1.28888 0.169683
    endloop
  endfacet
  facet normal -1.47442e-17 -0.997859 -0.0654038
    outer loop
      vertex 3.2 1.28888 0.169683
      vertex 5.72205e-07 1.3 -1.27055e-22
      vertex 3.2 1.3 -7.10543e-16
    endloop
  endfacet
  facet normal 1.47442e-17 0.997859 0.0654038
    outer loop
      vertex 3.2 -1.28888 -0.169683
      vertex 5.72205e-07 -1.3 -1.27055e-22
      vertex 3.2 -1.3 -7.10543e-16
    endloop
  endfacet
  facet normal 0 0.997859 0.0654038
    outer loop
      vertex 5.72205e-07 -1.3 -1.27055e-22
      vertex 3.2 -1.28888 -0.169683
      vertex 5.72205e-07 -1.28888 -0.169683
    endloop
  endfacet
  facet normal -0 0.659347 0.751839
    outer loop
      vertex 5.72205e-07 -0.791389 -1.03136
      vertex 3.2 -0.919238 -0.919238
      vertex 3.2 -0.791389 -1.03136
    endloop
  endfacet
  facet normal 0 0.659347 0.751839
    outer loop
      vertex 3.2 -0.919238 -0.919238
      vertex 5.72205e-07 -0.791389 -1.03136
      vertex 5.72205e-07 -0.919238 -0.919238
    endloop
  endfacet
  facet normal 0 -0.751839 -0.659347
    outer loop
      vertex 5.72205e-07 1.03136 0.791389
      vertex 3.2 0.919238 0.919238
      vertex 5.72205e-07 0.919238 0.919238
    endloop
  endfacet
  facet normal 0 -0.751839 -0.659347
    outer loop
      vertex 3.2 0.919238 0.919238
      vertex 5.72205e-07 1.03136 0.791389
      vertex 3.2 1.03136 0.791389
    endloop
  endfacet
  facet normal 0 -0.751839 0.659347
    outer loop
      vertex 5.72205e-07 0.919238 -0.919238
      vertex 3.2 1.03136 -0.791389
      vertex 5.72205e-07 1.03136 -0.791389
    endloop
  endfacet
  facet normal 0 -0.751839 0.659347
    outer loop
      vertex 3.2 1.03136 -0.791389
      vertex 5.72205e-07 0.919238 -0.919238
      vertex 3.2 0.919238 -0.919238
    endloop
  endfacet
  facet normal 0 -0.946931 0.321437
    outer loop
      vertex 5.72205e-07 1.20104 -0.497488
      vertex 3.2 1.2557 -0.336464
      vertex 5.72205e-07 1.2557 -0.336464
    endloop
  endfacet
  facet normal 0 -0.946931 0.321437
    outer loop
      vertex 3.2 1.2557 -0.336464
      vertex 5.72205e-07 1.20104 -0.497488
      vertex 3.2 1.20104 -0.497488
    endloop
  endfacet
  facet normal 0 -0.44229 -0.896872
    outer loop
      vertex 5.72205e-07 0.497488 1.20104
      vertex 3.2 0.65 1.12583
      vertex 3.2 0.497488 1.20104
    endloop
  endfacet
  facet normal -0 -0.44229 -0.896872
    outer loop
      vertex 3.2 0.65 1.12583
      vertex 5.72205e-07 0.497488 1.20104
      vertex 5.72205e-07 0.65 1.12583
    endloop
  endfacet
  facet normal 0 -0.555571 -0.831469
    outer loop
      vertex 5.72205e-07 0.65 1.12583
      vertex 3.2 0.791389 1.03136
      vertex 3.2 0.65 1.12583
    endloop
  endfacet
  facet normal -0 -0.555571 -0.831469
    outer loop
      vertex 3.2 0.791389 1.03136
      vertex 5.72205e-07 0.65 1.12583
      vertex 5.72205e-07 0.791389 1.03136
    endloop
  endfacet
  facet normal 0 -0.896872 -0.44229
    outer loop
      vertex 5.72205e-07 1.20104 0.497488
      vertex 3.2 1.12583 0.65
      vertex 5.72205e-07 1.12583 0.65
    endloop
  endfacet
  facet normal 0 -0.896872 -0.44229
    outer loop
      vertex 3.2 1.12583 0.65
      vertex 5.72205e-07 1.20104 0.497488
      vertex 3.2 1.20104 0.497488
    endloop
  endfacet
  facet normal 0 -0.946931 -0.321437
    outer loop
      vertex 5.72205e-07 1.2557 0.336464
      vertex 3.2 1.20104 0.497488
      vertex 5.72205e-07 1.20104 0.497488
    endloop
  endfacet
  facet normal 0 -0.946931 -0.321437
    outer loop
      vertex 3.2 1.20104 0.497488
      vertex 5.72205e-07 1.2557 0.336464
      vertex 3.2 1.2557 0.336464
    endloop
  endfacet
  facet normal 0 -0.831469 -0.555571
    outer loop
      vertex 5.72205e-07 1.12583 0.65
      vertex 3.2 1.03136 0.791389
      vertex 5.72205e-07 1.03136 0.791389
    endloop
  endfacet
  facet normal 0 -0.831469 -0.555571
    outer loop
      vertex 3.2 1.03136 0.791389
      vertex 5.72205e-07 1.12583 0.65
      vertex 3.2 1.12583 0.65
    endloop
  endfacet
  facet normal 0 -0.44229 0.896872
    outer loop
      vertex 5.72205e-07 0.65 -1.12583
      vertex 3.2 0.497488 -1.20104
      vertex 3.2 0.65 -1.12583
    endloop
  endfacet
  facet normal 0 -0.44229 0.896872
    outer loop
      vertex 3.2 0.497488 -1.20104
      vertex 5.72205e-07 0.65 -1.12583
      vertex 5.72205e-07 0.497488 -1.20104
    endloop
  endfacet
  facet normal 0 -0.659347 0.751839
    outer loop
      vertex 5.72205e-07 0.919238 -0.919238
      vertex 3.2 0.791389 -1.03136
      vertex 3.2 0.919238 -0.919238
    endloop
  endfacet
  facet normal 0 -0.659347 0.751839
    outer loop
      vertex 3.2 0.791389 -1.03136
      vertex 5.72205e-07 0.919238 -0.919238
      vertex 5.72205e-07 0.791389 -1.03136
    endloop
  endfacet
  facet normal 0 -0.321437 0.946931
    outer loop
      vertex 5.72205e-07 0.497488 -1.20104
      vertex 3.2 0.336464 -1.2557
      vertex 3.2 0.497488 -1.20104
    endloop
  endfacet
  facet normal 0 -0.321437 0.946931
    outer loop
      vertex 3.2 0.336464 -1.2557
      vertex 5.72205e-07 0.497488 -1.20104
      vertex 5.72205e-07 0.336464 -1.2557
    endloop
  endfacet
  facet normal 0 -0.980785 0.195089
    outer loop
      vertex 5.72205e-07 1.2557 -0.336464
      vertex 3.2 1.28888 -0.169683
      vertex 5.72205e-07 1.28888 -0.169683
    endloop
  endfacet
  facet normal 0 -0.980785 0.195089
    outer loop
      vertex 3.2 1.28888 -0.169683
      vertex 5.72205e-07 1.2557 -0.336464
      vertex 3.2 1.2557 -0.336464
    endloop
  endfacet
  facet normal 0 0.896872 0.44229
    outer loop
      vertex 3.2 -1.12583 -0.65
      vertex 5.72205e-07 -1.20104 -0.497488
      vertex 3.2 -1.20104 -0.497488
    endloop
  endfacet
  facet normal 0 0.896872 0.44229
    outer loop
      vertex 5.72205e-07 -1.20104 -0.497488
      vertex 3.2 -1.12583 -0.65
      vertex 5.72205e-07 -1.12583 -0.65
    endloop
  endfacet
  facet normal 0 0.751839 0.659347
    outer loop
      vertex 3.2 -0.919238 -0.919238
      vertex 5.72205e-07 -1.03136 -0.791389
      vertex 3.2 -1.03136 -0.791389
    endloop
  endfacet
  facet normal 0 0.751839 0.659347
    outer loop
      vertex 5.72205e-07 -1.03136 -0.791389
      vertex 3.2 -0.919238 -0.919238
      vertex 5.72205e-07 -0.919238 -0.919238
    endloop
  endfacet
  facet normal 0 0.946931 0.321437
    outer loop
      vertex 3.2 -1.20104 -0.497488
      vertex 5.72205e-07 -1.2557 -0.336464
      vertex 3.2 -1.2557 -0.336464
    endloop
  endfacet
  facet normal 0 0.946931 0.321437
    outer loop
      vertex 5.72205e-07 -1.2557 -0.336464
      vertex 3.2 -1.20104 -0.497488
      vertex 5.72205e-07 -1.20104 -0.497488
    endloop
  endfacet
  facet normal 0 -0.321437 -0.946931
    outer loop
      vertex 5.72205e-07 0.336464 1.2557
      vertex 3.2 0.497488 1.20104
      vertex 3.2 0.336464 1.2557
    endloop
  endfacet
  facet normal -0 -0.321437 -0.946931
    outer loop
      vertex 3.2 0.497488 1.20104
      vertex 5.72205e-07 0.336464 1.2557
      vertex 5.72205e-07 0.497488 1.20104
    endloop
  endfacet
  facet normal 0 -0.195089 -0.980785
    outer loop
      vertex 5.72205e-07 0.169683 1.28888
      vertex 3.2 0.336464 1.2557
      vertex 3.2 0.169683 1.28888
    endloop
  endfacet
  facet normal -0 -0.195089 -0.980785
    outer loop
      vertex 3.2 0.336464 1.2557
      vertex 5.72205e-07 0.169683 1.28888
      vertex 5.72205e-07 0.336464 1.2557
    endloop
  endfacet
  facet normal 0 -0.659347 -0.751839
    outer loop
      vertex 5.72205e-07 0.791389 1.03136
      vertex 3.2 0.919238 0.919238
      vertex 3.2 0.791389 1.03136
    endloop
  endfacet
  facet normal -0 -0.659347 -0.751839
    outer loop
      vertex 3.2 0.919238 0.919238
      vertex 5.72205e-07 0.791389 1.03136
      vertex 5.72205e-07 0.919238 0.919238
    endloop
  endfacet
  facet normal 0 -0.980785 -0.195089
    outer loop
      vertex 5.72205e-07 1.28888 0.169683
      vertex 3.2 1.2557 0.336464
      vertex 5.72205e-07 1.2557 0.336464
    endloop
  endfacet
  facet normal 0 -0.980785 -0.195089
    outer loop
      vertex 3.2 1.2557 0.336464
      vertex 5.72205e-07 1.28888 0.169683
      vertex 3.2 1.28888 0.169683
    endloop
  endfacet
  facet normal 0 -0.555571 0.831469
    outer loop
      vertex 5.72205e-07 0.791389 -1.03136
      vertex 3.2 0.65 -1.12583
      vertex 3.2 0.791389 -1.03136
    endloop
  endfacet
  facet normal 0 -0.555571 0.831469
    outer loop
      vertex 3.2 0.65 -1.12583
      vertex 5.72205e-07 0.791389 -1.03136
      vertex 5.72205e-07 0.65 -1.12583
    endloop
  endfacet
  facet normal 0 -0.195089 0.980785
    outer loop
      vertex 5.72205e-07 0.336464 -1.2557
      vertex 3.2 0.169683 -1.28888
      vertex 3.2 0.336464 -1.2557
    endloop
  endfacet
  facet normal 0 -0.195089 0.980785
    outer loop
      vertex 3.2 0.169683 -1.28888
      vertex 5.72205e-07 0.336464 -1.2557
      vertex 5.72205e-07 0.169683 -1.28888
    endloop
  endfacet
  facet normal 0 -0.896872 0.44229
    outer loop
      vertex 5.72205e-07 1.12583 -0.65
      vertex 3.2 1.20104 -0.497488
      vertex 5.72205e-07 1.20104 -0.497488
    endloop
  endfacet
  facet normal 0 -0.896872 0.44229
    outer loop
      vertex 3.2 1.20104 -0.497488
      vertex 5.72205e-07 1.12583 -0.65
      vertex 3.2 1.12583 -0.65
    endloop
  endfacet
  facet normal 0 -0.831469 0.555571
    outer loop
      vertex 5.72205e-07 1.03136 -0.791389
      vertex 3.2 1.12583 -0.65
      vertex 5.72205e-07 1.12583 -0.65
    endloop
  endfacet
  facet normal 0 -0.831469 0.555571
    outer loop
      vertex 3.2 1.12583 -0.65
      vertex 5.72205e-07 1.03136 -0.791389
      vertex 3.2 1.03136 -0.791389
    endloop
  endfacet
  facet normal 1.47442e-17 -0.997859 0.0654038
    outer loop
      vertex 5.72205e-07 1.28888 -0.169683
      vertex 3.2 1.3 -7.10543e-16
      vertex 5.72205e-07 1.3 -1.27055e-22
    endloop
  endfacet
  facet normal 0 -0.997859 0.0654038
    outer loop
      vertex 3.2 1.3 -7.10543e-16
      vertex 5.72205e-07 1.28888 -0.169683
      vertex 3.2 1.28888 -0.169683
    endloop
  endfacet
  facet normal 0 0.997859 -0.0654038
    outer loop
      vertex 3.2 -1.28888 0.169683
      vertex 5.72205e-07 -1.3 -1.27055e-22
      vertex 5.72205e-07 -1.28888 0.169683
    endloop
  endfacet
  facet normal -1.45226e-17 0.997859 -0.0654038
    outer loop
      vertex 5.72205e-07 -1.3 -1.27055e-22
      vertex 3.2 -1.28888 0.169683
      vertex 3.2 -1.3 -7.10543e-16
    endloop
  endfacet
  facet normal 0 0.946931 -0.321437
    outer loop
      vertex 3.2 -1.2557 0.336464
      vertex 5.72205e-07 -1.20104 0.497488
      vertex 3.2 -1.20104 0.497488
    endloop
  endfacet
  facet normal 0 0.946931 -0.321437
    outer loop
      vertex 5.72205e-07 -1.20104 0.497488
      vertex 3.2 -1.2557 0.336464
      vertex 5.72205e-07 -1.2557 0.336464
    endloop
  endfacet
  facet normal 0 0.751839 -0.659347
    outer loop
      vertex 3.2 -1.03136 0.791389
      vertex 5.72205e-07 -0.919238 0.919238
      vertex 3.2 -0.919238 0.919238
    endloop
  endfacet
  facet normal 0 0.751839 -0.659347
    outer loop
      vertex 5.72205e-07 -0.919238 0.919238
      vertex 3.2 -1.03136 0.791389
      vertex 5.72205e-07 -1.03136 0.791389
    endloop
  endfacet
  facet normal 0 0.896872 -0.44229
    outer loop
      vertex 3.2 -1.20104 0.497488
      vertex 5.72205e-07 -1.12583 0.65
      vertex 3.2 -1.12583 0.65
    endloop
  endfacet
  facet normal 0 0.896872 -0.44229
    outer loop
      vertex 5.72205e-07 -1.12583 0.65
      vertex 3.2 -1.20104 0.497488
      vertex 5.72205e-07 -1.20104 0.497488
    endloop
  endfacet
  facet normal 0 0.321437 -0.946931
    outer loop
      vertex 5.72205e-07 -0.497488 1.20104
      vertex 3.2 -0.336464 1.2557
      vertex 3.2 -0.497488 1.20104
    endloop
  endfacet
  facet normal 0 0.321437 -0.946931
    outer loop
      vertex 3.2 -0.336464 1.2557
      vertex 5.72205e-07 -0.497488 1.20104
      vertex 5.72205e-07 -0.336464 1.2557
    endloop
  endfacet
  facet normal 0 0.555571 -0.831469
    outer loop
      vertex 5.72205e-07 -0.791389 1.03136
      vertex 3.2 -0.65 1.12583
      vertex 3.2 -0.791389 1.03136
    endloop
  endfacet
  facet normal 0 0.555571 -0.831469
    outer loop
      vertex 3.2 -0.65 1.12583
      vertex 5.72205e-07 -0.791389 1.03136
      vertex 5.72205e-07 -0.65 1.12583
    endloop
  endfacet
  facet normal 0 0.831469 0.555571
    outer loop
      vertex 3.2 -1.03136 -0.791389
      vertex 5.72205e-07 -1.12583 -0.65
      vertex 3.2 -1.12583 -0.65
    endloop
  endfacet
  facet normal 0 0.831469 0.555571
    outer loop
      vertex 5.72205e-07 -1.12583 -0.65
      vertex 3.2 -1.03136 -0.791389
      vertex 5.72205e-07 -1.03136 -0.791389
    endloop
  endfacet
  facet normal 0 0.980785 0.195089
    outer loop
      vertex 3.2 -1.2557 -0.336464
      vertex 5.72205e-07 -1.28888 -0.169683
      vertex 3.2 -1.28888 -0.169683
    endloop
  endfacet
  facet normal 0 0.980785 0.195089
    outer loop
      vertex 5.72205e-07 -1.28888 -0.169683
      vertex 3.2 -1.2557 -0.336464
      vertex 5.72205e-07 -1.2557 -0.336464
    endloop
  endfacet
  facet normal -0 0.44229 0.896872
    outer loop
      vertex 5.72205e-07 -0.497488 -1.20104
      vertex 3.2 -0.65 -1.12583
      vertex 3.2 -0.497488 -1.20104
    endloop
  endfacet
  facet normal 0 0.44229 0.896872
    outer loop
      vertex 3.2 -0.65 -1.12583
      vertex 5.72205e-07 -0.497488 -1.20104
      vertex 5.72205e-07 -0.65 -1.12583
    endloop
  endfacet
  facet normal -0 0.321437 0.946931
    outer loop
      vertex 5.72205e-07 -0.336464 -1.2557
      vertex 3.2 -0.497488 -1.20104
      vertex 3.2 -0.336464 -1.2557
    endloop
  endfacet
  facet normal 0 0.321437 0.946931
    outer loop
      vertex 3.2 -0.497488 -1.20104
      vertex 5.72205e-07 -0.336464 -1.2557
      vertex 5.72205e-07 -0.497488 -1.20104
    endloop
  endfacet
  facet normal -0 0.0654038 0.997859
    outer loop
      vertex 5.72205e-07 0 -1.3
      vertex 3.2 -0.169683 -1.28888
      vertex 3.2 0 -1.3
    endloop
  endfacet
  facet normal 0 0.0654038 0.997859
    outer loop
      vertex 3.2 -0.169683 -1.28888
      vertex 5.72205e-07 0 -1.3
      vertex 5.72205e-07 -0.169683 -1.28888
    endloop
  endfacet
  facet normal 0 0.980785 -0.195089
    outer loop
      vertex 3.2 -1.28888 0.169683
      vertex 5.72205e-07 -1.2557 0.336464
      vertex 3.2 -1.2557 0.336464
    endloop
  endfacet
  facet normal 0 0.980785 -0.195089
    outer loop
      vertex 5.72205e-07 -1.2557 0.336464
      vertex 3.2 -1.28888 0.169683
      vertex 5.72205e-07 -1.28888 0.169683
    endloop
  endfacet
  facet normal 0 0.659347 -0.751839
    outer loop
      vertex 5.72205e-07 -0.919238 0.919238
      vertex 3.2 -0.791389 1.03136
      vertex 3.2 -0.919238 0.919238
    endloop
  endfacet
  facet normal 0 0.659347 -0.751839
    outer loop
      vertex 3.2 -0.791389 1.03136
      vertex 5.72205e-07 -0.919238 0.919238
      vertex 5.72205e-07 -0.791389 1.03136
    endloop
  endfacet
  facet normal 0 0.831469 -0.555571
    outer loop
      vertex 3.2 -1.12583 0.65
      vertex 5.72205e-07 -1.03136 0.791389
      vertex 3.2 -1.03136 0.791389
    endloop
  endfacet
  facet normal 0 0.831469 -0.555571
    outer loop
      vertex 5.72205e-07 -1.03136 0.791389
      vertex 3.2 -1.12583 0.65
      vertex 5.72205e-07 -1.12583 0.65
    endloop
  endfacet
  facet normal 0 0.195089 -0.980785
    outer loop
      vertex 5.72205e-07 -0.336464 1.2557
      vertex 3.2 -0.169683 1.28888
      vertex 3.2 -0.336464 1.2557
    endloop
  endfacet
  facet normal 0 0.195089 -0.980785
    outer loop
      vertex 3.2 -0.169683 1.28888
      vertex 5.72205e-07 -0.336464 1.2557
      vertex 5.72205e-07 -0.169683 1.28888
    endloop
  endfacet
  facet normal 0 0.44229 -0.896872
    outer loop
      vertex 5.72205e-07 -0.65 1.12583
      vertex 3.2 -0.497488 1.20104
      vertex 3.2 -0.65 1.12583
    endloop
  endfacet
  facet normal 0 0.44229 -0.896872
    outer loop
      vertex 3.2 -0.497488 1.20104
      vertex 5.72205e-07 -0.65 1.12583
      vertex 5.72205e-07 -0.497488 1.20104
    endloop
  endfacet
  facet normal -0 0.555571 0.831469
    outer loop
      vertex 5.72205e-07 -0.65 -1.12583
      vertex 3.2 -0.791389 -1.03136
      vertex 3.2 -0.65 -1.12583
    endloop
  endfacet
  facet normal 0 0.555571 0.831469
    outer loop
      vertex 3.2 -0.791389 -1.03136
      vertex 5.72205e-07 -0.65 -1.12583
      vertex 5.72205e-07 -0.791389 -1.03136
    endloop
  endfacet
  facet normal -0 0.195089 0.980785
    outer loop
      vertex 5.72205e-07 -0.169683 -1.28888
      vertex 3.2 -0.336464 -1.2557
      vertex 3.2 -0.169683 -1.28888
    endloop
  endfacet
  facet normal 0 0.195089 0.980785
    outer loop
      vertex 3.2 -0.336464 -1.2557
      vertex 5.72205e-07 -0.169683 -1.28888
      vertex 5.72205e-07 -0.336464 -1.2557
    endloop
  endfacet
  facet normal 0 0.0654038 -0.997859
    outer loop
      vertex 5.72205e-07 -0.169683 1.28888
      vertex 3.2 0 1.3
      vertex 3.2 -0.169683 1.28888
    endloop
  endfacet
  facet normal 0 0.0654038 -0.997859
    outer loop
      vertex 3.2 0 1.3
      vertex 5.72205e-07 -0.169683 1.28888
      vertex 5.72205e-07 0 1.3
    endloop
  endfacet
endsolid OpenSCAD_Model
