solid OpenSCAD_Model
  facet normal -0 0.5 0.866025
    outer loop
      vertex 5.72205e-07 4 2.3094
      vertex 4.7 0 4.6188
      vertex 4.7 4 2.3094
    endloop
  endfacet
  facet normal 0 0.5 0.866025
    outer loop
      vertex 4.7 0 4.6188
      vertex 5.72205e-07 4 2.3094
      vertex 5.72205e-07 0 4.6188
    endloop
  endfacet
  facet normal 0 0.5 -0.866025
    outer loop
      vertex 5.72205e-07 0 -4.6188
      vertex 4.7 4 -2.3094
      vertex 4.7 0 -4.6188
    endloop
  endfacet
  facet normal 0 0.5 -0.866025
    outer loop
      vertex 4.7 4 -2.3094
      vertex 5.72205e-07 0 -4.6188
      vertex 5.72205e-07 4 -2.3094
    endloop
  endfacet
  facet normal 0 1 -0
    outer loop
      vertex 4.7 4 -2.3094
      vertex 5.72205e-07 4 2.3094
      vertex 4.7 4 2.3094
    endloop
  endfacet
  facet normal 0 1 0
    outer loop
      vertex 5.72205e-07 4 2.3094
      vertex 4.7 4 -2.3094
      vertex 5.72205e-07 4 -2.3094
    endloop
  endfacet
  facet normal 1 0 0
    outer loop
      vertex 4.7 4 2.3094
      vertex 4.7 1.7 -1.04361e-15
      vertex 4.7 4 -2.3094
    endloop
  endfacet
  facet normal 1 0 0
    outer loop
      vertex 4.7 4 2.3094
      vertex 4.7 1.68546 0.221894
      vertex 4.7 1.7 -1.04361e-15
    endloop
  endfacet
  facet normal 1 0 0
    outer loop
      vertex 4.7 4 2.3094
      vertex 4.7 1.64207 0.439992
      vertex 4.7 1.68546 0.221894
    endloop
  endfacet
  facet normal 1 0 0
    outer loop
      vertex 4.7 4 2.3094
      vertex 4.7 1.57059 0.650561
      vertex 4.7 1.64207 0.439992
    endloop
  endfacet
  facet normal 1 0 0
    outer loop
      vertex 4.7 4 2.3094
      vertex 4.7 1.47224 0.849999
      vertex 4.7 1.57059 0.650561
    endloop
  endfacet
  facet normal 1 0 0
    outer loop
      vertex 4.7 4 2.3094
      vertex 4.7 1.3487 1.03489
      vertex 4.7 1.47224 0.849999
    endloop
  endfacet
  facet normal 1 0 0
    outer loop
      vertex 4.7 4 2.3094
      vertex 4.7 1.20208 1.20208
      vertex 4.7 1.3487 1.03489
    endloop
  endfacet
  facet normal 1 0 0
    outer loop
      vertex 4.7 4 2.3094
      vertex 4.7 1.03489 1.3487
      vertex 4.7 1.20208 1.20208
    endloop
  endfacet
  facet normal 1 0 0
    outer loop
      vertex 4.7 4 2.3094
      vertex 4.7 0.849999 1.47224
      vertex 4.7 1.03489 1.3487
    endloop
  endfacet
  facet normal 1 0 0
    outer loop
      vertex 4.7 0 4.6188
      vertex 4.7 0.849999 1.47224
      vertex 4.7 4 2.3094
    endloop
  endfacet
  facet normal 1 0 0
    outer loop
      vertex 4.7 0.849999 1.47224
      vertex 4.7 0 4.6188
      vertex 4.7 0.650561 1.57059
    endloop
  endfacet
  facet normal 1 0 0
    outer loop
      vertex 4.7 0.650561 1.57059
      vertex 4.7 0 4.6188
      vertex 4.7 0.439992 1.64207
    endloop
  endfacet
  facet normal 1 0 0
    outer loop
      vertex 4.7 0.439992 1.64207
      vertex 4.7 0 4.6188
      vertex 4.7 0.221894 1.68546
    endloop
  endfacet
  facet normal 1 0 0
    outer loop
      vertex 4.7 0 4.6188
      vertex 4.7 0 1.7
      vertex 4.7 0.221894 1.68546
    endloop
  endfacet
  facet normal 1 0 0
    outer loop
      vertex 4.7 0 4.6188
      vertex 4.7 -0.221894 1.68546
      vertex 4.7 0 1.7
    endloop
  endfacet
  facet normal 1 0 0
    outer loop
      vertex 4.7 0 4.6188
      vertex 4.7 -0.439992 1.64207
      vertex 4.7 -0.221894 1.68546
    endloop
  endfacet
  facet normal 1 0 0
    outer loop
      vertex 4.7 0 4.6188
      vertex 4.7 -0.650561 1.57059
      vertex 4.7 -0.439992 1.64207
    endloop
  endfacet
  facet normal 1 0 0
    outer loop
      vertex 4.7 0 4.6188
      vertex 4.7 -0.849999 1.47224
      vertex 4.7 -0.650561 1.57059
    endloop
  endfacet
  facet normal 1 -0 0
    outer loop
      vertex 4.7 -4 2.3094
      vertex 4.7 -0.849999 1.47224
      vertex 4.7 0 4.6188
    endloop
  endfacet
  facet normal 1 0 0
    outer loop
      vertex 4.7 -0.849999 1.47224
      vertex 4.7 -4 2.3094
      vertex 4.7 -1.03489 1.3487
    endloop
  endfacet
  facet normal 1 0 0
    outer loop
      vertex 4.7 -1.03489 1.3487
      vertex 4.7 -4 2.3094
      vertex 4.7 -1.20208 1.20208
    endloop
  endfacet
  facet normal 1 0 0
    outer loop
      vertex 4.7 -1.20208 1.20208
      vertex 4.7 -4 2.3094
      vertex 4.7 -1.3487 1.03489
    endloop
  endfacet
  facet normal 1 0 0
    outer loop
      vertex 4.7 -1.3487 1.03489
      vertex 4.7 -4 2.3094
      vertex 4.7 -1.47224 0.849999
    endloop
  endfacet
  facet normal 1 0 0
    outer loop
      vertex 4.7 -4 2.3094
      vertex 4.7 -1.7 -1.04361e-15
      vertex 4.7 -1.68546 0.221894
    endloop
  endfacet
  facet normal 1 0 0
    outer loop
      vertex 4.7 -4 2.3094
      vertex 4.7 -1.68546 0.221894
      vertex 4.7 -1.64207 0.439992
    endloop
  endfacet
  facet normal 1 0 0
    outer loop
      vertex 4.7 -4 2.3094
      vertex 4.7 -1.64207 0.439992
      vertex 4.7 -1.57059 0.650561
    endloop
  endfacet
  facet normal 1 0 0
    outer loop
      vertex 4.7 -1.47224 0.849999
      vertex 4.7 -4 2.3094
      vertex 4.7 -1.57059 0.650561
    endloop
  endfacet
  facet normal 1 0 0
    outer loop
      vertex 4.7 -1.7 -1.04361e-15
      vertex 4.7 -4 2.3094
      vertex 4.7 -4 -2.3094
    endloop
  endfacet
  facet normal 1 -0 0
    outer loop
      vertex 4.7 1.68546 -0.221894
      vertex 4.7 4 -2.3094
      vertex 4.7 1.7 -1.04361e-15
    endloop
  endfacet
  facet normal 1 -0 0
    outer loop
      vertex 4.7 1.64207 -0.439992
      vertex 4.7 4 -2.3094
      vertex 4.7 1.68546 -0.221894
    endloop
  endfacet
  facet normal 1 -0 0
    outer loop
      vertex 4.7 1.57059 -0.650561
      vertex 4.7 4 -2.3094
      vertex 4.7 1.64207 -0.439992
    endloop
  endfacet
  facet normal 1 -0 0
    outer loop
      vertex 4.7 1.47224 -0.849999
      vertex 4.7 4 -2.3094
      vertex 4.7 1.57059 -0.650561
    endloop
  endfacet
  facet normal 1 -0 0
    outer loop
      vertex 4.7 1.3487 -1.03489
      vertex 4.7 4 -2.3094
      vertex 4.7 1.47224 -0.849999
    endloop
  endfacet
  facet normal 1 -0 0
    outer loop
      vertex 4.7 1.20208 -1.20208
      vertex 4.7 4 -2.3094
      vertex 4.7 1.3487 -1.03489
    endloop
  endfacet
  facet normal 1 -0 0
    outer loop
      vertex 4.7 1.03489 -1.3487
      vertex 4.7 4 -2.3094
      vertex 4.7 1.20208 -1.20208
    endloop
  endfacet
  facet normal 1 -0 0
    outer loop
      vertex 4.7 0.849999 -1.47224
      vertex 4.7 4 -2.3094
      vertex 4.7 1.03489 -1.3487
    endloop
  endfacet
  facet normal 1 0 0
    outer loop
      vertex 4.7 0 -4.6188
      vertex 4.7 0.849999 -1.47224
      vertex 4.7 0.650561 -1.57059
    endloop
  endfacet
  facet normal 1 0 0
    outer loop
      vertex 4.7 0 -4.6188
      vertex 4.7 0.650561 -1.57059
      vertex 4.7 0.439992 -1.64207
    endloop
  endfacet
  facet normal 1 0 0
    outer loop
      vertex 4.7 0 -4.6188
      vertex 4.7 0.439992 -1.64207
      vertex 4.7 0.221894 -1.68546
    endloop
  endfacet
  facet normal 1 0 0
    outer loop
      vertex 4.7 0 -4.6188
      vertex 4.7 0.221894 -1.68546
      vertex 4.7 0 -1.7
    endloop
  endfacet
  facet normal 1 0 0
    outer loop
      vertex 4.7 0.849999 -1.47224
      vertex 4.7 0 -4.6188
      vertex 4.7 4 -2.3094
    endloop
  endfacet
  facet normal 1 0 0
    outer loop
      vertex 4.7 -0.221894 -1.68546
      vertex 4.7 0 -4.6188
      vertex 4.7 0 -1.7
    endloop
  endfacet
  facet normal 1 0 0
    outer loop
      vertex 4.7 -0.439992 -1.64207
      vertex 4.7 0 -4.6188
      vertex 4.7 -0.221894 -1.68546
    endloop
  endfacet
  facet normal 1 0 0
    outer loop
      vertex 4.7 -0.650561 -1.57059
      vertex 4.7 0 -4.6188
      vertex 4.7 -0.439992 -1.64207
    endloop
  endfacet
  facet normal 1 0 0
    outer loop
      vertex 4.7 -0.849999 -1.47224
      vertex 4.7 0 -4.6188
      vertex 4.7 -0.650561 -1.57059
    endloop
  endfacet
  facet normal 1 0 0
    outer loop
      vertex 4.7 -4 -2.3094
      vertex 4.7 -0.849999 -1.47224
      vertex 4.7 -1.03489 -1.3487
    endloop
  endfacet
  facet normal 1 0 0
    outer loop
      vertex 4.7 -4 -2.3094
      vertex 4.7 -1.03489 -1.3487
      vertex 4.7 -1.20208 -1.20208
    endloop
  endfacet
  facet normal 1 0 0
    outer loop
      vertex 4.7 -4 -2.3094
      vertex 4.7 -1.20208 -1.20208
      vertex 4.7 -1.3487 -1.03489
    endloop
  endfacet
  facet normal 1 0 0
    outer loop
      vertex 4.7 -4 -2.3094
      vertex 4.7 -1.3487 -1.03489
      vertex 4.7 -1.47224 -0.849999
    endloop
  endfacet
  facet normal 1 0 0
    outer loop
      vertex 4.7 -4 -2.3094
      vertex 4.7 -1.47224 -0.849999
      vertex 4.7 -1.57059 -0.650561
    endloop
  endfacet
  facet normal 1 0 0
    outer loop
      vertex 4.7 -0.849999 -1.47224
      vertex 4.7 -4 -2.3094
      vertex 4.7 0 -4.6188
    endloop
  endfacet
  facet normal 1 0 0
    outer loop
      vertex 4.7 -1.64207 -0.439992
      vertex 4.7 -4 -2.3094
      vertex 4.7 -1.57059 -0.650561
    endloop
  endfacet
  facet normal 1 0 0
    outer loop
      vertex 4.7 -1.68546 -0.221894
      vertex 4.7 -4 -2.3094
      vertex 4.7 -1.64207 -0.439992
    endloop
  endfacet
  facet normal 1 0 0
    outer loop
      vertex 4.7 -4 -2.3094
      vertex 4.7 -1.68546 -0.221894
      vertex 4.7 -1.7 -1.04361e-15
    endloop
  endfacet
  facet normal -1 0 0
    outer loop
      vertex 5.72205e-07 4 -2.3094
      vertex 5.72205e-07 1.7 -1.27055e-22
      vertex 5.72205e-07 4 2.3094
    endloop
  endfacet
  facet normal -1 0 0
    outer loop
      vertex 5.72205e-07 4 -2.3094
      vertex 5.72205e-07 1.68546 -0.221894
      vertex 5.72205e-07 1.7 -1.27055e-22
    endloop
  endfacet
  facet normal -1 0 0
    outer loop
      vertex 5.72205e-07 4 -2.3094
      vertex 5.72205e-07 1.64207 -0.439992
      vertex 5.72205e-07 1.68546 -0.221894
    endloop
  endfacet
  facet normal -1 0 0
    outer loop
      vertex 5.72205e-07 4 -2.3094
      vertex 5.72205e-07 1.57059 -0.650561
      vertex 5.72205e-07 1.64207 -0.439992
    endloop
  endfacet
  facet normal -1 0 0
    outer loop
      vertex 5.72205e-07 4 -2.3094
      vertex 5.72205e-07 1.47224 -0.849999
      vertex 5.72205e-07 1.57059 -0.650561
    endloop
  endfacet
  facet normal -1 0 0
    outer loop
      vertex 5.72205e-07 4 -2.3094
      vertex 5.72205e-07 1.3487 -1.03489
      vertex 5.72205e-07 1.47224 -0.849999
    endloop
  endfacet
  facet normal -1 0 0
    outer loop
      vertex 5.72205e-07 4 -2.3094
      vertex 5.72205e-07 1.20208 -1.20208
      vertex 5.72205e-07 1.3487 -1.03489
    endloop
  endfacet
  facet normal -1 0 0
    outer loop
      vertex 5.72205e-07 4 -2.3094
      vertex 5.72205e-07 1.03489 -1.3487
      vertex 5.72205e-07 1.20208 -1.20208
    endloop
  endfacet
  facet normal -1 0 0
    outer loop
      vertex 5.72205e-07 4 -2.3094
      vertex 5.72205e-07 0.849999 -1.47224
      vertex 5.72205e-07 1.03489 -1.3487
    endloop
  endfacet
  facet normal -1 0 0
    outer loop
      vertex 5.72205e-07 0 -4.6188
      vertex 5.72205e-07 0.849999 -1.47224
      vertex 5.72205e-07 4 -2.3094
    endloop
  endfacet
  facet normal -1 0 0
    outer loop
      vertex 5.72205e-07 0.849999 -1.47224
      vertex 5.72205e-07 0 -4.6188
      vertex 5.72205e-07 0.650561 -1.57059
    endloop
  endfacet
  facet normal -1 0 0
    outer loop
      vertex 5.72205e-07 0.650561 -1.57059
      vertex 5.72205e-07 0 -4.6188
      vertex 5.72205e-07 0.439992 -1.64207
    endloop
  endfacet
  facet normal -1 0 0
    outer loop
      vertex 5.72205e-07 0.439992 -1.64207
      vertex 5.72205e-07 0 -4.6188
      vertex 5.72205e-07 0.221894 -1.68546
    endloop
  endfacet
  facet normal -1 0 0
    outer loop
      vertex 5.72205e-07 0 -4.6188
      vertex 5.72205e-07 0 -1.7
      vertex 5.72205e-07 0.221894 -1.68546
    endloop
  endfacet
  facet normal -1 0 0
    outer loop
      vertex 5.72205e-07 0 -4.6188
      vertex 5.72205e-07 -0.221894 -1.68546
      vertex 5.72205e-07 0 -1.7
    endloop
  endfacet
  facet normal -1 0 0
    outer loop
      vertex 5.72205e-07 0 -4.6188
      vertex 5.72205e-07 -0.439992 -1.64207
      vertex 5.72205e-07 -0.221894 -1.68546
    endloop
  endfacet
  facet normal -1 0 0
    outer loop
      vertex 5.72205e-07 0 -4.6188
      vertex 5.72205e-07 -0.650561 -1.57059
      vertex 5.72205e-07 -0.439992 -1.64207
    endloop
  endfacet
  facet normal -1 0 0
    outer loop
      vertex 5.72205e-07 0 -4.6188
      vertex 5.72205e-07 -0.849999 -1.47224
      vertex 5.72205e-07 -0.650561 -1.57059
    endloop
  endfacet
  facet normal -1 0 0
    outer loop
      vertex 5.72205e-07 -4 -2.3094
      vertex 5.72205e-07 -0.849999 -1.47224
      vertex 5.72205e-07 0 -4.6188
    endloop
  endfacet
  facet normal -1 -0 0
    outer loop
      vertex 5.72205e-07 -0.849999 -1.47224
      vertex 5.72205e-07 -4 -2.3094
      vertex 5.72205e-07 -1.03489 -1.3487
    endloop
  endfacet
  facet normal -1 -0 0
    outer loop
      vertex 5.72205e-07 -1.03489 -1.3487
      vertex 5.72205e-07 -4 -2.3094
      vertex 5.72205e-07 -1.20208 -1.20208
    endloop
  endfacet
  facet normal -1 -0 0
    outer loop
      vertex 5.72205e-07 -1.20208 -1.20208
      vertex 5.72205e-07 -4 -2.3094
      vertex 5.72205e-07 -1.3487 -1.03489
    endloop
  endfacet
  facet normal -1 -0 0
    outer loop
      vertex 5.72205e-07 -1.3487 -1.03489
      vertex 5.72205e-07 -4 -2.3094
      vertex 5.72205e-07 -1.47224 -0.849999
    endloop
  endfacet
  facet normal -1 -0 0
    outer loop
      vertex 5.72205e-07 -1.68546 -0.221894
      vertex 5.72205e-07 -4 -2.3094
      vertex 5.72205e-07 -1.7 -1.27055e-22
    endloop
  endfacet
  facet normal -1 -0 0
    outer loop
      vertex 5.72205e-07 -1.64207 -0.439992
      vertex 5.72205e-07 -4 -2.3094
      vertex 5.72205e-07 -1.68546 -0.221894
    endloop
  endfacet
  facet normal -1 -0 0
    outer loop
      vertex 5.72205e-07 -1.57059 -0.650561
      vertex 5.72205e-07 -4 -2.3094
      vertex 5.72205e-07 -1.64207 -0.439992
    endloop
  endfacet
  facet normal -1 -0 0
    outer loop
      vertex 5.72205e-07 -1.47224 -0.849999
      vertex 5.72205e-07 -4 -2.3094
      vertex 5.72205e-07 -1.57059 -0.650561
    endloop
  endfacet
  facet normal -1 0 0
    outer loop
      vertex 5.72205e-07 1.68546 0.221894
      vertex 5.72205e-07 4 2.3094
      vertex 5.72205e-07 1.7 -1.27055e-22
    endloop
  endfacet
  facet normal -1 0 0
    outer loop
      vertex 5.72205e-07 1.64207 0.439992
      vertex 5.72205e-07 4 2.3094
      vertex 5.72205e-07 1.68546 0.221894
    endloop
  endfacet
  facet normal -1 0 0
    outer loop
      vertex 5.72205e-07 1.57059 0.650561
      vertex 5.72205e-07 4 2.3094
      vertex 5.72205e-07 1.64207 0.439992
    endloop
  endfacet
  facet normal -1 0 0
    outer loop
      vertex 5.72205e-07 1.47224 0.849999
      vertex 5.72205e-07 4 2.3094
      vertex 5.72205e-07 1.57059 0.650561
    endloop
  endfacet
  facet normal -1 0 0
    outer loop
      vertex 5.72205e-07 1.3487 1.03489
      vertex 5.72205e-07 4 2.3094
      vertex 5.72205e-07 1.47224 0.849999
    endloop
  endfacet
  facet normal -1 0 0
    outer loop
      vertex 5.72205e-07 1.20208 1.20208
      vertex 5.72205e-07 4 2.3094
      vertex 5.72205e-07 1.3487 1.03489
    endloop
  endfacet
  facet normal -1 0 0
    outer loop
      vertex 5.72205e-07 1.03489 1.3487
      vertex 5.72205e-07 4 2.3094
      vertex 5.72205e-07 1.20208 1.20208
    endloop
  endfacet
  facet normal -1 0 0
    outer loop
      vertex 5.72205e-07 0.849999 1.47224
      vertex 5.72205e-07 4 2.3094
      vertex 5.72205e-07 1.03489 1.3487
    endloop
  endfacet
  facet normal -1 0 0
    outer loop
      vertex 5.72205e-07 0 4.6188
      vertex 5.72205e-07 0.849999 1.47224
      vertex 5.72205e-07 0.650561 1.57059
    endloop
  endfacet
  facet normal -1 0 0
    outer loop
      vertex 5.72205e-07 0 4.6188
      vertex 5.72205e-07 0.650561 1.57059
      vertex 5.72205e-07 0.439992 1.64207
    endloop
  endfacet
  facet normal -1 0 0
    outer loop
      vertex 5.72205e-07 0 4.6188
      vertex 5.72205e-07 0.439992 1.64207
      vertex 5.72205e-07 0.221894 1.68546
    endloop
  endfacet
  facet normal -1 0 0
    outer loop
      vertex 5.72205e-07 0 4.6188
      vertex 5.72205e-07 0.221894 1.68546
      vertex 5.72205e-07 0 1.7
    endloop
  endfacet
  facet normal -1 0 0
    outer loop
      vertex 5.72205e-07 0.849999 1.47224
      vertex 5.72205e-07 0 4.6188
      vertex 5.72205e-07 4 2.3094
    endloop
  endfacet
  facet normal -1 0 0
    outer loop
      vertex 5.72205e-07 -0.221894 1.68546
      vertex 5.72205e-07 0 4.6188
      vertex 5.72205e-07 0 1.7
    endloop
  endfacet
  facet normal -1 0 0
    outer loop
      vertex 5.72205e-07 -0.439992 1.64207
      vertex 5.72205e-07 0 4.6188
      vertex 5.72205e-07 -0.221894 1.68546
    endloop
  endfacet
  facet normal -1 0 0
    outer loop
      vertex 5.72205e-07 -0.650561 1.57059
      vertex 5.72205e-07 0 4.6188
      vertex 5.72205e-07 -0.439992 1.64207
    endloop
  endfacet
  facet normal -1 0 0
    outer loop
      vertex 5.72205e-07 -0.849999 1.47224
      vertex 5.72205e-07 0 4.6188
      vertex 5.72205e-07 -0.650561 1.57059
    endloop
  endfacet
  facet normal -1 0 0
    outer loop
      vertex 5.72205e-07 -4 2.3094
      vertex 5.72205e-07 -0.849999 1.47224
      vertex 5.72205e-07 -1.03489 1.3487
    endloop
  endfacet
  facet normal -1 0 0
    outer loop
      vertex 5.72205e-07 -4 2.3094
      vertex 5.72205e-07 -1.03489 1.3487
      vertex 5.72205e-07 -1.20208 1.20208
    endloop
  endfacet
  facet normal -1 0 0
    outer loop
      vertex 5.72205e-07 -4 2.3094
      vertex 5.72205e-07 -1.20208 1.20208
      vertex 5.72205e-07 -1.3487 1.03489
    endloop
  endfacet
  facet normal -1 0 0
    outer loop
      vertex 5.72205e-07 -4 2.3094
      vertex 5.72205e-07 -1.3487 1.03489
      vertex 5.72205e-07 -1.47224 0.849999
    endloop
  endfacet
  facet normal -1 0 0
    outer loop
      vertex 5.72205e-07 -4 2.3094
      vertex 5.72205e-07 -1.47224 0.849999
      vertex 5.72205e-07 -1.57059 0.650561
    endloop
  endfacet
  facet normal -1 0 0
    outer loop
      vertex 5.72205e-07 -4 2.3094
      vertex 5.72205e-07 -1.7 -1.27055e-22
      vertex 5.72205e-07 -4 -2.3094
    endloop
  endfacet
  facet normal -1 0 0
    outer loop
      vertex 5.72205e-07 -1.7 -1.27055e-22
      vertex 5.72205e-07 -4 2.3094
      vertex 5.72205e-07 -1.68546 0.221894
    endloop
  endfacet
  facet normal -1 0 0
    outer loop
      vertex 5.72205e-07 -1.68546 0.221894
      vertex 5.72205e-07 -4 2.3094
      vertex 5.72205e-07 -1.64207 0.439992
    endloop
  endfacet
  facet normal -1 0 0
    outer loop
      vertex 5.72205e-07 -1.64207 0.439992
      vertex 5.72205e-07 -4 2.3094
      vertex 5.72205e-07 -1.57059 0.650561
    endloop
  endfacet
  facet normal -1 0 0
    outer loop
      vertex 5.72205e-07 -0.849999 1.47224
      vertex 5.72205e-07 -4 2.3094
      vertex 5.72205e-07 0 4.6188
    endloop
  endfacet
  facet normal 0 -0.5 0.866025
    outer loop
      vertex 5.72205e-07 0 4.6188
      vertex 4.7 -4 2.3094
      vertex 4.7 0 4.6188
    endloop
  endfacet
  facet normal 0 -0.5 0.866025
    outer loop
      vertex 4.7 -4 2.3094
      vertex 5.72205e-07 0 4.6188
      vertex 5.72205e-07 -4 2.3094
    endloop
  endfacet
  facet normal 0 -0.5 -0.866025
    outer loop
      vertex 5.72205e-07 -4 -2.3094
      vertex 4.7 0 -4.6188
      vertex 4.7 -4 -2.3094
    endloop
  endfacet
  facet normal -0 -0.5 -0.866025
    outer loop
      vertex 4.7 0 -4.6188
      vertex 5.72205e-07 -4 -2.3094
      vertex 5.72205e-07 0 -4.6188
    endloop
  endfacet
  facet normal 0 -1 -2.06477e-07
    outer loop
      vertex 5.72205e-07 -4 -2.3094
      vertex 4.7 -4 2.3094
      vertex 5.72205e-07 -4 2.3094
    endloop
  endfacet
  facet normal 0 -1 -2.06477e-07
    outer loop
      vertex 4.7 -4 2.3094
      vertex 5.72205e-07 -4 -2.3094
      vertex 4.7 -4 -2.3094
    endloop
  endfacet
  facet normal 0 -0.0654066 -0.997859
    outer loop
      vertex 5.72205e-07 0 1.7
      vertex 4.7 0.221894 1.68546
      vertex 4.7 0 1.7
    endloop
  endfacet
  facet normal -0 -0.0654066 -0.997859
    outer loop
      vertex 4.7 0.221894 1.68546
      vertex 5.72205e-07 0 1.7
      vertex 5.72205e-07 0.221894 1.68546
    endloop
  endfacet
  facet normal 0 -0.0654066 0.997859
    outer loop
      vertex 5.72205e-07 0.221894 -1.68546
      vertex 4.7 0 -1.7
      vertex 4.7 0.221894 -1.68546
    endloop
  endfacet
  facet normal 0 -0.0654066 0.997859
    outer loop
      vertex 4.7 0 -1.7
      vertex 5.72205e-07 0.221894 -1.68546
      vertex 5.72205e-07 0 -1.7
    endloop
  endfacet
  facet normal 0 -0.997859 -0.0654066
    outer loop
      vertex 5.72205e-07 1.7 -1.27055e-22
      vertex 4.7 1.68546 0.221894
      vertex 5.72205e-07 1.68546 0.221894
    endloop
  endfacet
  facet normal -1.45232e-17 -0.997859 -0.0654066
    outer loop
      vertex 4.7 1.68546 0.221894
      vertex 5.72205e-07 1.7 -1.27055e-22
      vertex 4.7 1.7 -1.04361e-15
    endloop
  endfacet
  facet normal 1.45232e-17 0.997859 0.0654066
    outer loop
      vertex 4.7 -1.68546 -0.221894
      vertex 5.72205e-07 -1.7 -1.27055e-22
      vertex 4.7 -1.7 -1.04361e-15
    endloop
  endfacet
  facet normal 0 0.997859 0.0654066
    outer loop
      vertex 5.72205e-07 -1.7 -1.27055e-22
      vertex 4.7 -1.68546 -0.221894
      vertex 5.72205e-07 -1.68546 -0.221894
    endloop
  endfacet
  facet normal -0 0.659348 0.751838
    outer loop
      vertex 5.72205e-07 -1.03489 -1.3487
      vertex 4.7 -1.20208 -1.20208
      vertex 4.7 -1.03489 -1.3487
    endloop
  endfacet
  facet normal 0 0.659348 0.751838
    outer loop
      vertex 4.7 -1.20208 -1.20208
      vertex 5.72205e-07 -1.03489 -1.3487
      vertex 5.72205e-07 -1.20208 -1.20208
    endloop
  endfacet
  facet normal 0 -0.751838 -0.659348
    outer loop
      vertex 5.72205e-07 1.3487 1.03489
      vertex 4.7 1.20208 1.20208
      vertex 5.72205e-07 1.20208 1.20208
    endloop
  endfacet
  facet normal 0 -0.751838 -0.659348
    outer loop
      vertex 4.7 1.20208 1.20208
      vertex 5.72205e-07 1.3487 1.03489
      vertex 4.7 1.3487 1.03489
    endloop
  endfacet
  facet normal 0 -0.751838 0.659348
    outer loop
      vertex 5.72205e-07 1.20208 -1.20208
      vertex 4.7 1.3487 -1.03489
      vertex 5.72205e-07 1.3487 -1.03489
    endloop
  endfacet
  facet normal 0 -0.751838 0.659348
    outer loop
      vertex 4.7 1.3487 -1.03489
      vertex 5.72205e-07 1.20208 -1.20208
      vertex 4.7 1.20208 -1.20208
    endloop
  endfacet
  facet normal 0 -0.94693 0.32144
    outer loop
      vertex 5.72205e-07 1.57059 -0.650561
      vertex 4.7 1.64207 -0.439992
      vertex 5.72205e-07 1.64207 -0.439992
    endloop
  endfacet
  facet normal 0 -0.94693 0.32144
    outer loop
      vertex 4.7 1.64207 -0.439992
      vertex 5.72205e-07 1.57059 -0.650561
      vertex 4.7 1.57059 -0.650561
    endloop
  endfacet
  facet normal 0 -0.44229 -0.896872
    outer loop
      vertex 5.72205e-07 0.650561 1.57059
      vertex 4.7 0.849999 1.47224
      vertex 4.7 0.650561 1.57059
    endloop
  endfacet
  facet normal -0 -0.44229 -0.896872
    outer loop
      vertex 4.7 0.849999 1.47224
      vertex 5.72205e-07 0.650561 1.57059
      vertex 5.72205e-07 0.849999 1.47224
    endloop
  endfacet
  facet normal 0 -0.195088 -0.980786
    outer loop
      vertex 5.72205e-07 0.221894 1.68546
      vertex 4.7 0.439992 1.64207
      vertex 4.7 0.221894 1.68546
    endloop
  endfacet
  facet normal -0 -0.195088 -0.980786
    outer loop
      vertex 4.7 0.439992 1.64207
      vertex 5.72205e-07 0.221894 1.68546
      vertex 5.72205e-07 0.439992 1.64207
    endloop
  endfacet
  facet normal 0 -0.555568 -0.831471
    outer loop
      vertex 5.72205e-07 0.849999 1.47224
      vertex 4.7 1.03489 1.3487
      vertex 4.7 0.849999 1.47224
    endloop
  endfacet
  facet normal -0 -0.555568 -0.831471
    outer loop
      vertex 4.7 1.03489 1.3487
      vertex 5.72205e-07 0.849999 1.47224
      vertex 5.72205e-07 1.03489 1.3487
    endloop
  endfacet
  facet normal 0 -0.94693 -0.32144
    outer loop
      vertex 5.72205e-07 1.64207 0.439992
      vertex 4.7 1.57059 0.650561
      vertex 5.72205e-07 1.57059 0.650561
    endloop
  endfacet
  facet normal 0 -0.94693 -0.32144
    outer loop
      vertex 4.7 1.57059 0.650561
      vertex 5.72205e-07 1.64207 0.439992
      vertex 4.7 1.64207 0.439992
    endloop
  endfacet
  facet normal 0 -0.980786 -0.195088
    outer loop
      vertex 5.72205e-07 1.68546 0.221894
      vertex 4.7 1.64207 0.439992
      vertex 5.72205e-07 1.64207 0.439992
    endloop
  endfacet
  facet normal 0 -0.980786 -0.195088
    outer loop
      vertex 4.7 1.64207 0.439992
      vertex 5.72205e-07 1.68546 0.221894
      vertex 4.7 1.68546 0.221894
    endloop
  endfacet
  facet normal 0 -0.896872 -0.44229
    outer loop
      vertex 5.72205e-07 1.57059 0.650561
      vertex 4.7 1.47224 0.849999
      vertex 5.72205e-07 1.47224 0.849999
    endloop
  endfacet
  facet normal 0 -0.896872 -0.44229
    outer loop
      vertex 4.7 1.47224 0.849999
      vertex 5.72205e-07 1.57059 0.650561
      vertex 4.7 1.57059 0.650561
    endloop
  endfacet
  facet normal 0 -0.44229 0.896872
    outer loop
      vertex 5.72205e-07 0.849999 -1.47224
      vertex 4.7 0.650561 -1.57059
      vertex 4.7 0.849999 -1.47224
    endloop
  endfacet
  facet normal 0 -0.44229 0.896872
    outer loop
      vertex 4.7 0.650561 -1.57059
      vertex 5.72205e-07 0.849999 -1.47224
      vertex 5.72205e-07 0.650561 -1.57059
    endloop
  endfacet
  facet normal 0 -0.659348 0.751838
    outer loop
      vertex 5.72205e-07 1.20208 -1.20208
      vertex 4.7 1.03489 -1.3487
      vertex 4.7 1.20208 -1.20208
    endloop
  endfacet
  facet normal 0 -0.659348 0.751838
    outer loop
      vertex 4.7 1.03489 -1.3487
      vertex 5.72205e-07 1.20208 -1.20208
      vertex 5.72205e-07 1.03489 -1.3487
    endloop
  endfacet
  facet normal 0 -0.32144 0.94693
    outer loop
      vertex 5.72205e-07 0.650561 -1.57059
      vertex 4.7 0.439992 -1.64207
      vertex 4.7 0.650561 -1.57059
    endloop
  endfacet
  facet normal 0 -0.32144 0.94693
    outer loop
      vertex 4.7 0.439992 -1.64207
      vertex 5.72205e-07 0.650561 -1.57059
      vertex 5.72205e-07 0.439992 -1.64207
    endloop
  endfacet
  facet normal 0 -0.980786 0.195088
    outer loop
      vertex 5.72205e-07 1.64207 -0.439992
      vertex 4.7 1.68546 -0.221894
      vertex 5.72205e-07 1.68546 -0.221894
    endloop
  endfacet
  facet normal 0 -0.980786 0.195088
    outer loop
      vertex 4.7 1.68546 -0.221894
      vertex 5.72205e-07 1.64207 -0.439992
      vertex 4.7 1.64207 -0.439992
    endloop
  endfacet
  facet normal 0 0.195088 -0.980786
    outer loop
      vertex 5.72205e-07 -0.439992 1.64207
      vertex 4.7 -0.221894 1.68546
      vertex 4.7 -0.439992 1.64207
    endloop
  endfacet
  facet normal 0 0.195088 -0.980786
    outer loop
      vertex 4.7 -0.221894 1.68546
      vertex 5.72205e-07 -0.439992 1.64207
      vertex 5.72205e-07 -0.221894 1.68546
    endloop
  endfacet
  facet normal 0 0.751838 0.659348
    outer loop
      vertex 4.7 -1.20208 -1.20208
      vertex 5.72205e-07 -1.3487 -1.03489
      vertex 4.7 -1.3487 -1.03489
    endloop
  endfacet
  facet normal 0 0.751838 0.659348
    outer loop
      vertex 5.72205e-07 -1.3487 -1.03489
      vertex 4.7 -1.20208 -1.20208
      vertex 5.72205e-07 -1.20208 -1.20208
    endloop
  endfacet
  facet normal 0 0.94693 0.32144
    outer loop
      vertex 4.7 -1.57059 -0.650561
      vertex 5.72205e-07 -1.64207 -0.439992
      vertex 4.7 -1.64207 -0.439992
    endloop
  endfacet
  facet normal 0 0.94693 0.32144
    outer loop
      vertex 5.72205e-07 -1.64207 -0.439992
      vertex 4.7 -1.57059 -0.650561
      vertex 5.72205e-07 -1.57059 -0.650561
    endloop
  endfacet
  facet normal 0 -0.32144 -0.94693
    outer loop
      vertex 5.72205e-07 0.439992 1.64207
      vertex 4.7 0.650561 1.57059
      vertex 4.7 0.439992 1.64207
    endloop
  endfacet
  facet normal -0 -0.32144 -0.94693
    outer loop
      vertex 4.7 0.650561 1.57059
      vertex 5.72205e-07 0.439992 1.64207
      vertex 5.72205e-07 0.650561 1.57059
    endloop
  endfacet
  facet normal 0 -0.659348 -0.751838
    outer loop
      vertex 5.72205e-07 1.03489 1.3487
      vertex 4.7 1.20208 1.20208
      vertex 4.7 1.03489 1.3487
    endloop
  endfacet
  facet normal -0 -0.659348 -0.751838
    outer loop
      vertex 4.7 1.20208 1.20208
      vertex 5.72205e-07 1.03489 1.3487
      vertex 5.72205e-07 1.20208 1.20208
    endloop
  endfacet
  facet normal 0 -0.831471 -0.555568
    outer loop
      vertex 5.72205e-07 1.47224 0.849999
      vertex 4.7 1.3487 1.03489
      vertex 5.72205e-07 1.3487 1.03489
    endloop
  endfacet
  facet normal 0 -0.831471 -0.555568
    outer loop
      vertex 4.7 1.3487 1.03489
      vertex 5.72205e-07 1.47224 0.849999
      vertex 4.7 1.47224 0.849999
    endloop
  endfacet
  facet normal 0 -0.555568 0.831471
    outer loop
      vertex 5.72205e-07 1.03489 -1.3487
      vertex 4.7 0.849999 -1.47224
      vertex 4.7 1.03489 -1.3487
    endloop
  endfacet
  facet normal 0 -0.555568 0.831471
    outer loop
      vertex 4.7 0.849999 -1.47224
      vertex 5.72205e-07 1.03489 -1.3487
      vertex 5.72205e-07 0.849999 -1.47224
    endloop
  endfacet
  facet normal 0 -0.195088 0.980786
    outer loop
      vertex 5.72205e-07 0.439992 -1.64207
      vertex 4.7 0.221894 -1.68546
      vertex 4.7 0.439992 -1.64207
    endloop
  endfacet
  facet normal 0 -0.195088 0.980786
    outer loop
      vertex 4.7 0.221894 -1.68546
      vertex 5.72205e-07 0.439992 -1.64207
      vertex 5.72205e-07 0.221894 -1.68546
    endloop
  endfacet
  facet normal 0 -0.896872 0.44229
    outer loop
      vertex 5.72205e-07 1.47224 -0.849999
      vertex 4.7 1.57059 -0.650561
      vertex 5.72205e-07 1.57059 -0.650561
    endloop
  endfacet
  facet normal 0 -0.896872 0.44229
    outer loop
      vertex 4.7 1.57059 -0.650561
      vertex 5.72205e-07 1.47224 -0.849999
      vertex 4.7 1.47224 -0.849999
    endloop
  endfacet
  facet normal 0 -0.831471 0.555568
    outer loop
      vertex 5.72205e-07 1.3487 -1.03489
      vertex 4.7 1.47224 -0.849999
      vertex 5.72205e-07 1.47224 -0.849999
    endloop
  endfacet
  facet normal 0 -0.831471 0.555568
    outer loop
      vertex 4.7 1.47224 -0.849999
      vertex 5.72205e-07 1.3487 -1.03489
      vertex 4.7 1.3487 -1.03489
    endloop
  endfacet
  facet normal 1.45232e-17 -0.997859 0.0654066
    outer loop
      vertex 5.72205e-07 1.68546 -0.221894
      vertex 4.7 1.7 -1.04361e-15
      vertex 5.72205e-07 1.7 -1.27055e-22
    endloop
  endfacet
  facet normal 0 -0.997859 0.0654066
    outer loop
      vertex 4.7 1.7 -1.04361e-15
      vertex 5.72205e-07 1.68546 -0.221894
      vertex 4.7 1.68546 -0.221894
    endloop
  endfacet
  facet normal 0 0.997859 -0.0654066
    outer loop
      vertex 4.7 -1.68546 0.221894
      vertex 5.72205e-07 -1.7 -1.27055e-22
      vertex 5.72205e-07 -1.68546 0.221894
    endloop
  endfacet
  facet normal -1.45232e-17 0.997859 -0.0654066
    outer loop
      vertex 5.72205e-07 -1.7 -1.27055e-22
      vertex 4.7 -1.68546 0.221894
      vertex 4.7 -1.7 -1.04361e-15
    endloop
  endfacet
  facet normal 0 0.94693 -0.32144
    outer loop
      vertex 4.7 -1.64207 0.439992
      vertex 5.72205e-07 -1.57059 0.650561
      vertex 4.7 -1.57059 0.650561
    endloop
  endfacet
  facet normal 0 0.94693 -0.32144
    outer loop
      vertex 5.72205e-07 -1.57059 0.650561
      vertex 4.7 -1.64207 0.439992
      vertex 5.72205e-07 -1.64207 0.439992
    endloop
  endfacet
  facet normal 0 0.751838 -0.659348
    outer loop
      vertex 4.7 -1.3487 1.03489
      vertex 5.72205e-07 -1.20208 1.20208
      vertex 4.7 -1.20208 1.20208
    endloop
  endfacet
  facet normal 0 0.751838 -0.659348
    outer loop
      vertex 5.72205e-07 -1.20208 1.20208
      vertex 4.7 -1.3487 1.03489
      vertex 5.72205e-07 -1.3487 1.03489
    endloop
  endfacet
  facet normal 0 0.896872 -0.44229
    outer loop
      vertex 4.7 -1.57059 0.650561
      vertex 5.72205e-07 -1.47224 0.849999
      vertex 4.7 -1.47224 0.849999
    endloop
  endfacet
  facet normal 0 0.896872 -0.44229
    outer loop
      vertex 5.72205e-07 -1.47224 0.849999
      vertex 4.7 -1.57059 0.650561
      vertex 5.72205e-07 -1.57059 0.650561
    endloop
  endfacet
  facet normal 0 0.555568 -0.831471
    outer loop
      vertex 5.72205e-07 -1.03489 1.3487
      vertex 4.7 -0.849999 1.47224
      vertex 4.7 -1.03489 1.3487
    endloop
  endfacet
  facet normal 0 0.555568 -0.831471
    outer loop
      vertex 4.7 -0.849999 1.47224
      vertex 5.72205e-07 -1.03489 1.3487
      vertex 5.72205e-07 -0.849999 1.47224
    endloop
  endfacet
  facet normal 0 0.32144 -0.94693
    outer loop
      vertex 5.72205e-07 -0.650561 1.57059
      vertex 4.7 -0.439992 1.64207
      vertex 4.7 -0.650561 1.57059
    endloop
  endfacet
  facet normal 0 0.32144 -0.94693
    outer loop
      vertex 4.7 -0.439992 1.64207
      vertex 5.72205e-07 -0.650561 1.57059
      vertex 5.72205e-07 -0.439992 1.64207
    endloop
  endfacet
  facet normal 0 0.831471 0.555568
    outer loop
      vertex 4.7 -1.3487 -1.03489
      vertex 5.72205e-07 -1.47224 -0.849999
      vertex 4.7 -1.47224 -0.849999
    endloop
  endfacet
  facet normal 0 0.831471 0.555568
    outer loop
      vertex 5.72205e-07 -1.47224 -0.849999
      vertex 4.7 -1.3487 -1.03489
      vertex 5.72205e-07 -1.3487 -1.03489
    endloop
  endfacet
  facet normal 0 0.980786 0.195088
    outer loop
      vertex 4.7 -1.64207 -0.439992
      vertex 5.72205e-07 -1.68546 -0.221894
      vertex 4.7 -1.68546 -0.221894
    endloop
  endfacet
  facet normal 0 0.980786 0.195088
    outer loop
      vertex 5.72205e-07 -1.68546 -0.221894
      vertex 4.7 -1.64207 -0.439992
      vertex 5.72205e-07 -1.64207 -0.439992
    endloop
  endfacet
  facet normal -0 0.44229 0.896872
    outer loop
      vertex 5.72205e-07 -0.650561 -1.57059
      vertex 4.7 -0.849999 -1.47224
      vertex 4.7 -0.650561 -1.57059
    endloop
  endfacet
  facet normal 0 0.44229 0.896872
    outer loop
      vertex 4.7 -0.849999 -1.47224
      vertex 5.72205e-07 -0.650561 -1.57059
      vertex 5.72205e-07 -0.849999 -1.47224
    endloop
  endfacet
  facet normal -0 0.32144 0.94693
    outer loop
      vertex 5.72205e-07 -0.439992 -1.64207
      vertex 4.7 -0.650561 -1.57059
      vertex 4.7 -0.439992 -1.64207
    endloop
  endfacet
  facet normal 0 0.32144 0.94693
    outer loop
      vertex 4.7 -0.650561 -1.57059
      vertex 5.72205e-07 -0.439992 -1.64207
      vertex 5.72205e-07 -0.650561 -1.57059
    endloop
  endfacet
  facet normal -0 0.0654066 0.997859
    outer loop
      vertex 5.72205e-07 0 -1.7
      vertex 4.7 -0.221894 -1.68546
      vertex 4.7 0 -1.7
    endloop
  endfacet
  facet normal 0 0.0654066 0.997859
    outer loop
      vertex 4.7 -0.221894 -1.68546
      vertex 5.72205e-07 0 -1.7
      vertex 5.72205e-07 -0.221894 -1.68546
    endloop
  endfacet
  facet normal 0 0.0654066 -0.997859
    outer loop
      vertex 5.72205e-07 -0.221894 1.68546
      vertex 4.7 0 1.7
      vertex 4.7 -0.221894 1.68546
    endloop
  endfacet
  facet normal 0 0.0654066 -0.997859
    outer loop
      vertex 4.7 0 1.7
      vertex 5.72205e-07 -0.221894 1.68546
      vertex 5.72205e-07 0 1.7
    endloop
  endfacet
  facet normal 0 0.980786 -0.195088
    outer loop
      vertex 4.7 -1.68546 0.221894
      vertex 5.72205e-07 -1.64207 0.439992
      vertex 4.7 -1.64207 0.439992
    endloop
  endfacet
  facet normal 0 0.980786 -0.195088
    outer loop
      vertex 5.72205e-07 -1.64207 0.439992
      vertex 4.7 -1.68546 0.221894
      vertex 5.72205e-07 -1.68546 0.221894
    endloop
  endfacet
  facet normal 0 0.659348 -0.751838
    outer loop
      vertex 5.72205e-07 -1.20208 1.20208
      vertex 4.7 -1.03489 1.3487
      vertex 4.7 -1.20208 1.20208
    endloop
  endfacet
  facet normal 0 0.659348 -0.751838
    outer loop
      vertex 4.7 -1.03489 1.3487
      vertex 5.72205e-07 -1.20208 1.20208
      vertex 5.72205e-07 -1.03489 1.3487
    endloop
  endfacet
  facet normal 0 0.831471 -0.555568
    outer loop
      vertex 4.7 -1.47224 0.849999
      vertex 5.72205e-07 -1.3487 1.03489
      vertex 4.7 -1.3487 1.03489
    endloop
  endfacet
  facet normal 0 0.831471 -0.555568
    outer loop
      vertex 5.72205e-07 -1.3487 1.03489
      vertex 4.7 -1.47224 0.849999
      vertex 5.72205e-07 -1.47224 0.849999
    endloop
  endfacet
  facet normal 0 0.44229 -0.896872
    outer loop
      vertex 5.72205e-07 -0.849999 1.47224
      vertex 4.7 -0.650561 1.57059
      vertex 4.7 -0.849999 1.47224
    endloop
  endfacet
  facet normal 0 0.44229 -0.896872
    outer loop
      vertex 4.7 -0.650561 1.57059
      vertex 5.72205e-07 -0.849999 1.47224
      vertex 5.72205e-07 -0.650561 1.57059
    endloop
  endfacet
  facet normal 0 0.896872 0.44229
    outer loop
      vertex 4.7 -1.47224 -0.849999
      vertex 5.72205e-07 -1.57059 -0.650561
      vertex 4.7 -1.57059 -0.650561
    endloop
  endfacet
  facet normal 0 0.896872 0.44229
    outer loop
      vertex 5.72205e-07 -1.57059 -0.650561
      vertex 4.7 -1.47224 -0.849999
      vertex 5.72205e-07 -1.47224 -0.849999
    endloop
  endfacet
  facet normal -0 0.555568 0.831471
    outer loop
      vertex 5.72205e-07 -0.849999 -1.47224
      vertex 4.7 -1.03489 -1.3487
      vertex 4.7 -0.849999 -1.47224
    endloop
  endfacet
  facet normal 0 0.555568 0.831471
    outer loop
      vertex 4.7 -1.03489 -1.3487
      vertex 5.72205e-07 -0.849999 -1.47224
      vertex 5.72205e-07 -1.03489 -1.3487
    endloop
  endfacet
  facet normal -0 0.195088 0.980786
    outer loop
      vertex 5.72205e-07 -0.221894 -1.68546
      vertex 4.7 -0.439992 -1.64207
      vertex 4.7 -0.221894 -1.68546
    endloop
  endfacet
  facet normal 0 0.195088 0.980786
    outer loop
      vertex 4.7 -0.439992 -1.64207
      vertex 5.72205e-07 -0.221894 -1.68546
      vertex 5.72205e-07 -0.439992 -1.64207
    endloop
  endfacet
endsolid OpenSCAD_Model
