solid OpenSCAD_Model
  facet normal -0 0.065404 0.997859
    outer loop
      vertex -5 0.554736 4.21364
      vertex 9.4369e-16 0 4.25
      vertex 9.35616e-16 0.554736 4.21364
    endloop
  endfacet
  facet normal 0 0.065404 0.997859
    outer loop
      vertex 9.4369e-16 0 4.25
      vertex -5 0.554736 4.21364
      vertex -5 0 4.25
    endloop
  endfacet
  facet normal 0 0.065404 -0.997859
    outer loop
      vertex -5 0 -4.25
      vertex -9.35616e-16 0.554736 -4.21364
      vertex -9.4369e-16 0 -4.25
    endloop
  endfacet
  facet normal 0 0.065404 -0.997859
    outer loop
      vertex -9.35616e-16 0.554736 -4.21364
      vertex -5 0 -4.25
      vertex -5 0.554736 -4.21364
    endloop
  endfacet
  facet normal 0 0.997859 0.065404
    outer loop
      vertex 1.23176e-16 4.21364 0.554736
      vertex -5 4.25 1.11022e-15
      vertex -5 4.21364 0.554736
    endloop
  endfacet
  facet normal 1.45226e-17 0.997859 0.065404
    outer loop
      vertex -5 4.25 1.11022e-15
      vertex 1.23176e-16 4.21364 0.554736
      vertex 0 4.25 0
    endloop
  endfacet
  facet normal -1.4978e-17 -0.997859 -0.065404
    outer loop
      vertex -5 -4.21364 -0.554736
      vertex 0 -4.25 0
      vertex -5 -4.25 1.11022e-15
    endloop
  endfacet
  facet normal 0 -0.997859 -0.065404
    outer loop
      vertex 0 -4.25 0
      vertex -5 -4.21364 -0.554736
      vertex -1.23176e-16 -4.21364 -0.554736
    endloop
  endfacet
  facet normal 0 -0.659345 -0.75184
    outer loop
      vertex -5 -3.0052 -3.0052
      vertex -7.48679e-16 -2.58724 -3.37175
      vertex -6.67289e-16 -3.0052 -3.0052
    endloop
  endfacet
  facet normal -0 -0.659345 -0.75184
    outer loop
      vertex -7.48679e-16 -2.58724 -3.37175
      vertex -5 -3.0052 -3.0052
      vertex -5 -2.58724 -3.37175
    endloop
  endfacet
  facet normal -0 0.659345 0.75184
    outer loop
      vertex -5 3.0052 3.0052
      vertex 7.48679e-16 2.58724 3.37175
      vertex 6.67289e-16 3.0052 3.0052
    endloop
  endfacet
  facet normal 0 0.659345 0.75184
    outer loop
      vertex 7.48679e-16 2.58724 3.37175
      vertex -5 3.0052 3.0052
      vertex -5 2.58724 3.37175
    endloop
  endfacet
  facet normal 0 0.75184 -0.659345
    outer loop
      vertex -6.67289e-16 3.0052 -3.0052
      vertex -5 3.37175 -2.58724
      vertex -5.74482e-16 3.37175 -2.58724
    endloop
  endfacet
  facet normal 0 0.75184 -0.659345
    outer loop
      vertex -5 3.37175 -2.58724
      vertex -6.67289e-16 3.0052 -3.0052
      vertex -5 3.0052 -3.0052
    endloop
  endfacet
  facet normal 0 0.94693 -0.321439
    outer loop
      vertex -3.61134e-16 3.92649 -1.6264
      vertex -5 4.10518 -1.09998
      vertex -2.44245e-16 4.10518 -1.09998
    endloop
  endfacet
  facet normal 0 0.94693 -0.321439
    outer loop
      vertex -5 4.10518 -1.09998
      vertex -3.61134e-16 3.92649 -1.6264
      vertex -5 3.92649 -1.6264
    endloop
  endfacet
  facet normal -0 0.321439 0.94693
    outer loop
      vertex -5 1.6264 3.92649
      vertex 9.11534e-16 1.09998 4.10518
      vertex 8.71855e-16 1.6264 3.92649
    endloop
  endfacet
  facet normal 0 0.321439 0.94693
    outer loop
      vertex 9.11534e-16 1.09998 4.10518
      vertex -5 1.6264 3.92649
      vertex -5 1.09998 4.10518
    endloop
  endfacet
  facet normal -0 0.19509 0.980785
    outer loop
      vertex -5 1.09998 4.10518
      vertex 9.35616e-16 0.554736 4.21364
      vertex 9.11534e-16 1.09998 4.10518
    endloop
  endfacet
  facet normal 0 0.19509 0.980785
    outer loop
      vertex 9.35616e-16 0.554736 4.21364
      vertex -5 1.09998 4.10518
      vertex -5 0.554736 4.21364
    endloop
  endfacet
  facet normal -0 0.442289 0.896873
    outer loop
      vertex -5 2.125 3.68061
      vertex 8.71855e-16 1.6264 3.92649
      vertex 8.17259e-16 2.125 3.68061
    endloop
  endfacet
  facet normal 0 0.442289 0.896873
    outer loop
      vertex 8.71855e-16 1.6264 3.92649
      vertex -5 2.125 3.68061
      vertex -5 1.6264 3.92649
    endloop
  endfacet
  facet normal 0 0.896873 0.442288
    outer loop
      vertex 3.61134e-16 3.92649 1.6264
      vertex -5 3.68061 2.125
      vertex 4.71845e-16 3.68061 2.125
    endloop
  endfacet
  facet normal 0 0.896873 0.442288
    outer loop
      vertex -5 3.68061 2.125
      vertex 3.61134e-16 3.92649 1.6264
      vertex -5 3.92649 1.6264
    endloop
  endfacet
  facet normal 0 0.94693 0.321439
    outer loop
      vertex 2.44245e-16 4.10518 1.09998
      vertex -5 3.92649 1.6264
      vertex 3.61134e-16 3.92649 1.6264
    endloop
  endfacet
  facet normal 0 0.94693 0.321439
    outer loop
      vertex -5 3.92649 1.6264
      vertex 2.44245e-16 4.10518 1.09998
      vertex -5 4.10518 1.09998
    endloop
  endfacet
  facet normal 0 0.831469 0.555572
    outer loop
      vertex 4.71845e-16 3.68061 2.125
      vertex -5 3.37175 2.58724
      vertex 5.74482e-16 3.37175 2.58724
    endloop
  endfacet
  facet normal 0 0.831469 0.555572
    outer loop
      vertex -5 3.37175 2.58724
      vertex 4.71845e-16 3.68061 2.125
      vertex -5 3.68061 2.125
    endloop
  endfacet
  facet normal 0 0.442289 -0.896873
    outer loop
      vertex -5 1.6264 -3.92649
      vertex -8.17259e-16 2.125 -3.68061
      vertex -8.71855e-16 1.6264 -3.92649
    endloop
  endfacet
  facet normal 0 0.442289 -0.896873
    outer loop
      vertex -8.17259e-16 2.125 -3.68061
      vertex -5 1.6264 -3.92649
      vertex -5 2.125 -3.68061
    endloop
  endfacet
  facet normal 0 0.321439 -0.94693
    outer loop
      vertex -5 1.09998 -4.10518
      vertex -8.71855e-16 1.6264 -3.92649
      vertex -9.11534e-16 1.09998 -4.10518
    endloop
  endfacet
  facet normal 0 0.321439 -0.94693
    outer loop
      vertex -8.71855e-16 1.6264 -3.92649
      vertex -5 1.09998 -4.10518
      vertex -5 1.6264 -3.92649
    endloop
  endfacet
  facet normal 0 0.896873 -0.442289
    outer loop
      vertex -4.71845e-16 3.68061 -2.125
      vertex -5 3.92649 -1.6264
      vertex -3.61134e-16 3.92649 -1.6264
    endloop
  endfacet
  facet normal 0 0.896873 -0.442289
    outer loop
      vertex -5 3.92649 -1.6264
      vertex -4.71845e-16 3.68061 -2.125
      vertex -5 3.68061 -2.125
    endloop
  endfacet
  facet normal 0 0.980785 -0.19509
    outer loop
      vertex -2.44245e-16 4.10518 -1.09998
      vertex -5 4.21364 -0.554736
      vertex -1.23176e-16 4.21364 -0.554736
    endloop
  endfacet
  facet normal 0 0.980785 -0.19509
    outer loop
      vertex -5 4.21364 -0.554736
      vertex -2.44245e-16 4.10518 -1.09998
      vertex -5 4.10518 -1.09998
    endloop
  endfacet
  facet normal 0 -0.896873 0.442288
    outer loop
      vertex -5 -3.92649 1.6264
      vertex 4.71845e-16 -3.68061 2.125
      vertex -5 -3.68061 2.125
    endloop
  endfacet
  facet normal 0 -0.896873 0.442288
    outer loop
      vertex 4.71845e-16 -3.68061 2.125
      vertex -5 -3.92649 1.6264
      vertex 3.61134e-16 -3.92649 1.6264
    endloop
  endfacet
  facet normal 0 -0.94693 -0.321439
    outer loop
      vertex -5 -3.92649 -1.6264
      vertex -2.44245e-16 -4.10518 -1.09998
      vertex -5 -4.10518 -1.09998
    endloop
  endfacet
  facet normal 0 -0.94693 -0.321439
    outer loop
      vertex -2.44245e-16 -4.10518 -1.09998
      vertex -5 -3.92649 -1.6264
      vertex -3.61134e-16 -3.92649 -1.6264
    endloop
  endfacet
  facet normal 0 -0.442289 -0.896873
    outer loop
      vertex -5 -2.125 -3.68061
      vertex -8.71855e-16 -1.6264 -3.92649
      vertex -8.17259e-16 -2.125 -3.68061
    endloop
  endfacet
  facet normal -0 -0.442289 -0.896873
    outer loop
      vertex -8.71855e-16 -1.6264 -3.92649
      vertex -5 -2.125 -3.68061
      vertex -5 -1.6264 -3.92649
    endloop
  endfacet
  facet normal 1 0 -2.22045e-16
    outer loop
      vertex 0 2.5 0
      vertex 0 4.25 0
      vertex 1.23176e-16 4.21364 0.554736
    endloop
  endfacet
  facet normal 1 0 -2.22045e-16
    outer loop
      vertex 7.24565e-17 2.47861 0.326315
      vertex 1.23176e-16 4.21364 0.554736
      vertex 2.44245e-16 4.10518 1.09998
    endloop
  endfacet
  facet normal 1 0 -2.22045e-16
    outer loop
      vertex 0 4.25 0
      vertex 0 2.5 0
      vertex -1.23176e-16 4.21364 -0.554736
    endloop
  endfacet
  facet normal 1 0 -2.22045e-16
    outer loop
      vertex 1.43673e-16 2.41481 0.647047
      vertex 2.44245e-16 4.10518 1.09998
      vertex 3.61134e-16 3.92649 1.6264
    endloop
  endfacet
  facet normal 1 0 -2.22045e-16
    outer loop
      vertex -7.24565e-17 2.47861 -0.326315
      vertex -1.23176e-16 4.21364 -0.554736
      vertex 0 2.5 0
    endloop
  endfacet
  facet normal 1 0 -2.22045e-16
    outer loop
      vertex 2.12432e-16 2.3097 0.956708
      vertex 3.61134e-16 3.92649 1.6264
      vertex 4.71845e-16 3.68061 2.125
    endloop
  endfacet
  facet normal 1 0 -2.22045e-16
    outer loop
      vertex -1.23176e-16 4.21364 -0.554736
      vertex -7.24565e-17 2.47861 -0.326315
      vertex -2.44245e-16 4.10518 -1.09998
    endloop
  endfacet
  facet normal 1 0 -2.22045e-16
    outer loop
      vertex 2.77556e-16 2.16506 1.25
      vertex 4.71845e-16 3.68061 2.125
      vertex 5.74482e-16 3.37175 2.58724
    endloop
  endfacet
  facet normal 1 0 -2.22045e-16
    outer loop
      vertex -1.43673e-16 2.41481 -0.647047
      vertex -2.44245e-16 4.10518 -1.09998
      vertex -7.24565e-17 2.47861 -0.326315
    endloop
  endfacet
  facet normal 1 0 -2.22045e-16
    outer loop
      vertex 3.3793e-16 1.98338 1.5219
      vertex 5.74482e-16 3.37175 2.58724
      vertex 6.67289e-16 3.0052 3.0052
    endloop
  endfacet
  facet normal 1 0 -2.22045e-16
    outer loop
      vertex -2.44245e-16 4.10518 -1.09998
      vertex -1.43673e-16 2.41481 -0.647047
      vertex -3.61134e-16 3.92649 -1.6264
    endloop
  endfacet
  facet normal 1 0 -2.22045e-16
    outer loop
      vertex 3.92523e-16 1.76777 1.76777
      vertex 6.67289e-16 3.0052 3.0052
      vertex 7.48679e-16 2.58724 3.37175
    endloop
  endfacet
  facet normal 1 0 -2.22045e-16
    outer loop
      vertex -2.12432e-16 2.3097 -0.956708
      vertex -3.61134e-16 3.92649 -1.6264
      vertex -1.43673e-16 2.41481 -0.647047
    endloop
  endfacet
  facet normal 1 0 -2.22045e-16
    outer loop
      vertex -3.61134e-16 3.92649 -1.6264
      vertex -2.12432e-16 2.3097 -0.956708
      vertex -4.71845e-16 3.68061 -2.125
    endloop
  endfacet
  facet normal 1 0 -2.22045e-16
    outer loop
      vertex 1.23176e-16 4.21364 0.554736
      vertex 7.24565e-17 2.47861 0.326315
      vertex 0 2.5 0
    endloop
  endfacet
  facet normal 1 0 -2.22045e-16
    outer loop
      vertex 2.44245e-16 4.10518 1.09998
      vertex 1.43673e-16 2.41481 0.647047
      vertex 7.24565e-17 2.47861 0.326315
    endloop
  endfacet
  facet normal 1 0 -2.22045e-16
    outer loop
      vertex 3.61134e-16 3.92649 1.6264
      vertex 2.12432e-16 2.3097 0.956708
      vertex 1.43673e-16 2.41481 0.647047
    endloop
  endfacet
  facet normal 1 0 -2.22045e-16
    outer loop
      vertex 4.71845e-16 3.68061 2.125
      vertex 2.77556e-16 2.16506 1.25
      vertex 2.12432e-16 2.3097 0.956708
    endloop
  endfacet
  facet normal 1 0 -2.22045e-16
    outer loop
      vertex 4.404e-16 1.5219 1.98338
      vertex 7.48679e-16 2.58724 3.37175
      vertex 8.17259e-16 2.125 3.68061
    endloop
  endfacet
  facet normal 1 0 -2.22045e-16
    outer loop
      vertex 5.74482e-16 3.37175 2.58724
      vertex 3.3793e-16 1.98338 1.5219
      vertex 2.77556e-16 2.16506 1.25
    endloop
  endfacet
  facet normal 1 0 -2.22045e-16
    outer loop
      vertex 6.67289e-16 3.0052 3.0052
      vertex 3.92523e-16 1.76777 1.76777
      vertex 3.3793e-16 1.98338 1.5219
    endloop
  endfacet
  facet normal 1 0 -2.22045e-16
    outer loop
      vertex 4.80741e-16 1.25 2.16506
      vertex 8.17259e-16 2.125 3.68061
      vertex 8.71855e-16 1.6264 3.92649
    endloop
  endfacet
  facet normal 1 0 -2.22045e-16
    outer loop
      vertex 7.48679e-16 2.58724 3.37175
      vertex 4.404e-16 1.5219 1.98338
      vertex 3.92523e-16 1.76777 1.76777
    endloop
  endfacet
  facet normal 1 0 -2.22045e-16
    outer loop
      vertex 8.17259e-16 2.125 3.68061
      vertex 4.80741e-16 1.25 2.16506
      vertex 4.404e-16 1.5219 1.98338
    endloop
  endfacet
  facet normal 1 0 -2.22045e-16
    outer loop
      vertex 5.12856e-16 0.956708 2.3097
      vertex 8.71855e-16 1.6264 3.92649
      vertex 9.11534e-16 1.09998 4.10518
    endloop
  endfacet
  facet normal 1 0 -2.22045e-16
    outer loop
      vertex 8.71855e-16 1.6264 3.92649
      vertex 5.12856e-16 0.956708 2.3097
      vertex 4.80741e-16 1.25 2.16506
    endloop
  endfacet
  facet normal 1 0 -2.22045e-16
    outer loop
      vertex 9.11534e-16 1.09998 4.10518
      vertex 5.36196e-16 0.647047 2.41481
      vertex 5.12856e-16 0.956708 2.3097
    endloop
  endfacet
  facet normal 1 0 -2.22045e-16
    outer loop
      vertex 9.35616e-16 0.554736 4.21364
      vertex 5.36196e-16 0.647047 2.41481
      vertex 9.11534e-16 1.09998 4.10518
    endloop
  endfacet
  facet normal 1 0 -2.22045e-16
    outer loop
      vertex 9.35616e-16 0.554736 4.21364
      vertex 5.50362e-16 0.326315 2.47861
      vertex 5.36196e-16 0.647047 2.41481
    endloop
  endfacet
  facet normal 1 0 -2.22045e-16
    outer loop
      vertex 9.4369e-16 0 4.25
      vertex 5.50362e-16 0.326315 2.47861
      vertex 9.35616e-16 0.554736 4.21364
    endloop
  endfacet
  facet normal 1 0 -2.22045e-16
    outer loop
      vertex 9.4369e-16 0 4.25
      vertex 5.55112e-16 0 2.5
      vertex 5.50362e-16 0.326315 2.47861
    endloop
  endfacet
  facet normal 1 0 -2.22045e-16
    outer loop
      vertex 9.4369e-16 0 4.25
      vertex 5.50362e-16 -0.326315 2.47861
      vertex 5.55112e-16 0 2.5
    endloop
  endfacet
  facet normal 1 0 -2.22045e-16
    outer loop
      vertex 9.35616e-16 -0.554736 4.21364
      vertex 5.50362e-16 -0.326315 2.47861
      vertex 9.4369e-16 0 4.25
    endloop
  endfacet
  facet normal 1 0 -2.22045e-16
    outer loop
      vertex 9.35616e-16 -0.554736 4.21364
      vertex 5.36196e-16 -0.647047 2.41481
      vertex 5.50362e-16 -0.326315 2.47861
    endloop
  endfacet
  facet normal 1 0 -2.22045e-16
    outer loop
      vertex 9.11534e-16 -1.09998 4.10518
      vertex 5.36196e-16 -0.647047 2.41481
      vertex 9.35616e-16 -0.554736 4.21364
    endloop
  endfacet
  facet normal 1 0 -2.22045e-16
    outer loop
      vertex 5.36196e-16 -0.647047 2.41481
      vertex 9.11534e-16 -1.09998 4.10518
      vertex 5.12856e-16 -0.956708 2.3097
    endloop
  endfacet
  facet normal 1 0 -2.22045e-16
    outer loop
      vertex 8.71855e-16 -1.6264 3.92649
      vertex 5.12856e-16 -0.956708 2.3097
      vertex 9.11534e-16 -1.09998 4.10518
    endloop
  endfacet
  facet normal 1 0 -2.22045e-16
    outer loop
      vertex 5.12856e-16 -0.956708 2.3097
      vertex 8.71855e-16 -1.6264 3.92649
      vertex 4.80741e-16 -1.25 2.16506
    endloop
  endfacet
  facet normal 1 0 -2.22045e-16
    outer loop
      vertex 8.17259e-16 -2.125 3.68061
      vertex 4.80741e-16 -1.25 2.16506
      vertex 8.71855e-16 -1.6264 3.92649
    endloop
  endfacet
  facet normal 1 0 -2.22045e-16
    outer loop
      vertex 4.80741e-16 -1.25 2.16506
      vertex 8.17259e-16 -2.125 3.68061
      vertex 4.404e-16 -1.5219 1.98338
    endloop
  endfacet
  facet normal 1 0 -2.22045e-16
    outer loop
      vertex 7.48679e-16 -2.58724 3.37175
      vertex 4.404e-16 -1.5219 1.98338
      vertex 8.17259e-16 -2.125 3.68061
    endloop
  endfacet
  facet normal 1 0 -2.22045e-16
    outer loop
      vertex 4.404e-16 -1.5219 1.98338
      vertex 7.48679e-16 -2.58724 3.37175
      vertex 3.92523e-16 -1.76777 1.76777
    endloop
  endfacet
  facet normal 1 0 -2.22045e-16
    outer loop
      vertex 6.67289e-16 -3.0052 3.0052
      vertex 3.92523e-16 -1.76777 1.76777
      vertex 7.48679e-16 -2.58724 3.37175
    endloop
  endfacet
  facet normal 1 0 -2.22045e-16
    outer loop
      vertex 3.92523e-16 -1.76777 1.76777
      vertex 6.67289e-16 -3.0052 3.0052
      vertex 3.3793e-16 -1.98338 1.5219
    endloop
  endfacet
  facet normal 1 0 -2.22045e-16
    outer loop
      vertex 5.74482e-16 -3.37175 2.58724
      vertex 3.3793e-16 -1.98338 1.5219
      vertex 6.67289e-16 -3.0052 3.0052
    endloop
  endfacet
  facet normal 1 0 -2.22045e-16
    outer loop
      vertex 3.3793e-16 -1.98338 1.5219
      vertex 5.74482e-16 -3.37175 2.58724
      vertex 2.77556e-16 -2.16506 1.25
    endloop
  endfacet
  facet normal 1 0 -2.22045e-16
    outer loop
      vertex 2.77556e-16 -2.16506 1.25
      vertex 4.71845e-16 -3.68061 2.125
      vertex 2.12432e-16 -2.3097 0.956708
    endloop
  endfacet
  facet normal 1 0 -2.22045e-16
    outer loop
      vertex 4.71845e-16 -3.68061 2.125
      vertex 2.77556e-16 -2.16506 1.25
      vertex 5.74482e-16 -3.37175 2.58724
    endloop
  endfacet
  facet normal 1 0 -2.22045e-16
    outer loop
      vertex -2.77556e-16 2.16506 -1.25
      vertex -4.71845e-16 3.68061 -2.125
      vertex -2.12432e-16 2.3097 -0.956708
    endloop
  endfacet
  facet normal 1 0 -2.22045e-16
    outer loop
      vertex -4.71845e-16 3.68061 -2.125
      vertex -2.77556e-16 2.16506 -1.25
      vertex -5.74482e-16 3.37175 -2.58724
    endloop
  endfacet
  facet normal 1 0 -2.22045e-16
    outer loop
      vertex -3.3793e-16 1.98338 -1.5219
      vertex -5.74482e-16 3.37175 -2.58724
      vertex -2.77556e-16 2.16506 -1.25
    endloop
  endfacet
  facet normal 1 0 -2.22045e-16
    outer loop
      vertex -5.74482e-16 3.37175 -2.58724
      vertex -3.3793e-16 1.98338 -1.5219
      vertex -6.67289e-16 3.0052 -3.0052
    endloop
  endfacet
  facet normal 1 0 -2.22045e-16
    outer loop
      vertex -3.92523e-16 1.76777 -1.76777
      vertex -6.67289e-16 3.0052 -3.0052
      vertex -3.3793e-16 1.98338 -1.5219
    endloop
  endfacet
  facet normal 1 0 -2.22045e-16
    outer loop
      vertex -6.67289e-16 3.0052 -3.0052
      vertex -3.92523e-16 1.76777 -1.76777
      vertex -7.48679e-16 2.58724 -3.37175
    endloop
  endfacet
  facet normal 1 0 -2.22045e-16
    outer loop
      vertex -4.404e-16 1.5219 -1.98338
      vertex -7.48679e-16 2.58724 -3.37175
      vertex -3.92523e-16 1.76777 -1.76777
    endloop
  endfacet
  facet normal 1 0 -2.22045e-16
    outer loop
      vertex -7.48679e-16 2.58724 -3.37175
      vertex -4.404e-16 1.5219 -1.98338
      vertex -8.17259e-16 2.125 -3.68061
    endloop
  endfacet
  facet normal 1 0 -2.22045e-16
    outer loop
      vertex -4.80741e-16 1.25 -2.16506
      vertex -8.17259e-16 2.125 -3.68061
      vertex -4.404e-16 1.5219 -1.98338
    endloop
  endfacet
  facet normal 1 0 -2.22045e-16
    outer loop
      vertex -8.17259e-16 2.125 -3.68061
      vertex -4.80741e-16 1.25 -2.16506
      vertex -8.71855e-16 1.6264 -3.92649
    endloop
  endfacet
  facet normal 1 0 -2.22045e-16
    outer loop
      vertex -5.12856e-16 0.956708 -2.3097
      vertex -8.71855e-16 1.6264 -3.92649
      vertex -4.80741e-16 1.25 -2.16506
    endloop
  endfacet
  facet normal 1 0 -2.22045e-16
    outer loop
      vertex -8.71855e-16 1.6264 -3.92649
      vertex -5.12856e-16 0.956708 -2.3097
      vertex -9.11534e-16 1.09998 -4.10518
    endloop
  endfacet
  facet normal 1 0 -2.22045e-16
    outer loop
      vertex -5.36196e-16 0.647047 -2.41481
      vertex -9.11534e-16 1.09998 -4.10518
      vertex -5.12856e-16 0.956708 -2.3097
    endloop
  endfacet
  facet normal 1 0 -2.22045e-16
    outer loop
      vertex -5.36196e-16 0.647047 -2.41481
      vertex -9.35616e-16 0.554736 -4.21364
      vertex -9.11534e-16 1.09998 -4.10518
    endloop
  endfacet
  facet normal 1 0 -2.22045e-16
    outer loop
      vertex -5.50362e-16 0.326315 -2.47861
      vertex -9.35616e-16 0.554736 -4.21364
      vertex -5.36196e-16 0.647047 -2.41481
    endloop
  endfacet
  facet normal 1 0 -2.22045e-16
    outer loop
      vertex -5.55112e-16 0 -2.5
      vertex -9.35616e-16 0.554736 -4.21364
      vertex -5.50362e-16 0.326315 -2.47861
    endloop
  endfacet
  facet normal 1 0 -2.22045e-16
    outer loop
      vertex -5.55112e-16 0 -2.5
      vertex -9.4369e-16 0 -4.25
      vertex -9.35616e-16 0.554736 -4.21364
    endloop
  endfacet
  facet normal 1 0 -2.22045e-16
    outer loop
      vertex -5.50362e-16 -0.326315 -2.47861
      vertex -9.4369e-16 0 -4.25
      vertex -5.55112e-16 0 -2.5
    endloop
  endfacet
  facet normal 1 0 -2.22045e-16
    outer loop
      vertex -5.50362e-16 -0.326315 -2.47861
      vertex -9.35616e-16 -0.554736 -4.21364
      vertex -9.4369e-16 0 -4.25
    endloop
  endfacet
  facet normal 1 0 -2.22045e-16
    outer loop
      vertex -5.36196e-16 -0.647047 -2.41481
      vertex -9.35616e-16 -0.554736 -4.21364
      vertex -5.50362e-16 -0.326315 -2.47861
    endloop
  endfacet
  facet normal 1 0 -2.22045e-16
    outer loop
      vertex -9.11534e-16 -1.09998 -4.10518
      vertex -5.36196e-16 -0.647047 -2.41481
      vertex -5.12856e-16 -0.956708 -2.3097
    endloop
  endfacet
  facet normal 1 0 -2.22045e-16
    outer loop
      vertex -5.36196e-16 -0.647047 -2.41481
      vertex -9.11534e-16 -1.09998 -4.10518
      vertex -9.35616e-16 -0.554736 -4.21364
    endloop
  endfacet
  facet normal 1 0 -2.22045e-16
    outer loop
      vertex -8.71855e-16 -1.6264 -3.92649
      vertex -5.12856e-16 -0.956708 -2.3097
      vertex -4.80741e-16 -1.25 -2.16506
    endloop
  endfacet
  facet normal 1 0 -2.22045e-16
    outer loop
      vertex -8.17259e-16 -2.125 -3.68061
      vertex -4.80741e-16 -1.25 -2.16506
      vertex -4.404e-16 -1.5219 -1.98338
    endloop
  endfacet
  facet normal 1 0 -2.22045e-16
    outer loop
      vertex -5.12856e-16 -0.956708 -2.3097
      vertex -8.71855e-16 -1.6264 -3.92649
      vertex -9.11534e-16 -1.09998 -4.10518
    endloop
  endfacet
  facet normal 1 0 -2.22045e-16
    outer loop
      vertex -7.48679e-16 -2.58724 -3.37175
      vertex -4.404e-16 -1.5219 -1.98338
      vertex -3.92523e-16 -1.76777 -1.76777
    endloop
  endfacet
  facet normal 1 0 -2.22045e-16
    outer loop
      vertex -6.67289e-16 -3.0052 -3.0052
      vertex -3.92523e-16 -1.76777 -1.76777
      vertex -3.3793e-16 -1.98338 -1.5219
    endloop
  endfacet
  facet normal 1 0 -2.22045e-16
    outer loop
      vertex -4.80741e-16 -1.25 -2.16506
      vertex -8.17259e-16 -2.125 -3.68061
      vertex -8.71855e-16 -1.6264 -3.92649
    endloop
  endfacet
  facet normal 1 0 -2.22045e-16
    outer loop
      vertex -5.74482e-16 -3.37175 -2.58724
      vertex -3.3793e-16 -1.98338 -1.5219
      vertex -2.77556e-16 -2.16506 -1.25
    endloop
  endfacet
  facet normal 1 0 -2.22045e-16
    outer loop
      vertex -4.71845e-16 -3.68061 -2.125
      vertex -2.77556e-16 -2.16506 -1.25
      vertex -2.12432e-16 -2.3097 -0.956708
    endloop
  endfacet
  facet normal 1 0 -2.22045e-16
    outer loop
      vertex -3.61134e-16 -3.92649 -1.6264
      vertex -2.12432e-16 -2.3097 -0.956708
      vertex -1.43673e-16 -2.41481 -0.647047
    endloop
  endfacet
  facet normal 1 0 -2.22045e-16
    outer loop
      vertex -2.44245e-16 -4.10518 -1.09998
      vertex -1.43673e-16 -2.41481 -0.647047
      vertex -7.24565e-17 -2.47861 -0.326315
    endloop
  endfacet
  facet normal 1 0 -2.22045e-16
    outer loop
      vertex -4.404e-16 -1.5219 -1.98338
      vertex -7.48679e-16 -2.58724 -3.37175
      vertex -8.17259e-16 -2.125 -3.68061
    endloop
  endfacet
  facet normal 1 0 -2.22045e-16
    outer loop
      vertex -1.23176e-16 -4.21364 -0.554736
      vertex -7.24565e-17 -2.47861 -0.326315
      vertex 0 -2.5 0
    endloop
  endfacet
  facet normal 1 0 -2.22045e-16
    outer loop
      vertex 3.61134e-16 -3.92649 1.6264
      vertex 2.12432e-16 -2.3097 0.956708
      vertex 4.71845e-16 -3.68061 2.125
    endloop
  endfacet
  facet normal 1 0 -2.22045e-16
    outer loop
      vertex 2.12432e-16 -2.3097 0.956708
      vertex 3.61134e-16 -3.92649 1.6264
      vertex 1.43673e-16 -2.41481 0.647047
    endloop
  endfacet
  facet normal 1 0 -2.22045e-16
    outer loop
      vertex -3.92523e-16 -1.76777 -1.76777
      vertex -6.67289e-16 -3.0052 -3.0052
      vertex -7.48679e-16 -2.58724 -3.37175
    endloop
  endfacet
  facet normal 1 0 -2.22045e-16
    outer loop
      vertex 2.44245e-16 -4.10518 1.09998
      vertex 1.43673e-16 -2.41481 0.647047
      vertex 3.61134e-16 -3.92649 1.6264
    endloop
  endfacet
  facet normal 1 0 -2.22045e-16
    outer loop
      vertex -3.3793e-16 -1.98338 -1.5219
      vertex -5.74482e-16 -3.37175 -2.58724
      vertex -6.67289e-16 -3.0052 -3.0052
    endloop
  endfacet
  facet normal 1 0 -2.22045e-16
    outer loop
      vertex 1.43673e-16 -2.41481 0.647047
      vertex 2.44245e-16 -4.10518 1.09998
      vertex 7.24565e-17 -2.47861 0.326315
    endloop
  endfacet
  facet normal 1 0 -2.22045e-16
    outer loop
      vertex -2.77556e-16 -2.16506 -1.25
      vertex -4.71845e-16 -3.68061 -2.125
      vertex -5.74482e-16 -3.37175 -2.58724
    endloop
  endfacet
  facet normal 1 0 -2.22045e-16
    outer loop
      vertex 1.23176e-16 -4.21364 0.554736
      vertex 7.24565e-17 -2.47861 0.326315
      vertex 2.44245e-16 -4.10518 1.09998
    endloop
  endfacet
  facet normal 1 0 -2.22045e-16
    outer loop
      vertex -2.12432e-16 -2.3097 -0.956708
      vertex -3.61134e-16 -3.92649 -1.6264
      vertex -4.71845e-16 -3.68061 -2.125
    endloop
  endfacet
  facet normal 1 0 -2.22045e-16
    outer loop
      vertex 7.24565e-17 -2.47861 0.326315
      vertex 1.23176e-16 -4.21364 0.554736
      vertex 0 -2.5 0
    endloop
  endfacet
  facet normal 1 0 -2.22045e-16
    outer loop
      vertex -1.43673e-16 -2.41481 -0.647047
      vertex -2.44245e-16 -4.10518 -1.09998
      vertex -3.61134e-16 -3.92649 -1.6264
    endloop
  endfacet
  facet normal 1 0 -2.22045e-16
    outer loop
      vertex 0 -4.25 0
      vertex 0 -2.5 0
      vertex 1.23176e-16 -4.21364 0.554736
    endloop
  endfacet
  facet normal 1 0 -2.22045e-16
    outer loop
      vertex -7.24565e-17 -2.47861 -0.326315
      vertex -1.23176e-16 -4.21364 -0.554736
      vertex -2.44245e-16 -4.10518 -1.09998
    endloop
  endfacet
  facet normal 1 0 -2.22045e-16
    outer loop
      vertex 0 -2.5 0
      vertex 0 -4.25 0
      vertex -1.23176e-16 -4.21364 -0.554736
    endloop
  endfacet
  facet normal -0 0.555571 0.831469
    outer loop
      vertex -5 2.58724 3.37175
      vertex 8.17259e-16 2.125 3.68061
      vertex 7.48679e-16 2.58724 3.37175
    endloop
  endfacet
  facet normal 0 0.555571 0.831469
    outer loop
      vertex 8.17259e-16 2.125 3.68061
      vertex -5 2.58724 3.37175
      vertex -5 2.125 3.68061
    endloop
  endfacet
  facet normal 0 0.980785 0.19509
    outer loop
      vertex 1.23176e-16 4.21364 0.554736
      vertex -5 4.10518 1.09998
      vertex 2.44245e-16 4.10518 1.09998
    endloop
  endfacet
  facet normal 0 0.980785 0.19509
    outer loop
      vertex -5 4.10518 1.09998
      vertex 1.23176e-16 4.21364 0.554736
      vertex -5 4.21364 0.554736
    endloop
  endfacet
  facet normal 0 0.75184 0.659345
    outer loop
      vertex 5.74482e-16 3.37175 2.58724
      vertex -5 3.0052 3.0052
      vertex 6.67289e-16 3.0052 3.0052
    endloop
  endfacet
  facet normal 0 0.75184 0.659345
    outer loop
      vertex -5 3.0052 3.0052
      vertex 5.74482e-16 3.37175 2.58724
      vertex -5 3.37175 2.58724
    endloop
  endfacet
  facet normal 0 0.555571 -0.831469
    outer loop
      vertex -5 2.125 -3.68061
      vertex -7.48679e-16 2.58724 -3.37175
      vertex -8.17259e-16 2.125 -3.68061
    endloop
  endfacet
  facet normal 0 0.555571 -0.831469
    outer loop
      vertex -7.48679e-16 2.58724 -3.37175
      vertex -5 2.125 -3.68061
      vertex -5 2.58724 -3.37175
    endloop
  endfacet
  facet normal 0 0.659345 -0.75184
    outer loop
      vertex -5 2.58724 -3.37175
      vertex -6.67289e-16 3.0052 -3.0052
      vertex -7.48679e-16 2.58724 -3.37175
    endloop
  endfacet
  facet normal 0 0.659345 -0.75184
    outer loop
      vertex -6.67289e-16 3.0052 -3.0052
      vertex -5 2.58724 -3.37175
      vertex -5 3.0052 -3.0052
    endloop
  endfacet
  facet normal 0 0.19509 -0.980785
    outer loop
      vertex -5 0.554736 -4.21364
      vertex -9.11534e-16 1.09998 -4.10518
      vertex -9.35616e-16 0.554736 -4.21364
    endloop
  endfacet
  facet normal 0 0.19509 -0.980785
    outer loop
      vertex -9.11534e-16 1.09998 -4.10518
      vertex -5 0.554736 -4.21364
      vertex -5 1.09998 -4.10518
    endloop
  endfacet
  facet normal -1 0 0
    outer loop
      vertex -5 2 -1.1547
      vertex -5 4.25 1.11022e-15
      vertex -5 4.21364 -0.554736
    endloop
  endfacet
  facet normal -1 0 0
    outer loop
      vertex -5 2 -1.1547
      vertex -5 4.21364 -0.554736
      vertex -5 4.10518 -1.09998
    endloop
  endfacet
  facet normal -1 0 0
    outer loop
      vertex -5 2 1.1547
      vertex -5 4.25 1.11022e-15
      vertex -5 2 -1.1547
    endloop
  endfacet
  facet normal -1 0 0
    outer loop
      vertex -5 2 -1.1547
      vertex -5 4.10518 -1.09998
      vertex -5 3.92649 -1.6264
    endloop
  endfacet
  facet normal -1 0 0
    outer loop
      vertex -5 4.25 1.11022e-15
      vertex -5 2 1.1547
      vertex -5 4.21364 0.554736
    endloop
  endfacet
  facet normal -1 0 0
    outer loop
      vertex -5 2 -1.1547
      vertex -5 3.92649 -1.6264
      vertex -5 3.68061 -2.125
    endloop
  endfacet
  facet normal -1 0 0
    outer loop
      vertex -5 4.21364 0.554736
      vertex -5 2 1.1547
      vertex -5 4.10518 1.09998
    endloop
  endfacet
  facet normal -1 0 0
    outer loop
      vertex -5 2 -1.1547
      vertex -5 3.68061 -2.125
      vertex -5 3.37175 -2.58724
    endloop
  endfacet
  facet normal -1 0 0
    outer loop
      vertex -5 4.10518 1.09998
      vertex -5 2 1.1547
      vertex -5 3.92649 1.6264
    endloop
  endfacet
  facet normal -1 0 0
    outer loop
      vertex -5 2 -1.1547
      vertex -5 3.37175 -2.58724
      vertex -5 3.0052 -3.0052
    endloop
  endfacet
  facet normal -1 -0 0
    outer loop
      vertex -5 3.92649 1.6264
      vertex -5 2 1.1547
      vertex -5 3.68061 2.125
    endloop
  endfacet
  facet normal -1 0 0
    outer loop
      vertex -5 2 -1.1547
      vertex -5 3.0052 -3.0052
      vertex -5 2.58724 -3.37175
    endloop
  endfacet
  facet normal -1 -0 0
    outer loop
      vertex -5 3.68061 2.125
      vertex -5 2 1.1547
      vertex -5 3.37175 2.58724
    endloop
  endfacet
  facet normal -1 0 0
    outer loop
      vertex -5 2 -1.1547
      vertex -5 2.58724 -3.37175
      vertex -5 2.125 -3.68061
    endloop
  endfacet
  facet normal -1 -0 0
    outer loop
      vertex -5 3.37175 2.58724
      vertex -5 2 1.1547
      vertex -5 3.0052 3.0052
    endloop
  endfacet
  facet normal -1 -0 0
    outer loop
      vertex -5 3.0052 3.0052
      vertex -5 2 1.1547
      vertex -5 2.58724 3.37175
    endloop
  endfacet
  facet normal -1 0 0
    outer loop
      vertex -5 0 -2.3094
      vertex -5 2.125 -3.68061
      vertex -5 1.6264 -3.92649
    endloop
  endfacet
  facet normal -1 0 0
    outer loop
      vertex -5 0 -2.3094
      vertex -5 1.6264 -3.92649
      vertex -5 1.09998 -4.10518
    endloop
  endfacet
  facet normal -1 0 0
    outer loop
      vertex -5 0 -2.3094
      vertex -5 1.09998 -4.10518
      vertex -5 0.554736 -4.21364
    endloop
  endfacet
  facet normal -1 0 0
    outer loop
      vertex -5 0 -2.3094
      vertex -5 0.554736 -4.21364
      vertex -5 0 -4.25
    endloop
  endfacet
  facet normal -1 0 0
    outer loop
      vertex -5 2.125 -3.68061
      vertex -5 0 -2.3094
      vertex -5 2 -1.1547
    endloop
  endfacet
  facet normal -1 0 0
    outer loop
      vertex -5 -0.554736 -4.21364
      vertex -5 0 -2.3094
      vertex -5 0 -4.25
    endloop
  endfacet
  facet normal -1 0 0
    outer loop
      vertex -5 -1.09998 -4.10518
      vertex -5 0 -2.3094
      vertex -5 -0.554736 -4.21364
    endloop
  endfacet
  facet normal -1 0 0
    outer loop
      vertex -5 -1.6264 -3.92649
      vertex -5 0 -2.3094
      vertex -5 -1.09998 -4.10518
    endloop
  endfacet
  facet normal -1 0 0
    outer loop
      vertex -5 -2.125 -3.68061
      vertex -5 0 -2.3094
      vertex -5 -1.6264 -3.92649
    endloop
  endfacet
  facet normal -1 0 0
    outer loop
      vertex -5 -2.58724 -3.37175
      vertex -5 -2 -1.1547
      vertex -5 -2.125 -3.68061
    endloop
  endfacet
  facet normal -1 -0 0
    outer loop
      vertex -5 0 -2.3094
      vertex -5 -2.125 -3.68061
      vertex -5 -2 -1.1547
    endloop
  endfacet
  facet normal -1 -0 0
    outer loop
      vertex -5 2.58724 3.37175
      vertex -5 2 1.1547
      vertex -5 2.125 3.68061
    endloop
  endfacet
  facet normal -1 0 0
    outer loop
      vertex -5 0 2.3094
      vertex -5 2.125 3.68061
      vertex -5 2 1.1547
    endloop
  endfacet
  facet normal -1 -0 0
    outer loop
      vertex -5 2.125 3.68061
      vertex -5 0 2.3094
      vertex -5 1.6264 3.92649
    endloop
  endfacet
  facet normal -1 -0 0
    outer loop
      vertex -5 1.6264 3.92649
      vertex -5 0 2.3094
      vertex -5 1.09998 4.10518
    endloop
  endfacet
  facet normal -1 -0 0
    outer loop
      vertex -5 1.09998 4.10518
      vertex -5 0 2.3094
      vertex -5 0.554736 4.21364
    endloop
  endfacet
  facet normal -1 0 0
    outer loop
      vertex -5 0 2.3094
      vertex -5 0 4.25
      vertex -5 0.554736 4.21364
    endloop
  endfacet
  facet normal -1 0 0
    outer loop
      vertex -5 0 2.3094
      vertex -5 -0.554736 4.21364
      vertex -5 0 4.25
    endloop
  endfacet
  facet normal -1 0 0
    outer loop
      vertex -5 0 2.3094
      vertex -5 -1.09998 4.10518
      vertex -5 -0.554736 4.21364
    endloop
  endfacet
  facet normal -1 0 0
    outer loop
      vertex -5 0 2.3094
      vertex -5 -1.6264 3.92649
      vertex -5 -1.09998 4.10518
    endloop
  endfacet
  facet normal -1 0 0
    outer loop
      vertex -5 -2.125 3.68061
      vertex -5 0 2.3094
      vertex -5 -2 1.1547
    endloop
  endfacet
  facet normal -1 0 0
    outer loop
      vertex -5 0 2.3094
      vertex -5 -2.125 3.68061
      vertex -5 -1.6264 3.92649
    endloop
  endfacet
  facet normal -1 0 0
    outer loop
      vertex -5 -3.0052 -3.0052
      vertex -5 -2 -1.1547
      vertex -5 -2.58724 -3.37175
    endloop
  endfacet
  facet normal -1 0 0
    outer loop
      vertex -5 -3.37175 -2.58724
      vertex -5 -2 -1.1547
      vertex -5 -3.0052 -3.0052
    endloop
  endfacet
  facet normal -1 0 0
    outer loop
      vertex -5 -2 1.1547
      vertex -5 -2.58724 3.37175
      vertex -5 -2.125 3.68061
    endloop
  endfacet
  facet normal -1 0 0
    outer loop
      vertex -5 -3.68061 -2.125
      vertex -5 -2 -1.1547
      vertex -5 -3.37175 -2.58724
    endloop
  endfacet
  facet normal -1 0 0
    outer loop
      vertex -5 -2 1.1547
      vertex -5 -3.0052 3.0052
      vertex -5 -2.58724 3.37175
    endloop
  endfacet
  facet normal -1 0 0
    outer loop
      vertex -5 -3.92649 -1.6264
      vertex -5 -2 -1.1547
      vertex -5 -3.68061 -2.125
    endloop
  endfacet
  facet normal -1 0 0
    outer loop
      vertex -5 -2 1.1547
      vertex -5 -3.37175 2.58724
      vertex -5 -3.0052 3.0052
    endloop
  endfacet
  facet normal -1 0 0
    outer loop
      vertex -5 -4.10518 -1.09998
      vertex -5 -2 -1.1547
      vertex -5 -3.92649 -1.6264
    endloop
  endfacet
  facet normal -1 0 0
    outer loop
      vertex -5 -2 1.1547
      vertex -5 -3.68061 2.125
      vertex -5 -3.37175 2.58724
    endloop
  endfacet
  facet normal -1 0 0
    outer loop
      vertex -5 -4.21364 -0.554736
      vertex -5 -2 -1.1547
      vertex -5 -4.10518 -1.09998
    endloop
  endfacet
  facet normal -1 0 0
    outer loop
      vertex -5 -2 1.1547
      vertex -5 -3.92649 1.6264
      vertex -5 -3.68061 2.125
    endloop
  endfacet
  facet normal -1 0 0
    outer loop
      vertex -5 -4.25 1.11022e-15
      vertex -5 -2 -1.1547
      vertex -5 -4.21364 -0.554736
    endloop
  endfacet
  facet normal -1 -0 0
    outer loop
      vertex -5 -2 1.1547
      vertex -5 -4.10518 1.09998
      vertex -5 -3.92649 1.6264
    endloop
  endfacet
  facet normal -1 0 0
    outer loop
      vertex -5 -2 -1.1547
      vertex -5 -4.25 1.11022e-15
      vertex -5 -2 1.1547
    endloop
  endfacet
  facet normal -1 0 0
    outer loop
      vertex -5 -2 1.1547
      vertex -5 -4.21364 0.554736
      vertex -5 -4.10518 1.09998
    endloop
  endfacet
  facet normal -1 0 0
    outer loop
      vertex -5 -2 1.1547
      vertex -5 -4.25 1.11022e-15
      vertex -5 -4.21364 0.554736
    endloop
  endfacet
  facet normal 0 0.831469 -0.555571
    outer loop
      vertex -5.74482e-16 3.37175 -2.58724
      vertex -5 3.68061 -2.125
      vertex -4.71845e-16 3.68061 -2.125
    endloop
  endfacet
  facet normal 0 0.831469 -0.555571
    outer loop
      vertex -5 3.68061 -2.125
      vertex -5.74482e-16 3.37175 -2.58724
      vertex -5 3.37175 -2.58724
    endloop
  endfacet
  facet normal -1.4978e-17 0.997859 -0.065404
    outer loop
      vertex -1.23176e-16 4.21364 -0.554736
      vertex -5 4.25 1.11022e-15
      vertex 0 4.25 0
    endloop
  endfacet
  facet normal 0 0.997859 -0.065404
    outer loop
      vertex -5 4.25 1.11022e-15
      vertex -1.23176e-16 4.21364 -0.554736
      vertex -5 4.21364 -0.554736
    endloop
  endfacet
  facet normal 0 -0.065404 0.997859
    outer loop
      vertex -5 0 4.25
      vertex 9.35616e-16 -0.554736 4.21364
      vertex 9.4369e-16 0 4.25
    endloop
  endfacet
  facet normal 0 -0.065404 0.997859
    outer loop
      vertex 9.35616e-16 -0.554736 4.21364
      vertex -5 0 4.25
      vertex -5 -0.554736 4.21364
    endloop
  endfacet
  facet normal 0 -0.997859 0.065404
    outer loop
      vertex -5 -4.25 1.11022e-15
      vertex 1.23176e-16 -4.21364 0.554736
      vertex -5 -4.21364 0.554736
    endloop
  endfacet
  facet normal 1.4978e-17 -0.997859 0.065404
    outer loop
      vertex 1.23176e-16 -4.21364 0.554736
      vertex -5 -4.25 1.11022e-15
      vertex 0 -4.25 0
    endloop
  endfacet
  facet normal 0 -0.94693 0.321439
    outer loop
      vertex -5 -4.10518 1.09998
      vertex 3.61134e-16 -3.92649 1.6264
      vertex -5 -3.92649 1.6264
    endloop
  endfacet
  facet normal 0 -0.94693 0.321439
    outer loop
      vertex 3.61134e-16 -3.92649 1.6264
      vertex -5 -4.10518 1.09998
      vertex 2.44245e-16 -4.10518 1.09998
    endloop
  endfacet
  facet normal 0 -0.831469 0.555572
    outer loop
      vertex -5 -3.68061 2.125
      vertex 5.74482e-16 -3.37175 2.58724
      vertex -5 -3.37175 2.58724
    endloop
  endfacet
  facet normal 0 -0.831469 0.555572
    outer loop
      vertex 5.74482e-16 -3.37175 2.58724
      vertex -5 -3.68061 2.125
      vertex 4.71845e-16 -3.68061 2.125
    endloop
  endfacet
  facet normal 0 -0.659345 0.75184
    outer loop
      vertex -5 -2.58724 3.37175
      vertex 6.67289e-16 -3.0052 3.0052
      vertex 7.48679e-16 -2.58724 3.37175
    endloop
  endfacet
  facet normal 0 -0.659345 0.75184
    outer loop
      vertex 6.67289e-16 -3.0052 3.0052
      vertex -5 -2.58724 3.37175
      vertex -5 -3.0052 3.0052
    endloop
  endfacet
  facet normal 0 -0.442288 0.896873
    outer loop
      vertex -5 -1.6264 3.92649
      vertex 8.17259e-16 -2.125 3.68061
      vertex 8.71855e-16 -1.6264 3.92649
    endloop
  endfacet
  facet normal 0 -0.442288 0.896873
    outer loop
      vertex 8.17259e-16 -2.125 3.68061
      vertex -5 -1.6264 3.92649
      vertex -5 -2.125 3.68061
    endloop
  endfacet
  facet normal 0 -0.75184 -0.659345
    outer loop
      vertex -5 -3.0052 -3.0052
      vertex -5.74482e-16 -3.37175 -2.58724
      vertex -5 -3.37175 -2.58724
    endloop
  endfacet
  facet normal 0 -0.75184 -0.659345
    outer loop
      vertex -5.74482e-16 -3.37175 -2.58724
      vertex -5 -3.0052 -3.0052
      vertex -6.67289e-16 -3.0052 -3.0052
    endloop
  endfacet
  facet normal 0 -0.896873 -0.442288
    outer loop
      vertex -5 -3.68061 -2.125
      vertex -3.61134e-16 -3.92649 -1.6264
      vertex -5 -3.92649 -1.6264
    endloop
  endfacet
  facet normal 0 -0.896873 -0.442288
    outer loop
      vertex -3.61134e-16 -3.92649 -1.6264
      vertex -5 -3.68061 -2.125
      vertex -4.71845e-16 -3.68061 -2.125
    endloop
  endfacet
  facet normal 0 -0.980785 -0.19509
    outer loop
      vertex -5 -4.10518 -1.09998
      vertex -1.23176e-16 -4.21364 -0.554736
      vertex -5 -4.21364 -0.554736
    endloop
  endfacet
  facet normal 0 -0.980785 -0.19509
    outer loop
      vertex -1.23176e-16 -4.21364 -0.554736
      vertex -5 -4.10518 -1.09998
      vertex -2.44245e-16 -4.10518 -1.09998
    endloop
  endfacet
  facet normal 0 -0.555571 -0.831469
    outer loop
      vertex -5 -2.58724 -3.37175
      vertex -8.17259e-16 -2.125 -3.68061
      vertex -7.48679e-16 -2.58724 -3.37175
    endloop
  endfacet
  facet normal -0 -0.555571 -0.831469
    outer loop
      vertex -8.17259e-16 -2.125 -3.68061
      vertex -5 -2.58724 -3.37175
      vertex -5 -2.125 -3.68061
    endloop
  endfacet
  facet normal 0 -0.321439 -0.94693
    outer loop
      vertex -5 -1.6264 -3.92649
      vertex -9.11534e-16 -1.09998 -4.10518
      vertex -8.71855e-16 -1.6264 -3.92649
    endloop
  endfacet
  facet normal -0 -0.321439 -0.94693
    outer loop
      vertex -9.11534e-16 -1.09998 -4.10518
      vertex -5 -1.6264 -3.92649
      vertex -5 -1.09998 -4.10518
    endloop
  endfacet
  facet normal 0 -0.065404 -0.997859
    outer loop
      vertex -5 -0.554736 -4.21364
      vertex -9.4369e-16 0 -4.25
      vertex -9.35616e-16 -0.554736 -4.21364
    endloop
  endfacet
  facet normal -0 -0.065404 -0.997859
    outer loop
      vertex -9.4369e-16 0 -4.25
      vertex -5 -0.554736 -4.21364
      vertex -5 0 -4.25
    endloop
  endfacet
  facet normal 0 -0.980785 0.19509
    outer loop
      vertex -5 -4.21364 0.554736
      vertex 2.44245e-16 -4.10518 1.09998
      vertex -5 -4.10518 1.09998
    endloop
  endfacet
  facet normal 0 -0.980785 0.19509
    outer loop
      vertex 2.44245e-16 -4.10518 1.09998
      vertex -5 -4.21364 0.554736
      vertex 1.23176e-16 -4.21364 0.554736
    endloop
  endfacet
  facet normal 0 -0.75184 0.659345
    outer loop
      vertex -5 -3.37175 2.58724
      vertex 6.67289e-16 -3.0052 3.0052
      vertex -5 -3.0052 3.0052
    endloop
  endfacet
  facet normal 0 -0.75184 0.659345
    outer loop
      vertex 6.67289e-16 -3.0052 3.0052
      vertex -5 -3.37175 2.58724
      vertex 5.74482e-16 -3.37175 2.58724
    endloop
  endfacet
  facet normal 0 -0.555572 0.831469
    outer loop
      vertex -5 -2.125 3.68061
      vertex 7.48679e-16 -2.58724 3.37175
      vertex 8.17259e-16 -2.125 3.68061
    endloop
  endfacet
  facet normal 0 -0.555572 0.831469
    outer loop
      vertex 7.48679e-16 -2.58724 3.37175
      vertex -5 -2.125 3.68061
      vertex -5 -2.58724 3.37175
    endloop
  endfacet
  facet normal 0 -0.19509 0.980785
    outer loop
      vertex -5 -0.554736 4.21364
      vertex 9.11534e-16 -1.09998 4.10518
      vertex 9.35616e-16 -0.554736 4.21364
    endloop
  endfacet
  facet normal 0 -0.19509 0.980785
    outer loop
      vertex 9.11534e-16 -1.09998 4.10518
      vertex -5 -0.554736 4.21364
      vertex -5 -1.09998 4.10518
    endloop
  endfacet
  facet normal 0 -0.321439 0.94693
    outer loop
      vertex -5 -1.09998 4.10518
      vertex 8.71855e-16 -1.6264 3.92649
      vertex 9.11534e-16 -1.09998 4.10518
    endloop
  endfacet
  facet normal 0 -0.321439 0.94693
    outer loop
      vertex 8.71855e-16 -1.6264 3.92649
      vertex -5 -1.09998 4.10518
      vertex -5 -1.6264 3.92649
    endloop
  endfacet
  facet normal 0 -0.831469 -0.555572
    outer loop
      vertex -5 -3.37175 -2.58724
      vertex -4.71845e-16 -3.68061 -2.125
      vertex -5 -3.68061 -2.125
    endloop
  endfacet
  facet normal 0 -0.831469 -0.555572
    outer loop
      vertex -4.71845e-16 -3.68061 -2.125
      vertex -5 -3.37175 -2.58724
      vertex -5.74482e-16 -3.37175 -2.58724
    endloop
  endfacet
  facet normal 0 -0.19509 -0.980785
    outer loop
      vertex -5 -1.09998 -4.10518
      vertex -9.35616e-16 -0.554736 -4.21364
      vertex -9.11534e-16 -1.09998 -4.10518
    endloop
  endfacet
  facet normal -0 -0.19509 -0.980785
    outer loop
      vertex -9.35616e-16 -0.554736 -4.21364
      vertex -5 -1.09998 -4.10518
      vertex -5 -0.554736 -4.21364
    endloop
  endfacet
  facet normal 0 -0.5 -0.866025
    outer loop
      vertex -5 0 2.3094
      vertex -2.5 2 1.1547
      vertex -2.5 0 2.3094
    endloop
  endfacet
  facet normal -0 -0.5 -0.866025
    outer loop
      vertex -2.5 2 1.1547
      vertex -5 0 2.3094
      vertex -5 2 1.1547
    endloop
  endfacet
  facet normal 0 -0.5 0.866025
    outer loop
      vertex -5 2 -1.1547
      vertex -2.5 0 -2.3094
      vertex -2.5 2 -1.1547
    endloop
  endfacet
  facet normal 0 -0.5 0.866025
    outer loop
      vertex -2.5 0 -2.3094
      vertex -5 2 -1.1547
      vertex -5 0 -2.3094
    endloop
  endfacet
  facet normal 0 -1 0
    outer loop
      vertex -5 2 -1.1547
      vertex -2.5 2 1.1547
      vertex -5 2 1.1547
    endloop
  endfacet
  facet normal 0 -1 -0
    outer loop
      vertex -2.5 2 1.1547
      vertex -5 2 -1.1547
      vertex -2.5 2 -1.1547
    endloop
  endfacet
  facet normal -1 0 0
    outer loop
      vertex -2.5 0 -2.3094
      vertex -2.5 2 1.1547
      vertex -2.5 2 -1.1547
    endloop
  endfacet
  facet normal -1 0 0
    outer loop
      vertex -2.5 0 -2.3094
      vertex -2.5 0 2.3094
      vertex -2.5 2 1.1547
    endloop
  endfacet
  facet normal -1 0 0
    outer loop
      vertex -2.5 -2 -1.1547
      vertex -2.5 0 2.3094
      vertex -2.5 0 -2.3094
    endloop
  endfacet
  facet normal -1 0 0
    outer loop
      vertex -2.5 0 2.3094
      vertex -2.5 -2 -1.1547
      vertex -2.5 -2 1.1547
    endloop
  endfacet
  facet normal 0 0.5 -0.866025
    outer loop
      vertex -5 -2 1.1547
      vertex -2.5 0 2.3094
      vertex -2.5 -2 1.1547
    endloop
  endfacet
  facet normal 0 0.5 -0.866025
    outer loop
      vertex -2.5 0 2.3094
      vertex -5 -2 1.1547
      vertex -5 0 2.3094
    endloop
  endfacet
  facet normal -0 0.5 0.866025
    outer loop
      vertex -5 0 -2.3094
      vertex -2.5 -2 -1.1547
      vertex -2.5 0 -2.3094
    endloop
  endfacet
  facet normal 0 0.5 0.866025
    outer loop
      vertex -2.5 -2 -1.1547
      vertex -5 0 -2.3094
      vertex -5 -2 -1.1547
    endloop
  endfacet
  facet normal 0 1 4.12953e-07
    outer loop
      vertex -2.5 -2 -1.1547
      vertex -5 -2 1.1547
      vertex -2.5 -2 1.1547
    endloop
  endfacet
  facet normal 0 1 4.12953e-07
    outer loop
      vertex -5 -2 1.1547
      vertex -2.5 -2 -1.1547
      vertex -5 -2 -1.1547
    endloop
  endfacet
  facet normal 0 0.0654039 0.997859
    outer loop
      vertex 40 0.326315 2.47861
      vertex 5.55112e-16 0 2.5
      vertex 40 0 2.5
    endloop
  endfacet
  facet normal 0 0.0654039 0.997859
    outer loop
      vertex 5.55112e-16 0 2.5
      vertex 40 0.326315 2.47861
      vertex 5.50362e-16 0.326315 2.47861
    endloop
  endfacet
  facet normal 0 0.0654039 -0.997859
    outer loop
      vertex 40 0 -2.5
      vertex -5.50362e-16 0.326315 -2.47861
      vertex 40 0.326315 -2.47861
    endloop
  endfacet
  facet normal 0 0.0654039 -0.997859
    outer loop
      vertex -5.50362e-16 0.326315 -2.47861
      vertex 40 0 -2.5
      vertex -5.55112e-16 0 -2.5
    endloop
  endfacet
  facet normal 0 0.997859 0.0654039
    outer loop
      vertex 40 2.47861 0.326315
      vertex 0 2.5 0
      vertex 7.24565e-17 2.47861 0.326315
    endloop
  endfacet
  facet normal 1.45226e-17 0.997859 0.0654039
    outer loop
      vertex 0 2.5 0
      vertex 40 2.47861 0.326315
      vertex 40 2.5 -8.88178e-15
    endloop
  endfacet
  facet normal -1.45217e-17 -0.997859 -0.0654039
    outer loop
      vertex -7.24565e-17 -2.47861 -0.326315
      vertex 40 -2.5 -8.88178e-15
      vertex 0 -2.5 0
    endloop
  endfacet
  facet normal 0 -0.997859 -0.0654039
    outer loop
      vertex 40 -2.5 -8.88178e-15
      vertex -7.24565e-17 -2.47861 -0.326315
      vertex 40 -2.47861 -0.326315
    endloop
  endfacet
  facet normal 0 0.659345 0.751841
    outer loop
      vertex 40 1.76777 1.76777
      vertex 4.404e-16 1.5219 1.98338
      vertex 40 1.5219 1.98338
    endloop
  endfacet
  facet normal 0 0.659345 0.751841
    outer loop
      vertex 4.404e-16 1.5219 1.98338
      vertex 40 1.76777 1.76777
      vertex 3.92523e-16 1.76777 1.76777
    endloop
  endfacet
  facet normal 0 0.751841 -0.659345
    outer loop
      vertex 40 1.76777 -1.76777
      vertex -3.3793e-16 1.98338 -1.5219
      vertex 40 1.98338 -1.5219
    endloop
  endfacet
  facet normal 0 0.751841 -0.659345
    outer loop
      vertex -3.3793e-16 1.98338 -1.5219
      vertex 40 1.76777 -1.76777
      vertex -3.92523e-16 1.76777 -1.76777
    endloop
  endfacet
  facet normal 0 0.94693 -0.32144
    outer loop
      vertex 40 2.3097 -0.956708
      vertex -1.43673e-16 2.41481 -0.647047
      vertex 40 2.41481 -0.647047
    endloop
  endfacet
  facet normal 0 0.94693 -0.32144
    outer loop
      vertex -1.43673e-16 2.41481 -0.647047
      vertex 40 2.3097 -0.956708
      vertex -2.12432e-16 2.3097 -0.956708
    endloop
  endfacet
  facet normal 1 0 0
    outer loop
      vertex 40 2.47861 0.326315
      vertex 40 2.47861 -0.326315
      vertex 40 2.5 -8.88178e-15
    endloop
  endfacet
  facet normal 1 0 0
    outer loop
      vertex 40 2.41481 0.647047
      vertex 40 2.47861 -0.326315
      vertex 40 2.47861 0.326315
    endloop
  endfacet
  facet normal 1 0 0
    outer loop
      vertex 40 2.41481 0.647047
      vertex 40 2.41481 -0.647047
      vertex 40 2.47861 -0.326315
    endloop
  endfacet
  facet normal 1 0 0
    outer loop
      vertex 40 2.3097 0.956708
      vertex 40 2.41481 -0.647047
      vertex 40 2.41481 0.647047
    endloop
  endfacet
  facet normal 1 0 0
    outer loop
      vertex 40 2.3097 0.956708
      vertex 40 2.3097 -0.956708
      vertex 40 2.41481 -0.647047
    endloop
  endfacet
  facet normal 1 0 0
    outer loop
      vertex 40 2.16506 1.25
      vertex 40 2.3097 -0.956708
      vertex 40 2.3097 0.956708
    endloop
  endfacet
  facet normal 1 0 0
    outer loop
      vertex 40 2.16506 1.25
      vertex 40 2.16506 -1.25
      vertex 40 2.3097 -0.956708
    endloop
  endfacet
  facet normal 1 0 0
    outer loop
      vertex 40 1.98338 1.5219
      vertex 40 2.16506 -1.25
      vertex 40 2.16506 1.25
    endloop
  endfacet
  facet normal 1 0 0
    outer loop
      vertex 40 1.98338 1.5219
      vertex 40 1.98338 -1.5219
      vertex 40 2.16506 -1.25
    endloop
  endfacet
  facet normal 1 0 0
    outer loop
      vertex 40 1.76777 1.76777
      vertex 40 1.98338 -1.5219
      vertex 40 1.98338 1.5219
    endloop
  endfacet
  facet normal 1 0 0
    outer loop
      vertex 40 1.76777 1.76777
      vertex 40 1.76777 -1.76777
      vertex 40 1.98338 -1.5219
    endloop
  endfacet
  facet normal 1 0 0
    outer loop
      vertex 40 1.5219 1.98338
      vertex 40 1.76777 -1.76777
      vertex 40 1.76777 1.76777
    endloop
  endfacet
  facet normal 1 0 0
    outer loop
      vertex 40 1.5219 1.98338
      vertex 40 1.5219 -1.98338
      vertex 40 1.76777 -1.76777
    endloop
  endfacet
  facet normal 1 0 0
    outer loop
      vertex 40 1.25 2.16506
      vertex 40 1.5219 -1.98338
      vertex 40 1.5219 1.98338
    endloop
  endfacet
  facet normal 1 0 0
    outer loop
      vertex 40 1.25 2.16506
      vertex 40 1.25 -2.16506
      vertex 40 1.5219 -1.98338
    endloop
  endfacet
  facet normal 1 0 0
    outer loop
      vertex 40 0.956708 2.3097
      vertex 40 1.25 -2.16506
      vertex 40 1.25 2.16506
    endloop
  endfacet
  facet normal 1 0 0
    outer loop
      vertex 40 0.956708 2.3097
      vertex 40 0.956708 -2.3097
      vertex 40 1.25 -2.16506
    endloop
  endfacet
  facet normal 1 0 0
    outer loop
      vertex 40 0.647047 2.41481
      vertex 40 0.956708 -2.3097
      vertex 40 0.956708 2.3097
    endloop
  endfacet
  facet normal 1 0 0
    outer loop
      vertex 40 0.647047 2.41481
      vertex 40 0.647047 -2.41481
      vertex 40 0.956708 -2.3097
    endloop
  endfacet
  facet normal 1 0 0
    outer loop
      vertex 40 0.326315 2.47861
      vertex 40 0.647047 -2.41481
      vertex 40 0.647047 2.41481
    endloop
  endfacet
  facet normal 1 0 0
    outer loop
      vertex 40 0.326315 2.47861
      vertex 40 0.326315 -2.47861
      vertex 40 0.647047 -2.41481
    endloop
  endfacet
  facet normal 1 0 0
    outer loop
      vertex 40 0 2.5
      vertex 40 0.326315 -2.47861
      vertex 40 0.326315 2.47861
    endloop
  endfacet
  facet normal 1 0 0
    outer loop
      vertex 40 0 2.5
      vertex 40 0 -2.5
      vertex 40 0.326315 -2.47861
    endloop
  endfacet
  facet normal 1 -0 0
    outer loop
      vertex 40 -0.326315 2.47861
      vertex 40 0 -2.5
      vertex 40 0 2.5
    endloop
  endfacet
  facet normal 1 0 0
    outer loop
      vertex 40 -0.326315 2.47861
      vertex 40 -0.326315 -2.47861
      vertex 40 0 -2.5
    endloop
  endfacet
  facet normal 1 -0 0
    outer loop
      vertex 40 -0.647047 2.41481
      vertex 40 -0.326315 -2.47861
      vertex 40 -0.326315 2.47861
    endloop
  endfacet
  facet normal 1 0 0
    outer loop
      vertex 40 -0.647047 2.41481
      vertex 40 -0.647047 -2.41481
      vertex 40 -0.326315 -2.47861
    endloop
  endfacet
  facet normal 1 -0 0
    outer loop
      vertex 40 -0.956708 2.3097
      vertex 40 -0.647047 -2.41481
      vertex 40 -0.647047 2.41481
    endloop
  endfacet
  facet normal 1 0 0
    outer loop
      vertex 40 -0.956708 2.3097
      vertex 40 -0.956708 -2.3097
      vertex 40 -0.647047 -2.41481
    endloop
  endfacet
  facet normal 1 0 0
    outer loop
      vertex 40 -0.956708 2.3097
      vertex 40 -1.25 -2.16506
      vertex 40 -0.956708 -2.3097
    endloop
  endfacet
  facet normal 1 -0 0
    outer loop
      vertex 40 -1.25 2.16506
      vertex 40 -1.25 -2.16506
      vertex 40 -0.956708 2.3097
    endloop
  endfacet
  facet normal 1 -0 0
    outer loop
      vertex 40 -1.5219 1.98338
      vertex 40 -1.25 -2.16506
      vertex 40 -1.25 2.16506
    endloop
  endfacet
  facet normal 1 0 0
    outer loop
      vertex 40 -1.5219 1.98338
      vertex 40 -1.5219 -1.98338
      vertex 40 -1.25 -2.16506
    endloop
  endfacet
  facet normal 1 -0 0
    outer loop
      vertex 40 -1.76777 1.76777
      vertex 40 -1.5219 -1.98338
      vertex 40 -1.5219 1.98338
    endloop
  endfacet
  facet normal 1 0 0
    outer loop
      vertex 40 -1.76777 1.76777
      vertex 40 -1.76777 -1.76777
      vertex 40 -1.5219 -1.98338
    endloop
  endfacet
  facet normal 1 -0 0
    outer loop
      vertex 40 -1.98338 1.5219
      vertex 40 -1.76777 -1.76777
      vertex 40 -1.76777 1.76777
    endloop
  endfacet
  facet normal 1 0 0
    outer loop
      vertex 40 -1.98338 1.5219
      vertex 40 -1.98338 -1.5219
      vertex 40 -1.76777 -1.76777
    endloop
  endfacet
  facet normal 1 -0 0
    outer loop
      vertex 40 -2.16506 1.25
      vertex 40 -1.98338 -1.5219
      vertex 40 -1.98338 1.5219
    endloop
  endfacet
  facet normal 1 0 0
    outer loop
      vertex 40 -2.16506 1.25
      vertex 40 -2.16506 -1.25
      vertex 40 -1.98338 -1.5219
    endloop
  endfacet
  facet normal 1 -0 0
    outer loop
      vertex 40 -2.3097 0.956708
      vertex 40 -2.16506 -1.25
      vertex 40 -2.16506 1.25
    endloop
  endfacet
  facet normal 1 0 0
    outer loop
      vertex 40 -2.3097 0.956708
      vertex 40 -2.3097 -0.956708
      vertex 40 -2.16506 -1.25
    endloop
  endfacet
  facet normal 1 -0 0
    outer loop
      vertex 40 -2.41481 0.647047
      vertex 40 -2.3097 -0.956708
      vertex 40 -2.3097 0.956708
    endloop
  endfacet
  facet normal 1 0 0
    outer loop
      vertex 40 -2.41481 0.647047
      vertex 40 -2.41481 -0.647047
      vertex 40 -2.3097 -0.956708
    endloop
  endfacet
  facet normal 1 -0 0
    outer loop
      vertex 40 -2.47861 0.326315
      vertex 40 -2.41481 -0.647047
      vertex 40 -2.41481 0.647047
    endloop
  endfacet
  facet normal 1 0 0
    outer loop
      vertex 40 -2.47861 0.326315
      vertex 40 -2.47861 -0.326315
      vertex 40 -2.41481 -0.647047
    endloop
  endfacet
  facet normal 1 0 -0
    outer loop
      vertex 40 -2.47861 -0.326315
      vertex 40 -2.47861 0.326315
      vertex 40 -2.5 -8.88178e-15
    endloop
  endfacet
  facet normal 0 0.32144 0.94693
    outer loop
      vertex 40 0.956708 2.3097
      vertex 5.36196e-16 0.647047 2.41481
      vertex 40 0.647047 2.41481
    endloop
  endfacet
  facet normal 0 0.32144 0.94693
    outer loop
      vertex 5.36196e-16 0.647047 2.41481
      vertex 40 0.956708 2.3097
      vertex 5.12856e-16 0.956708 2.3097
    endloop
  endfacet
  facet normal 0 0.195091 0.980785
    outer loop
      vertex 40 0.647047 2.41481
      vertex 5.50362e-16 0.326315 2.47861
      vertex 40 0.326315 2.47861
    endloop
  endfacet
  facet normal 0 0.195091 0.980785
    outer loop
      vertex 5.50362e-16 0.326315 2.47861
      vertex 40 0.647047 2.41481
      vertex 5.36196e-16 0.647047 2.41481
    endloop
  endfacet
  facet normal 0 0.896873 0.442288
    outer loop
      vertex 40 2.3097 0.956708
      vertex 2.77556e-16 2.16506 1.25
      vertex 40 2.16506 1.25
    endloop
  endfacet
  facet normal 0 0.896873 0.442288
    outer loop
      vertex 2.77556e-16 2.16506 1.25
      vertex 40 2.3097 0.956708
      vertex 2.12432e-16 2.3097 0.956708
    endloop
  endfacet
  facet normal 0 0.83147 0.55557
    outer loop
      vertex 40 2.16506 1.25
      vertex 3.3793e-16 1.98338 1.5219
      vertex 40 1.98338 1.5219
    endloop
  endfacet
  facet normal 0 0.83147 0.55557
    outer loop
      vertex 3.3793e-16 1.98338 1.5219
      vertex 40 2.16506 1.25
      vertex 2.77556e-16 2.16506 1.25
    endloop
  endfacet
  facet normal 0 0.442289 -0.896873
    outer loop
      vertex 40 0.956708 -2.3097
      vertex -4.80741e-16 1.25 -2.16506
      vertex 40 1.25 -2.16506
    endloop
  endfacet
  facet normal 0 0.442289 -0.896873
    outer loop
      vertex -4.80741e-16 1.25 -2.16506
      vertex 40 0.956708 -2.3097
      vertex -5.12856e-16 0.956708 -2.3097
    endloop
  endfacet
  facet normal 0 0.659345 -0.751841
    outer loop
      vertex 40 1.5219 -1.98338
      vertex -3.92523e-16 1.76777 -1.76777
      vertex 40 1.76777 -1.76777
    endloop
  endfacet
  facet normal 0 0.659345 -0.751841
    outer loop
      vertex -3.92523e-16 1.76777 -1.76777
      vertex 40 1.5219 -1.98338
      vertex -4.404e-16 1.5219 -1.98338
    endloop
  endfacet
  facet normal -1.45217e-17 0.997859 -0.0654039
    outer loop
      vertex 40 2.47861 -0.326315
      vertex 0 2.5 0
      vertex 40 2.5 -8.88178e-15
    endloop
  endfacet
  facet normal 0 0.997859 -0.0654039
    outer loop
      vertex 0 2.5 0
      vertex 40 2.47861 -0.326315
      vertex -7.24565e-17 2.47861 -0.326315
    endloop
  endfacet
  facet normal 0 -0.32144 0.94693
    outer loop
      vertex 5.36196e-16 -0.647047 2.41481
      vertex 40 -0.956708 2.3097
      vertex 40 -0.647047 2.41481
    endloop
  endfacet
  facet normal 0 -0.32144 0.94693
    outer loop
      vertex 40 -0.956708 2.3097
      vertex 5.36196e-16 -0.647047 2.41481
      vertex 5.12856e-16 -0.956708 2.3097
    endloop
  endfacet
  facet normal 0 -0.997859 0.0654039
    outer loop
      vertex 0 -2.5 0
      vertex 40 -2.47861 0.326315
      vertex 7.24565e-17 -2.47861 0.326315
    endloop
  endfacet
  facet normal 1.45217e-17 -0.997859 0.0654039
    outer loop
      vertex 40 -2.47861 0.326315
      vertex 0 -2.5 0
      vertex 40 -2.5 -8.88178e-15
    endloop
  endfacet
  facet normal 0 -0.896873 0.442288
    outer loop
      vertex 2.12432e-16 -2.3097 0.956708
      vertex 40 -2.16506 1.25
      vertex 2.77556e-16 -2.16506 1.25
    endloop
  endfacet
  facet normal 0 -0.896873 0.442288
    outer loop
      vertex 40 -2.16506 1.25
      vertex 2.12432e-16 -2.3097 0.956708
      vertex 40 -2.3097 0.956708
    endloop
  endfacet
  facet normal 0 -0.0654039 -0.997859
    outer loop
      vertex -5.50362e-16 -0.326315 -2.47861
      vertex 40 0 -2.5
      vertex 40 -0.326315 -2.47861
    endloop
  endfacet
  facet normal -0 -0.0654039 -0.997859
    outer loop
      vertex 40 0 -2.5
      vertex -5.50362e-16 -0.326315 -2.47861
      vertex -5.55112e-16 0 -2.5
    endloop
  endfacet
  facet normal 0 0.555569 0.831471
    outer loop
      vertex 40 1.5219 1.98338
      vertex 4.80741e-16 1.25 2.16506
      vertex 40 1.25 2.16506
    endloop
  endfacet
  facet normal 0 0.555569 0.831471
    outer loop
      vertex 4.80741e-16 1.25 2.16506
      vertex 40 1.5219 1.98338
      vertex 4.404e-16 1.5219 1.98338
    endloop
  endfacet
  facet normal 0 0.442289 0.896873
    outer loop
      vertex 40 1.25 2.16506
      vertex 5.12856e-16 0.956708 2.3097
      vertex 40 0.956708 2.3097
    endloop
  endfacet
  facet normal 0 0.442289 0.896873
    outer loop
      vertex 5.12856e-16 0.956708 2.3097
      vertex 40 1.25 2.16506
      vertex 4.80741e-16 1.25 2.16506
    endloop
  endfacet
  facet normal 0 0.94693 0.32144
    outer loop
      vertex 40 2.41481 0.647047
      vertex 2.12432e-16 2.3097 0.956708
      vertex 40 2.3097 0.956708
    endloop
  endfacet
  facet normal 0 0.94693 0.32144
    outer loop
      vertex 2.12432e-16 2.3097 0.956708
      vertex 40 2.41481 0.647047
      vertex 1.43673e-16 2.41481 0.647047
    endloop
  endfacet
  facet normal 0 0.980785 0.195091
    outer loop
      vertex 40 2.47861 0.326315
      vertex 1.43673e-16 2.41481 0.647047
      vertex 40 2.41481 0.647047
    endloop
  endfacet
  facet normal 0 0.980785 0.195091
    outer loop
      vertex 1.43673e-16 2.41481 0.647047
      vertex 40 2.47861 0.326315
      vertex 7.24565e-17 2.47861 0.326315
    endloop
  endfacet
  facet normal 0 0.751841 0.659345
    outer loop
      vertex 40 1.98338 1.5219
      vertex 3.92523e-16 1.76777 1.76777
      vertex 40 1.76777 1.76777
    endloop
  endfacet
  facet normal 0 0.751841 0.659345
    outer loop
      vertex 3.92523e-16 1.76777 1.76777
      vertex 40 1.98338 1.5219
      vertex 3.3793e-16 1.98338 1.5219
    endloop
  endfacet
  facet normal 0 0.555569 -0.831471
    outer loop
      vertex 40 1.25 -2.16506
      vertex -4.404e-16 1.5219 -1.98338
      vertex 40 1.5219 -1.98338
    endloop
  endfacet
  facet normal 0 0.555569 -0.831471
    outer loop
      vertex -4.404e-16 1.5219 -1.98338
      vertex 40 1.25 -2.16506
      vertex -4.80741e-16 1.25 -2.16506
    endloop
  endfacet
  facet normal 0 0.32144 -0.94693
    outer loop
      vertex 40 0.647047 -2.41481
      vertex -5.12856e-16 0.956708 -2.3097
      vertex 40 0.956708 -2.3097
    endloop
  endfacet
  facet normal 0 0.32144 -0.94693
    outer loop
      vertex -5.12856e-16 0.956708 -2.3097
      vertex 40 0.647047 -2.41481
      vertex -5.36196e-16 0.647047 -2.41481
    endloop
  endfacet
  facet normal 0 0.195091 -0.980785
    outer loop
      vertex 40 0.326315 -2.47861
      vertex -5.36196e-16 0.647047 -2.41481
      vertex 40 0.647047 -2.41481
    endloop
  endfacet
  facet normal 0 0.195091 -0.980785
    outer loop
      vertex -5.36196e-16 0.647047 -2.41481
      vertex 40 0.326315 -2.47861
      vertex -5.50362e-16 0.326315 -2.47861
    endloop
  endfacet
  facet normal 0 0.896873 -0.442289
    outer loop
      vertex 40 2.16506 -1.25
      vertex -2.12432e-16 2.3097 -0.956708
      vertex 40 2.3097 -0.956708
    endloop
  endfacet
  facet normal 0 0.896873 -0.442289
    outer loop
      vertex -2.12432e-16 2.3097 -0.956708
      vertex 40 2.16506 -1.25
      vertex -2.77556e-16 2.16506 -1.25
    endloop
  endfacet
  facet normal 0 0.831471 -0.555569
    outer loop
      vertex 40 1.98338 -1.5219
      vertex -2.77556e-16 2.16506 -1.25
      vertex 40 2.16506 -1.25
    endloop
  endfacet
  facet normal 0 0.831471 -0.555569
    outer loop
      vertex -2.77556e-16 2.16506 -1.25
      vertex 40 1.98338 -1.5219
      vertex -3.3793e-16 1.98338 -1.5219
    endloop
  endfacet
  facet normal 0 0.980785 -0.195091
    outer loop
      vertex 40 2.41481 -0.647047
      vertex -7.24565e-17 2.47861 -0.326315
      vertex 40 2.47861 -0.326315
    endloop
  endfacet
  facet normal 0 0.980785 -0.195091
    outer loop
      vertex -7.24565e-17 2.47861 -0.326315
      vertex 40 2.41481 -0.647047
      vertex -1.43673e-16 2.41481 -0.647047
    endloop
  endfacet
  facet normal 0 -0.0654039 0.997859
    outer loop
      vertex 5.55112e-16 0 2.5
      vertex 40 -0.326315 2.47861
      vertex 40 0 2.5
    endloop
  endfacet
  facet normal 0 -0.0654039 0.997859
    outer loop
      vertex 40 -0.326315 2.47861
      vertex 5.55112e-16 0 2.5
      vertex 5.50362e-16 -0.326315 2.47861
    endloop
  endfacet
  facet normal 0 -0.980785 0.195091
    outer loop
      vertex 7.24565e-17 -2.47861 0.326315
      vertex 40 -2.41481 0.647047
      vertex 1.43673e-16 -2.41481 0.647047
    endloop
  endfacet
  facet normal 0 -0.980785 0.195091
    outer loop
      vertex 40 -2.41481 0.647047
      vertex 7.24565e-17 -2.47861 0.326315
      vertex 40 -2.47861 0.326315
    endloop
  endfacet
  facet normal 0 -0.83147 0.55557
    outer loop
      vertex 2.77556e-16 -2.16506 1.25
      vertex 40 -1.98338 1.5219
      vertex 3.3793e-16 -1.98338 1.5219
    endloop
  endfacet
  facet normal 0 -0.83147 0.55557
    outer loop
      vertex 40 -1.98338 1.5219
      vertex 2.77556e-16 -2.16506 1.25
      vertex 40 -2.16506 1.25
    endloop
  endfacet
  facet normal 0 -0.659345 0.751841
    outer loop
      vertex 4.404e-16 -1.5219 1.98338
      vertex 40 -1.76777 1.76777
      vertex 40 -1.5219 1.98338
    endloop
  endfacet
  facet normal 0 -0.659345 0.751841
    outer loop
      vertex 40 -1.76777 1.76777
      vertex 4.404e-16 -1.5219 1.98338
      vertex 3.92523e-16 -1.76777 1.76777
    endloop
  endfacet
  facet normal 0 -0.751841 -0.659345
    outer loop
      vertex -3.92523e-16 -1.76777 -1.76777
      vertex 40 -1.98338 -1.5219
      vertex -3.3793e-16 -1.98338 -1.5219
    endloop
  endfacet
  facet normal 0 -0.751841 -0.659345
    outer loop
      vertex 40 -1.98338 -1.5219
      vertex -3.92523e-16 -1.76777 -1.76777
      vertex 40 -1.76777 -1.76777
    endloop
  endfacet
  facet normal 0 -0.896873 -0.442288
    outer loop
      vertex -2.77556e-16 -2.16506 -1.25
      vertex 40 -2.3097 -0.956708
      vertex -2.12432e-16 -2.3097 -0.956708
    endloop
  endfacet
  facet normal 0 -0.896873 -0.442288
    outer loop
      vertex 40 -2.3097 -0.956708
      vertex -2.77556e-16 -2.16506 -1.25
      vertex 40 -2.16506 -1.25
    endloop
  endfacet
  facet normal 0 -0.94693 -0.32144
    outer loop
      vertex -2.12432e-16 -2.3097 -0.956708
      vertex 40 -2.41481 -0.647047
      vertex -1.43673e-16 -2.41481 -0.647047
    endloop
  endfacet
  facet normal 0 -0.94693 -0.32144
    outer loop
      vertex 40 -2.41481 -0.647047
      vertex -2.12432e-16 -2.3097 -0.956708
      vertex 40 -2.3097 -0.956708
    endloop
  endfacet
  facet normal 0 -0.442289 -0.896873
    outer loop
      vertex -4.80741e-16 -1.25 -2.16506
      vertex 40 -0.956708 -2.3097
      vertex 40 -1.25 -2.16506
    endloop
  endfacet
  facet normal -0 -0.442289 -0.896873
    outer loop
      vertex 40 -0.956708 -2.3097
      vertex -4.80741e-16 -1.25 -2.16506
      vertex -5.12856e-16 -0.956708 -2.3097
    endloop
  endfacet
  facet normal 0 -0.659345 -0.751841
    outer loop
      vertex -3.92523e-16 -1.76777 -1.76777
      vertex 40 -1.5219 -1.98338
      vertex 40 -1.76777 -1.76777
    endloop
  endfacet
  facet normal -0 -0.659345 -0.751841
    outer loop
      vertex 40 -1.5219 -1.98338
      vertex -3.92523e-16 -1.76777 -1.76777
      vertex -4.404e-16 -1.5219 -1.98338
    endloop
  endfacet
  facet normal 0 -0.195091 -0.980785
    outer loop
      vertex -5.36196e-16 -0.647047 -2.41481
      vertex 40 -0.326315 -2.47861
      vertex 40 -0.647047 -2.41481
    endloop
  endfacet
  facet normal -0 -0.195091 -0.980785
    outer loop
      vertex 40 -0.326315 -2.47861
      vertex -5.36196e-16 -0.647047 -2.41481
      vertex -5.50362e-16 -0.326315 -2.47861
    endloop
  endfacet
  facet normal 0 -0.94693 0.32144
    outer loop
      vertex 1.43673e-16 -2.41481 0.647047
      vertex 40 -2.3097 0.956708
      vertex 2.12432e-16 -2.3097 0.956708
    endloop
  endfacet
  facet normal 0 -0.94693 0.32144
    outer loop
      vertex 40 -2.3097 0.956708
      vertex 1.43673e-16 -2.41481 0.647047
      vertex 40 -2.41481 0.647047
    endloop
  endfacet
  facet normal 0 -0.751841 0.659345
    outer loop
      vertex 3.3793e-16 -1.98338 1.5219
      vertex 40 -1.76777 1.76777
      vertex 3.92523e-16 -1.76777 1.76777
    endloop
  endfacet
  facet normal 0 -0.751841 0.659345
    outer loop
      vertex 40 -1.76777 1.76777
      vertex 3.3793e-16 -1.98338 1.5219
      vertex 40 -1.98338 1.5219
    endloop
  endfacet
  facet normal 0 -0.442288 0.896873
    outer loop
      vertex 5.12856e-16 -0.956708 2.3097
      vertex 40 -1.25 2.16506
      vertex 40 -0.956708 2.3097
    endloop
  endfacet
  facet normal 0 -0.442288 0.896873
    outer loop
      vertex 40 -1.25 2.16506
      vertex 5.12856e-16 -0.956708 2.3097
      vertex 4.80741e-16 -1.25 2.16506
    endloop
  endfacet
  facet normal 0 -0.195091 0.980785
    outer loop
      vertex 5.50362e-16 -0.326315 2.47861
      vertex 40 -0.647047 2.41481
      vertex 40 -0.326315 2.47861
    endloop
  endfacet
  facet normal 0 -0.195091 0.980785
    outer loop
      vertex 40 -0.647047 2.41481
      vertex 5.50362e-16 -0.326315 2.47861
      vertex 5.36196e-16 -0.647047 2.41481
    endloop
  endfacet
  facet normal 0 -0.83147 -0.55557
    outer loop
      vertex -3.3793e-16 -1.98338 -1.5219
      vertex 40 -2.16506 -1.25
      vertex -2.77556e-16 -2.16506 -1.25
    endloop
  endfacet
  facet normal 0 -0.83147 -0.55557
    outer loop
      vertex 40 -2.16506 -1.25
      vertex -3.3793e-16 -1.98338 -1.5219
      vertex 40 -1.98338 -1.5219
    endloop
  endfacet
  facet normal 0 -0.980785 -0.195091
    outer loop
      vertex -1.43673e-16 -2.41481 -0.647047
      vertex 40 -2.47861 -0.326315
      vertex -7.24565e-17 -2.47861 -0.326315
    endloop
  endfacet
  facet normal 0 -0.980785 -0.195091
    outer loop
      vertex 40 -2.47861 -0.326315
      vertex -1.43673e-16 -2.41481 -0.647047
      vertex 40 -2.41481 -0.647047
    endloop
  endfacet
  facet normal 0 -0.555569 -0.831471
    outer loop
      vertex -4.404e-16 -1.5219 -1.98338
      vertex 40 -1.25 -2.16506
      vertex 40 -1.5219 -1.98338
    endloop
  endfacet
  facet normal -0 -0.555569 -0.831471
    outer loop
      vertex 40 -1.25 -2.16506
      vertex -4.404e-16 -1.5219 -1.98338
      vertex -4.80741e-16 -1.25 -2.16506
    endloop
  endfacet
  facet normal 0 -0.32144 -0.94693
    outer loop
      vertex -5.12856e-16 -0.956708 -2.3097
      vertex 40 -0.647047 -2.41481
      vertex 40 -0.956708 -2.3097
    endloop
  endfacet
  facet normal -0 -0.32144 -0.94693
    outer loop
      vertex 40 -0.647047 -2.41481
      vertex -5.12856e-16 -0.956708 -2.3097
      vertex -5.36196e-16 -0.647047 -2.41481
    endloop
  endfacet
  facet normal 0 -0.55557 0.83147
    outer loop
      vertex 4.80741e-16 -1.25 2.16506
      vertex 40 -1.5219 1.98338
      vertex 40 -1.25 2.16506
    endloop
  endfacet
  facet normal 0 -0.55557 0.83147
    outer loop
      vertex 40 -1.5219 1.98338
      vertex 4.80741e-16 -1.25 2.16506
      vertex 4.404e-16 -1.5219 1.98338
    endloop
  endfacet
endsolid OpenSCAD_Model
