solid OpenSCAD_Model
  facet normal -0 0.0654035 0.997859
    outer loop
      vertex -8 0.84842 6.44439
      vertex 1.44329e-15 0 6.5
      vertex 1.43094e-15 0.84842 6.44439
    endloop
  endfacet
  facet normal 0 0.0654035 0.997859
    outer loop
      vertex 1.44329e-15 0 6.5
      vertex -8 0.84842 6.44439
      vertex -8 0 6.5
    endloop
  endfacet
  facet normal 0 0.0654035 -0.997859
    outer loop
      vertex -8 0 -6.5
      vertex -1.43094e-15 0.84842 -6.44439
      vertex -1.44329e-15 0 -6.5
    endloop
  endfacet
  facet normal 0 0.0654035 -0.997859
    outer loop
      vertex -1.43094e-15 0.84842 -6.44439
      vertex -8 0 -6.5
      vertex -8 0.84842 -6.44439
    endloop
  endfacet
  facet normal 0 0.997859 0.0654035
    outer loop
      vertex 1.88387e-16 6.44439 0.84842
      vertex -8 6.5 1.77636e-15
      vertex -8 6.44439 0.84842
    endloop
  endfacet
  facet normal 1.45225e-17 0.997859 0.0654035
    outer loop
      vertex -8 6.5 1.77636e-15
      vertex 1.88387e-16 6.44439 0.84842
      vertex 0 6.5 0
    endloop
  endfacet
  facet normal 0 -0.659347 -0.751839
    outer loop
      vertex -8 -4.59619 -4.59619
      vertex -1.14504e-15 -3.95695 -5.1568
      vertex -1.02056e-15 -4.59619 -4.59619
    endloop
  endfacet
  facet normal -0 -0.659347 -0.751839
    outer loop
      vertex -1.14504e-15 -3.95695 -5.1568
      vertex -8 -4.59619 -4.59619
      vertex -8 -3.95695 -5.1568
    endloop
  endfacet
  facet normal 0 0.751839 0.659347
    outer loop
      vertex 8.78619e-16 5.1568 3.95695
      vertex -8 4.59619 4.59619
      vertex 1.02056e-15 4.59619 4.59619
    endloop
  endfacet
  facet normal 0 0.751839 0.659347
    outer loop
      vertex -8 4.59619 4.59619
      vertex 8.78619e-16 5.1568 3.95695
      vertex -8 5.1568 3.95695
    endloop
  endfacet
  facet normal 0 0.751839 -0.659347
    outer loop
      vertex -1.02056e-15 4.59619 -4.59619
      vertex -8 5.1568 -3.95695
      vertex -8.78619e-16 5.1568 -3.95695
    endloop
  endfacet
  facet normal 0 0.751839 -0.659347
    outer loop
      vertex -8 5.1568 -3.95695
      vertex -1.02056e-15 4.59619 -4.59619
      vertex -8 4.59619 -4.59619
    endloop
  endfacet
  facet normal 0 0.94693 -0.32144
    outer loop
      vertex -5.52323e-16 6.00522 -2.48744
      vertex -8 6.27852 -1.68232
      vertex -3.73551e-16 6.27852 -1.68232
    endloop
  endfacet
  facet normal 0 0.94693 -0.32144
    outer loop
      vertex -8 6.27852 -1.68232
      vertex -5.52323e-16 6.00522 -2.48744
      vertex -8 6.00522 -2.48744
    endloop
  endfacet
  facet normal 0 -0.659347 0.751839
    outer loop
      vertex -8 -3.95695 5.1568
      vertex 1.02056e-15 -4.59619 4.59619
      vertex 1.14504e-15 -3.95695 5.1568
    endloop
  endfacet
  facet normal 0 -0.659347 0.751839
    outer loop
      vertex 1.02056e-15 -4.59619 4.59619
      vertex -8 -3.95695 5.1568
      vertex -8 -4.59619 4.59619
    endloop
  endfacet
  facet normal -0 0.442289 0.896873
    outer loop
      vertex -8 3.25 5.62916
      vertex 1.33343e-15 2.48744 6.00522
      vertex 1.24993e-15 3.25 5.62916
    endloop
  endfacet
  facet normal 0 0.442289 0.896873
    outer loop
      vertex 1.33343e-15 2.48744 6.00522
      vertex -8 3.25 5.62916
      vertex -8 2.48744 6.00522
    endloop
  endfacet
  facet normal -0 0.19509 0.980785
    outer loop
      vertex -8 1.68232 6.27852
      vertex 1.43094e-15 0.84842 6.44439
      vertex 1.39411e-15 1.68232 6.27852
    endloop
  endfacet
  facet normal 0 0.19509 0.980785
    outer loop
      vertex 1.43094e-15 0.84842 6.44439
      vertex -8 1.68232 6.27852
      vertex -8 0.84842 6.44439
    endloop
  endfacet
  facet normal -0 0.55557 0.83147
    outer loop
      vertex -8 3.95695 5.1568
      vertex 1.24993e-15 3.25 5.62916
      vertex 1.14504e-15 3.95695 5.1568
    endloop
  endfacet
  facet normal 0 0.55557 0.83147
    outer loop
      vertex 1.24993e-15 3.25 5.62916
      vertex -8 3.95695 5.1568
      vertex -8 3.25 5.62916
    endloop
  endfacet
  facet normal 0 0.94693 0.32144
    outer loop
      vertex 3.73551e-16 6.27852 1.68232
      vertex -8 6.00522 2.48744
      vertex 5.52323e-16 6.00522 2.48744
    endloop
  endfacet
  facet normal 0 0.94693 0.32144
    outer loop
      vertex -8 6.00522 2.48744
      vertex 3.73551e-16 6.27852 1.68232
      vertex -8 6.27852 1.68232
    endloop
  endfacet
  facet normal 0 0.980785 0.19509
    outer loop
      vertex 1.88387e-16 6.44439 0.84842
      vertex -8 6.27852 1.68232
      vertex 3.73551e-16 6.27852 1.68232
    endloop
  endfacet
  facet normal 0 0.980785 0.19509
    outer loop
      vertex -8 6.27852 1.68232
      vertex 1.88387e-16 6.44439 0.84842
      vertex -8 6.44439 0.84842
    endloop
  endfacet
  facet normal 0 0.83147 0.55557
    outer loop
      vertex 7.21645e-16 5.62916 3.25
      vertex -8 5.1568 3.95695
      vertex 8.78619e-16 5.1568 3.95695
    endloop
  endfacet
  facet normal 0 0.83147 0.55557
    outer loop
      vertex -8 5.1568 3.95695
      vertex 7.21645e-16 5.62916 3.25
      vertex -8 5.62916 3.25
    endloop
  endfacet
  facet normal 0 0.442289 -0.896873
    outer loop
      vertex -8 2.48744 -6.00522
      vertex -1.24993e-15 3.25 -5.62916
      vertex -1.33343e-15 2.48744 -6.00522
    endloop
  endfacet
  facet normal 0 0.442289 -0.896873
    outer loop
      vertex -1.24993e-15 3.25 -5.62916
      vertex -8 2.48744 -6.00522
      vertex -8 3.25 -5.62916
    endloop
  endfacet
  facet normal 0 0.659347 -0.751839
    outer loop
      vertex -8 3.95695 -5.1568
      vertex -1.02056e-15 4.59619 -4.59619
      vertex -1.14504e-15 3.95695 -5.1568
    endloop
  endfacet
  facet normal 0 0.659347 -0.751839
    outer loop
      vertex -1.02056e-15 4.59619 -4.59619
      vertex -8 3.95695 -5.1568
      vertex -8 4.59619 -4.59619
    endloop
  endfacet
  facet normal 0 0.32144 -0.94693
    outer loop
      vertex -8 1.68232 -6.27852
      vertex -1.33343e-15 2.48744 -6.00522
      vertex -1.39411e-15 1.68232 -6.27852
    endloop
  endfacet
  facet normal 0 0.32144 -0.94693
    outer loop
      vertex -1.33343e-15 2.48744 -6.00522
      vertex -8 1.68232 -6.27852
      vertex -8 2.48744 -6.00522
    endloop
  endfacet
  facet normal 0 0.980785 -0.19509
    outer loop
      vertex -3.73551e-16 6.27852 -1.68232
      vertex -8 6.44439 -0.84842
      vertex -1.88387e-16 6.44439 -0.84842
    endloop
  endfacet
  facet normal 0 0.980785 -0.19509
    outer loop
      vertex -8 6.44439 -0.84842
      vertex -3.73551e-16 6.27852 -1.68232
      vertex -8 6.27852 -1.68232
    endloop
  endfacet
  facet normal 0 -0.896873 0.442289
    outer loop
      vertex -8 -6.00522 2.48744
      vertex 7.21645e-16 -5.62916 3.25
      vertex -8 -5.62916 3.25
    endloop
  endfacet
  facet normal 0 -0.896873 0.442289
    outer loop
      vertex 7.21645e-16 -5.62916 3.25
      vertex -8 -6.00522 2.48744
      vertex 5.52323e-16 -6.00522 2.48744
    endloop
  endfacet
  facet normal 0 -0.83147 0.55557
    outer loop
      vertex -8 -5.62916 3.25
      vertex 8.78619e-16 -5.1568 3.95695
      vertex -8 -5.1568 3.95695
    endloop
  endfacet
  facet normal 0 -0.83147 0.55557
    outer loop
      vertex 8.78619e-16 -5.1568 3.95695
      vertex -8 -5.62916 3.25
      vertex 7.21645e-16 -5.62916 3.25
    endloop
  endfacet
  facet normal 0 -0.751839 -0.659347
    outer loop
      vertex -8 -4.59619 -4.59619
      vertex -8.78619e-16 -5.1568 -3.95695
      vertex -8 -5.1568 -3.95695
    endloop
  endfacet
  facet normal 0 -0.751839 -0.659347
    outer loop
      vertex -8.78619e-16 -5.1568 -3.95695
      vertex -8 -4.59619 -4.59619
      vertex -1.02056e-15 -4.59619 -4.59619
    endloop
  endfacet
  facet normal 0 -0.94693 -0.32144
    outer loop
      vertex -8 -6.00522 -2.48744
      vertex -3.73551e-16 -6.27852 -1.68232
      vertex -8 -6.27852 -1.68232
    endloop
  endfacet
  facet normal 0 -0.94693 -0.32144
    outer loop
      vertex -3.73551e-16 -6.27852 -1.68232
      vertex -8 -6.00522 -2.48744
      vertex -5.52323e-16 -6.00522 -2.48744
    endloop
  endfacet
  facet normal 1 0 -2.22045e-16
    outer loop
      vertex 0 4 0
      vertex 0 6.5 0
      vertex 1.88387e-16 6.44439 0.84842
    endloop
  endfacet
  facet normal 1 0 -2.22045e-16
    outer loop
      vertex 1.1593e-16 3.96578 0.522104
      vertex 1.88387e-16 6.44439 0.84842
      vertex 3.73551e-16 6.27852 1.68232
    endloop
  endfacet
  facet normal 1 0 -2.22045e-16
    outer loop
      vertex 0 6.5 0
      vertex 0 4 0
      vertex -1.88387e-16 6.44439 -0.84842
    endloop
  endfacet
  facet normal 1 0 -2.22045e-16
    outer loop
      vertex 2.29877e-16 3.8637 1.03528
      vertex 3.73551e-16 6.27852 1.68232
      vertex 5.52323e-16 6.00522 2.48744
    endloop
  endfacet
  facet normal 1 0 -2.22045e-16
    outer loop
      vertex -1.1593e-16 3.96578 -0.522104
      vertex -1.88387e-16 6.44439 -0.84842
      vertex 0 4 0
    endloop
  endfacet
  facet normal 1 0 -2.22045e-16
    outer loop
      vertex 3.39891e-16 3.69552 1.53073
      vertex 5.52323e-16 6.00522 2.48744
      vertex 7.21645e-16 5.62916 3.25
    endloop
  endfacet
  facet normal 1 0 -2.22045e-16
    outer loop
      vertex -1.88387e-16 6.44439 -0.84842
      vertex -1.1593e-16 3.96578 -0.522104
      vertex -3.73551e-16 6.27852 -1.68232
    endloop
  endfacet
  facet normal 1 0 -2.22045e-16
    outer loop
      vertex 4.44089e-16 3.4641 2
      vertex 7.21645e-16 5.62916 3.25
      vertex 8.78619e-16 5.1568 3.95695
    endloop
  endfacet
  facet normal 1 0 -2.22045e-16
    outer loop
      vertex -2.29877e-16 3.8637 -1.03528
      vertex -3.73551e-16 6.27852 -1.68232
      vertex -1.1593e-16 3.96578 -0.522104
    endloop
  endfacet
  facet normal 1 0 -2.22045e-16
    outer loop
      vertex 5.40689e-16 3.17341 2.43505
      vertex 8.78619e-16 5.1568 3.95695
      vertex 1.02056e-15 4.59619 4.59619
    endloop
  endfacet
  facet normal 1 0 -2.22045e-16
    outer loop
      vertex -3.73551e-16 6.27852 -1.68232
      vertex -2.29877e-16 3.8637 -1.03528
      vertex -5.52323e-16 6.00522 -2.48744
    endloop
  endfacet
  facet normal 1 0 -2.22045e-16
    outer loop
      vertex -3.39891e-16 3.69552 -1.53073
      vertex -5.52323e-16 6.00522 -2.48744
      vertex -2.29877e-16 3.8637 -1.03528
    endloop
  endfacet
  facet normal 1 0 -2.22045e-16
    outer loop
      vertex 1.88387e-16 6.44439 0.84842
      vertex 1.1593e-16 3.96578 0.522104
      vertex 0 4 0
    endloop
  endfacet
  facet normal 1 0 -2.22045e-16
    outer loop
      vertex 6.28037e-16 2.82843 2.82843
      vertex 1.02056e-15 4.59619 4.59619
      vertex 1.14504e-15 3.95695 5.1568
    endloop
  endfacet
  facet normal 1 0 -2.22045e-16
    outer loop
      vertex 3.73551e-16 6.27852 1.68232
      vertex 2.29877e-16 3.8637 1.03528
      vertex 1.1593e-16 3.96578 0.522104
    endloop
  endfacet
  facet normal 1 0 -2.22045e-16
    outer loop
      vertex 5.52323e-16 6.00522 2.48744
      vertex 3.39891e-16 3.69552 1.53073
      vertex 2.29877e-16 3.8637 1.03528
    endloop
  endfacet
  facet normal 1 0 -2.22045e-16
    outer loop
      vertex 7.21645e-16 5.62916 3.25
      vertex 4.44089e-16 3.4641 2
      vertex 3.39891e-16 3.69552 1.53073
    endloop
  endfacet
  facet normal 1 0 -2.22045e-16
    outer loop
      vertex 7.04639e-16 2.43505 3.17341
      vertex 1.14504e-15 3.95695 5.1568
      vertex 1.24993e-15 3.25 5.62916
    endloop
  endfacet
  facet normal 1 0 -2.22045e-16
    outer loop
      vertex 8.78619e-16 5.1568 3.95695
      vertex 5.40689e-16 3.17341 2.43505
      vertex 4.44089e-16 3.4641 2
    endloop
  endfacet
  facet normal 1 0 -2.22045e-16
    outer loop
      vertex 1.02056e-15 4.59619 4.59619
      vertex 6.28037e-16 2.82843 2.82843
      vertex 5.40689e-16 3.17341 2.43505
    endloop
  endfacet
  facet normal 1 0 -2.22045e-16
    outer loop
      vertex 7.69185e-16 2 3.4641
      vertex 1.24993e-15 3.25 5.62916
      vertex 1.33343e-15 2.48744 6.00522
    endloop
  endfacet
  facet normal 1 0 -2.22045e-16
    outer loop
      vertex 1.14504e-15 3.95695 5.1568
      vertex 7.04639e-16 2.43505 3.17341
      vertex 6.28037e-16 2.82843 2.82843
    endloop
  endfacet
  facet normal 1 0 -2.22045e-16
    outer loop
      vertex 1.24993e-15 3.25 5.62916
      vertex 7.69185e-16 2 3.4641
      vertex 7.04639e-16 2.43505 3.17341
    endloop
  endfacet
  facet normal 1 0 -2.22045e-16
    outer loop
      vertex 8.2057e-16 1.53073 3.69552
      vertex 1.33343e-15 2.48744 6.00522
      vertex 1.39411e-15 1.68232 6.27852
    endloop
  endfacet
  facet normal 1 0 -2.22045e-16
    outer loop
      vertex 1.33343e-15 2.48744 6.00522
      vertex 8.2057e-16 1.53073 3.69552
      vertex 7.69185e-16 2 3.4641
    endloop
  endfacet
  facet normal 1 0 -2.22045e-16
    outer loop
      vertex 1.39411e-15 1.68232 6.27852
      vertex 8.57914e-16 1.03528 3.8637
      vertex 8.2057e-16 1.53073 3.69552
    endloop
  endfacet
  facet normal 1 0 -2.22045e-16
    outer loop
      vertex 1.43094e-15 0.84842 6.44439
      vertex 8.57914e-16 1.03528 3.8637
      vertex 1.39411e-15 1.68232 6.27852
    endloop
  endfacet
  facet normal 1 0 -2.22045e-16
    outer loop
      vertex 1.43094e-15 0.84842 6.44439
      vertex 8.8058e-16 0.522104 3.96578
      vertex 8.57914e-16 1.03528 3.8637
    endloop
  endfacet
  facet normal 1 0 -2.22045e-16
    outer loop
      vertex 1.44329e-15 0 6.5
      vertex 8.8058e-16 0.522104 3.96578
      vertex 1.43094e-15 0.84842 6.44439
    endloop
  endfacet
  facet normal 1 0 -2.22045e-16
    outer loop
      vertex 1.44329e-15 0 6.5
      vertex 8.88178e-16 0 4
      vertex 8.8058e-16 0.522104 3.96578
    endloop
  endfacet
  facet normal 1 0 -2.22045e-16
    outer loop
      vertex 1.44329e-15 0 6.5
      vertex 8.8058e-16 -0.522104 3.96578
      vertex 8.88178e-16 0 4
    endloop
  endfacet
  facet normal 1 0 -2.22045e-16
    outer loop
      vertex 1.43094e-15 -0.84842 6.44439
      vertex 8.8058e-16 -0.522104 3.96578
      vertex 1.44329e-15 0 6.5
    endloop
  endfacet
  facet normal 1 0 -2.22045e-16
    outer loop
      vertex 1.43094e-15 -0.84842 6.44439
      vertex 8.57914e-16 -1.03528 3.8637
      vertex 8.8058e-16 -0.522104 3.96578
    endloop
  endfacet
  facet normal 1 0 -2.22045e-16
    outer loop
      vertex 1.39411e-15 -1.68232 6.27852
      vertex 8.57914e-16 -1.03528 3.8637
      vertex 1.43094e-15 -0.84842 6.44439
    endloop
  endfacet
  facet normal 1 0 -2.22045e-16
    outer loop
      vertex 8.57914e-16 -1.03528 3.8637
      vertex 1.39411e-15 -1.68232 6.27852
      vertex 8.2057e-16 -1.53073 3.69552
    endloop
  endfacet
  facet normal 1 0 -2.22045e-16
    outer loop
      vertex 1.33343e-15 -2.48744 6.00522
      vertex 8.2057e-16 -1.53073 3.69552
      vertex 1.39411e-15 -1.68232 6.27852
    endloop
  endfacet
  facet normal 1 0 -2.22045e-16
    outer loop
      vertex 8.2057e-16 -1.53073 3.69552
      vertex 1.33343e-15 -2.48744 6.00522
      vertex 7.69185e-16 -2 3.4641
    endloop
  endfacet
  facet normal 1 0 -2.22045e-16
    outer loop
      vertex 1.24993e-15 -3.25 5.62916
      vertex 7.69185e-16 -2 3.4641
      vertex 1.33343e-15 -2.48744 6.00522
    endloop
  endfacet
  facet normal 1 0 -2.22045e-16
    outer loop
      vertex 7.69185e-16 -2 3.4641
      vertex 1.24993e-15 -3.25 5.62916
      vertex 7.04639e-16 -2.43505 3.17341
    endloop
  endfacet
  facet normal 1 0 -2.22045e-16
    outer loop
      vertex 1.14504e-15 -3.95695 5.1568
      vertex 7.04639e-16 -2.43505 3.17341
      vertex 1.24993e-15 -3.25 5.62916
    endloop
  endfacet
  facet normal 1 0 -2.22045e-16
    outer loop
      vertex 7.04639e-16 -2.43505 3.17341
      vertex 1.14504e-15 -3.95695 5.1568
      vertex 6.28037e-16 -2.82843 2.82843
    endloop
  endfacet
  facet normal 1 0 -2.22045e-16
    outer loop
      vertex 1.02056e-15 -4.59619 4.59619
      vertex 6.28037e-16 -2.82843 2.82843
      vertex 1.14504e-15 -3.95695 5.1568
    endloop
  endfacet
  facet normal 1 0 -2.22045e-16
    outer loop
      vertex 6.28037e-16 -2.82843 2.82843
      vertex 1.02056e-15 -4.59619 4.59619
      vertex 5.40689e-16 -3.17341 2.43505
    endloop
  endfacet
  facet normal 1 0 -2.22045e-16
    outer loop
      vertex 8.78619e-16 -5.1568 3.95695
      vertex 5.40689e-16 -3.17341 2.43505
      vertex 1.02056e-15 -4.59619 4.59619
    endloop
  endfacet
  facet normal 1 0 -2.22045e-16
    outer loop
      vertex 5.40689e-16 -3.17341 2.43505
      vertex 8.78619e-16 -5.1568 3.95695
      vertex 4.44089e-16 -3.4641 2
    endloop
  endfacet
  facet normal 1 0 -2.22045e-16
    outer loop
      vertex 7.21645e-16 -5.62916 3.25
      vertex 4.44089e-16 -3.4641 2
      vertex 8.78619e-16 -5.1568 3.95695
    endloop
  endfacet
  facet normal 1 0 -2.22045e-16
    outer loop
      vertex 4.44089e-16 -3.4641 2
      vertex 7.21645e-16 -5.62916 3.25
      vertex 3.39891e-16 -3.69552 1.53073
    endloop
  endfacet
  facet normal 1 0 -2.22045e-16
    outer loop
      vertex 5.52323e-16 -6.00522 2.48744
      vertex 3.39891e-16 -3.69552 1.53073
      vertex 7.21645e-16 -5.62916 3.25
    endloop
  endfacet
  facet normal 1 0 -2.22045e-16
    outer loop
      vertex -5.52323e-16 6.00522 -2.48744
      vertex -3.39891e-16 3.69552 -1.53073
      vertex -7.21645e-16 5.62916 -3.25
    endloop
  endfacet
  facet normal 1 0 -2.22045e-16
    outer loop
      vertex -4.44089e-16 3.4641 -2
      vertex -7.21645e-16 5.62916 -3.25
      vertex -3.39891e-16 3.69552 -1.53073
    endloop
  endfacet
  facet normal 1 0 -2.22045e-16
    outer loop
      vertex -7.21645e-16 5.62916 -3.25
      vertex -4.44089e-16 3.4641 -2
      vertex -8.78619e-16 5.1568 -3.95695
    endloop
  endfacet
  facet normal 1 0 -2.22045e-16
    outer loop
      vertex -5.40689e-16 3.17341 -2.43505
      vertex -8.78619e-16 5.1568 -3.95695
      vertex -4.44089e-16 3.4641 -2
    endloop
  endfacet
  facet normal 1 0 -2.22045e-16
    outer loop
      vertex -8.78619e-16 5.1568 -3.95695
      vertex -5.40689e-16 3.17341 -2.43505
      vertex -1.02056e-15 4.59619 -4.59619
    endloop
  endfacet
  facet normal 1 0 -2.22045e-16
    outer loop
      vertex -6.28037e-16 2.82843 -2.82843
      vertex -1.02056e-15 4.59619 -4.59619
      vertex -5.40689e-16 3.17341 -2.43505
    endloop
  endfacet
  facet normal 1 0 -2.22045e-16
    outer loop
      vertex -1.02056e-15 4.59619 -4.59619
      vertex -6.28037e-16 2.82843 -2.82843
      vertex -1.14504e-15 3.95695 -5.1568
    endloop
  endfacet
  facet normal 1 0 -2.22045e-16
    outer loop
      vertex -7.04639e-16 2.43505 -3.17341
      vertex -1.14504e-15 3.95695 -5.1568
      vertex -6.28037e-16 2.82843 -2.82843
    endloop
  endfacet
  facet normal 1 0 -2.22045e-16
    outer loop
      vertex -1.14504e-15 3.95695 -5.1568
      vertex -7.04639e-16 2.43505 -3.17341
      vertex -1.24993e-15 3.25 -5.62916
    endloop
  endfacet
  facet normal 1 0 -2.22045e-16
    outer loop
      vertex -7.69185e-16 2 -3.4641
      vertex -1.24993e-15 3.25 -5.62916
      vertex -7.04639e-16 2.43505 -3.17341
    endloop
  endfacet
  facet normal 1 0 -2.22045e-16
    outer loop
      vertex -1.24993e-15 3.25 -5.62916
      vertex -7.69185e-16 2 -3.4641
      vertex -1.33343e-15 2.48744 -6.00522
    endloop
  endfacet
  facet normal 1 0 -2.22045e-16
    outer loop
      vertex -8.2057e-16 1.53073 -3.69552
      vertex -1.33343e-15 2.48744 -6.00522
      vertex -7.69185e-16 2 -3.4641
    endloop
  endfacet
  facet normal 1 0 -2.22045e-16
    outer loop
      vertex -1.33343e-15 2.48744 -6.00522
      vertex -8.2057e-16 1.53073 -3.69552
      vertex -1.39411e-15 1.68232 -6.27852
    endloop
  endfacet
  facet normal 1 0 -2.22045e-16
    outer loop
      vertex -8.57914e-16 1.03528 -3.8637
      vertex -1.39411e-15 1.68232 -6.27852
      vertex -8.2057e-16 1.53073 -3.69552
    endloop
  endfacet
  facet normal 1 0 -2.22045e-16
    outer loop
      vertex -8.57914e-16 1.03528 -3.8637
      vertex -1.43094e-15 0.84842 -6.44439
      vertex -1.39411e-15 1.68232 -6.27852
    endloop
  endfacet
  facet normal 1 0 -2.22045e-16
    outer loop
      vertex -8.8058e-16 0.522104 -3.96578
      vertex -1.43094e-15 0.84842 -6.44439
      vertex -8.57914e-16 1.03528 -3.8637
    endloop
  endfacet
  facet normal 1 0 -2.22045e-16
    outer loop
      vertex -8.88178e-16 0 -4
      vertex -1.43094e-15 0.84842 -6.44439
      vertex -8.8058e-16 0.522104 -3.96578
    endloop
  endfacet
  facet normal 1 0 -2.22045e-16
    outer loop
      vertex -8.88178e-16 0 -4
      vertex -1.44329e-15 0 -6.5
      vertex -1.43094e-15 0.84842 -6.44439
    endloop
  endfacet
  facet normal 1 0 -2.22045e-16
    outer loop
      vertex -8.8058e-16 -0.522104 -3.96578
      vertex -1.44329e-15 0 -6.5
      vertex -8.88178e-16 0 -4
    endloop
  endfacet
  facet normal 1 0 -2.22045e-16
    outer loop
      vertex -8.8058e-16 -0.522104 -3.96578
      vertex -1.43094e-15 -0.84842 -6.44439
      vertex -1.44329e-15 0 -6.5
    endloop
  endfacet
  facet normal 1 0 -2.22045e-16
    outer loop
      vertex -8.57914e-16 -1.03528 -3.8637
      vertex -1.43094e-15 -0.84842 -6.44439
      vertex -8.8058e-16 -0.522104 -3.96578
    endloop
  endfacet
  facet normal 1 0 -2.22045e-16
    outer loop
      vertex -1.39411e-15 -1.68232 -6.27852
      vertex -8.57914e-16 -1.03528 -3.8637
      vertex -8.2057e-16 -1.53073 -3.69552
    endloop
  endfacet
  facet normal 1 0 -2.22045e-16
    outer loop
      vertex -8.57914e-16 -1.03528 -3.8637
      vertex -1.39411e-15 -1.68232 -6.27852
      vertex -1.43094e-15 -0.84842 -6.44439
    endloop
  endfacet
  facet normal 1 0 -2.22045e-16
    outer loop
      vertex -1.33343e-15 -2.48744 -6.00522
      vertex -8.2057e-16 -1.53073 -3.69552
      vertex -7.69185e-16 -2 -3.4641
    endloop
  endfacet
  facet normal 1 0 -2.22045e-16
    outer loop
      vertex -1.24993e-15 -3.25 -5.62916
      vertex -7.69185e-16 -2 -3.4641
      vertex -7.04639e-16 -2.43505 -3.17341
    endloop
  endfacet
  facet normal 1 0 -2.22045e-16
    outer loop
      vertex -8.2057e-16 -1.53073 -3.69552
      vertex -1.33343e-15 -2.48744 -6.00522
      vertex -1.39411e-15 -1.68232 -6.27852
    endloop
  endfacet
  facet normal 1 0 -2.22045e-16
    outer loop
      vertex -1.14504e-15 -3.95695 -5.1568
      vertex -7.04639e-16 -2.43505 -3.17341
      vertex -6.28037e-16 -2.82843 -2.82843
    endloop
  endfacet
  facet normal 1 0 -2.22045e-16
    outer loop
      vertex -1.02056e-15 -4.59619 -4.59619
      vertex -6.28037e-16 -2.82843 -2.82843
      vertex -5.40689e-16 -3.17341 -2.43505
    endloop
  endfacet
  facet normal 1 0 -2.22045e-16
    outer loop
      vertex -7.69185e-16 -2 -3.4641
      vertex -1.24993e-15 -3.25 -5.62916
      vertex -1.33343e-15 -2.48744 -6.00522
    endloop
  endfacet
  facet normal 1 0 -2.22045e-16
    outer loop
      vertex -8.78619e-16 -5.1568 -3.95695
      vertex -5.40689e-16 -3.17341 -2.43505
      vertex -4.44089e-16 -3.4641 -2
    endloop
  endfacet
  facet normal 1 0 -2.22045e-16
    outer loop
      vertex -7.21645e-16 -5.62916 -3.25
      vertex -4.44089e-16 -3.4641 -2
      vertex -3.39891e-16 -3.69552 -1.53073
    endloop
  endfacet
  facet normal 1 0 -2.22045e-16
    outer loop
      vertex -5.52323e-16 -6.00522 -2.48744
      vertex -3.39891e-16 -3.69552 -1.53073
      vertex -2.29877e-16 -3.8637 -1.03528
    endloop
  endfacet
  facet normal 1 0 -2.22045e-16
    outer loop
      vertex -7.04639e-16 -2.43505 -3.17341
      vertex -1.14504e-15 -3.95695 -5.1568
      vertex -1.24993e-15 -3.25 -5.62916
    endloop
  endfacet
  facet normal 1 0 -2.22045e-16
    outer loop
      vertex -3.73551e-16 -6.27852 -1.68232
      vertex -2.29877e-16 -3.8637 -1.03528
      vertex -1.1593e-16 -3.96578 -0.522104
    endloop
  endfacet
  facet normal 1 0 -2.22045e-16
    outer loop
      vertex -1.88387e-16 -6.44439 -0.84842
      vertex -1.1593e-16 -3.96578 -0.522104
      vertex 0 -4 0
    endloop
  endfacet
  facet normal 1 0 -2.22045e-16
    outer loop
      vertex 3.39891e-16 -3.69552 1.53073
      vertex 5.52323e-16 -6.00522 2.48744
      vertex 2.29877e-16 -3.8637 1.03528
    endloop
  endfacet
  facet normal 1 0 -2.22045e-16
    outer loop
      vertex -6.28037e-16 -2.82843 -2.82843
      vertex -1.02056e-15 -4.59619 -4.59619
      vertex -1.14504e-15 -3.95695 -5.1568
    endloop
  endfacet
  facet normal 1 0 -2.22045e-16
    outer loop
      vertex 3.73551e-16 -6.27852 1.68232
      vertex 2.29877e-16 -3.8637 1.03528
      vertex 5.52323e-16 -6.00522 2.48744
    endloop
  endfacet
  facet normal 1 0 -2.22045e-16
    outer loop
      vertex -5.40689e-16 -3.17341 -2.43505
      vertex -8.78619e-16 -5.1568 -3.95695
      vertex -1.02056e-15 -4.59619 -4.59619
    endloop
  endfacet
  facet normal 1 0 -2.22045e-16
    outer loop
      vertex 2.29877e-16 -3.8637 1.03528
      vertex 3.73551e-16 -6.27852 1.68232
      vertex 1.1593e-16 -3.96578 0.522104
    endloop
  endfacet
  facet normal 1 0 -2.22045e-16
    outer loop
      vertex -4.44089e-16 -3.4641 -2
      vertex -7.21645e-16 -5.62916 -3.25
      vertex -8.78619e-16 -5.1568 -3.95695
    endloop
  endfacet
  facet normal 1 0 -2.22045e-16
    outer loop
      vertex 1.88387e-16 -6.44439 0.84842
      vertex 1.1593e-16 -3.96578 0.522104
      vertex 3.73551e-16 -6.27852 1.68232
    endloop
  endfacet
  facet normal 1 0 -2.22045e-16
    outer loop
      vertex -3.39891e-16 -3.69552 -1.53073
      vertex -5.52323e-16 -6.00522 -2.48744
      vertex -7.21645e-16 -5.62916 -3.25
    endloop
  endfacet
  facet normal 1 0 -2.22045e-16
    outer loop
      vertex 1.1593e-16 -3.96578 0.522104
      vertex 1.88387e-16 -6.44439 0.84842
      vertex 0 -4 0
    endloop
  endfacet
  facet normal 1 0 -2.22045e-16
    outer loop
      vertex -2.29877e-16 -3.8637 -1.03528
      vertex -3.73551e-16 -6.27852 -1.68232
      vertex -5.52323e-16 -6.00522 -2.48744
    endloop
  endfacet
  facet normal 1 0 -2.22045e-16
    outer loop
      vertex 0 -6.5 0
      vertex 0 -4 0
      vertex 1.88387e-16 -6.44439 0.84842
    endloop
  endfacet
  facet normal 1 0 -2.22045e-16
    outer loop
      vertex -1.1593e-16 -3.96578 -0.522104
      vertex -1.88387e-16 -6.44439 -0.84842
      vertex -3.73551e-16 -6.27852 -1.68232
    endloop
  endfacet
  facet normal 1 0 -2.22045e-16
    outer loop
      vertex 0 -4 0
      vertex 0 -6.5 0
      vertex -1.88387e-16 -6.44439 -0.84842
    endloop
  endfacet
  facet normal -0 0.32144 0.94693
    outer loop
      vertex -8 2.48744 6.00522
      vertex 1.39411e-15 1.68232 6.27852
      vertex 1.33343e-15 2.48744 6.00522
    endloop
  endfacet
  facet normal 0 0.32144 0.94693
    outer loop
      vertex 1.39411e-15 1.68232 6.27852
      vertex -8 2.48744 6.00522
      vertex -8 1.68232 6.27852
    endloop
  endfacet
  facet normal -0 0.659347 0.751839
    outer loop
      vertex -8 4.59619 4.59619
      vertex 1.14504e-15 3.95695 5.1568
      vertex 1.02056e-15 4.59619 4.59619
    endloop
  endfacet
  facet normal 0 0.659347 0.751839
    outer loop
      vertex 1.14504e-15 3.95695 5.1568
      vertex -8 4.59619 4.59619
      vertex -8 3.95695 5.1568
    endloop
  endfacet
  facet normal 0 0.896873 0.442289
    outer loop
      vertex 5.52323e-16 6.00522 2.48744
      vertex -8 5.62916 3.25
      vertex 7.21645e-16 5.62916 3.25
    endloop
  endfacet
  facet normal 0 0.896873 0.442289
    outer loop
      vertex -8 5.62916 3.25
      vertex 5.52323e-16 6.00522 2.48744
      vertex -8 6.00522 2.48744
    endloop
  endfacet
  facet normal 0 0.55557 -0.83147
    outer loop
      vertex -8 3.25 -5.62916
      vertex -1.14504e-15 3.95695 -5.1568
      vertex -1.24993e-15 3.25 -5.62916
    endloop
  endfacet
  facet normal 0 0.55557 -0.83147
    outer loop
      vertex -1.14504e-15 3.95695 -5.1568
      vertex -8 3.25 -5.62916
      vertex -8 3.95695 -5.1568
    endloop
  endfacet
  facet normal 0 0.19509 -0.980785
    outer loop
      vertex -8 0.84842 -6.44439
      vertex -1.39411e-15 1.68232 -6.27852
      vertex -1.43094e-15 0.84842 -6.44439
    endloop
  endfacet
  facet normal 0 0.19509 -0.980785
    outer loop
      vertex -1.39411e-15 1.68232 -6.27852
      vertex -8 0.84842 -6.44439
      vertex -8 1.68232 -6.27852
    endloop
  endfacet
  facet normal -1 0 0
    outer loop
      vertex -8 3 -1.73205
      vertex -8 6.5 1.77636e-15
      vertex -8 6.44439 -0.84842
    endloop
  endfacet
  facet normal -1 0 0
    outer loop
      vertex -8 3 -1.73205
      vertex -8 6.44439 -0.84842
      vertex -8 6.27852 -1.68232
    endloop
  endfacet
  facet normal -1 0 0
    outer loop
      vertex -8 3 1.73205
      vertex -8 6.5 1.77636e-15
      vertex -8 3 -1.73205
    endloop
  endfacet
  facet normal -1 0 0
    outer loop
      vertex -8 3 -1.73205
      vertex -8 6.27852 -1.68232
      vertex -8 6.00522 -2.48744
    endloop
  endfacet
  facet normal -1 0 0
    outer loop
      vertex -8 6.5 1.77636e-15
      vertex -8 3 1.73205
      vertex -8 6.44439 0.84842
    endloop
  endfacet
  facet normal -1 0 0
    outer loop
      vertex -8 3 -1.73205
      vertex -8 6.00522 -2.48744
      vertex -8 5.62916 -3.25
    endloop
  endfacet
  facet normal -1 0 0
    outer loop
      vertex -8 6.44439 0.84842
      vertex -8 3 1.73205
      vertex -8 6.27852 1.68232
    endloop
  endfacet
  facet normal -1 0 0
    outer loop
      vertex -8 3 -1.73205
      vertex -8 5.62916 -3.25
      vertex -8 5.1568 -3.95695
    endloop
  endfacet
  facet normal -1 0 0
    outer loop
      vertex -8 6.27852 1.68232
      vertex -8 3 1.73205
      vertex -8 6.00522 2.48744
    endloop
  endfacet
  facet normal -1 0 0
    outer loop
      vertex -8 3 -1.73205
      vertex -8 5.1568 -3.95695
      vertex -8 4.59619 -4.59619
    endloop
  endfacet
  facet normal -1 -0 0
    outer loop
      vertex -8 6.00522 2.48744
      vertex -8 3 1.73205
      vertex -8 5.62916 3.25
    endloop
  endfacet
  facet normal -1 0 0
    outer loop
      vertex -8 3 -1.73205
      vertex -8 4.59619 -4.59619
      vertex -8 3.95695 -5.1568
    endloop
  endfacet
  facet normal -1 -0 0
    outer loop
      vertex -8 5.62916 3.25
      vertex -8 3 1.73205
      vertex -8 5.1568 3.95695
    endloop
  endfacet
  facet normal -1 0 0
    outer loop
      vertex -8 3 -1.73205
      vertex -8 3.95695 -5.1568
      vertex -8 3.25 -5.62916
    endloop
  endfacet
  facet normal -1 -0 0
    outer loop
      vertex -8 5.1568 3.95695
      vertex -8 3 1.73205
      vertex -8 4.59619 4.59619
    endloop
  endfacet
  facet normal -1 -0 0
    outer loop
      vertex -8 4.59619 4.59619
      vertex -8 3 1.73205
      vertex -8 3.95695 5.1568
    endloop
  endfacet
  facet normal -1 0 0
    outer loop
      vertex -8 0 -3.4641
      vertex -8 3.25 -5.62916
      vertex -8 2.48744 -6.00522
    endloop
  endfacet
  facet normal -1 0 0
    outer loop
      vertex -8 0 -3.4641
      vertex -8 2.48744 -6.00522
      vertex -8 1.68232 -6.27852
    endloop
  endfacet
  facet normal -1 0 0
    outer loop
      vertex -8 0 -3.4641
      vertex -8 1.68232 -6.27852
      vertex -8 0.84842 -6.44439
    endloop
  endfacet
  facet normal -1 0 0
    outer loop
      vertex -8 0 -3.4641
      vertex -8 0.84842 -6.44439
      vertex -8 0 -6.5
    endloop
  endfacet
  facet normal -1 0 0
    outer loop
      vertex -8 3.25 -5.62916
      vertex -8 0 -3.4641
      vertex -8 3 -1.73205
    endloop
  endfacet
  facet normal -1 0 0
    outer loop
      vertex -8 -0.84842 -6.44439
      vertex -8 0 -3.4641
      vertex -8 0 -6.5
    endloop
  endfacet
  facet normal -1 0 0
    outer loop
      vertex -8 -1.68232 -6.27852
      vertex -8 0 -3.4641
      vertex -8 -0.84842 -6.44439
    endloop
  endfacet
  facet normal -1 0 0
    outer loop
      vertex -8 -2.48744 -6.00522
      vertex -8 0 -3.4641
      vertex -8 -1.68232 -6.27852
    endloop
  endfacet
  facet normal -1 0 0
    outer loop
      vertex -8 -3.25 -5.62916
      vertex -8 0 -3.4641
      vertex -8 -2.48744 -6.00522
    endloop
  endfacet
  facet normal -1 0 0
    outer loop
      vertex -8 -3.95695 -5.1568
      vertex -8 -3 -1.73205
      vertex -8 -3.25 -5.62916
    endloop
  endfacet
  facet normal -1 -0 0
    outer loop
      vertex -8 0 -3.4641
      vertex -8 -3.25 -5.62916
      vertex -8 -3 -1.73205
    endloop
  endfacet
  facet normal -1 -0 0
    outer loop
      vertex -8 3.95695 5.1568
      vertex -8 3 1.73205
      vertex -8 3.25 5.62916
    endloop
  endfacet
  facet normal -1 0 0
    outer loop
      vertex -8 0 3.4641
      vertex -8 3.25 5.62916
      vertex -8 3 1.73205
    endloop
  endfacet
  facet normal -1 -0 0
    outer loop
      vertex -8 3.25 5.62916
      vertex -8 0 3.4641
      vertex -8 2.48744 6.00522
    endloop
  endfacet
  facet normal -1 -0 0
    outer loop
      vertex -8 2.48744 6.00522
      vertex -8 0 3.4641
      vertex -8 1.68232 6.27852
    endloop
  endfacet
  facet normal -1 -0 0
    outer loop
      vertex -8 1.68232 6.27852
      vertex -8 0 3.4641
      vertex -8 0.84842 6.44439
    endloop
  endfacet
  facet normal -1 0 0
    outer loop
      vertex -8 0 3.4641
      vertex -8 0 6.5
      vertex -8 0.84842 6.44439
    endloop
  endfacet
  facet normal -1 0 0
    outer loop
      vertex -8 0 3.4641
      vertex -8 -0.84842 6.44439
      vertex -8 0 6.5
    endloop
  endfacet
  facet normal -1 0 0
    outer loop
      vertex -8 0 3.4641
      vertex -8 -1.68232 6.27852
      vertex -8 -0.84842 6.44439
    endloop
  endfacet
  facet normal -1 0 0
    outer loop
      vertex -8 0 3.4641
      vertex -8 -2.48744 6.00522
      vertex -8 -1.68232 6.27852
    endloop
  endfacet
  facet normal -1 0 0
    outer loop
      vertex -8 -3.25 5.62916
      vertex -8 0 3.4641
      vertex -8 -3 1.73205
    endloop
  endfacet
  facet normal -1 0 0
    outer loop
      vertex -8 0 3.4641
      vertex -8 -3.25 5.62916
      vertex -8 -2.48744 6.00522
    endloop
  endfacet
  facet normal -1 0 0
    outer loop
      vertex -8 -4.59619 -4.59619
      vertex -8 -3 -1.73205
      vertex -8 -3.95695 -5.1568
    endloop
  endfacet
  facet normal -1 0 0
    outer loop
      vertex -8 -5.1568 -3.95695
      vertex -8 -3 -1.73205
      vertex -8 -4.59619 -4.59619
    endloop
  endfacet
  facet normal -1 0 0
    outer loop
      vertex -8 -3 1.73205
      vertex -8 -3.95695 5.1568
      vertex -8 -3.25 5.62916
    endloop
  endfacet
  facet normal -1 0 0
    outer loop
      vertex -8 -5.62916 -3.25
      vertex -8 -3 -1.73205
      vertex -8 -5.1568 -3.95695
    endloop
  endfacet
  facet normal -1 0 0
    outer loop
      vertex -8 -3 1.73205
      vertex -8 -4.59619 4.59619
      vertex -8 -3.95695 5.1568
    endloop
  endfacet
  facet normal -1 0 0
    outer loop
      vertex -8 -6.00522 -2.48744
      vertex -8 -3 -1.73205
      vertex -8 -5.62916 -3.25
    endloop
  endfacet
  facet normal -1 0 0
    outer loop
      vertex -8 -3 1.73205
      vertex -8 -5.1568 3.95695
      vertex -8 -4.59619 4.59619
    endloop
  endfacet
  facet normal -1 0 0
    outer loop
      vertex -8 -6.27852 -1.68232
      vertex -8 -3 -1.73205
      vertex -8 -6.00522 -2.48744
    endloop
  endfacet
  facet normal -1 0 0
    outer loop
      vertex -8 -3 1.73205
      vertex -8 -5.62916 3.25
      vertex -8 -5.1568 3.95695
    endloop
  endfacet
  facet normal -1 0 0
    outer loop
      vertex -8 -6.44439 -0.84842
      vertex -8 -3 -1.73205
      vertex -8 -6.27852 -1.68232
    endloop
  endfacet
  facet normal -1 0 0
    outer loop
      vertex -8 -3 1.73205
      vertex -8 -6.00522 2.48744
      vertex -8 -5.62916 3.25
    endloop
  endfacet
  facet normal -1 0 0
    outer loop
      vertex -8 -6.5 1.77636e-15
      vertex -8 -3 -1.73205
      vertex -8 -6.44439 -0.84842
    endloop
  endfacet
  facet normal -1 -0 0
    outer loop
      vertex -8 -3 1.73205
      vertex -8 -6.27852 1.68232
      vertex -8 -6.00522 2.48744
    endloop
  endfacet
  facet normal -1 0 0
    outer loop
      vertex -8 -3 -1.73205
      vertex -8 -6.5 1.77636e-15
      vertex -8 -3 1.73205
    endloop
  endfacet
  facet normal -1 0 0
    outer loop
      vertex -8 -3 1.73205
      vertex -8 -6.44439 0.84842
      vertex -8 -6.27852 1.68232
    endloop
  endfacet
  facet normal -1 0 0
    outer loop
      vertex -8 -3 1.73205
      vertex -8 -6.5 1.77636e-15
      vertex -8 -6.44439 0.84842
    endloop
  endfacet
  facet normal 0 0.896873 -0.442289
    outer loop
      vertex -7.21645e-16 5.62916 -3.25
      vertex -8 6.00522 -2.48744
      vertex -5.52323e-16 6.00522 -2.48744
    endloop
  endfacet
  facet normal 0 0.896873 -0.442289
    outer loop
      vertex -8 6.00522 -2.48744
      vertex -7.21645e-16 5.62916 -3.25
      vertex -8 5.62916 -3.25
    endloop
  endfacet
  facet normal 0 0.83147 -0.55557
    outer loop
      vertex -8.78619e-16 5.1568 -3.95695
      vertex -8 5.62916 -3.25
      vertex -7.21645e-16 5.62916 -3.25
    endloop
  endfacet
  facet normal 0 0.83147 -0.55557
    outer loop
      vertex -8 5.62916 -3.25
      vertex -8.78619e-16 5.1568 -3.95695
      vertex -8 5.1568 -3.95695
    endloop
  endfacet
  facet normal -1.42819e-17 0.997859 -0.0654035
    outer loop
      vertex -1.88387e-16 6.44439 -0.84842
      vertex -8 6.5 1.77636e-15
      vertex 0 6.5 0
    endloop
  endfacet
  facet normal 0 0.997859 -0.0654035
    outer loop
      vertex -8 6.5 1.77636e-15
      vertex -1.88387e-16 6.44439 -0.84842
      vertex -8 6.44439 -0.84842
    endloop
  endfacet
  facet normal 0 -0.0654035 0.997859
    outer loop
      vertex -8 0 6.5
      vertex 1.43094e-15 -0.84842 6.44439
      vertex 1.44329e-15 0 6.5
    endloop
  endfacet
  facet normal 0 -0.0654035 0.997859
    outer loop
      vertex 1.43094e-15 -0.84842 6.44439
      vertex -8 0 6.5
      vertex -8 -0.84842 6.44439
    endloop
  endfacet
  facet normal 0 -0.997859 0.0654035
    outer loop
      vertex -8 -6.5 1.77636e-15
      vertex 1.88387e-16 -6.44439 0.84842
      vertex -8 -6.44439 0.84842
    endloop
  endfacet
  facet normal 1.42819e-17 -0.997859 0.0654035
    outer loop
      vertex 1.88387e-16 -6.44439 0.84842
      vertex -8 -6.5 1.77636e-15
      vertex 0 -6.5 0
    endloop
  endfacet
  facet normal 0 -0.94693 0.32144
    outer loop
      vertex -8 -6.27852 1.68232
      vertex 5.52323e-16 -6.00522 2.48744
      vertex -8 -6.00522 2.48744
    endloop
  endfacet
  facet normal 0 -0.94693 0.32144
    outer loop
      vertex 5.52323e-16 -6.00522 2.48744
      vertex -8 -6.27852 1.68232
      vertex 3.73551e-16 -6.27852 1.68232
    endloop
  endfacet
  facet normal 0 -0.751839 0.659347
    outer loop
      vertex -8 -5.1568 3.95695
      vertex 1.02056e-15 -4.59619 4.59619
      vertex -8 -4.59619 4.59619
    endloop
  endfacet
  facet normal 0 -0.751839 0.659347
    outer loop
      vertex 1.02056e-15 -4.59619 4.59619
      vertex -8 -5.1568 3.95695
      vertex 8.78619e-16 -5.1568 3.95695
    endloop
  endfacet
  facet normal 0 -0.55557 0.83147
    outer loop
      vertex -8 -3.25 5.62916
      vertex 1.14504e-15 -3.95695 5.1568
      vertex 1.24993e-15 -3.25 5.62916
    endloop
  endfacet
  facet normal 0 -0.55557 0.83147
    outer loop
      vertex 1.14504e-15 -3.95695 5.1568
      vertex -8 -3.25 5.62916
      vertex -8 -3.95695 5.1568
    endloop
  endfacet
  facet normal 0 -0.19509 0.980785
    outer loop
      vertex -8 -0.84842 6.44439
      vertex 1.39411e-15 -1.68232 6.27852
      vertex 1.43094e-15 -0.84842 6.44439
    endloop
  endfacet
  facet normal 0 -0.19509 0.980785
    outer loop
      vertex 1.39411e-15 -1.68232 6.27852
      vertex -8 -0.84842 6.44439
      vertex -8 -1.68232 6.27852
    endloop
  endfacet
  facet normal 0 -0.83147 -0.55557
    outer loop
      vertex -8 -5.1568 -3.95695
      vertex -7.21645e-16 -5.62916 -3.25
      vertex -8 -5.62916 -3.25
    endloop
  endfacet
  facet normal 0 -0.83147 -0.55557
    outer loop
      vertex -7.21645e-16 -5.62916 -3.25
      vertex -8 -5.1568 -3.95695
      vertex -8.78619e-16 -5.1568 -3.95695
    endloop
  endfacet
  facet normal 0 -0.980785 -0.19509
    outer loop
      vertex -8 -6.27852 -1.68232
      vertex -1.88387e-16 -6.44439 -0.84842
      vertex -8 -6.44439 -0.84842
    endloop
  endfacet
  facet normal 0 -0.980785 -0.19509
    outer loop
      vertex -1.88387e-16 -6.44439 -0.84842
      vertex -8 -6.27852 -1.68232
      vertex -3.73551e-16 -6.27852 -1.68232
    endloop
  endfacet
  facet normal 0 -0.442289 -0.896873
    outer loop
      vertex -8 -3.25 -5.62916
      vertex -1.33343e-15 -2.48744 -6.00522
      vertex -1.24993e-15 -3.25 -5.62916
    endloop
  endfacet
  facet normal -0 -0.442289 -0.896873
    outer loop
      vertex -1.33343e-15 -2.48744 -6.00522
      vertex -8 -3.25 -5.62916
      vertex -8 -2.48744 -6.00522
    endloop
  endfacet
  facet normal 0 -0.32144 -0.94693
    outer loop
      vertex -8 -2.48744 -6.00522
      vertex -1.39411e-15 -1.68232 -6.27852
      vertex -1.33343e-15 -2.48744 -6.00522
    endloop
  endfacet
  facet normal -0 -0.32144 -0.94693
    outer loop
      vertex -1.39411e-15 -1.68232 -6.27852
      vertex -8 -2.48744 -6.00522
      vertex -8 -1.68232 -6.27852
    endloop
  endfacet
  facet normal 0 -0.0654035 -0.997859
    outer loop
      vertex -8 -0.84842 -6.44439
      vertex -1.44329e-15 0 -6.5
      vertex -1.43094e-15 -0.84842 -6.44439
    endloop
  endfacet
  facet normal -0 -0.0654035 -0.997859
    outer loop
      vertex -1.44329e-15 0 -6.5
      vertex -8 -0.84842 -6.44439
      vertex -8 0 -6.5
    endloop
  endfacet
  facet normal 0 -0.980785 0.19509
    outer loop
      vertex -8 -6.44439 0.84842
      vertex 3.73551e-16 -6.27852 1.68232
      vertex -8 -6.27852 1.68232
    endloop
  endfacet
  facet normal 0 -0.980785 0.19509
    outer loop
      vertex 3.73551e-16 -6.27852 1.68232
      vertex -8 -6.44439 0.84842
      vertex 1.88387e-16 -6.44439 0.84842
    endloop
  endfacet
  facet normal 0 -0.442289 0.896873
    outer loop
      vertex -8 -2.48744 6.00522
      vertex 1.24993e-15 -3.25 5.62916
      vertex 1.33343e-15 -2.48744 6.00522
    endloop
  endfacet
  facet normal 0 -0.442289 0.896873
    outer loop
      vertex 1.24993e-15 -3.25 5.62916
      vertex -8 -2.48744 6.00522
      vertex -8 -3.25 5.62916
    endloop
  endfacet
  facet normal 0 -0.896873 -0.442289
    outer loop
      vertex -8 -5.62916 -3.25
      vertex -5.52323e-16 -6.00522 -2.48744
      vertex -8 -6.00522 -2.48744
    endloop
  endfacet
  facet normal 0 -0.896873 -0.442289
    outer loop
      vertex -5.52323e-16 -6.00522 -2.48744
      vertex -8 -5.62916 -3.25
      vertex -7.21645e-16 -5.62916 -3.25
    endloop
  endfacet
  facet normal -1.42819e-17 -0.997859 -0.0654035
    outer loop
      vertex -8 -6.44439 -0.84842
      vertex 0 -6.5 0
      vertex -8 -6.5 1.77636e-15
    endloop
  endfacet
  facet normal 0 -0.997859 -0.0654035
    outer loop
      vertex 0 -6.5 0
      vertex -8 -6.44439 -0.84842
      vertex -1.88387e-16 -6.44439 -0.84842
    endloop
  endfacet
  facet normal 0 -0.55557 -0.83147
    outer loop
      vertex -8 -3.95695 -5.1568
      vertex -1.24993e-15 -3.25 -5.62916
      vertex -1.14504e-15 -3.95695 -5.1568
    endloop
  endfacet
  facet normal -0 -0.55557 -0.83147
    outer loop
      vertex -1.24993e-15 -3.25 -5.62916
      vertex -8 -3.95695 -5.1568
      vertex -8 -3.25 -5.62916
    endloop
  endfacet
  facet normal 0 -0.19509 -0.980785
    outer loop
      vertex -8 -1.68232 -6.27852
      vertex -1.43094e-15 -0.84842 -6.44439
      vertex -1.39411e-15 -1.68232 -6.27852
    endloop
  endfacet
  facet normal -0 -0.19509 -0.980785
    outer loop
      vertex -1.43094e-15 -0.84842 -6.44439
      vertex -8 -1.68232 -6.27852
      vertex -8 -0.84842 -6.44439
    endloop
  endfacet
  facet normal 0 -0.32144 0.94693
    outer loop
      vertex -8 -1.68232 6.27852
      vertex 1.33343e-15 -2.48744 6.00522
      vertex 1.39411e-15 -1.68232 6.27852
    endloop
  endfacet
  facet normal 0 -0.32144 0.94693
    outer loop
      vertex 1.33343e-15 -2.48744 6.00522
      vertex -8 -1.68232 6.27852
      vertex -8 -2.48744 6.00522
    endloop
  endfacet
  facet normal 0 -0.5 -0.866025
    outer loop
      vertex -8 0 3.4641
      vertex -4 3 1.73205
      vertex -4 0 3.4641
    endloop
  endfacet
  facet normal -0 -0.5 -0.866025
    outer loop
      vertex -4 3 1.73205
      vertex -8 0 3.4641
      vertex -8 3 1.73205
    endloop
  endfacet
  facet normal 0 -0.5 0.866025
    outer loop
      vertex -8 3 -1.73205
      vertex -4 0 -3.4641
      vertex -4 3 -1.73205
    endloop
  endfacet
  facet normal 0 -0.5 0.866025
    outer loop
      vertex -4 0 -3.4641
      vertex -8 3 -1.73205
      vertex -8 0 -3.4641
    endloop
  endfacet
  facet normal 0 -1 0
    outer loop
      vertex -8 3 -1.73205
      vertex -4 3 1.73205
      vertex -8 3 1.73205
    endloop
  endfacet
  facet normal 0 -1 -0
    outer loop
      vertex -4 3 1.73205
      vertex -8 3 -1.73205
      vertex -4 3 -1.73205
    endloop
  endfacet
  facet normal -1 0 0
    outer loop
      vertex -4 0 -3.4641
      vertex -4 3 1.73205
      vertex -4 3 -1.73205
    endloop
  endfacet
  facet normal -1 0 0
    outer loop
      vertex -4 0 -3.4641
      vertex -4 0 3.4641
      vertex -4 3 1.73205
    endloop
  endfacet
  facet normal -1 0 0
    outer loop
      vertex -4 -3 -1.73205
      vertex -4 0 3.4641
      vertex -4 0 -3.4641
    endloop
  endfacet
  facet normal -1 0 0
    outer loop
      vertex -4 0 3.4641
      vertex -4 -3 -1.73205
      vertex -4 -3 1.73205
    endloop
  endfacet
  facet normal 0 0.5 -0.866025
    outer loop
      vertex -8 -3 1.73205
      vertex -4 0 3.4641
      vertex -4 -3 1.73205
    endloop
  endfacet
  facet normal 0 0.5 -0.866025
    outer loop
      vertex -4 0 3.4641
      vertex -8 -3 1.73205
      vertex -8 0 3.4641
    endloop
  endfacet
  facet normal -0 0.5 0.866025
    outer loop
      vertex -8 0 -3.4641
      vertex -4 -3 -1.73205
      vertex -4 0 -3.4641
    endloop
  endfacet
  facet normal 0 0.5 0.866025
    outer loop
      vertex -4 -3 -1.73205
      vertex -8 0 -3.4641
      vertex -8 -3 -1.73205
    endloop
  endfacet
  facet normal 0 1 2.75302e-07
    outer loop
      vertex -4 -3 -1.73205
      vertex -8 -3 1.73205
      vertex -4 -3 1.73205
    endloop
  endfacet
  facet normal 0 1 2.75302e-07
    outer loop
      vertex -8 -3 1.73205
      vertex -4 -3 -1.73205
      vertex -8 -3 -1.73205
    endloop
  endfacet
  facet normal 0 0.0654035 0.997859
    outer loop
      vertex 30 0.522104 3.96578
      vertex 8.88178e-16 0 4
      vertex 30 0 4
    endloop
  endfacet
  facet normal 0 0.0654035 0.997859
    outer loop
      vertex 8.88178e-16 0 4
      vertex 30 0.522104 3.96578
      vertex 8.8058e-16 0.522104 3.96578
    endloop
  endfacet
  facet normal 0 0.0654035 -0.997859
    outer loop
      vertex 30 0 -4
      vertex -8.8058e-16 0.522104 -3.96578
      vertex 30 0.522104 -3.96578
    endloop
  endfacet
  facet normal 0 0.0654035 -0.997859
    outer loop
      vertex -8.8058e-16 0.522104 -3.96578
      vertex 30 0 -4
      vertex -8.88178e-16 0 -4
    endloop
  endfacet
  facet normal 0 0.997859 0.0654035
    outer loop
      vertex 30 3.96578 0.522104
      vertex 0 4 0
      vertex 1.1593e-16 3.96578 0.522104
    endloop
  endfacet
  facet normal 1.45225e-17 0.997859 0.0654035
    outer loop
      vertex 0 4 0
      vertex 30 3.96578 0.522104
      vertex 30 4 -6.66134e-15
    endloop
  endfacet
  facet normal 0 -0.659347 -0.751839
    outer loop
      vertex -6.28037e-16 -2.82843 -2.82843
      vertex 30 -2.43505 -3.17341
      vertex 30 -2.82843 -2.82843
    endloop
  endfacet
  facet normal -0 -0.659347 -0.751839
    outer loop
      vertex 30 -2.43505 -3.17341
      vertex -6.28037e-16 -2.82843 -2.82843
      vertex -7.04639e-16 -2.43505 -3.17341
    endloop
  endfacet
  facet normal 0 0.751839 0.659347
    outer loop
      vertex 30 3.17341 2.43505
      vertex 6.28037e-16 2.82843 2.82843
      vertex 30 2.82843 2.82843
    endloop
  endfacet
  facet normal 0 0.751839 0.659347
    outer loop
      vertex 6.28037e-16 2.82843 2.82843
      vertex 30 3.17341 2.43505
      vertex 5.40689e-16 3.17341 2.43505
    endloop
  endfacet
  facet normal 0 0.751839 -0.659347
    outer loop
      vertex 30 2.82843 -2.82843
      vertex -5.40689e-16 3.17341 -2.43505
      vertex 30 3.17341 -2.43505
    endloop
  endfacet
  facet normal 0 0.751839 -0.659347
    outer loop
      vertex -5.40689e-16 3.17341 -2.43505
      vertex 30 2.82843 -2.82843
      vertex -6.28037e-16 2.82843 -2.82843
    endloop
  endfacet
  facet normal 0 0.94693 -0.32144
    outer loop
      vertex 30 3.69552 -1.53073
      vertex -2.29877e-16 3.8637 -1.03528
      vertex 30 3.8637 -1.03528
    endloop
  endfacet
  facet normal 0 0.94693 -0.32144
    outer loop
      vertex -2.29877e-16 3.8637 -1.03528
      vertex 30 3.69552 -1.53073
      vertex -3.39891e-16 3.69552 -1.53073
    endloop
  endfacet
  facet normal 0 -0.32144 -0.94693
    outer loop
      vertex -8.2057e-16 -1.53073 -3.69552
      vertex 30 -1.03528 -3.8637
      vertex 30 -1.53073 -3.69552
    endloop
  endfacet
  facet normal -0 -0.32144 -0.94693
    outer loop
      vertex 30 -1.03528 -3.8637
      vertex -8.2057e-16 -1.53073 -3.69552
      vertex -8.57914e-16 -1.03528 -3.8637
    endloop
  endfacet
  facet normal 1 0 0
    outer loop
      vertex 30 3.96578 0.522104
      vertex 30 3.96578 -0.522104
      vertex 30 4 -6.66134e-15
    endloop
  endfacet
  facet normal 1 0 0
    outer loop
      vertex 30 3.8637 1.03528
      vertex 30 3.96578 -0.522104
      vertex 30 3.96578 0.522104
    endloop
  endfacet
  facet normal 1 0 0
    outer loop
      vertex 30 3.8637 1.03528
      vertex 30 3.8637 -1.03528
      vertex 30 3.96578 -0.522104
    endloop
  endfacet
  facet normal 1 0 0
    outer loop
      vertex 30 3.69552 1.53073
      vertex 30 3.8637 -1.03528
      vertex 30 3.8637 1.03528
    endloop
  endfacet
  facet normal 1 0 0
    outer loop
      vertex 30 3.69552 1.53073
      vertex 30 3.69552 -1.53073
      vertex 30 3.8637 -1.03528
    endloop
  endfacet
  facet normal 1 0 0
    outer loop
      vertex 30 3.4641 2
      vertex 30 3.69552 -1.53073
      vertex 30 3.69552 1.53073
    endloop
  endfacet
  facet normal 1 0 0
    outer loop
      vertex 30 3.4641 2
      vertex 30 3.4641 -2
      vertex 30 3.69552 -1.53073
    endloop
  endfacet
  facet normal 1 0 0
    outer loop
      vertex 30 3.17341 2.43505
      vertex 30 3.4641 -2
      vertex 30 3.4641 2
    endloop
  endfacet
  facet normal 1 0 0
    outer loop
      vertex 30 3.17341 2.43505
      vertex 30 3.17341 -2.43505
      vertex 30 3.4641 -2
    endloop
  endfacet
  facet normal 1 0 0
    outer loop
      vertex 30 2.82843 2.82843
      vertex 30 3.17341 -2.43505
      vertex 30 3.17341 2.43505
    endloop
  endfacet
  facet normal 1 0 0
    outer loop
      vertex 30 2.82843 2.82843
      vertex 30 2.82843 -2.82843
      vertex 30 3.17341 -2.43505
    endloop
  endfacet
  facet normal 1 0 0
    outer loop
      vertex 30 2.43505 3.17341
      vertex 30 2.82843 -2.82843
      vertex 30 2.82843 2.82843
    endloop
  endfacet
  facet normal 1 0 0
    outer loop
      vertex 30 2.43505 3.17341
      vertex 30 2.43505 -3.17341
      vertex 30 2.82843 -2.82843
    endloop
  endfacet
  facet normal 1 0 0
    outer loop
      vertex 30 2 3.4641
      vertex 30 2.43505 -3.17341
      vertex 30 2.43505 3.17341
    endloop
  endfacet
  facet normal 1 0 0
    outer loop
      vertex 30 2 3.4641
      vertex 30 2 -3.4641
      vertex 30 2.43505 -3.17341
    endloop
  endfacet
  facet normal 1 0 0
    outer loop
      vertex 30 1.53073 3.69552
      vertex 30 2 -3.4641
      vertex 30 2 3.4641
    endloop
  endfacet
  facet normal 1 0 0
    outer loop
      vertex 30 1.53073 3.69552
      vertex 30 1.53073 -3.69552
      vertex 30 2 -3.4641
    endloop
  endfacet
  facet normal 1 0 0
    outer loop
      vertex 30 1.03528 3.8637
      vertex 30 1.53073 -3.69552
      vertex 30 1.53073 3.69552
    endloop
  endfacet
  facet normal 1 0 0
    outer loop
      vertex 30 1.03528 3.8637
      vertex 30 1.03528 -3.8637
      vertex 30 1.53073 -3.69552
    endloop
  endfacet
  facet normal 1 0 0
    outer loop
      vertex 30 0.522104 3.96578
      vertex 30 1.03528 -3.8637
      vertex 30 1.03528 3.8637
    endloop
  endfacet
  facet normal 1 0 0
    outer loop
      vertex 30 0.522104 3.96578
      vertex 30 0.522104 -3.96578
      vertex 30 1.03528 -3.8637
    endloop
  endfacet
  facet normal 1 0 0
    outer loop
      vertex 30 0 4
      vertex 30 0.522104 -3.96578
      vertex 30 0.522104 3.96578
    endloop
  endfacet
  facet normal 1 0 0
    outer loop
      vertex 30 0 4
      vertex 30 0 -4
      vertex 30 0.522104 -3.96578
    endloop
  endfacet
  facet normal 1 -0 0
    outer loop
      vertex 30 -0.522104 3.96578
      vertex 30 0 -4
      vertex 30 0 4
    endloop
  endfacet
  facet normal 1 0 0
    outer loop
      vertex 30 -0.522104 3.96578
      vertex 30 -0.522104 -3.96578
      vertex 30 0 -4
    endloop
  endfacet
  facet normal 1 -0 0
    outer loop
      vertex 30 -1.03528 3.8637
      vertex 30 -0.522104 -3.96578
      vertex 30 -0.522104 3.96578
    endloop
  endfacet
  facet normal 1 0 0
    outer loop
      vertex 30 -1.03528 3.8637
      vertex 30 -1.03528 -3.8637
      vertex 30 -0.522104 -3.96578
    endloop
  endfacet
  facet normal 1 -0 0
    outer loop
      vertex 30 -1.53073 3.69552
      vertex 30 -1.03528 -3.8637
      vertex 30 -1.03528 3.8637
    endloop
  endfacet
  facet normal 1 0 0
    outer loop
      vertex 30 -1.53073 3.69552
      vertex 30 -1.53073 -3.69552
      vertex 30 -1.03528 -3.8637
    endloop
  endfacet
  facet normal 1 0 0
    outer loop
      vertex 30 -1.53073 3.69552
      vertex 30 -2 -3.4641
      vertex 30 -1.53073 -3.69552
    endloop
  endfacet
  facet normal 1 -0 0
    outer loop
      vertex 30 -2 3.4641
      vertex 30 -2 -3.4641
      vertex 30 -1.53073 3.69552
    endloop
  endfacet
  facet normal 1 -0 0
    outer loop
      vertex 30 -2.43505 3.17341
      vertex 30 -2 -3.4641
      vertex 30 -2 3.4641
    endloop
  endfacet
  facet normal 1 0 0
    outer loop
      vertex 30 -2.43505 3.17341
      vertex 30 -2.43505 -3.17341
      vertex 30 -2 -3.4641
    endloop
  endfacet
  facet normal 1 -0 0
    outer loop
      vertex 30 -2.82843 2.82843
      vertex 30 -2.43505 -3.17341
      vertex 30 -2.43505 3.17341
    endloop
  endfacet
  facet normal 1 0 0
    outer loop
      vertex 30 -2.82843 2.82843
      vertex 30 -2.82843 -2.82843
      vertex 30 -2.43505 -3.17341
    endloop
  endfacet
  facet normal 1 -0 0
    outer loop
      vertex 30 -3.17341 2.43505
      vertex 30 -2.82843 -2.82843
      vertex 30 -2.82843 2.82843
    endloop
  endfacet
  facet normal 1 0 0
    outer loop
      vertex 30 -3.17341 2.43505
      vertex 30 -3.17341 -2.43505
      vertex 30 -2.82843 -2.82843
    endloop
  endfacet
  facet normal 1 -0 0
    outer loop
      vertex 30 -3.4641 2
      vertex 30 -3.17341 -2.43505
      vertex 30 -3.17341 2.43505
    endloop
  endfacet
  facet normal 1 0 0
    outer loop
      vertex 30 -3.4641 2
      vertex 30 -3.4641 -2
      vertex 30 -3.17341 -2.43505
    endloop
  endfacet
  facet normal 1 -0 0
    outer loop
      vertex 30 -3.69552 1.53073
      vertex 30 -3.4641 -2
      vertex 30 -3.4641 2
    endloop
  endfacet
  facet normal 1 0 0
    outer loop
      vertex 30 -3.69552 1.53073
      vertex 30 -3.69552 -1.53073
      vertex 30 -3.4641 -2
    endloop
  endfacet
  facet normal 1 -0 0
    outer loop
      vertex 30 -3.8637 1.03528
      vertex 30 -3.69552 -1.53073
      vertex 30 -3.69552 1.53073
    endloop
  endfacet
  facet normal 1 0 0
    outer loop
      vertex 30 -3.8637 1.03528
      vertex 30 -3.8637 -1.03528
      vertex 30 -3.69552 -1.53073
    endloop
  endfacet
  facet normal 1 -0 0
    outer loop
      vertex 30 -3.96578 0.522104
      vertex 30 -3.8637 -1.03528
      vertex 30 -3.8637 1.03528
    endloop
  endfacet
  facet normal 1 0 0
    outer loop
      vertex 30 -3.96578 0.522104
      vertex 30 -3.96578 -0.522104
      vertex 30 -3.8637 -1.03528
    endloop
  endfacet
  facet normal 1 0 -0
    outer loop
      vertex 30 -3.96578 -0.522104
      vertex 30 -3.96578 0.522104
      vertex 30 -4 -6.66134e-15
    endloop
  endfacet
  facet normal 0 0.442289 0.896872
    outer loop
      vertex 30 2 3.4641
      vertex 8.2057e-16 1.53073 3.69552
      vertex 30 1.53073 3.69552
    endloop
  endfacet
  facet normal 0 0.442289 0.896872
    outer loop
      vertex 8.2057e-16 1.53073 3.69552
      vertex 30 2 3.4641
      vertex 7.69185e-16 2 3.4641
    endloop
  endfacet
  facet normal 0 0.555569 0.831471
    outer loop
      vertex 30 2.43505 3.17341
      vertex 7.69185e-16 2 3.4641
      vertex 30 2 3.4641
    endloop
  endfacet
  facet normal 0 0.555569 0.831471
    outer loop
      vertex 7.69185e-16 2 3.4641
      vertex 30 2.43505 3.17341
      vertex 7.04639e-16 2.43505 3.17341
    endloop
  endfacet
  facet normal 0 0.896873 0.442289
    outer loop
      vertex 30 3.69552 1.53073
      vertex 4.44089e-16 3.4641 2
      vertex 30 3.4641 2
    endloop
  endfacet
  facet normal 0 0.896873 0.442289
    outer loop
      vertex 4.44089e-16 3.4641 2
      vertex 30 3.69552 1.53073
      vertex 3.39891e-16 3.69552 1.53073
    endloop
  endfacet
  facet normal 0 0.83147 0.55557
    outer loop
      vertex 30 3.4641 2
      vertex 5.40689e-16 3.17341 2.43505
      vertex 30 3.17341 2.43505
    endloop
  endfacet
  facet normal 0 0.83147 0.55557
    outer loop
      vertex 5.40689e-16 3.17341 2.43505
      vertex 30 3.4641 2
      vertex 4.44089e-16 3.4641 2
    endloop
  endfacet
  facet normal 0 0.442289 -0.896872
    outer loop
      vertex 30 1.53073 -3.69552
      vertex -7.69185e-16 2 -3.4641
      vertex 30 2 -3.4641
    endloop
  endfacet
  facet normal 0 0.442289 -0.896872
    outer loop
      vertex -7.69185e-16 2 -3.4641
      vertex 30 1.53073 -3.69552
      vertex -8.2057e-16 1.53073 -3.69552
    endloop
  endfacet
  facet normal 0 0.659347 -0.751839
    outer loop
      vertex 30 2.43505 -3.17341
      vertex -6.28037e-16 2.82843 -2.82843
      vertex 30 2.82843 -2.82843
    endloop
  endfacet
  facet normal 0 0.659347 -0.751839
    outer loop
      vertex -6.28037e-16 2.82843 -2.82843
      vertex 30 2.43505 -3.17341
      vertex -7.04639e-16 2.43505 -3.17341
    endloop
  endfacet
  facet normal -1.4588e-17 0.997859 -0.0654035
    outer loop
      vertex 30 3.96578 -0.522104
      vertex 0 4 0
      vertex 30 4 -6.66134e-15
    endloop
  endfacet
  facet normal 0 0.997859 -0.0654035
    outer loop
      vertex 0 4 0
      vertex 30 3.96578 -0.522104
      vertex -1.1593e-16 3.96578 -0.522104
    endloop
  endfacet
  facet normal 0 -0.32144 0.94693
    outer loop
      vertex 8.57914e-16 -1.03528 3.8637
      vertex 30 -1.53073 3.69552
      vertex 30 -1.03528 3.8637
    endloop
  endfacet
  facet normal 0 -0.32144 0.94693
    outer loop
      vertex 30 -1.53073 3.69552
      vertex 8.57914e-16 -1.03528 3.8637
      vertex 8.2057e-16 -1.53073 3.69552
    endloop
  endfacet
  facet normal 0 -0.83147 0.55557
    outer loop
      vertex 4.44089e-16 -3.4641 2
      vertex 30 -3.17341 2.43505
      vertex 5.40689e-16 -3.17341 2.43505
    endloop
  endfacet
  facet normal 0 -0.83147 0.55557
    outer loop
      vertex 30 -3.17341 2.43505
      vertex 4.44089e-16 -3.4641 2
      vertex 30 -3.4641 2
    endloop
  endfacet
  facet normal 0 -0.751839 -0.659347
    outer loop
      vertex -6.28037e-16 -2.82843 -2.82843
      vertex 30 -3.17341 -2.43505
      vertex -5.40689e-16 -3.17341 -2.43505
    endloop
  endfacet
  facet normal 0 -0.751839 -0.659347
    outer loop
      vertex 30 -3.17341 -2.43505
      vertex -6.28037e-16 -2.82843 -2.82843
      vertex 30 -2.82843 -2.82843
    endloop
  endfacet
  facet normal 0 -0.0654035 -0.997859
    outer loop
      vertex -8.8058e-16 -0.522104 -3.96578
      vertex 30 0 -4
      vertex 30 -0.522104 -3.96578
    endloop
  endfacet
  facet normal -0 -0.0654035 -0.997859
    outer loop
      vertex 30 0 -4
      vertex -8.8058e-16 -0.522104 -3.96578
      vertex -8.88178e-16 0 -4
    endloop
  endfacet
  facet normal 0 0.32144 0.94693
    outer loop
      vertex 30 1.53073 3.69552
      vertex 8.57914e-16 1.03528 3.8637
      vertex 30 1.03528 3.8637
    endloop
  endfacet
  facet normal 0 0.32144 0.94693
    outer loop
      vertex 8.57914e-16 1.03528 3.8637
      vertex 30 1.53073 3.69552
      vertex 8.2057e-16 1.53073 3.69552
    endloop
  endfacet
  facet normal 0 0.195091 0.980785
    outer loop
      vertex 30 1.03528 3.8637
      vertex 8.8058e-16 0.522104 3.96578
      vertex 30 0.522104 3.96578
    endloop
  endfacet
  facet normal 0 0.195091 0.980785
    outer loop
      vertex 8.8058e-16 0.522104 3.96578
      vertex 30 1.03528 3.8637
      vertex 8.57914e-16 1.03528 3.8637
    endloop
  endfacet
  facet normal 0 0.659347 0.751839
    outer loop
      vertex 30 2.82843 2.82843
      vertex 7.04639e-16 2.43505 3.17341
      vertex 30 2.43505 3.17341
    endloop
  endfacet
  facet normal 0 0.659347 0.751839
    outer loop
      vertex 7.04639e-16 2.43505 3.17341
      vertex 30 2.82843 2.82843
      vertex 6.28037e-16 2.82843 2.82843
    endloop
  endfacet
  facet normal 0 0.94693 0.32144
    outer loop
      vertex 30 3.8637 1.03528
      vertex 3.39891e-16 3.69552 1.53073
      vertex 30 3.69552 1.53073
    endloop
  endfacet
  facet normal 0 0.94693 0.32144
    outer loop
      vertex 3.39891e-16 3.69552 1.53073
      vertex 30 3.8637 1.03528
      vertex 2.29877e-16 3.8637 1.03528
    endloop
  endfacet
  facet normal 0 0.980785 0.195091
    outer loop
      vertex 30 3.96578 0.522104
      vertex 2.29877e-16 3.8637 1.03528
      vertex 30 3.8637 1.03528
    endloop
  endfacet
  facet normal 0 0.980785 0.195091
    outer loop
      vertex 2.29877e-16 3.8637 1.03528
      vertex 30 3.96578 0.522104
      vertex 1.1593e-16 3.96578 0.522104
    endloop
  endfacet
  facet normal 0 0.555569 -0.831471
    outer loop
      vertex 30 2 -3.4641
      vertex -7.04639e-16 2.43505 -3.17341
      vertex 30 2.43505 -3.17341
    endloop
  endfacet
  facet normal 0 0.555569 -0.831471
    outer loop
      vertex -7.04639e-16 2.43505 -3.17341
      vertex 30 2 -3.4641
      vertex -7.69185e-16 2 -3.4641
    endloop
  endfacet
  facet normal 0 0.32144 -0.94693
    outer loop
      vertex 30 1.03528 -3.8637
      vertex -8.2057e-16 1.53073 -3.69552
      vertex 30 1.53073 -3.69552
    endloop
  endfacet
  facet normal 0 0.32144 -0.94693
    outer loop
      vertex -8.2057e-16 1.53073 -3.69552
      vertex 30 1.03528 -3.8637
      vertex -8.57914e-16 1.03528 -3.8637
    endloop
  endfacet
  facet normal 0 0.195091 -0.980785
    outer loop
      vertex 30 0.522104 -3.96578
      vertex -8.57914e-16 1.03528 -3.8637
      vertex 30 1.03528 -3.8637
    endloop
  endfacet
  facet normal 0 0.195091 -0.980785
    outer loop
      vertex -8.57914e-16 1.03528 -3.8637
      vertex 30 0.522104 -3.96578
      vertex -8.8058e-16 0.522104 -3.96578
    endloop
  endfacet
  facet normal 0 0.896872 -0.442289
    outer loop
      vertex 30 3.4641 -2
      vertex -3.39891e-16 3.69552 -1.53073
      vertex 30 3.69552 -1.53073
    endloop
  endfacet
  facet normal 0 0.896872 -0.442289
    outer loop
      vertex -3.39891e-16 3.69552 -1.53073
      vertex 30 3.4641 -2
      vertex -4.44089e-16 3.4641 -2
    endloop
  endfacet
  facet normal 0 0.831471 -0.555569
    outer loop
      vertex 30 3.17341 -2.43505
      vertex -4.44089e-16 3.4641 -2
      vertex 30 3.4641 -2
    endloop
  endfacet
  facet normal 0 0.831471 -0.555569
    outer loop
      vertex -4.44089e-16 3.4641 -2
      vertex 30 3.17341 -2.43505
      vertex -5.40689e-16 3.17341 -2.43505
    endloop
  endfacet
  facet normal 0 0.980785 -0.195091
    outer loop
      vertex 30 3.8637 -1.03528
      vertex -1.1593e-16 3.96578 -0.522104
      vertex 30 3.96578 -0.522104
    endloop
  endfacet
  facet normal 0 0.980785 -0.195091
    outer loop
      vertex -1.1593e-16 3.96578 -0.522104
      vertex 30 3.8637 -1.03528
      vertex -2.29877e-16 3.8637 -1.03528
    endloop
  endfacet
  facet normal 0 -0.997859 0.0654035
    outer loop
      vertex 0 -4 0
      vertex 30 -3.96578 0.522104
      vertex 1.1593e-16 -3.96578 0.522104
    endloop
  endfacet
  facet normal 1.4588e-17 -0.997859 0.0654035
    outer loop
      vertex 30 -3.96578 0.522104
      vertex 0 -4 0
      vertex 30 -4 -6.66134e-15
    endloop
  endfacet
  facet normal 0 -0.94693 0.32144
    outer loop
      vertex 2.29877e-16 -3.8637 1.03528
      vertex 30 -3.69552 1.53073
      vertex 3.39891e-16 -3.69552 1.53073
    endloop
  endfacet
  facet normal 0 -0.94693 0.32144
    outer loop
      vertex 30 -3.69552 1.53073
      vertex 2.29877e-16 -3.8637 1.03528
      vertex 30 -3.8637 1.03528
    endloop
  endfacet
  facet normal 0 -0.751839 0.659347
    outer loop
      vertex 5.40689e-16 -3.17341 2.43505
      vertex 30 -2.82843 2.82843
      vertex 6.28037e-16 -2.82843 2.82843
    endloop
  endfacet
  facet normal 0 -0.751839 0.659347
    outer loop
      vertex 30 -2.82843 2.82843
      vertex 5.40689e-16 -3.17341 2.43505
      vertex 30 -3.17341 2.43505
    endloop
  endfacet
  facet normal 0 -0.55557 0.83147
    outer loop
      vertex 7.69185e-16 -2 3.4641
      vertex 30 -2.43505 3.17341
      vertex 30 -2 3.4641
    endloop
  endfacet
  facet normal 0 -0.55557 0.83147
    outer loop
      vertex 30 -2.43505 3.17341
      vertex 7.69185e-16 -2 3.4641
      vertex 7.04639e-16 -2.43505 3.17341
    endloop
  endfacet
  facet normal 0 -0.83147 -0.55557
    outer loop
      vertex -5.40689e-16 -3.17341 -2.43505
      vertex 30 -3.4641 -2
      vertex -4.44089e-16 -3.4641 -2
    endloop
  endfacet
  facet normal 0 -0.83147 -0.55557
    outer loop
      vertex 30 -3.4641 -2
      vertex -5.40689e-16 -3.17341 -2.43505
      vertex 30 -3.17341 -2.43505
    endloop
  endfacet
  facet normal 0 -0.94693 -0.32144
    outer loop
      vertex -3.39891e-16 -3.69552 -1.53073
      vertex 30 -3.8637 -1.03528
      vertex -2.29877e-16 -3.8637 -1.03528
    endloop
  endfacet
  facet normal 0 -0.94693 -0.32144
    outer loop
      vertex 30 -3.8637 -1.03528
      vertex -3.39891e-16 -3.69552 -1.53073
      vertex 30 -3.69552 -1.53073
    endloop
  endfacet
  facet normal -1.4588e-17 -0.997859 -0.0654035
    outer loop
      vertex -1.1593e-16 -3.96578 -0.522104
      vertex 30 -4 -6.66134e-15
      vertex 0 -4 0
    endloop
  endfacet
  facet normal 0 -0.997859 -0.0654035
    outer loop
      vertex 30 -4 -6.66134e-15
      vertex -1.1593e-16 -3.96578 -0.522104
      vertex 30 -3.96578 -0.522104
    endloop
  endfacet
  facet normal 0 -0.442289 -0.896872
    outer loop
      vertex -7.69185e-16 -2 -3.4641
      vertex 30 -1.53073 -3.69552
      vertex 30 -2 -3.4641
    endloop
  endfacet
  facet normal -0 -0.442289 -0.896872
    outer loop
      vertex 30 -1.53073 -3.69552
      vertex -7.69185e-16 -2 -3.4641
      vertex -8.2057e-16 -1.53073 -3.69552
    endloop
  endfacet
  facet normal 0 -0.195091 -0.980785
    outer loop
      vertex -8.57914e-16 -1.03528 -3.8637
      vertex 30 -0.522104 -3.96578
      vertex 30 -1.03528 -3.8637
    endloop
  endfacet
  facet normal -0 -0.195091 -0.980785
    outer loop
      vertex 30 -0.522104 -3.96578
      vertex -8.57914e-16 -1.03528 -3.8637
      vertex -8.8058e-16 -0.522104 -3.96578
    endloop
  endfacet
  facet normal 0 -0.980785 0.195091
    outer loop
      vertex 1.1593e-16 -3.96578 0.522104
      vertex 30 -3.8637 1.03528
      vertex 2.29877e-16 -3.8637 1.03528
    endloop
  endfacet
  facet normal 0 -0.980785 0.195091
    outer loop
      vertex 30 -3.8637 1.03528
      vertex 1.1593e-16 -3.96578 0.522104
      vertex 30 -3.96578 0.522104
    endloop
  endfacet
  facet normal 0 -0.896873 0.442289
    outer loop
      vertex 3.39891e-16 -3.69552 1.53073
      vertex 30 -3.4641 2
      vertex 4.44089e-16 -3.4641 2
    endloop
  endfacet
  facet normal 0 -0.896873 0.442289
    outer loop
      vertex 30 -3.4641 2
      vertex 3.39891e-16 -3.69552 1.53073
      vertex 30 -3.69552 1.53073
    endloop
  endfacet
  facet normal 0 -0.659347 0.751839
    outer loop
      vertex 7.04639e-16 -2.43505 3.17341
      vertex 30 -2.82843 2.82843
      vertex 30 -2.43505 3.17341
    endloop
  endfacet
  facet normal 0 -0.659347 0.751839
    outer loop
      vertex 30 -2.82843 2.82843
      vertex 7.04639e-16 -2.43505 3.17341
      vertex 6.28037e-16 -2.82843 2.82843
    endloop
  endfacet
  facet normal 0 -0.195091 0.980785
    outer loop
      vertex 8.8058e-16 -0.522104 3.96578
      vertex 30 -1.03528 3.8637
      vertex 30 -0.522104 3.96578
    endloop
  endfacet
  facet normal 0 -0.195091 0.980785
    outer loop
      vertex 30 -1.03528 3.8637
      vertex 8.8058e-16 -0.522104 3.96578
      vertex 8.57914e-16 -1.03528 3.8637
    endloop
  endfacet
  facet normal 0 -0.442289 0.896873
    outer loop
      vertex 8.2057e-16 -1.53073 3.69552
      vertex 30 -2 3.4641
      vertex 30 -1.53073 3.69552
    endloop
  endfacet
  facet normal 0 -0.442289 0.896873
    outer loop
      vertex 30 -2 3.4641
      vertex 8.2057e-16 -1.53073 3.69552
      vertex 7.69185e-16 -2 3.4641
    endloop
  endfacet
  facet normal 0 -0.896873 -0.442289
    outer loop
      vertex -4.44089e-16 -3.4641 -2
      vertex 30 -3.69552 -1.53073
      vertex -3.39891e-16 -3.69552 -1.53073
    endloop
  endfacet
  facet normal 0 -0.896873 -0.442289
    outer loop
      vertex 30 -3.69552 -1.53073
      vertex -4.44089e-16 -3.4641 -2
      vertex 30 -3.4641 -2
    endloop
  endfacet
  facet normal 0 -0.980785 -0.195091
    outer loop
      vertex -2.29877e-16 -3.8637 -1.03528
      vertex 30 -3.96578 -0.522104
      vertex -1.1593e-16 -3.96578 -0.522104
    endloop
  endfacet
  facet normal 0 -0.980785 -0.195091
    outer loop
      vertex 30 -3.96578 -0.522104
      vertex -2.29877e-16 -3.8637 -1.03528
      vertex 30 -3.8637 -1.03528
    endloop
  endfacet
  facet normal 0 -0.555569 -0.831471
    outer loop
      vertex -7.04639e-16 -2.43505 -3.17341
      vertex 30 -2 -3.4641
      vertex 30 -2.43505 -3.17341
    endloop
  endfacet
  facet normal -0 -0.555569 -0.831471
    outer loop
      vertex 30 -2 -3.4641
      vertex -7.04639e-16 -2.43505 -3.17341
      vertex -7.69185e-16 -2 -3.4641
    endloop
  endfacet
  facet normal 0 -0.0654035 0.997859
    outer loop
      vertex 8.88178e-16 0 4
      vertex 30 -0.522104 3.96578
      vertex 30 0 4
    endloop
  endfacet
  facet normal 0 -0.0654035 0.997859
    outer loop
      vertex 30 -0.522104 3.96578
      vertex 8.88178e-16 0 4
      vertex 8.8058e-16 -0.522104 3.96578
    endloop
  endfacet
endsolid OpenSCAD_Model
