  0
SECTION
  2
HEADER
  9
$ACADVER
  1
AC1009
  9
$DWGCODEPAGE
  3
ansi_1252
  9
$INSBASE
 10
0.0
 20
0.0
 30
0.0
  9
$EXTMIN
 10
82.40412
 20
34.338978
 30
0.0
  9
$EXTMAX
 10
219.623535
 20
173.10611
 30
0.0
  9
$LIMMIN
 10
0.0
 20
0.0
  9
$LIMMAX
 10
420.0
 20
297.0
  9
$ORTHOMODE
 70
     0
  9
$REGENMODE
 70
     1
  9
$FILLMODE
 70
     1
  9
$QTEXTMODE
 70
     0
  9
$MIRRTEXT
 70
     1
  9
$DRAGMODE
 70
     2
  9
$LTSCALE
 40
1.0
  9
$OSMODE
 70
   511
  9
$ATTMODE
 70
     1
  9
$TEXTSIZE
 40
0.0
  9
$TRACEWID
 40
1.0
  9
$TEXTSTYLE
  7
STANDARD
  9
$CLAYER
  8
0
  9
$CELTYPE
  6
BYLAYER
  9
$CECOLOR
 62
   256
  9
$DIMSCALE
 40
1.0
  9
$DIMASZ
 40
2.5
  9
$DIMEXO
 40
0.625
  9
$DIMDLI
 40
3.75
  9
$DIMRND
 40
0.0
  9
$DIMDLE
 40
0.0
  9
$DIMEXE
 40
1.25
  9
$DIMTP
 40
0.0
  9
$DIMTM
 40
0.0
  9
$DIMTXT
 40
2.5
  9
$DIMCEN
 40
2.5
  9
$DIMTSZ
 40
0.0
  9
$DIMTOL
 70
     0
  9
$DIMLIM
 70
     0
  9
$DIMTIH
 70
     0
  9
$DIMTOH
 70
     0
  9
$DIMSE1
 70
     0
  9
$DIMSE2
 70
     0
  9
$DIMTAD
 70
     1
  9
$DIMZIN
 70
     8
  9
$DIMBLK
  1

  9
$DIMASO
 70
     1
  9
$DIMSHO
 70
     1
  9
$DIMPOST
  1

  9
$DIMAPOST
  1

  9
$DIMALT
 70
     0
  9
$DIMALTD
 70
     3
  9
$DIMALTF
 40
0.03937
  9
$DIMLFAC
 40
1.0
  9
$DIMTOFL
 70
     1
  9
$DIMTVP
 40
0.0
  9
$DIMTIX
 70
     0
  9
$DIMSOXD
 70
     0
  9
$DIMSAH
 70
     0
  9
$DIMBLK1
  1

  9
$DIMBLK2
  1

  9
$DIMSTYLE
  2
STANDARD
  9
$DIMCLRD
 70
     0
  9
$DIMCLRE
 70
     0
  9
$DIMCLRT
 70
     0
  9
$DIMTFAC
 40
1.0
  9
$DIMGAP
 40
0.625
  9
$LUNITS
 70
     2
  9
$LUPREC
 70
     4
  9
$SKETCHINC
 40
1.0
  9
$FILLETRAD
 40
2.5
  9
$AUNITS
 70
     0
  9
$AUPREC
 70
     0
  9
$MENU
  1
.
  9
$ELEVATION
 40
0.0
  9
$PELEVATION
 40
0.0
  9
$THICKNESS
 40
0.0
  9
$LIMCHECK
 70
     0
  9
$CHAMFERA
 40
2.5
  9
$CHAMFERB
 40
2.5
  9
$SKPOLY
 70
     0
  9
$TDCREATE
 40
0.0
  9
$TDUPDATE
 40
2456914.708819433
  9
$TDINDWG
 40
0.0
  9
$TDUSRTIMER
 40
2456914.290509259
  9
$USRTIMER
 70
     1
  9
$ANGBASE
 50
0.0
  9
$ANGDIR
 70
     0
  9
$PDMODE
 70
     0
  9
$PDSIZE
 40
0.0
  9
$PLINEWID
 40
0.0
  9
$COORDS
 70
     1
  9
$SPLFRAME
 70
     0
  9
$SPLINETYPE
 70
     6
  9
$SPLINESEGS
 70
     8
  9
$ATTDIA
 70
     0
  9
$ATTREQ
 70
     1
  9
$HANDLING
 70
     1
  9
$HANDSEED
  5
49B
  9
$SURFTAB1
 70
     6
  9
$SURFTAB2
 70
     6
  9
$SURFTYPE
 70
     6
  9
$SURFU
 70
     6
  9
$SURFV
 70
     6
  9
$UCSNAME
  2

  9
$UCSORG
 10
0.0
 20
0.0
 30
0.0
  9
$UCSXDIR
 10
1.0
 20
0.0
 30
0.0
  9
$UCSYDIR
 10
0.0
 20
1.0
 30
0.0
  9
$PUCSNAME
  2

  9
$PUCSORG
 10
0.0
 20
0.0
 30
0.0
  9
$PUCSXDIR
 10
1.0
 20
0.0
 30
0.0
  9
$PUCSYDIR
 10
0.0
 20
1.0
 30
0.0
  9
$USERI1
 70
     0
  9
$USERI2
 70
     0
  9
$USERI3
 70
     0
  9
$USERI4
 70
     0
  9
$USERI5
 70
     0
  9
$USERR1
 40
0.0
  9
$USERR2
 40
0.0
  9
$USERR3
 40
0.0
  9
$USERR4
 40
0.0
  9
$USERR5
 40
0.0
  9
$WORLDVIEW
 70
     1
  9
$SHADEDGE
 70
     3
  9
$SHADEDIF
 70
    70
  9
$TILEMODE
 70
     1
  9
$MAXACTVP
 70
    48
  9
$PLIMCHECK
 70
     0
  9
$PEXTMIN
 10
0.0
 20
0.0
 30
0.0
  9
$PEXTMAX
 10
219.62352
 20
174.106094
 30
2.0
  9
$PLIMMIN
 10
0.0
 20
0.0
  9
$PLIMMAX
 10
0.0
 20
0.0
  9
$UNITMODE
 70
     0
  9
$VISRETAIN
 70
     0
  9
$PLINEGEN
 70
     0
  9
$PSLTSCALE
 70
     1
  0
ENDSEC
  0
SECTION
  2
TABLES
  0
TABLE
  2
VPORT
 70
     1
  0
VPORT
  2
*ACTIVE
 70
     0
 10
0.0
 20
0.0
 11
1.0
 21
1.0
 12
36.42775611507334
 22
21.32711018902997
 13
0.0
 23
0.0
 14
1.0
 24
1.0
 15
0.0
 25
0.0
 16
0.0
 26
0.0
 36
1.0
 17
0.0
 27
0.0
 37
0.0
 40
32.52793481625601
 41
2.23625
 42
50.0
 43
0.0
 44
0.0
 50
0.0
 51
0.0
 71
    16
 72
   100
 73
     1
 74
     1
 75
     0
 76
     0
 77
     0
 78
     0
  0
ENDTAB
  0
TABLE
  2
LTYPE
 70
     2
  0
LTYPE
  2
CONTINUOUS
 70
     0
  3
Solid line
 72
    65
 73
     0
 40
0.0
  0
LTYPE
  2
DASHDOT
 70
     0
  3
 __ . __ . __ . __ . __ . __ . __ . 
 72
    65
 73
     4
 40
18.5
 49
12.0
 49
-3.0
 49
0.5
 49
-3.0
  0
ENDTAB
  0
TABLE
  2
LAYER
 70
     2
  0
LAYER
  2
0
 70
     0
 62
     7
  6
CONTINUOUS
  0
LAYER
  2
DEFPOINTS
 70
     0
 62
     7
  6
CONTINUOUS
  0
ENDTAB
  0
TABLE
  2
STYLE
 70
     1
  0
STYLE
  2
STANDARD
 70
     0
 40
0.0
 41
1.0
 50
0.0
 71
     0
 42
0.0
  3
txt
  4

  0
ENDTAB
  0
TABLE
  2
VIEW
 70
     0
  0
ENDTAB
  0
TABLE
  2
UCS
 70
     0
  0
ENDTAB
  0
TABLE
  2
APPID
 70
     1
  0
APPID
  2
ACAD
 70
     0
  0
ENDTAB
  0
TABLE
  2
DIMSTYLE
 70
     1
  0
DIMSTYLE
  2
STANDARD
 70
     0
  3

  4

  5

  6

  7

 40
1.0
 41
0.18
 42
0.0625
 43
0.38
 44
0.18
 45
0.0
 46
0.0
 47
0.0
 48
0.0
140
0.18
141
0.09
142
0.0
143
25.4
144
1.0
145
0.0
146
1.0
147
0.09
 71
     0
 72
     0
 73
     1
 74
     1
 75
     0
 76
     0
 77
     0
 78
     0
170
     0
171
     2
172
     0
173
     0
174
     0
175
     0
176
     0
177
     0
178
     0
  0
ENDTAB
  0
ENDSEC
  0
SECTION
  2
BLOCKS
  0
BLOCK
  8
0
  2
$MODEL_SPACE
 70
     0
 10
0.0
 20
0.0
 30
0.0
  3
$MODEL_SPACE
  1

  0
ENDBLK
  5
E
  8
0
  0
BLOCK
 67
     1
  8
0
  2
$PAPER_SPACE
 70
     0
 10
0.0
 20
0.0
 30
0.0
  3
$PAPER_SPACE
  1

  0
ENDBLK
  5
10
 67
     1
  8
0
  0
BLOCK
  8
0
  2
*D0
 70
     1
 10
0.0
 20
0.0
 30
0.0
  3
*D0
  1

  0
LINE
  5
483
  8
0
 62
     0
 10
82.404121
 20
145.0870135
 30
0.0
 11
82.404121
 21
138.26237608
 31
0.0
  0
LINE
  5
484
  8
0
 62
     0
 10
182.404129
 20
145.0870135
 30
0.0
 11
182.404129
 21
138.26237608
 31
0.0
  0
LINE
  5
485
  8
0
 62
     0
 10
84.904121
 20
139.51237608
 30
0.0
 11
179.904129
 21
139.51237608
 31
0.0
  0
SOLID
  5
486
  8
0
 62
     0
 10
84.904121
 20
139.9290427466666
 30
0.0
 11
84.904121
 21
139.0957094133333
 31
0.0
 12
82.404121
 22
139.51237608
 32
0.0
 13
82.404121
 23
139.51237608
 33
0.0
  0
SOLID
  5
487
  8
0
 62
     0
 10
179.904129
 20
139.0957094133333
 30
0.0
 11
179.904129
 21
139.9290427466666
 31
0.0
 12
182.404129
 22
139.51237608
 32
0.0
 13
182.404129
 23
139.51237608
 33
0.0
  0
TEXT
  5
488
  8
0
  6
CONTINUOUS
 62
     0
 10
129.904125
 20
140.13737608
 30
0.0
 40
2.5
  1
100
  0
POINT
  5
489
  8
DEFPOINTS
 62
     0
 10
82.404121
 20
145.7120135
 30
0.0
  0
POINT
  5
48A
  8
DEFPOINTS
 62
     0
 10
182.404129
 20
145.7120135
 30
0.0
  0
POINT
  5
48B
  8
DEFPOINTS
 62
     0
 10
182.404129
 20
139.51237608
 30
0.0
  0
ENDBLK
  5
482
  8
0
  0
BLOCK
  8
0
  2
*D1
 70
     1
 10
0.0
 20
0.0
 30
0.0
  3
*D1
  1

  0
LINE
  5
492
  8
0
 62
     0
 10
16.4808242
 20
29.76740270000001
 30
0.0
 11
16.4808242
 21
38.7095681731938
 31
0.0
  0
LINE
  5
493
  8
0
 62
     0
 10
36.48082580000001
 20
29.76740270000001
 30
0.0
 11
36.48082580000001
 21
38.7095681731938
 31
0.0
  0
LINE
  5
494
  8
0
 62
     0
 10
18.9808242
 20
37.4595681731938
 30
0.0
 11
33.98082580000001
 21
37.4595681731938
 31
0.0
  0
SOLID
  5
495
  8
0
 62
     0
 10
18.9808242
 20
37.87623483986047
 30
0.0
 11
18.9808242
 21
37.04290150652714
 31
0.0
 12
16.4808242
 22
37.4595681731938
 32
0.0
 13
16.4808242
 23
37.4595681731938
 33
0.0
  0
SOLID
  5
496
  8
0
 62
     0
 10
33.98082580000001
 20
37.04290150652714
 30
0.0
 11
33.98082580000001
 21
37.87623483986047
 31
0.0
 12
36.48082580000001
 22
37.4595681731938
 32
0.0
 13
36.48082580000001
 23
37.4595681731938
 33
0.0
  0
TEXT
  5
497
  8
0
  6
CONTINUOUS
 62
     0
 10
24.605825
 20
38.0845681731938
 30
0.0
 40
2.5
  1
20
  0
POINT
  5
498
  8
DEFPOINTS
 62
     0
 10
16.4808242
 20
29.14240270000001
 30
0.0
  0
POINT
  5
499
  8
DEFPOINTS
 62
     0
 10
36.48082580000001
 20
29.14240270000001
 30
0.0
  0
POINT
  5
49A
  8
DEFPOINTS
 62
     0
 10
36.48082580000001
 20
37.4595681731938
 30
0.0
  0
ENDBLK
  5
491
  8
0
  0
ENDSEC
  0
SECTION
  2
ENTITIES
  0
LINE
  5
25
  8
0
  6
DASHDOT
 62
     7
 10
29.2108246
 20
22.5724014
 30
0.0
 11
23.7508256
 21
22.5724014
 31
0.0
  0
LINE
  5
26
  8
0
  6
DASHDOT
 62
     7
 10
26.48082580000001
 20
25.3024018
 30
0.0
 11
26.48082580000001
 21
19.8424012
 31
0.0
  0
POLYLINE
  5
27
  8
0
 62
     7
 66
     1
 10
0.0
 20
0.0
 30
0.0
 70
     1
  0
VERTEX
  5
28
  8
0
 10
25.7711364
 20
32.0578492
 30
0.0
  0
VERTEX
  5
29
  8
0
 10
25.7711364
 20
32.1496368
 30
0.0
  0
VERTEX
  5
2A
  8
0
 10
25.0660934
 20
32.1496368
 30
0.0
  0
VERTEX
  5
2B
  8
0
 10
25.0660934
 20
32.0810486
 30
0.0
  0
VERTEX
  5
2C
  8
0
 10
25.12762
 20
32.0628936
 30
0.0
  0
VERTEX
  5
2D
  8
0
 10
25.1689758
 20
32.0265808
 30
0.0
  0
VERTEX
  5
2E
  8
0
 10
25.1931824
 20
31.971106
 30
0.0
  0
VERTEX
  5
2F
  8
0
 10
25.2012512
 20
31.8944488
 30
0.0
  0
VERTEX
  5
30
  8
0
 10
25.2728652
 20
31.8944488
 30
0.0
  0
VERTEX
  5
31
  8
0
 10
25.2728652
 20
32.0578492
 30
0.0
  0
SEQEND
  5
32
  8
0
  0
POLYLINE
  5
33
  8
0
 62
     7
 66
     1
 10
0.0
 20
0.0
 30
0.0
 70
     1
  0
VERTEX
  5
34
  8
0
 10
25.7711364
 20
32.7536132
 30
0.0
  0
VERTEX
  5
35
  8
0
 10
25.7711364
 20
32.892807
 30
0.0
  0
VERTEX
  5
36
  8
0
 10
25.6208496
 20
32.892807
 30
0.0
  0
VERTEX
  5
37
  8
0
 10
25.6208496
 20
32.7536132
 30
0.0
  0
SEQEND
  5
38
  8
0
  0
POLYLINE
  5
39
  8
0
 62
     7
 66
     1
 10
0.0
 20
0.0
 30
0.0
 70
     1
  0
VERTEX
  5
3A
  8
0
 10
25.2597534
 20
33.81248780000001
 30
0.0
  0
VERTEX
  5
3B
  8
0
 10
25.1780532
 20
33.79332580000001
 30
0.0
  0
VERTEX
  5
3C
  8
0
 10
25.1175338
 20
33.748944
 30
0.0
  0
VERTEX
  5
3D
  8
0
 10
25.0792054
 20
33.6803558
 30
0.0
  0
VERTEX
  5
3E
  8
0
 10
25.0660934
 20
33.5915954
 30
0.0
  0
VERTEX
  5
3F
  8
0
 10
25.0731536
 20
33.5320862
 30
0.0
  0
VERTEX
  5
40
  8
0
 10
25.0923172
 20
33.4806458
 30
0.0
  0
VERTEX
  5
41
  8
0
 10
25.1235856
 20
33.435257
 30
0.0
  0
VERTEX
  5
42
  8
0
 10
25.1679656
 20
33.3969268
 30
0.0
  0
VERTEX
  5
43
  8
0
 10
25.223442
 20
33.36666880000001
 30
0.0
  0
VERTEX
  5
44
  8
0
 10
25.2910218
 20
33.3444764
 30
0.0
  0
VERTEX
  5
45
  8
0
 10
25.3707046
 20
33.3303558
 30
0.0
  0
VERTEX
  5
46
  8
0
 10
25.4604736
 20
33.3263214
 30
0.0
  0
VERTEX
  5
47
  8
0
 10
25.6037018
 20
33.3424592
 30
0.0
  0
VERTEX
  5
48
  8
0
 10
25.7075928
 20
33.3918854
 30
0.0
  0
VERTEX
  5
49
  8
0
 10
25.7701264
 20
33.4715668
 30
0.0
  0
VERTEX
  5
4A
  8
0
 10
25.7913086
 20
33.5805024
 30
0.0
  0
VERTEX
  5
4B
  8
0
 10
25.7731536
 20
33.6783386
 30
0.0
  0
VERTEX
  5
4C
  8
0
 10
25.7257476
 20
33.7529786
 30
0.0
  0
VERTEX
  5
4D
  8
0
 10
25.6511078
 20
33.8013946
 30
0.0
  0
VERTEX
  5
4E
  8
0
 10
25.5562942
 20
33.81854240000001
 30
0.0
  0
VERTEX
  5
4F
  8
0
 10
25.4604736
 20
33.8013946
 30
0.0
  0
VERTEX
  5
50
  8
0
 10
25.3868424
 20
33.7549958
 30
0.0
  0
VERTEX
  5
51
  8
0
 10
25.340445
 20
33.6833832
 30
0.0
  0
VERTEX
  5
52
  8
0
 10
25.3243058
 20
33.5946198
 30
0.0
  0
VERTEX
  5
53
  8
0
 10
25.3444794
 20
33.4988006
 30
0.0
  0
VERTEX
  5
54
  8
0
 10
25.4019714
 20
33.427185
 30
0.0
  0
VERTEX
  5
55
  8
0
 10
25.2910218
 20
33.4423156
 30
0.0
  0
VERTEX
  5
56
  8
0
 10
25.2113388
 20
33.47459420000001
 30
0.0
  0
VERTEX
  5
57
  8
0
 10
25.1639312
 20
33.52401740000001
 30
0.0
  0
VERTEX
  5
58
  8
0
 10
25.1477936
 20
33.59260560000001
 30
0.0
  0
VERTEX
  5
59
  8
0
 10
25.1558624
 20
33.6430358
 30
0.0
  0
VERTEX
  5
5A
  8
0
 10
25.1770446
 20
33.681366
 30
0.0
  0
VERTEX
  5
5B
  8
0
 10
25.2123474
 20
33.7065826
 30
0.0
  0
VERTEX
  5
5C
  8
0
 10
25.2597534
 20
33.719693
 30
0.0
  0
SEQEND
  5
5D
  8
0
  0
POLYLINE
  5
5E
  8
0
 62
     7
 66
     1
 10
0.0
 20
0.0
 30
0.0
 70
     1
  0
VERTEX
  5
5F
  8
0
 10
25.5573028
 20
33.7207032
 30
0.0
  0
VERTEX
  5
60
  8
0
 10
25.6208496
 20
33.709607
 30
0.0
  0
VERTEX
  5
61
  8
0
 10
25.6692626
 20
33.681366
 30
0.0
  0
VERTEX
  5
62
  8
0
 10
25.7015412
 20
33.63597720000001
 30
0.0
  0
VERTEX
  5
63
  8
0
 10
25.7116272
 20
33.5794922
 30
0.0
  0
VERTEX
  5
64
  8
0
 10
25.7015412
 20
33.519983
 30
0.0
  0
VERTEX
  5
65
  8
0
 10
25.6702728
 20
33.47459420000001
 30
0.0
  0
VERTEX
  5
66
  8
0
 10
25.6218566
 20
33.445343
 30
0.0
  0
VERTEX
  5
67
  8
0
 10
25.5583114
 20
33.436264
 30
0.0
  0
VERTEX
  5
68
  8
0
 10
25.4957764
 20
33.44635
 30
0.0
  0
VERTEX
  5
69
  8
0
 10
25.4483704
 20
33.47459420000001
 30
0.0
  0
VERTEX
  5
6A
  8
0
 10
25.4181106
 20
33.52099
 30
0.0
  0
VERTEX
  5
6B
  8
0
 10
25.407016
 20
33.5835266
 30
0.0
  0
VERTEX
  5
6C
  8
0
 10
25.4181106
 20
33.6379944
 30
0.0
  0
VERTEX
  5
6D
  8
0
 10
25.4473618
 20
33.681366
 30
0.0
  0
VERTEX
  5
6E
  8
0
 10
25.4947678
 20
33.709607
 30
0.0
  0
SEQEND
  5
6F
  8
0
  0
POLYLINE
  5
70
  8
0
 62
     7
 66
     1
 10
0.0
 20
0.0
 30
0.0
 70
     1
  0
VERTEX
  5
71
  8
0
 10
25.7711364
 20
34.3730926
 30
0.0
  0
VERTEX
  5
72
  8
0
 10
25.7711364
 20
34.4638732
 30
0.0
  0
VERTEX
  5
73
  8
0
 10
25.5976486
 20
34.4638732
 30
0.0
  0
VERTEX
  5
74
  8
0
 10
25.5976486
 20
34.5637298
 30
0.0
  0
VERTEX
  5
75
  8
0
 10
25.516957
 20
34.5637298
 30
0.0
  0
VERTEX
  5
76
  8
0
 10
25.516957
 20
34.4638732
 30
0.0
  0
VERTEX
  5
77
  8
0
 10
25.0862656
 20
34.4638732
 30
0.0
  0
VERTEX
  5
78
  8
0
 10
25.0862656
 20
34.37208560000001
 30
0.0
  0
VERTEX
  5
79
  8
0
 10
25.5088882
 20
34.0654572
 30
0.0
  0
VERTEX
  5
7A
  8
0
 10
25.5976486
 20
34.0654572
 30
0.0
  0
VERTEX
  5
7B
  8
0
 10
25.5976486
 20
34.3730926
 30
0.0
  0
SEQEND
  5
7C
  8
0
  0
POLYLINE
  5
7D
  8
0
 62
     7
 66
     1
 10
0.0
 20
0.0
 30
0.0
 70
     1
  0
VERTEX
  5
7E
  8
0
 10
25.516957
 20
34.1501832
 30
0.0
  0
VERTEX
  5
7F
  8
0
 10
25.2032684
 20
34.3730926
 30
0.0
  0
VERTEX
  5
80
  8
0
 10
25.516957
 20
34.3730926
 30
0.0
  0
SEQEND
  5
81
  8
0
  0
LINE
  5
82
  8
0
 62
     7
 10
21.381485
 20
29.1324006
 30
0.0
 11
26.5711364
 21
29.1324006
 31
0.0
  0
LINE
  5
83
  8
0
 62
     7
 10
21.381485
 20
30.772403
 30
0.0
 11
26.5711364
 21
30.772403
 31
0.0
  0
POLYLINE
  5
84
  8
0
 62
     7
 66
     1
 10
0.0
 20
0.0
 30
0.0
  0
VERTEX
  5
85
  8
0
 10
26.0676086
 20
29.51877140000001
 30
0.0
  0
VERTEX
  5
86
  8
0
 10
26.1711364
 20
29.1324006
 30
0.0
  0
VERTEX
  5
87
  8
0
 10
26.2746644
 20
29.51877140000001
 30
0.0
  0
SEQEND
  5
88
  8
0
  0
POLYLINE
  5
89
  8
0
 62
     7
 66
     1
 10
0.0
 20
0.0
 30
0.0
  0
VERTEX
  5
8A
  8
0
 10
26.2746644
 20
30.3860322
 30
0.0
  0
VERTEX
  5
8B
  8
0
 10
26.1711364
 20
30.772403
 30
0.0
  0
VERTEX
  5
8C
  8
0
 10
26.0676086
 20
30.3860322
 30
0.0
  0
SEQEND
  5
8D
  8
0
  0
LINE
  5
8E
  8
0
 62
     7
 10
26.1711364
 20
29.1324006
 30
0.0
 11
26.1711364
 21
34.621222
 31
0.0
  0
POLYLINE
  5
8F
  8
0
 62
     7
 66
     1
 10
0.0
 20
0.0
 30
0.0
 70
     1
  0
VERTEX
  5
90
  8
0
 10
34.001529
 20
33.8653382
 30
0.0
  0
VERTEX
  5
91
  8
0
 10
34.0933166
 20
33.8653382
 30
0.0
  0
VERTEX
  5
92
  8
0
 10
34.0933166
 20
34.5703826
 30
0.0
  0
VERTEX
  5
93
  8
0
 10
34.0247284
 20
34.5703826
 30
0.0
  0
VERTEX
  5
94
  8
0
 10
34.0065734
 20
34.5088532
 30
0.0
  0
VERTEX
  5
95
  8
0
 10
33.9702606
 20
34.4674988
 30
0.0
  0
VERTEX
  5
96
  8
0
 10
33.9147858
 20
34.4432922
 30
0.0
  0
VERTEX
  5
97
  8
0
 10
33.8381286
 20
34.43522340000001
 30
0.0
  0
VERTEX
  5
98
  8
0
 10
33.8381286
 20
34.3636108
 30
0.0
  0
VERTEX
  5
99
  8
0
 10
34.001529
 20
34.3636108
 30
0.0
  0
SEQEND
  5
9A
  8
0
  0
POLYLINE
  5
9B
  8
0
 62
     7
 66
     1
 10
0.0
 20
0.0
 30
0.0
 70
     1
  0
VERTEX
  5
9C
  8
0
 10
34.697293
 20
33.8653382
 30
0.0
  0
VERTEX
  5
9D
  8
0
 10
34.8364868
 20
33.8653382
 30
0.0
  0
VERTEX
  5
9E
  8
0
 10
34.8364868
 20
34.015628
 30
0.0
  0
VERTEX
  5
9F
  8
0
 10
34.697293
 20
34.015628
 30
0.0
  0
SEQEND
  5
A0
  8
0
  0
POLYLINE
  5
A1
  8
0
 62
     7
 66
     1
 10
0.0
 20
0.0
 30
0.0
 70
     1
  0
VERTEX
  5
A2
  8
0
 10
35.2710114
 20
34.20726920000001
 30
0.0
  0
VERTEX
  5
A3
  8
0
 10
35.28614200000001
 20
34.0489136
 30
0.0
  0
VERTEX
  5
A4
  8
0
 10
35.333548
 20
33.9359436
 30
0.0
  0
VERTEX
  5
A5
  8
0
 10
35.409195
 20
33.8673554
 30
0.0
  0
VERTEX
  5
A6
  8
0
 10
35.514096
 20
33.845166
 30
0.0
  0
VERTEX
  5
A7
  8
0
 10
35.617984
 20
33.8673554
 30
0.0
  0
VERTEX
  5
A8
  8
0
 10
35.693634
 20
33.9359436
 30
0.0
  0
VERTEX
  5
A9
  8
0
 10
35.740033
 20
34.0489136
 30
0.0
  0
VERTEX
  5
AA
  8
0
 10
35.7561706
 20
34.20726920000001
 30
0.0
  0
VERTEX
  5
AB
  8
0
 10
35.740033
 20
34.364618
 30
0.0
  0
VERTEX
  5
AC
  8
0
 10
35.720868
 20
34.4271546
 30
0.0
  0
VERTEX
  5
AD
  8
0
 10
35.693634
 20
34.47859500000001
 30
0.0
  0
VERTEX
  5
AE
  8
0
 10
35.617984
 20
34.5471832
 30
0.0
  0
VERTEX
  5
AF
  8
0
 10
35.514096
 20
34.5703826
 30
0.0
  0
VERTEX
  5
B0
  8
0
 10
35.409195
 20
34.5471832
 30
0.0
  0
VERTEX
  5
B1
  8
0
 10
35.333548
 20
34.4775848
 30
0.0
  0
VERTEX
  5
B2
  8
0
 10
35.28614200000001
 20
34.364618
 30
0.0
  0
SEQEND
  5
B3
  8
0
  0
POLYLINE
  5
B4
  8
0
 62
     7
 66
     1
 10
0.0
 20
0.0
 30
0.0
 70
     1
  0
VERTEX
  5
B5
  8
0
 10
35.3678406
 20
34.20726920000001
 30
0.0
  0
VERTEX
  5
B6
  8
0
 10
35.3759094
 20
34.3293152
 30
0.0
  0
VERTEX
  5
B7
  8
0
 10
35.401126
 20
34.4170684
 30
0.0
  0
VERTEX
  5
B8
  8
0
 10
35.4465148
 20
34.468509
 30
0.0
  0
VERTEX
  5
B9
  8
0
 10
35.514096
 20
34.4866638
 30
0.0
  0
VERTEX
  5
BA
  8
0
 10
35.58066400000001
 20
34.468509
 30
0.0
  0
VERTEX
  5
BB
  8
0
 10
35.6260528
 20
34.4170684
 30
0.0
  0
VERTEX
  5
BC
  8
0
 10
35.6512696
 20
34.3293152
 30
0.0
  0
VERTEX
  5
BD
  8
0
 10
35.6593384
 20
34.20726920000001
 30
0.0
  0
VERTEX
  5
BE
  8
0
 10
35.6512696
 20
34.0842132
 30
0.0
  0
VERTEX
  5
BF
  8
0
 10
35.6260528
 20
33.996463
 30
0.0
  0
VERTEX
  5
C0
  8
0
 10
35.58066400000001
 20
33.9450226
 30
0.0
  0
VERTEX
  5
C1
  8
0
 10
35.514096
 20
33.9278748
 30
0.0
  0
VERTEX
  5
C2
  8
0
 10
35.4465148
 20
33.9450226
 30
0.0
  0
VERTEX
  5
C3
  8
0
 10
35.401126
 20
33.996463
 30
0.0
  0
VERTEX
  5
C4
  8
0
 10
35.3759094
 20
34.0842132
 30
0.0
  0
SEQEND
  5
C5
  8
0
  0
POLYLINE
  5
C6
  8
0
 62
     7
 66
     1
 10
0.0
 20
0.0
 30
0.0
 70
     1
  0
VERTEX
  5
C7
  8
0
 10
36.1210968
 20
33.8653382
 30
0.0
  0
VERTEX
  5
C8
  8
0
 10
36.2229706
 20
33.8653382
 30
0.0
  0
VERTEX
  5
C9
  8
0
 10
36.2562562
 20
34.0317658
 30
0.0
  0
VERTEX
  5
CA
  8
0
 10
36.3147584
 20
34.1870972
 30
0.0
  0
VERTEX
  5
CB
  8
0
 10
36.397467
 20
34.3313324
 30
0.0
  0
VERTEX
  5
CC
  8
0
 10
36.5053924
 20
34.4664916
 30
0.0
  0
VERTEX
  5
CD
  8
0
 10
36.5053924
 20
34.55021060000001
 30
0.0
  0
VERTEX
  5
CE
  8
0
 10
36.0252778
 20
34.55021060000001
 30
0.0
  0
VERTEX
  5
CF
  8
0
 10
36.0252778
 20
34.4584228
 30
0.0
  0
VERTEX
  5
D0
  8
0
 10
36.4085632
 20
34.4584228
 30
0.0
  0
VERTEX
  5
D1
  8
0
 10
36.2976104
 20
34.3222564
 30
0.0
  0
VERTEX
  5
D2
  8
0
 10
36.2138946
 20
34.1800354
 30
0.0
  0
VERTEX
  5
D3
  8
0
 10
36.1553924
 20
34.0287384
 30
0.0
  0
SEQEND
  5
D4
  8
0
  0
LINE
  5
D5
  8
0
 62
     7
 10
31.9801666
 20
31.172403
 30
0.0
 11
31.9801666
 21
33.8653382
 31
0.0
  0
LINE
  5
D6
  8
0
 62
     7
 10
33.0501648
 20
31.172403
 30
0.0
 11
33.0501648
 21
33.8653382
 31
0.0
  0
POLYLINE
  5
D7
  8
0
 62
     7
 66
     1
 10
0.0
 20
0.0
 30
0.0
  0
VERTEX
  5
D8
  8
0
 10
31.5937958
 20
33.3618104
 30
0.0
  0
VERTEX
  5
D9
  8
0
 10
31.9801666
 20
33.46533820000001
 30
0.0
  0
VERTEX
  5
DA
  8
0
 10
31.5937958
 20
33.56886600000001
 30
0.0
  0
SEQEND
  5
DB
  8
0
  0
POLYLINE
  5
DC
  8
0
 62
     7
 66
     1
 10
0.0
 20
0.0
 30
0.0
  0
VERTEX
  5
DD
  8
0
 10
33.43653560000001
 20
33.56886600000001
 30
0.0
  0
VERTEX
  5
DE
  8
0
 10
33.0501648
 20
33.46533820000001
 30
0.0
  0
VERTEX
  5
DF
  8
0
 10
33.43653560000001
 20
33.3618104
 30
0.0
  0
SEQEND
  5
E0
  8
0
  0
LINE
  5
E1
  8
0
 62
     7
 10
30.9801666
 20
33.46533820000001
 30
0.0
 11
36.5649018
 21
33.46533820000001
 31
0.0
  0
POLYLINE
  5
E2
  8
0
 62
     7
 66
     1
 10
0.0
 20
0.0
 30
0.0
 70
     1
  0
VERTEX
  5
E3
  8
0
 10
25.9810944
 20
22.7225158
 30
0.0
  0
VERTEX
  5
E4
  8
0
 10
26.0569428
 20
22.7723938
 30
0.0
  0
VERTEX
  5
E5
  8
0
 10
25.961621
 20
22.9173478
 30
0.0
  0
VERTEX
  5
E6
  8
0
 10
26.0450532
 20
22.9722122
 30
0.0
  0
VERTEX
  5
E7
  8
0
 10
26.0007172
 20
23.0396332
 30
0.0
  0
VERTEX
  5
E8
  8
0
 10
25.9172852
 20
22.9847686
 30
0.0
  0
VERTEX
  5
E9
  8
0
 10
25.6806458
 20
23.3446244
 30
0.0
  0
VERTEX
  5
EA
  8
0
 10
25.603955
 20
23.2941926
 30
0.0
  0
VERTEX
  5
EB
  8
0
 10
25.5799636
 20
22.7726044
 30
0.0
  0
VERTEX
  5
EC
  8
0
 10
25.6287322
 20
22.698442
 30
0.0
  0
VERTEX
  5
ED
  8
0
 10
25.8857728
 20
22.8674698
 30
0.0
  0
SEQEND
  5
EE
  8
0
  0
POLYLINE
  5
EF
  8
0
 62
     7
 66
     1
 10
0.0
 20
0.0
 30
0.0
 70
     1
  0
VERTEX
  5
F0
  8
0
 10
25.655188
 20
22.8124146
 30
0.0
  0
VERTEX
  5
F1
  8
0
 10
25.6690826
 20
23.196988
 30
0.0
  0
VERTEX
  5
F2
  8
0
 10
25.8414368
 20
22.9348908
 30
0.0
  0
SEQEND
  5
F3
  8
0
  0
POLYLINE
  5
F4
  8
0
 62
     7
 66
     1
 10
0.0
 20
0.0
 30
0.0
 70
     1
  0
VERTEX
  5
F5
  8
0
 10
26.50090640000001
 20
23.0643432
 30
0.0
  0
VERTEX
  5
F6
  8
0
 10
26.6172058
 20
23.1408218
 30
0.0
  0
VERTEX
  5
F7
  8
0
 10
26.5346314
 20
23.266391
 30
0.0
  0
VERTEX
  5
F8
  8
0
 10
26.4183288
 20
23.1899124
 30
0.0
  0
SEQEND
  5
F9
  8
0
  0
POLYLINE
  5
FA
  8
0
 62
     7
 66
     1
 10
0.0
 20
0.0
 30
0.0
 70
     1
  0
VERTEX
  5
FB
  8
0
 10
26.9777374
 20
23.3779052
 30
0.0
  0
VERTEX
  5
FC
  8
0
 10
27.3797302
 20
23.6422546
 30
0.0
  0
VERTEX
  5
FD
  8
0
 10
27.332071
 20
23.7147324
 30
0.0
  0
VERTEX
  5
FE
  8
0
 10
27.0143524
 20
23.5058014
 30
0.0
  0
VERTEX
  5
FF
  8
0
 10
27.0060028
 20
23.557048
 30
0.0
  0
VERTEX
  5
100
  8
0
 10
27.0147278
 20
23.6098664
 30
0.0
  0
VERTEX
  5
101
  8
0
 10
27.068927
 20
23.731218
 30
0.0
  0
VERTEX
  5
102
  8
0
 10
27.1020234
 20
23.7891984
 30
0.0
  0
VERTEX
  5
103
  8
0
 10
27.1338134
 20
23.8620132
 30
0.0
  0
VERTEX
  5
104
  8
0
 10
27.14571220000001
 20
23.9301986
 30
0.0
  0
VERTEX
  5
105
  8
0
 10
27.1357696
 20
23.9948838
 30
0.0
  0
VERTEX
  5
106
  8
0
 10
27.1070678
 20
24.0568908
 30
0.0
  0
VERTEX
  5
107
  8
0
 10
27.0461884
 20
24.1182602
 30
0.0
  0
VERTEX
  5
108
  8
0
 10
26.9700012
 20
24.1478348
 30
0.0
  0
VERTEX
  5
109
  8
0
 10
26.8860474
 20
24.1433288
 30
0.0
  0
VERTEX
  5
10A
  8
0
 10
26.7993592
 20
24.1044312
 30
0.0
  0
VERTEX
  5
10B
  8
0
 10
26.7278748
 20
24.0369018
 30
0.0
  0
VERTEX
  5
10C
  8
0
 10
26.6924012
 20
23.956836
 30
0.0
  0
VERTEX
  5
10D
  8
0
 10
26.6943572
 20
23.8675828
 30
0.0
  0
VERTEX
  5
10E
  8
0
 10
26.735736
 20
23.7752822
 30
0.0
  0
VERTEX
  5
10F
  8
0
 10
26.7434968
 20
23.7634842
 30
0.0
  0
VERTEX
  5
110
  8
0
 10
26.8201874
 20
23.8139144
 30
0.0
  0
VERTEX
  5
111
  8
0
 10
26.8157532
 20
23.8206574
 30
0.0
  0
VERTEX
  5
112
  8
0
 10
26.7856536
 20
23.8829528
 30
0.0
  0
VERTEX
  5
113
  8
0
 10
26.7806976
 20
23.9400528
 30
0.0
  0
VERTEX
  5
114
  8
0
 10
26.7992004
 20
23.9908508
 30
0.0
  0
VERTEX
  5
115
  8
0
 10
26.8411438
 20
24.0317108
 30
0.0
  0
VERTEX
  5
116
  8
0
 10
26.8955658
 20
24.055426
 30
0.0
  0
VERTEX
  5
117
  8
0
 10
26.9456574
 20
24.0581878
 30
0.0
  0
VERTEX
  5
118
  8
0
 10
26.9908692
 20
24.040837
 30
0.0
  0
VERTEX
  5
119
  8
0
 10
27.0264526
 20
24.0050842
 30
0.0
  0
VERTEX
  5
11A
  8
0
 10
27.046045
 20
23.962439
 30
0.0
  0
VERTEX
  5
11B
  8
0
 10
27.05164480000001
 20
23.9190414
 30
0.0
  0
VERTEX
  5
11C
  8
0
 10
27.0435212
 20
23.8726532
 30
0.0
  0
VERTEX
  5
11D
  8
0
 10
27.0230652
 20
23.8229874
 30
0.0
  0
VERTEX
  5
11E
  8
0
 10
26.9910766
 20
23.763321
 30
0.0
  0
VERTEX
  5
11F
  8
0
 10
26.9428466
 20
23.6567596
 30
0.0
  0
VERTEX
  5
120
  8
0
 10
26.9212738
 20
23.5628982
 30
0.0
  0
VERTEX
  5
121
  8
0
 10
26.9310546
 20
23.4727554
 30
0.0
  0
VERTEX
  5
122
  8
0
 10
26.9760742
 20
23.3804336
 30
0.0
  0
SEQEND
  5
123
  8
0
  0
POLYLINE
  5
124
  8
0
 62
     7
 66
     1
 10
0.0
 20
0.0
 30
0.0
  0
VERTEX
  5
125
  8
0
 10
25.2410264
 20
22.2358506
 30
0.0
  0
VERTEX
  5
126
  8
0
 10
24.9733902
 20
22.8976456
 30
0.0
  0
SEQEND
  5
127
  8
0
  0
POLYLINE
  5
128
  8
0
 62
     7
 66
     1
 10
0.0
 20
0.0
 30
0.0
 70
     1
  0
VERTEX
  5
129
  8
0
 10
25.3216614
 20
22.7077714
 30
0.0
  0
VERTEX
  5
12A
  8
0
 10
25.308841
 20
22.7272674
 30
0.0
  0
VERTEX
  5
12B
  8
0
 10
25.2734528
 20
22.759848
 30
0.0
  0
VERTEX
  5
12C
  8
0
 10
25.2444748
 20
22.7826812
 30
0.0
  0
VERTEX
  5
12D
  8
0
 10
25.2219056
 20
22.7957672
 30
0.0
  0
VERTEX
  5
12E
  8
0
 10
25.1831802
 20
22.8121902
 30
0.0
  0
VERTEX
  5
12F
  8
0
 10
25.1347062
 20
22.8222046
 30
0.0
  0
VERTEX
  5
130
  8
0
 10
25.0926422
 20
22.8224686
 30
0.0
  0
VERTEX
  5
131
  8
0
 10
25.0667358
 20
22.819397
 30
0.0
  0
VERTEX
  5
132
  8
0
 10
25.0310822
 20
22.8099136
 30
0.0
  0
VERTEX
  5
133
  8
0
 10
24.9856812
 20
22.7940216
 30
0.0
  0
VERTEX
  5
134
  8
0
 10
24.966185
 20
22.7812012
 30
0.0
  0
VERTEX
  5
135
  8
0
 10
24.9466888
 20
22.7683808
 30
0.0
  0
VERTEX
  5
136
  8
0
 10
24.9141082
 20
22.7329926
 30
0.0
  0
VERTEX
  5
137
  8
0
 10
24.891275
 20
22.7040146
 30
0.0
  0
VERTEX
  5
138
  8
0
 10
24.878189
 20
22.6814454
 30
0.0
  0
VERTEX
  5
139
  8
0
 10
24.861766
 20
22.64272
 30
0.0
  0
VERTEX
  5
13A
  8
0
 10
24.8517518
 20
22.594246
 30
0.0
  0
VERTEX
  5
13B
  8
0
 10
24.8514878
 20
22.552182
 30
0.0
  0
VERTEX
  5
13C
  8
0
 10
24.8545594
 20
22.5262756
 30
0.0
  0
VERTEX
  5
13D
  8
0
 10
24.8640426
 20
22.490622
 30
0.0
  0
VERTEX
  5
13E
  8
0
 10
24.8799346
 20
22.4452194
 30
0.0
  0
VERTEX
  5
13F
  8
0
 10
24.8927552
 20
22.4257248
 30
0.0
  0
VERTEX
  5
140
  8
0
 10
24.9055756
 20
22.4062286
 30
0.0
  0
VERTEX
  5
141
  8
0
 10
24.9409638
 20
22.373648
 30
0.0
  0
VERTEX
  5
142
  8
0
 10
24.9699418
 20
22.3508132
 30
0.0
  0
VERTEX
  5
143
  8
0
 10
24.992511
 20
22.3377288
 30
0.0
  0
VERTEX
  5
144
  8
0
 10
25.0312362
 20
22.3213044
 30
0.0
  0
VERTEX
  5
145
  8
0
 10
25.0797104
 20
22.3112916
 30
0.0
  0
VERTEX
  5
146
  8
0
 10
25.1217742
 20
22.311026
 30
0.0
  0
VERTEX
  5
147
  8
0
 10
25.1476806
 20
22.3140992
 30
0.0
  0
VERTEX
  5
148
  8
0
 10
25.1833344
 20
22.3235824
 30
0.0
  0
VERTEX
  5
149
  8
0
 10
25.2287368
 20
22.3394744
 30
0.0
  0
VERTEX
  5
14A
  8
0
 10
25.2482316
 20
22.352295
 30
0.0
  0
VERTEX
  5
14B
  8
0
 10
25.2677276
 20
22.3651154
 30
0.0
  0
VERTEX
  5
14C
  8
0
 10
25.3003082
 20
22.4005036
 30
0.0
  0
VERTEX
  5
14D
  8
0
 10
25.323143
 20
22.4294816
 30
0.0
  0
VERTEX
  5
14E
  8
0
 10
25.3362274
 20
22.4520508
 30
0.0
  0
VERTEX
  5
14F
  8
0
 10
25.352652
 20
22.490776
 30
0.0
  0
VERTEX
  5
150
  8
0
 10
25.3626648
 20
22.5392502
 30
0.0
  0
VERTEX
  5
151
  8
0
 10
25.3629302
 20
22.581314
 30
0.0
  0
VERTEX
  5
152
  8
0
 10
25.3598572
 20
22.6072204
 30
0.0
  0
VERTEX
  5
153
  8
0
 10
25.3503754
 20
22.6428742
 30
0.0
  0
VERTEX
  5
154
  8
0
 10
25.3344818
 20
22.6882752
 30
0.0
  0
SEQEND
  5
155
  8
0
  0
POLYLINE
  5
156
  8
0
 62
     7
 66
     1
 10
0.0
 20
0.0
 30
0.0
  0
VERTEX
  5
157
  8
0
 10
24.4602676
 20
21.119783
 30
0.0
  0
VERTEX
  5
158
  8
0
 10
24.72621
 20
21.4185714
 30
0.0
  0
VERTEX
  5
159
  8
0
 10
24.3465026
 20
21.2927842
 30
0.0
  0
SEQEND
  5
15A
  8
0
  0
POLYLINE
  5
15B
  8
0
 62
     7
 66
     1
 10
0.0
 20
0.0
 30
0.0
  0
VERTEX
  5
15C
  8
0
 10
28.5013854
 20
24.0250198
 30
0.0
  0
VERTEX
  5
15D
  8
0
 10
28.2354432
 20
23.7262314
 30
0.0
  0
VERTEX
  5
15E
  8
0
 10
28.615149
 20
23.8520188
 30
0.0
  0
SEQEND
  5
15F
  8
0
  0
LINE
  5
160
  8
0
 62
     7
 10
23.8906784
 20
20.86913
 30
0.0
 11
29.0709748
 21
24.275673
 31
0.0
  0
POLYLINE
  5
161
  8
0
 62
     7
 66
     1
 10
0.0
 20
0.0
 30
0.0
 70
     1
  0
VERTEX
  5
162
  8
0
 10
25.8611146
 20
7.6677948
 30
0.0
  0
VERTEX
  5
163
  8
0
 10
26.3422394
 20
7.6677948
 30
0.0
  0
VERTEX
  5
164
  8
0
 10
26.3422394
 20
7.754538800000001
 30
0.0
  0
VERTEX
  5
165
  8
0
 10
25.9619782
 20
7.754538800000001
 30
0.0
  0
VERTEX
  5
166
  8
0
 10
25.9831604
 20
7.8019448
 30
0.0
  0
VERTEX
  5
167
  8
0
 10
26.0194702
 20
7.841281800000001
 30
0.0
  0
VERTEX
  5
168
  8
0
 10
26.13143
 20
7.912896000000001
 30
0.0
  0
VERTEX
  5
169
  8
0
 10
26.1909424
 20
7.943155000000001
 30
0.0
  0
VERTEX
  5
16A
  8
0
 10
26.2575104
 20
7.986527200000001
 30
0.0
  0
VERTEX
  5
16B
  8
0
 10
26.3049194
 20
8.0369598
 30
0.0
  0
VERTEX
  5
16C
  8
0
 10
26.3321502
 20
8.0964698
 30
0.0
  0
VERTEX
  5
16D
  8
0
 10
26.3422394
 20
8.164048800000002
 30
0.0
  0
VERTEX
  5
16E
  8
0
 10
26.3250916
 20
8.2487748
 30
0.0
  0
VERTEX
  5
16F
  8
0
 10
26.2776856
 20
8.315345800000001
 30
0.0
  0
VERTEX
  5
170
  8
0
 10
26.2050628
 20
8.357708800000001
 30
0.0
  0
VERTEX
  5
171
  8
0
 10
26.111258
 20
8.372837800000001
 30
0.0
  0
VERTEX
  5
172
  8
0
 10
26.0144288
 20
8.355690800000001
 30
0.0
  0
VERTEX
  5
173
  8
0
 10
25.9407958
 20
8.308284800000001
 30
0.0
  0
VERTEX
  5
174
  8
0
 10
25.8933898
 20
8.2326362
 30
0.0
  0
VERTEX
  5
175
  8
0
 10
25.8772522
 20
8.1327812
 30
0.0
  0
VERTEX
  5
176
  8
0
 10
25.8772522
 20
8.11866
 30
0.0
  0
VERTEX
  5
177
  8
0
 10
25.96904
 20
8.11866
 30
0.0
  0
VERTEX
  5
178
  8
0
 10
25.96904
 20
8.1267288
 30
0.0
  0
VERTEX
  5
179
  8
0
 10
25.9781158
 20
8.195316400000001
 30
0.0
  0
VERTEX
  5
17A
  8
0
 10
26.0053498
 20
8.245749600000002
 30
0.0
  0
VERTEX
  5
17B
  8
0
 10
26.0487214
 20
8.2780258
 30
0.0
  0
VERTEX
  5
17C
  8
0
 10
26.1062134
 20
8.2891204
 30
0.0
  0
VERTEX
  5
17D
  8
0
 10
26.1647156
 20
8.2790344
 30
0.0
  0
VERTEX
  5
17E
  8
0
 10
26.2080872
 20
8.2538186
 30
0.0
  0
VERTEX
  5
17F
  8
0
 10
26.2363312
 20
8.2144814
 30
0.0
  0
VERTEX
  5
180
  8
0
 10
26.2464172
 20
8.1650574
 30
0.0
  0
VERTEX
  5
181
  8
0
 10
26.2393554
 20
8.11866
 30
0.0
  0
VERTEX
  5
182
  8
0
 10
26.2201904
 20
8.0793228
 30
0.0
  0
VERTEX
  5
183
  8
0
 10
26.187915
 20
8.0450286
 30
0.0
  0
VERTEX
  5
184
  8
0
 10
26.1435334
 20
8.014769800000002
 30
0.0
  0
VERTEX
  5
185
  8
0
 10
26.084024
 20
7.982492000000001
 30
0.0
  0
VERTEX
  5
186
  8
0
 10
25.9851776
 20
7.919956200000001
 30
0.0
  0
VERTEX
  5
187
  8
0
 10
25.9155822
 20
7.853386
 30
0.0
  0
VERTEX
  5
188
  8
0
 10
25.8742248
 20
7.772694400000001
 30
0.0
  0
VERTEX
  5
189
  8
0
 10
25.8611146
 20
7.6708214
 30
0.0
  0
SEQEND
  5
18A
  8
0
  0
POLYLINE
  5
18B
  8
0
 62
     7
 66
     1
 10
0.0
 20
0.0
 30
0.0
 70
     1
  0
VERTEX
  5
18C
  8
0
 10
26.6113434
 20
8.0097252
 30
0.0
  0
VERTEX
  5
18D
  8
0
 10
26.626474
 20
7.8513688
 30
0.0
  0
VERTEX
  5
18E
  8
0
 10
26.67388
 20
7.7384002
 30
0.0
  0
VERTEX
  5
18F
  8
0
 10
26.74953
 20
7.669812
 30
0.0
  0
VERTEX
  5
190
  8
0
 10
26.8544282
 20
7.647622
 30
0.0
  0
VERTEX
  5
191
  8
0
 10
26.958319
 20
7.669812
 30
0.0
  0
VERTEX
  5
192
  8
0
 10
27.033966
 20
7.7384002
 30
0.0
  0
VERTEX
  5
193
  8
0
 10
27.080365
 20
7.8513688
 30
0.0
  0
VERTEX
  5
194
  8
0
 10
27.0965026
 20
8.0097252
 30
0.0
  0
VERTEX
  5
195
  8
0
 10
27.080365
 20
8.1670754
 30
0.0
  0
VERTEX
  5
196
  8
0
 10
27.0612
 20
8.2296104
 30
0.0
  0
VERTEX
  5
197
  8
0
 10
27.033966
 20
8.281051600000001
 30
0.0
  0
VERTEX
  5
198
  8
0
 10
26.958319
 20
8.3496398
 30
0.0
  0
VERTEX
  5
199
  8
0
 10
26.8544282
 20
8.372837800000001
 30
0.0
  0
VERTEX
  5
19A
  8
0
 10
26.74953
 20
8.3496398
 30
0.0
  0
VERTEX
  5
19B
  8
0
 10
26.67388
 20
8.2800422
 30
0.0
  0
VERTEX
  5
19C
  8
0
 10
26.626474
 20
8.1670754
 30
0.0
  0
SEQEND
  5
19D
  8
0
  0
POLYLINE
  5
19E
  8
0
 62
     7
 66
     1
 10
0.0
 20
0.0
 30
0.0
 70
     1
  0
VERTEX
  5
19F
  8
0
 10
26.7081756
 20
8.0097252
 30
0.0
  0
VERTEX
  5
1A0
  8
0
 10
26.7162446
 20
8.131771800000001
 30
0.0
  0
VERTEX
  5
1A1
  8
0
 10
26.7414612
 20
8.219524400000001
 30
0.0
  0
VERTEX
  5
1A2
  8
0
 10
26.78685
 20
8.2709656
 30
0.0
  0
VERTEX
  5
1A3
  8
0
 10
26.8544282
 20
8.2891204
 30
0.0
  0
VERTEX
  5
1A4
  8
0
 10
26.9209992
 20
8.2709656
 30
0.0
  0
VERTEX
  5
1A5
  8
0
 10
26.966388
 20
8.219524400000001
 30
0.0
  0
VERTEX
  5
1A6
  8
0
 10
26.9916046
 20
8.131771800000001
 30
0.0
  0
VERTEX
  5
1A7
  8
0
 10
26.9996734
 20
8.0097252
 30
0.0
  0
VERTEX
  5
1A8
  8
0
 10
26.9916046
 20
7.8866706
 30
0.0
  0
VERTEX
  5
1A9
  8
0
 10
26.966388
 20
7.798919
 30
0.0
  0
VERTEX
  5
1AA
  8
0
 10
26.9209992
 20
7.7474784
 30
0.0
  0
VERTEX
  5
1AB
  8
0
 10
26.8544282
 20
7.730331400000001
 30
0.0
  0
VERTEX
  5
1AC
  8
0
 10
26.78685
 20
7.7474784
 30
0.0
  0
VERTEX
  5
1AD
  8
0
 10
26.7414612
 20
7.798919
 30
0.0
  0
VERTEX
  5
1AE
  8
0
 10
26.7162446
 20
7.8866706
 30
0.0
  0
SEQEND
  5
1AF
  8
0
  0
LINE
  5
1B0
  8
0
 62
     7
 10
16.4808242
 20
13.6724014
 30
0.0
 11
16.4808242
 21
6.8677956
 31
0.0
  0
LINE
  5
1B1
  8
0
 62
     7
 10
36.48082580000001
 20
13.6724014
 30
0.0
 11
36.48082580000001
 21
6.8677956
 31
0.0
  0
POLYLINE
  5
1B2
  8
0
 62
     7
 66
     1
 10
0.0
 20
0.0
 30
0.0
  0
VERTEX
  5
1B3
  8
0
 10
16.8671952
 20
7.371323400000001
 30
0.0
  0
VERTEX
  5
1B4
  8
0
 10
16.4808242
 20
7.267795599999999
 30
0.0
  0
VERTEX
  5
1B5
  8
0
 10
16.8671952
 20
7.164267800000001
 30
0.0
  0
SEQEND
  5
1B6
  8
0
  0
POLYLINE
  5
1B7
  8
0
 62
     7
 66
     1
 10
0.0
 20
0.0
 30
0.0
  0
VERTEX
  5
1B8
  8
0
 10
36.094455
 20
7.164267800000001
 30
0.0
  0
VERTEX
  5
1B9
  8
0
 10
36.48082580000001
 20
7.267795599999999
 30
0.0
  0
VERTEX
  5
1BA
  8
0
 10
36.094455
 20
7.371323400000001
 30
0.0
  0
SEQEND
  5
1BB
  8
0
  0
LINE
  5
1BC
  8
0
 62
     7
 10
16.4808242
 20
7.267795599999999
 30
0.0
 11
36.48082580000001
 21
7.267795599999999
 31
0.0
  0
POLYLINE
  5
1BD
  8
0
 62
     7
 66
     1
 10
0.0
 20
0.0
 30
0.0
 70
     1
  0
VERTEX
  5
1BE
  8
0
 10
43.124707
 20
21.9526902
 30
0.0
  0
VERTEX
  5
1BF
  8
0
 10
43.124707
 20
22.4338134
 30
0.0
  0
VERTEX
  5
1C0
  8
0
 10
43.03796080000001
 20
22.4338134
 30
0.0
  0
VERTEX
  5
1C1
  8
0
 10
43.03796080000001
 20
22.0535538
 30
0.0
  0
VERTEX
  5
1C2
  8
0
 10
42.9905578
 20
22.074736
 30
0.0
  0
VERTEX
  5
1C3
  8
0
 10
42.9512208
 20
22.1110474
 30
0.0
  0
VERTEX
  5
1C4
  8
0
 10
42.8796052
 20
22.2230072
 30
0.0
  0
VERTEX
  5
1C5
  8
0
 10
42.849347
 20
22.2825164
 30
0.0
  0
VERTEX
  5
1C6
  8
0
 10
42.8059754
 20
22.3490876
 30
0.0
  0
VERTEX
  5
1C7
  8
0
 10
42.75554200000001
 20
22.3964936
 30
0.0
  0
VERTEX
  5
1C8
  8
0
 10
42.6960328
 20
22.4237274
 30
0.0
  0
VERTEX
  5
1C9
  8
0
 10
42.62845160000001
 20
22.4338134
 30
0.0
  0
VERTEX
  5
1CA
  8
0
 10
42.5437256
 20
22.4166672
 30
0.0
  0
VERTEX
  5
1CB
  8
0
 10
42.47715460000001
 20
22.3692596
 30
0.0
  0
VERTEX
  5
1CC
  8
0
 10
42.43479300000001
 20
22.296637
 30
0.0
  0
VERTEX
  5
1CD
  8
0
 10
42.4196624
 20
22.2028336
 30
0.0
  0
VERTEX
  5
1CE
  8
0
 10
42.43681040000001
 20
22.1060044
 30
0.0
  0
VERTEX
  5
1CF
  8
0
 10
42.48421640000001
 20
22.032373
 30
0.0
  0
VERTEX
  5
1D0
  8
0
 10
42.5598632
 20
21.9849656
 30
0.0
  0
VERTEX
  5
1D1
  8
0
 10
42.65972300000001
 20
21.9688278
 30
0.0
  0
VERTEX
  5
1D2
  8
0
 10
42.6738404
 20
21.9688278
 30
0.0
  0
VERTEX
  5
1D3
  8
0
 10
42.6738404
 20
22.060614
 30
0.0
  0
VERTEX
  5
1D4
  8
0
 10
42.6657746
 20
22.060614
 30
0.0
  0
VERTEX
  5
1D5
  8
0
 10
42.5971862
 20
22.069693
 30
0.0
  0
VERTEX
  5
1D6
  8
0
 10
42.546753
 20
22.0969254
 30
0.0
  0
VERTEX
  5
1D7
  8
0
 10
42.5144744
 20
22.140297
 30
0.0
  0
VERTEX
  5
1D8
  8
0
 10
42.5033814
 20
22.1977906
 30
0.0
  0
VERTEX
  5
1D9
  8
0
 10
42.5134674
 20
22.2562912
 30
0.0
  0
VERTEX
  5
1DA
  8
0
 10
42.538684
 20
22.2996644
 30
0.0
  0
VERTEX
  5
1DB
  8
0
 10
42.5780212
 20
22.3279052
 30
0.0
  0
VERTEX
  5
1DC
  8
0
 10
42.6274444
 20
22.3379928
 30
0.0
  0
VERTEX
  5
1DD
  8
0
 10
42.6738404
 20
22.330931
 30
0.0
  0
VERTEX
  5
1DE
  8
0
 10
42.71317740000001
 20
22.3117676
 30
0.0
  0
VERTEX
  5
1DF
  8
0
 10
42.7474732
 20
22.2794906
 30
0.0
  0
VERTEX
  5
1E0
  8
0
 10
42.77773440000001
 20
22.2351104
 30
0.0
  0
VERTEX
  5
1E1
  8
0
 10
42.8100098
 20
22.1755996
 30
0.0
  0
VERTEX
  5
1E2
  8
0
 10
42.8725464
 20
22.0767532
 30
0.0
  0
VERTEX
  5
1E3
  8
0
 10
42.9391144
 20
22.0071564
 30
0.0
  0
VERTEX
  5
1E4
  8
0
 10
43.019809
 20
21.965802
 30
0.0
  0
VERTEX
  5
1E5
  8
0
 10
43.1216828
 20
21.9526902
 30
0.0
  0
SEQEND
  5
1E6
  8
0
  0
POLYLINE
  5
1E7
  8
0
 62
     7
 66
     1
 10
0.0
 20
0.0
 30
0.0
 70
     1
  0
VERTEX
  5
1E8
  8
0
 10
42.7827758
 20
22.7029206
 30
0.0
  0
VERTEX
  5
1E9
  8
0
 10
42.9411346
 20
22.7180496
 30
0.0
  0
VERTEX
  5
1EA
  8
0
 10
43.0541016
 20
22.7654556
 30
0.0
  0
VERTEX
  5
1EB
  8
0
 10
43.1226898
 20
22.8411042
 30
0.0
  0
VERTEX
  5
1EC
  8
0
 10
43.14487920000001
 20
22.9460038
 30
0.0
  0
VERTEX
  5
1ED
  8
0
 10
43.1226898
 20
23.0498948
 30
0.0
  0
VERTEX
  5
1EE
  8
0
 10
43.0541016
 20
23.1255432
 30
0.0
  0
VERTEX
  5
1EF
  8
0
 10
42.9411346
 20
23.1719406
 30
0.0
  0
VERTEX
  5
1F0
  8
0
 10
42.7827758
 20
23.1880784
 30
0.0
  0
VERTEX
  5
1F1
  8
0
 10
42.6254272
 20
23.1719406
 30
0.0
  0
VERTEX
  5
1F2
  8
0
 10
42.5628906
 20
23.1527756
 30
0.0
  0
VERTEX
  5
1F3
  8
0
 10
42.51145020000001
 20
23.1255432
 30
0.0
  0
VERTEX
  5
1F4
  8
0
 10
42.44286200000001
 20
23.0498948
 30
0.0
  0
VERTEX
  5
1F5
  8
0
 10
42.4196624
 20
22.9460038
 30
0.0
  0
VERTEX
  5
1F6
  8
0
 10
42.44286200000001
 20
22.8411042
 30
0.0
  0
VERTEX
  5
1F7
  8
0
 10
42.5124604
 20
22.7654556
 30
0.0
  0
VERTEX
  5
1F8
  8
0
 10
42.6254272
 20
22.7180496
 30
0.0
  0
SEQEND
  5
1F9
  8
0
  0
POLYLINE
  5
1FA
  8
0
 62
     7
 66
     1
 10
0.0
 20
0.0
 30
0.0
 70
     1
  0
VERTEX
  5
1FB
  8
0
 10
42.7827758
 20
22.7997498
 30
0.0
  0
VERTEX
  5
1FC
  8
0
 10
42.66073
 20
22.8078186
 30
0.0
  0
VERTEX
  5
1FD
  8
0
 10
42.5729766
 20
22.8330352
 30
0.0
  0
VERTEX
  5
1FE
  8
0
 10
42.52153620000001
 20
22.878424
 30
0.0
  0
VERTEX
  5
1FF
  8
0
 10
42.5033814
 20
22.9460038
 30
0.0
  0
VERTEX
  5
200
  8
0
 10
42.52153620000001
 20
23.0125748
 30
0.0
  0
VERTEX
  5
201
  8
0
 10
42.5729766
 20
23.0579636
 30
0.0
  0
VERTEX
  5
202
  8
0
 10
42.66073
 20
23.0831802
 30
0.0
  0
VERTEX
  5
203
  8
0
 10
42.7827758
 20
23.091249
 30
0.0
  0
VERTEX
  5
204
  8
0
 10
42.905832
 20
23.0831802
 30
0.0
  0
VERTEX
  5
205
  8
0
 10
42.9935822
 20
23.0579636
 30
0.0
  0
VERTEX
  5
206
  8
0
 10
43.0450226
 20
23.0125748
 30
0.0
  0
VERTEX
  5
207
  8
0
 10
43.06217040000001
 20
22.9460038
 30
0.0
  0
VERTEX
  5
208
  8
0
 10
43.0450226
 20
22.878424
 30
0.0
  0
VERTEX
  5
209
  8
0
 10
42.9935822
 20
22.8330352
 30
0.0
  0
VERTEX
  5
20A
  8
0
 10
42.905832
 20
22.8078186
 30
0.0
  0
SEQEND
  5
20B
  8
0
  0
LINE
  5
20C
  8
0
 62
     7
 10
35.3808258
 20
12.5724006
 30
0.0
 11
43.92470700000001
 21
12.5724006
 31
0.0
  0
LINE
  5
20D
  8
0
 62
     7
 10
35.3808258
 20
32.572403
 30
0.0
 11
43.92470700000001
 21
32.572403
 31
0.0
  0
POLYLINE
  5
20E
  8
0
 62
     7
 66
     1
 10
0.0
 20
0.0
 30
0.0
  0
VERTEX
  5
20F
  8
0
 10
43.6282318
 20
32.1860322
 30
0.0
  0
VERTEX
  5
210
  8
0
 10
43.52470700000001
 20
32.572403
 30
0.0
  0
VERTEX
  5
211
  8
0
 10
43.4211792
 20
32.1860322
 30
0.0
  0
SEQEND
  5
212
  8
0
  0
POLYLINE
  5
213
  8
0
 62
     7
 66
     1
 10
0.0
 20
0.0
 30
0.0
  0
VERTEX
  5
214
  8
0
 10
43.4211792
 20
12.9587708
 30
0.0
  0
VERTEX
  5
215
  8
0
 10
43.52470700000001
 20
12.5724006
 30
0.0
  0
VERTEX
  5
216
  8
0
 10
43.6282318
 20
12.9587708
 30
0.0
  0
SEQEND
  5
217
  8
0
  0
LINE
  5
218
  8
0
 62
     7
 10
43.52470700000001
 20
12.5724006
 30
0.0
 11
43.52470700000001
 21
32.572403
 31
0.0
  0
POLYLINE
  5
219
  8
0
 62
     7
 66
     1
 10
0.0
 20
0.0
 30
0.0
 70
     1
  0
VERTEX
  5
21A
  8
0
 10
20.8490036
 20
21.2014512
 30
0.0
  0
VERTEX
  5
21B
  8
0
 10
20.9317124
 20
21.2236404
 30
0.0
  0
VERTEX
  5
21C
  8
0
 10
20.9962662
 20
21.2730636
 30
0.0
  0
VERTEX
  5
21D
  8
0
 10
21.036612
 20
21.3456864
 30
0.0
  0
VERTEX
  5
21E
  8
0
 10
21.051741
 20
21.4384826
 30
0.0
  0
VERTEX
  5
21F
  8
0
 10
21.0335862
 20
21.540355
 30
0.0
  0
VERTEX
  5
220
  8
0
 10
20.984163
 20
21.6200378
 30
0.0
  0
VERTEX
  5
221
  8
0
 10
20.9054886
 20
21.6704712
 30
0.0
  0
VERTEX
  5
222
  8
0
 10
20.8046234
 20
21.6896348
 30
0.0
  0
VERTEX
  5
223
  8
0
 10
20.7108184
 20
21.6724884
 30
0.0
  0
VERTEX
  5
224
  8
0
 10
20.6371872
 20
21.6240722
 30
0.0
  0
VERTEX
  5
225
  8
0
 10
20.5897812
 20
21.5484238
 30
0.0
  0
VERTEX
  5
226
  8
0
 10
20.5726348
 20
21.450586
 30
0.0
  0
VERTEX
  5
227
  8
0
 10
20.5847382
 20
21.3749374
 30
0.0
  0
VERTEX
  5
228
  8
0
 10
20.6180236
 20
21.3164352
 30
0.0
  0
VERTEX
  5
229
  8
0
 10
20.4294068
 20
21.3446778
 30
0.0
  0
VERTEX
  5
22A
  8
0
 10
20.4294068
 20
21.6513062
 30
0.0
  0
VERTEX
  5
22B
  8
0
 10
20.346698
 20
21.6513062
 30
0.0
  0
VERTEX
  5
22C
  8
0
 10
20.346698
 20
21.277098
 30
0.0
  0
VERTEX
  5
22D
  8
0
 10
20.7178802
 20
21.2216232
 30
0.0
  0
VERTEX
  5
22E
  8
0
 10
20.7178802
 20
21.3023148
 30
0.0
  0
VERTEX
  5
22F
  8
0
 10
20.6704728
 20
21.360817
 30
0.0
  0
VERTEX
  5
230
  8
0
 10
20.6533264
 20
21.4354568
 30
0.0
  0
VERTEX
  5
231
  8
0
 10
20.664421
 20
21.5000092
 30
0.0
  0
VERTEX
  5
232
  8
0
 10
20.696698
 20
21.5494324
 30
0.0
  0
VERTEX
  5
233
  8
0
 10
20.7461212
 20
21.5807006
 30
0.0
  0
VERTEX
  5
234
  8
0
 10
20.8096664
 20
21.5917968
 30
0.0
  0
VERTEX
  5
235
  8
0
 10
20.8732116
 20
21.5807006
 30
0.0
  0
VERTEX
  5
236
  8
0
 10
20.9226348
 20
21.5484238
 30
0.0
  0
VERTEX
  5
237
  8
0
 10
20.9539032
 20
21.4990006
 30
0.0
  0
VERTEX
  5
238
  8
0
 10
20.9649978
 20
21.4354568
 30
0.0
  0
VERTEX
  5
239
  8
0
 10
20.9579376
 20
21.3819976
 30
0.0
  0
VERTEX
  5
23A
  8
0
 10
20.9347382
 20
21.3406434
 30
0.0
  0
VERTEX
  5
23B
  8
0
 10
20.8984268
 20
21.3103836
 30
0.0
  0
VERTEX
  5
23C
  8
0
 10
20.8490036
 20
21.2952546
 30
0.0
  0
SEQEND
  5
23D
  8
0
  0
POLYLINE
  5
23E
  8
0
 62
     7
 66
     1
 10
0.0
 20
0.0
 30
0.0
 70
     1
  0
VERTEX
  5
23F
  8
0
 10
21.031569
 20
22.1292022
 30
0.0
  0
VERTEX
  5
240
  8
0
 10
21.031569
 20
22.268396
 30
0.0
  0
VERTEX
  5
241
  8
0
 10
20.8812806
 20
22.268396
 30
0.0
  0
VERTEX
  5
242
  8
0
 10
20.8812806
 20
22.1292022
 30
0.0
  0
SEQEND
  5
243
  8
0
  0
POLYLINE
  5
244
  8
0
 62
     7
 66
     1
 10
0.0
 20
0.0
 30
0.0
 70
     1
  0
VERTEX
  5
245
  8
0
 10
20.5201858
 20
23.1880784
 30
0.0
  0
VERTEX
  5
246
  8
0
 10
20.4384842
 20
23.1689148
 30
0.0
  0
VERTEX
  5
247
  8
0
 10
20.3779664
 20
23.1245346
 30
0.0
  0
VERTEX
  5
248
  8
0
 10
20.3396378
 20
23.0559464
 30
0.0
  0
VERTEX
  5
249
  8
0
 10
20.3265244
 20
22.967186
 30
0.0
  0
VERTEX
  5
24A
  8
0
 10
20.3335862
 20
22.9076752
 30
0.0
  0
VERTEX
  5
24B
  8
0
 10
20.3527496
 20
22.8562348
 30
0.0
  0
VERTEX
  5
24C
  8
0
 10
20.384018
 20
22.810846
 30
0.0
  0
VERTEX
  5
24D
  8
0
 10
20.4283982
 20
22.7725174
 30
0.0
  0
VERTEX
  5
24E
  8
0
 10
20.483873
 20
22.7422576
 30
0.0
  0
VERTEX
  5
24F
  8
0
 10
20.5514526
 20
22.7200668
 30
0.0
  0
VERTEX
  5
250
  8
0
 10
20.6311356
 20
22.7059464
 30
0.0
  0
VERTEX
  5
251
  8
0
 10
20.720906
 20
22.701912
 30
0.0
  0
VERTEX
  5
252
  8
0
 10
20.8641326
 20
22.7180496
 30
0.0
  0
VERTEX
  5
253
  8
0
 10
20.9680236
 20
22.7674728
 30
0.0
  0
VERTEX
  5
254
  8
0
 10
21.0305604
 20
22.8471572
 30
0.0
  0
VERTEX
  5
255
  8
0
 10
21.051741
 20
22.9560898
 30
0.0
  0
VERTEX
  5
256
  8
0
 10
21.0335862
 20
23.0539292
 30
0.0
  0
VERTEX
  5
257
  8
0
 10
20.9861786
 20
23.128569
 30
0.0
  0
VERTEX
  5
258
  8
0
 10
20.9115386
 20
23.1769836
 30
0.0
  0
VERTEX
  5
259
  8
0
 10
20.8167266
 20
23.19413
 30
0.0
  0
VERTEX
  5
25A
  8
0
 10
20.720906
 20
23.1769836
 30
0.0
  0
VERTEX
  5
25B
  8
0
 10
20.6472748
 20
23.1305862
 30
0.0
  0
VERTEX
  5
25C
  8
0
 10
20.6008774
 20
23.0589722
 30
0.0
  0
VERTEX
  5
25D
  8
0
 10
20.5847382
 20
22.9702118
 30
0.0
  0
VERTEX
  5
25E
  8
0
 10
20.6049118
 20
22.8743896
 30
0.0
  0
VERTEX
  5
25F
  8
0
 10
20.6624038
 20
22.8027756
 30
0.0
  0
VERTEX
  5
260
  8
0
 10
20.5514526
 20
22.8179062
 30
0.0
  0
VERTEX
  5
261
  8
0
 10
20.4717698
 20
22.8501832
 30
0.0
  0
VERTEX
  5
262
  8
0
 10
20.4243638
 20
22.8996064
 30
0.0
  0
VERTEX
  5
263
  8
0
 10
20.408226
 20
22.9681946
 30
0.0
  0
VERTEX
  5
264
  8
0
 10
20.4162948
 20
23.0186264
 30
0.0
  0
VERTEX
  5
265
  8
0
 10
20.4374756
 20
23.056955
 30
0.0
  0
VERTEX
  5
266
  8
0
 10
20.4727784
 20
23.0821716
 30
0.0
  0
VERTEX
  5
267
  8
0
 10
20.5201858
 20
23.0952836
 30
0.0
  0
SEQEND
  5
268
  8
0
  0
POLYLINE
  5
269
  8
0
 62
     7
 66
     1
 10
0.0
 20
0.0
 30
0.0
 70
     1
  0
VERTEX
  5
26A
  8
0
 10
20.8177352
 20
23.0962922
 30
0.0
  0
VERTEX
  5
26B
  8
0
 10
20.8812806
 20
23.0851974
 30
0.0
  0
VERTEX
  5
26C
  8
0
 10
20.9296952
 20
23.056955
 30
0.0
  0
VERTEX
  5
26D
  8
0
 10
20.961972
 20
23.0115662
 30
0.0
  0
VERTEX
  5
26E
  8
0
 10
20.9720582
 20
22.9550812
 30
0.0
  0
VERTEX
  5
26F
  8
0
 10
20.961972
 20
22.8955718
 30
0.0
  0
VERTEX
  5
270
  8
0
 10
20.9307038
 20
22.8501832
 30
0.0
  0
VERTEX
  5
271
  8
0
 10
20.8822892
 20
22.820932
 30
0.0
  0
VERTEX
  5
272
  8
0
 10
20.8187438
 20
22.8118546
 30
0.0
  0
VERTEX
  5
273
  8
0
 10
20.7562088
 20
22.8219406
 30
0.0
  0
VERTEX
  5
274
  8
0
 10
20.7088012
 20
22.8501832
 30
0.0
  0
VERTEX
  5
275
  8
0
 10
20.678543
 20
22.8965806
 30
0.0
  0
VERTEX
  5
276
  8
0
 10
20.6674468
 20
22.9591156
 30
0.0
  0
VERTEX
  5
277
  8
0
 10
20.678543
 20
23.0135834
 30
0.0
  0
VERTEX
  5
278
  8
0
 10
20.7077926
 20
23.056955
 30
0.0
  0
VERTEX
  5
279
  8
0
 10
20.7551986
 20
23.0851974
 30
0.0
  0
SEQEND
  5
27A
  8
0
  0
POLYLINE
  5
27B
  8
0
 62
     7
 66
     1
 10
0.0
 20
0.0
 30
0.0
 70
     1
  0
VERTEX
  5
27C
  8
0
 10
20.654335
 20
23.5681366
 30
0.0
  0
VERTEX
  5
27D
  8
0
 10
20.6825776
 20
23.5166962
 30
0.0
  0
VERTEX
  5
27E
  8
0
 10
20.7219146
 20
23.4813934
 30
0.0
  0
VERTEX
  5
27F
  8
0
 10
20.7713378
 20
23.4592026
 30
0.0
  0
VERTEX
  5
280
  8
0
 10
20.8308486
 20
23.4521424
 30
0.0
  0
VERTEX
  5
281
  8
0
 10
20.9206176
 20
23.46828
 30
0.0
  0
VERTEX
  5
282
  8
0
 10
20.990213
 20
23.514679
 30
0.0
  0
VERTEX
  5
283
  8
0
 10
21.0345948
 20
23.590326
 30
0.0
  0
VERTEX
  5
284
  8
0
 10
21.051741
 20
23.6932084
 30
0.0
  0
VERTEX
  5
285
  8
0
 10
21.0345948
 20
23.795082
 30
0.0
  0
VERTEX
  5
286
  8
0
 10
20.990213
 20
23.8707306
 30
0.0
  0
VERTEX
  5
287
  8
0
 10
20.9206176
 20
23.917128
 30
0.0
  0
VERTEX
  5
288
  8
0
 10
20.8308486
 20
23.9342742
 30
0.0
  0
VERTEX
  5
289
  8
0
 10
20.7713378
 20
23.9262054
 30
0.0
  0
VERTEX
  5
28A
  8
0
 10
20.7219146
 20
23.9050248
 30
0.0
  0
VERTEX
  5
28B
  8
0
 10
20.6825776
 20
23.8687134
 30
0.0
  0
VERTEX
  5
28C
  8
0
 10
20.654335
 20
23.81828
 30
0.0
  0
VERTEX
  5
28D
  8
0
 10
20.630127
 20
23.8586258
 30
0.0
  0
VERTEX
  5
28E
  8
0
 10
20.5968414
 20
23.8868682
 30
0.0
  0
VERTEX
  5
28F
  8
0
 10
20.5564972
 20
23.9040162
 30
0.0
  0
VERTEX
  5
290
  8
0
 10
20.5070724
 20
23.9100678
 30
0.0
  0
VERTEX
  5
291
  8
0
 10
20.4354584
 20
23.8939286
 30
0.0
  0
VERTEX
  5
292
  8
0
 10
20.3779664
 20
23.8515656
 30
0.0
  0
VERTEX
  5
293
  8
0
 10
20.3406464
 20
23.7829772
 30
0.0
  0
VERTEX
  5
294
  8
0
 10
20.3265244
 20
23.6932084
 30
0.0
  0
VERTEX
  5
295
  8
0
 10
20.3406464
 20
23.6024308
 30
0.0
  0
VERTEX
  5
296
  8
0
 10
20.3779664
 20
23.5338424
 30
0.0
  0
VERTEX
  5
297
  8
0
 10
20.4354584
 20
23.4904708
 30
0.0
  0
VERTEX
  5
298
  8
0
 10
20.5070724
 20
23.4753402
 30
0.0
  0
VERTEX
  5
299
  8
0
 10
20.5564972
 20
23.4803848
 30
0.0
  0
VERTEX
  5
29A
  8
0
 10
20.5968414
 20
23.4975312
 30
0.0
  0
SEQEND
  5
29B
  8
0
  0
POLYLINE
  5
29C
  8
0
 62
     7
 66
     1
 10
0.0
 20
0.0
 30
0.0
 70
     1
  0
VERTEX
  5
29D
  8
0
 10
20.82883
 20
23.5489716
 30
0.0
  0
VERTEX
  5
29E
  8
0
 10
20.7753724
 20
23.5580506
 30
0.0
  0
VERTEX
  5
29F
  8
0
 10
20.7350266
 20
23.5873002
 30
0.0
  0
VERTEX
  5
2A0
  8
0
 10
20.7088012
 20
23.6326904
 30
0.0
  0
VERTEX
  5
2A1
  8
0
 10
20.6997238
 20
23.6932084
 30
0.0
  0
VERTEX
  5
2A2
  8
0
 10
20.7088012
 20
23.7527192
 30
0.0
  0
VERTEX
  5
2A3
  8
0
 10
20.7350266
 20
23.798108
 30
0.0
  0
VERTEX
  5
2A4
  8
0
 10
20.7753724
 20
23.827359
 30
0.0
  0
VERTEX
  5
2A5
  8
0
 10
20.82883
 20
23.837445
 30
0.0
  0
VERTEX
  5
2A6
  8
0
 10
20.8863236
 20
23.827359
 30
0.0
  0
VERTEX
  5
2A7
  8
0
 10
20.9296952
 20
23.798108
 30
0.0
  0
VERTEX
  5
2A8
  8
0
 10
20.9579376
 20
23.7527192
 30
0.0
  0
VERTEX
  5
2A9
  8
0
 10
20.967015
 20
23.6932084
 30
0.0
  0
VERTEX
  5
2AA
  8
0
 10
20.9579376
 20
23.6326904
 30
0.0
  0
VERTEX
  5
2AB
  8
0
 10
20.9296952
 20
23.5873002
 30
0.0
  0
VERTEX
  5
2AC
  8
0
 10
20.8863236
 20
23.5580506
 30
0.0
  0
SEQEND
  5
2AD
  8
0
  0
POLYLINE
  5
2AE
  8
0
 62
     7
 66
     1
 10
0.0
 20
0.0
 30
0.0
 70
     1
  0
VERTEX
  5
2AF
  8
0
 10
20.5151412
 20
23.5711624
 30
0.0
  0
VERTEX
  5
2B0
  8
0
 10
20.4707612
 20
23.5792312
 30
0.0
  0
VERTEX
  5
2B1
  8
0
 10
20.436467
 20
23.6034394
 30
0.0
  0
VERTEX
  5
2B2
  8
0
 10
20.4152862
 20
23.6417678
 30
0.0
  0
VERTEX
  5
2B3
  8
0
 10
20.4072174
 20
23.6932084
 30
0.0
  0
VERTEX
  5
2B4
  8
0
 10
20.4152862
 20
23.7436402
 30
0.0
  0
VERTEX
  5
2B5
  8
0
 10
20.436467
 20
23.7819686
 30
0.0
  0
VERTEX
  5
2B6
  8
0
 10
20.4707612
 20
23.8061768
 30
0.0
  0
VERTEX
  5
2B7
  8
0
 10
20.5151412
 20
23.8152542
 30
0.0
  0
VERTEX
  5
2B8
  8
0
 10
20.5605316
 20
23.8061768
 30
0.0
  0
VERTEX
  5
2B9
  8
0
 10
20.5958344
 20
23.7819686
 30
0.0
  0
VERTEX
  5
2BA
  8
0
 10
20.6190322
 20
23.7436402
 30
0.0
  0
VERTEX
  5
2BB
  8
0
 10
20.6260926
 20
23.6932084
 30
0.0
  0
VERTEX
  5
2BC
  8
0
 10
20.6180236
 20
23.6417678
 30
0.0
  0
VERTEX
  5
2BD
  8
0
 10
20.5958344
 20
23.6034394
 30
0.0
  0
VERTEX
  5
2BE
  8
0
 10
20.5605316
 20
23.5792312
 30
0.0
  0
SEQEND
  5
2BF
  8
0
  0
LINE
  5
2C0
  8
0
 62
     7
 10
22.1801652
 20
19.7324006
 30
0.0
 11
21.031569
 21
19.7324006
 31
0.0
  0
LINE
  5
2C1
  8
0
 62
     7
 10
22.1801652
 20
25.4124024
 30
0.0
 11
21.031569
 21
25.4124024
 31
0.0
  0
POLYLINE
  5
2C2
  8
0
 62
     7
 66
     1
 10
0.0
 20
0.0
 30
0.0
  0
VERTEX
  5
2C3
  8
0
 10
21.5350968
 20
25.0260314
 30
0.0
  0
VERTEX
  5
2C4
  8
0
 10
21.431569
 20
25.4124024
 30
0.0
  0
VERTEX
  5
2C5
  8
0
 10
21.328041
 20
25.0260314
 30
0.0
  0
SEQEND
  5
2C6
  8
0
  0
POLYLINE
  5
2C7
  8
0
 62
     7
 66
     1
 10
0.0
 20
0.0
 30
0.0
  0
VERTEX
  5
2C8
  8
0
 10
21.328041
 20
20.1187714
 30
0.0
  0
VERTEX
  5
2C9
  8
0
 10
21.431569
 20
19.7324006
 30
0.0
  0
VERTEX
  5
2CA
  8
0
 10
21.5350968
 20
20.1187714
 30
0.0
  0
SEQEND
  5
2CB
  8
0
  0
LINE
  5
2CC
  8
0
 62
     7
 10
21.431569
 20
19.7324006
 30
0.0
 11
21.431569
 21
25.4124024
 31
0.0
  0
POLYLINE
  5
2CD
  8
0
 62
     7
 66
     1
 10
0.0
 20
0.0
 30
0.0
 70
     1
  0
VERTEX
  5
2CE
  8
0
 10
25.6084808
 20
10.342685
 30
0.0
  0
VERTEX
  5
2CF
  8
0
 10
25.6236114
 20
10.2630028
 30
0.0
  0
VERTEX
  5
2D0
  8
0
 10
25.666983
 20
10.2014756
 30
0.0
  0
VERTEX
  5
2D1
  8
0
 10
25.7355712
 20
10.1631462
 30
0.0
  0
VERTEX
  5
2D2
  8
0
 10
25.8263488
 20
10.149025
 30
0.0
  0
VERTEX
  5
2D3
  8
0
 10
25.8858582
 20
10.156086
 30
0.0
  0
VERTEX
  5
2D4
  8
0
 10
25.9393188
 20
10.1742408
 30
0.0
  0
VERTEX
  5
2D5
  8
0
 10
25.9847076
 20
10.2055092
 30
0.0
  0
VERTEX
  5
2D6
  8
0
 10
26.0230346
 20
10.2498894
 30
0.0
  0
VERTEX
  5
2D7
  8
0
 10
26.0532958
 20
10.3053658
 30
0.0
  0
VERTEX
  5
2D8
  8
0
 10
26.0754852
 20
10.3739532
 30
0.0
  0
VERTEX
  5
2D9
  8
0
 10
26.0885986
 20
10.4526276
 30
0.0
  0
VERTEX
  5
2DA
  8
0
 10
26.0936402
 20
10.543406
 30
0.0
  0
VERTEX
  5
2DB
  8
0
 10
26.0764924
 20
10.6856246
 30
0.0
  0
VERTEX
  5
2DC
  8
0
 10
26.027069
 20
10.7895156
 30
0.0
  0
VERTEX
  5
2DD
  8
0
 10
25.9483948
 20
10.8520508
 30
0.0
  0
VERTEX
  5
2DE
  8
0
 10
25.8404694
 20
10.8742408
 30
0.0
  0
VERTEX
  5
2DF
  8
0
 10
25.741623
 20
10.856086
 30
0.0
  0
VERTEX
  5
2E0
  8
0
 10
25.666983
 20
10.8076706
 30
0.0
  0
VERTEX
  5
2E1
  8
0
 10
25.6185668
 20
10.7330314
 30
0.0
  0
VERTEX
  5
2E2
  8
0
 10
25.6024292
 20
10.6392272
 30
0.0
  0
VERTEX
  5
2E3
  8
0
 10
25.6185668
 20
10.5423966
 30
0.0
  0
VERTEX
  5
2E4
  8
0
 10
25.665976
 20
10.468766
 30
0.0
  0
VERTEX
  5
2E5
  8
0
 10
25.7365784
 20
10.4223678
 30
0.0
  0
VERTEX
  5
2E6
  8
0
 10
25.8263488
 20
10.407238
 30
0.0
  0
VERTEX
  5
2E7
  8
0
 10
25.9211608
 20
10.426403
 30
0.0
  0
VERTEX
  5
2E8
  8
0
 10
25.9927764
 20
10.4849044
 30
0.0
  0
VERTEX
  5
2E9
  8
0
 10
25.9766388
 20
10.3729446
 30
0.0
  0
VERTEX
  5
2EA
  8
0
 10
25.9443604
 20
10.2932618
 30
0.0
  0
VERTEX
  5
2EB
  8
0
 10
25.8949372
 20
10.2458558
 30
0.0
  0
VERTEX
  5
2EC
  8
0
 10
25.827359
 20
10.230725
 30
0.0
  0
VERTEX
  5
2ED
  8
0
 10
25.7749084
 20
10.2377862
 30
0.0
  0
VERTEX
  5
2EE
  8
0
 10
25.7365784
 20
10.2599762
 30
0.0
  0
VERTEX
  5
2EF
  8
0
 10
25.7113648
 20
10.295279
 30
0.0
  0
VERTEX
  5
2F0
  8
0
 10
25.7012786
 20
10.342685
 30
0.0
  0
SEQEND
  5
2F1
  8
0
  0
POLYLINE
  5
2F2
  8
0
 62
     7
 66
     1
 10
0.0
 20
0.0
 30
0.0
 70
     1
  0
VERTEX
  5
2F3
  8
0
 10
25.7002686
 20
10.640236
 30
0.0
  0
VERTEX
  5
2F4
  8
0
 10
25.7103546
 20
10.7027718
 30
0.0
  0
VERTEX
  5
2F5
  8
0
 10
25.7385986
 20
10.7521958
 30
0.0
  0
VERTEX
  5
2F6
  8
0
 10
25.7829772
 20
10.783464
 30
0.0
  0
VERTEX
  5
2F7
  8
0
 10
25.8404694
 20
10.7945588
 30
0.0
  0
VERTEX
  5
2F8
  8
0
 10
25.8999816
 20
10.783464
 30
0.0
  0
VERTEX
  5
2F9
  8
0
 10
25.9453704
 20
10.7521958
 30
0.0
  0
VERTEX
  5
2FA
  8
0
 10
25.9736114
 20
10.7037804
 30
0.0
  0
VERTEX
  5
2FB
  8
0
 10
25.9847076
 20
10.6412446
 30
0.0
  0
VERTEX
  5
2FC
  8
0
 10
25.9736114
 20
10.5777
 30
0.0
  0
VERTEX
  5
2FD
  8
0
 10
25.9453704
 20
10.5302932
 30
0.0
  0
VERTEX
  5
2FE
  8
0
 10
25.8989716
 20
10.5010422
 30
0.0
  0
VERTEX
  5
2FF
  8
0
 10
25.837445
 20
10.4909562
 30
0.0
  0
VERTEX
  5
300
  8
0
 10
25.7819702
 20
10.5010422
 30
0.0
  0
VERTEX
  5
301
  8
0
 10
25.7385986
 20
10.5302932
 30
0.0
  0
VERTEX
  5
302
  8
0
 10
25.7103546
 20
10.5766906
 30
0.0
  0
SEQEND
  5
303
  8
0
  0
POLYLINE
  5
304
  8
0
 62
     7
 66
     1
 10
0.0
 20
0.0
 30
0.0
 70
     1
  0
VERTEX
  5
305
  8
0
 10
26.3546784
 20
10.5111282
 30
0.0
  0
VERTEX
  5
306
  8
0
 10
26.369809
 20
10.3527718
 30
0.0
  0
VERTEX
  5
307
  8
0
 10
26.417215
 20
10.2398034
 30
0.0
  0
VERTEX
  5
308
  8
0
 10
26.492862
 20
10.171215
 30
0.0
  0
VERTEX
  5
309
  8
0
 10
26.59776
 20
10.149025
 30
0.0
  0
VERTEX
  5
30A
  8
0
 10
26.701651
 20
10.171215
 30
0.0
  0
VERTEX
  5
30B
  8
0
 10
26.777301
 20
10.2398034
 30
0.0
  0
VERTEX
  5
30C
  8
0
 10
26.8236968
 20
10.3527718
 30
0.0
  0
VERTEX
  5
30D
  8
0
 10
26.8398376
 20
10.5111282
 30
0.0
  0
VERTEX
  5
30E
  8
0
 10
26.8236968
 20
10.6684784
 30
0.0
  0
VERTEX
  5
30F
  8
0
 10
26.804535
 20
10.7310134
 30
0.0
  0
VERTEX
  5
310
  8
0
 10
26.777301
 20
10.7824546
 30
0.0
  0
VERTEX
  5
311
  8
0
 10
26.701651
 20
10.851043
 30
0.0
  0
VERTEX
  5
312
  8
0
 10
26.59776
 20
10.8742408
 30
0.0
  0
VERTEX
  5
313
  8
0
 10
26.492862
 20
10.851043
 30
0.0
  0
VERTEX
  5
314
  8
0
 10
26.417215
 20
10.781446
 30
0.0
  0
VERTEX
  5
315
  8
0
 10
26.369809
 20
10.6684784
 30
0.0
  0
SEQEND
  5
316
  8
0
  0
POLYLINE
  5
317
  8
0
 62
     7
 66
     1
 10
0.0
 20
0.0
 30
0.0
 70
     1
  0
VERTEX
  5
318
  8
0
 10
26.4515076
 20
10.5111282
 30
0.0
  0
VERTEX
  5
319
  8
0
 10
26.4595764
 20
10.6331748
 30
0.0
  0
VERTEX
  5
31A
  8
0
 10
26.484793
 20
10.7209274
 30
0.0
  0
VERTEX
  5
31B
  8
0
 10
26.5301818
 20
10.7723686
 30
0.0
  0
VERTEX
  5
31C
  8
0
 10
26.59776
 20
10.7905236
 30
0.0
  0
VERTEX
  5
31D
  8
0
 10
26.664331
 20
10.7723686
 30
0.0
  0
VERTEX
  5
31E
  8
0
 10
26.7097198
 20
10.7209274
 30
0.0
  0
VERTEX
  5
31F
  8
0
 10
26.7349366
 20
10.6331748
 30
0.0
  0
VERTEX
  5
320
  8
0
 10
26.7430054
 20
10.5111282
 30
0.0
  0
VERTEX
  5
321
  8
0
 10
26.7349366
 20
10.3880738
 30
0.0
  0
VERTEX
  5
322
  8
0
 10
26.7097198
 20
10.300322
 30
0.0
  0
VERTEX
  5
323
  8
0
 10
26.664331
 20
10.2488816
 30
0.0
  0
VERTEX
  5
324
  8
0
 10
26.59776
 20
10.2317344
 30
0.0
  0
VERTEX
  5
325
  8
0
 10
26.5301818
 20
10.2488816
 30
0.0
  0
VERTEX
  5
326
  8
0
 10
26.484793
 20
10.300322
 30
0.0
  0
VERTEX
  5
327
  8
0
 10
26.4595764
 20
10.3880738
 30
0.0
  0
SEQEND
  5
328
  8
0
  0
POLYLINE
  5
329
  8
0
 62
     7
 66
     1
 10
0.0
 20
0.0
 30
0.0
 70
     1
  0
VERTEX
  5
32A
  8
0
 10
27.0413636
 20
10.8691994
 30
0.0
  0
VERTEX
  5
32B
  8
0
 10
27.088031
 20
10.8691994
 30
0.0
  0
VERTEX
  5
32C
  8
0
 10
27.1346984
 20
10.9158654
 30
0.0
  0
VERTEX
  5
32D
  8
0
 10
27.1346984
 20
10.962532
 30
0.0
  0
VERTEX
  5
32E
  8
0
 10
27.088031
 20
11.0091988
 30
0.0
  0
VERTEX
  5
32F
  8
0
 10
27.0413636
 20
11.0091988
 30
0.0
  0
VERTEX
  5
330
  8
0
 10
26.994696
 20
10.962532
 30
0.0
  0
VERTEX
  5
331
  8
0
 10
26.994696
 20
10.9158654
 30
0.0
  0
SEQEND
  5
332
  8
0
  0
LINE
  5
333
  8
0
 62
     7
 10
21.5579834
 20
12.2895576
 30
0.0
 11
20.934845
 21
11.6664192
 31
0.0
  0
LINE
  5
334
  8
0
 62
     7
 10
31.4036682
 20
12.2895576
 30
0.0
 11
32.0268066
 21
11.6664192
 31
0.0
  0
POLYLINE
  5
335
  8
0
 62
     7
 66
     1
 10
0.0
 20
0.0
 30
0.0
  0
VERTEX
  5
336
  8
0
 10
21.5640976
 20
11.7492622
 30
0.0
  0
VERTEX
  5
337
  8
0
 10
21.2176864
 20
11.9492622
 30
0.0
  0
VERTEX
  5
338
  8
0
 10
21.417688
 20
11.6028518
 30
0.0
  0
SEQEND
  5
339
  8
0
  0
POLYLINE
  5
33A
  8
0
 62
     7
 66
     1
 10
0.0
 20
0.0
 30
0.0
  0
VERTEX
  5
33B
  8
0
 10
31.5439636
 20
11.6028518
 30
0.0
  0
VERTEX
  5
33C
  8
0
 10
31.7439636
 20
11.9492622
 30
0.0
  0
VERTEX
  5
33D
  8
0
 10
31.3975556
 20
11.7492622
 30
0.0
  0
SEQEND
  5
33E
  8
0
  0
ARC
  5
33F
  8
0
 62
     7
 10
26.48082580000001
 20
17.2124008
 30
0.0
 40
7.443202200000001
 50
225.0
 51
314.999992
  0
POLYLINE
  5
340
  8
0
 62
     7
 66
     1
 10
0.0
 20
0.0
 30
0.0
 70
     1
  0
VERTEX
  5
341
  8
0
 10
37.4221374
 20
25.1848464
 30
0.0
  0
VERTEX
  5
342
  8
0
 10
37.5139252
 20
25.1848464
 30
0.0
  0
VERTEX
  5
343
  8
0
 10
37.5139252
 20
25.8898896
 30
0.0
  0
VERTEX
  5
344
  8
0
 10
37.445337
 20
25.8898896
 30
0.0
  0
VERTEX
  5
345
  8
0
 10
37.427182
 20
25.828363
 30
0.0
  0
VERTEX
  5
346
  8
0
 10
37.3908692
 20
25.7870086
 30
0.0
  0
VERTEX
  5
347
  8
0
 10
37.3353942
 20
25.7628022
 30
0.0
  0
VERTEX
  5
348
  8
0
 10
37.25873720000001
 20
25.7547302
 30
0.0
  0
VERTEX
  5
349
  8
0
 10
37.25873720000001
 20
25.6831176
 30
0.0
  0
VERTEX
  5
34A
  8
0
 10
37.4221374
 20
25.6831176
 30
0.0
  0
SEQEND
  5
34B
  8
0
  0
POLYLINE
  5
34C
  8
0
 62
     7
 66
     1
 10
0.0
 20
0.0
 30
0.0
 70
     1
  0
VERTEX
  5
34D
  8
0
 10
38.1179016
 20
25.1848464
 30
0.0
  0
VERTEX
  5
34E
  8
0
 10
38.2570954
 20
25.1848464
 30
0.0
  0
VERTEX
  5
34F
  8
0
 10
38.2570954
 20
25.3351348
 30
0.0
  0
VERTEX
  5
350
  8
0
 10
38.1179016
 20
25.3351348
 30
0.0
  0
SEQEND
  5
351
  8
0
  0
POLYLINE
  5
352
  8
0
 62
     7
 66
     1
 10
0.0
 20
0.0
 30
0.0
 70
     1
  0
VERTEX
  5
353
  8
0
 10
38.8096314
 20
25.5620804
 30
0.0
  0
VERTEX
  5
354
  8
0
 10
38.758191
 20
25.5338378
 30
0.0
  0
VERTEX
  5
355
  8
0
 10
38.7228882
 20
25.4945008
 30
0.0
  0
VERTEX
  5
356
  8
0
 10
38.70069580000001
 20
25.4450776
 30
0.0
  0
VERTEX
  5
357
  8
0
 10
38.693637
 20
25.3855668
 30
0.0
  0
VERTEX
  5
358
  8
0
 10
38.70977480000001
 20
25.2957978
 30
0.0
  0
VERTEX
  5
359
  8
0
 10
38.7561738
 20
25.2262008
 30
0.0
  0
VERTEX
  5
35A
  8
0
 10
38.8318206
 20
25.1818206
 30
0.0
  0
VERTEX
  5
35B
  8
0
 10
38.9347016
 20
25.1646744
 30
0.0
  0
VERTEX
  5
35C
  8
0
 10
39.0365754
 20
25.1818206
 30
0.0
  0
VERTEX
  5
35D
  8
0
 10
39.1122254
 20
25.2262008
 30
0.0
  0
VERTEX
  5
35E
  8
0
 10
39.1586212
 20
25.2957978
 30
0.0
  0
VERTEX
  5
35F
  8
0
 10
39.175769
 20
25.3855668
 30
0.0
  0
VERTEX
  5
360
  8
0
 10
39.16770020000001
 20
25.4450776
 30
0.0
  0
VERTEX
  5
361
  8
0
 10
39.146518
 20
25.4945008
 30
0.0
  0
VERTEX
  5
362
  8
0
 10
39.1102082
 20
25.5338378
 30
0.0
  0
VERTEX
  5
363
  8
0
 10
39.05977480000001
 20
25.5620804
 30
0.0
  0
VERTEX
  5
364
  8
0
 10
39.10011900000001
 20
25.5862884
 30
0.0
  0
VERTEX
  5
365
  8
0
 10
39.12836300000001
 20
25.619574
 30
0.0
  0
VERTEX
  5
366
  8
0
 10
39.1455108
 20
25.6599182
 30
0.0
  0
VERTEX
  5
367
  8
0
 10
39.15156260000001
 20
25.7093414
 30
0.0
  0
VERTEX
  5
368
  8
0
 10
39.1354248
 20
25.780957
 30
0.0
  0
VERTEX
  5
369
  8
0
 10
39.09306040000001
 20
25.838449
 30
0.0
  0
VERTEX
  5
36A
  8
0
 10
39.024472
 20
25.87576900000001
 30
0.0
  0
VERTEX
  5
36B
  8
0
 10
38.9347016
 20
25.8898896
 30
0.0
  0
VERTEX
  5
36C
  8
0
 10
38.843924
 20
25.87576900000001
 30
0.0
  0
VERTEX
  5
36D
  8
0
 10
38.77533560000001
 20
25.838449
 30
0.0
  0
VERTEX
  5
36E
  8
0
 10
38.7319642
 20
25.780957
 30
0.0
  0
VERTEX
  5
36F
  8
0
 10
38.7168366
 20
25.7093414
 30
0.0
  0
VERTEX
  5
370
  8
0
 10
38.721878
 20
25.6599182
 30
0.0
  0
VERTEX
  5
371
  8
0
 10
38.73902580000001
 20
25.619574
 30
0.0
  0
SEQEND
  5
372
  8
0
  0
POLYLINE
  5
373
  8
0
 62
     7
 66
     1
 10
0.0
 20
0.0
 30
0.0
 70
     1
  0
VERTEX
  5
374
  8
0
 10
38.79046640000001
 20
25.387584
 30
0.0
  0
VERTEX
  5
375
  8
0
 10
38.7995452
 20
25.441043
 30
0.0
  0
VERTEX
  5
376
  8
0
 10
38.8287964
 20
25.4813888
 30
0.0
  0
VERTEX
  5
377
  8
0
 10
38.8741852
 20
25.5076126
 30
0.0
  0
VERTEX
  5
378
  8
0
 10
38.9347016
 20
25.5166916
 30
0.0
  0
VERTEX
  5
379
  8
0
 10
38.9942138
 20
25.5076126
 30
0.0
  0
VERTEX
  5
37A
  8
0
 10
39.0396026
 20
25.4813888
 30
0.0
  0
VERTEX
  5
37B
  8
0
 10
39.06885080000001
 20
25.441043
 30
0.0
  0
VERTEX
  5
37C
  8
0
 10
39.0789398
 20
25.387584
 30
0.0
  0
VERTEX
  5
37D
  8
0
 10
39.06885080000001
 20
25.3300918
 30
0.0
  0
VERTEX
  5
37E
  8
0
 10
39.0396026
 20
25.2867202
 30
0.0
  0
VERTEX
  5
37F
  8
0
 10
38.9942138
 20
25.2584778
 30
0.0
  0
VERTEX
  5
380
  8
0
 10
38.9347016
 20
25.2494004
 30
0.0
  0
VERTEX
  5
381
  8
0
 10
38.8741852
 20
25.2584778
 30
0.0
  0
VERTEX
  5
382
  8
0
 10
38.8287964
 20
25.2867202
 30
0.0
  0
VERTEX
  5
383
  8
0
 10
38.7995452
 20
25.3300918
 30
0.0
  0
SEQEND
  5
384
  8
0
  0
POLYLINE
  5
385
  8
0
 62
     7
 66
     1
 10
0.0
 20
0.0
 30
0.0
 70
     1
  0
VERTEX
  5
386
  8
0
 10
38.8126556
 20
25.7012726
 30
0.0
  0
VERTEX
  5
387
  8
0
 10
38.8207276
 20
25.7456542
 30
0.0
  0
VERTEX
  5
388
  8
0
 10
38.844934
 20
25.7799468
 30
0.0
  0
VERTEX
  5
389
  8
0
 10
38.8832612
 20
25.80112920000001
 30
0.0
  0
VERTEX
  5
38A
  8
0
 10
38.9347016
 20
25.809198
 30
0.0
  0
VERTEX
  5
38B
  8
0
 10
38.9851348
 20
25.80112920000001
 30
0.0
  0
VERTEX
  5
38C
  8
0
 10
39.023465
 20
25.7799468
 30
0.0
  0
VERTEX
  5
38D
  8
0
 10
39.0476716
 20
25.7456542
 30
0.0
  0
VERTEX
  5
38E
  8
0
 10
39.0567504
 20
25.7012726
 30
0.0
  0
VERTEX
  5
38F
  8
0
 10
39.0476716
 20
25.6558838
 30
0.0
  0
VERTEX
  5
390
  8
0
 10
39.023465
 20
25.620581
 30
0.0
  0
VERTEX
  5
391
  8
0
 10
38.9851348
 20
25.5973832
 30
0.0
  0
VERTEX
  5
392
  8
0
 10
38.9347016
 20
25.5903228
 30
0.0
  0
VERTEX
  5
393
  8
0
 10
38.8832612
 20
25.5983918
 30
0.0
  0
VERTEX
  5
394
  8
0
 10
38.844934
 20
25.620581
 30
0.0
  0
VERTEX
  5
395
  8
0
 10
38.8207276
 20
25.6558838
 30
0.0
  0
SEQEND
  5
396
  8
0
  0
LINE
  5
397
  8
0
 62
     7
 10
34.6808258
 20
25.0124024
 30
0.0
 11
34.6808258
 21
24.3848464
 31
0.0
  0
LINE
  5
398
  8
0
 62
     7
 10
36.48082580000001
 20
26.8124024
 30
0.0
 11
36.48082580000001
 21
24.3848464
 31
0.0
  0
POLYLINE
  5
399
  8
0
 62
     7
 66
     1
 10
0.0
 20
0.0
 30
0.0
  0
VERTEX
  5
39A
  8
0
 10
35.0671966
 20
24.8883744
 30
0.0
  0
VERTEX
  5
39B
  8
0
 10
34.6808258
 20
24.7848464
 30
0.0
  0
VERTEX
  5
39C
  8
0
 10
35.0671966
 20
24.6813186
 30
0.0
  0
SEQEND
  5
39D
  8
0
  0
POLYLINE
  5
39E
  8
0
 62
     7
 66
     1
 10
0.0
 20
0.0
 30
0.0
  0
VERTEX
  5
39F
  8
0
 10
36.094455
 20
24.6813186
 30
0.0
  0
VERTEX
  5
3A0
  8
0
 10
36.48082580000001
 20
24.7848464
 30
0.0
  0
VERTEX
  5
3A1
  8
0
 10
36.094455
 20
24.8883744
 30
0.0
  0
SEQEND
  5
3A2
  8
0
  0
LINE
  5
3A3
  8
0
 62
     7
 10
34.6808258
 20
24.7848464
 30
0.0
 11
39.2383056
 21
24.7848464
 31
0.0
  0
POLYLINE
  5
3A4
  8
0
 62
     7
 66
     1
 10
0.0
 20
0.0
 30
0.0
 70
     1
  0
VERTEX
  5
3A5
  8
0
 10
31.4564422
 20
25.6088806
 30
0.0
  0
VERTEX
  5
3A6
  8
0
 10
31.521347
 20
25.5439774
 30
0.0
  0
VERTEX
  5
3A7
  8
0
 10
32.01988840000001
 20
26.0425202
 30
0.0
  0
VERTEX
  5
3A8
  8
0
 10
31.9713898
 20
26.0910186
 30
0.0
  0
VERTEX
  5
3A9
  8
0
 10
31.9150452
 20
26.0603486
 30
0.0
  0
VERTEX
  5
3AA
  8
0
 10
31.8601258
 20
26.056784
 30
0.0
  0
VERTEX
  5
3AB
  8
0
 10
31.8037812
 20
26.07889400000001
 30
0.0
  0
VERTEX
  5
3AC
  8
0
 10
31.743872
 20
26.1273926
 30
0.0
  0
VERTEX
  5
3AD
  8
0
 10
31.6932342
 20
26.0767548
 30
0.0
  0
VERTEX
  5
3AE
  8
0
 10
31.8087738
 20
25.9612122
 30
0.0
  0
SEQEND
  5
3AF
  8
0
  0
POLYLINE
  5
3B0
  8
0
 62
     7
 66
     1
 10
0.0
 20
0.0
 30
0.0
 70
     1
  0
VERTEX
  5
3B1
  8
0
 10
31.9484222
 20
25.1169022
 30
0.0
  0
VERTEX
  5
3B2
  8
0
 10
32.0468476
 20
25.0184768
 30
0.0
  0
VERTEX
  5
3B3
  8
0
 10
32.1531158
 20
25.1247468
 30
0.0
  0
VERTEX
  5
3B4
  8
0
 10
32.0546936
 20
25.223172
 30
0.0
  0
SEQEND
  5
3B5
  8
0
  0
POLYLINE
  5
3B6
  8
0
 62
     7
 66
     1
 10
0.0
 20
0.0
 30
0.0
 70
     1
  0
VERTEX
  5
3B7
  8
0
 10
32.4782012
 20
24.845308
 30
0.0
  0
VERTEX
  5
3B8
  8
0
 10
32.43540960000001
 20
24.7711318
 30
0.0
  0
VERTEX
  5
3B9
  8
0
 10
32.42471
 20
24.690538
 30
0.0
  0
VERTEX
  5
3BA
  8
0
 10
32.4475342
 20
24.6106582
 30
0.0
  0
VERTEX
  5
3BB
  8
0
 10
32.5024506
 20
24.534343
 30
0.0
  0
VERTEX
  5
3BC
  8
0
 10
32.587326
 20
24.4751464
 30
0.0
  0
VERTEX
  5
3BD
  8
0
 10
32.6786164
 20
24.453749
 30
0.0
  0
VERTEX
  5
3BE
  8
0
 10
32.7699096
 20
24.4737198
 30
0.0
  0
VERTEX
  5
3BF
  8
0
 10
32.8547822
 20
24.531491
 30
0.0
  0
VERTEX
  5
3C0
  8
0
 10
32.9089874
 20
24.6099456
 30
0.0
  0
VERTEX
  5
3C1
  8
0
 10
32.9268188
 20
24.6962448
 30
0.0
  0
VERTEX
  5
3C2
  8
0
 10
32.90684820000001
 20
24.783258
 30
0.0
  0
VERTEX
  5
3C3
  8
0
 10
32.8497894
 20
24.8645646
 30
0.0
  0
VERTEX
  5
3C4
  8
0
 10
32.787741
 20
24.909497
 30
0.0
  0
VERTEX
  5
3C5
  8
0
 10
32.7228364
 20
24.9273284
 30
0.0
  0
VERTEX
  5
3C6
  8
0
 10
32.876178
 20
25.0407302
 30
0.0
  0
VERTEX
  5
3C7
  8
0
 10
33.0929992
 20
24.8239106
 30
0.0
  0
VERTEX
  5
3C8
  8
0
 10
33.1514832
 20
24.8823944
 30
0.0
  0
VERTEX
  5
3C9
  8
0
 10
32.8868774
 20
25.1470002
 30
0.0
  0
VERTEX
  5
3CA
  8
0
 10
32.5851868
 20
24.923761
 30
0.0
  0
VERTEX
  5
3CB
  8
0
 10
32.6422424
 20
24.8667038
 30
0.0
  0
VERTEX
  5
3CC
  8
0
 10
32.71713260000001
 20
24.8588592
 30
0.0
  0
VERTEX
  5
3CD
  8
0
 10
32.7820344
 20
24.8182052
 30
0.0
  0
VERTEX
  5
3CE
  8
0
 10
32.8198334
 20
24.764714
 30
0.0
  0
VERTEX
  5
3CF
  8
0
 10
32.831961
 20
24.7069428
 30
0.0
  0
VERTEX
  5
3D0
  8
0
 10
32.8191224
 20
24.6498856
 30
0.0
  0
VERTEX
  5
3D1
  8
0
 10
32.7820344
 20
24.597107
 30
0.0
  0
VERTEX
  5
3D2
  8
0
 10
32.7292572
 20
24.560019
 30
0.0
  0
VERTEX
  5
3D3
  8
0
 10
32.6714844
 20
24.5478942
 30
0.0
  0
VERTEX
  5
3D4
  8
0
 10
32.61442880000001
 20
24.560733
 30
0.0
  0
VERTEX
  5
3D5
  8
0
 10
32.56164860000001
 20
24.5978196
 30
0.0
  0
VERTEX
  5
3D6
  8
0
 10
32.52884220000001
 20
24.6406128
 30
0.0
  0
VERTEX
  5
3D7
  8
0
 10
32.5160034
 20
24.6862594
 30
0.0
  0
VERTEX
  5
3D8
  8
0
 10
32.520282
 20
24.7333312
 30
0.0
  0
VERTEX
  5
3D9
  8
0
 10
32.5445312
 20
24.778978
 30
0.0
  0
SEQEND
  5
3DA
  8
0
  0
POLYLINE
  5
3DB
  8
0
 62
     7
 66
     1
 10
0.0
 20
0.0
 30
0.0
  0
VERTEX
  5
3DC
  8
0
 10
30.020111
 20
26.6259368
 30
0.0
  0
VERTEX
  5
3DD
  8
0
 10
29.673703
 20
26.8259368
 30
0.0
  0
VERTEX
  5
3DE
  8
0
 10
29.873703
 20
26.4795258
 30
0.0
  0
SEQEND
  5
3DF
  8
0
  0
POLYLINE
  5
3E0
  8
0
 62
     7
 66
     1
 10
0.0
 20
0.0
 30
0.0
  0
VERTEX
  5
3E1
  8
0
 10
30.3879516
 20
25.965277
 30
0.0
  0
VERTEX
  5
3E2
  8
0
 10
30.7343628
 20
25.765277
 30
0.0
  0
VERTEX
  5
3E3
  8
0
 10
30.5343628
 20
26.1116882
 30
0.0
  0
SEQEND
  5
3E4
  8
0
  0
LINE
  5
3E5
  8
0
 62
     7
 10
29.673703
 20
26.8259368
 30
0.0
 11
32.4578248
 21
24.0418136
 31
0.0
  0
ARC
  5
3E6
  8
0
 62
     7
 10
17.9808242
 20
31.072403
 30
0.0
 40
1.5000002
 50
90.000003
 51
180.0000050000001
  0
LINE
  5
3E7
  8
0
 62
     7
 10
16.4808242
 20
31.072403
 30
0.0
 11
16.4808242
 21
27.2124024
 31
0.0
  0
LINE
  5
3E8
  8
0
 62
     7
 10
16.4808242
 20
27.2124024
 30
0.0
 11
18.2808258
 21
25.4124024
 31
0.0
  0
LINE
  5
3E9
  8
0
 62
     7
 10
18.2808258
 20
28.0717408
 30
0.0
 11
18.2808258
 21
25.4124024
 31
0.0
  0
LINE
  5
3EA
  8
0
 62
     7
 10
18.2808258
 20
28.0717408
 30
0.0
 11
19.9208252
 21
28.0717408
 31
0.0
  0
LINE
  5
3EB
  8
0
 62
     7
 10
19.9208252
 20
28.0717408
 30
0.0
 11
22.5801652
 21
25.4124024
 31
0.0
  0
LINE
  5
3EC
  8
0
 62
     7
 10
22.5801652
 20
25.4124024
 30
0.0
 11
22.5801652
 21
22.7724014
 31
0.0
  0
LINE
  5
3ED
  8
0
 62
     7
 10
22.5801652
 20
22.7724014
 30
0.0
 11
22.7801652
 21
22.5724014
 31
0.0
  0
LINE
  5
3EE
  8
0
 62
     7
 10
22.5801652
 20
22.3724014
 30
0.0
 11
22.7801652
 21
22.5724014
 31
0.0
  0
LINE
  5
3EF
  8
0
 62
     7
 10
22.5801652
 20
19.7324006
 30
0.0
 11
22.5801652
 21
22.3724014
 31
0.0
  0
LINE
  5
3F0
  8
0
 62
     7
 10
19.9208252
 20
17.0730606
 30
0.0
 11
22.5801652
 21
19.7324006
 31
0.0
  0
LINE
  5
3F1
  8
0
 62
     7
 10
18.2808258
 20
17.0730606
 30
0.0
 11
19.9208252
 21
17.0730606
 31
0.0
  0
LINE
  5
3F2
  8
0
 62
     7
 10
18.2808258
 20
17.0730606
 30
0.0
 11
18.2808258
 21
19.7324006
 31
0.0
  0
LINE
  5
3F3
  8
0
 62
     7
 10
16.4808242
 20
17.9324006
 30
0.0
 11
18.2808258
 21
19.7324006
 31
0.0
  0
LINE
  5
3F4
  8
0
 62
     7
 10
16.4808242
 20
14.0724
 30
0.0
 11
16.4808242
 21
17.9324006
 31
0.0
  0
ARC
  5
3F5
  8
0
 62
     7
 10
17.9808242
 20
14.0724
 30
0.0
 40
1.5000002
 50
180.000005
 51
269.999997
  0
LINE
  5
3F6
  8
0
 62
     7
 10
17.9808242
 20
12.5724006
 30
0.0
 11
21.8408248
 21
12.5724006
 31
0.0
  0
LINE
  5
3F7
  8
0
 62
     7
 10
21.8408248
 20
12.5724006
 30
0.0
 11
23.6408248
 21
14.3724014
 31
0.0
  0
LINE
  5
3F8
  8
0
 62
     7
 10
23.6408248
 20
14.3724014
 30
0.0
 11
20.981485
 21
14.3724014
 31
0.0
  0
LINE
  5
3F9
  8
0
 62
     7
 10
20.981485
 20
14.3724014
 30
0.0
 11
20.981485
 21
16.0124008
 31
0.0
  0
LINE
  5
3FA
  8
0
 62
     7
 10
20.981485
 20
16.0124008
 30
0.0
 11
23.6408248
 21
18.6717408
 31
0.0
  0
LINE
  5
3FB
  8
0
 62
     7
 10
26.2808258
 20
18.6717408
 30
0.0
 11
23.6408248
 21
18.6717408
 31
0.0
  0
LINE
  5
3FC
  8
0
 62
     7
 10
26.2808258
 20
18.6717408
 30
0.0
 11
26.48082580000001
 21
18.8717408
 31
0.0
  0
LINE
  5
3FD
  8
0
 62
     7
 10
26.6808258
 20
18.6717408
 30
0.0
 11
26.48082580000001
 21
18.8717408
 31
0.0
  0
LINE
  5
3FE
  8
0
 62
     7
 10
26.6808258
 20
18.6717408
 30
0.0
 11
29.3208252
 21
18.6717408
 31
0.0
  0
LINE
  5
3FF
  8
0
 62
     7
 10
31.9801666
 20
16.0124008
 30
0.0
 11
29.3208252
 21
18.6717408
 31
0.0
  0
LINE
  5
400
  8
0
 62
     7
 10
31.9801666
 20
14.3724014
 30
0.0
 11
31.9801666
 21
16.0124008
 31
0.0
  0
LINE
  5
401
  8
0
 62
     7
 10
29.3208252
 20
14.3724014
 30
0.0
 11
31.9801666
 21
14.3724014
 31
0.0
  0
LINE
  5
402
  8
0
 62
     7
 10
31.1208252
 20
12.5724006
 30
0.0
 11
29.3208252
 21
14.3724014
 31
0.0
  0
LINE
  5
403
  8
0
 62
     7
 10
34.98082580000001
 20
12.5724006
 30
0.0
 11
31.1208252
 21
12.5724006
 31
0.0
  0
ARC
  5
404
  8
0
 62
     7
 10
34.98082580000001
 20
14.0724
 30
0.0
 40
1.5000002
 50
269.999997
 51
0.0
  0
LINE
  5
405
  8
0
 62
     7
 10
36.48082580000001
 20
14.0724
 30
0.0
 11
36.48082580000001
 21
17.9324006
 31
0.0
  0
LINE
  5
406
  8
0
 62
     7
 10
36.48082580000001
 20
17.9324006
 30
0.0
 11
34.6808258
 21
19.7324006
 31
0.0
  0
LINE
  5
407
  8
0
 62
     7
 10
34.6808258
 20
17.0730606
 30
0.0
 11
34.6808258
 21
19.7324006
 31
0.0
  0
LINE
  5
408
  8
0
 62
     7
 10
34.6808258
 20
17.0730606
 30
0.0
 11
33.0408264
 21
17.0730606
 31
0.0
  0
LINE
  5
409
  8
0
 62
     7
 10
33.0408264
 20
17.0730606
 30
0.0
 11
30.381485
 21
19.7324006
 31
0.0
  0
LINE
  5
40A
  8
0
 62
     7
 10
30.381485
 20
19.7324006
 30
0.0
 11
30.381485
 21
22.3724014
 31
0.0
  0
LINE
  5
40B
  8
0
 62
     7
 10
30.381485
 20
22.3724014
 30
0.0
 11
30.181485
 21
22.5724014
 31
0.0
  0
LINE
  5
40C
  8
0
 62
     7
 10
30.381485
 20
22.7724014
 30
0.0
 11
30.181485
 21
22.5724014
 31
0.0
  0
LINE
  5
40D
  8
0
 62
     7
 10
30.381485
 20
25.4124024
 30
0.0
 11
30.381485
 21
22.7724014
 31
0.0
  0
LINE
  5
40E
  8
0
 62
     7
 10
33.0408264
 20
28.0717408
 30
0.0
 11
30.381485
 21
25.4124024
 31
0.0
  0
LINE
  5
40F
  8
0
 62
     7
 10
34.6808258
 20
28.0717408
 30
0.0
 11
33.0408264
 21
28.0717408
 31
0.0
  0
LINE
  5
410
  8
0
 62
     7
 10
34.6808258
 20
28.0717408
 30
0.0
 11
34.6808258
 21
25.4124024
 31
0.0
  0
LINE
  5
411
  8
0
 62
     7
 10
36.48082580000001
 20
27.2124024
 30
0.0
 11
34.6808258
 21
25.4124024
 31
0.0
  0
LINE
  5
412
  8
0
 62
     7
 10
36.48082580000001
 20
31.072403
 30
0.0
 11
36.48082580000001
 21
27.2124024
 31
0.0
  0
ARC
  5
413
  8
0
 62
     7
 10
34.98082580000001
 20
31.072403
 30
0.0
 40
1.5000002
 50
0.0
 51
90.000003
  0
LINE
  5
414
  8
0
 62
     7
 10
34.98082580000001
 20
32.572403
 30
0.0
 11
31.1208252
 21
32.572403
 31
0.0
  0
LINE
  5
415
  8
0
 62
     7
 10
31.1208252
 20
32.572403
 30
0.0
 11
29.3208252
 21
30.772403
 31
0.0
  0
LINE
  5
416
  8
0
 62
     7
 10
29.3208252
 20
30.772403
 30
0.0
 11
31.9801666
 21
30.772403
 31
0.0
  0
LINE
  5
417
  8
0
 62
     7
 10
31.9801666
 20
30.772403
 30
0.0
 11
31.9801666
 21
29.1324006
 31
0.0
  0
LINE
  5
418
  8
0
 62
     7
 10
31.9801666
 20
29.1324006
 30
0.0
 11
29.3208252
 21
26.4730622
 31
0.0
  0
LINE
  5
419
  8
0
 62
     7
 10
26.6808258
 20
26.4730622
 30
0.0
 11
29.3208252
 21
26.4730622
 31
0.0
  0
LINE
  5
41A
  8
0
 62
     7
 10
26.6808258
 20
26.4730622
 30
0.0
 11
26.48082580000001
 21
26.2730622
 31
0.0
  0
LINE
  5
41B
  8
0
 62
     7
 10
26.2808258
 20
26.4730622
 30
0.0
 11
26.48082580000001
 21
26.2730622
 31
0.0
  0
LINE
  5
41C
  8
0
 62
     7
 10
26.2808258
 20
26.4730622
 30
0.0
 11
23.6408248
 21
26.4730622
 31
0.0
  0
LINE
  5
41D
  8
0
 62
     7
 10
20.981485
 20
29.1324006
 30
0.0
 11
23.6408248
 21
26.4730622
 31
0.0
  0
LINE
  5
41E
  8
0
 62
     7
 10
20.981485
 20
30.772403
 30
0.0
 11
20.981485
 21
29.1324006
 31
0.0
  0
LINE
  5
41F
  8
0
 62
     7
 10
23.6408248
 20
30.772403
 30
0.0
 11
20.981485
 21
30.772403
 31
0.0
  0
LINE
  5
420
  8
0
 62
     7
 10
21.8408248
 20
32.572403
 30
0.0
 11
23.6408248
 21
30.772403
 31
0.0
  0
LINE
  5
421
  8
0
 62
     7
 10
17.9808242
 20
32.572403
 30
0.0
 11
21.8408248
 21
32.572403
 31
0.0
  0
CIRCLE
  5
422
  8
0
 62
     7
 10
26.48082580000001
 20
22.5724014
 30
0.0
 40
2.1000002
  0
LINE
  5
423
  8
0
 62
     7
 10
19.9114852
 20
30.772403
 30
0.0
 11
18.2808258
 21
30.772403
 31
0.0
  0
LINE
  5
424
  8
0
 62
     7
 10
19.9114852
 20
30.772403
 30
0.0
 11
19.9114852
 21
30.2024018
 31
0.0
  0
LINE
  5
425
  8
0
 62
     7
 10
18.8508256
 20
29.141742
 30
0.0
 11
19.9114852
 21
30.2024018
 31
0.0
  0
LINE
  5
426
  8
0
 62
     7
 10
18.2808258
 20
29.141742
 30
0.0
 11
18.8508256
 21
29.141742
 31
0.0
  0
LINE
  5
427
  8
0
 62
     7
 10
18.2808258
 20
30.772403
 30
0.0
 11
18.2808258
 21
29.141742
 31
0.0
  0
LINE
  5
428
  8
0
 62
     7
 10
34.6808258
 20
30.772403
 30
0.0
 11
34.6808258
 21
29.141742
 31
0.0
  0
LINE
  5
429
  8
0
 62
     7
 10
34.6808258
 20
29.141742
 30
0.0
 11
34.1108276
 21
29.141742
 31
0.0
  0
LINE
  5
42A
  8
0
 62
     7
 10
34.1108276
 20
29.141742
 30
0.0
 11
33.0501648
 21
30.2024018
 31
0.0
  0
LINE
  5
42B
  8
0
 62
     7
 10
33.0501648
 20
30.772403
 30
0.0
 11
33.0501648
 21
30.2024018
 31
0.0
  0
LINE
  5
42C
  8
0
 62
     7
 10
33.0501648
 20
30.772403
 30
0.0
 11
34.6808258
 21
30.772403
 31
0.0
  0
LINE
  5
42D
  8
0
 62
     7
 10
18.2808258
 20
14.3724014
 30
0.0
 11
18.2808258
 21
16.003061
 31
0.0
  0
LINE
  5
42E
  8
0
 62
     7
 10
18.2808258
 20
16.003061
 30
0.0
 11
18.8508256
 21
16.003061
 31
0.0
  0
LINE
  5
42F
  8
0
 62
     7
 10
18.8508256
 20
16.003061
 30
0.0
 11
19.9114852
 21
14.9424012
 31
0.0
  0
LINE
  5
430
  8
0
 62
     7
 10
19.9114852
 20
14.3724014
 30
0.0
 11
19.9114852
 21
14.9424012
 31
0.0
  0
LINE
  5
431
  8
0
 62
     7
 10
19.9114852
 20
14.3724014
 30
0.0
 11
18.2808258
 21
14.3724014
 31
0.0
  0
LINE
  5
432
  8
0
 62
     7
 10
33.0501648
 20
14.3724014
 30
0.0
 11
34.6808258
 21
14.3724014
 31
0.0
  0
LINE
  5
433
  8
0
 62
     7
 10
33.0501648
 20
14.3724014
 30
0.0
 11
33.0501648
 21
14.9424012
 31
0.0
  0
LINE
  5
434
  8
0
 62
     7
 10
34.1108276
 20
16.003061
 30
0.0
 11
33.0501648
 21
14.9424012
 31
0.0
  0
LINE
  5
435
  8
0
 62
     7
 10
34.6808258
 20
16.003061
 30
0.0
 11
34.1108276
 21
16.003061
 31
0.0
  0
LINE
  5
436
  8
0
 62
     7
 10
34.6808258
 20
14.3724014
 30
0.0
 11
34.6808258
 21
16.003061
 31
0.0
  0
VIEWPORT
  5
437
 67
     1
  8
0
 62
     0
 10
0.0
 20
0.0
 30
0.0
 40
1000.0
 41
1000.0
 68
     1
 69
     1
1001
ACAD
1000
MVIEW
1002
{
1070
    16
1010
0.0
1020
0.0
1030
0.0
1020
0.0
1030
0.0
1010
0.0
1020
0.0
1030
1.0
1020
0.0
1030
1.0
1040
0.0
1040
1000.0
1040
0.0
1040
0.0
1040
50.0
1040
0.0
1040
0.0
1070
     0
1070
   100
1070
     0
1070
     0
1070
     0
1070
     0
1070
     0
1070
     0
1040
0.0
1040
0.0
1040
0.0
1040
1.0
1040
1.0
1040
1.0
1040
1.0
1070
     0
1002
{
1002
}
1002
}
  0
ENDSEC
  0
EOF
