solid OpenSCAD_Model
  facet normal -1 0 -2.22045e-16
    outer loop
      vertex 4.43656e-15 1.49725 -19.9805
      vertex 4.33898e-15 0.436707 -19.541
      vertex 4.03692e-15 1.79706 -18.1807
    endloop
  endfacet
  facet normal -1 0 -2.22045e-16
    outer loop
      vertex 4.43656e-15 5.3576 -19.9805
      vertex 4.03692e-15 4.49823 -18.1807
      vertex 4.03692e-15 7.15741 -18.1807
    endloop
  endfacet
  facet normal -1 0 -2.22045e-16
    outer loop
      vertex 4.03692e-15 3.42792 -18.1807
      vertex 4.03692e-15 4.49823 -18.1807
      vertex 4.43656e-15 5.3576 -19.9805
    endloop
  endfacet
  facet normal -1 0 -2.22045e-16
    outer loop
      vertex 3.43735e-15 1.79706 -15.4805
      vertex 3.43735e-15 3.43768 -15.4805
      vertex 3.67479e-15 2.36737 -16.5498
    endloop
  endfacet
  facet normal -1 0 -2.22045e-16
    outer loop
      vertex 5.21935e-16 16.5666 -2.35059
      vertex 9.95081e-16 16.5578 -4.48145
      vertex 7.59592e-16 15.4963 -3.4209
    endloop
  endfacet
  facet normal -1 0 -2.22045e-16
    outer loop
      vertex 3.08239e-15 9.79706 -13.8818
      vertex 2.68253e-15 9.99725 -12.0811
      vertex 3.03793e-15 9.99725 -13.6816
    endloop
  endfacet
  facet normal -1 0 -2.22045e-16
    outer loop
      vertex 2.26056e-15 13.8976 -10.1807
      vertex 2.8469e-15 13.8976 -12.8213
      vertex 2.50689e-15 11.6389 -11.29
    endloop
  endfacet
  facet normal -1 0 -2.22045e-16
    outer loop
      vertex 3.08239e-15 10.1974 -13.8818
      vertex 2.50689e-15 11.6389 -11.29
      vertex 3.08239e-15 12.8371 -13.8818
    endloop
  endfacet
  facet normal -1 0 -2.22045e-16
    outer loop
      vertex 3.08239e-15 12.8371 -13.8818
      vertex 2.8469e-15 13.8976 -12.8213
      vertex 3.67284e-15 15.4963 -16.541
    endloop
  endfacet
  facet normal -1 0 -2.22045e-16
    outer loop
      vertex 4.33898e-15 19.5578 -19.541
      vertex 4.43656e-15 18.4973 -19.9805
      vertex 4.03692e-15 18.1974 -18.1807
    endloop
  endfacet
  facet normal -1 0 -2.22045e-16
    outer loop
      vertex 4.03692e-15 12.8371 -18.1807
      vertex 4.03692e-15 15.4963 -18.1807
      vertex 4.43656e-15 14.6379 -19.9805
    endloop
  endfacet
  facet normal -1 0 -2.22045e-16
    outer loop
      vertex 3.24653e-15 19.9973 -14.6211
      vertex 4.10349e-15 19.9973 -18.4805
      vertex 3.67479e-15 18.1974 -16.5498
    endloop
  endfacet
  facet normal -1 0 -2.22045e-16
    outer loop
      vertex 4.43656e-15 14.6379 -19.9805
      vertex 4.03692e-15 16.5666 -18.1807
      vertex 4.43656e-15 18.4973 -19.9805
    endloop
  endfacet
  facet normal -1 0 -2.22045e-16
    outer loop
      vertex 4.03692e-15 18.1974 -18.1807
      vertex 4.10349e-15 19.9973 -18.4805
      vertex 4.33898e-15 19.5578 -19.541
    endloop
  endfacet
  facet normal -1 0 -2.22045e-16
    outer loop
      vertex 2.8469e-15 18.1974 -12.8213
      vertex 3.24653e-15 19.9973 -14.6211
      vertex 3.43735e-15 18.1974 -15.4805
    endloop
  endfacet
  facet normal -1 0 -2.22045e-16
    outer loop
      vertex 3.67284e-15 15.4963 -16.541
      vertex 2.8469e-15 13.8976 -12.8213
      vertex 3.43735e-15 16.5578 -15.4805
    endloop
  endfacet
  facet normal -1 0 -2.22045e-16
    outer loop
      vertex 2.21611e-15 13.6984 -9.98047
      vertex 2.50689e-15 11.6389 -11.29
      vertex 2.11246e-15 12.0451 -9.51367
    endloop
  endfacet
  facet normal -1 0 -2.22045e-16
    outer loop
      vertex 3.91028e-15 16.5666 -17.6104
      vertex 4.03692e-15 15.4963 -18.1807
      vertex 3.67284e-15 15.4963 -16.541
    endloop
  endfacet
  facet normal -1 0 -2.22045e-16
    outer loop
      vertex 3.43735e-15 18.1974 -15.4805
      vertex 3.24653e-15 19.9973 -14.6211
      vertex 3.67479e-15 18.1974 -16.5498
    endloop
  endfacet
  facet normal -1 0 -2.22045e-16
    outer loop
      vertex 3.91028e-15 16.5666 -17.6104
      vertex 4.03692e-15 16.5666 -18.1807
      vertex 4.03692e-15 15.4963 -18.1807
    endloop
  endfacet
  facet normal -1 0 -2.22045e-16
    outer loop
      vertex 2.21611e-15 13.6984 -9.98047
      vertex 2.26056e-15 13.8976 -10.1807
      vertex 2.50689e-15 11.6389 -11.29
    endloop
  endfacet
  facet normal -1 -0 -2.22045e-16
    outer loop
      vertex 1.79609e-15 10.9084 -8.08887
      vertex 1.79609e-15 9.08612 -8.08887
      vertex 1.3945e-15 9.99725 -6.28027
    endloop
  endfacet
  facet normal -1 0 -2.22045e-16
    outer loop
      vertex 1.79609e-15 10.9084 -8.08887
      vertex 1.58554e-15 13.8976 -7.14062
      vertex 2.11246e-15 12.0451 -9.51367
    endloop
  endfacet
  facet normal -1 0 -2.22045e-16
    outer loop
      vertex 1.35005e-15 10.1974 -6.08008
      vertex 1.79609e-15 10.9084 -8.08887
      vertex 1.3945e-15 9.99725 -6.28027
    endloop
  endfacet
  facet normal -1 0 -2.22045e-16
    outer loop
      vertex 3.2873e-16 19.9973 -1.48047
      vertex 7.57424e-16 18.1974 -3.41113
      vertex 3.95517e-16 18.1974 -1.78125
    endloop
  endfacet
  facet normal -1 0 -2.22045e-16
    outer loop
      vertex -4.33681e-18 18.4973 0.0195312
      vertex 9.32414e-17 19.5578 -0.419922
      vertex 3.95517e-16 18.1974 -1.78125
    endloop
  endfacet
  facet normal -1 0 -2.22045e-16
    outer loop
      vertex 1.58554e-15 18.1974 -7.14062
      vertex 9.95081e-16 18.1974 -4.48145
      vertex 1.1859e-15 19.9973 -5.34082
    endloop
  endfacet
  facet normal -1 0 -2.22045e-16
    outer loop
      vertex -4.33681e-18 14.6379 0.0195312
      vertex -4.33681e-18 18.4973 0.0195312
      vertex 3.95517e-16 16.5666 -1.78125
    endloop
  endfacet
  facet normal -1 0 -2.22045e-16
    outer loop
      vertex 1.1859e-15 19.9973 -5.34082
      vertex 7.57424e-16 18.1974 -3.41113
      vertex 3.2873e-16 19.9973 -1.48047
    endloop
  endfacet
  facet normal -1 0 -2.22045e-16
    outer loop
      vertex -4.33681e-18 14.6379 0.0195312
      vertex 3.95517e-16 16.5666 -1.78125
      vertex 3.95517e-16 15.4963 -1.78125
    endloop
  endfacet
  facet normal -1 0 -2.22045e-16
    outer loop
      vertex 7.59592e-16 15.4963 -3.4209
      vertex 9.95081e-16 16.5578 -4.48145
      vertex 1.58554e-15 13.8976 -7.14062
    endloop
  endfacet
  facet normal -1 0 -2.22045e-16
    outer loop
      vertex 1.79609e-15 9.08612 -8.08887
      vertex 2.11246e-15 7.95038 -9.51367
      vertex 1.58554e-15 6.09686 -7.14062
    endloop
  endfacet
  facet normal -1 0 -2.22045e-16
    outer loop
      vertex 7.59592e-16 4.49823 -3.4209
      vertex 1.35005e-15 7.15741 -6.08008
      vertex 9.95081e-16 3.43768 -4.48145
    endloop
  endfacet
  facet normal -1 0 -2.22045e-16
    outer loop
      vertex -4.33681e-18 14.6379 0.0195312
      vertex 3.95517e-16 15.4963 -1.78125
      vertex 3.95517e-16 12.8371 -1.78125
    endloop
  endfacet
  facet normal -1 -0 -2.22045e-16
    outer loop
      vertex 7.57424e-16 18.1974 -3.41113
      vertex 9.95081e-16 18.1974 -4.48145
      vertex 7.57424e-16 17.6271 -3.41113
    endloop
  endfacet
  facet normal -1 0 -2.22045e-16
    outer loop
      vertex 1.79609e-15 10.9084 -8.08887
      vertex 1.35005e-15 10.1974 -6.08008
      vertex 1.35005e-15 12.8371 -6.08008
    endloop
  endfacet
  facet normal -1 0 -2.22045e-16
    outer loop
      vertex 1.35005e-15 12.8371 -6.08008
      vertex 7.59592e-16 15.4963 -3.4209
      vertex 1.58554e-15 13.8976 -7.14062
    endloop
  endfacet
  facet normal -1 0 -2.22045e-16
    outer loop
      vertex 2.17187e-15 13.8976 -9.78125
      vertex 2.11246e-15 12.0451 -9.51367
      vertex 1.58554e-15 13.8976 -7.14062
    endloop
  endfacet
  facet normal -1 0 -2.22045e-16
    outer loop
      vertex 1.35005e-15 7.15741 -6.08008
      vertex 1.79609e-15 9.08612 -8.08887
      vertex 1.58554e-15 6.09686 -7.14062
    endloop
  endfacet
  facet normal -1 0 -2.22045e-16
    outer loop
      vertex 2.11246e-15 7.95038 -9.51367
      vertex 2.21611e-15 6.29706 -9.98047
      vertex 2.17187e-15 6.09686 -9.78125
    endloop
  endfacet
  facet normal -1 0 -2.22045e-16
    outer loop
      vertex 3.27266e-16 0 -1.47388
      vertex 3.95517e-16 1.79706 -1.78125
      vertex 7.57424e-16 1.79706 -3.41113
    endloop
  endfacet
  facet normal -1 -0 -2.22045e-16
    outer loop
      vertex 3.95517e-16 7.15741 -1.78125
      vertex 3.95517e-16 4.49823 -1.78125
      vertex -4.33681e-18 5.3576 0.0195312
    endloop
  endfacet
  facet normal -1 0 -2.22045e-16
    outer loop
      vertex 3.27266e-16 0 -1.47388
      vertex 9.32414e-17 0.436707 -0.419922
      vertex 3.95517e-16 1.79706 -1.78125
    endloop
  endfacet
  facet normal -1 -0 -2.22045e-16
    outer loop
      vertex -4.33681e-18 5.3576 0.0195312
      vertex 3.95517e-16 3.42792 -1.78125
      vertex -4.33681e-18 1.49725 0.0195312
    endloop
  endfacet
  facet normal -1 0 -2.22045e-16
    outer loop
      vertex 1.18651e-15 0 -5.34355
      vertex 3.27266e-16 0 -1.47388
      vertex 7.57424e-16 1.79706 -3.41113
    endloop
  endfacet
  facet normal -1 0 -2.22045e-16
    outer loop
      vertex 3.67479e-15 1.79706 -16.5498
      vertex 3.43735e-15 1.79706 -15.4805
      vertex 3.67479e-15 2.36737 -16.5498
    endloop
  endfacet
  facet normal -1 0 -2.22045e-16
    outer loop
      vertex 1.58554e-15 1.79706 -7.14062
      vertex 1.18651e-15 0 -5.34355
      vertex 9.95081e-16 1.79706 -4.48145
    endloop
  endfacet
  facet normal -1 0 -2.22045e-16
    outer loop
      vertex 2.8469e-15 1.79706 -12.8213
      vertex 3.43735e-15 1.79706 -15.4805
      vertex 3.24593e-15 0 -14.6184
    endloop
  endfacet
  facet normal -1 0 -2.22045e-16
    outer loop
      vertex 9.95081e-16 3.43768 -4.48145
      vertex 1.35005e-15 7.15741 -6.08008
      vertex 1.58554e-15 6.09686 -7.14062
    endloop
  endfacet
  facet normal -1 0 -2.22045e-16
    outer loop
      vertex 5.21935e-16 3.42792 -2.35059
      vertex 3.95517e-16 4.49823 -1.78125
      vertex 7.59592e-16 4.49823 -3.4209
    endloop
  endfacet
  facet normal -1 0 -2.22045e-16
    outer loop
      vertex 9.95081e-16 1.79706 -4.48145
      vertex 1.18651e-15 0 -5.34355
      vertex 7.57424e-16 1.79706 -3.41113
    endloop
  endfacet
  facet normal -1 0 -2.22045e-16
    outer loop
      vertex 5.21935e-16 3.42792 -2.35059
      vertex 3.95517e-16 3.42792 -1.78125
      vertex 3.95517e-16 4.49823 -1.78125
    endloop
  endfacet
  facet normal -1 0 -2.22045e-16
    outer loop
      vertex 3.08239e-15 10.1974 -13.8818
      vertex 2.68253e-15 9.99725 -12.0811
      vertex 2.50689e-15 11.6389 -11.29
    endloop
  endfacet
  facet normal -1 -0 -2.22045e-16
    outer loop
      vertex 3.08239e-15 9.79706 -13.8818
      vertex 3.08239e-15 7.15741 -13.8818
      vertex 2.50689e-15 8.35565 -11.29
    endloop
  endfacet
  facet normal -1 0 -2.22045e-16
    outer loop
      vertex 2.11246e-15 7.95038 -9.51367
      vertex 2.17187e-15 6.09686 -9.78125
      vertex 1.58554e-15 6.09686 -7.14062
    endloop
  endfacet
  facet normal -1 0 -2.22045e-16
    outer loop
      vertex 2.26056e-15 6.09686 -10.1807
      vertex 2.50689e-15 8.35565 -11.29
      vertex 2.8469e-15 6.09686 -12.8213
    endloop
  endfacet
  facet normal -1 0 -2.22045e-16
    outer loop
      vertex 3.43735e-15 3.43768 -15.4805
      vertex 2.8469e-15 6.09686 -12.8213
      vertex 3.08239e-15 7.15741 -13.8818
    endloop
  endfacet
  facet normal -1 0 -2.22045e-16
    outer loop
      vertex 2.68253e-15 9.99725 -12.0811
      vertex 3.08239e-15 9.79706 -13.8818
      vertex 2.50689e-15 8.35565 -11.29
    endloop
  endfacet
  facet normal -1 0 -2.22045e-16
    outer loop
      vertex 3.67284e-15 4.49823 -16.541
      vertex 3.43735e-15 3.43768 -15.4805
      vertex 3.08239e-15 7.15741 -13.8818
    endloop
  endfacet
  facet normal -1 0 -2.22045e-16
    outer loop
      vertex 4.33898e-15 0.436707 -19.541
      vertex 4.10495e-15 0 -18.4871
      vertex 4.03692e-15 1.79706 -18.1807
    endloop
  endfacet
  facet normal -1 0 -2.22045e-16
    outer loop
      vertex 4.10495e-15 0 -18.4871
      vertex 3.24593e-15 0 -14.6184
      vertex 3.67479e-15 1.79706 -16.5498
    endloop
  endfacet
  facet normal -1 -0 -2.22045e-16
    outer loop
      vertex 3.95517e-16 18.1974 -1.78125
      vertex 3.95517e-16 16.5666 -1.78125
      vertex -4.33681e-18 18.4973 0.0195312
    endloop
  endfacet
  facet normal -1 0 -2.22045e-16
    outer loop
      vertex 5.21935e-16 16.5666 -2.35059
      vertex 7.59592e-16 15.4963 -3.4209
      vertex 3.95517e-16 15.4963 -1.78125
    endloop
  endfacet
  facet normal -1 0 -2.22045e-16
    outer loop
      vertex 3.95517e-16 15.4963 -1.78125
      vertex 3.95517e-16 16.5666 -1.78125
      vertex 5.21935e-16 16.5666 -2.35059
    endloop
  endfacet
  facet normal -1 0 -2.22045e-16
    outer loop
      vertex 9.32414e-17 19.5578 -0.419922
      vertex 3.2873e-16 19.9973 -1.48047
      vertex 3.95517e-16 18.1974 -1.78125
    endloop
  endfacet
  facet normal -1 0 -2.22045e-16
    outer loop
      vertex 1.1859e-15 19.9973 -5.34082
      vertex 9.95081e-16 18.1974 -4.48145
      vertex 7.57424e-16 18.1974 -3.41113
    endloop
  endfacet
  facet normal -1 -0 -2.22045e-16
    outer loop
      vertex 9.95081e-16 18.1974 -4.48145
      vertex 9.95081e-16 16.5578 -4.48145
      vertex 7.57424e-16 17.6271 -3.41113
    endloop
  endfacet
  facet normal -1 0 -2.22045e-16
    outer loop
      vertex 7.57424e-16 17.6271 -3.41113
      vertex 9.95081e-16 16.5578 -4.48145
      vertex 5.21935e-16 16.5666 -2.35059
    endloop
  endfacet
  facet normal -1 0 -2.22045e-16
    outer loop
      vertex 4.43656e-15 18.4973 -19.9805
      vertex 4.03692e-15 16.5666 -18.1807
      vertex 4.03692e-15 18.1974 -18.1807
    endloop
  endfacet
  facet normal -1 -0 -2.22045e-16
    outer loop
      vertex 4.03692e-15 16.5666 -18.1807
      vertex 4.43656e-15 14.6379 -19.9805
      vertex 4.03692e-15 15.4963 -18.1807
    endloop
  endfacet
  facet normal -1 0 -2.22045e-16
    outer loop
      vertex 3.67479e-15 17.6271 -16.5498
      vertex 3.91028e-15 16.5666 -17.6104
      vertex 3.43735e-15 16.5578 -15.4805
    endloop
  endfacet
  facet normal -1 0 -2.22045e-16
    outer loop
      vertex 3.91028e-15 16.5666 -17.6104
      vertex 3.67284e-15 15.4963 -16.541
      vertex 3.43735e-15 16.5578 -15.4805
    endloop
  endfacet
  facet normal -1 -0 -2.22045e-16
    outer loop
      vertex 3.43735e-15 18.1974 -15.4805
      vertex 3.67479e-15 17.6271 -16.5498
      vertex 3.43735e-15 16.5578 -15.4805
    endloop
  endfacet
  facet normal -1 0 -2.22045e-16
    outer loop
      vertex 3.43735e-15 18.1974 -15.4805
      vertex 3.67479e-15 18.1974 -16.5498
      vertex 3.67479e-15 17.6271 -16.5498
    endloop
  endfacet
  facet normal -1 0 -2.22045e-16
    outer loop
      vertex 4.10349e-15 19.9973 -18.4805
      vertex 4.03692e-15 18.1974 -18.1807
      vertex 3.67479e-15 18.1974 -16.5498
    endloop
  endfacet
  facet normal -1 0 -2.22045e-16
    outer loop
      vertex 1.79609e-15 9.08612 -8.08887
      vertex 1.35005e-15 7.15741 -6.08008
      vertex 1.35005e-15 9.79706 -6.08008
    endloop
  endfacet
  facet normal -1 0 -2.22045e-16
    outer loop
      vertex 2.50689e-15 8.35565 -11.29
      vertex 2.26056e-15 6.09686 -10.1807
      vertex 2.21611e-15 6.29706 -9.98047
    endloop
  endfacet
  facet normal -1 0 -2.22045e-16
    outer loop
      vertex 1.3945e-15 9.99725 -6.28027
      vertex 1.79609e-15 9.08612 -8.08887
      vertex 1.35005e-15 9.79706 -6.08008
    endloop
  endfacet
  facet normal -1 0 -2.22045e-16
    outer loop
      vertex 3.08239e-15 10.1974 -13.8818
      vertex 3.03793e-15 9.99725 -13.6816
      vertex 2.68253e-15 9.99725 -12.0811
    endloop
  endfacet
  facet normal -1 0 -2.22045e-16
    outer loop
      vertex 1.58554e-15 13.8976 -7.14062
      vertex 1.79609e-15 10.9084 -8.08887
      vertex 1.35005e-15 12.8371 -6.08008
    endloop
  endfacet
  facet normal -1 0 -2.22045e-16
    outer loop
      vertex 2.21611e-15 13.6984 -9.98047
      vertex 2.11246e-15 12.0451 -9.51367
      vertex 2.17187e-15 13.8976 -9.78125
    endloop
  endfacet
  facet normal -1 0 -2.22045e-16
    outer loop
      vertex 3.08239e-15 12.8371 -13.8818
      vertex 2.50689e-15 11.6389 -11.29
      vertex 2.8469e-15 13.8976 -12.8213
    endloop
  endfacet
  facet normal -1 0 -2.22045e-16
    outer loop
      vertex 3.08239e-15 7.15741 -13.8818
      vertex 2.8469e-15 6.09686 -12.8213
      vertex 2.50689e-15 8.35565 -11.29
    endloop
  endfacet
  facet normal -1 0 -2.22045e-16
    outer loop
      vertex 2.50689e-15 8.35565 -11.29
      vertex 2.21611e-15 6.29706 -9.98047
      vertex 2.11246e-15 7.95038 -9.51367
    endloop
  endfacet
  facet normal -1 0 -2.22045e-16
    outer loop
      vertex 9.95081e-16 1.79706 -4.48145
      vertex 7.57424e-16 2.36737 -3.41113
      vertex 9.95081e-16 3.43768 -4.48145
    endloop
  endfacet
  facet normal -1 0 -2.22045e-16
    outer loop
      vertex 9.32414e-17 0.436707 -0.419922
      vertex -4.33681e-18 1.49725 0.0195312
      vertex 3.95517e-16 1.79706 -1.78125
    endloop
  endfacet
  facet normal -1 0 -2.22045e-16
    outer loop
      vertex 3.95517e-16 1.79706 -1.78125
      vertex -4.33681e-18 1.49725 0.0195312
      vertex 3.95517e-16 3.42792 -1.78125
    endloop
  endfacet
  facet normal -1 0 -2.22045e-16
    outer loop
      vertex 3.95517e-16 3.42792 -1.78125
      vertex -4.33681e-18 5.3576 0.0195312
      vertex 3.95517e-16 4.49823 -1.78125
    endloop
  endfacet
  facet normal -1 0 -2.22045e-16
    outer loop
      vertex 5.21935e-16 3.42792 -2.35059
      vertex 7.59592e-16 4.49823 -3.4209
      vertex 7.57424e-16 2.36737 -3.41113
    endloop
  endfacet
  facet normal -1 0 -2.22045e-16
    outer loop
      vertex 7.57424e-16 1.79706 -3.41113
      vertex 7.57424e-16 2.36737 -3.41113
      vertex 9.95081e-16 1.79706 -4.48145
    endloop
  endfacet
  facet normal -1 0 -2.22045e-16
    outer loop
      vertex 7.57424e-16 2.36737 -3.41113
      vertex 7.59592e-16 4.49823 -3.4209
      vertex 9.95081e-16 3.43768 -4.48145
    endloop
  endfacet
  facet normal -1 0 -2.22045e-16
    outer loop
      vertex 4.03692e-15 1.79706 -18.1807
      vertex 4.10495e-15 0 -18.4871
      vertex 3.67479e-15 1.79706 -16.5498
    endloop
  endfacet
  facet normal -1 0 -2.22045e-16
    outer loop
      vertex 3.67479e-15 1.79706 -16.5498
      vertex 3.24593e-15 0 -14.6184
      vertex 3.43735e-15 1.79706 -15.4805
    endloop
  endfacet
  facet normal -1 0 -2.22045e-16
    outer loop
      vertex 3.91028e-15 3.42792 -17.6104
      vertex 3.43735e-15 3.43768 -15.4805
      vertex 3.67284e-15 4.49823 -16.541
    endloop
  endfacet
  facet normal -1 0 -2.22045e-16
    outer loop
      vertex 3.67479e-15 2.36737 -16.5498
      vertex 3.43735e-15 3.43768 -15.4805
      vertex 3.91028e-15 3.42792 -17.6104
    endloop
  endfacet
  facet normal -1 0 -2.22045e-16
    outer loop
      vertex 4.03692e-15 1.79706 -18.1807
      vertex 4.03692e-15 3.42792 -18.1807
      vertex 4.43656e-15 1.49725 -19.9805
    endloop
  endfacet
  facet normal -1 0 -2.22045e-16
    outer loop
      vertex 3.91028e-15 3.42792 -17.6104
      vertex 3.67284e-15 4.49823 -16.541
      vertex 4.03692e-15 4.49823 -18.1807
    endloop
  endfacet
  facet normal -1 0 -2.22045e-16
    outer loop
      vertex 4.43656e-15 1.49725 -19.9805
      vertex 4.03692e-15 3.42792 -18.1807
      vertex 4.43656e-15 5.3576 -19.9805
    endloop
  endfacet
  facet normal -1 0 -2.22045e-16
    outer loop
      vertex 4.03692e-15 3.42792 -18.1807
      vertex 3.91028e-15 3.42792 -17.6104
      vertex 4.03692e-15 4.49823 -18.1807
    endloop
  endfacet
  facet normal 1 0 0
    outer loop
      vertex 400 1.79706 -18.1807
      vertex 400 0.436707 -19.541
      vertex 400 1.49725 -19.9805
    endloop
  endfacet
  facet normal 1 0 0
    outer loop
      vertex 400 7.15741 -18.1807
      vertex 400 4.49823 -18.1807
      vertex 400 5.3576 -19.9805
    endloop
  endfacet
  facet normal 1 0 0
    outer loop
      vertex 400 5.3576 -19.9805
      vertex 400 4.49823 -18.1807
      vertex 400 3.42792 -18.1807
    endloop
  endfacet
  facet normal 1 0 -0
    outer loop
      vertex 400 2.36737 -16.5498
      vertex 400 3.43768 -15.4805
      vertex 400 1.79706 -15.4805
    endloop
  endfacet
  facet normal 1 -0 0
    outer loop
      vertex 400 15.4963 -3.4209
      vertex 400 16.5578 -4.48145
      vertex 400 16.5666 -2.35059
    endloop
  endfacet
  facet normal 1 0 -0
    outer loop
      vertex 400 9.99725 -13.6816
      vertex 400 9.99725 -12.0811
      vertex 400 9.79706 -13.8818
    endloop
  endfacet
  facet normal 1 -0 0
    outer loop
      vertex 400 11.6389 -11.29
      vertex 400 13.8976 -12.8213
      vertex 400 13.8976 -10.1807
    endloop
  endfacet
  facet normal 1 0 0
    outer loop
      vertex 400 12.8371 -13.8818
      vertex 400 11.6389 -11.29
      vertex 400 10.1974 -13.8818
    endloop
  endfacet
  facet normal 1 0 0
    outer loop
      vertex 400 15.4963 -16.541
      vertex 400 13.8976 -12.8213
      vertex 400 12.8371 -13.8818
    endloop
  endfacet
  facet normal 1 0 0
    outer loop
      vertex 400 18.1974 -18.1807
      vertex 400 18.4973 -19.9805
      vertex 400 19.5578 -19.541
    endloop
  endfacet
  facet normal 1 0 -0
    outer loop
      vertex 400 14.6379 -19.9805
      vertex 400 15.4963 -18.1807
      vertex 400 12.8371 -18.1807
    endloop
  endfacet
  facet normal 1 -0 0
    outer loop
      vertex 400 18.1974 -16.5498
      vertex 400 19.9973 -18.4805
      vertex 400 19.9973 -14.6211
    endloop
  endfacet
  facet normal 1 0 0
    outer loop
      vertex 400 18.4973 -19.9805
      vertex 400 16.5666 -18.1807
      vertex 400 14.6379 -19.9805
    endloop
  endfacet
  facet normal 1 0 -0
    outer loop
      vertex 400 19.5578 -19.541
      vertex 400 19.9973 -18.4805
      vertex 400 18.1974 -18.1807
    endloop
  endfacet
  facet normal 1 0 0
    outer loop
      vertex 400 18.1974 -15.4805
      vertex 400 19.9973 -14.6211
      vertex 400 18.1974 -12.8213
    endloop
  endfacet
  facet normal 1 0 0
    outer loop
      vertex 400 16.5578 -15.4805
      vertex 400 13.8976 -12.8213
      vertex 400 15.4963 -16.541
    endloop
  endfacet
  facet normal 1 0 0
    outer loop
      vertex 400 12.0451 -9.51367
      vertex 400 11.6389 -11.29
      vertex 400 13.6984 -9.98047
    endloop
  endfacet
  facet normal 1 0 0
    outer loop
      vertex 400 15.4963 -16.541
      vertex 400 15.4963 -18.1807
      vertex 400 16.5666 -17.6104
    endloop
  endfacet
  facet normal 1 0 0
    outer loop
      vertex 400 18.1974 -16.5498
      vertex 400 19.9973 -14.6211
      vertex 400 18.1974 -15.4805
    endloop
  endfacet
  facet normal 1 0 0
    outer loop
      vertex 400 15.4963 -18.1807
      vertex 400 16.5666 -18.1807
      vertex 400 16.5666 -17.6104
    endloop
  endfacet
  facet normal 1 0 0
    outer loop
      vertex 400 11.6389 -11.29
      vertex 400 13.8976 -10.1807
      vertex 400 13.6984 -9.98047
    endloop
  endfacet
  facet normal 1 0 0
    outer loop
      vertex 400 9.99725 -6.28027
      vertex 400 9.08612 -8.08887
      vertex 400 10.9084 -8.08887
    endloop
  endfacet
  facet normal 1 0 -0
    outer loop
      vertex 400 12.0451 -9.51367
      vertex 400 13.8976 -7.14062
      vertex 400 10.9084 -8.08887
    endloop
  endfacet
  facet normal 1 -0 0
    outer loop
      vertex 400 9.99725 -6.28027
      vertex 400 10.9084 -8.08887
      vertex 400 10.1974 -6.08008
    endloop
  endfacet
  facet normal 1 -0 0
    outer loop
      vertex 400 18.1974 -1.78125
      vertex 400 18.1974 -3.41113
      vertex 400 19.9973 -1.48047
    endloop
  endfacet
  facet normal 1 0 0
    outer loop
      vertex 400 18.1974 -1.78125
      vertex 400 19.5578 -0.419922
      vertex 400 18.4973 0.0195313
    endloop
  endfacet
  facet normal 1 0 0
    outer loop
      vertex 400 19.9973 -5.34082
      vertex 400 18.1974 -4.48145
      vertex 400 18.1974 -7.14062
    endloop
  endfacet
  facet normal 1 0 -0
    outer loop
      vertex 400 16.5666 -1.78125
      vertex 400 18.4973 0.0195313
      vertex 400 14.6379 0.0195313
    endloop
  endfacet
  facet normal 1 0 0
    outer loop
      vertex 400 19.9973 -1.48047
      vertex 400 18.1974 -3.41113
      vertex 400 19.9973 -5.34082
    endloop
  endfacet
  facet normal 1 0 -0
    outer loop
      vertex 400 15.4963 -1.78125
      vertex 400 16.5666 -1.78125
      vertex 400 14.6379 0.0195313
    endloop
  endfacet
  facet normal 1 0 0
    outer loop
      vertex 400 13.8976 -7.14062
      vertex 400 16.5578 -4.48145
      vertex 400 15.4963 -3.4209
    endloop
  endfacet
  facet normal 1 0 0
    outer loop
      vertex 400 6.09686 -7.14062
      vertex 400 7.95038 -9.51367
      vertex 400 9.08612 -8.08887
    endloop
  endfacet
  facet normal 1 -0 0
    outer loop
      vertex 400 3.43768 -4.48145
      vertex 400 7.15741 -6.08008
      vertex 400 4.49823 -3.4209
    endloop
  endfacet
  facet normal 1 0 0
    outer loop
      vertex 400 12.8371 -1.78125
      vertex 400 15.4963 -1.78125
      vertex 400 14.6379 0.0195313
    endloop
  endfacet
  facet normal 1 -0 0
    outer loop
      vertex 400 17.6271 -3.41113
      vertex 400 18.1974 -4.48145
      vertex 400 18.1974 -3.41113
    endloop
  endfacet
  facet normal 1 0 0
    outer loop
      vertex 400 12.8371 -6.08008
      vertex 400 10.1974 -6.08008
      vertex 400 10.9084 -8.08887
    endloop
  endfacet
  facet normal 1 0 -0
    outer loop
      vertex 400 13.8976 -7.14062
      vertex 400 15.4963 -3.4209
      vertex 400 12.8371 -6.08008
    endloop
  endfacet
  facet normal 1 0 0
    outer loop
      vertex 400 13.8976 -7.14062
      vertex 400 12.0451 -9.51367
      vertex 400 13.8976 -9.78125
    endloop
  endfacet
  facet normal 1 -0 0
    outer loop
      vertex 400 6.09686 -7.14062
      vertex 400 9.08612 -8.08887
      vertex 400 7.15741 -6.08008
    endloop
  endfacet
  facet normal 1 -0 0
    outer loop
      vertex 400 6.09686 -9.78125
      vertex 400 6.29706 -9.98047
      vertex 400 7.95038 -9.51367
    endloop
  endfacet
  facet normal 1 0 -0
    outer loop
      vertex 400 1.79706 -3.41113
      vertex 400 1.79706 -1.78125
      vertex 400 0 -1.47388
    endloop
  endfacet
  facet normal 1 0 0
    outer loop
      vertex 400 5.3576 0.0195313
      vertex 400 4.49823 -1.78125
      vertex 400 7.15741 -1.78125
    endloop
  endfacet
  facet normal 1 0 0
    outer loop
      vertex 400 1.79706 -1.78125
      vertex 400 0.436707 -0.419922
      vertex 400 0 -1.47388
    endloop
  endfacet
  facet normal 1 -0 0
    outer loop
      vertex 400 1.49725 0.0195313
      vertex 400 3.42792 -1.78125
      vertex 400 5.3576 0.0195313
    endloop
  endfacet
  facet normal 1 0 0
    outer loop
      vertex 400 1.79706 -3.41113
      vertex 400 0 -1.47388
      vertex 400 0 -5.34355
    endloop
  endfacet
  facet normal 1 0 0
    outer loop
      vertex 400 2.36737 -16.5498
      vertex 400 1.79706 -15.4805
      vertex 400 1.79706 -16.5498
    endloop
  endfacet
  facet normal 1 0 0
    outer loop
      vertex 400 1.79706 -4.48145
      vertex 400 0 -5.34355
      vertex 400 1.79706 -7.14062
    endloop
  endfacet
  facet normal 1 -0 0
    outer loop
      vertex 400 0 -14.6184
      vertex 400 1.79706 -15.4805
      vertex 400 1.79706 -12.8213
    endloop
  endfacet
  facet normal 1 0 -0
    outer loop
      vertex 400 6.09686 -7.14062
      vertex 400 7.15741 -6.08008
      vertex 400 3.43768 -4.48145
    endloop
  endfacet
  facet normal 1 0 -0
    outer loop
      vertex 400 4.49823 -3.4209
      vertex 400 4.49823 -1.78125
      vertex 400 3.42792 -2.35059
    endloop
  endfacet
  facet normal 1 0 0
    outer loop
      vertex 400 1.79706 -3.41113
      vertex 400 0 -5.34355
      vertex 400 1.79706 -4.48145
    endloop
  endfacet
  facet normal 1 0 0
    outer loop
      vertex 400 4.49823 -1.78125
      vertex 400 3.42792 -1.78125
      vertex 400 3.42792 -2.35059
    endloop
  endfacet
  facet normal 1 0 0
    outer loop
      vertex 400 11.6389 -11.29
      vertex 400 9.99725 -12.0811
      vertex 400 10.1974 -13.8818
    endloop
  endfacet
  facet normal 1 0 0
    outer loop
      vertex 400 8.35565 -11.29
      vertex 400 7.15741 -13.8818
      vertex 400 9.79706 -13.8818
    endloop
  endfacet
  facet normal 1 0 0
    outer loop
      vertex 400 6.09686 -7.14062
      vertex 400 6.09686 -9.78125
      vertex 400 7.95038 -9.51367
    endloop
  endfacet
  facet normal 1 0 0
    outer loop
      vertex 400 6.09686 -12.8213
      vertex 400 8.35565 -11.29
      vertex 400 6.09686 -10.1807
    endloop
  endfacet
  facet normal 1 0 0
    outer loop
      vertex 400 7.15741 -13.8818
      vertex 400 6.09686 -12.8213
      vertex 400 3.43768 -15.4805
    endloop
  endfacet
  facet normal 1 0 0
    outer loop
      vertex 400 8.35565 -11.29
      vertex 400 9.79706 -13.8818
      vertex 400 9.99725 -12.0811
    endloop
  endfacet
  facet normal 1 0 0
    outer loop
      vertex 400 7.15741 -13.8818
      vertex 400 3.43768 -15.4805
      vertex 400 4.49823 -16.541
    endloop
  endfacet
  facet normal 1 0 0
    outer loop
      vertex 400 1.79706 -18.1807
      vertex 400 0 -18.4871
      vertex 400 0.436707 -19.541
    endloop
  endfacet
  facet normal 1 0 0
    outer loop
      vertex 400 1.79706 -16.5498
      vertex 400 0 -14.6184
      vertex 400 0 -18.4871
    endloop
  endfacet
  facet normal 1 0 0
    outer loop
      vertex 400 18.4973 0.0195313
      vertex 400 16.5666 -1.78125
      vertex 400 18.1974 -1.78125
    endloop
  endfacet
  facet normal 1 0 0
    outer loop
      vertex 400 15.4963 -1.78125
      vertex 400 15.4963 -3.4209
      vertex 400 16.5666 -2.35059
    endloop
  endfacet
  facet normal 1 0 -0
    outer loop
      vertex 400 16.5666 -2.35059
      vertex 400 16.5666 -1.78125
      vertex 400 15.4963 -1.78125
    endloop
  endfacet
  facet normal 1 0 0
    outer loop
      vertex 400 18.1974 -1.78125
      vertex 400 19.9973 -1.48047
      vertex 400 19.5578 -0.419922
    endloop
  endfacet
  facet normal 1 0 0
    outer loop
      vertex 400 18.1974 -3.41113
      vertex 400 18.1974 -4.48145
      vertex 400 19.9973 -5.34082
    endloop
  endfacet
  facet normal 1 0 0
    outer loop
      vertex 400 17.6271 -3.41113
      vertex 400 16.5578 -4.48145
      vertex 400 18.1974 -4.48145
    endloop
  endfacet
  facet normal 1 0 0
    outer loop
      vertex 400 16.5666 -2.35059
      vertex 400 16.5578 -4.48145
      vertex 400 17.6271 -3.41113
    endloop
  endfacet
  facet normal 1 0 0
    outer loop
      vertex 400 18.1974 -18.1807
      vertex 400 16.5666 -18.1807
      vertex 400 18.4973 -19.9805
    endloop
  endfacet
  facet normal 1 -0 0
    outer loop
      vertex 400 15.4963 -18.1807
      vertex 400 14.6379 -19.9805
      vertex 400 16.5666 -18.1807
    endloop
  endfacet
  facet normal 1 0 0
    outer loop
      vertex 400 16.5578 -15.4805
      vertex 400 16.5666 -17.6104
      vertex 400 17.6271 -16.5498
    endloop
  endfacet
  facet normal 1 0 0
    outer loop
      vertex 400 16.5578 -15.4805
      vertex 400 15.4963 -16.541
      vertex 400 16.5666 -17.6104
    endloop
  endfacet
  facet normal 1 -0 0
    outer loop
      vertex 400 16.5578 -15.4805
      vertex 400 17.6271 -16.5498
      vertex 400 18.1974 -15.4805
    endloop
  endfacet
  facet normal 1 0 0
    outer loop
      vertex 400 17.6271 -16.5498
      vertex 400 18.1974 -16.5498
      vertex 400 18.1974 -15.4805
    endloop
  endfacet
  facet normal 1 0 0
    outer loop
      vertex 400 18.1974 -16.5498
      vertex 400 18.1974 -18.1807
      vertex 400 19.9973 -18.4805
    endloop
  endfacet
  facet normal 1 0 0
    outer loop
      vertex 400 9.79706 -6.08008
      vertex 400 7.15741 -6.08008
      vertex 400 9.08612 -8.08887
    endloop
  endfacet
  facet normal 1 0 0
    outer loop
      vertex 400 6.29706 -9.98047
      vertex 400 6.09686 -10.1807
      vertex 400 8.35565 -11.29
    endloop
  endfacet
  facet normal 1 0 0
    outer loop
      vertex 400 9.79706 -6.08008
      vertex 400 9.08612 -8.08887
      vertex 400 9.99725 -6.28027
    endloop
  endfacet
  facet normal 1 0 0
    outer loop
      vertex 400 9.99725 -12.0811
      vertex 400 9.99725 -13.6816
      vertex 400 10.1974 -13.8818
    endloop
  endfacet
  facet normal 1 0 0
    outer loop
      vertex 400 12.8371 -6.08008
      vertex 400 10.9084 -8.08887
      vertex 400 13.8976 -7.14062
    endloop
  endfacet
  facet normal 1 0 0
    outer loop
      vertex 400 13.8976 -9.78125
      vertex 400 12.0451 -9.51367
      vertex 400 13.6984 -9.98047
    endloop
  endfacet
  facet normal 1 0 0
    outer loop
      vertex 400 13.8976 -12.8213
      vertex 400 11.6389 -11.29
      vertex 400 12.8371 -13.8818
    endloop
  endfacet
  facet normal 1 0 0
    outer loop
      vertex 400 8.35565 -11.29
      vertex 400 6.09686 -12.8213
      vertex 400 7.15741 -13.8818
    endloop
  endfacet
  facet normal 1 0 0
    outer loop
      vertex 400 7.95038 -9.51367
      vertex 400 6.29706 -9.98047
      vertex 400 8.35565 -11.29
    endloop
  endfacet
  facet normal 1 0 0
    outer loop
      vertex 400 3.43768 -4.48145
      vertex 400 2.36737 -3.41113
      vertex 400 1.79706 -4.48145
    endloop
  endfacet
  facet normal 1 0 0
    outer loop
      vertex 400 1.79706 -1.78125
      vertex 400 1.49725 0.0195313
      vertex 400 0.436707 -0.419922
    endloop
  endfacet
  facet normal 1 0 0
    outer loop
      vertex 400 3.42792 -1.78125
      vertex 400 1.49725 0.0195313
      vertex 400 1.79706 -1.78125
    endloop
  endfacet
  facet normal 1 0 -0
    outer loop
      vertex 400 4.49823 -1.78125
      vertex 400 5.3576 0.0195313
      vertex 400 3.42792 -1.78125
    endloop
  endfacet
  facet normal 1 -0 0
    outer loop
      vertex 400 2.36737 -3.41113
      vertex 400 4.49823 -3.4209
      vertex 400 3.42792 -2.35059
    endloop
  endfacet
  facet normal 1 0 0
    outer loop
      vertex 400 1.79706 -4.48145
      vertex 400 2.36737 -3.41113
      vertex 400 1.79706 -3.41113
    endloop
  endfacet
  facet normal 1 0 -0
    outer loop
      vertex 400 3.43768 -4.48145
      vertex 400 4.49823 -3.4209
      vertex 400 2.36737 -3.41113
    endloop
  endfacet
  facet normal 1 0 0
    outer loop
      vertex 400 1.79706 -16.5498
      vertex 400 0 -18.4871
      vertex 400 1.79706 -18.1807
    endloop
  endfacet
  facet normal 1 0 0
    outer loop
      vertex 400 1.79706 -15.4805
      vertex 400 0 -14.6184
      vertex 400 1.79706 -16.5498
    endloop
  endfacet
  facet normal 1 0 0
    outer loop
      vertex 400 4.49823 -16.541
      vertex 400 3.43768 -15.4805
      vertex 400 3.42792 -17.6104
    endloop
  endfacet
  facet normal 1 0 -0
    outer loop
      vertex 400 3.42792 -17.6104
      vertex 400 3.43768 -15.4805
      vertex 400 2.36737 -16.5498
    endloop
  endfacet
  facet normal 1 0 0
    outer loop
      vertex 400 1.49725 -19.9805
      vertex 400 3.42792 -18.1807
      vertex 400 1.79706 -18.1807
    endloop
  endfacet
  facet normal 1 0 -0
    outer loop
      vertex 400 4.49823 -18.1807
      vertex 400 4.49823 -16.541
      vertex 400 3.42792 -17.6104
    endloop
  endfacet
  facet normal 1 0 0
    outer loop
      vertex 400 5.3576 -19.9805
      vertex 400 3.42792 -18.1807
      vertex 400 1.49725 -19.9805
    endloop
  endfacet
  facet normal 1 0 0
    outer loop
      vertex 400 4.49823 -18.1807
      vertex 400 3.42792 -17.6104
      vertex 400 3.42792 -18.1807
    endloop
  endfacet
  facet normal 2.05147e-16 -0.382803 -0.92383
    outer loop
      vertex 4.43656e-15 1.49725 -19.9805
      vertex 400 0.436707 -19.541
      vertex 4.33898e-15 0.436707 -19.541
    endloop
  endfacet
  facet normal 2.05132e-16 -0.382803 -0.92383
    outer loop
      vertex 4.43656e-15 1.49725 -19.9805
      vertex 400 1.49725 -19.9805
      vertex 400 0.436707 -19.541
    endloop
  endfacet
  facet normal 2.22045e-16 0 -1
    outer loop
      vertex 4.43656e-15 5.3576 -19.9805
      vertex 400 1.49725 -19.9805
      vertex 4.43656e-15 1.49725 -19.9805
    endloop
  endfacet
  facet normal 2.22045e-16 0 -1
    outer loop
      vertex 4.43656e-15 5.3576 -19.9805
      vertex 400 5.3576 -19.9805
      vertex 400 1.49725 -19.9805
    endloop
  endfacet
  facet normal 1.57026e-16 0.707107 -0.707107
    outer loop
      vertex 4.03692e-15 7.15741 -18.1807
      vertex 400 5.3576 -19.9805
      vertex 4.43656e-15 5.3576 -19.9805
    endloop
  endfacet
  facet normal 1.57009e-16 0.707107 -0.707107
    outer loop
      vertex 4.03692e-15 7.15741 -18.1807
      vertex 400 7.15741 -18.1807
      vertex 400 5.3576 -19.9805
    endloop
  endfacet
  facet normal -2.22045e-16 0 1
    outer loop
      vertex 4.03692e-15 4.49823 -18.1807
      vertex 400 7.15741 -18.1807
      vertex 4.03692e-15 7.15741 -18.1807
    endloop
  endfacet
  facet normal -2.22045e-16 0 1
    outer loop
      vertex 4.03692e-15 4.49823 -18.1807
      vertex 400 4.49823 -18.1807
      vertex 400 7.15741 -18.1807
    endloop
  endfacet
  facet normal 0 1 0
    outer loop
      vertex 3.67284e-15 4.49823 -16.541
      vertex 400 4.49823 -18.1807
      vertex 4.03692e-15 4.49823 -18.1807
    endloop
  endfacet
  facet normal -0 1 0
    outer loop
      vertex 3.67284e-15 4.49823 -16.541
      vertex 400 4.49823 -16.541
      vertex 400 4.49823 -18.1807
    endloop
  endfacet
  facet normal 1.57058e-16 0.707107 -0.707107
    outer loop
      vertex 3.08239e-15 7.15741 -13.8818
      vertex 400 4.49823 -16.541
      vertex 3.67284e-15 4.49823 -16.541
    endloop
  endfacet
  facet normal 1.57009e-16 0.707107 -0.707107
    outer loop
      vertex 3.08239e-15 7.15741 -13.8818
      vertex 400 7.15741 -13.8818
      vertex 400 4.49823 -16.541
    endloop
  endfacet
  facet normal 2.22045e-16 0 -1
    outer loop
      vertex 3.08239e-15 9.79706 -13.8818
      vertex 400 7.15741 -13.8818
      vertex 3.08239e-15 7.15741 -13.8818
    endloop
  endfacet
  facet normal 2.22045e-16 0 -1
    outer loop
      vertex 3.08239e-15 9.79706 -13.8818
      vertex 400 9.79706 -13.8818
      vertex 400 7.15741 -13.8818
    endloop
  endfacet
  facet normal 1.56979e-16 0.707107 -0.707107
    outer loop
      vertex 3.03793e-15 9.99725 -13.6816
      vertex 400 9.79706 -13.8818
      vertex 3.08239e-15 9.79706 -13.8818
    endloop
  endfacet
  facet normal 1.57009e-16 0.707107 -0.707107
    outer loop
      vertex 3.03793e-15 9.99725 -13.6816
      vertex 400 9.99725 -13.6816
      vertex 400 9.79706 -13.8818
    endloop
  endfacet
  facet normal 1.56979e-16 -0.707107 -0.707107
    outer loop
      vertex 3.08239e-15 10.1974 -13.8818
      vertex 400 9.99725 -13.6816
      vertex 3.03793e-15 9.99725 -13.6816
    endloop
  endfacet
  facet normal 1.57009e-16 -0.707107 -0.707107
    outer loop
      vertex 3.08239e-15 10.1974 -13.8818
      vertex 400 10.1974 -13.8818
      vertex 400 9.99725 -13.6816
    endloop
  endfacet
  facet normal 2.22045e-16 0 -1
    outer loop
      vertex 3.08239e-15 12.8371 -13.8818
      vertex 400 10.1974 -13.8818
      vertex 3.08239e-15 10.1974 -13.8818
    endloop
  endfacet
  facet normal 2.22045e-16 0 -1
    outer loop
      vertex 3.08239e-15 12.8371 -13.8818
      vertex 400 12.8371 -13.8818
      vertex 400 10.1974 -13.8818
    endloop
  endfacet
  facet normal 1.57058e-16 -0.707107 -0.707107
    outer loop
      vertex 3.67284e-15 15.4963 -16.541
      vertex 400 12.8371 -13.8818
      vertex 3.08239e-15 12.8371 -13.8818
    endloop
  endfacet
  facet normal 1.57009e-16 -0.707107 -0.707107
    outer loop
      vertex 3.67284e-15 15.4963 -16.541
      vertex 400 15.4963 -16.541
      vertex 400 12.8371 -13.8818
    endloop
  endfacet
  facet normal 0 -1 0
    outer loop
      vertex 4.03692e-15 15.4963 -18.1807
      vertex 400 15.4963 -16.541
      vertex 3.67284e-15 15.4963 -16.541
    endloop
  endfacet
  facet normal 0 -1 0
    outer loop
      vertex 4.03692e-15 15.4963 -18.1807
      vertex 400 15.4963 -18.1807
      vertex 400 15.4963 -16.541
    endloop
  endfacet
  facet normal -2.22045e-16 0 1
    outer loop
      vertex 4.03692e-15 12.8371 -18.1807
      vertex 400 15.4963 -18.1807
      vertex 4.03692e-15 15.4963 -18.1807
    endloop
  endfacet
  facet normal -2.22045e-16 0 1
    outer loop
      vertex 4.03692e-15 12.8371 -18.1807
      vertex 400 12.8371 -18.1807
      vertex 400 15.4963 -18.1807
    endloop
  endfacet
  facet normal 1.56984e-16 -0.706915 -0.707299
    outer loop
      vertex 4.43656e-15 14.6379 -19.9805
      vertex 400 12.8371 -18.1807
      vertex 4.03692e-15 12.8371 -18.1807
    endloop
  endfacet
  facet normal 1.57052e-16 -0.706915 -0.707299
    outer loop
      vertex 4.43656e-15 14.6379 -19.9805
      vertex 400 14.6379 -19.9805
      vertex 400 12.8371 -18.1807
    endloop
  endfacet
  facet normal 2.22045e-16 0 -1
    outer loop
      vertex 4.43656e-15 18.4973 -19.9805
      vertex 400 14.6379 -19.9805
      vertex 4.43656e-15 14.6379 -19.9805
    endloop
  endfacet
  facet normal 2.22045e-16 0 -1
    outer loop
      vertex 4.43656e-15 18.4973 -19.9805
      vertex 400 18.4973 -19.9805
      vertex 400 14.6379 -19.9805
    endloop
  endfacet
  facet normal 2.05147e-16 0.382803 -0.92383
    outer loop
      vertex 4.33898e-15 19.5578 -19.541
      vertex 400 18.4973 -19.9805
      vertex 4.43656e-15 18.4973 -19.9805
    endloop
  endfacet
  facet normal 2.05132e-16 0.382803 -0.92383
    outer loop
      vertex 4.33898e-15 19.5578 -19.541
      vertex 400 19.5578 -19.541
      vertex 400 18.4973 -19.9805
    endloop
  endfacet
  facet normal 8.49841e-17 0.92383 -0.382803
    outer loop
      vertex 4.10349e-15 19.9973 -18.4805
      vertex 400 19.5578 -19.541
      vertex 4.33898e-15 19.5578 -19.541
    endloop
  endfacet
  facet normal 8.49992e-17 0.92383 -0.382803
    outer loop
      vertex 4.10349e-15 19.9973 -18.4805
      vertex 400 19.9973 -18.4805
      vertex 400 19.5578 -19.541
    endloop
  endfacet
  facet normal 0 1 0
    outer loop
      vertex 3.24653e-15 19.9973 -14.6211
      vertex 400 19.9973 -18.4805
      vertex 4.10349e-15 19.9973 -18.4805
    endloop
  endfacet
  facet normal -0 1 0
    outer loop
      vertex 3.24653e-15 19.9973 -14.6211
      vertex 400 19.9973 -14.6211
      vertex 400 19.9973 -18.4805
    endloop
  endfacet
  facet normal -1.57026e-16 0.707107 0.707107
    outer loop
      vertex 2.8469e-15 18.1974 -12.8213
      vertex 400 19.9973 -14.6211
      vertex 3.24653e-15 19.9973 -14.6211
    endloop
  endfacet
  facet normal -1.57009e-16 0.707107 0.707107
    outer loop
      vertex 2.8469e-15 18.1974 -12.8213
      vertex 400 18.1974 -12.8213
      vertex 400 19.9973 -14.6211
    endloop
  endfacet
  facet normal 0 -1 0
    outer loop
      vertex 3.43735e-15 18.1974 -15.4805
      vertex 400 18.1974 -12.8213
      vertex 2.8469e-15 18.1974 -12.8213
    endloop
  endfacet
  facet normal 0 -1 0
    outer loop
      vertex 3.43735e-15 18.1974 -15.4805
      vertex 400 18.1974 -15.4805
      vertex 400 18.1974 -12.8213
    endloop
  endfacet
  facet normal -2.22045e-16 0 1
    outer loop
      vertex 3.43735e-15 16.5578 -15.4805
      vertex 400 18.1974 -15.4805
      vertex 3.43735e-15 18.1974 -15.4805
    endloop
  endfacet
  facet normal -2.22045e-16 0 1
    outer loop
      vertex 3.43735e-15 16.5578 -15.4805
      vertex 400 16.5578 -15.4805
      vertex 400 18.1974 -15.4805
    endloop
  endfacet
  facet normal -1.57029e-16 0.706977 0.707237
    outer loop
      vertex 2.8469e-15 13.8976 -12.8213
      vertex 400 16.5578 -15.4805
      vertex 3.43735e-15 16.5578 -15.4805
    endloop
  endfacet
  facet normal -1.57038e-16 0.706977 0.707237
    outer loop
      vertex 2.8469e-15 13.8976 -12.8213
      vertex 400 13.8976 -12.8213
      vertex 400 16.5578 -15.4805
    endloop
  endfacet
  facet normal 0 1 0
    outer loop
      vertex 2.26056e-15 13.8976 -10.1807
      vertex 400 13.8976 -12.8213
      vertex 2.8469e-15 13.8976 -12.8213
    endloop
  endfacet
  facet normal -0 1 0
    outer loop
      vertex 2.26056e-15 13.8976 -10.1807
      vertex 400 13.8976 -10.1807
      vertex 400 13.8976 -12.8213
    endloop
  endfacet
  facet normal -1.56625e-16 0.708834 0.705376
    outer loop
      vertex 2.21611e-15 13.6984 -9.98047
      vertex 400 13.8976 -10.1807
      vertex 2.26056e-15 13.8976 -10.1807
    endloop
  endfacet
  facet normal -1.56625e-16 0.708834 0.705376
    outer loop
      vertex 2.21611e-15 13.6984 -9.98047
      vertex 400 13.6984 -9.98047
      vertex 400 13.8976 -10.1807
    endloop
  endfacet
  facet normal 1.57009e-16 0.707107 -0.707107
    outer loop
      vertex 2.17187e-15 13.8976 -9.78125
      vertex 400 13.6984 -9.98047
      vertex 2.21611e-15 13.6984 -9.98047
    endloop
  endfacet
  facet normal 1.57009e-16 0.707107 -0.707107
    outer loop
      vertex 2.17187e-15 13.8976 -9.78125
      vertex 400 13.8976 -9.78125
      vertex 400 13.6984 -9.98047
    endloop
  endfacet
  facet normal 0 1 0
    outer loop
      vertex 1.58554e-15 13.8976 -7.14062
      vertex 400 13.8976 -9.78125
      vertex 2.17187e-15 13.8976 -9.78125
    endloop
  endfacet
  facet normal -0 1 0
    outer loop
      vertex 1.58554e-15 13.8976 -7.14062
      vertex 400 13.8976 -7.14062
      vertex 400 13.8976 -9.78125
    endloop
  endfacet
  facet normal 1.57029e-16 0.706977 -0.707237
    outer loop
      vertex 9.95081e-16 16.5578 -4.48145
      vertex 400 13.8976 -7.14062
      vertex 1.58554e-15 13.8976 -7.14062
    endloop
  endfacet
  facet normal 1.57038e-16 0.706977 -0.707237
    outer loop
      vertex 9.95081e-16 16.5578 -4.48145
      vertex 400 16.5578 -4.48145
      vertex 400 13.8976 -7.14062
    endloop
  endfacet
  facet normal 2.22045e-16 0 -1
    outer loop
      vertex 9.95081e-16 18.1974 -4.48145
      vertex 400 16.5578 -4.48145
      vertex 9.95081e-16 16.5578 -4.48145
    endloop
  endfacet
  facet normal 2.22045e-16 0 -1
    outer loop
      vertex 9.95081e-16 18.1974 -4.48145
      vertex 400 18.1974 -4.48145
      vertex 400 16.5578 -4.48145
    endloop
  endfacet
  facet normal 0 -1 0
    outer loop
      vertex 1.58554e-15 18.1974 -7.14062
      vertex 400 18.1974 -4.48145
      vertex 9.95081e-16 18.1974 -4.48145
    endloop
  endfacet
  facet normal 0 -1 0
    outer loop
      vertex 1.58554e-15 18.1974 -7.14062
      vertex 400 18.1974 -7.14062
      vertex 400 18.1974 -4.48145
    endloop
  endfacet
  facet normal 1.57026e-16 0.707107 -0.707107
    outer loop
      vertex 1.1859e-15 19.9973 -5.34082
      vertex 400 18.1974 -7.14062
      vertex 1.58554e-15 18.1974 -7.14062
    endloop
  endfacet
  facet normal 1.57009e-16 0.707107 -0.707107
    outer loop
      vertex 1.1859e-15 19.9973 -5.34082
      vertex 400 19.9973 -5.34082
      vertex 400 18.1974 -7.14062
    endloop
  endfacet
  facet normal 0 1 0
    outer loop
      vertex 3.2873e-16 19.9973 -1.48047
      vertex 400 19.9973 -5.34082
      vertex 1.1859e-15 19.9973 -5.34082
    endloop
  endfacet
  facet normal -0 1 0
    outer loop
      vertex 3.2873e-16 19.9973 -1.48047
      vertex 400 19.9973 -1.48047
      vertex 400 19.9973 -5.34082
    endloop
  endfacet
  facet normal -8.49841e-17 0.92383 0.382803
    outer loop
      vertex 9.32414e-17 19.5578 -0.419922
      vertex 400 19.9973 -1.48047
      vertex 3.2873e-16 19.9973 -1.48047
    endloop
  endfacet
  facet normal -8.49992e-17 0.92383 0.382803
    outer loop
      vertex 9.32414e-17 19.5578 -0.419922
      vertex 400 19.5578 -0.419922
      vertex 400 19.9973 -1.48047
    endloop
  endfacet
  facet normal -2.05147e-16 0.382803 0.92383
    outer loop
      vertex -4.33681e-18 18.4973 0.0195312
      vertex 400 19.5578 -0.419922
      vertex 9.32414e-17 19.5578 -0.419922
    endloop
  endfacet
  facet normal -2.05132e-16 0.382803 0.92383
    outer loop
      vertex -4.33681e-18 18.4973 0.0195312
      vertex 400 18.4973 0.0195313
      vertex 400 19.5578 -0.419922
    endloop
  endfacet
  facet normal -2.22045e-16 0 1
    outer loop
      vertex -4.33681e-18 14.6379 0.0195312
      vertex 400 18.4973 0.0195313
      vertex -4.33681e-18 18.4973 0.0195312
    endloop
  endfacet
  facet normal -2.22045e-16 0 1
    outer loop
      vertex -4.33681e-18 14.6379 0.0195312
      vertex 400 14.6379 0.0195313
      vertex 400 18.4973 0.0195313
    endloop
  endfacet
  facet normal -1.56941e-16 -0.707107 0.707107
    outer loop
      vertex 3.95517e-16 12.8371 -1.78125
      vertex 400 14.6379 0.0195313
      vertex -4.33681e-18 14.6379 0.0195312
    endloop
  endfacet
  facet normal -1.57009e-16 -0.707107 0.707107
    outer loop
      vertex 3.95517e-16 12.8371 -1.78125
      vertex 400 12.8371 -1.78125
      vertex 400 14.6379 0.0195313
    endloop
  endfacet
  facet normal 2.22045e-16 0 -1
    outer loop
      vertex 3.95517e-16 15.4963 -1.78125
      vertex 400 12.8371 -1.78125
      vertex 3.95517e-16 12.8371 -1.78125
    endloop
  endfacet
  facet normal 2.22045e-16 0 -1
    outer loop
      vertex 3.95517e-16 15.4963 -1.78125
      vertex 400 15.4963 -1.78125
      vertex 400 12.8371 -1.78125
    endloop
  endfacet
  facet normal 0 -1 0
    outer loop
      vertex 7.59592e-16 15.4963 -3.4209
      vertex 400 15.4963 -1.78125
      vertex 3.95517e-16 15.4963 -1.78125
    endloop
  endfacet
  facet normal 0 -1 0
    outer loop
      vertex 7.59592e-16 15.4963 -3.4209
      vertex 400 15.4963 -3.4209
      vertex 400 15.4963 -1.78125
    endloop
  endfacet
  facet normal -1.57058e-16 -0.707107 0.707107
    outer loop
      vertex 1.35005e-15 12.8371 -6.08008
      vertex 400 15.4963 -3.4209
      vertex 7.59592e-16 15.4963 -3.4209
    endloop
  endfacet
  facet normal -1.57009e-16 -0.707107 0.707107
    outer loop
      vertex 1.35005e-15 12.8371 -6.08008
      vertex 400 12.8371 -6.08008
      vertex 400 15.4963 -3.4209
    endloop
  endfacet
  facet normal -2.22045e-16 0 1
    outer loop
      vertex 1.35005e-15 10.1974 -6.08008
      vertex 400 12.8371 -6.08008
      vertex 1.35005e-15 12.8371 -6.08008
    endloop
  endfacet
  facet normal -2.22045e-16 0 1
    outer loop
      vertex 1.35005e-15 10.1974 -6.08008
      vertex 400 10.1974 -6.08008
      vertex 400 12.8371 -6.08008
    endloop
  endfacet
  facet normal -1.56979e-16 -0.707107 0.707107
    outer loop
      vertex 1.3945e-15 9.99725 -6.28027
      vertex 400 10.1974 -6.08008
      vertex 1.35005e-15 10.1974 -6.08008
    endloop
  endfacet
  facet normal -1.57009e-16 -0.707107 0.707107
    outer loop
      vertex 1.3945e-15 9.99725 -6.28027
      vertex 400 9.99725 -6.28027
      vertex 400 10.1974 -6.08008
    endloop
  endfacet
  facet normal -1.56979e-16 0.707107 0.707107
    outer loop
      vertex 1.35005e-15 9.79706 -6.08008
      vertex 400 9.99725 -6.28027
      vertex 1.3945e-15 9.99725 -6.28027
    endloop
  endfacet
  facet normal -1.57009e-16 0.707107 0.707107
    outer loop
      vertex 1.35005e-15 9.79706 -6.08008
      vertex 400 9.79706 -6.08008
      vertex 400 9.99725 -6.28027
    endloop
  endfacet
  facet normal -2.22045e-16 0 1
    outer loop
      vertex 1.35005e-15 7.15741 -6.08008
      vertex 400 9.79706 -6.08008
      vertex 1.35005e-15 9.79706 -6.08008
    endloop
  endfacet
  facet normal -2.22045e-16 0 1
    outer loop
      vertex 1.35005e-15 7.15741 -6.08008
      vertex 400 7.15741 -6.08008
      vertex 400 9.79706 -6.08008
    endloop
  endfacet
  facet normal -1.57058e-16 0.707107 0.707107
    outer loop
      vertex 7.59592e-16 4.49823 -3.4209
      vertex 400 7.15741 -6.08008
      vertex 1.35005e-15 7.15741 -6.08008
    endloop
  endfacet
  facet normal -1.57009e-16 0.707107 0.707107
    outer loop
      vertex 7.59592e-16 4.49823 -3.4209
      vertex 400 4.49823 -3.4209
      vertex 400 7.15741 -6.08008
    endloop
  endfacet
  facet normal 0 1 0
    outer loop
      vertex 3.95517e-16 4.49823 -1.78125
      vertex 400 4.49823 -3.4209
      vertex 7.59592e-16 4.49823 -3.4209
    endloop
  endfacet
  facet normal -0 1 0
    outer loop
      vertex 3.95517e-16 4.49823 -1.78125
      vertex 400 4.49823 -1.78125
      vertex 400 4.49823 -3.4209
    endloop
  endfacet
  facet normal 2.22045e-16 0 -1
    outer loop
      vertex 3.95517e-16 7.15741 -1.78125
      vertex 400 4.49823 -1.78125
      vertex 3.95517e-16 4.49823 -1.78125
    endloop
  endfacet
  facet normal 2.22045e-16 0 -1
    outer loop
      vertex 3.95517e-16 7.15741 -1.78125
      vertex 400 7.15741 -1.78125
      vertex 400 4.49823 -1.78125
    endloop
  endfacet
  facet normal -1.56984e-16 0.707299 0.706915
    outer loop
      vertex -4.33681e-18 5.3576 0.0195312
      vertex 400 7.15741 -1.78125
      vertex 3.95517e-16 7.15741 -1.78125
    endloop
  endfacet
  facet normal -1.56967e-16 0.707299 0.706915
    outer loop
      vertex -4.33681e-18 5.3576 0.0195312
      vertex 400 5.3576 0.0195313
      vertex 400 7.15741 -1.78125
    endloop
  endfacet
  facet normal -2.22045e-16 0 1
    outer loop
      vertex -4.33681e-18 1.49725 0.0195312
      vertex 400 5.3576 0.0195313
      vertex -4.33681e-18 5.3576 0.0195312
    endloop
  endfacet
  facet normal -2.22045e-16 0 1
    outer loop
      vertex -4.33681e-18 1.49725 0.0195312
      vertex 400 1.49725 0.0195313
      vertex 400 5.3576 0.0195313
    endloop
  endfacet
  facet normal -2.05147e-16 -0.382803 0.92383
    outer loop
      vertex 9.32414e-17 0.436707 -0.419922
      vertex 400 1.49725 0.0195313
      vertex -4.33681e-18 1.49725 0.0195312
    endloop
  endfacet
  facet normal -2.05132e-16 -0.382803 0.92383
    outer loop
      vertex 9.32414e-17 0.436707 -0.419922
      vertex 400 0.436707 -0.419922
      vertex 400 1.49725 0.0195313
    endloop
  endfacet
  facet normal -8.50295e-17 -0.923835 0.382791
    outer loop
      vertex 3.27266e-16 0 -1.47388
      vertex 400 0.436707 -0.419922
      vertex 9.32414e-17 0.436707 -0.419922
    endloop
  endfacet
  facet normal -8.49967e-17 -0.923835 0.382791
    outer loop
      vertex 3.27266e-16 0 -1.47388
      vertex 400 0 -1.47388
      vertex 400 0.436707 -0.419922
    endloop
  endfacet
  facet normal 0 -1 0
    outer loop
      vertex 1.18651e-15 0 -5.34355
      vertex 400 0 -1.47388
      vertex 3.27266e-16 0 -1.47388
    endloop
  endfacet
  facet normal 0 -1 0
    outer loop
      vertex 1.18651e-15 0 -5.34355
      vertex 400 0 -5.34355
      vertex 400 0 -1.47388
    endloop
  endfacet
  facet normal 1.56829e-16 -0.70711 -0.707104
    outer loop
      vertex 1.58554e-15 1.79706 -7.14062
      vertex 400 0 -5.34355
      vertex 1.18651e-15 0 -5.34355
    endloop
  endfacet
  facet normal 1.57009e-16 -0.70711 -0.707104
    outer loop
      vertex 1.58554e-15 1.79706 -7.14062
      vertex 400 1.79706 -7.14062
      vertex 400 0 -5.34355
    endloop
  endfacet
  facet normal 0 1 0
    outer loop
      vertex 9.95081e-16 1.79706 -4.48145
      vertex 400 1.79706 -7.14062
      vertex 1.58554e-15 1.79706 -7.14062
    endloop
  endfacet
  facet normal -0 1 0
    outer loop
      vertex 9.95081e-16 1.79706 -4.48145
      vertex 400 1.79706 -4.48145
      vertex 400 1.79706 -7.14062
    endloop
  endfacet
  facet normal 2.22045e-16 0 -1
    outer loop
      vertex 9.95081e-16 3.43768 -4.48145
      vertex 400 1.79706 -4.48145
      vertex 9.95081e-16 1.79706 -4.48145
    endloop
  endfacet
  facet normal 2.22045e-16 0 -1
    outer loop
      vertex 9.95081e-16 3.43768 -4.48145
      vertex 400 3.43768 -4.48145
      vertex 400 1.79706 -4.48145
    endloop
  endfacet
  facet normal 1.57058e-16 -0.707107 -0.707107
    outer loop
      vertex 1.58554e-15 6.09686 -7.14062
      vertex 400 3.43768 -4.48145
      vertex 9.95081e-16 3.43768 -4.48145
    endloop
  endfacet
  facet normal 1.57009e-16 -0.707107 -0.707107
    outer loop
      vertex 1.58554e-15 6.09686 -7.14062
      vertex 400 6.09686 -7.14062
      vertex 400 3.43768 -4.48145
    endloop
  endfacet
  facet normal 0 -1 0
    outer loop
      vertex 2.17187e-15 6.09686 -9.78125
      vertex 400 6.09686 -7.14062
      vertex 1.58554e-15 6.09686 -7.14062
    endloop
  endfacet
  facet normal 0 -1 0
    outer loop
      vertex 2.17187e-15 6.09686 -9.78125
      vertex 400 6.09686 -9.78125
      vertex 400 6.09686 -7.14062
    endloop
  endfacet
  facet normal 1.57362e-16 -0.705376 -0.708834
    outer loop
      vertex 2.21611e-15 6.29706 -9.98047
      vertex 400 6.09686 -9.78125
      vertex 2.17187e-15 6.09686 -9.78125
    endloop
  endfacet
  facet normal 1.57393e-16 -0.705376 -0.708834
    outer loop
      vertex 2.21611e-15 6.29706 -9.98047
      vertex 400 6.29706 -9.98047
      vertex 400 6.09686 -9.78125
    endloop
  endfacet
  facet normal -1.56979e-16 -0.707107 0.707107
    outer loop
      vertex 2.26056e-15 6.09686 -10.1807
      vertex 400 6.29706 -9.98047
      vertex 2.21611e-15 6.29706 -9.98047
    endloop
  endfacet
  facet normal -1.57009e-16 -0.707107 0.707107
    outer loop
      vertex 2.26056e-15 6.09686 -10.1807
      vertex 400 6.09686 -10.1807
      vertex 400 6.29706 -9.98047
    endloop
  endfacet
  facet normal 0 -1 0
    outer loop
      vertex 2.8469e-15 6.09686 -12.8213
      vertex 400 6.09686 -10.1807
      vertex 2.26056e-15 6.09686 -10.1807
    endloop
  endfacet
  facet normal 0 -1 0
    outer loop
      vertex 2.8469e-15 6.09686 -12.8213
      vertex 400 6.09686 -12.8213
      vertex 400 6.09686 -10.1807
    endloop
  endfacet
  facet normal -1.57058e-16 -0.707107 0.707107
    outer loop
      vertex 3.43735e-15 3.43768 -15.4805
      vertex 400 6.09686 -12.8213
      vertex 2.8469e-15 6.09686 -12.8213
    endloop
  endfacet
  facet normal -1.57009e-16 -0.707107 0.707107
    outer loop
      vertex 3.43735e-15 3.43768 -15.4805
      vertex 400 3.43768 -15.4805
      vertex 400 6.09686 -12.8213
    endloop
  endfacet
  facet normal -2.22045e-16 0 1
    outer loop
      vertex 3.43735e-15 1.79706 -15.4805
      vertex 400 3.43768 -15.4805
      vertex 3.43735e-15 3.43768 -15.4805
    endloop
  endfacet
  facet normal -2.22045e-16 0 1
    outer loop
      vertex 3.43735e-15 1.79706 -15.4805
      vertex 400 1.79706 -15.4805
      vertex 400 3.43768 -15.4805
    endloop
  endfacet
  facet normal 0 1 0
    outer loop
      vertex 2.8469e-15 1.79706 -12.8213
      vertex 400 1.79706 -15.4805
      vertex 3.43735e-15 1.79706 -15.4805
    endloop
  endfacet
  facet normal -0 1 0
    outer loop
      vertex 2.8469e-15 1.79706 -12.8213
      vertex 400 1.79706 -12.8213
      vertex 400 1.79706 -15.4805
    endloop
  endfacet
  facet normal -1.56829e-16 -0.70711 0.707104
    outer loop
      vertex 3.24593e-15 0 -14.6184
      vertex 400 1.79706 -12.8213
      vertex 2.8469e-15 1.79706 -12.8213
    endloop
  endfacet
  facet normal -1.57009e-16 -0.70711 0.707104
    outer loop
      vertex 3.24593e-15 0 -14.6184
      vertex 400 0 -14.6184
      vertex 400 1.79706 -12.8213
    endloop
  endfacet
  facet normal 0 -1 0
    outer loop
      vertex 4.10495e-15 0 -18.4871
      vertex 400 0 -14.6184
      vertex 3.24593e-15 0 -14.6184
    endloop
  endfacet
  facet normal 0 -1 0
    outer loop
      vertex 4.10495e-15 0 -18.4871
      vertex 400 0 -18.4871
      vertex 400 0 -14.6184
    endloop
  endfacet
  facet normal 8.50295e-17 -0.923835 -0.382791
    outer loop
      vertex 4.33898e-15 0.436707 -19.541
      vertex 400 0 -18.4871
      vertex 4.10495e-15 0 -18.4871
    endloop
  endfacet
  facet normal 8.49967e-17 -0.923835 -0.382791
    outer loop
      vertex 4.33898e-15 0.436707 -19.541
      vertex 400 0.436707 -19.541
      vertex 400 0 -18.4871
    endloop
  endfacet
  facet normal 2.22045e-16 0 -1
    outer loop
      vertex 3.95517e-16 18.1974 -1.78125
      vertex 400 18.1974 -1.78125
      vertex 3.95517e-16 16.5666 -1.78125
    endloop
  endfacet
  facet normal 2.22045e-16 0 -1
    outer loop
      vertex 400 16.5666 -1.78125
      vertex 3.95517e-16 16.5666 -1.78125
      vertex 400 18.1974 -1.78125
    endloop
  endfacet
  facet normal 0 -1 0
    outer loop
      vertex 7.57424e-16 18.1974 -3.41113
      vertex 400 18.1974 -3.41113
      vertex 3.95517e-16 18.1974 -1.78125
    endloop
  endfacet
  facet normal 0 -1 -0
    outer loop
      vertex 400 18.1974 -1.78125
      vertex 3.95517e-16 18.1974 -1.78125
      vertex 400 18.1974 -3.41113
    endloop
  endfacet
  facet normal -2.22045e-16 0 1
    outer loop
      vertex 7.57424e-16 17.6271 -3.41113
      vertex 400 17.6271 -3.41113
      vertex 7.57424e-16 18.1974 -3.41113
    endloop
  endfacet
  facet normal -2.22045e-16 0 1
    outer loop
      vertex 400 18.1974 -3.41113
      vertex 7.57424e-16 18.1974 -3.41113
      vertex 400 17.6271 -3.41113
    endloop
  endfacet
  facet normal -1.57009e-16 0.707107 0.707107
    outer loop
      vertex 5.21935e-16 16.5666 -2.35059
      vertex 400 16.5666 -2.35059
      vertex 7.57424e-16 17.6271 -3.41113
    endloop
  endfacet
  facet normal -1.57009e-16 0.707107 0.707107
    outer loop
      vertex 400 17.6271 -3.41113
      vertex 7.57424e-16 17.6271 -3.41113
      vertex 400 16.5666 -2.35059
    endloop
  endfacet
  facet normal -0 1 0
    outer loop
      vertex 3.95517e-16 16.5666 -1.78125
      vertex 400 16.5666 -1.78125
      vertex 5.21935e-16 16.5666 -2.35059
    endloop
  endfacet
  facet normal 0 1 -0
    outer loop
      vertex 400 16.5666 -2.35059
      vertex 5.21935e-16 16.5666 -2.35059
      vertex 400 16.5666 -1.78125
    endloop
  endfacet
  facet normal 1.57009e-16 0.707107 -0.707107
    outer loop
      vertex 3.67479e-15 17.6271 -16.5498
      vertex 400 17.6271 -16.5498
      vertex 3.91028e-15 16.5666 -17.6104
    endloop
  endfacet
  facet normal 1.57009e-16 0.707107 -0.707107
    outer loop
      vertex 400 16.5666 -17.6104
      vertex 3.91028e-15 16.5666 -17.6104
      vertex 400 17.6271 -16.5498
    endloop
  endfacet
  facet normal 2.22045e-16 0 -1
    outer loop
      vertex 3.67479e-15 18.1974 -16.5498
      vertex 400 18.1974 -16.5498
      vertex 3.67479e-15 17.6271 -16.5498
    endloop
  endfacet
  facet normal 2.22045e-16 0 -1
    outer loop
      vertex 400 17.6271 -16.5498
      vertex 3.67479e-15 17.6271 -16.5498
      vertex 400 18.1974 -16.5498
    endloop
  endfacet
  facet normal 0 -1 0
    outer loop
      vertex 4.03692e-15 18.1974 -18.1807
      vertex 400 18.1974 -18.1807
      vertex 3.67479e-15 18.1974 -16.5498
    endloop
  endfacet
  facet normal 0 -1 -0
    outer loop
      vertex 400 18.1974 -16.5498
      vertex 3.67479e-15 18.1974 -16.5498
      vertex 400 18.1974 -18.1807
    endloop
  endfacet
  facet normal -2.22045e-16 0 1
    outer loop
      vertex 4.03692e-15 16.5666 -18.1807
      vertex 400 16.5666 -18.1807
      vertex 4.03692e-15 18.1974 -18.1807
    endloop
  endfacet
  facet normal -2.22045e-16 0 1
    outer loop
      vertex 400 18.1974 -18.1807
      vertex 4.03692e-15 18.1974 -18.1807
      vertex 400 16.5666 -18.1807
    endloop
  endfacet
  facet normal -0 1 0
    outer loop
      vertex 3.91028e-15 16.5666 -17.6104
      vertex 400 16.5666 -17.6104
      vertex 4.03692e-15 16.5666 -18.1807
    endloop
  endfacet
  facet normal 0 1 -0
    outer loop
      vertex 400 16.5666 -18.1807
      vertex 4.03692e-15 16.5666 -18.1807
      vertex 400 16.5666 -17.6104
    endloop
  endfacet
  facet normal 2.22045e-16 0 -1
    outer loop
      vertex 1.79609e-15 10.9084 -8.08887
      vertex 400 10.9084 -8.08887
      vertex 1.79609e-15 9.08612 -8.08887
    endloop
  endfacet
  facet normal 2.22045e-16 0 -1
    outer loop
      vertex 400 9.08612 -8.08887
      vertex 1.79609e-15 9.08612 -8.08887
      vertex 400 10.9084 -8.08887
    endloop
  endfacet
  facet normal 1.38478e-16 -0.781704 -0.623649
    outer loop
      vertex 2.11246e-15 12.0451 -9.51367
      vertex 400 12.0451 -9.51367
      vertex 1.79609e-15 10.9084 -8.08887
    endloop
  endfacet
  facet normal 1.38478e-16 -0.781704 -0.623649
    outer loop
      vertex 400 10.9084 -8.08887
      vertex 1.79609e-15 10.9084 -8.08887
      vertex 400 12.0451 -9.51367
    endloop
  endfacet
  facet normal -4.95029e-17 -0.974832 0.222941
    outer loop
      vertex 2.50689e-15 11.6389 -11.29
      vertex 400 11.6389 -11.29
      vertex 2.11246e-15 12.0451 -9.51367
    endloop
  endfacet
  facet normal -4.95029e-17 -0.974832 0.222941
    outer loop
      vertex 400 12.0451 -9.51367
      vertex 2.11246e-15 12.0451 -9.51367
      vertex 400 11.6389 -11.29
    endloop
  endfacet
  facet normal -2.00033e-16 -0.43409 0.90087
    outer loop
      vertex 2.68253e-15 9.99725 -12.0811
      vertex 400 9.99725 -12.0811
      vertex 2.50689e-15 11.6389 -11.29
    endloop
  endfacet
  facet normal -2.00033e-16 -0.43409 0.90087
    outer loop
      vertex 400 11.6389 -11.29
      vertex 2.50689e-15 11.6389 -11.29
      vertex 400 9.99725 -12.0811
    endloop
  endfacet
  facet normal -2.00033e-16 0.43409 0.90087
    outer loop
      vertex 2.50689e-15 8.35565 -11.29
      vertex 400 8.35565 -11.29
      vertex 2.68253e-15 9.99725 -12.0811
    endloop
  endfacet
  facet normal -2.00033e-16 0.43409 0.90087
    outer loop
      vertex 400 9.99725 -12.0811
      vertex 2.68253e-15 9.99725 -12.0811
      vertex 400 8.35565 -11.29
    endloop
  endfacet
  facet normal -4.93898e-17 0.974948 0.222432
    outer loop
      vertex 2.11246e-15 7.95038 -9.51367
      vertex 400 7.95038 -9.51367
      vertex 2.50689e-15 8.35565 -11.29
    endloop
  endfacet
  facet normal -4.93898e-17 0.974948 0.222432
    outer loop
      vertex 400 8.35565 -11.29
      vertex 2.50689e-15 8.35565 -11.29
      vertex 400 7.95038 -9.51367
    endloop
  endfacet
  facet normal 1.38405e-16 0.781966 -0.623322
    outer loop
      vertex 1.79609e-15 9.08612 -8.08887
      vertex 400 9.08612 -8.08887
      vertex 2.11246e-15 7.95038 -9.51367
    endloop
  endfacet
  facet normal 1.38405e-16 0.781966 -0.623322
    outer loop
      vertex 400 7.95038 -9.51367
      vertex 2.11246e-15 7.95038 -9.51367
      vertex 400 9.08612 -8.08887
    endloop
  endfacet
  facet normal 2.22045e-16 0 -1
    outer loop
      vertex 3.95517e-16 3.42792 -1.78125
      vertex 400 3.42792 -1.78125
      vertex 3.95517e-16 1.79706 -1.78125
    endloop
  endfacet
  facet normal 2.22045e-16 0 -1
    outer loop
      vertex 400 1.79706 -1.78125
      vertex 3.95517e-16 1.79706 -1.78125
      vertex 400 3.42792 -1.78125
    endloop
  endfacet
  facet normal 0 -1 0
    outer loop
      vertex 5.21935e-16 3.42792 -2.35059
      vertex 400 3.42792 -2.35059
      vertex 3.95517e-16 3.42792 -1.78125
    endloop
  endfacet
  facet normal 0 -1 -0
    outer loop
      vertex 400 3.42792 -1.78125
      vertex 3.95517e-16 3.42792 -1.78125
      vertex 400 3.42792 -2.35059
    endloop
  endfacet
  facet normal -1.57009e-16 -0.707107 0.707107
    outer loop
      vertex 7.57424e-16 2.36737 -3.41113
      vertex 400 2.36737 -3.41113
      vertex 5.21935e-16 3.42792 -2.35059
    endloop
  endfacet
  facet normal -1.57009e-16 -0.707107 0.707107
    outer loop
      vertex 400 3.42792 -2.35059
      vertex 5.21935e-16 3.42792 -2.35059
      vertex 400 2.36737 -3.41113
    endloop
  endfacet
  facet normal -2.22045e-16 0 1
    outer loop
      vertex 7.57424e-16 1.79706 -3.41113
      vertex 400 1.79706 -3.41113
      vertex 7.57424e-16 2.36737 -3.41113
    endloop
  endfacet
  facet normal -2.22045e-16 0 1
    outer loop
      vertex 400 2.36737 -3.41113
      vertex 7.57424e-16 2.36737 -3.41113
      vertex 400 1.79706 -3.41113
    endloop
  endfacet
  facet normal -0 1 0
    outer loop
      vertex 3.95517e-16 1.79706 -1.78125
      vertex 400 1.79706 -1.78125
      vertex 7.57424e-16 1.79706 -3.41113
    endloop
  endfacet
  facet normal 0 1 -0
    outer loop
      vertex 400 1.79706 -3.41113
      vertex 7.57424e-16 1.79706 -3.41113
      vertex 400 1.79706 -1.78125
    endloop
  endfacet
  facet normal 2.22045e-16 0 -1
    outer loop
      vertex 3.67479e-15 2.36737 -16.5498
      vertex 400 2.36737 -16.5498
      vertex 3.67479e-15 1.79706 -16.5498
    endloop
  endfacet
  facet normal 2.22045e-16 0 -1
    outer loop
      vertex 400 1.79706 -16.5498
      vertex 3.67479e-15 1.79706 -16.5498
      vertex 400 2.36737 -16.5498
    endloop
  endfacet
  facet normal 1.57009e-16 -0.707107 -0.707107
    outer loop
      vertex 3.91028e-15 3.42792 -17.6104
      vertex 400 3.42792 -17.6104
      vertex 3.67479e-15 2.36737 -16.5498
    endloop
  endfacet
  facet normal 1.57009e-16 -0.707107 -0.707107
    outer loop
      vertex 400 2.36737 -16.5498
      vertex 3.67479e-15 2.36737 -16.5498
      vertex 400 3.42792 -17.6104
    endloop
  endfacet
  facet normal 0 -1 0
    outer loop
      vertex 4.03692e-15 3.42792 -18.1807
      vertex 400 3.42792 -18.1807
      vertex 3.91028e-15 3.42792 -17.6104
    endloop
  endfacet
  facet normal 0 -1 -0
    outer loop
      vertex 400 3.42792 -17.6104
      vertex 3.91028e-15 3.42792 -17.6104
      vertex 400 3.42792 -18.1807
    endloop
  endfacet
  facet normal -2.22045e-16 0 1
    outer loop
      vertex 4.03692e-15 1.79706 -18.1807
      vertex 400 1.79706 -18.1807
      vertex 4.03692e-15 3.42792 -18.1807
    endloop
  endfacet
  facet normal -2.22045e-16 0 1
    outer loop
      vertex 400 3.42792 -18.1807
      vertex 4.03692e-15 3.42792 -18.1807
      vertex 400 1.79706 -18.1807
    endloop
  endfacet
  facet normal -0 1 0
    outer loop
      vertex 3.67479e-15 1.79706 -16.5498
      vertex 400 1.79706 -16.5498
      vertex 4.03692e-15 1.79706 -18.1807
    endloop
  endfacet
  facet normal 0 1 -0
    outer loop
      vertex 400 1.79706 -18.1807
      vertex 4.03692e-15 1.79706 -18.1807
      vertex 400 1.79706 -16.5498
    endloop
  endfacet
endsolid OpenSCAD_Model
