solid OpenSCAD_Model
  facet normal -1 0 -2.22045e-16
    outer loop
      vertex 4.43656e-15 1.49725 0.0195312
      vertex 4.33898e-15 0.436707 0.458984
      vertex 4.03692e-15 1.79706 1.81934
    endloop
  endfacet
  facet normal -1 0 -2.22045e-16
    outer loop
      vertex 4.43656e-15 5.3576 0.0195312
      vertex 4.03692e-15 4.49823 1.81934
      vertex 4.03692e-15 7.15741 1.81934
    endloop
  endfacet
  facet normal -1 0 -2.22045e-16
    outer loop
      vertex 4.03692e-15 3.42792 1.81934
      vertex 4.03692e-15 4.49823 1.81934
      vertex 4.43656e-15 5.3576 0.0195312
    endloop
  endfacet
  facet normal -1 0 -2.22045e-16
    outer loop
      vertex 3.43735e-15 1.79706 4.51953
      vertex 3.43735e-15 3.43768 4.51953
      vertex 3.67479e-15 2.36737 3.4502
    endloop
  endfacet
  facet normal -1 0 -2.22045e-16
    outer loop
      vertex 5.21935e-16 16.5666 17.6494
      vertex 9.95081e-16 16.5578 15.5186
      vertex 7.59592e-16 15.4963 16.5791
    endloop
  endfacet
  facet normal -1 0 -2.22045e-16
    outer loop
      vertex 3.08239e-15 9.79706 6.11816
      vertex 2.68253e-15 9.99725 7.91895
      vertex 3.03793e-15 9.99725 6.31836
    endloop
  endfacet
  facet normal -1 0 -2.22045e-16
    outer loop
      vertex 2.26056e-15 13.8976 9.81934
      vertex 2.8469e-15 13.8976 7.17871
      vertex 2.50689e-15 11.6389 8.70996
    endloop
  endfacet
  facet normal -1 0 -2.22045e-16
    outer loop
      vertex 3.08239e-15 10.1974 6.11816
      vertex 2.50689e-15 11.6389 8.70996
      vertex 3.08239e-15 12.8371 6.11816
    endloop
  endfacet
  facet normal -1 0 -2.22045e-16
    outer loop
      vertex 3.08239e-15 12.8371 6.11816
      vertex 2.8469e-15 13.8976 7.17871
      vertex 3.67284e-15 15.4963 3.45898
    endloop
  endfacet
  facet normal -1 0 -2.22045e-16
    outer loop
      vertex 4.33898e-15 19.5578 0.458984
      vertex 4.43656e-15 18.4973 0.0195312
      vertex 4.03692e-15 18.1974 1.81934
    endloop
  endfacet
  facet normal -1 0 -2.22045e-16
    outer loop
      vertex 4.03692e-15 12.8371 1.81934
      vertex 4.03692e-15 15.4963 1.81934
      vertex 4.43656e-15 14.6379 0.0195312
    endloop
  endfacet
  facet normal -1 0 -2.22045e-16
    outer loop
      vertex 3.24653e-15 19.9973 5.37891
      vertex 4.10349e-15 19.9973 1.51953
      vertex 3.67479e-15 18.1974 3.4502
    endloop
  endfacet
  facet normal -1 0 -2.22045e-16
    outer loop
      vertex 4.43656e-15 14.6379 0.0195312
      vertex 4.03692e-15 16.5666 1.81934
      vertex 4.43656e-15 18.4973 0.0195312
    endloop
  endfacet
  facet normal -1 0 -2.22045e-16
    outer loop
      vertex 4.03692e-15 18.1974 1.81934
      vertex 4.10349e-15 19.9973 1.51953
      vertex 4.33898e-15 19.5578 0.458984
    endloop
  endfacet
  facet normal -1 0 -2.22045e-16
    outer loop
      vertex 2.8469e-15 18.1974 7.17871
      vertex 3.24653e-15 19.9973 5.37891
      vertex 3.43735e-15 18.1974 4.51953
    endloop
  endfacet
  facet normal -1 0 -2.22045e-16
    outer loop
      vertex 3.67284e-15 15.4963 3.45898
      vertex 2.8469e-15 13.8976 7.17871
      vertex 3.43735e-15 16.5578 4.51953
    endloop
  endfacet
  facet normal -1 0 -2.22045e-16
    outer loop
      vertex 2.21611e-15 13.6984 10.0195
      vertex 2.50689e-15 11.6389 8.70996
      vertex 2.11246e-15 12.0451 10.4863
    endloop
  endfacet
  facet normal -1 0 -2.22045e-16
    outer loop
      vertex 3.91028e-15 16.5666 2.38965
      vertex 4.03692e-15 15.4963 1.81934
      vertex 3.67284e-15 15.4963 3.45898
    endloop
  endfacet
  facet normal -1 0 -2.22045e-16
    outer loop
      vertex 3.43735e-15 18.1974 4.51953
      vertex 3.24653e-15 19.9973 5.37891
      vertex 3.67479e-15 18.1974 3.4502
    endloop
  endfacet
  facet normal -1 0 -2.22045e-16
    outer loop
      vertex 3.91028e-15 16.5666 2.38965
      vertex 4.03692e-15 16.5666 1.81934
      vertex 4.03692e-15 15.4963 1.81934
    endloop
  endfacet
  facet normal -1 0 -2.22045e-16
    outer loop
      vertex 2.21611e-15 13.6984 10.0195
      vertex 2.26056e-15 13.8976 9.81934
      vertex 2.50689e-15 11.6389 8.70996
    endloop
  endfacet
  facet normal -1 -0 -2.22045e-16
    outer loop
      vertex 1.79609e-15 10.9084 11.9111
      vertex 1.79609e-15 9.08612 11.9111
      vertex 1.3945e-15 9.99725 13.7197
    endloop
  endfacet
  facet normal -1 0 -2.22045e-16
    outer loop
      vertex 1.79609e-15 10.9084 11.9111
      vertex 1.58554e-15 13.8976 12.8594
      vertex 2.11246e-15 12.0451 10.4863
    endloop
  endfacet
  facet normal -1 0 -2.22045e-16
    outer loop
      vertex 1.35005e-15 10.1974 13.9199
      vertex 1.79609e-15 10.9084 11.9111
      vertex 1.3945e-15 9.99725 13.7197
    endloop
  endfacet
  facet normal -1 0 -2.22045e-16
    outer loop
      vertex 3.2873e-16 19.9973 18.5195
      vertex 7.57424e-16 18.1974 16.5889
      vertex 3.95517e-16 18.1974 18.2188
    endloop
  endfacet
  facet normal -1 0 -2.22045e-16
    outer loop
      vertex -4.33681e-18 18.4973 20.0195
      vertex 9.32414e-17 19.5578 19.5801
      vertex 3.95517e-16 18.1974 18.2188
    endloop
  endfacet
  facet normal -1 0 -2.22045e-16
    outer loop
      vertex 1.58554e-15 18.1974 12.8594
      vertex 9.95081e-16 18.1974 15.5186
      vertex 1.1859e-15 19.9973 14.6592
    endloop
  endfacet
  facet normal -1 0 -2.22045e-16
    outer loop
      vertex -4.33681e-18 14.6379 20.0195
      vertex -4.33681e-18 18.4973 20.0195
      vertex 3.95517e-16 16.5666 18.2188
    endloop
  endfacet
  facet normal -1 0 -2.22045e-16
    outer loop
      vertex 1.1859e-15 19.9973 14.6592
      vertex 7.57424e-16 18.1974 16.5889
      vertex 3.2873e-16 19.9973 18.5195
    endloop
  endfacet
  facet normal -1 0 -2.22045e-16
    outer loop
      vertex -4.33681e-18 14.6379 20.0195
      vertex 3.95517e-16 16.5666 18.2188
      vertex 3.95517e-16 15.4963 18.2188
    endloop
  endfacet
  facet normal -1 0 -2.22045e-16
    outer loop
      vertex 7.59592e-16 15.4963 16.5791
      vertex 9.95081e-16 16.5578 15.5186
      vertex 1.58554e-15 13.8976 12.8594
    endloop
  endfacet
  facet normal -1 0 -2.22045e-16
    outer loop
      vertex 1.79609e-15 9.08612 11.9111
      vertex 2.11246e-15 7.95038 10.4863
      vertex 1.58554e-15 6.09686 12.8594
    endloop
  endfacet
  facet normal -1 0 -2.22045e-16
    outer loop
      vertex 7.59592e-16 4.49823 16.5791
      vertex 1.35005e-15 7.15741 13.9199
      vertex 9.95081e-16 3.43768 15.5186
    endloop
  endfacet
  facet normal -1 0 -2.22045e-16
    outer loop
      vertex -4.33681e-18 14.6379 20.0195
      vertex 3.95517e-16 15.4963 18.2188
      vertex 3.95517e-16 12.8371 18.2188
    endloop
  endfacet
  facet normal -1 -0 -2.22045e-16
    outer loop
      vertex 7.57424e-16 18.1974 16.5889
      vertex 9.95081e-16 18.1974 15.5186
      vertex 7.57424e-16 17.6271 16.5889
    endloop
  endfacet
  facet normal -1 0 -2.22045e-16
    outer loop
      vertex 1.79609e-15 10.9084 11.9111
      vertex 1.35005e-15 10.1974 13.9199
      vertex 1.35005e-15 12.8371 13.9199
    endloop
  endfacet
  facet normal -1 0 -2.22045e-16
    outer loop
      vertex 1.35005e-15 12.8371 13.9199
      vertex 7.59592e-16 15.4963 16.5791
      vertex 1.58554e-15 13.8976 12.8594
    endloop
  endfacet
  facet normal -1 0 -2.22045e-16
    outer loop
      vertex 2.17187e-15 13.8976 10.2188
      vertex 2.11246e-15 12.0451 10.4863
      vertex 1.58554e-15 13.8976 12.8594
    endloop
  endfacet
  facet normal -1 0 -2.22045e-16
    outer loop
      vertex 1.35005e-15 7.15741 13.9199
      vertex 1.79609e-15 9.08612 11.9111
      vertex 1.58554e-15 6.09686 12.8594
    endloop
  endfacet
  facet normal -1 0 -2.22045e-16
    outer loop
      vertex 2.11246e-15 7.95038 10.4863
      vertex 2.21611e-15 6.29706 10.0195
      vertex 2.17187e-15 6.09686 10.2188
    endloop
  endfacet
  facet normal -1 0 -2.22045e-16
    outer loop
      vertex 3.27266e-16 0 18.5261
      vertex 3.95517e-16 1.79706 18.2188
      vertex 7.57424e-16 1.79706 16.5889
    endloop
  endfacet
  facet normal -1 -0 -2.22045e-16
    outer loop
      vertex 3.95517e-16 7.15741 18.2188
      vertex 3.95517e-16 4.49823 18.2188
      vertex -4.33681e-18 5.3576 20.0195
    endloop
  endfacet
  facet normal -1 0 -2.22045e-16
    outer loop
      vertex 3.27266e-16 0 18.5261
      vertex 9.32414e-17 0.436707 19.5801
      vertex 3.95517e-16 1.79706 18.2188
    endloop
  endfacet
  facet normal -1 -0 -2.22045e-16
    outer loop
      vertex -4.33681e-18 5.3576 20.0195
      vertex 3.95517e-16 3.42792 18.2188
      vertex -4.33681e-18 1.49725 20.0195
    endloop
  endfacet
  facet normal -1 0 -2.22045e-16
    outer loop
      vertex 1.18651e-15 0 14.6564
      vertex 3.27266e-16 0 18.5261
      vertex 7.57424e-16 1.79706 16.5889
    endloop
  endfacet
  facet normal -1 0 -2.22045e-16
    outer loop
      vertex 3.67479e-15 1.79706 3.4502
      vertex 3.43735e-15 1.79706 4.51953
      vertex 3.67479e-15 2.36737 3.4502
    endloop
  endfacet
  facet normal -1 0 -2.22045e-16
    outer loop
      vertex 1.58554e-15 1.79706 12.8594
      vertex 1.18651e-15 0 14.6564
      vertex 9.95081e-16 1.79706 15.5186
    endloop
  endfacet
  facet normal -1 0 -2.22045e-16
    outer loop
      vertex 2.8469e-15 1.79706 7.17871
      vertex 3.43735e-15 1.79706 4.51953
      vertex 3.24593e-15 0 5.38164
    endloop
  endfacet
  facet normal -1 0 -2.22045e-16
    outer loop
      vertex 9.95081e-16 3.43768 15.5186
      vertex 1.35005e-15 7.15741 13.9199
      vertex 1.58554e-15 6.09686 12.8594
    endloop
  endfacet
  facet normal -1 0 -2.22045e-16
    outer loop
      vertex 5.21935e-16 3.42792 17.6494
      vertex 3.95517e-16 4.49823 18.2188
      vertex 7.59592e-16 4.49823 16.5791
    endloop
  endfacet
  facet normal -1 0 -2.22045e-16
    outer loop
      vertex 9.95081e-16 1.79706 15.5186
      vertex 1.18651e-15 0 14.6564
      vertex 7.57424e-16 1.79706 16.5889
    endloop
  endfacet
  facet normal -1 0 -2.22045e-16
    outer loop
      vertex 5.21935e-16 3.42792 17.6494
      vertex 3.95517e-16 3.42792 18.2188
      vertex 3.95517e-16 4.49823 18.2188
    endloop
  endfacet
  facet normal -1 0 -2.22045e-16
    outer loop
      vertex 3.08239e-15 10.1974 6.11816
      vertex 2.68253e-15 9.99725 7.91895
      vertex 2.50689e-15 11.6389 8.70996
    endloop
  endfacet
  facet normal -1 -0 -2.22045e-16
    outer loop
      vertex 3.08239e-15 9.79706 6.11816
      vertex 3.08239e-15 7.15741 6.11816
      vertex 2.50689e-15 8.35565 8.70996
    endloop
  endfacet
  facet normal -1 0 -2.22045e-16
    outer loop
      vertex 2.11246e-15 7.95038 10.4863
      vertex 2.17187e-15 6.09686 10.2188
      vertex 1.58554e-15 6.09686 12.8594
    endloop
  endfacet
  facet normal -1 0 -2.22045e-16
    outer loop
      vertex 2.26056e-15 6.09686 9.81934
      vertex 2.50689e-15 8.35565 8.70996
      vertex 2.8469e-15 6.09686 7.17871
    endloop
  endfacet
  facet normal -1 0 -2.22045e-16
    outer loop
      vertex 3.43735e-15 3.43768 4.51953
      vertex 2.8469e-15 6.09686 7.17871
      vertex 3.08239e-15 7.15741 6.11816
    endloop
  endfacet
  facet normal -1 0 -2.22045e-16
    outer loop
      vertex 2.68253e-15 9.99725 7.91895
      vertex 3.08239e-15 9.79706 6.11816
      vertex 2.50689e-15 8.35565 8.70996
    endloop
  endfacet
  facet normal -1 0 -2.22045e-16
    outer loop
      vertex 3.67284e-15 4.49823 3.45898
      vertex 3.43735e-15 3.43768 4.51953
      vertex 3.08239e-15 7.15741 6.11816
    endloop
  endfacet
  facet normal -1 0 -2.22045e-16
    outer loop
      vertex 4.33898e-15 0.436707 0.458984
      vertex 4.10495e-15 0 1.51294
      vertex 4.03692e-15 1.79706 1.81934
    endloop
  endfacet
  facet normal -1 0 -2.22045e-16
    outer loop
      vertex 4.10495e-15 0 1.51294
      vertex 3.24593e-15 0 5.38164
      vertex 3.67479e-15 1.79706 3.4502
    endloop
  endfacet
  facet normal -1 -0 -2.22045e-16
    outer loop
      vertex 3.95517e-16 18.1974 18.2188
      vertex 3.95517e-16 16.5666 18.2188
      vertex -4.33681e-18 18.4973 20.0195
    endloop
  endfacet
  facet normal -1 0 -2.22045e-16
    outer loop
      vertex 5.21935e-16 16.5666 17.6494
      vertex 7.59592e-16 15.4963 16.5791
      vertex 3.95517e-16 15.4963 18.2188
    endloop
  endfacet
  facet normal -1 0 -2.22045e-16
    outer loop
      vertex 3.95517e-16 15.4963 18.2188
      vertex 3.95517e-16 16.5666 18.2188
      vertex 5.21935e-16 16.5666 17.6494
    endloop
  endfacet
  facet normal -1 0 -2.22045e-16
    outer loop
      vertex 9.32414e-17 19.5578 19.5801
      vertex 3.2873e-16 19.9973 18.5195
      vertex 3.95517e-16 18.1974 18.2188
    endloop
  endfacet
  facet normal -1 0 -2.22045e-16
    outer loop
      vertex 1.1859e-15 19.9973 14.6592
      vertex 9.95081e-16 18.1974 15.5186
      vertex 7.57424e-16 18.1974 16.5889
    endloop
  endfacet
  facet normal -1 -0 -2.22045e-16
    outer loop
      vertex 9.95081e-16 18.1974 15.5186
      vertex 9.95081e-16 16.5578 15.5186
      vertex 7.57424e-16 17.6271 16.5889
    endloop
  endfacet
  facet normal -1 0 -2.22045e-16
    outer loop
      vertex 7.57424e-16 17.6271 16.5889
      vertex 9.95081e-16 16.5578 15.5186
      vertex 5.21935e-16 16.5666 17.6494
    endloop
  endfacet
  facet normal -1 0 -2.22045e-16
    outer loop
      vertex 4.43656e-15 18.4973 0.0195312
      vertex 4.03692e-15 16.5666 1.81934
      vertex 4.03692e-15 18.1974 1.81934
    endloop
  endfacet
  facet normal -1 -0 -2.22045e-16
    outer loop
      vertex 4.03692e-15 16.5666 1.81934
      vertex 4.43656e-15 14.6379 0.0195312
      vertex 4.03692e-15 15.4963 1.81934
    endloop
  endfacet
  facet normal -1 0 -2.22045e-16
    outer loop
      vertex 3.67479e-15 17.6271 3.4502
      vertex 3.91028e-15 16.5666 2.38965
      vertex 3.43735e-15 16.5578 4.51953
    endloop
  endfacet
  facet normal -1 0 -2.22045e-16
    outer loop
      vertex 3.91028e-15 16.5666 2.38965
      vertex 3.67284e-15 15.4963 3.45898
      vertex 3.43735e-15 16.5578 4.51953
    endloop
  endfacet
  facet normal -1 -0 -2.22045e-16
    outer loop
      vertex 3.43735e-15 18.1974 4.51953
      vertex 3.67479e-15 17.6271 3.4502
      vertex 3.43735e-15 16.5578 4.51953
    endloop
  endfacet
  facet normal -1 0 -2.22045e-16
    outer loop
      vertex 3.43735e-15 18.1974 4.51953
      vertex 3.67479e-15 18.1974 3.4502
      vertex 3.67479e-15 17.6271 3.4502
    endloop
  endfacet
  facet normal -1 0 -2.22045e-16
    outer loop
      vertex 4.10349e-15 19.9973 1.51953
      vertex 4.03692e-15 18.1974 1.81934
      vertex 3.67479e-15 18.1974 3.4502
    endloop
  endfacet
  facet normal -1 0 -2.22045e-16
    outer loop
      vertex 1.79609e-15 9.08612 11.9111
      vertex 1.35005e-15 7.15741 13.9199
      vertex 1.35005e-15 9.79706 13.9199
    endloop
  endfacet
  facet normal -1 0 -2.22045e-16
    outer loop
      vertex 2.50689e-15 8.35565 8.70996
      vertex 2.26056e-15 6.09686 9.81934
      vertex 2.21611e-15 6.29706 10.0195
    endloop
  endfacet
  facet normal -1 0 -2.22045e-16
    outer loop
      vertex 1.3945e-15 9.99725 13.7197
      vertex 1.79609e-15 9.08612 11.9111
      vertex 1.35005e-15 9.79706 13.9199
    endloop
  endfacet
  facet normal -1 0 -2.22045e-16
    outer loop
      vertex 3.08239e-15 10.1974 6.11816
      vertex 3.03793e-15 9.99725 6.31836
      vertex 2.68253e-15 9.99725 7.91895
    endloop
  endfacet
  facet normal -1 0 -2.22045e-16
    outer loop
      vertex 1.58554e-15 13.8976 12.8594
      vertex 1.79609e-15 10.9084 11.9111
      vertex 1.35005e-15 12.8371 13.9199
    endloop
  endfacet
  facet normal -1 0 -2.22045e-16
    outer loop
      vertex 2.21611e-15 13.6984 10.0195
      vertex 2.11246e-15 12.0451 10.4863
      vertex 2.17187e-15 13.8976 10.2188
    endloop
  endfacet
  facet normal -1 0 -2.22045e-16
    outer loop
      vertex 3.08239e-15 12.8371 6.11816
      vertex 2.50689e-15 11.6389 8.70996
      vertex 2.8469e-15 13.8976 7.17871
    endloop
  endfacet
  facet normal -1 0 -2.22045e-16
    outer loop
      vertex 3.08239e-15 7.15741 6.11816
      vertex 2.8469e-15 6.09686 7.17871
      vertex 2.50689e-15 8.35565 8.70996
    endloop
  endfacet
  facet normal -1 0 -2.22045e-16
    outer loop
      vertex 2.50689e-15 8.35565 8.70996
      vertex 2.21611e-15 6.29706 10.0195
      vertex 2.11246e-15 7.95038 10.4863
    endloop
  endfacet
  facet normal -1 0 -2.22045e-16
    outer loop
      vertex 9.95081e-16 1.79706 15.5186
      vertex 7.57424e-16 2.36737 16.5889
      vertex 9.95081e-16 3.43768 15.5186
    endloop
  endfacet
  facet normal -1 0 -2.22045e-16
    outer loop
      vertex 9.32414e-17 0.436707 19.5801
      vertex -4.33681e-18 1.49725 20.0195
      vertex 3.95517e-16 1.79706 18.2188
    endloop
  endfacet
  facet normal -1 0 -2.22045e-16
    outer loop
      vertex 3.95517e-16 1.79706 18.2188
      vertex -4.33681e-18 1.49725 20.0195
      vertex 3.95517e-16 3.42792 18.2188
    endloop
  endfacet
  facet normal -1 0 -2.22045e-16
    outer loop
      vertex 3.95517e-16 3.42792 18.2188
      vertex -4.33681e-18 5.3576 20.0195
      vertex 3.95517e-16 4.49823 18.2188
    endloop
  endfacet
  facet normal -1 0 -2.22045e-16
    outer loop
      vertex 5.21935e-16 3.42792 17.6494
      vertex 7.59592e-16 4.49823 16.5791
      vertex 7.57424e-16 2.36737 16.5889
    endloop
  endfacet
  facet normal -1 0 -2.22045e-16
    outer loop
      vertex 7.57424e-16 1.79706 16.5889
      vertex 7.57424e-16 2.36737 16.5889
      vertex 9.95081e-16 1.79706 15.5186
    endloop
  endfacet
  facet normal -1 0 -2.22045e-16
    outer loop
      vertex 7.57424e-16 2.36737 16.5889
      vertex 7.59592e-16 4.49823 16.5791
      vertex 9.95081e-16 3.43768 15.5186
    endloop
  endfacet
  facet normal -1 0 -2.22045e-16
    outer loop
      vertex 4.03692e-15 1.79706 1.81934
      vertex 4.10495e-15 0 1.51294
      vertex 3.67479e-15 1.79706 3.4502
    endloop
  endfacet
  facet normal -1 0 -2.22045e-16
    outer loop
      vertex 3.67479e-15 1.79706 3.4502
      vertex 3.24593e-15 0 5.38164
      vertex 3.43735e-15 1.79706 4.51953
    endloop
  endfacet
  facet normal -1 0 -2.22045e-16
    outer loop
      vertex 3.91028e-15 3.42792 2.38965
      vertex 3.43735e-15 3.43768 4.51953
      vertex 3.67284e-15 4.49823 3.45898
    endloop
  endfacet
  facet normal -1 0 -2.22045e-16
    outer loop
      vertex 3.67479e-15 2.36737 3.4502
      vertex 3.43735e-15 3.43768 4.51953
      vertex 3.91028e-15 3.42792 2.38965
    endloop
  endfacet
  facet normal -1 0 -2.22045e-16
    outer loop
      vertex 4.03692e-15 1.79706 1.81934
      vertex 4.03692e-15 3.42792 1.81934
      vertex 4.43656e-15 1.49725 0.0195312
    endloop
  endfacet
  facet normal -1 0 -2.22045e-16
    outer loop
      vertex 3.91028e-15 3.42792 2.38965
      vertex 3.67284e-15 4.49823 3.45898
      vertex 4.03692e-15 4.49823 1.81934
    endloop
  endfacet
  facet normal -1 0 -2.22045e-16
    outer loop
      vertex 4.43656e-15 1.49725 0.0195312
      vertex 4.03692e-15 3.42792 1.81934
      vertex 4.43656e-15 5.3576 0.0195312
    endloop
  endfacet
  facet normal -1 0 -2.22045e-16
    outer loop
      vertex 4.03692e-15 3.42792 1.81934
      vertex 3.91028e-15 3.42792 2.38965
      vertex 4.03692e-15 4.49823 1.81934
    endloop
  endfacet
  facet normal 1 0 0
    outer loop
      vertex 400 1.79706 1.81934
      vertex 400 0.436707 0.458984
      vertex 400 1.49725 0.0195313
    endloop
  endfacet
  facet normal 1 0 0
    outer loop
      vertex 400 7.15741 1.81934
      vertex 400 4.49823 1.81934
      vertex 400 5.3576 0.0195313
    endloop
  endfacet
  facet normal 1 0 0
    outer loop
      vertex 400 5.3576 0.0195313
      vertex 400 4.49823 1.81934
      vertex 400 3.42792 1.81934
    endloop
  endfacet
  facet normal 1 0 -0
    outer loop
      vertex 400 2.36737 3.4502
      vertex 400 3.43768 4.51953
      vertex 400 1.79706 4.51953
    endloop
  endfacet
  facet normal 1 -0 0
    outer loop
      vertex 400 15.4963 16.5791
      vertex 400 16.5578 15.5186
      vertex 400 16.5666 17.6494
    endloop
  endfacet
  facet normal 1 0 -0
    outer loop
      vertex 400 9.99725 6.31836
      vertex 400 9.99725 7.91895
      vertex 400 9.79706 6.11816
    endloop
  endfacet
  facet normal 1 -0 0
    outer loop
      vertex 400 11.6389 8.70996
      vertex 400 13.8976 7.17871
      vertex 400 13.8976 9.81934
    endloop
  endfacet
  facet normal 1 0 0
    outer loop
      vertex 400 12.8371 6.11816
      vertex 400 11.6389 8.70996
      vertex 400 10.1974 6.11816
    endloop
  endfacet
  facet normal 1 0 0
    outer loop
      vertex 400 15.4963 3.45898
      vertex 400 13.8976 7.17871
      vertex 400 12.8371 6.11816
    endloop
  endfacet
  facet normal 1 0 0
    outer loop
      vertex 400 18.1974 1.81934
      vertex 400 18.4973 0.0195313
      vertex 400 19.5578 0.458984
    endloop
  endfacet
  facet normal 1 0 -0
    outer loop
      vertex 400 14.6379 0.0195313
      vertex 400 15.4963 1.81934
      vertex 400 12.8371 1.81934
    endloop
  endfacet
  facet normal 1 -0 0
    outer loop
      vertex 400 18.1974 3.4502
      vertex 400 19.9973 1.51953
      vertex 400 19.9973 5.37891
    endloop
  endfacet
  facet normal 1 0 0
    outer loop
      vertex 400 18.4973 0.0195313
      vertex 400 16.5666 1.81934
      vertex 400 14.6379 0.0195313
    endloop
  endfacet
  facet normal 1 0 -0
    outer loop
      vertex 400 19.5578 0.458984
      vertex 400 19.9973 1.51953
      vertex 400 18.1974 1.81934
    endloop
  endfacet
  facet normal 1 0 0
    outer loop
      vertex 400 18.1974 4.51953
      vertex 400 19.9973 5.37891
      vertex 400 18.1974 7.17871
    endloop
  endfacet
  facet normal 1 0 0
    outer loop
      vertex 400 16.5578 4.51953
      vertex 400 13.8976 7.17871
      vertex 400 15.4963 3.45898
    endloop
  endfacet
  facet normal 1 0 0
    outer loop
      vertex 400 12.0451 10.4863
      vertex 400 11.6389 8.70996
      vertex 400 13.6984 10.0195
    endloop
  endfacet
  facet normal 1 0 0
    outer loop
      vertex 400 15.4963 3.45898
      vertex 400 15.4963 1.81934
      vertex 400 16.5666 2.38965
    endloop
  endfacet
  facet normal 1 0 0
    outer loop
      vertex 400 18.1974 3.4502
      vertex 400 19.9973 5.37891
      vertex 400 18.1974 4.51953
    endloop
  endfacet
  facet normal 1 0 0
    outer loop
      vertex 400 15.4963 1.81934
      vertex 400 16.5666 1.81934
      vertex 400 16.5666 2.38965
    endloop
  endfacet
  facet normal 1 0 0
    outer loop
      vertex 400 11.6389 8.70996
      vertex 400 13.8976 9.81934
      vertex 400 13.6984 10.0195
    endloop
  endfacet
  facet normal 1 0 0
    outer loop
      vertex 400 9.99725 13.7197
      vertex 400 9.08612 11.9111
      vertex 400 10.9084 11.9111
    endloop
  endfacet
  facet normal 1 0 -0
    outer loop
      vertex 400 12.0451 10.4863
      vertex 400 13.8976 12.8594
      vertex 400 10.9084 11.9111
    endloop
  endfacet
  facet normal 1 -0 0
    outer loop
      vertex 400 9.99725 13.7197
      vertex 400 10.9084 11.9111
      vertex 400 10.1974 13.9199
    endloop
  endfacet
  facet normal 1 -0 0
    outer loop
      vertex 400 18.1974 18.2188
      vertex 400 18.1974 16.5889
      vertex 400 19.9973 18.5195
    endloop
  endfacet
  facet normal 1 0 0
    outer loop
      vertex 400 18.1974 18.2188
      vertex 400 19.5578 19.5801
      vertex 400 18.4973 20.0195
    endloop
  endfacet
  facet normal 1 0 0
    outer loop
      vertex 400 19.9973 14.6592
      vertex 400 18.1974 15.5186
      vertex 400 18.1974 12.8594
    endloop
  endfacet
  facet normal 1 0 -0
    outer loop
      vertex 400 16.5666 18.2188
      vertex 400 18.4973 20.0195
      vertex 400 14.6379 20.0195
    endloop
  endfacet
  facet normal 1 0 0
    outer loop
      vertex 400 19.9973 18.5195
      vertex 400 18.1974 16.5889
      vertex 400 19.9973 14.6592
    endloop
  endfacet
  facet normal 1 0 -0
    outer loop
      vertex 400 15.4963 18.2188
      vertex 400 16.5666 18.2188
      vertex 400 14.6379 20.0195
    endloop
  endfacet
  facet normal 1 0 0
    outer loop
      vertex 400 13.8976 12.8594
      vertex 400 16.5578 15.5186
      vertex 400 15.4963 16.5791
    endloop
  endfacet
  facet normal 1 0 0
    outer loop
      vertex 400 6.09686 12.8594
      vertex 400 7.95038 10.4863
      vertex 400 9.08612 11.9111
    endloop
  endfacet
  facet normal 1 -0 0
    outer loop
      vertex 400 3.43768 15.5186
      vertex 400 7.15741 13.9199
      vertex 400 4.49823 16.5791
    endloop
  endfacet
  facet normal 1 0 0
    outer loop
      vertex 400 12.8371 18.2188
      vertex 400 15.4963 18.2188
      vertex 400 14.6379 20.0195
    endloop
  endfacet
  facet normal 1 -0 0
    outer loop
      vertex 400 17.6271 16.5889
      vertex 400 18.1974 15.5186
      vertex 400 18.1974 16.5889
    endloop
  endfacet
  facet normal 1 0 0
    outer loop
      vertex 400 12.8371 13.9199
      vertex 400 10.1974 13.9199
      vertex 400 10.9084 11.9111
    endloop
  endfacet
  facet normal 1 0 -0
    outer loop
      vertex 400 13.8976 12.8594
      vertex 400 15.4963 16.5791
      vertex 400 12.8371 13.9199
    endloop
  endfacet
  facet normal 1 0 0
    outer loop
      vertex 400 13.8976 12.8594
      vertex 400 12.0451 10.4863
      vertex 400 13.8976 10.2188
    endloop
  endfacet
  facet normal 1 -0 0
    outer loop
      vertex 400 6.09686 12.8594
      vertex 400 9.08612 11.9111
      vertex 400 7.15741 13.9199
    endloop
  endfacet
  facet normal 1 -0 0
    outer loop
      vertex 400 6.09686 10.2188
      vertex 400 6.29706 10.0195
      vertex 400 7.95038 10.4863
    endloop
  endfacet
  facet normal 1 0 -0
    outer loop
      vertex 400 1.79706 16.5889
      vertex 400 1.79706 18.2188
      vertex 400 0 18.5261
    endloop
  endfacet
  facet normal 1 0 0
    outer loop
      vertex 400 5.3576 20.0195
      vertex 400 4.49823 18.2188
      vertex 400 7.15741 18.2188
    endloop
  endfacet
  facet normal 1 0 0
    outer loop
      vertex 400 1.79706 18.2188
      vertex 400 0.436707 19.5801
      vertex 400 0 18.5261
    endloop
  endfacet
  facet normal 1 -0 0
    outer loop
      vertex 400 1.49725 20.0195
      vertex 400 3.42792 18.2188
      vertex 400 5.3576 20.0195
    endloop
  endfacet
  facet normal 1 0 0
    outer loop
      vertex 400 1.79706 16.5889
      vertex 400 0 18.5261
      vertex 400 0 14.6564
    endloop
  endfacet
  facet normal 1 0 0
    outer loop
      vertex 400 2.36737 3.4502
      vertex 400 1.79706 4.51953
      vertex 400 1.79706 3.4502
    endloop
  endfacet
  facet normal 1 0 0
    outer loop
      vertex 400 1.79706 15.5186
      vertex 400 0 14.6564
      vertex 400 1.79706 12.8594
    endloop
  endfacet
  facet normal 1 -0 0
    outer loop
      vertex 400 0 5.38164
      vertex 400 1.79706 4.51953
      vertex 400 1.79706 7.17871
    endloop
  endfacet
  facet normal 1 0 -0
    outer loop
      vertex 400 6.09686 12.8594
      vertex 400 7.15741 13.9199
      vertex 400 3.43768 15.5186
    endloop
  endfacet
  facet normal 1 0 -0
    outer loop
      vertex 400 4.49823 16.5791
      vertex 400 4.49823 18.2188
      vertex 400 3.42792 17.6494
    endloop
  endfacet
  facet normal 1 0 0
    outer loop
      vertex 400 1.79706 16.5889
      vertex 400 0 14.6564
      vertex 400 1.79706 15.5186
    endloop
  endfacet
  facet normal 1 0 0
    outer loop
      vertex 400 4.49823 18.2188
      vertex 400 3.42792 18.2188
      vertex 400 3.42792 17.6494
    endloop
  endfacet
  facet normal 1 0 0
    outer loop
      vertex 400 11.6389 8.70996
      vertex 400 9.99725 7.91895
      vertex 400 10.1974 6.11816
    endloop
  endfacet
  facet normal 1 0 0
    outer loop
      vertex 400 8.35565 8.70996
      vertex 400 7.15741 6.11816
      vertex 400 9.79706 6.11816
    endloop
  endfacet
  facet normal 1 0 0
    outer loop
      vertex 400 6.09686 12.8594
      vertex 400 6.09686 10.2188
      vertex 400 7.95038 10.4863
    endloop
  endfacet
  facet normal 1 0 0
    outer loop
      vertex 400 6.09686 7.17871
      vertex 400 8.35565 8.70996
      vertex 400 6.09686 9.81934
    endloop
  endfacet
  facet normal 1 0 0
    outer loop
      vertex 400 7.15741 6.11816
      vertex 400 6.09686 7.17871
      vertex 400 3.43768 4.51953
    endloop
  endfacet
  facet normal 1 0 0
    outer loop
      vertex 400 8.35565 8.70996
      vertex 400 9.79706 6.11816
      vertex 400 9.99725 7.91895
    endloop
  endfacet
  facet normal 1 0 0
    outer loop
      vertex 400 7.15741 6.11816
      vertex 400 3.43768 4.51953
      vertex 400 4.49823 3.45898
    endloop
  endfacet
  facet normal 1 0 0
    outer loop
      vertex 400 1.79706 1.81934
      vertex 400 0 1.51294
      vertex 400 0.436707 0.458984
    endloop
  endfacet
  facet normal 1 0 0
    outer loop
      vertex 400 1.79706 3.4502
      vertex 400 0 5.38164
      vertex 400 0 1.51294
    endloop
  endfacet
  facet normal 1 0 0
    outer loop
      vertex 400 18.4973 20.0195
      vertex 400 16.5666 18.2188
      vertex 400 18.1974 18.2188
    endloop
  endfacet
  facet normal 1 0 0
    outer loop
      vertex 400 15.4963 18.2188
      vertex 400 15.4963 16.5791
      vertex 400 16.5666 17.6494
    endloop
  endfacet
  facet normal 1 0 -0
    outer loop
      vertex 400 16.5666 17.6494
      vertex 400 16.5666 18.2188
      vertex 400 15.4963 18.2188
    endloop
  endfacet
  facet normal 1 0 0
    outer loop
      vertex 400 18.1974 18.2188
      vertex 400 19.9973 18.5195
      vertex 400 19.5578 19.5801
    endloop
  endfacet
  facet normal 1 0 0
    outer loop
      vertex 400 18.1974 16.5889
      vertex 400 18.1974 15.5186
      vertex 400 19.9973 14.6592
    endloop
  endfacet
  facet normal 1 0 0
    outer loop
      vertex 400 17.6271 16.5889
      vertex 400 16.5578 15.5186
      vertex 400 18.1974 15.5186
    endloop
  endfacet
  facet normal 1 0 0
    outer loop
      vertex 400 16.5666 17.6494
      vertex 400 16.5578 15.5186
      vertex 400 17.6271 16.5889
    endloop
  endfacet
  facet normal 1 0 0
    outer loop
      vertex 400 18.1974 1.81934
      vertex 400 16.5666 1.81934
      vertex 400 18.4973 0.0195313
    endloop
  endfacet
  facet normal 1 -0 0
    outer loop
      vertex 400 15.4963 1.81934
      vertex 400 14.6379 0.0195313
      vertex 400 16.5666 1.81934
    endloop
  endfacet
  facet normal 1 0 0
    outer loop
      vertex 400 16.5578 4.51953
      vertex 400 16.5666 2.38965
      vertex 400 17.6271 3.4502
    endloop
  endfacet
  facet normal 1 0 0
    outer loop
      vertex 400 16.5578 4.51953
      vertex 400 15.4963 3.45898
      vertex 400 16.5666 2.38965
    endloop
  endfacet
  facet normal 1 -0 0
    outer loop
      vertex 400 16.5578 4.51953
      vertex 400 17.6271 3.4502
      vertex 400 18.1974 4.51953
    endloop
  endfacet
  facet normal 1 0 0
    outer loop
      vertex 400 17.6271 3.4502
      vertex 400 18.1974 3.4502
      vertex 400 18.1974 4.51953
    endloop
  endfacet
  facet normal 1 0 0
    outer loop
      vertex 400 18.1974 3.4502
      vertex 400 18.1974 1.81934
      vertex 400 19.9973 1.51953
    endloop
  endfacet
  facet normal 1 0 0
    outer loop
      vertex 400 9.79706 13.9199
      vertex 400 7.15741 13.9199
      vertex 400 9.08612 11.9111
    endloop
  endfacet
  facet normal 1 0 0
    outer loop
      vertex 400 6.29706 10.0195
      vertex 400 6.09686 9.81934
      vertex 400 8.35565 8.70996
    endloop
  endfacet
  facet normal 1 0 0
    outer loop
      vertex 400 9.79706 13.9199
      vertex 400 9.08612 11.9111
      vertex 400 9.99725 13.7197
    endloop
  endfacet
  facet normal 1 0 0
    outer loop
      vertex 400 9.99725 7.91895
      vertex 400 9.99725 6.31836
      vertex 400 10.1974 6.11816
    endloop
  endfacet
  facet normal 1 0 0
    outer loop
      vertex 400 12.8371 13.9199
      vertex 400 10.9084 11.9111
      vertex 400 13.8976 12.8594
    endloop
  endfacet
  facet normal 1 0 0
    outer loop
      vertex 400 13.8976 10.2188
      vertex 400 12.0451 10.4863
      vertex 400 13.6984 10.0195
    endloop
  endfacet
  facet normal 1 0 0
    outer loop
      vertex 400 13.8976 7.17871
      vertex 400 11.6389 8.70996
      vertex 400 12.8371 6.11816
    endloop
  endfacet
  facet normal 1 0 0
    outer loop
      vertex 400 8.35565 8.70996
      vertex 400 6.09686 7.17871
      vertex 400 7.15741 6.11816
    endloop
  endfacet
  facet normal 1 0 0
    outer loop
      vertex 400 7.95038 10.4863
      vertex 400 6.29706 10.0195
      vertex 400 8.35565 8.70996
    endloop
  endfacet
  facet normal 1 0 0
    outer loop
      vertex 400 3.43768 15.5186
      vertex 400 2.36737 16.5889
      vertex 400 1.79706 15.5186
    endloop
  endfacet
  facet normal 1 0 0
    outer loop
      vertex 400 1.79706 18.2188
      vertex 400 1.49725 20.0195
      vertex 400 0.436707 19.5801
    endloop
  endfacet
  facet normal 1 0 0
    outer loop
      vertex 400 3.42792 18.2188
      vertex 400 1.49725 20.0195
      vertex 400 1.79706 18.2188
    endloop
  endfacet
  facet normal 1 0 -0
    outer loop
      vertex 400 4.49823 18.2188
      vertex 400 5.3576 20.0195
      vertex 400 3.42792 18.2188
    endloop
  endfacet
  facet normal 1 -0 0
    outer loop
      vertex 400 2.36737 16.5889
      vertex 400 4.49823 16.5791
      vertex 400 3.42792 17.6494
    endloop
  endfacet
  facet normal 1 0 0
    outer loop
      vertex 400 1.79706 15.5186
      vertex 400 2.36737 16.5889
      vertex 400 1.79706 16.5889
    endloop
  endfacet
  facet normal 1 0 -0
    outer loop
      vertex 400 3.43768 15.5186
      vertex 400 4.49823 16.5791
      vertex 400 2.36737 16.5889
    endloop
  endfacet
  facet normal 1 0 0
    outer loop
      vertex 400 1.79706 3.4502
      vertex 400 0 1.51294
      vertex 400 1.79706 1.81934
    endloop
  endfacet
  facet normal 1 0 0
    outer loop
      vertex 400 1.79706 4.51953
      vertex 400 0 5.38164
      vertex 400 1.79706 3.4502
    endloop
  endfacet
  facet normal 1 0 0
    outer loop
      vertex 400 4.49823 3.45898
      vertex 400 3.43768 4.51953
      vertex 400 3.42792 2.38965
    endloop
  endfacet
  facet normal 1 0 -0
    outer loop
      vertex 400 3.42792 2.38965
      vertex 400 3.43768 4.51953
      vertex 400 2.36737 3.4502
    endloop
  endfacet
  facet normal 1 0 0
    outer loop
      vertex 400 1.49725 0.0195313
      vertex 400 3.42792 1.81934
      vertex 400 1.79706 1.81934
    endloop
  endfacet
  facet normal 1 0 -0
    outer loop
      vertex 400 4.49823 1.81934
      vertex 400 4.49823 3.45898
      vertex 400 3.42792 2.38965
    endloop
  endfacet
  facet normal 1 0 0
    outer loop
      vertex 400 5.3576 0.0195313
      vertex 400 3.42792 1.81934
      vertex 400 1.49725 0.0195313
    endloop
  endfacet
  facet normal 1 0 0
    outer loop
      vertex 400 4.49823 1.81934
      vertex 400 3.42792 2.38965
      vertex 400 3.42792 1.81934
    endloop
  endfacet
  facet normal 2.05147e-16 -0.382803 -0.92383
    outer loop
      vertex 4.43656e-15 1.49725 0.0195312
      vertex 400 0.436707 0.458984
      vertex 4.33898e-15 0.436707 0.458984
    endloop
  endfacet
  facet normal 2.05132e-16 -0.382803 -0.92383
    outer loop
      vertex 4.43656e-15 1.49725 0.0195312
      vertex 400 1.49725 0.0195313
      vertex 400 0.436707 0.458984
    endloop
  endfacet
  facet normal 2.22045e-16 0 -1
    outer loop
      vertex 4.43656e-15 5.3576 0.0195312
      vertex 400 1.49725 0.0195313
      vertex 4.43656e-15 1.49725 0.0195312
    endloop
  endfacet
  facet normal 2.22045e-16 0 -1
    outer loop
      vertex 4.43656e-15 5.3576 0.0195312
      vertex 400 5.3576 0.0195313
      vertex 400 1.49725 0.0195313
    endloop
  endfacet
  facet normal 1.57026e-16 0.707107 -0.707107
    outer loop
      vertex 4.03692e-15 7.15741 1.81934
      vertex 400 5.3576 0.0195313
      vertex 4.43656e-15 5.3576 0.0195312
    endloop
  endfacet
  facet normal 1.57009e-16 0.707107 -0.707107
    outer loop
      vertex 4.03692e-15 7.15741 1.81934
      vertex 400 7.15741 1.81934
      vertex 400 5.3576 0.0195313
    endloop
  endfacet
  facet normal -2.22045e-16 0 1
    outer loop
      vertex 4.03692e-15 4.49823 1.81934
      vertex 400 7.15741 1.81934
      vertex 4.03692e-15 7.15741 1.81934
    endloop
  endfacet
  facet normal -2.22045e-16 0 1
    outer loop
      vertex 4.03692e-15 4.49823 1.81934
      vertex 400 4.49823 1.81934
      vertex 400 7.15741 1.81934
    endloop
  endfacet
  facet normal 0 1 0
    outer loop
      vertex 3.67284e-15 4.49823 3.45898
      vertex 400 4.49823 1.81934
      vertex 4.03692e-15 4.49823 1.81934
    endloop
  endfacet
  facet normal -0 1 0
    outer loop
      vertex 3.67284e-15 4.49823 3.45898
      vertex 400 4.49823 3.45898
      vertex 400 4.49823 1.81934
    endloop
  endfacet
  facet normal 1.57058e-16 0.707107 -0.707107
    outer loop
      vertex 3.08239e-15 7.15741 6.11816
      vertex 400 4.49823 3.45898
      vertex 3.67284e-15 4.49823 3.45898
    endloop
  endfacet
  facet normal 1.57009e-16 0.707107 -0.707107
    outer loop
      vertex 3.08239e-15 7.15741 6.11816
      vertex 400 7.15741 6.11816
      vertex 400 4.49823 3.45898
    endloop
  endfacet
  facet normal 2.22045e-16 0 -1
    outer loop
      vertex 3.08239e-15 9.79706 6.11816
      vertex 400 7.15741 6.11816
      vertex 3.08239e-15 7.15741 6.11816
    endloop
  endfacet
  facet normal 2.22045e-16 0 -1
    outer loop
      vertex 3.08239e-15 9.79706 6.11816
      vertex 400 9.79706 6.11816
      vertex 400 7.15741 6.11816
    endloop
  endfacet
  facet normal 1.56979e-16 0.707107 -0.707107
    outer loop
      vertex 3.03793e-15 9.99725 6.31836
      vertex 400 9.79706 6.11816
      vertex 3.08239e-15 9.79706 6.11816
    endloop
  endfacet
  facet normal 1.57009e-16 0.707107 -0.707107
    outer loop
      vertex 3.03793e-15 9.99725 6.31836
      vertex 400 9.99725 6.31836
      vertex 400 9.79706 6.11816
    endloop
  endfacet
  facet normal 1.56979e-16 -0.707107 -0.707107
    outer loop
      vertex 3.08239e-15 10.1974 6.11816
      vertex 400 9.99725 6.31836
      vertex 3.03793e-15 9.99725 6.31836
    endloop
  endfacet
  facet normal 1.57009e-16 -0.707107 -0.707107
    outer loop
      vertex 3.08239e-15 10.1974 6.11816
      vertex 400 10.1974 6.11816
      vertex 400 9.99725 6.31836
    endloop
  endfacet
  facet normal 2.22045e-16 0 -1
    outer loop
      vertex 3.08239e-15 12.8371 6.11816
      vertex 400 10.1974 6.11816
      vertex 3.08239e-15 10.1974 6.11816
    endloop
  endfacet
  facet normal 2.22045e-16 0 -1
    outer loop
      vertex 3.08239e-15 12.8371 6.11816
      vertex 400 12.8371 6.11816
      vertex 400 10.1974 6.11816
    endloop
  endfacet
  facet normal 1.57058e-16 -0.707107 -0.707107
    outer loop
      vertex 3.67284e-15 15.4963 3.45898
      vertex 400 12.8371 6.11816
      vertex 3.08239e-15 12.8371 6.11816
    endloop
  endfacet
  facet normal 1.57009e-16 -0.707107 -0.707107
    outer loop
      vertex 3.67284e-15 15.4963 3.45898
      vertex 400 15.4963 3.45898
      vertex 400 12.8371 6.11816
    endloop
  endfacet
  facet normal 0 -1 0
    outer loop
      vertex 4.03692e-15 15.4963 1.81934
      vertex 400 15.4963 3.45898
      vertex 3.67284e-15 15.4963 3.45898
    endloop
  endfacet
  facet normal 0 -1 0
    outer loop
      vertex 4.03692e-15 15.4963 1.81934
      vertex 400 15.4963 1.81934
      vertex 400 15.4963 3.45898
    endloop
  endfacet
  facet normal -2.22045e-16 0 1
    outer loop
      vertex 4.03692e-15 12.8371 1.81934
      vertex 400 15.4963 1.81934
      vertex 4.03692e-15 15.4963 1.81934
    endloop
  endfacet
  facet normal -2.22045e-16 0 1
    outer loop
      vertex 4.03692e-15 12.8371 1.81934
      vertex 400 12.8371 1.81934
      vertex 400 15.4963 1.81934
    endloop
  endfacet
  facet normal 1.56984e-16 -0.706915 -0.707299
    outer loop
      vertex 4.43656e-15 14.6379 0.0195312
      vertex 400 12.8371 1.81934
      vertex 4.03692e-15 12.8371 1.81934
    endloop
  endfacet
  facet normal 1.57052e-16 -0.706915 -0.707299
    outer loop
      vertex 4.43656e-15 14.6379 0.0195312
      vertex 400 14.6379 0.0195313
      vertex 400 12.8371 1.81934
    endloop
  endfacet
  facet normal 2.22045e-16 0 -1
    outer loop
      vertex 4.43656e-15 18.4973 0.0195312
      vertex 400 14.6379 0.0195313
      vertex 4.43656e-15 14.6379 0.0195312
    endloop
  endfacet
  facet normal 2.22045e-16 0 -1
    outer loop
      vertex 4.43656e-15 18.4973 0.0195312
      vertex 400 18.4973 0.0195313
      vertex 400 14.6379 0.0195313
    endloop
  endfacet
  facet normal 2.05147e-16 0.382803 -0.92383
    outer loop
      vertex 4.33898e-15 19.5578 0.458984
      vertex 400 18.4973 0.0195313
      vertex 4.43656e-15 18.4973 0.0195312
    endloop
  endfacet
  facet normal 2.05132e-16 0.382803 -0.92383
    outer loop
      vertex 4.33898e-15 19.5578 0.458984
      vertex 400 19.5578 0.458984
      vertex 400 18.4973 0.0195313
    endloop
  endfacet
  facet normal 8.49841e-17 0.92383 -0.382803
    outer loop
      vertex 4.10349e-15 19.9973 1.51953
      vertex 400 19.5578 0.458984
      vertex 4.33898e-15 19.5578 0.458984
    endloop
  endfacet
  facet normal 8.49992e-17 0.92383 -0.382803
    outer loop
      vertex 4.10349e-15 19.9973 1.51953
      vertex 400 19.9973 1.51953
      vertex 400 19.5578 0.458984
    endloop
  endfacet
  facet normal 0 1 0
    outer loop
      vertex 3.24653e-15 19.9973 5.37891
      vertex 400 19.9973 1.51953
      vertex 4.10349e-15 19.9973 1.51953
    endloop
  endfacet
  facet normal -0 1 0
    outer loop
      vertex 3.24653e-15 19.9973 5.37891
      vertex 400 19.9973 5.37891
      vertex 400 19.9973 1.51953
    endloop
  endfacet
  facet normal -1.57026e-16 0.707107 0.707107
    outer loop
      vertex 2.8469e-15 18.1974 7.17871
      vertex 400 19.9973 5.37891
      vertex 3.24653e-15 19.9973 5.37891
    endloop
  endfacet
  facet normal -1.57009e-16 0.707107 0.707107
    outer loop
      vertex 2.8469e-15 18.1974 7.17871
      vertex 400 18.1974 7.17871
      vertex 400 19.9973 5.37891
    endloop
  endfacet
  facet normal 0 -1 0
    outer loop
      vertex 3.43735e-15 18.1974 4.51953
      vertex 400 18.1974 7.17871
      vertex 2.8469e-15 18.1974 7.17871
    endloop
  endfacet
  facet normal 0 -1 0
    outer loop
      vertex 3.43735e-15 18.1974 4.51953
      vertex 400 18.1974 4.51953
      vertex 400 18.1974 7.17871
    endloop
  endfacet
  facet normal -2.22045e-16 0 1
    outer loop
      vertex 3.43735e-15 16.5578 4.51953
      vertex 400 18.1974 4.51953
      vertex 3.43735e-15 18.1974 4.51953
    endloop
  endfacet
  facet normal -2.22045e-16 0 1
    outer loop
      vertex 3.43735e-15 16.5578 4.51953
      vertex 400 16.5578 4.51953
      vertex 400 18.1974 4.51953
    endloop
  endfacet
  facet normal -1.57029e-16 0.706977 0.707237
    outer loop
      vertex 2.8469e-15 13.8976 7.17871
      vertex 400 16.5578 4.51953
      vertex 3.43735e-15 16.5578 4.51953
    endloop
  endfacet
  facet normal -1.57038e-16 0.706977 0.707237
    outer loop
      vertex 2.8469e-15 13.8976 7.17871
      vertex 400 13.8976 7.17871
      vertex 400 16.5578 4.51953
    endloop
  endfacet
  facet normal 0 1 0
    outer loop
      vertex 2.26056e-15 13.8976 9.81934
      vertex 400 13.8976 7.17871
      vertex 2.8469e-15 13.8976 7.17871
    endloop
  endfacet
  facet normal -0 1 0
    outer loop
      vertex 2.26056e-15 13.8976 9.81934
      vertex 400 13.8976 9.81934
      vertex 400 13.8976 7.17871
    endloop
  endfacet
  facet normal -1.56625e-16 0.708834 0.705376
    outer loop
      vertex 2.21611e-15 13.6984 10.0195
      vertex 400 13.8976 9.81934
      vertex 2.26056e-15 13.8976 9.81934
    endloop
  endfacet
  facet normal -1.56625e-16 0.708834 0.705376
    outer loop
      vertex 2.21611e-15 13.6984 10.0195
      vertex 400 13.6984 10.0195
      vertex 400 13.8976 9.81934
    endloop
  endfacet
  facet normal 1.57009e-16 0.707107 -0.707107
    outer loop
      vertex 2.17187e-15 13.8976 10.2188
      vertex 400 13.6984 10.0195
      vertex 2.21611e-15 13.6984 10.0195
    endloop
  endfacet
  facet normal 1.57009e-16 0.707107 -0.707107
    outer loop
      vertex 2.17187e-15 13.8976 10.2188
      vertex 400 13.8976 10.2188
      vertex 400 13.6984 10.0195
    endloop
  endfacet
  facet normal 0 1 0
    outer loop
      vertex 1.58554e-15 13.8976 12.8594
      vertex 400 13.8976 10.2188
      vertex 2.17187e-15 13.8976 10.2188
    endloop
  endfacet
  facet normal -0 1 0
    outer loop
      vertex 1.58554e-15 13.8976 12.8594
      vertex 400 13.8976 12.8594
      vertex 400 13.8976 10.2188
    endloop
  endfacet
  facet normal 1.57029e-16 0.706977 -0.707237
    outer loop
      vertex 9.95081e-16 16.5578 15.5186
      vertex 400 13.8976 12.8594
      vertex 1.58554e-15 13.8976 12.8594
    endloop
  endfacet
  facet normal 1.57038e-16 0.706977 -0.707237
    outer loop
      vertex 9.95081e-16 16.5578 15.5186
      vertex 400 16.5578 15.5186
      vertex 400 13.8976 12.8594
    endloop
  endfacet
  facet normal 2.22045e-16 0 -1
    outer loop
      vertex 9.95081e-16 18.1974 15.5186
      vertex 400 16.5578 15.5186
      vertex 9.95081e-16 16.5578 15.5186
    endloop
  endfacet
  facet normal 2.22045e-16 0 -1
    outer loop
      vertex 9.95081e-16 18.1974 15.5186
      vertex 400 18.1974 15.5186
      vertex 400 16.5578 15.5186
    endloop
  endfacet
  facet normal 0 -1 0
    outer loop
      vertex 1.58554e-15 18.1974 12.8594
      vertex 400 18.1974 15.5186
      vertex 9.95081e-16 18.1974 15.5186
    endloop
  endfacet
  facet normal 0 -1 0
    outer loop
      vertex 1.58554e-15 18.1974 12.8594
      vertex 400 18.1974 12.8594
      vertex 400 18.1974 15.5186
    endloop
  endfacet
  facet normal 1.57026e-16 0.707107 -0.707107
    outer loop
      vertex 1.1859e-15 19.9973 14.6592
      vertex 400 18.1974 12.8594
      vertex 1.58554e-15 18.1974 12.8594
    endloop
  endfacet
  facet normal 1.57009e-16 0.707107 -0.707107
    outer loop
      vertex 1.1859e-15 19.9973 14.6592
      vertex 400 19.9973 14.6592
      vertex 400 18.1974 12.8594
    endloop
  endfacet
  facet normal 0 1 0
    outer loop
      vertex 3.2873e-16 19.9973 18.5195
      vertex 400 19.9973 14.6592
      vertex 1.1859e-15 19.9973 14.6592
    endloop
  endfacet
  facet normal -0 1 0
    outer loop
      vertex 3.2873e-16 19.9973 18.5195
      vertex 400 19.9973 18.5195
      vertex 400 19.9973 14.6592
    endloop
  endfacet
  facet normal -8.49841e-17 0.92383 0.382803
    outer loop
      vertex 9.32414e-17 19.5578 19.5801
      vertex 400 19.9973 18.5195
      vertex 3.2873e-16 19.9973 18.5195
    endloop
  endfacet
  facet normal -8.49992e-17 0.92383 0.382803
    outer loop
      vertex 9.32414e-17 19.5578 19.5801
      vertex 400 19.5578 19.5801
      vertex 400 19.9973 18.5195
    endloop
  endfacet
  facet normal -2.05147e-16 0.382803 0.92383
    outer loop
      vertex -4.33681e-18 18.4973 20.0195
      vertex 400 19.5578 19.5801
      vertex 9.32414e-17 19.5578 19.5801
    endloop
  endfacet
  facet normal -2.05132e-16 0.382803 0.92383
    outer loop
      vertex -4.33681e-18 18.4973 20.0195
      vertex 400 18.4973 20.0195
      vertex 400 19.5578 19.5801
    endloop
  endfacet
  facet normal -2.22045e-16 0 1
    outer loop
      vertex -4.33681e-18 14.6379 20.0195
      vertex 400 18.4973 20.0195
      vertex -4.33681e-18 18.4973 20.0195
    endloop
  endfacet
  facet normal -2.22045e-16 0 1
    outer loop
      vertex -4.33681e-18 14.6379 20.0195
      vertex 400 14.6379 20.0195
      vertex 400 18.4973 20.0195
    endloop
  endfacet
  facet normal -1.56941e-16 -0.707107 0.707107
    outer loop
      vertex 3.95517e-16 12.8371 18.2188
      vertex 400 14.6379 20.0195
      vertex -4.33681e-18 14.6379 20.0195
    endloop
  endfacet
  facet normal -1.57009e-16 -0.707107 0.707107
    outer loop
      vertex 3.95517e-16 12.8371 18.2188
      vertex 400 12.8371 18.2188
      vertex 400 14.6379 20.0195
    endloop
  endfacet
  facet normal 2.22045e-16 0 -1
    outer loop
      vertex 3.95517e-16 15.4963 18.2188
      vertex 400 12.8371 18.2188
      vertex 3.95517e-16 12.8371 18.2188
    endloop
  endfacet
  facet normal 2.22045e-16 0 -1
    outer loop
      vertex 3.95517e-16 15.4963 18.2188
      vertex 400 15.4963 18.2188
      vertex 400 12.8371 18.2188
    endloop
  endfacet
  facet normal 0 -1 0
    outer loop
      vertex 7.59592e-16 15.4963 16.5791
      vertex 400 15.4963 18.2188
      vertex 3.95517e-16 15.4963 18.2188
    endloop
  endfacet
  facet normal 0 -1 0
    outer loop
      vertex 7.59592e-16 15.4963 16.5791
      vertex 400 15.4963 16.5791
      vertex 400 15.4963 18.2188
    endloop
  endfacet
  facet normal -1.57058e-16 -0.707107 0.707107
    outer loop
      vertex 1.35005e-15 12.8371 13.9199
      vertex 400 15.4963 16.5791
      vertex 7.59592e-16 15.4963 16.5791
    endloop
  endfacet
  facet normal -1.57009e-16 -0.707107 0.707107
    outer loop
      vertex 1.35005e-15 12.8371 13.9199
      vertex 400 12.8371 13.9199
      vertex 400 15.4963 16.5791
    endloop
  endfacet
  facet normal -2.22045e-16 0 1
    outer loop
      vertex 1.35005e-15 10.1974 13.9199
      vertex 400 12.8371 13.9199
      vertex 1.35005e-15 12.8371 13.9199
    endloop
  endfacet
  facet normal -2.22045e-16 0 1
    outer loop
      vertex 1.35005e-15 10.1974 13.9199
      vertex 400 10.1974 13.9199
      vertex 400 12.8371 13.9199
    endloop
  endfacet
  facet normal -1.56979e-16 -0.707107 0.707107
    outer loop
      vertex 1.3945e-15 9.99725 13.7197
      vertex 400 10.1974 13.9199
      vertex 1.35005e-15 10.1974 13.9199
    endloop
  endfacet
  facet normal -1.57009e-16 -0.707107 0.707107
    outer loop
      vertex 1.3945e-15 9.99725 13.7197
      vertex 400 9.99725 13.7197
      vertex 400 10.1974 13.9199
    endloop
  endfacet
  facet normal -1.56979e-16 0.707107 0.707107
    outer loop
      vertex 1.35005e-15 9.79706 13.9199
      vertex 400 9.99725 13.7197
      vertex 1.3945e-15 9.99725 13.7197
    endloop
  endfacet
  facet normal -1.57009e-16 0.707107 0.707107
    outer loop
      vertex 1.35005e-15 9.79706 13.9199
      vertex 400 9.79706 13.9199
      vertex 400 9.99725 13.7197
    endloop
  endfacet
  facet normal -2.22045e-16 0 1
    outer loop
      vertex 1.35005e-15 7.15741 13.9199
      vertex 400 9.79706 13.9199
      vertex 1.35005e-15 9.79706 13.9199
    endloop
  endfacet
  facet normal -2.22045e-16 0 1
    outer loop
      vertex 1.35005e-15 7.15741 13.9199
      vertex 400 7.15741 13.9199
      vertex 400 9.79706 13.9199
    endloop
  endfacet
  facet normal -1.57058e-16 0.707107 0.707107
    outer loop
      vertex 7.59592e-16 4.49823 16.5791
      vertex 400 7.15741 13.9199
      vertex 1.35005e-15 7.15741 13.9199
    endloop
  endfacet
  facet normal -1.57009e-16 0.707107 0.707107
    outer loop
      vertex 7.59592e-16 4.49823 16.5791
      vertex 400 4.49823 16.5791
      vertex 400 7.15741 13.9199
    endloop
  endfacet
  facet normal 0 1 0
    outer loop
      vertex 3.95517e-16 4.49823 18.2188
      vertex 400 4.49823 16.5791
      vertex 7.59592e-16 4.49823 16.5791
    endloop
  endfacet
  facet normal -0 1 0
    outer loop
      vertex 3.95517e-16 4.49823 18.2188
      vertex 400 4.49823 18.2188
      vertex 400 4.49823 16.5791
    endloop
  endfacet
  facet normal 2.22045e-16 0 -1
    outer loop
      vertex 3.95517e-16 7.15741 18.2188
      vertex 400 4.49823 18.2188
      vertex 3.95517e-16 4.49823 18.2188
    endloop
  endfacet
  facet normal 2.22045e-16 0 -1
    outer loop
      vertex 3.95517e-16 7.15741 18.2188
      vertex 400 7.15741 18.2188
      vertex 400 4.49823 18.2188
    endloop
  endfacet
  facet normal -1.56984e-16 0.707299 0.706915
    outer loop
      vertex -4.33681e-18 5.3576 20.0195
      vertex 400 7.15741 18.2188
      vertex 3.95517e-16 7.15741 18.2188
    endloop
  endfacet
  facet normal -1.56967e-16 0.707299 0.706915
    outer loop
      vertex -4.33681e-18 5.3576 20.0195
      vertex 400 5.3576 20.0195
      vertex 400 7.15741 18.2188
    endloop
  endfacet
  facet normal -2.22045e-16 0 1
    outer loop
      vertex -4.33681e-18 1.49725 20.0195
      vertex 400 5.3576 20.0195
      vertex -4.33681e-18 5.3576 20.0195
    endloop
  endfacet
  facet normal -2.22045e-16 0 1
    outer loop
      vertex -4.33681e-18 1.49725 20.0195
      vertex 400 1.49725 20.0195
      vertex 400 5.3576 20.0195
    endloop
  endfacet
  facet normal -2.05147e-16 -0.382803 0.92383
    outer loop
      vertex 9.32414e-17 0.436707 19.5801
      vertex 400 1.49725 20.0195
      vertex -4.33681e-18 1.49725 20.0195
    endloop
  endfacet
  facet normal -2.05132e-16 -0.382803 0.92383
    outer loop
      vertex 9.32414e-17 0.436707 19.5801
      vertex 400 0.436707 19.5801
      vertex 400 1.49725 20.0195
    endloop
  endfacet
  facet normal -8.50295e-17 -0.923835 0.382791
    outer loop
      vertex 3.27266e-16 0 18.5261
      vertex 400 0.436707 19.5801
      vertex 9.32414e-17 0.436707 19.5801
    endloop
  endfacet
  facet normal -8.49967e-17 -0.923835 0.382791
    outer loop
      vertex 3.27266e-16 0 18.5261
      vertex 400 0 18.5261
      vertex 400 0.436707 19.5801
    endloop
  endfacet
  facet normal 0 -1 0
    outer loop
      vertex 1.18651e-15 0 14.6564
      vertex 400 0 18.5261
      vertex 3.27266e-16 0 18.5261
    endloop
  endfacet
  facet normal 0 -1 0
    outer loop
      vertex 1.18651e-15 0 14.6564
      vertex 400 0 14.6564
      vertex 400 0 18.5261
    endloop
  endfacet
  facet normal 1.56829e-16 -0.70711 -0.707104
    outer loop
      vertex 1.58554e-15 1.79706 12.8594
      vertex 400 0 14.6564
      vertex 1.18651e-15 0 14.6564
    endloop
  endfacet
  facet normal 1.57009e-16 -0.70711 -0.707104
    outer loop
      vertex 1.58554e-15 1.79706 12.8594
      vertex 400 1.79706 12.8594
      vertex 400 0 14.6564
    endloop
  endfacet
  facet normal 0 1 0
    outer loop
      vertex 9.95081e-16 1.79706 15.5186
      vertex 400 1.79706 12.8594
      vertex 1.58554e-15 1.79706 12.8594
    endloop
  endfacet
  facet normal -0 1 0
    outer loop
      vertex 9.95081e-16 1.79706 15.5186
      vertex 400 1.79706 15.5186
      vertex 400 1.79706 12.8594
    endloop
  endfacet
  facet normal 2.22045e-16 0 -1
    outer loop
      vertex 9.95081e-16 3.43768 15.5186
      vertex 400 1.79706 15.5186
      vertex 9.95081e-16 1.79706 15.5186
    endloop
  endfacet
  facet normal 2.22045e-16 0 -1
    outer loop
      vertex 9.95081e-16 3.43768 15.5186
      vertex 400 3.43768 15.5186
      vertex 400 1.79706 15.5186
    endloop
  endfacet
  facet normal 1.57058e-16 -0.707107 -0.707107
    outer loop
      vertex 1.58554e-15 6.09686 12.8594
      vertex 400 3.43768 15.5186
      vertex 9.95081e-16 3.43768 15.5186
    endloop
  endfacet
  facet normal 1.57009e-16 -0.707107 -0.707107
    outer loop
      vertex 1.58554e-15 6.09686 12.8594
      vertex 400 6.09686 12.8594
      vertex 400 3.43768 15.5186
    endloop
  endfacet
  facet normal 0 -1 0
    outer loop
      vertex 2.17187e-15 6.09686 10.2188
      vertex 400 6.09686 12.8594
      vertex 1.58554e-15 6.09686 12.8594
    endloop
  endfacet
  facet normal 0 -1 0
    outer loop
      vertex 2.17187e-15 6.09686 10.2188
      vertex 400 6.09686 10.2188
      vertex 400 6.09686 12.8594
    endloop
  endfacet
  facet normal 1.57362e-16 -0.705376 -0.708834
    outer loop
      vertex 2.21611e-15 6.29706 10.0195
      vertex 400 6.09686 10.2188
      vertex 2.17187e-15 6.09686 10.2188
    endloop
  endfacet
  facet normal 1.57393e-16 -0.705376 -0.708834
    outer loop
      vertex 2.21611e-15 6.29706 10.0195
      vertex 400 6.29706 10.0195
      vertex 400 6.09686 10.2188
    endloop
  endfacet
  facet normal -1.56979e-16 -0.707107 0.707107
    outer loop
      vertex 2.26056e-15 6.09686 9.81934
      vertex 400 6.29706 10.0195
      vertex 2.21611e-15 6.29706 10.0195
    endloop
  endfacet
  facet normal -1.57009e-16 -0.707107 0.707107
    outer loop
      vertex 2.26056e-15 6.09686 9.81934
      vertex 400 6.09686 9.81934
      vertex 400 6.29706 10.0195
    endloop
  endfacet
  facet normal 0 -1 0
    outer loop
      vertex 2.8469e-15 6.09686 7.17871
      vertex 400 6.09686 9.81934
      vertex 2.26056e-15 6.09686 9.81934
    endloop
  endfacet
  facet normal 0 -1 0
    outer loop
      vertex 2.8469e-15 6.09686 7.17871
      vertex 400 6.09686 7.17871
      vertex 400 6.09686 9.81934
    endloop
  endfacet
  facet normal -1.57058e-16 -0.707107 0.707107
    outer loop
      vertex 3.43735e-15 3.43768 4.51953
      vertex 400 6.09686 7.17871
      vertex 2.8469e-15 6.09686 7.17871
    endloop
  endfacet
  facet normal -1.57009e-16 -0.707107 0.707107
    outer loop
      vertex 3.43735e-15 3.43768 4.51953
      vertex 400 3.43768 4.51953
      vertex 400 6.09686 7.17871
    endloop
  endfacet
  facet normal -2.22045e-16 0 1
    outer loop
      vertex 3.43735e-15 1.79706 4.51953
      vertex 400 3.43768 4.51953
      vertex 3.43735e-15 3.43768 4.51953
    endloop
  endfacet
  facet normal -2.22045e-16 0 1
    outer loop
      vertex 3.43735e-15 1.79706 4.51953
      vertex 400 1.79706 4.51953
      vertex 400 3.43768 4.51953
    endloop
  endfacet
  facet normal 0 1 0
    outer loop
      vertex 2.8469e-15 1.79706 7.17871
      vertex 400 1.79706 4.51953
      vertex 3.43735e-15 1.79706 4.51953
    endloop
  endfacet
  facet normal -0 1 0
    outer loop
      vertex 2.8469e-15 1.79706 7.17871
      vertex 400 1.79706 7.17871
      vertex 400 1.79706 4.51953
    endloop
  endfacet
  facet normal -1.56829e-16 -0.70711 0.707104
    outer loop
      vertex 3.24593e-15 0 5.38164
      vertex 400 1.79706 7.17871
      vertex 2.8469e-15 1.79706 7.17871
    endloop
  endfacet
  facet normal -1.57009e-16 -0.70711 0.707104
    outer loop
      vertex 3.24593e-15 0 5.38164
      vertex 400 0 5.38164
      vertex 400 1.79706 7.17871
    endloop
  endfacet
  facet normal 0 -1 0
    outer loop
      vertex 4.10495e-15 0 1.51294
      vertex 400 0 5.38164
      vertex 3.24593e-15 0 5.38164
    endloop
  endfacet
  facet normal 0 -1 0
    outer loop
      vertex 4.10495e-15 0 1.51294
      vertex 400 0 1.51294
      vertex 400 0 5.38164
    endloop
  endfacet
  facet normal 8.50295e-17 -0.923835 -0.382791
    outer loop
      vertex 4.33898e-15 0.436707 0.458984
      vertex 400 0 1.51294
      vertex 4.10495e-15 0 1.51294
    endloop
  endfacet
  facet normal 8.49967e-17 -0.923835 -0.382791
    outer loop
      vertex 4.33898e-15 0.436707 0.458984
      vertex 400 0.436707 0.458984
      vertex 400 0 1.51294
    endloop
  endfacet
  facet normal 2.22045e-16 0 -1
    outer loop
      vertex 3.95517e-16 18.1974 18.2188
      vertex 400 18.1974 18.2188
      vertex 3.95517e-16 16.5666 18.2188
    endloop
  endfacet
  facet normal 2.22045e-16 0 -1
    outer loop
      vertex 400 16.5666 18.2188
      vertex 3.95517e-16 16.5666 18.2188
      vertex 400 18.1974 18.2188
    endloop
  endfacet
  facet normal 0 -1 0
    outer loop
      vertex 7.57424e-16 18.1974 16.5889
      vertex 400 18.1974 16.5889
      vertex 3.95517e-16 18.1974 18.2188
    endloop
  endfacet
  facet normal 0 -1 -0
    outer loop
      vertex 400 18.1974 18.2188
      vertex 3.95517e-16 18.1974 18.2188
      vertex 400 18.1974 16.5889
    endloop
  endfacet
  facet normal -2.22045e-16 0 1
    outer loop
      vertex 7.57424e-16 17.6271 16.5889
      vertex 400 17.6271 16.5889
      vertex 7.57424e-16 18.1974 16.5889
    endloop
  endfacet
  facet normal -2.22045e-16 0 1
    outer loop
      vertex 400 18.1974 16.5889
      vertex 7.57424e-16 18.1974 16.5889
      vertex 400 17.6271 16.5889
    endloop
  endfacet
  facet normal -1.57009e-16 0.707107 0.707107
    outer loop
      vertex 5.21935e-16 16.5666 17.6494
      vertex 400 16.5666 17.6494
      vertex 7.57424e-16 17.6271 16.5889
    endloop
  endfacet
  facet normal -1.57009e-16 0.707107 0.707107
    outer loop
      vertex 400 17.6271 16.5889
      vertex 7.57424e-16 17.6271 16.5889
      vertex 400 16.5666 17.6494
    endloop
  endfacet
  facet normal -0 1 0
    outer loop
      vertex 3.95517e-16 16.5666 18.2188
      vertex 400 16.5666 18.2188
      vertex 5.21935e-16 16.5666 17.6494
    endloop
  endfacet
  facet normal 0 1 -0
    outer loop
      vertex 400 16.5666 17.6494
      vertex 5.21935e-16 16.5666 17.6494
      vertex 400 16.5666 18.2188
    endloop
  endfacet
  facet normal 1.57009e-16 0.707107 -0.707107
    outer loop
      vertex 3.67479e-15 17.6271 3.4502
      vertex 400 17.6271 3.4502
      vertex 3.91028e-15 16.5666 2.38965
    endloop
  endfacet
  facet normal 1.57009e-16 0.707107 -0.707107
    outer loop
      vertex 400 16.5666 2.38965
      vertex 3.91028e-15 16.5666 2.38965
      vertex 400 17.6271 3.4502
    endloop
  endfacet
  facet normal 2.22045e-16 0 -1
    outer loop
      vertex 3.67479e-15 18.1974 3.4502
      vertex 400 18.1974 3.4502
      vertex 3.67479e-15 17.6271 3.4502
    endloop
  endfacet
  facet normal 2.22045e-16 0 -1
    outer loop
      vertex 400 17.6271 3.4502
      vertex 3.67479e-15 17.6271 3.4502
      vertex 400 18.1974 3.4502
    endloop
  endfacet
  facet normal 0 -1 0
    outer loop
      vertex 4.03692e-15 18.1974 1.81934
      vertex 400 18.1974 1.81934
      vertex 3.67479e-15 18.1974 3.4502
    endloop
  endfacet
  facet normal 0 -1 -0
    outer loop
      vertex 400 18.1974 3.4502
      vertex 3.67479e-15 18.1974 3.4502
      vertex 400 18.1974 1.81934
    endloop
  endfacet
  facet normal -2.22045e-16 0 1
    outer loop
      vertex 4.03692e-15 16.5666 1.81934
      vertex 400 16.5666 1.81934
      vertex 4.03692e-15 18.1974 1.81934
    endloop
  endfacet
  facet normal -2.22045e-16 0 1
    outer loop
      vertex 400 18.1974 1.81934
      vertex 4.03692e-15 18.1974 1.81934
      vertex 400 16.5666 1.81934
    endloop
  endfacet
  facet normal -0 1 0
    outer loop
      vertex 3.91028e-15 16.5666 2.38965
      vertex 400 16.5666 2.38965
      vertex 4.03692e-15 16.5666 1.81934
    endloop
  endfacet
  facet normal 0 1 -0
    outer loop
      vertex 400 16.5666 1.81934
      vertex 4.03692e-15 16.5666 1.81934
      vertex 400 16.5666 2.38965
    endloop
  endfacet
  facet normal 2.22045e-16 0 -1
    outer loop
      vertex 1.79609e-15 10.9084 11.9111
      vertex 400 10.9084 11.9111
      vertex 1.79609e-15 9.08612 11.9111
    endloop
  endfacet
  facet normal 2.22045e-16 0 -1
    outer loop
      vertex 400 9.08612 11.9111
      vertex 1.79609e-15 9.08612 11.9111
      vertex 400 10.9084 11.9111
    endloop
  endfacet
  facet normal 1.38478e-16 -0.781704 -0.623649
    outer loop
      vertex 2.11246e-15 12.0451 10.4863
      vertex 400 12.0451 10.4863
      vertex 1.79609e-15 10.9084 11.9111
    endloop
  endfacet
  facet normal 1.38478e-16 -0.781704 -0.623649
    outer loop
      vertex 400 10.9084 11.9111
      vertex 1.79609e-15 10.9084 11.9111
      vertex 400 12.0451 10.4863
    endloop
  endfacet
  facet normal -4.95029e-17 -0.974832 0.222941
    outer loop
      vertex 2.50689e-15 11.6389 8.70996
      vertex 400 11.6389 8.70996
      vertex 2.11246e-15 12.0451 10.4863
    endloop
  endfacet
  facet normal -4.95029e-17 -0.974832 0.222941
    outer loop
      vertex 400 12.0451 10.4863
      vertex 2.11246e-15 12.0451 10.4863
      vertex 400 11.6389 8.70996
    endloop
  endfacet
  facet normal -2.00033e-16 -0.43409 0.90087
    outer loop
      vertex 2.68253e-15 9.99725 7.91895
      vertex 400 9.99725 7.91895
      vertex 2.50689e-15 11.6389 8.70996
    endloop
  endfacet
  facet normal -2.00033e-16 -0.43409 0.90087
    outer loop
      vertex 400 11.6389 8.70996
      vertex 2.50689e-15 11.6389 8.70996
      vertex 400 9.99725 7.91895
    endloop
  endfacet
  facet normal -2.00033e-16 0.43409 0.90087
    outer loop
      vertex 2.50689e-15 8.35565 8.70996
      vertex 400 8.35565 8.70996
      vertex 2.68253e-15 9.99725 7.91895
    endloop
  endfacet
  facet normal -2.00033e-16 0.43409 0.90087
    outer loop
      vertex 400 9.99725 7.91895
      vertex 2.68253e-15 9.99725 7.91895
      vertex 400 8.35565 8.70996
    endloop
  endfacet
  facet normal -4.93898e-17 0.974948 0.222432
    outer loop
      vertex 2.11246e-15 7.95038 10.4863
      vertex 400 7.95038 10.4863
      vertex 2.50689e-15 8.35565 8.70996
    endloop
  endfacet
  facet normal -4.93898e-17 0.974948 0.222432
    outer loop
      vertex 400 8.35565 8.70996
      vertex 2.50689e-15 8.35565 8.70996
      vertex 400 7.95038 10.4863
    endloop
  endfacet
  facet normal 1.38405e-16 0.781966 -0.623322
    outer loop
      vertex 1.79609e-15 9.08612 11.9111
      vertex 400 9.08612 11.9111
      vertex 2.11246e-15 7.95038 10.4863
    endloop
  endfacet
  facet normal 1.38405e-16 0.781966 -0.623322
    outer loop
      vertex 400 7.95038 10.4863
      vertex 2.11246e-15 7.95038 10.4863
      vertex 400 9.08612 11.9111
    endloop
  endfacet
  facet normal 2.22045e-16 0 -1
    outer loop
      vertex 3.95517e-16 3.42792 18.2188
      vertex 400 3.42792 18.2188
      vertex 3.95517e-16 1.79706 18.2188
    endloop
  endfacet
  facet normal 2.22045e-16 0 -1
    outer loop
      vertex 400 1.79706 18.2188
      vertex 3.95517e-16 1.79706 18.2188
      vertex 400 3.42792 18.2188
    endloop
  endfacet
  facet normal 0 -1 0
    outer loop
      vertex 5.21935e-16 3.42792 17.6494
      vertex 400 3.42792 17.6494
      vertex 3.95517e-16 3.42792 18.2188
    endloop
  endfacet
  facet normal 0 -1 -0
    outer loop
      vertex 400 3.42792 18.2188
      vertex 3.95517e-16 3.42792 18.2188
      vertex 400 3.42792 17.6494
    endloop
  endfacet
  facet normal -1.57009e-16 -0.707107 0.707107
    outer loop
      vertex 7.57424e-16 2.36737 16.5889
      vertex 400 2.36737 16.5889
      vertex 5.21935e-16 3.42792 17.6494
    endloop
  endfacet
  facet normal -1.57009e-16 -0.707107 0.707107
    outer loop
      vertex 400 3.42792 17.6494
      vertex 5.21935e-16 3.42792 17.6494
      vertex 400 2.36737 16.5889
    endloop
  endfacet
  facet normal -2.22045e-16 0 1
    outer loop
      vertex 7.57424e-16 1.79706 16.5889
      vertex 400 1.79706 16.5889
      vertex 7.57424e-16 2.36737 16.5889
    endloop
  endfacet
  facet normal -2.22045e-16 0 1
    outer loop
      vertex 400 2.36737 16.5889
      vertex 7.57424e-16 2.36737 16.5889
      vertex 400 1.79706 16.5889
    endloop
  endfacet
  facet normal -0 1 0
    outer loop
      vertex 3.95517e-16 1.79706 18.2188
      vertex 400 1.79706 18.2188
      vertex 7.57424e-16 1.79706 16.5889
    endloop
  endfacet
  facet normal 0 1 -0
    outer loop
      vertex 400 1.79706 16.5889
      vertex 7.57424e-16 1.79706 16.5889
      vertex 400 1.79706 18.2188
    endloop
  endfacet
  facet normal 2.22045e-16 0 -1
    outer loop
      vertex 3.67479e-15 2.36737 3.4502
      vertex 400 2.36737 3.4502
      vertex 3.67479e-15 1.79706 3.4502
    endloop
  endfacet
  facet normal 2.22045e-16 0 -1
    outer loop
      vertex 400 1.79706 3.4502
      vertex 3.67479e-15 1.79706 3.4502
      vertex 400 2.36737 3.4502
    endloop
  endfacet
  facet normal 1.57009e-16 -0.707107 -0.707107
    outer loop
      vertex 3.91028e-15 3.42792 2.38965
      vertex 400 3.42792 2.38965
      vertex 3.67479e-15 2.36737 3.4502
    endloop
  endfacet
  facet normal 1.57009e-16 -0.707107 -0.707107
    outer loop
      vertex 400 2.36737 3.4502
      vertex 3.67479e-15 2.36737 3.4502
      vertex 400 3.42792 2.38965
    endloop
  endfacet
  facet normal 0 -1 0
    outer loop
      vertex 4.03692e-15 3.42792 1.81934
      vertex 400 3.42792 1.81934
      vertex 3.91028e-15 3.42792 2.38965
    endloop
  endfacet
  facet normal 0 -1 -0
    outer loop
      vertex 400 3.42792 2.38965
      vertex 3.91028e-15 3.42792 2.38965
      vertex 400 3.42792 1.81934
    endloop
  endfacet
  facet normal -2.22045e-16 0 1
    outer loop
      vertex 4.03692e-15 1.79706 1.81934
      vertex 400 1.79706 1.81934
      vertex 4.03692e-15 3.42792 1.81934
    endloop
  endfacet
  facet normal -2.22045e-16 0 1
    outer loop
      vertex 400 3.42792 1.81934
      vertex 4.03692e-15 3.42792 1.81934
      vertex 400 1.79706 1.81934
    endloop
  endfacet
  facet normal -0 1 0
    outer loop
      vertex 3.67479e-15 1.79706 3.4502
      vertex 400 1.79706 3.4502
      vertex 4.03692e-15 1.79706 1.81934
    endloop
  endfacet
  facet normal 0 1 -0
    outer loop
      vertex 400 1.79706 1.81934
      vertex 4.03692e-15 1.79706 1.81934
      vertex 400 1.79706 3.4502
    endloop
  endfacet
endsolid OpenSCAD_Model
