solid OpenSCAD_Model
  facet normal -0 0 1
    outer loop
      vertex 0 44.5 800
      vertex 3 0 800
      vertex 3 44.5 800
    endloop
  endfacet
  facet normal 0 0 1
    outer loop
      vertex 3 0 800
      vertex 0 44.5 800
      vertex 0 0 800
    endloop
  endfacet
  facet normal 0 0 -1
    outer loop
      vertex 0 0 0
      vertex 3 44.5 0
      vertex 3 0 0
    endloop
  endfacet
  facet normal -0 0 -1
    outer loop
      vertex 3 44.5 0
      vertex 0 0 0
      vertex 0 44.5 0
    endloop
  endfacet
  facet normal 0 -1 0
    outer loop
      vertex 0 0 0
      vertex 3 0 800
      vertex 0 0 800
    endloop
  endfacet
  facet normal 0 -1 -0
    outer loop
      vertex 3 0 800
      vertex 0 0 0
      vertex 3 0 0
    endloop
  endfacet
  facet normal 1 -0 0
    outer loop
      vertex 3 0 800
      vertex 3 44.5 0
      vertex 3 44.5 800
    endloop
  endfacet
  facet normal 1 0 0
    outer loop
      vertex 3 44.5 0
      vertex 3 0 800
      vertex 3 0 0
    endloop
  endfacet
  facet normal 0 1 -0
    outer loop
      vertex 3 44.5 0
      vertex 0 44.5 800
      vertex 3 44.5 800
    endloop
  endfacet
  facet normal 0 1 0
    outer loop
      vertex 0 44.5 800
      vertex 3 44.5 0
      vertex 0 44.5 0
    endloop
  endfacet
  facet normal -1 0 0
    outer loop
      vertex 0 0 0
      vertex 0 44.5 800
      vertex 0 44.5 0
    endloop
  endfacet
  facet normal -1 -0 0
    outer loop
      vertex 0 44.5 800
      vertex 0 0 0
      vertex 0 0 800
    endloop
  endfacet
endsolid OpenSCAD_Model
