solid OpenSCAD_Model
  facet normal -0 0 1
    outer loop
      vertex 0 201.197 800
      vertex 4 -201.197 800
      vertex 4 201.197 800
    endloop
  endfacet
  facet normal 0 0 1
    outer loop
      vertex 4 -201.197 800
      vertex 0 201.197 800
      vertex 0 -201.197 800
    endloop
  endfacet
  facet normal 0 0 -1
    outer loop
      vertex 0 -201.197 0
      vertex 4 201.197 0
      vertex 4 -201.197 0
    endloop
  endfacet
  facet normal -0 0 -1
    outer loop
      vertex 4 201.197 0
      vertex 0 -201.197 0
      vertex 0 201.197 0
    endloop
  endfacet
  facet normal 0 -1 0
    outer loop
      vertex 0 -201.197 0
      vertex 4 -201.197 800
      vertex 0 -201.197 800
    endloop
  endfacet
  facet normal 0 -1 -0
    outer loop
      vertex 4 -201.197 800
      vertex 0 -201.197 0
      vertex 4 -201.197 0
    endloop
  endfacet
  facet normal 1 -0 0
    outer loop
      vertex 4 -201.197 800
      vertex 4 201.197 0
      vertex 4 201.197 800
    endloop
  endfacet
  facet normal 1 0 0
    outer loop
      vertex 4 201.197 0
      vertex 4 -201.197 800
      vertex 4 -201.197 0
    endloop
  endfacet
  facet normal 0 1 -0
    outer loop
      vertex 4 201.197 0
      vertex 0 201.197 800
      vertex 4 201.197 800
    endloop
  endfacet
  facet normal 0 1 0
    outer loop
      vertex 0 201.197 800
      vertex 4 201.197 0
      vertex 0 201.197 0
    endloop
  endfacet
  facet normal -1 0 0
    outer loop
      vertex 0 -201.197 0
      vertex 0 201.197 800
      vertex 0 201.197 0
    endloop
  endfacet
  facet normal -1 -0 0
    outer loop
      vertex 0 201.197 800
      vertex 0 -201.197 0
      vertex 0 -201.197 800
    endloop
  endfacet
endsolid OpenSCAD_Model
