solid OpenSCAD_Model
  facet normal -0 0 1
    outer loop
      vertex 0 29.5 700
      vertex 3 0 700
      vertex 3 29.5 700
    endloop
  endfacet
  facet normal 0 0 1
    outer loop
      vertex 3 0 700
      vertex 0 29.5 700
      vertex 0 0 700
    endloop
  endfacet
  facet normal 0 0 -1
    outer loop
      vertex 0 0 0
      vertex 3 29.5 0
      vertex 3 0 0
    endloop
  endfacet
  facet normal -0 0 -1
    outer loop
      vertex 3 29.5 0
      vertex 0 0 0
      vertex 0 29.5 0
    endloop
  endfacet
  facet normal 0 -1 0
    outer loop
      vertex 0 0 0
      vertex 3 0 700
      vertex 0 0 700
    endloop
  endfacet
  facet normal 0 -1 -0
    outer loop
      vertex 3 0 700
      vertex 0 0 0
      vertex 3 0 0
    endloop
  endfacet
  facet normal 1 -0 0
    outer loop
      vertex 3 0 700
      vertex 3 29.5 0
      vertex 3 29.5 700
    endloop
  endfacet
  facet normal 1 0 0
    outer loop
      vertex 3 29.5 0
      vertex 3 0 700
      vertex 3 0 0
    endloop
  endfacet
  facet normal 0 1 -0
    outer loop
      vertex 3 29.5 0
      vertex 0 29.5 700
      vertex 3 29.5 700
    endloop
  endfacet
  facet normal 0 1 0
    outer loop
      vertex 0 29.5 700
      vertex 3 29.5 0
      vertex 0 29.5 0
    endloop
  endfacet
  facet normal -1 0 0
    outer loop
      vertex 0 0 0
      vertex 0 29.5 700
      vertex 0 29.5 0
    endloop
  endfacet
  facet normal -1 -0 0
    outer loop
      vertex 0 29.5 700
      vertex 0 0 0
      vertex 0 0 700
    endloop
  endfacet
endsolid OpenSCAD_Model
