solid OpenSCAD_Model
  facet normal -0 0 1
    outer loop
      vertex 0 209.28 800
      vertex 4 -209.28 800
      vertex 4 209.28 800
    endloop
  endfacet
  facet normal 0 0 1
    outer loop
      vertex 4 -209.28 800
      vertex 0 209.28 800
      vertex 0 -209.28 800
    endloop
  endfacet
  facet normal 0 0 -1
    outer loop
      vertex 0 -209.28 0
      vertex 4 209.28 0
      vertex 4 -209.28 0
    endloop
  endfacet
  facet normal -0 0 -1
    outer loop
      vertex 4 209.28 0
      vertex 0 -209.28 0
      vertex 0 209.28 0
    endloop
  endfacet
  facet normal 0 -1 0
    outer loop
      vertex 0 -209.28 0
      vertex 4 -209.28 800
      vertex 0 -209.28 800
    endloop
  endfacet
  facet normal 0 -1 -0
    outer loop
      vertex 4 -209.28 800
      vertex 0 -209.28 0
      vertex 4 -209.28 0
    endloop
  endfacet
  facet normal 1 -0 0
    outer loop
      vertex 4 -209.28 800
      vertex 4 209.28 0
      vertex 4 209.28 800
    endloop
  endfacet
  facet normal 1 0 0
    outer loop
      vertex 4 209.28 0
      vertex 4 -209.28 800
      vertex 4 -209.28 0
    endloop
  endfacet
  facet normal 0 1 -0
    outer loop
      vertex 4 209.28 0
      vertex 0 209.28 800
      vertex 4 209.28 800
    endloop
  endfacet
  facet normal 0 1 0
    outer loop
      vertex 0 209.28 800
      vertex 4 209.28 0
      vertex 0 209.28 0
    endloop
  endfacet
  facet normal -1 0 0
    outer loop
      vertex 0 -209.28 0
      vertex 0 209.28 800
      vertex 0 209.28 0
    endloop
  endfacet
  facet normal -1 -0 0
    outer loop
      vertex 0 209.28 800
      vertex 0 -209.28 0
      vertex 0 -209.28 800
    endloop
  endfacet
endsolid OpenSCAD_Model
