solid OpenSCAD_Model
  facet normal -1 0 0
    outer loop
      vertex 0 3.97118 15.2074
      vertex 0 5 18
      vertex 0 5 0
    endloop
  endfacet
  facet normal -1 0 0
    outer loop
      vertex 0 5 18
      vertex 0 3.97118 15.2074
      vertex 0 4 15.5
    endloop
  endfacet
  facet normal -1 0 0
    outer loop
      vertex 0 5 0
      vertex 0 3.88582 14.926
      vertex 0 3.97118 15.2074
    endloop
  endfacet
  facet normal -1 0 0
    outer loop
      vertex 0 5 0
      vertex 0 3.7472 14.6666
      vertex 0 3.88582 14.926
    endloop
  endfacet
  facet normal -1 0 0
    outer loop
      vertex 0 5 0
      vertex 0 3.56066 14.4393
      vertex 0 3.7472 14.6666
    endloop
  endfacet
  facet normal -1 0 0
    outer loop
      vertex 0 5 0
      vertex 0 3.33335 14.2528
      vertex 0 3.56066 14.4393
    endloop
  endfacet
  facet normal -1 0 0
    outer loop
      vertex 0 5 0
      vertex 0 3.07402 14.1142
      vertex 0 3.33335 14.2528
    endloop
  endfacet
  facet normal -1 0 0
    outer loop
      vertex 0 5 0
      vertex 0 2.79263 14.0288
      vertex 0 3.07402 14.1142
    endloop
  endfacet
  facet normal -1 0 0
    outer loop
      vertex 0 5 0
      vertex 0 2.5 14
      vertex 0 2.79263 14.0288
    endloop
  endfacet
  facet normal -1 0 0
    outer loop
      vertex 0 0 0
      vertex 0 2.5 14
      vertex 0 5 0
    endloop
  endfacet
  facet normal -1 -0 0
    outer loop
      vertex 0 2.5 14
      vertex 0 0 0
      vertex 0 2.20736 14.0288
    endloop
  endfacet
  facet normal -1 -0 0
    outer loop
      vertex 0 2.20736 14.0288
      vertex 0 0 0
      vertex 0 1.92597 14.1142
    endloop
  endfacet
  facet normal -1 -0 0
    outer loop
      vertex 0 1.92597 14.1142
      vertex 0 0 0
      vertex 0 1.66664 14.2528
    endloop
  endfacet
  facet normal -1 -0 0
    outer loop
      vertex 0 1.66664 14.2528
      vertex 0 0 0
      vertex 0 1.43934 14.4393
    endloop
  endfacet
  facet normal -1 -0 0
    outer loop
      vertex 0 1.43934 14.4393
      vertex 0 0 0
      vertex 0 1.2528 14.6666
    endloop
  endfacet
  facet normal -1 -0 0
    outer loop
      vertex 0 1.2528 14.6666
      vertex 0 0 0
      vertex 0 1.11418 14.926
    endloop
  endfacet
  facet normal -1 0 0
    outer loop
      vertex 0 0 18
      vertex 0 1.02882 15.2074
      vertex 0 0 0
    endloop
  endfacet
  facet normal -1 -0 0
    outer loop
      vertex 0 1.11418 14.926
      vertex 0 0 0
      vertex 0 1.02882 15.2074
    endloop
  endfacet
  facet normal -1 0 0
    outer loop
      vertex 0 3.97118 15.7926
      vertex 0 5 18
      vertex 0 4 15.5
    endloop
  endfacet
  facet normal -1 0 0
    outer loop
      vertex 0 3.88582 16.074
      vertex 0 5 18
      vertex 0 3.97118 15.7926
    endloop
  endfacet
  facet normal -1 0 0
    outer loop
      vertex 0 3.7472 16.3334
      vertex 0 5 18
      vertex 0 3.88582 16.074
    endloop
  endfacet
  facet normal -1 0 0
    outer loop
      vertex 0 3.56066 16.5607
      vertex 0 5 18
      vertex 0 3.7472 16.3334
    endloop
  endfacet
  facet normal -1 0 0
    outer loop
      vertex 0 3.33335 16.7472
      vertex 0 5 18
      vertex 0 3.56066 16.5607
    endloop
  endfacet
  facet normal -1 0 0
    outer loop
      vertex 0 3.07402 16.8858
      vertex 0 5 18
      vertex 0 3.33335 16.7472
    endloop
  endfacet
  facet normal -1 0 0
    outer loop
      vertex 0 2.79263 16.9712
      vertex 0 5 18
      vertex 0 3.07402 16.8858
    endloop
  endfacet
  facet normal -1 0 0
    outer loop
      vertex 0 2.5 17
      vertex 0 5 18
      vertex 0 2.79263 16.9712
    endloop
  endfacet
  facet normal -1 0 0
    outer loop
      vertex 0 0 18
      vertex 0 2.5 17
      vertex 0 2.20736 16.9712
    endloop
  endfacet
  facet normal -1 0 0
    outer loop
      vertex 0 0 18
      vertex 0 2.20736 16.9712
      vertex 0 1.92597 16.8858
    endloop
  endfacet
  facet normal -1 0 0
    outer loop
      vertex 0 2.5 17
      vertex 0 0 18
      vertex 0 5 18
    endloop
  endfacet
  facet normal -1 0 0
    outer loop
      vertex 0 1.66664 16.7472
      vertex 0 0 18
      vertex 0 1.92597 16.8858
    endloop
  endfacet
  facet normal -1 0 0
    outer loop
      vertex 0 1.43934 16.5607
      vertex 0 0 18
      vertex 0 1.66664 16.7472
    endloop
  endfacet
  facet normal -1 0 0
    outer loop
      vertex 0 1.2528 16.3334
      vertex 0 0 18
      vertex 0 1.43934 16.5607
    endloop
  endfacet
  facet normal -1 0 0
    outer loop
      vertex 0 1.11418 16.074
      vertex 0 0 18
      vertex 0 1.2528 16.3334
    endloop
  endfacet
  facet normal -1 0 0
    outer loop
      vertex 0 1.02882 15.7926
      vertex 0 0 18
      vertex 0 1.11418 16.074
    endloop
  endfacet
  facet normal -1 0 0
    outer loop
      vertex 0 1 15.5
      vertex 0 0 18
      vertex 0 1.02882 15.7926
    endloop
  endfacet
  facet normal -1 0 0
    outer loop
      vertex 0 1.02882 15.2074
      vertex 0 0 18
      vertex 0 1 15.5
    endloop
  endfacet
  facet normal -1 0 0
    outer loop
      vertex 0 22.9712 15.2074
      vertex 0 24 18
      vertex 0 24 0
    endloop
  endfacet
  facet normal -1 0 0
    outer loop
      vertex 0 24 18
      vertex 0 22.9712 15.2074
      vertex 0 23 15.5
    endloop
  endfacet
  facet normal -1 0 0
    outer loop
      vertex 0 24 0
      vertex 0 22.8858 14.926
      vertex 0 22.9712 15.2074
    endloop
  endfacet
  facet normal -1 0 0
    outer loop
      vertex 0 24 0
      vertex 0 22.7472 14.6666
      vertex 0 22.8858 14.926
    endloop
  endfacet
  facet normal -1 0 0
    outer loop
      vertex 0 24 0
      vertex 0 22.5607 14.4393
      vertex 0 22.7472 14.6666
    endloop
  endfacet
  facet normal -1 0 0
    outer loop
      vertex 0 24 0
      vertex 0 22.3334 14.2528
      vertex 0 22.5607 14.4393
    endloop
  endfacet
  facet normal -1 0 0
    outer loop
      vertex 0 24 0
      vertex 0 22.074 14.1142
      vertex 0 22.3334 14.2528
    endloop
  endfacet
  facet normal -1 0 0
    outer loop
      vertex 0 24 0
      vertex 0 21.7926 14.0288
      vertex 0 22.074 14.1142
    endloop
  endfacet
  facet normal -1 0 0
    outer loop
      vertex 0 24 0
      vertex 0 21.5 14
      vertex 0 21.7926 14.0288
    endloop
  endfacet
  facet normal -1 0 0
    outer loop
      vertex 0 19 0
      vertex 0 21.5 14
      vertex 0 24 0
    endloop
  endfacet
  facet normal -1 -0 0
    outer loop
      vertex 0 21.5 14
      vertex 0 19 0
      vertex 0 21.2074 14.0288
    endloop
  endfacet
  facet normal -1 -0 0
    outer loop
      vertex 0 21.2074 14.0288
      vertex 0 19 0
      vertex 0 20.926 14.1142
    endloop
  endfacet
  facet normal -1 -0 0
    outer loop
      vertex 0 20.926 14.1142
      vertex 0 19 0
      vertex 0 20.6666 14.2528
    endloop
  endfacet
  facet normal -1 -0 0
    outer loop
      vertex 0 20.6666 14.2528
      vertex 0 19 0
      vertex 0 20.4393 14.4393
    endloop
  endfacet
  facet normal -1 -0 0
    outer loop
      vertex 0 20.4393 14.4393
      vertex 0 19 0
      vertex 0 20.2528 14.6666
    endloop
  endfacet
  facet normal -1 -0 0
    outer loop
      vertex 0 20.2528 14.6666
      vertex 0 19 0
      vertex 0 20.1142 14.926
    endloop
  endfacet
  facet normal -1 0 0
    outer loop
      vertex 0 19 18
      vertex 0 20.0288 15.2074
      vertex 0 19 0
    endloop
  endfacet
  facet normal -1 -0 0
    outer loop
      vertex 0 20.1142 14.926
      vertex 0 19 0
      vertex 0 20.0288 15.2074
    endloop
  endfacet
  facet normal -1 0 0
    outer loop
      vertex 0 22.9712 15.7926
      vertex 0 24 18
      vertex 0 23 15.5
    endloop
  endfacet
  facet normal -1 0 0
    outer loop
      vertex 0 22.8858 16.074
      vertex 0 24 18
      vertex 0 22.9712 15.7926
    endloop
  endfacet
  facet normal -1 0 0
    outer loop
      vertex 0 22.7472 16.3334
      vertex 0 24 18
      vertex 0 22.8858 16.074
    endloop
  endfacet
  facet normal -1 0 0
    outer loop
      vertex 0 22.5607 16.5607
      vertex 0 24 18
      vertex 0 22.7472 16.3334
    endloop
  endfacet
  facet normal -1 0 0
    outer loop
      vertex 0 22.3334 16.7472
      vertex 0 24 18
      vertex 0 22.5607 16.5607
    endloop
  endfacet
  facet normal -1 0 0
    outer loop
      vertex 0 22.074 16.8858
      vertex 0 24 18
      vertex 0 22.3334 16.7472
    endloop
  endfacet
  facet normal -1 0 0
    outer loop
      vertex 0 21.7926 16.9712
      vertex 0 24 18
      vertex 0 22.074 16.8858
    endloop
  endfacet
  facet normal -1 0 0
    outer loop
      vertex 0 21.5 17
      vertex 0 24 18
      vertex 0 21.7926 16.9712
    endloop
  endfacet
  facet normal -1 0 0
    outer loop
      vertex 0 19 18
      vertex 0 21.5 17
      vertex 0 21.2074 16.9712
    endloop
  endfacet
  facet normal -1 0 0
    outer loop
      vertex 0 19 18
      vertex 0 21.2074 16.9712
      vertex 0 20.926 16.8858
    endloop
  endfacet
  facet normal -1 0 0
    outer loop
      vertex 0 21.5 17
      vertex 0 19 18
      vertex 0 24 18
    endloop
  endfacet
  facet normal -1 0 0
    outer loop
      vertex 0 20.6666 16.7472
      vertex 0 19 18
      vertex 0 20.926 16.8858
    endloop
  endfacet
  facet normal -1 0 0
    outer loop
      vertex 0 20.4393 16.5607
      vertex 0 19 18
      vertex 0 20.6666 16.7472
    endloop
  endfacet
  facet normal -1 0 0
    outer loop
      vertex 0 20.2528 16.3334
      vertex 0 19 18
      vertex 0 20.4393 16.5607
    endloop
  endfacet
  facet normal -1 0 0
    outer loop
      vertex 0 20.1142 16.074
      vertex 0 19 18
      vertex 0 20.2528 16.3334
    endloop
  endfacet
  facet normal -1 0 0
    outer loop
      vertex 0 20.0288 15.7926
      vertex 0 19 18
      vertex 0 20.1142 16.074
    endloop
  endfacet
  facet normal -1 0 0
    outer loop
      vertex 0 20 15.5
      vertex 0 19 18
      vertex 0 20.0288 15.7926
    endloop
  endfacet
  facet normal -1 0 0
    outer loop
      vertex 0 20.0288 15.2074
      vertex 0 19 18
      vertex 0 20 15.5
    endloop
  endfacet
  facet normal -0 0 1
    outer loop
      vertex -2.25 19 18
      vertex 0 5 18
      vertex 0 19 18
    endloop
  endfacet
  facet normal 0 0 1
    outer loop
      vertex 0 5 18
      vertex -2.25 19 18
      vertex -2.25 5 18
    endloop
  endfacet
  facet normal 0 0 1
    outer loop
      vertex 0 19 18
      vertex 1 19.01 18
      vertex 1 24 18
    endloop
  endfacet
  facet normal 0 0 1
    outer loop
      vertex 1 19.01 18
      vertex 0 19 18
      vertex 1 4.99 18
    endloop
  endfacet
  facet normal 0 0 1
    outer loop
      vertex 0 19 18
      vertex 1 24 18
      vertex 0 24 18
    endloop
  endfacet
  facet normal -0 0 1
    outer loop
      vertex 0 5 18
      vertex 1 4.99 18
      vertex 0 19 18
    endloop
  endfacet
  facet normal 0 0 1
    outer loop
      vertex 0 0 18
      vertex 1 4.99 18
      vertex 0 5 18
    endloop
  endfacet
  facet normal 0 0 1
    outer loop
      vertex 1 4.99 18
      vertex 0 0 18
      vertex 1 0 18
    endloop
  endfacet
  facet normal -0 0 1
    outer loop
      vertex 1 19.01 18
      vertex 6.5 4.99 18
      vertex 6.5 19.01 18
    endloop
  endfacet
  facet normal 0 0 1
    outer loop
      vertex 6.5 4.99 18
      vertex 1 19.01 18
      vertex 1 4.99 18
    endloop
  endfacet
  facet normal 1 0 0
    outer loop
      vertex 1 4.99 18
      vertex 1 4 15.5
      vertex 1 4.99 13.01
    endloop
  endfacet
  facet normal 1 0 0
    outer loop
      vertex 1 4.99 18
      vertex 1 3.97118 15.7926
      vertex 1 4 15.5
    endloop
  endfacet
  facet normal 1 0 0
    outer loop
      vertex 1 4.99 18
      vertex 1 3.88582 16.074
      vertex 1 3.97118 15.7926
    endloop
  endfacet
  facet normal 1 0 0
    outer loop
      vertex 1 4.99 18
      vertex 1 3.7472 16.3334
      vertex 1 3.88582 16.074
    endloop
  endfacet
  facet normal 1 0 0
    outer loop
      vertex 1 4.99 18
      vertex 1 3.56066 16.5607
      vertex 1 3.7472 16.3334
    endloop
  endfacet
  facet normal 1 0 0
    outer loop
      vertex 1 4.99 18
      vertex 1 3.33335 16.7472
      vertex 1 3.56066 16.5607
    endloop
  endfacet
  facet normal 1 0 0
    outer loop
      vertex 1 4.99 18
      vertex 1 3.07402 16.8858
      vertex 1 3.33335 16.7472
    endloop
  endfacet
  facet normal 1 0 0
    outer loop
      vertex 1 4.99 18
      vertex 1 2.79263 16.9712
      vertex 1 3.07402 16.8858
    endloop
  endfacet
  facet normal 1 0 0
    outer loop
      vertex 1 4.99 18
      vertex 1 2.5 17
      vertex 1 2.79263 16.9712
    endloop
  endfacet
  facet normal 1 -0 0
    outer loop
      vertex 1 0 18
      vertex 1 2.5 17
      vertex 1 4.99 18
    endloop
  endfacet
  facet normal 1 0 0
    outer loop
      vertex 1 2.5 17
      vertex 1 0 18
      vertex 1 2.20736 16.9712
    endloop
  endfacet
  facet normal 1 0 0
    outer loop
      vertex 1 1.02882 15.7926
      vertex 1 0 18
      vertex 1 1 15.5
    endloop
  endfacet
  facet normal 1 0 0
    outer loop
      vertex 1 1.11418 16.074
      vertex 1 0 18
      vertex 1 1.02882 15.7926
    endloop
  endfacet
  facet normal 1 0 0
    outer loop
      vertex 1 1.2528 16.3334
      vertex 1 0 18
      vertex 1 1.11418 16.074
    endloop
  endfacet
  facet normal 1 0 0
    outer loop
      vertex 1 1.43934 16.5607
      vertex 1 0 18
      vertex 1 1.2528 16.3334
    endloop
  endfacet
  facet normal 1 0 0
    outer loop
      vertex 1 1.66664 16.7472
      vertex 1 0 18
      vertex 1 1.43934 16.5607
    endloop
  endfacet
  facet normal 1 0 0
    outer loop
      vertex 1 1.92597 16.8858
      vertex 1 0 18
      vertex 1 1.66664 16.7472
    endloop
  endfacet
  facet normal 1 0 0
    outer loop
      vertex 1 2.20736 16.9712
      vertex 1 0 18
      vertex 1 1.92597 16.8858
    endloop
  endfacet
  facet normal 1 -0 0
    outer loop
      vertex 1 3.97118 15.2074
      vertex 1 4.99 13.01
      vertex 1 4 15.5
    endloop
  endfacet
  facet normal 1 -0 0
    outer loop
      vertex 1 3.88582 14.926
      vertex 1 4.99 13.01
      vertex 1 3.97118 15.2074
    endloop
  endfacet
  facet normal 1 -0 0
    outer loop
      vertex 1 3.7472 14.6666
      vertex 1 4.99 13.01
      vertex 1 3.88582 14.926
    endloop
  endfacet
  facet normal 1 -0 0
    outer loop
      vertex 1 3.56066 14.4393
      vertex 1 4.99 13.01
      vertex 1 3.7472 14.6666
    endloop
  endfacet
  facet normal 1 -0 0
    outer loop
      vertex 1 3.33335 14.2528
      vertex 1 4.99 13.01
      vertex 1 3.56066 14.4393
    endloop
  endfacet
  facet normal 1 -0 0
    outer loop
      vertex 1 3.07402 14.1142
      vertex 1 4.99 13.01
      vertex 1 3.33335 14.2528
    endloop
  endfacet
  facet normal 1 -0 0
    outer loop
      vertex 1 2.79263 14.0288
      vertex 1 4.99 13.01
      vertex 1 3.07402 14.1142
    endloop
  endfacet
  facet normal 1 -0 0
    outer loop
      vertex 1 2.5 14
      vertex 1 4.99 13.01
      vertex 1 2.79263 14.0288
    endloop
  endfacet
  facet normal 1 0 0
    outer loop
      vertex 1 0 13.01
      vertex 1 2.5 14
      vertex 1 2.20736 14.0288
    endloop
  endfacet
  facet normal 1 0 0
    outer loop
      vertex 1 0 13.01
      vertex 1 2.20736 14.0288
      vertex 1 1.92597 14.1142
    endloop
  endfacet
  facet normal 1 0 0
    outer loop
      vertex 1 0 13.01
      vertex 1 1 15.5
      vertex 1 0 18
    endloop
  endfacet
  facet normal 1 0 0
    outer loop
      vertex 1 1 15.5
      vertex 1 0 13.01
      vertex 1 1.02882 15.2074
    endloop
  endfacet
  facet normal 1 0 0
    outer loop
      vertex 1 2.5 14
      vertex 1 0 13.01
      vertex 1 4.99 13.01
    endloop
  endfacet
  facet normal 1 0 0
    outer loop
      vertex 1 1.66664 14.2528
      vertex 1 0 13.01
      vertex 1 1.92597 14.1142
    endloop
  endfacet
  facet normal 1 0 0
    outer loop
      vertex 1 1.43934 14.4393
      vertex 1 0 13.01
      vertex 1 1.66664 14.2528
    endloop
  endfacet
  facet normal 1 0 0
    outer loop
      vertex 1 1.2528 14.6666
      vertex 1 0 13.01
      vertex 1 1.43934 14.4393
    endloop
  endfacet
  facet normal 1 0 0
    outer loop
      vertex 1 1.11418 14.926
      vertex 1 0 13.01
      vertex 1 1.2528 14.6666
    endloop
  endfacet
  facet normal 1 0 0
    outer loop
      vertex 1 1.02882 15.2074
      vertex 1 0 13.01
      vertex 1 1.11418 14.926
    endloop
  endfacet
  facet normal 1 0 0
    outer loop
      vertex 1 24 18
      vertex 1 23 15.5
      vertex 1 24 13.01
    endloop
  endfacet
  facet normal 1 0 0
    outer loop
      vertex 1 24 18
      vertex 1 22.9712 15.7926
      vertex 1 23 15.5
    endloop
  endfacet
  facet normal 1 0 0
    outer loop
      vertex 1 24 18
      vertex 1 22.8858 16.074
      vertex 1 22.9712 15.7926
    endloop
  endfacet
  facet normal 1 0 0
    outer loop
      vertex 1 24 18
      vertex 1 22.7472 16.3334
      vertex 1 22.8858 16.074
    endloop
  endfacet
  facet normal 1 0 0
    outer loop
      vertex 1 24 18
      vertex 1 22.5607 16.5607
      vertex 1 22.7472 16.3334
    endloop
  endfacet
  facet normal 1 0 0
    outer loop
      vertex 1 24 18
      vertex 1 22.3334 16.7472
      vertex 1 22.5607 16.5607
    endloop
  endfacet
  facet normal 1 0 0
    outer loop
      vertex 1 24 18
      vertex 1 22.074 16.8858
      vertex 1 22.3334 16.7472
    endloop
  endfacet
  facet normal 1 0 0
    outer loop
      vertex 1 24 18
      vertex 1 21.7926 16.9712
      vertex 1 22.074 16.8858
    endloop
  endfacet
  facet normal 1 0 0
    outer loop
      vertex 1 24 18
      vertex 1 21.5 17
      vertex 1 21.7926 16.9712
    endloop
  endfacet
  facet normal 1 -0 0
    outer loop
      vertex 1 19.01 18
      vertex 1 21.5 17
      vertex 1 24 18
    endloop
  endfacet
  facet normal 1 0 0
    outer loop
      vertex 1 21.5 17
      vertex 1 19.01 18
      vertex 1 21.2074 16.9712
    endloop
  endfacet
  facet normal 1 0 0
    outer loop
      vertex 1 20.0288 15.7926
      vertex 1 19.01 18
      vertex 1 20 15.5
    endloop
  endfacet
  facet normal 1 0 0
    outer loop
      vertex 1 20.1142 16.074
      vertex 1 19.01 18
      vertex 1 20.0288 15.7926
    endloop
  endfacet
  facet normal 1 0 0
    outer loop
      vertex 1 20.2528 16.3334
      vertex 1 19.01 18
      vertex 1 20.1142 16.074
    endloop
  endfacet
  facet normal 1 0 0
    outer loop
      vertex 1 20.4393 16.5607
      vertex 1 19.01 18
      vertex 1 20.2528 16.3334
    endloop
  endfacet
  facet normal 1 0 0
    outer loop
      vertex 1 20.6666 16.7472
      vertex 1 19.01 18
      vertex 1 20.4393 16.5607
    endloop
  endfacet
  facet normal 1 0 0
    outer loop
      vertex 1 20.926 16.8858
      vertex 1 19.01 18
      vertex 1 20.6666 16.7472
    endloop
  endfacet
  facet normal 1 0 0
    outer loop
      vertex 1 21.2074 16.9712
      vertex 1 19.01 18
      vertex 1 20.926 16.8858
    endloop
  endfacet
  facet normal 1 -0 0
    outer loop
      vertex 1 22.9712 15.2074
      vertex 1 24 13.01
      vertex 1 23 15.5
    endloop
  endfacet
  facet normal 1 -0 0
    outer loop
      vertex 1 22.8858 14.926
      vertex 1 24 13.01
      vertex 1 22.9712 15.2074
    endloop
  endfacet
  facet normal 1 -0 0
    outer loop
      vertex 1 22.7472 14.6666
      vertex 1 24 13.01
      vertex 1 22.8858 14.926
    endloop
  endfacet
  facet normal 1 -0 0
    outer loop
      vertex 1 22.5607 14.4393
      vertex 1 24 13.01
      vertex 1 22.7472 14.6666
    endloop
  endfacet
  facet normal 1 -0 0
    outer loop
      vertex 1 22.3334 14.2528
      vertex 1 24 13.01
      vertex 1 22.5607 14.4393
    endloop
  endfacet
  facet normal 1 -0 0
    outer loop
      vertex 1 22.074 14.1142
      vertex 1 24 13.01
      vertex 1 22.3334 14.2528
    endloop
  endfacet
  facet normal 1 -0 0
    outer loop
      vertex 1 21.7926 14.0288
      vertex 1 24 13.01
      vertex 1 22.074 14.1142
    endloop
  endfacet
  facet normal 1 -0 0
    outer loop
      vertex 1 21.5 14
      vertex 1 24 13.01
      vertex 1 21.7926 14.0288
    endloop
  endfacet
  facet normal 1 0 0
    outer loop
      vertex 1 19.01 13.01
      vertex 1 21.5 14
      vertex 1 21.2074 14.0288
    endloop
  endfacet
  facet normal 1 0 0
    outer loop
      vertex 1 19.01 13.01
      vertex 1 21.2074 14.0288
      vertex 1 20.926 14.1142
    endloop
  endfacet
  facet normal 1 0 0
    outer loop
      vertex 1 19.01 13.01
      vertex 1 20 15.5
      vertex 1 19.01 18
    endloop
  endfacet
  facet normal 1 0 0
    outer loop
      vertex 1 20 15.5
      vertex 1 19.01 13.01
      vertex 1 20.0288 15.2074
    endloop
  endfacet
  facet normal 1 0 0
    outer loop
      vertex 1 21.5 14
      vertex 1 19.01 13.01
      vertex 1 24 13.01
    endloop
  endfacet
  facet normal 1 0 0
    outer loop
      vertex 1 20.6666 14.2528
      vertex 1 19.01 13.01
      vertex 1 20.926 14.1142
    endloop
  endfacet
  facet normal 1 0 0
    outer loop
      vertex 1 20.4393 14.4393
      vertex 1 19.01 13.01
      vertex 1 20.6666 14.2528
    endloop
  endfacet
  facet normal 1 0 0
    outer loop
      vertex 1 20.2528 14.6666
      vertex 1 19.01 13.01
      vertex 1 20.4393 14.4393
    endloop
  endfacet
  facet normal 1 0 0
    outer loop
      vertex 1 20.1142 14.926
      vertex 1 19.01 13.01
      vertex 1 20.2528 14.6666
    endloop
  endfacet
  facet normal 1 0 0
    outer loop
      vertex 1 20.0288 15.2074
      vertex 1 19.01 13.01
      vertex 1 20.1142 14.926
    endloop
  endfacet
  facet normal 0 1 0
    outer loop
      vertex 6.5 24 13.01
      vertex 6.5 24 0
      vertex 1 24 13.01
    endloop
  endfacet
  facet normal 0 1 -0
    outer loop
      vertex 1 24 13.01
      vertex 0 24 18
      vertex 1 24 18
    endloop
  endfacet
  facet normal 0 1 0
    outer loop
      vertex 1 24 13.01
      vertex 0 24 0
      vertex 0 24 18
    endloop
  endfacet
  facet normal 0 1 0
    outer loop
      vertex 0 24 0
      vertex 1 24 13.01
      vertex 6.5 24 0
    endloop
  endfacet
  facet normal 0 0 -1
    outer loop
      vertex -2.25 5 0
      vertex 0 19 0
      vertex 0 5 0
    endloop
  endfacet
  facet normal -0 0 -1
    outer loop
      vertex 0 19 0
      vertex -2.25 5 0
      vertex -2.25 19 0
    endloop
  endfacet
  facet normal 0 0 -1
    outer loop
      vertex 0 5 0
      vertex 6.5 0 0
      vertex 0 0 0
    endloop
  endfacet
  facet normal 0 0 -1
    outer loop
      vertex 6.5 0 0
      vertex 0 5 0
      vertex 6.5 24 0
    endloop
  endfacet
  facet normal 0 0 -1
    outer loop
      vertex 0 19 0
      vertex 6.5 24 0
      vertex 0 5 0
    endloop
  endfacet
  facet normal -0 0 -1
    outer loop
      vertex 6.5 24 0
      vertex 0 19 0
      vertex 0 24 0
    endloop
  endfacet
  facet normal 0 -1 0
    outer loop
      vertex 0 0 18
      vertex 1 0 13.01
      vertex 1 0 18
    endloop
  endfacet
  facet normal 0 -1 0
    outer loop
      vertex 0 0 0
      vertex 1 0 13.01
      vertex 0 0 18
    endloop
  endfacet
  facet normal 0 -1 0
    outer loop
      vertex 6.5 0 0
      vertex 1 0 13.01
      vertex 0 0 0
    endloop
  endfacet
  facet normal 0 -1 0
    outer loop
      vertex 1 0 13.01
      vertex 6.5 0 0
      vertex 6.5 0 13.01
    endloop
  endfacet
  facet normal 0 -0.0980169 0.995185
    outer loop
      vertex 0 2.79263 14.0288
      vertex 1 2.5 14
      vertex 1 2.79263 14.0288
    endloop
  endfacet
  facet normal 0 -0.0980169 0.995185
    outer loop
      vertex 1 2.5 14
      vertex 0 2.79263 14.0288
      vertex 0 2.5 14
    endloop
  endfacet
  facet normal 0 -0.0980233 -0.995184
    outer loop
      vertex 0 2.5 17
      vertex 1 2.79263 16.9712
      vertex 1 2.5 17
    endloop
  endfacet
  facet normal -0 -0.0980233 -0.995184
    outer loop
      vertex 1 2.79263 16.9712
      vertex 0 2.5 17
      vertex 0 2.79263 16.9712
    endloop
  endfacet
  facet normal 0 0.995185 0.0980165
    outer loop
      vertex 1 1.02882 15.2074
      vertex 0 1 15.5
      vertex 1 1 15.5
    endloop
  endfacet
  facet normal 0 0.995185 0.0980165
    outer loop
      vertex 0 1 15.5
      vertex 1 1.02882 15.2074
      vertex 0 1.02882 15.2074
    endloop
  endfacet
  facet normal 0 -0.77301 0.634394
    outer loop
      vertex 0 3.56066 14.4393
      vertex 1 3.7472 14.6666
      vertex 0 3.7472 14.6666
    endloop
  endfacet
  facet normal 0 -0.77301 0.634394
    outer loop
      vertex 1 3.7472 14.6666
      vertex 0 3.56066 14.4393
      vertex 1 3.56066 14.4393
    endloop
  endfacet
  facet normal 0 -0.881922 0.471395
    outer loop
      vertex 0 3.7472 14.6666
      vertex 1 3.88582 14.926
      vertex 0 3.88582 14.926
    endloop
  endfacet
  facet normal 0 -0.881922 0.471395
    outer loop
      vertex 1 3.88582 14.926
      vertex 0 3.7472 14.6666
      vertex 1 3.7472 14.6666
    endloop
  endfacet
  facet normal 0 -0.77301 -0.634394
    outer loop
      vertex 0 3.7472 16.3334
      vertex 1 3.56066 16.5607
      vertex 0 3.56066 16.5607
    endloop
  endfacet
  facet normal 0 -0.77301 -0.634394
    outer loop
      vertex 1 3.56066 16.5607
      vertex 0 3.7472 16.3334
      vertex 1 3.7472 16.3334
    endloop
  endfacet
  facet normal 0 -0.95694 -0.290285
    outer loop
      vertex 0 3.97118 15.7926
      vertex 1 3.88582 16.074
      vertex 0 3.88582 16.074
    endloop
  endfacet
  facet normal 0 -0.95694 -0.290285
    outer loop
      vertex 1 3.88582 16.074
      vertex 0 3.97118 15.7926
      vertex 1 3.97118 15.7926
    endloop
  endfacet
  facet normal -0 0.471395 0.881922
    outer loop
      vertex 0 1.92597 14.1142
      vertex 1 1.66664 14.2528
      vertex 1 1.92597 14.1142
    endloop
  endfacet
  facet normal 0 0.471395 0.881922
    outer loop
      vertex 1 1.66664 14.2528
      vertex 0 1.92597 14.1142
      vertex 0 1.66664 14.2528
    endloop
  endfacet
  facet normal 0 -0.290285 0.95694
    outer loop
      vertex 0 3.07402 14.1142
      vertex 1 2.79263 14.0288
      vertex 1 3.07402 14.1142
    endloop
  endfacet
  facet normal 0 -0.290285 0.95694
    outer loop
      vertex 1 2.79263 14.0288
      vertex 0 3.07402 14.1142
      vertex 0 2.79263 14.0288
    endloop
  endfacet
  facet normal 0 -0.634394 0.77301
    outer loop
      vertex 0 3.56066 14.4393
      vertex 1 3.33335 14.2528
      vertex 1 3.56066 14.4393
    endloop
  endfacet
  facet normal 0 -0.634394 0.77301
    outer loop
      vertex 1 3.33335 14.2528
      vertex 0 3.56066 14.4393
      vertex 0 3.33335 14.2528
    endloop
  endfacet
  facet normal 0 -0.95694 0.290285
    outer loop
      vertex 0 3.88582 14.926
      vertex 1 3.97118 15.2074
      vertex 0 3.97118 15.2074
    endloop
  endfacet
  facet normal 0 -0.95694 0.290285
    outer loop
      vertex 1 3.97118 15.2074
      vertex 0 3.88582 14.926
      vertex 1 3.88582 14.926
    endloop
  endfacet
  facet normal 0 -0.471395 -0.881922
    outer loop
      vertex 0 3.07402 16.8858
      vertex 1 3.33335 16.7472
      vertex 1 3.07402 16.8858
    endloop
  endfacet
  facet normal -0 -0.471395 -0.881922
    outer loop
      vertex 1 3.33335 16.7472
      vertex 0 3.07402 16.8858
      vertex 0 3.33335 16.7472
    endloop
  endfacet
  facet normal 0 -0.634394 -0.77301
    outer loop
      vertex 0 3.33335 16.7472
      vertex 1 3.56066 16.5607
      vertex 1 3.33335 16.7472
    endloop
  endfacet
  facet normal -0 -0.634394 -0.77301
    outer loop
      vertex 1 3.56066 16.5607
      vertex 0 3.33335 16.7472
      vertex 0 3.56066 16.5607
    endloop
  endfacet
  facet normal 0 -0.290282 -0.956941
    outer loop
      vertex 0 2.79263 16.9712
      vertex 1 3.07402 16.8858
      vertex 1 2.79263 16.9712
    endloop
  endfacet
  facet normal -0 -0.290282 -0.956941
    outer loop
      vertex 1 3.07402 16.8858
      vertex 0 2.79263 16.9712
      vertex 0 3.07402 16.8858
    endloop
  endfacet
  facet normal 0 -0.881922 -0.471395
    outer loop
      vertex 0 3.88582 16.074
      vertex 1 3.7472 16.3334
      vertex 0 3.7472 16.3334
    endloop
  endfacet
  facet normal 0 -0.881922 -0.471395
    outer loop
      vertex 1 3.7472 16.3334
      vertex 0 3.88582 16.074
      vertex 1 3.88582 16.074
    endloop
  endfacet
  facet normal 0 -0.995184 -0.0980201
    outer loop
      vertex 0 4 15.5
      vertex 1 3.97118 15.7926
      vertex 0 3.97118 15.7926
    endloop
  endfacet
  facet normal 0 -0.995184 -0.0980201
    outer loop
      vertex 1 3.97118 15.7926
      vertex 0 4 15.5
      vertex 1 4 15.5
    endloop
  endfacet
  facet normal -0 0.0980165 0.995185
    outer loop
      vertex 0 2.5 14
      vertex 1 2.20736 14.0288
      vertex 1 2.5 14
    endloop
  endfacet
  facet normal 0 0.0980165 0.995185
    outer loop
      vertex 1 2.20736 14.0288
      vertex 0 2.5 14
      vertex 0 2.20736 14.0288
    endloop
  endfacet
  facet normal 0 0.634394 -0.77301
    outer loop
      vertex 0 1.43934 16.5607
      vertex 1 1.66664 16.7472
      vertex 1 1.43934 16.5607
    endloop
  endfacet
  facet normal 0 0.634394 -0.77301
    outer loop
      vertex 1 1.66664 16.7472
      vertex 0 1.43934 16.5607
      vertex 0 1.66664 16.7472
    endloop
  endfacet
  facet normal 0 0.471395 -0.881922
    outer loop
      vertex 0 1.66664 16.7472
      vertex 1 1.92597 16.8858
      vertex 1 1.66664 16.7472
    endloop
  endfacet
  facet normal 0 0.471395 -0.881922
    outer loop
      vertex 1 1.92597 16.8858
      vertex 0 1.66664 16.7472
      vertex 0 1.92597 16.8858
    endloop
  endfacet
  facet normal 0 -0.471395 0.881922
    outer loop
      vertex 0 3.33335 14.2528
      vertex 1 3.07402 14.1142
      vertex 1 3.33335 14.2528
    endloop
  endfacet
  facet normal 0 -0.471395 0.881922
    outer loop
      vertex 1 3.07402 14.1142
      vertex 0 3.33335 14.2528
      vertex 0 3.07402 14.1142
    endloop
  endfacet
  facet normal 0 -0.995184 0.0980198
    outer loop
      vertex 0 3.97118 15.2074
      vertex 1 4 15.5
      vertex 0 4 15.5
    endloop
  endfacet
  facet normal 0 -0.995184 0.0980198
    outer loop
      vertex 1 4 15.5
      vertex 0 3.97118 15.2074
      vertex 1 3.97118 15.2074
    endloop
  endfacet
  facet normal -0 0.290285 0.95694
    outer loop
      vertex 0 2.20736 14.0288
      vertex 1 1.92597 14.1142
      vertex 1 2.20736 14.0288
    endloop
  endfacet
  facet normal 0 0.290285 0.95694
    outer loop
      vertex 1 1.92597 14.1142
      vertex 0 2.20736 14.0288
      vertex 0 1.92597 14.1142
    endloop
  endfacet
  facet normal 0 0.77301 0.634394
    outer loop
      vertex 1 1.43934 14.4393
      vertex 0 1.2528 14.6666
      vertex 1 1.2528 14.6666
    endloop
  endfacet
  facet normal 0 0.77301 0.634394
    outer loop
      vertex 0 1.2528 14.6666
      vertex 1 1.43934 14.4393
      vertex 0 1.43934 14.4393
    endloop
  endfacet
  facet normal 0 0.995185 -0.0980169
    outer loop
      vertex 1 1 15.5
      vertex 0 1.02882 15.7926
      vertex 1 1.02882 15.7926
    endloop
  endfacet
  facet normal 0 0.995185 -0.0980169
    outer loop
      vertex 0 1.02882 15.7926
      vertex 1 1 15.5
      vertex 0 1 15.5
    endloop
  endfacet
  facet normal 0 0.95694 -0.290285
    outer loop
      vertex 1 1.02882 15.7926
      vertex 0 1.11418 16.074
      vertex 1 1.11418 16.074
    endloop
  endfacet
  facet normal 0 0.95694 -0.290285
    outer loop
      vertex 0 1.11418 16.074
      vertex 1 1.02882 15.7926
      vertex 0 1.02882 15.7926
    endloop
  endfacet
  facet normal 0 0.881922 -0.471395
    outer loop
      vertex 1 1.11418 16.074
      vertex 0 1.2528 16.3334
      vertex 1 1.2528 16.3334
    endloop
  endfacet
  facet normal 0 0.881922 -0.471395
    outer loop
      vertex 0 1.2528 16.3334
      vertex 1 1.11418 16.074
      vertex 0 1.11418 16.074
    endloop
  endfacet
  facet normal 0 0.77301 -0.634394
    outer loop
      vertex 1 1.2528 16.3334
      vertex 0 1.43934 16.5607
      vertex 1 1.43934 16.5607
    endloop
  endfacet
  facet normal 0 0.77301 -0.634394
    outer loop
      vertex 0 1.43934 16.5607
      vertex 1 1.2528 16.3334
      vertex 0 1.2528 16.3334
    endloop
  endfacet
  facet normal 0 0.881922 0.471395
    outer loop
      vertex 1 1.2528 14.6666
      vertex 0 1.11418 14.926
      vertex 1 1.11418 14.926
    endloop
  endfacet
  facet normal 0 0.881922 0.471395
    outer loop
      vertex 0 1.11418 14.926
      vertex 1 1.2528 14.6666
      vertex 0 1.2528 14.6666
    endloop
  endfacet
  facet normal 0 0.95694 0.290285
    outer loop
      vertex 1 1.11418 14.926
      vertex 0 1.02882 15.2074
      vertex 1 1.02882 15.2074
    endloop
  endfacet
  facet normal 0 0.95694 0.290285
    outer loop
      vertex 0 1.02882 15.2074
      vertex 1 1.11418 14.926
      vertex 0 1.11418 14.926
    endloop
  endfacet
  facet normal -0 0.634394 0.77301
    outer loop
      vertex 0 1.66664 14.2528
      vertex 1 1.43934 14.4393
      vertex 1 1.66664 14.2528
    endloop
  endfacet
  facet normal 0 0.634394 0.77301
    outer loop
      vertex 1 1.43934 14.4393
      vertex 0 1.66664 14.2528
      vertex 0 1.43934 14.4393
    endloop
  endfacet
  facet normal 0 0.290282 -0.956941
    outer loop
      vertex 0 1.92597 16.8858
      vertex 1 2.20736 16.9712
      vertex 1 1.92597 16.8858
    endloop
  endfacet
  facet normal 0 0.290282 -0.956941
    outer loop
      vertex 1 2.20736 16.9712
      vertex 0 1.92597 16.8858
      vertex 0 2.20736 16.9712
    endloop
  endfacet
  facet normal 0 0.098023 -0.995184
    outer loop
      vertex 0 2.20736 16.9712
      vertex 1 2.5 17
      vertex 1 2.20736 16.9712
    endloop
  endfacet
  facet normal 0 0.098023 -0.995184
    outer loop
      vertex 1 2.5 17
      vertex 0 2.20736 16.9712
      vertex 0 2.5 17
    endloop
  endfacet
  facet normal 0 -0.0980169 0.995185
    outer loop
      vertex 0 21.7926 14.0288
      vertex 1 21.5 14
      vertex 1 21.7926 14.0288
    endloop
  endfacet
  facet normal 0 -0.0980169 0.995185
    outer loop
      vertex 1 21.5 14
      vertex 0 21.7926 14.0288
      vertex 0 21.5 14
    endloop
  endfacet
  facet normal 0 -0.0980233 -0.995184
    outer loop
      vertex 0 21.5 17
      vertex 1 21.7926 16.9712
      vertex 1 21.5 17
    endloop
  endfacet
  facet normal -0 -0.0980233 -0.995184
    outer loop
      vertex 1 21.7926 16.9712
      vertex 0 21.5 17
      vertex 0 21.7926 16.9712
    endloop
  endfacet
  facet normal 0 0.995185 0.0980165
    outer loop
      vertex 1 20.0288 15.2074
      vertex 0 20 15.5
      vertex 1 20 15.5
    endloop
  endfacet
  facet normal 0 0.995185 0.0980165
    outer loop
      vertex 0 20 15.5
      vertex 1 20.0288 15.2074
      vertex 0 20.0288 15.2074
    endloop
  endfacet
  facet normal 0 -0.77301 0.634394
    outer loop
      vertex 0 22.5607 14.4393
      vertex 1 22.7472 14.6666
      vertex 0 22.7472 14.6666
    endloop
  endfacet
  facet normal 0 -0.77301 0.634394
    outer loop
      vertex 1 22.7472 14.6666
      vertex 0 22.5607 14.4393
      vertex 1 22.5607 14.4393
    endloop
  endfacet
  facet normal 0 -0.881922 0.471395
    outer loop
      vertex 0 22.7472 14.6666
      vertex 1 22.8858 14.926
      vertex 0 22.8858 14.926
    endloop
  endfacet
  facet normal 0 -0.881922 0.471395
    outer loop
      vertex 1 22.8858 14.926
      vertex 0 22.7472 14.6666
      vertex 1 22.7472 14.6666
    endloop
  endfacet
  facet normal 0 -0.77301 -0.634394
    outer loop
      vertex 0 22.7472 16.3334
      vertex 1 22.5607 16.5607
      vertex 0 22.5607 16.5607
    endloop
  endfacet
  facet normal 0 -0.77301 -0.634394
    outer loop
      vertex 1 22.5607 16.5607
      vertex 0 22.7472 16.3334
      vertex 1 22.7472 16.3334
    endloop
  endfacet
  facet normal 0 -0.956941 -0.290282
    outer loop
      vertex 0 22.9712 15.7926
      vertex 1 22.8858 16.074
      vertex 0 22.8858 16.074
    endloop
  endfacet
  facet normal 0 -0.956941 -0.290282
    outer loop
      vertex 1 22.8858 16.074
      vertex 0 22.9712 15.7926
      vertex 1 22.9712 15.7926
    endloop
  endfacet
  facet normal -0 0.471395 0.881922
    outer loop
      vertex 0 20.926 14.1142
      vertex 1 20.6666 14.2528
      vertex 1 20.926 14.1142
    endloop
  endfacet
  facet normal 0 0.471395 0.881922
    outer loop
      vertex 1 20.6666 14.2528
      vertex 0 20.926 14.1142
      vertex 0 20.6666 14.2528
    endloop
  endfacet
  facet normal 0 -0.290285 0.95694
    outer loop
      vertex 0 22.074 14.1142
      vertex 1 21.7926 14.0288
      vertex 1 22.074 14.1142
    endloop
  endfacet
  facet normal 0 -0.290285 0.95694
    outer loop
      vertex 1 21.7926 14.0288
      vertex 0 22.074 14.1142
      vertex 0 21.7926 14.0288
    endloop
  endfacet
  facet normal 0 -0.634394 0.77301
    outer loop
      vertex 0 22.5607 14.4393
      vertex 1 22.3334 14.2528
      vertex 1 22.5607 14.4393
    endloop
  endfacet
  facet normal 0 -0.634394 0.77301
    outer loop
      vertex 1 22.3334 14.2528
      vertex 0 22.5607 14.4393
      vertex 0 22.3334 14.2528
    endloop
  endfacet
  facet normal 0 -0.956941 0.290282
    outer loop
      vertex 0 22.8858 14.926
      vertex 1 22.9712 15.2074
      vertex 0 22.9712 15.2074
    endloop
  endfacet
  facet normal 0 -0.956941 0.290282
    outer loop
      vertex 1 22.9712 15.2074
      vertex 0 22.8858 14.926
      vertex 1 22.8858 14.926
    endloop
  endfacet
  facet normal 0 -0.471395 -0.881922
    outer loop
      vertex 0 22.074 16.8858
      vertex 1 22.3334 16.7472
      vertex 1 22.074 16.8858
    endloop
  endfacet
  facet normal -0 -0.471395 -0.881922
    outer loop
      vertex 1 22.3334 16.7472
      vertex 0 22.074 16.8858
      vertex 0 22.3334 16.7472
    endloop
  endfacet
  facet normal 0 -0.634394 -0.77301
    outer loop
      vertex 0 22.3334 16.7472
      vertex 1 22.5607 16.5607
      vertex 1 22.3334 16.7472
    endloop
  endfacet
  facet normal -0 -0.634394 -0.77301
    outer loop
      vertex 1 22.5607 16.5607
      vertex 0 22.3334 16.7472
      vertex 0 22.5607 16.5607
    endloop
  endfacet
  facet normal 0 -0.290282 -0.956941
    outer loop
      vertex 0 21.7926 16.9712
      vertex 1 22.074 16.8858
      vertex 1 21.7926 16.9712
    endloop
  endfacet
  facet normal -0 -0.290282 -0.956941
    outer loop
      vertex 1 22.074 16.8858
      vertex 0 21.7926 16.9712
      vertex 0 22.074 16.8858
    endloop
  endfacet
  facet normal 0 -0.881922 -0.471395
    outer loop
      vertex 0 22.8858 16.074
      vertex 1 22.7472 16.3334
      vertex 0 22.7472 16.3334
    endloop
  endfacet
  facet normal 0 -0.881922 -0.471395
    outer loop
      vertex 1 22.7472 16.3334
      vertex 0 22.8858 16.074
      vertex 1 22.8858 16.074
    endloop
  endfacet
  facet normal 0 -0.995184 -0.0980233
    outer loop
      vertex 0 23 15.5
      vertex 1 22.9712 15.7926
      vertex 0 22.9712 15.7926
    endloop
  endfacet
  facet normal 0 -0.995184 -0.0980233
    outer loop
      vertex 1 22.9712 15.7926
      vertex 0 23 15.5
      vertex 1 23 15.5
    endloop
  endfacet
  facet normal -0 0.0980162 0.995185
    outer loop
      vertex 0 21.5 14
      vertex 1 21.2074 14.0288
      vertex 1 21.5 14
    endloop
  endfacet
  facet normal 0 0.0980162 0.995185
    outer loop
      vertex 1 21.2074 14.0288
      vertex 0 21.5 14
      vertex 0 21.2074 14.0288
    endloop
  endfacet
  facet normal 0 0.634391 -0.773012
    outer loop
      vertex 0 20.4393 16.5607
      vertex 1 20.6666 16.7472
      vertex 1 20.4393 16.5607
    endloop
  endfacet
  facet normal 0 0.634391 -0.773012
    outer loop
      vertex 1 20.6666 16.7472
      vertex 0 20.4393 16.5607
      vertex 0 20.6666 16.7472
    endloop
  endfacet
  facet normal 0 0.471395 -0.881922
    outer loop
      vertex 0 20.6666 16.7472
      vertex 1 20.926 16.8858
      vertex 1 20.6666 16.7472
    endloop
  endfacet
  facet normal 0 0.471395 -0.881922
    outer loop
      vertex 1 20.926 16.8858
      vertex 0 20.6666 16.7472
      vertex 0 20.926 16.8858
    endloop
  endfacet
  facet normal 0 -0.471395 0.881922
    outer loop
      vertex 0 22.3334 14.2528
      vertex 1 22.074 14.1142
      vertex 1 22.3334 14.2528
    endloop
  endfacet
  facet normal 0 -0.471395 0.881922
    outer loop
      vertex 1 22.074 14.1142
      vertex 0 22.3334 14.2528
      vertex 0 22.074 14.1142
    endloop
  endfacet
  facet normal 0 -0.995184 0.098023
    outer loop
      vertex 0 22.9712 15.2074
      vertex 1 23 15.5
      vertex 0 23 15.5
    endloop
  endfacet
  facet normal 0 -0.995184 0.098023
    outer loop
      vertex 1 23 15.5
      vertex 0 22.9712 15.2074
      vertex 1 22.9712 15.2074
    endloop
  endfacet
  facet normal -0 0.290287 0.95694
    outer loop
      vertex 0 21.2074 14.0288
      vertex 1 20.926 14.1142
      vertex 1 21.2074 14.0288
    endloop
  endfacet
  facet normal 0 0.290287 0.95694
    outer loop
      vertex 1 20.926 14.1142
      vertex 0 21.2074 14.0288
      vertex 0 20.926 14.1142
    endloop
  endfacet
  facet normal 0 0.773013 0.63439
    outer loop
      vertex 1 20.4393 14.4393
      vertex 0 20.2528 14.6666
      vertex 1 20.2528 14.6666
    endloop
  endfacet
  facet normal 0 0.773013 0.63439
    outer loop
      vertex 0 20.2528 14.6666
      vertex 1 20.4393 14.4393
      vertex 0 20.4393 14.4393
    endloop
  endfacet
  facet normal 0 0.995185 -0.0980169
    outer loop
      vertex 1 20 15.5
      vertex 0 20.0288 15.7926
      vertex 1 20.0288 15.7926
    endloop
  endfacet
  facet normal 0 0.995185 -0.0980169
    outer loop
      vertex 0 20.0288 15.7926
      vertex 1 20 15.5
      vertex 0 20 15.5
    endloop
  endfacet
  facet normal 0 0.956939 -0.290288
    outer loop
      vertex 1 20.0288 15.7926
      vertex 0 20.1142 16.074
      vertex 1 20.1142 16.074
    endloop
  endfacet
  facet normal 0 0.956939 -0.290288
    outer loop
      vertex 0 20.1142 16.074
      vertex 1 20.0288 15.7926
      vertex 0 20.0288 15.7926
    endloop
  endfacet
  facet normal 0 0.881922 -0.471395
    outer loop
      vertex 1 20.1142 16.074
      vertex 0 20.2528 16.3334
      vertex 1 20.2528 16.3334
    endloop
  endfacet
  facet normal 0 0.881922 -0.471395
    outer loop
      vertex 0 20.2528 16.3334
      vertex 1 20.1142 16.074
      vertex 0 20.1142 16.074
    endloop
  endfacet
  facet normal 0 0.773013 -0.63439
    outer loop
      vertex 1 20.2528 16.3334
      vertex 0 20.4393 16.5607
      vertex 1 20.4393 16.5607
    endloop
  endfacet
  facet normal 0 0.773013 -0.63439
    outer loop
      vertex 0 20.4393 16.5607
      vertex 1 20.2528 16.3334
      vertex 0 20.2528 16.3334
    endloop
  endfacet
  facet normal 0 0.881922 0.471395
    outer loop
      vertex 1 20.2528 14.6666
      vertex 0 20.1142 14.926
      vertex 1 20.1142 14.926
    endloop
  endfacet
  facet normal 0 0.881922 0.471395
    outer loop
      vertex 0 20.1142 14.926
      vertex 1 20.2528 14.6666
      vertex 0 20.2528 14.6666
    endloop
  endfacet
  facet normal 0 0.956939 0.290288
    outer loop
      vertex 1 20.1142 14.926
      vertex 0 20.0288 15.2074
      vertex 1 20.0288 15.2074
    endloop
  endfacet
  facet normal 0 0.956939 0.290288
    outer loop
      vertex 0 20.0288 15.2074
      vertex 1 20.1142 14.926
      vertex 0 20.1142 14.926
    endloop
  endfacet
  facet normal -0 0.634391 0.773012
    outer loop
      vertex 0 20.6666 14.2528
      vertex 1 20.4393 14.4393
      vertex 1 20.6666 14.2528
    endloop
  endfacet
  facet normal 0 0.634391 0.773012
    outer loop
      vertex 1 20.4393 14.4393
      vertex 0 20.6666 14.2528
      vertex 0 20.4393 14.4393
    endloop
  endfacet
  facet normal 0 0.290284 -0.956941
    outer loop
      vertex 0 20.926 16.8858
      vertex 1 21.2074 16.9712
      vertex 1 20.926 16.8858
    endloop
  endfacet
  facet normal 0 0.290284 -0.956941
    outer loop
      vertex 1 21.2074 16.9712
      vertex 0 20.926 16.8858
      vertex 0 21.2074 16.9712
    endloop
  endfacet
  facet normal 0 0.0980227 -0.995184
    outer loop
      vertex 0 21.2074 16.9712
      vertex 1 21.5 17
      vertex 1 21.2074 16.9712
    endloop
  endfacet
  facet normal 0 0.0980227 -0.995184
    outer loop
      vertex 1 21.5 17
      vertex 0 21.2074 16.9712
      vertex 0 21.5 17
    endloop
  endfacet
  facet normal 1 0 0
    outer loop
      vertex 6.5 19.01 18
      vertex 6.5 4.99 18
      vertex 6.5 19.01 13.01
    endloop
  endfacet
  facet normal 1 -0 0
    outer loop
      vertex 6.5 19.01 13.01
      vertex 6.5 24 0
      vertex 6.5 24 13.01
    endloop
  endfacet
  facet normal 1 0 0
    outer loop
      vertex 6.5 4.99 13.01
      vertex 6.5 19.01 13.01
      vertex 6.5 4.99 18
    endloop
  endfacet
  facet normal 1 0 0
    outer loop
      vertex 6.5 19.01 13.01
      vertex 6.5 4.99 13.01
      vertex 6.5 24 0
    endloop
  endfacet
  facet normal 1 0 0
    outer loop
      vertex 6.5 0 0
      vertex 6.5 4.99 13.01
      vertex 6.5 0 13.01
    endloop
  endfacet
  facet normal 1 0 0
    outer loop
      vertex 6.5 4.99 13.01
      vertex 6.5 0 0
      vertex 6.5 24 0
    endloop
  endfacet
  facet normal -0 0 1
    outer loop
      vertex 1 4.99 13.01
      vertex 6.5 0 13.01
      vertex 6.5 4.99 13.01
    endloop
  endfacet
  facet normal 0 0 1
    outer loop
      vertex 6.5 0 13.01
      vertex 1 4.99 13.01
      vertex 1 0 13.01
    endloop
  endfacet
  facet normal 0 -1 0
    outer loop
      vertex 1 4.99 13.01
      vertex 6.5 4.99 18
      vertex 1 4.99 18
    endloop
  endfacet
  facet normal 0 -1 -0
    outer loop
      vertex 6.5 4.99 18
      vertex 1 4.99 13.01
      vertex 6.5 4.99 13.01
    endloop
  endfacet
  facet normal -0 0 1
    outer loop
      vertex 1 24 13.01
      vertex 6.5 19.01 13.01
      vertex 6.5 24 13.01
    endloop
  endfacet
  facet normal 0 0 1
    outer loop
      vertex 6.5 19.01 13.01
      vertex 1 24 13.01
      vertex 1 19.01 13.01
    endloop
  endfacet
  facet normal 0 1 -0
    outer loop
      vertex 6.5 19.01 13.01
      vertex 1 19.01 18
      vertex 6.5 19.01 18
    endloop
  endfacet
  facet normal 0 1 0
    outer loop
      vertex 1 19.01 18
      vertex 6.5 19.01 13.01
      vertex 1 19.01 13.01
    endloop
  endfacet
  facet normal -1 0 0
    outer loop
      vertex -2.25 5 0
      vertex -2.25 19 18
      vertex -2.25 19 0
    endloop
  endfacet
  facet normal -1 -0 0
    outer loop
      vertex -2.25 19 18
      vertex -2.25 5 0
      vertex -2.25 5 18
    endloop
  endfacet
  facet normal 0 1 -0
    outer loop
      vertex 0 19 0
      vertex -2.25 19 18
      vertex 0 19 18
    endloop
  endfacet
  facet normal 0 1 0
    outer loop
      vertex -2.25 19 18
      vertex 0 19 0
      vertex -2.25 19 0
    endloop
  endfacet
  facet normal 0 -1 0
    outer loop
      vertex -2.25 5 0
      vertex 0 5 18
      vertex -2.25 5 18
    endloop
  endfacet
  facet normal 0 -1 -0
    outer loop
      vertex 0 5 18
      vertex -2.25 5 0
      vertex 0 5 0
    endloop
  endfacet
endsolid OpenSCAD_Model
