solid OpenSCAD_Model
  facet normal -0 0 1
    outer loop
      vertex 0 44.3 88.6
      vertex 6 -44.3 88.6
      vertex 6 44.3 88.6
    endloop
  endfacet
  facet normal 0 0 1
    outer loop
      vertex 6 -44.3 88.6
      vertex 0 44.3 88.6
      vertex 0 -44.3 88.6
    endloop
  endfacet
  facet normal 0 -1 0
    outer loop
      vertex 0 -44.3 4
      vertex 6 -44.3 88.6
      vertex 0 -44.3 88.6
    endloop
  endfacet
  facet normal 0 -1 -0
    outer loop
      vertex 6 -44.3 88.6
      vertex 0 -44.3 4
      vertex 6 -44.3 4
    endloop
  endfacet
  facet normal 0 1 -0
    outer loop
      vertex 6 44.3 36.3
      vertex 0 44.3 88.6
      vertex 6 44.3 88.6
    endloop
  endfacet
  facet normal 0 1 0
    outer loop
      vertex 0 44.3 88.6
      vertex 6 44.3 36.3
      vertex 0 44.3 36.3
    endloop
  endfacet
  facet normal 1 0 0
    outer loop
      vertex 6 28.6045 45.8307
      vertex 6 -30.5322 74.8322
      vertex 6 28.3 44.3
    endloop
  endfacet
  facet normal 1 0 0
    outer loop
      vertex 6 28.3 44.3
      vertex 6 -29.9903 12.9567
      vertex 6 -29.8 12
    endloop
  endfacet
  facet normal 1 0 0
    outer loop
      vertex 6 -30.5322 13.7678
      vertex 6 28.3 44.3
      vertex 6 -30.5322 74.8322
    endloop
  endfacet
  facet normal 1 0 0
    outer loop
      vertex 6 28.3 44.3
      vertex 6 -30.5322 13.7678
      vertex 6 -29.9903 12.9567
    endloop
  endfacet
  facet normal 1 -0 0
    outer loop
      vertex 6 -31.3433 74.2903
      vertex 6 -30.5322 13.7678
      vertex 6 -30.5322 74.8322
    endloop
  endfacet
  facet normal 1 0 0
    outer loop
      vertex 6 -31.3433 74.2903
      vertex 6 -31.3433 14.3097
      vertex 6 -30.5322 13.7678
    endloop
  endfacet
  facet normal 1 -0 0
    outer loop
      vertex 6 -32.3 74.1
      vertex 6 -31.3433 14.3097
      vertex 6 -31.3433 74.2903
    endloop
  endfacet
  facet normal 1 0 0
    outer loop
      vertex 6 -32.3 74.1
      vertex 6 -32.3 14.5
      vertex 6 -31.3433 14.3097
    endloop
  endfacet
  facet normal 1 0 0
    outer loop
      vertex 6 -33.2567 74.2903
      vertex 6 -32.3 14.5
      vertex 6 -32.3 74.1
    endloop
  endfacet
  facet normal 1 0 0
    outer loop
      vertex 6 -33.2567 74.2903
      vertex 6 -33.2567 14.3097
      vertex 6 -32.3 14.5
    endloop
  endfacet
  facet normal 1 0 0
    outer loop
      vertex 6 -34.0678 74.8322
      vertex 6 -33.2567 14.3097
      vertex 6 -33.2567 74.2903
    endloop
  endfacet
  facet normal 1 0 0
    outer loop
      vertex 6 -34.0678 74.8322
      vertex 6 -34.0678 13.7678
      vertex 6 -33.2567 14.3097
    endloop
  endfacet
  facet normal 1 0 0
    outer loop
      vertex 6 -44.3 4
      vertex 6 -34.0678 74.8322
      vertex 6 -34.6097 75.6433
    endloop
  endfacet
  facet normal 1 0 0
    outer loop
      vertex 6 -34.0678 74.8322
      vertex 6 -44.3 4
      vertex 6 -34.0678 13.7678
    endloop
  endfacet
  facet normal 1 0 0
    outer loop
      vertex 6 -44.3 88.6
      vertex 6 -34.6097 75.6433
      vertex 6 -34.8 76.6
    endloop
  endfacet
  facet normal 1 0 0
    outer loop
      vertex 6 -34.0678 13.7678
      vertex 6 -44.3 4
      vertex 6 -34.6097 12.9567
    endloop
  endfacet
  facet normal 1 -0 0
    outer loop
      vertex 6 35.9955 45.8307
      vertex 6 44.3 36.3
      vertex 6 44.3 88.6
    endloop
  endfacet
  facet normal 1 -0 -0
    outer loop
      vertex 6 36.3 44.3
      vertex 6 44.3 36.3
      vertex 6 35.9955 45.8307
    endloop
  endfacet
  facet normal 1 -0 0
    outer loop
      vertex 6 35.9955 42.7693
      vertex 6 44.3 36.3
      vertex 6 36.3 44.3
    endloop
  endfacet
  facet normal 1 -0 0
    outer loop
      vertex 6 35.1284 41.4716
      vertex 6 44.3 36.3
      vertex 6 35.9955 42.7693
    endloop
  endfacet
  facet normal 1 0 -0
    outer loop
      vertex 6 41.8307 32.6045
      vertex 6 44.3 36.3
      vertex 6 35.1284 41.4716
    endloop
  endfacet
  facet normal 1 0 0
    outer loop
      vertex 6 44.3 88.6
      vertex 6 35.1284 47.1284
      vertex 6 35.9955 45.8307
    endloop
  endfacet
  facet normal 1 0 0
    outer loop
      vertex 6 44.3 88.6
      vertex 6 33.8307 47.9955
      vertex 6 35.1284 47.1284
    endloop
  endfacet
  facet normal 1 0 0
    outer loop
      vertex 6 44.3 88.6
      vertex 6 32.3 48.3
      vertex 6 33.8307 47.9955
    endloop
  endfacet
  facet normal 1 0 0
    outer loop
      vertex 6 44.3 88.6
      vertex 6 30.7693 47.9955
      vertex 6 32.3 48.3
    endloop
  endfacet
  facet normal 1 0 0
    outer loop
      vertex 6 44.3 88.6
      vertex 6 29.4716 47.1284
      vertex 6 30.7693 47.9955
    endloop
  endfacet
  facet normal 1 -0 0
    outer loop
      vertex 6 -29.8 76.6
      vertex 6 29.4716 47.1284
      vertex 6 44.3 88.6
    endloop
  endfacet
  facet normal 1 0 0
    outer loop
      vertex 6 29.4716 47.1284
      vertex 6 -29.9903 75.6433
      vertex 6 28.6045 45.8307
    endloop
  endfacet
  facet normal 1 -0 0
    outer loop
      vertex 6 -29.9903 75.6433
      vertex 6 29.4716 47.1284
      vertex 6 -29.8 76.6
    endloop
  endfacet
  facet normal 1 0 0
    outer loop
      vertex 6 28.3 44.3
      vertex 6 -29.8 12
      vertex 6 -22.7693 0.304482
    endloop
  endfacet
  facet normal 1 -0 0
    outer loop
      vertex 6 -30.5322 74.8322
      vertex 6 28.6045 45.8307
      vertex 6 -29.9903 75.6433
    endloop
  endfacet
  facet normal 1 0 0
    outer loop
      vertex 6 44.3 88.6
      vertex 6 -29.9903 77.5567
      vertex 6 -29.8 76.6
    endloop
  endfacet
  facet normal 1 0 0
    outer loop
      vertex 6 44.3 88.6
      vertex 6 -30.5322 78.3678
      vertex 6 -29.9903 77.5567
    endloop
  endfacet
  facet normal 1 0 0
    outer loop
      vertex 6 44.3 88.6
      vertex 6 -31.3433 78.9097
      vertex 6 -30.5322 78.3678
    endloop
  endfacet
  facet normal 1 -0 0
    outer loop
      vertex 6 -44.3 88.6
      vertex 6 -31.3433 78.9097
      vertex 6 44.3 88.6
    endloop
  endfacet
  facet normal 1 0 0
    outer loop
      vertex 6 -34.6097 12.9567
      vertex 6 -44.3 4
      vertex 6 -34.8 12
    endloop
  endfacet
  facet normal 1 0 0
    outer loop
      vertex 6 -34.8 12
      vertex 6 -44.3 4
      vertex 6 -40.3 0
    endloop
  endfacet
  facet normal 1 0 0
    outer loop
      vertex 6 -40.3 0
      vertex 6 -44.3 4
      vertex 6 -41.8307 0.304482
    endloop
  endfacet
  facet normal 1 0 0
    outer loop
      vertex 6 -41.8307 0.304482
      vertex 6 -44.3 4
      vertex 6 -43.1284 1.17157
    endloop
  endfacet
  facet normal 1 0 0
    outer loop
      vertex 6 -31.3433 78.9097
      vertex 6 -44.3 88.6
      vertex 6 -32.3 79.1
    endloop
  endfacet
  facet normal 1 0 0
    outer loop
      vertex 6 -44.3 88.6
      vertex 6 -33.2567 78.9097
      vertex 6 -32.3 79.1
    endloop
  endfacet
  facet normal 1 0 0
    outer loop
      vertex 6 -44.3 88.6
      vertex 6 -34.0678 78.3678
      vertex 6 -33.2567 78.9097
    endloop
  endfacet
  facet normal 1 0 0
    outer loop
      vertex 6 -44.3 88.6
      vertex 6 -34.6097 77.5567
      vertex 6 -34.0678 78.3678
    endloop
  endfacet
  facet normal 1 0 0
    outer loop
      vertex 6 -44.3 88.6
      vertex 6 -34.8 76.6
      vertex 6 -34.6097 77.5567
    endloop
  endfacet
  facet normal 1 0 0
    outer loop
      vertex 6 -34.6097 75.6433
      vertex 6 -44.3 88.6
      vertex 6 -44.3 4
    endloop
  endfacet
  facet normal 1 0 0
    outer loop
      vertex 6 -43.1284 1.17157
      vertex 6 -44.3 4
      vertex 6 -43.9955 2.46927
    endloop
  endfacet
  facet normal 1 0 0
    outer loop
      vertex 6 44.3 36.3
      vertex 6 41.8307 32.6045
      vertex 6 43.9955 34.7693
    endloop
  endfacet
  facet normal 1 0 0
    outer loop
      vertex 6 43.9955 34.7693
      vertex 6 41.8307 32.6045
      vertex 6 43.1284 33.4716
    endloop
  endfacet
  facet normal 1 -0 0
    outer loop
      vertex 6 33.8307 40.6045
      vertex 6 41.8307 32.6045
      vertex 6 35.1284 41.4716
    endloop
  endfacet
  facet normal 1 -0 0
    outer loop
      vertex 6 32.3 40.3
      vertex 6 41.8307 32.6045
      vertex 6 33.8307 40.6045
    endloop
  endfacet
  facet normal 1 0 0
    outer loop
      vertex 6 30.7693 40.6045
      vertex 6 41.8307 32.6045
      vertex 6 32.3 40.3
    endloop
  endfacet
  facet normal 1 0 0
    outer loop
      vertex 6 -22.7693 0.304482
      vertex 6 30.7693 40.6045
      vertex 6 29.4716 41.4716
    endloop
  endfacet
  facet normal 1 0 0
    outer loop
      vertex 6 30.7693 40.6045
      vertex 6 -22.7693 0.304482
      vertex 6 41.8307 32.6045
    endloop
  endfacet
  facet normal 1 0 0
    outer loop
      vertex 6 28.6045 42.7693
      vertex 6 -22.7693 0.304482
      vertex 6 29.4716 41.4716
    endloop
  endfacet
  facet normal 1 0 0
    outer loop
      vertex 6 -22.7693 0.304482
      vertex 6 28.6045 42.7693
      vertex 6 28.3 44.3
    endloop
  endfacet
  facet normal 1 -0 0
    outer loop
      vertex 6 -29.9903 11.0433
      vertex 6 -22.7693 0.304482
      vertex 6 -29.8 12
    endloop
  endfacet
  facet normal 1 -0 0
    outer loop
      vertex 6 -30.5322 10.2322
      vertex 6 -22.7693 0.304482
      vertex 6 -29.9903 11.0433
    endloop
  endfacet
  facet normal 1 0 0
    outer loop
      vertex 6 -22.7693 0.304482
      vertex 6 -30.5322 10.2322
      vertex 6 -24.3 0
    endloop
  endfacet
  facet normal 1 -0 0
    outer loop
      vertex 6 -31.3433 9.6903
      vertex 6 -24.3 0
      vertex 6 -30.5322 10.2322
    endloop
  endfacet
  facet normal 1 -0 0
    outer loop
      vertex 6 -32.3 9.5
      vertex 6 -24.3 0
      vertex 6 -31.3433 9.6903
    endloop
  endfacet
  facet normal 1 0 0
    outer loop
      vertex 6 -40.3 0
      vertex 6 -32.3 9.5
      vertex 6 -33.2567 9.6903
    endloop
  endfacet
  facet normal 1 0 0
    outer loop
      vertex 6 -40.3 0
      vertex 6 -33.2567 9.6903
      vertex 6 -34.0678 10.2322
    endloop
  endfacet
  facet normal 1 0 0
    outer loop
      vertex 6 -32.3 9.5
      vertex 6 -40.3 0
      vertex 6 -24.3 0
    endloop
  endfacet
  facet normal 1 0 0
    outer loop
      vertex 6 -34.6097 11.0433
      vertex 6 -40.3 0
      vertex 6 -34.0678 10.2322
    endloop
  endfacet
  facet normal 1 0 0
    outer loop
      vertex 6 -40.3 0
      vertex 6 -34.6097 11.0433
      vertex 6 -34.8 12
    endloop
  endfacet
  facet normal -1 -0 0
    outer loop
      vertex 0 28.6045 42.7693
      vertex 0 -30.5322 13.7678
      vertex 0 28.3 44.3
    endloop
  endfacet
  facet normal -1 0 0
    outer loop
      vertex 0 28.3 44.3
      vertex 0 -29.9903 75.6433
      vertex 0 -29.8 76.6
    endloop
  endfacet
  facet normal -1 0 0
    outer loop
      vertex 0 -30.5322 74.8322
      vertex 0 28.3 44.3
      vertex 0 -30.5322 13.7678
    endloop
  endfacet
  facet normal -1 0 0
    outer loop
      vertex 0 28.3 44.3
      vertex 0 -30.5322 74.8322
      vertex 0 -29.9903 75.6433
    endloop
  endfacet
  facet normal -1 0 0
    outer loop
      vertex 0 -31.3433 14.3097
      vertex 0 -30.5322 74.8322
      vertex 0 -30.5322 13.7678
    endloop
  endfacet
  facet normal -1 0 0
    outer loop
      vertex 0 -31.3433 14.3097
      vertex 0 -31.3433 74.2903
      vertex 0 -30.5322 74.8322
    endloop
  endfacet
  facet normal -1 0 0
    outer loop
      vertex 0 -32.3 14.5
      vertex 0 -31.3433 74.2903
      vertex 0 -31.3433 14.3097
    endloop
  endfacet
  facet normal -1 0 0
    outer loop
      vertex 0 -32.3 14.5
      vertex 0 -32.3 74.1
      vertex 0 -31.3433 74.2903
    endloop
  endfacet
  facet normal -1 0 0
    outer loop
      vertex 0 -33.2567 14.3097
      vertex 0 -32.3 74.1
      vertex 0 -32.3 14.5
    endloop
  endfacet
  facet normal -1 0 0
    outer loop
      vertex 0 -33.2567 14.3097
      vertex 0 -33.2567 74.2903
      vertex 0 -32.3 74.1
    endloop
  endfacet
  facet normal -1 0 0
    outer loop
      vertex 0 -34.0678 13.7678
      vertex 0 -33.2567 74.2903
      vertex 0 -33.2567 14.3097
    endloop
  endfacet
  facet normal -1 0 0
    outer loop
      vertex 0 -34.0678 13.7678
      vertex 0 -34.0678 74.8322
      vertex 0 -33.2567 74.2903
    endloop
  endfacet
  facet normal -1 0 0
    outer loop
      vertex 0 -44.3 4
      vertex 0 -34.0678 13.7678
      vertex 0 -34.6097 12.9567
    endloop
  endfacet
  facet normal -1 -0 0
    outer loop
      vertex 0 -34.0678 13.7678
      vertex 0 -44.3 4
      vertex 0 -34.0678 74.8322
    endloop
  endfacet
  facet normal -1 0 0
    outer loop
      vertex 0 -44.3 4
      vertex 0 -34.6097 12.9567
      vertex 0 -34.8 12
    endloop
  endfacet
  facet normal -1 -0 0
    outer loop
      vertex 0 -34.0678 74.8322
      vertex 0 -44.3 4
      vertex 0 -34.6097 75.6433
    endloop
  endfacet
  facet normal -1 0 0
    outer loop
      vertex 0 -22.7693 0.304482
      vertex 0 -29.9903 11.0433
      vertex 0 -29.8 12
    endloop
  endfacet
  facet normal -1 0 0
    outer loop
      vertex 0 -22.7693 0.304482
      vertex 0 -30.5322 10.2322
      vertex 0 -29.9903 11.0433
    endloop
  endfacet
  facet normal -1 0 0
    outer loop
      vertex 0 -24.3 0
      vertex 0 -31.3433 9.6903
      vertex 0 -30.5322 10.2322
    endloop
  endfacet
  facet normal -1 0 0
    outer loop
      vertex 0 -24.3 0
      vertex 0 -32.3 9.5
      vertex 0 -31.3433 9.6903
    endloop
  endfacet
  facet normal -1 0 0
    outer loop
      vertex 0 -40.3 0
      vertex 0 -32.3 9.5
      vertex 0 -24.3 0
    endloop
  endfacet
  facet normal -1 -0 0
    outer loop
      vertex 0 -32.3 9.5
      vertex 0 -40.3 0
      vertex 0 -33.2567 9.6903
    endloop
  endfacet
  facet normal -1 -0 0
    outer loop
      vertex 0 -34.6097 11.0433
      vertex 0 -44.3 4
      vertex 0 -34.8 12
    endloop
  endfacet
  facet normal -1 -0 0
    outer loop
      vertex 0 -34.0678 10.2322
      vertex 0 -44.3 4
      vertex 0 -34.6097 11.0433
    endloop
  endfacet
  facet normal -1 0 0
    outer loop
      vertex 0 -44.3 4
      vertex 0 -34.0678 10.2322
      vertex 0 -40.3 0
    endloop
  endfacet
  facet normal -1 -0 0
    outer loop
      vertex 0 -33.2567 9.6903
      vertex 0 -40.3 0
      vertex 0 -34.0678 10.2322
    endloop
  endfacet
  facet normal -1 0 0
    outer loop
      vertex 0 44.3 36.3
      vertex 0 35.9955 42.7693
      vertex 0 36.3 44.3
    endloop
  endfacet
  facet normal -1 0 0
    outer loop
      vertex 0 44.3 36.3
      vertex 0 35.1284 41.4716
      vertex 0 35.9955 42.7693
    endloop
  endfacet
  facet normal -1 0 0
    outer loop
      vertex 0 41.8307 32.6045
      vertex 0 33.8307 40.6045
      vertex 0 35.1284 41.4716
    endloop
  endfacet
  facet normal -1 0 0
    outer loop
      vertex 0 41.8307 32.6045
      vertex 0 32.3 40.3
      vertex 0 33.8307 40.6045
    endloop
  endfacet
  facet normal -1 0 0
    outer loop
      vertex 0 41.8307 32.6045
      vertex 0 30.7693 40.6045
      vertex 0 32.3 40.3
    endloop
  endfacet
  facet normal -1 0 0
    outer loop
      vertex 0 -22.7693 0.304482
      vertex 0 30.7693 40.6045
      vertex 0 41.8307 32.6045
    endloop
  endfacet
  facet normal -1 0 0
    outer loop
      vertex 0 -22.7693 0.304482
      vertex 0 -29.9903 12.9567
      vertex 0 29.4716 41.4716
    endloop
  endfacet
  facet normal -1 0 0
    outer loop
      vertex 0 -29.9903 12.9567
      vertex 0 -22.7693 0.304482
      vertex 0 -29.8 12
    endloop
  endfacet
  facet normal -1 -0 0
    outer loop
      vertex 0 30.7693 40.6045
      vertex 0 -22.7693 0.304482
      vertex 0 29.4716 41.4716
    endloop
  endfacet
  facet normal -1 0 0
    outer loop
      vertex 0 41.8307 32.6045
      vertex 0 44.3 36.3
      vertex 0 43.9955 34.7693
    endloop
  endfacet
  facet normal -1 0 0
    outer loop
      vertex 0 41.8307 32.6045
      vertex 0 43.9955 34.7693
      vertex 0 43.1284 33.4716
    endloop
  endfacet
  facet normal -1 0 0
    outer loop
      vertex 0 35.1284 41.4716
      vertex 0 44.3 36.3
      vertex 0 41.8307 32.6045
    endloop
  endfacet
  facet normal -1 0 0
    outer loop
      vertex 0 44.3 36.3
      vertex 0 36.3 44.3
      vertex 0 35.9955 45.8307
    endloop
  endfacet
  facet normal -1 0 0
    outer loop
      vertex 0 44.3 36.3
      vertex 0 35.9955 45.8307
      vertex 0 44.3 88.6
    endloop
  endfacet
  facet normal -1 0 0
    outer loop
      vertex 0 35.1284 47.1284
      vertex 0 44.3 88.6
      vertex 0 35.9955 45.8307
    endloop
  endfacet
  facet normal -1 0 0
    outer loop
      vertex 0 33.8307 47.9955
      vertex 0 44.3 88.6
      vertex 0 35.1284 47.1284
    endloop
  endfacet
  facet normal -1 0 0
    outer loop
      vertex 0 32.3 48.3
      vertex 0 44.3 88.6
      vertex 0 33.8307 47.9955
    endloop
  endfacet
  facet normal -1 0 0
    outer loop
      vertex 0 30.7693 47.9955
      vertex 0 44.3 88.6
      vertex 0 32.3 48.3
    endloop
  endfacet
  facet normal -1 0 0
    outer loop
      vertex 0 29.4716 47.1284
      vertex 0 44.3 88.6
      vertex 0 30.7693 47.9955
    endloop
  endfacet
  facet normal -1 0 0
    outer loop
      vertex 0 -29.8 76.6
      vertex 0 29.4716 47.1284
      vertex 0 28.6045 45.8307
    endloop
  endfacet
  facet normal -1 -0 0
    outer loop
      vertex 0 29.4716 41.4716
      vertex 0 -29.9903 12.9567
      vertex 0 28.6045 42.7693
    endloop
  endfacet
  facet normal -1 0 0
    outer loop
      vertex 0 -30.5322 13.7678
      vertex 0 28.6045 42.7693
      vertex 0 -29.9903 12.9567
    endloop
  endfacet
  facet normal -1 0 0
    outer loop
      vertex 0 -30.5322 10.2322
      vertex 0 -22.7693 0.304482
      vertex 0 -24.3 0
    endloop
  endfacet
  facet normal -1 0 0
    outer loop
      vertex 0 28.3 44.3
      vertex 0 -29.8 76.6
      vertex 0 28.6045 45.8307
    endloop
  endfacet
  facet normal -1 0 0
    outer loop
      vertex 0 29.4716 47.1284
      vertex 0 -29.8 76.6
      vertex 0 44.3 88.6
    endloop
  endfacet
  facet normal -1 0 0
    outer loop
      vertex 0 -29.9903 77.5567
      vertex 0 44.3 88.6
      vertex 0 -29.8 76.6
    endloop
  endfacet
  facet normal -1 0 0
    outer loop
      vertex 0 -30.5322 78.3678
      vertex 0 44.3 88.6
      vertex 0 -29.9903 77.5567
    endloop
  endfacet
  facet normal -1 0 0
    outer loop
      vertex 0 -31.3433 78.9097
      vertex 0 44.3 88.6
      vertex 0 -30.5322 78.3678
    endloop
  endfacet
  facet normal -1 0 0
    outer loop
      vertex 0 -44.3 88.6
      vertex 0 -31.3433 78.9097
      vertex 0 -32.3 79.1
    endloop
  endfacet
  facet normal -1 0 0
    outer loop
      vertex 0 -44.3 4
      vertex 0 -40.3 0
      vertex 0 -41.8307 0.304482
    endloop
  endfacet
  facet normal -1 0 0
    outer loop
      vertex 0 -44.3 4
      vertex 0 -41.8307 0.304482
      vertex 0 -43.1284 1.17157
    endloop
  endfacet
  facet normal -1 0 0
    outer loop
      vertex 0 -44.3 4
      vertex 0 -43.1284 1.17157
      vertex 0 -43.9955 2.46927
    endloop
  endfacet
  facet normal -1 0 0
    outer loop
      vertex 0 -44.3 88.6
      vertex 0 -34.6097 75.6433
      vertex 0 -44.3 4
    endloop
  endfacet
  facet normal -1 0 0
    outer loop
      vertex 0 -31.3433 78.9097
      vertex 0 -44.3 88.6
      vertex 0 44.3 88.6
    endloop
  endfacet
  facet normal -1 0 0
    outer loop
      vertex 0 -33.2567 78.9097
      vertex 0 -44.3 88.6
      vertex 0 -32.3 79.1
    endloop
  endfacet
  facet normal -1 0 0
    outer loop
      vertex 0 -34.0678 78.3678
      vertex 0 -44.3 88.6
      vertex 0 -33.2567 78.9097
    endloop
  endfacet
  facet normal -1 0 0
    outer loop
      vertex 0 -34.6097 77.5567
      vertex 0 -44.3 88.6
      vertex 0 -34.0678 78.3678
    endloop
  endfacet
  facet normal -1 0 0
    outer loop
      vertex 0 -34.8 76.6
      vertex 0 -44.3 88.6
      vertex 0 -34.6097 77.5567
    endloop
  endfacet
  facet normal -1 0 0
    outer loop
      vertex 0 -34.6097 75.6433
      vertex 0 -44.3 88.6
      vertex 0 -34.8 76.6
    endloop
  endfacet
  facet normal 0 -0.555571 -0.831469
    outer loop
      vertex 0 -43.1284 1.17157
      vertex 6 -41.8307 0.304482
      vertex 6 -43.1284 1.17157
    endloop
  endfacet
  facet normal -0 -0.555571 -0.831469
    outer loop
      vertex 6 -41.8307 0.304482
      vertex 0 -43.1284 1.17157
      vertex 0 -41.8307 0.304482
    endloop
  endfacet
  facet normal 0 -0.980785 -0.19509
    outer loop
      vertex 0 -43.9955 2.46927
      vertex 6 -44.3 4
      vertex 0 -44.3 4
    endloop
  endfacet
  facet normal 0 -0.980785 -0.19509
    outer loop
      vertex 6 -44.3 4
      vertex 0 -43.9955 2.46927
      vertex 6 -43.9955 2.46927
    endloop
  endfacet
  facet normal 0 0.447214 -0.894427
    outer loop
      vertex 0 -22.7693 0.304482
      vertex 6 41.8307 32.6045
      vertex 6 -22.7693 0.304482
    endloop
  endfacet
  facet normal 0 0.447214 -0.894427
    outer loop
      vertex 6 41.8307 32.6045
      vertex 0 -22.7693 0.304482
      vertex 0 41.8307 32.6045
    endloop
  endfacet
  facet normal 0 -0.19509 -0.980785
    outer loop
      vertex 0 -41.8307 0.304482
      vertex 6 -40.3 0
      vertex 6 -41.8307 0.304482
    endloop
  endfacet
  facet normal -0 -0.19509 -0.980785
    outer loop
      vertex 6 -40.3 0
      vertex 0 -41.8307 0.304482
      vertex 0 -40.3 0
    endloop
  endfacet
  facet normal 0 -0.831469 -0.555571
    outer loop
      vertex 0 -43.1284 1.17157
      vertex 6 -43.9955 2.46927
      vertex 0 -43.9955 2.46927
    endloop
  endfacet
  facet normal 0 -0.831469 -0.555571
    outer loop
      vertex 6 -43.9955 2.46927
      vertex 0 -43.1284 1.17157
      vertex 6 -43.1284 1.17157
    endloop
  endfacet
  facet normal 0 0 -1
    outer loop
      vertex 0 -40.3 0
      vertex 6 -24.3 0
      vertex 6 -40.3 0
    endloop
  endfacet
  facet normal -0 0 -1
    outer loop
      vertex 6 -24.3 0
      vertex 0 -40.3 0
      vertex 0 -24.3 0
    endloop
  endfacet
  facet normal 0 0.555571 -0.831469
    outer loop
      vertex 0 41.8307 32.6045
      vertex 6 43.1284 33.4716
      vertex 6 41.8307 32.6045
    endloop
  endfacet
  facet normal 0 0.555571 -0.831469
    outer loop
      vertex 6 43.1284 33.4716
      vertex 0 41.8307 32.6045
      vertex 0 43.1284 33.4716
    endloop
  endfacet
  facet normal 0 0.980785 -0.19509
    outer loop
      vertex 6 43.9955 34.7693
      vertex 0 44.3 36.3
      vertex 6 44.3 36.3
    endloop
  endfacet
  facet normal 0 0.980785 -0.19509
    outer loop
      vertex 0 44.3 36.3
      vertex 6 43.9955 34.7693
      vertex 0 43.9955 34.7693
    endloop
  endfacet
  facet normal 0 0.831469 -0.555571
    outer loop
      vertex 6 43.1284 33.4716
      vertex 0 43.9955 34.7693
      vertex 6 43.9955 34.7693
    endloop
  endfacet
  facet normal 0 0.831469 -0.555571
    outer loop
      vertex 0 43.9955 34.7693
      vertex 6 43.1284 33.4716
      vertex 0 43.1284 33.4716
    endloop
  endfacet
  facet normal 0 0.19509 -0.980785
    outer loop
      vertex 0 -24.3 0
      vertex 6 -22.7693 0.304482
      vertex 6 -24.3 0
    endloop
  endfacet
  facet normal 0 0.19509 -0.980785
    outer loop
      vertex 6 -22.7693 0.304482
      vertex 0 -24.3 0
      vertex 0 -22.7693 0.304482
    endloop
  endfacet
  facet normal 0 -0.195089 0.980785
    outer loop
      vertex 0 -31.3433 74.2903
      vertex 6 -32.3 74.1
      vertex 6 -31.3433 74.2903
    endloop
  endfacet
  facet normal 0 -0.195089 0.980785
    outer loop
      vertex 6 -32.3 74.1
      vertex 0 -31.3433 74.2903
      vertex 0 -32.3 74.1
    endloop
  endfacet
  facet normal 0 0.195089 -0.980785
    outer loop
      vertex 0 -33.2567 78.9097
      vertex 6 -32.3 79.1
      vertex 6 -33.2567 78.9097
    endloop
  endfacet
  facet normal 0 0.195089 -0.980785
    outer loop
      vertex 6 -32.3 79.1
      vertex 0 -33.2567 78.9097
      vertex 0 -32.3 79.1
    endloop
  endfacet
  facet normal 0 -0.980785 -0.195091
    outer loop
      vertex 0 -29.8 76.6
      vertex 6 -29.9903 77.5567
      vertex 0 -29.9903 77.5567
    endloop
  endfacet
  facet normal 0 -0.980785 -0.195091
    outer loop
      vertex 6 -29.9903 77.5567
      vertex 0 -29.8 76.6
      vertex 6 -29.8 76.6
    endloop
  endfacet
  facet normal 0 0.831468 -0.555573
    outer loop
      vertex 6 -34.6097 77.5567
      vertex 0 -34.0678 78.3678
      vertex 6 -34.0678 78.3678
    endloop
  endfacet
  facet normal 0 0.831468 -0.555573
    outer loop
      vertex 0 -34.0678 78.3678
      vertex 6 -34.6097 77.5567
      vertex 0 -34.6097 77.5567
    endloop
  endfacet
  facet normal 0 -0.555569 0.83147
    outer loop
      vertex 0 -30.5322 74.8322
      vertex 6 -31.3433 74.2903
      vertex 6 -30.5322 74.8322
    endloop
  endfacet
  facet normal 0 -0.555569 0.83147
    outer loop
      vertex 6 -31.3433 74.2903
      vertex 0 -30.5322 74.8322
      vertex 0 -31.3433 74.2903
    endloop
  endfacet
  facet normal 0 -0.980785 0.195091
    outer loop
      vertex 0 -29.9903 75.6433
      vertex 6 -29.8 76.6
      vertex 0 -29.8 76.6
    endloop
  endfacet
  facet normal 0 -0.980785 0.195091
    outer loop
      vertex 6 -29.8 76.6
      vertex 0 -29.9903 75.6433
      vertex 6 -29.9903 75.6433
    endloop
  endfacet
  facet normal 0 -0.555569 -0.83147
    outer loop
      vertex 0 -31.3433 78.9097
      vertex 6 -30.5322 78.3678
      vertex 6 -31.3433 78.9097
    endloop
  endfacet
  facet normal -0 -0.555569 -0.83147
    outer loop
      vertex 6 -30.5322 78.3678
      vertex 0 -31.3433 78.9097
      vertex 0 -30.5322 78.3678
    endloop
  endfacet
  facet normal 0 -0.195089 -0.980785
    outer loop
      vertex 0 -32.3 79.1
      vertex 6 -31.3433 78.9097
      vertex 6 -32.3 79.1
    endloop
  endfacet
  facet normal -0 -0.195089 -0.980785
    outer loop
      vertex 6 -31.3433 78.9097
      vertex 0 -32.3 79.1
      vertex 0 -31.3433 78.9097
    endloop
  endfacet
  facet normal 0 -0.83147 -0.55557
    outer loop
      vertex 0 -29.9903 77.5567
      vertex 6 -30.5322 78.3678
      vertex 0 -30.5322 78.3678
    endloop
  endfacet
  facet normal 0 -0.83147 -0.55557
    outer loop
      vertex 6 -30.5322 78.3678
      vertex 0 -29.9903 77.5567
      vertex 6 -29.9903 77.5567
    endloop
  endfacet
  facet normal 0 0.831468 0.555573
    outer loop
      vertex 6 -34.0678 74.8322
      vertex 0 -34.6097 75.6433
      vertex 6 -34.6097 75.6433
    endloop
  endfacet
  facet normal 0 0.831468 0.555573
    outer loop
      vertex 0 -34.6097 75.6433
      vertex 6 -34.0678 74.8322
      vertex 0 -34.0678 74.8322
    endloop
  endfacet
  facet normal -0 0.195089 0.980785
    outer loop
      vertex 0 -32.3 74.1
      vertex 6 -33.2567 74.2903
      vertex 6 -32.3 74.1
    endloop
  endfacet
  facet normal 0 0.195089 0.980785
    outer loop
      vertex 6 -33.2567 74.2903
      vertex 0 -32.3 74.1
      vertex 0 -33.2567 74.2903
    endloop
  endfacet
  facet normal 0 0.980786 -0.195089
    outer loop
      vertex 6 -34.8 76.6
      vertex 0 -34.6097 77.5567
      vertex 6 -34.6097 77.5567
    endloop
  endfacet
  facet normal 0 0.980786 -0.195089
    outer loop
      vertex 0 -34.6097 77.5567
      vertex 6 -34.8 76.6
      vertex 0 -34.8 76.6
    endloop
  endfacet
  facet normal 0 0.55557 -0.83147
    outer loop
      vertex 0 -34.0678 78.3678
      vertex 6 -33.2567 78.9097
      vertex 6 -34.0678 78.3678
    endloop
  endfacet
  facet normal 0 0.55557 -0.83147
    outer loop
      vertex 6 -33.2567 78.9097
      vertex 0 -34.0678 78.3678
      vertex 0 -33.2567 78.9097
    endloop
  endfacet
  facet normal 0 -0.83147 0.55557
    outer loop
      vertex 0 -30.5322 74.8322
      vertex 6 -29.9903 75.6433
      vertex 0 -29.9903 75.6433
    endloop
  endfacet
  facet normal 0 -0.83147 0.55557
    outer loop
      vertex 6 -29.9903 75.6433
      vertex 0 -30.5322 74.8322
      vertex 6 -30.5322 74.8322
    endloop
  endfacet
  facet normal -0 0.55557 0.83147
    outer loop
      vertex 0 -33.2567 74.2903
      vertex 6 -34.0678 74.8322
      vertex 6 -33.2567 74.2903
    endloop
  endfacet
  facet normal 0 0.55557 0.83147
    outer loop
      vertex 6 -34.0678 74.8322
      vertex 0 -33.2567 74.2903
      vertex 0 -34.0678 74.8322
    endloop
  endfacet
  facet normal 0 0.980786 0.195089
    outer loop
      vertex 6 -34.6097 75.6433
      vertex 0 -34.8 76.6
      vertex 6 -34.8 76.6
    endloop
  endfacet
  facet normal 0 0.980786 0.195089
    outer loop
      vertex 0 -34.8 76.6
      vertex 6 -34.6097 75.6433
      vertex 0 -34.6097 75.6433
    endloop
  endfacet
  facet normal 0 -0.19509 0.980785
    outer loop
      vertex 0 -31.3433 9.6903
      vertex 6 -32.3 9.5
      vertex 6 -31.3433 9.6903
    endloop
  endfacet
  facet normal 0 -0.19509 0.980785
    outer loop
      vertex 6 -32.3 9.5
      vertex 0 -31.3433 9.6903
      vertex 0 -32.3 9.5
    endloop
  endfacet
  facet normal 0 -0.195091 -0.980785
    outer loop
      vertex 0 -32.3 14.5
      vertex 6 -31.3433 14.3097
      vertex 6 -32.3 14.5
    endloop
  endfacet
  facet normal -0 -0.195091 -0.980785
    outer loop
      vertex 6 -31.3433 14.3097
      vertex 0 -32.3 14.5
      vertex 0 -31.3433 14.3097
    endloop
  endfacet
  facet normal 0 -0.555569 0.83147
    outer loop
      vertex 0 -30.5322 10.2322
      vertex 6 -31.3433 9.6903
      vertex 6 -30.5322 10.2322
    endloop
  endfacet
  facet normal 0 -0.555569 0.83147
    outer loop
      vertex 6 -31.3433 9.6903
      vertex 0 -30.5322 10.2322
      vertex 0 -31.3433 9.6903
    endloop
  endfacet
  facet normal 0 0.980786 0.195089
    outer loop
      vertex 6 -34.6097 11.0433
      vertex 0 -34.8 12
      vertex 6 -34.8 12
    endloop
  endfacet
  facet normal 0 0.980786 0.195089
    outer loop
      vertex 0 -34.8 12
      vertex 6 -34.6097 11.0433
      vertex 0 -34.6097 11.0433
    endloop
  endfacet
  facet normal 0 0.831468 0.555572
    outer loop
      vertex 6 -34.0678 10.2322
      vertex 0 -34.6097 11.0433
      vertex 6 -34.6097 11.0433
    endloop
  endfacet
  facet normal 0 0.831468 0.555572
    outer loop
      vertex 0 -34.6097 11.0433
      vertex 6 -34.0678 10.2322
      vertex 0 -34.0678 10.2322
    endloop
  endfacet
  facet normal 0 -0.83147 0.555569
    outer loop
      vertex 0 -30.5322 10.2322
      vertex 6 -29.9903 11.0433
      vertex 0 -29.9903 11.0433
    endloop
  endfacet
  facet normal 0 -0.83147 0.555569
    outer loop
      vertex 6 -29.9903 11.0433
      vertex 0 -30.5322 10.2322
      vertex 6 -30.5322 10.2322
    endloop
  endfacet
  facet normal 0 -0.83147 -0.555569
    outer loop
      vertex 0 -29.9903 12.9567
      vertex 6 -30.5322 13.7678
      vertex 0 -30.5322 13.7678
    endloop
  endfacet
  facet normal 0 -0.83147 -0.555569
    outer loop
      vertex 6 -30.5322 13.7678
      vertex 0 -29.9903 12.9567
      vertex 6 -29.9903 12.9567
    endloop
  endfacet
  facet normal 0 -0.555569 -0.83147
    outer loop
      vertex 0 -31.3433 14.3097
      vertex 6 -30.5322 13.7678
      vertex 6 -31.3433 14.3097
    endloop
  endfacet
  facet normal -0 -0.555569 -0.83147
    outer loop
      vertex 6 -30.5322 13.7678
      vertex 0 -31.3433 14.3097
      vertex 0 -30.5322 13.7678
    endloop
  endfacet
  facet normal 0 -0.980785 -0.195091
    outer loop
      vertex 0 -29.8 12
      vertex 6 -29.9903 12.9567
      vertex 0 -29.9903 12.9567
    endloop
  endfacet
  facet normal 0 -0.980785 -0.195091
    outer loop
      vertex 6 -29.9903 12.9567
      vertex 0 -29.8 12
      vertex 6 -29.8 12
    endloop
  endfacet
  facet normal -0 0.19509 0.980785
    outer loop
      vertex 0 -32.3 9.5
      vertex 6 -33.2567 9.6903
      vertex 6 -32.3 9.5
    endloop
  endfacet
  facet normal 0 0.19509 0.980785
    outer loop
      vertex 6 -33.2567 9.6903
      vertex 0 -32.3 9.5
      vertex 0 -33.2567 9.6903
    endloop
  endfacet
  facet normal 0 -0.980785 0.195091
    outer loop
      vertex 0 -29.9903 11.0433
      vertex 6 -29.8 12
      vertex 0 -29.8 12
    endloop
  endfacet
  facet normal 0 -0.980785 0.195091
    outer loop
      vertex 6 -29.8 12
      vertex 0 -29.9903 11.0433
      vertex 6 -29.9903 11.0433
    endloop
  endfacet
  facet normal -0 0.55557 0.83147
    outer loop
      vertex 0 -33.2567 9.6903
      vertex 6 -34.0678 10.2322
      vertex 6 -33.2567 9.6903
    endloop
  endfacet
  facet normal 0 0.55557 0.83147
    outer loop
      vertex 6 -34.0678 10.2322
      vertex 0 -33.2567 9.6903
      vertex 0 -34.0678 10.2322
    endloop
  endfacet
  facet normal 0 0.831468 -0.555572
    outer loop
      vertex 6 -34.6097 12.9567
      vertex 0 -34.0678 13.7678
      vertex 6 -34.0678 13.7678
    endloop
  endfacet
  facet normal 0 0.831468 -0.555572
    outer loop
      vertex 0 -34.0678 13.7678
      vertex 6 -34.6097 12.9567
      vertex 0 -34.6097 12.9567
    endloop
  endfacet
  facet normal 0 0.55557 -0.83147
    outer loop
      vertex 0 -34.0678 13.7678
      vertex 6 -33.2567 14.3097
      vertex 6 -34.0678 13.7678
    endloop
  endfacet
  facet normal 0 0.55557 -0.83147
    outer loop
      vertex 6 -33.2567 14.3097
      vertex 0 -34.0678 13.7678
      vertex 0 -33.2567 14.3097
    endloop
  endfacet
  facet normal 0 0.195091 -0.980785
    outer loop
      vertex 0 -33.2567 14.3097
      vertex 6 -32.3 14.5
      vertex 6 -33.2567 14.3097
    endloop
  endfacet
  facet normal 0 0.195091 -0.980785
    outer loop
      vertex 6 -32.3 14.5
      vertex 0 -33.2567 14.3097
      vertex 0 -32.3 14.5
    endloop
  endfacet
  facet normal 0 0.980785 -0.195089
    outer loop
      vertex 6 -34.8 12
      vertex 0 -34.6097 12.9567
      vertex 6 -34.6097 12.9567
    endloop
  endfacet
  facet normal 0 0.980785 -0.195089
    outer loop
      vertex 0 -34.6097 12.9567
      vertex 6 -34.8 12
      vertex 0 -34.8 12
    endloop
  endfacet
  facet normal 0 -0.19509 0.980785
    outer loop
      vertex 0 33.8307 40.6045
      vertex 6 32.3 40.3
      vertex 6 33.8307 40.6045
    endloop
  endfacet
  facet normal 0 -0.19509 0.980785
    outer loop
      vertex 6 32.3 40.3
      vertex 0 33.8307 40.6045
      vertex 0 32.3 40.3
    endloop
  endfacet
  facet normal 0 0.19509 -0.980785
    outer loop
      vertex 0 30.7693 47.9955
      vertex 6 32.3 48.3
      vertex 6 30.7693 47.9955
    endloop
  endfacet
  facet normal 0 0.19509 -0.980785
    outer loop
      vertex 6 32.3 48.3
      vertex 0 30.7693 47.9955
      vertex 0 32.3 48.3
    endloop
  endfacet
  facet normal 0 -0.980785 -0.19509
    outer loop
      vertex 0 36.3 44.3
      vertex 6 35.9955 45.8307
      vertex 0 35.9955 45.8307
    endloop
  endfacet
  facet normal 0 -0.980785 -0.19509
    outer loop
      vertex 6 35.9955 45.8307
      vertex 0 36.3 44.3
      vertex 6 36.3 44.3
    endloop
  endfacet
  facet normal 0 0.980785 0.19509
    outer loop
      vertex 6 28.6045 42.7693
      vertex 0 28.3 44.3
      vertex 6 28.3 44.3
    endloop
  endfacet
  facet normal 0 0.980785 0.19509
    outer loop
      vertex 0 28.3 44.3
      vertex 6 28.6045 42.7693
      vertex 0 28.6045 42.7693
    endloop
  endfacet
  facet normal 0 0.831469 0.555571
    outer loop
      vertex 6 29.4716 41.4716
      vertex 0 28.6045 42.7693
      vertex 6 28.6045 42.7693
    endloop
  endfacet
  facet normal 0 0.831469 0.555571
    outer loop
      vertex 0 28.6045 42.7693
      vertex 6 29.4716 41.4716
      vertex 0 29.4716 41.4716
    endloop
  endfacet
  facet normal 0 -0.555571 0.831469
    outer loop
      vertex 0 35.1284 41.4716
      vertex 6 33.8307 40.6045
      vertex 6 35.1284 41.4716
    endloop
  endfacet
  facet normal 0 -0.555571 0.831469
    outer loop
      vertex 6 33.8307 40.6045
      vertex 0 35.1284 41.4716
      vertex 0 33.8307 40.6045
    endloop
  endfacet
  facet normal 0 -0.980785 0.19509
    outer loop
      vertex 0 35.9955 42.7693
      vertex 6 36.3 44.3
      vertex 0 36.3 44.3
    endloop
  endfacet
  facet normal 0 -0.980785 0.19509
    outer loop
      vertex 6 36.3 44.3
      vertex 0 35.9955 42.7693
      vertex 6 35.9955 42.7693
    endloop
  endfacet
  facet normal 0 -0.555571 -0.831469
    outer loop
      vertex 0 33.8307 47.9955
      vertex 6 35.1284 47.1284
      vertex 6 33.8307 47.9955
    endloop
  endfacet
  facet normal -0 -0.555571 -0.831469
    outer loop
      vertex 6 35.1284 47.1284
      vertex 0 33.8307 47.9955
      vertex 0 35.1284 47.1284
    endloop
  endfacet
  facet normal 0 -0.19509 -0.980785
    outer loop
      vertex 0 32.3 48.3
      vertex 6 33.8307 47.9955
      vertex 6 32.3 48.3
    endloop
  endfacet
  facet normal -0 -0.19509 -0.980785
    outer loop
      vertex 6 33.8307 47.9955
      vertex 0 32.3 48.3
      vertex 0 33.8307 47.9955
    endloop
  endfacet
  facet normal 0 -0.831469 -0.555571
    outer loop
      vertex 0 35.9955 45.8307
      vertex 6 35.1284 47.1284
      vertex 0 35.1284 47.1284
    endloop
  endfacet
  facet normal 0 -0.831469 -0.555571
    outer loop
      vertex 6 35.1284 47.1284
      vertex 0 35.9955 45.8307
      vertex 6 35.9955 45.8307
    endloop
  endfacet
  facet normal 0 -0.831469 0.555571
    outer loop
      vertex 0 35.1284 41.4716
      vertex 6 35.9955 42.7693
      vertex 0 35.9955 42.7693
    endloop
  endfacet
  facet normal 0 -0.831469 0.555571
    outer loop
      vertex 6 35.9955 42.7693
      vertex 0 35.1284 41.4716
      vertex 6 35.1284 41.4716
    endloop
  endfacet
  facet normal -0 0.555571 0.831469
    outer loop
      vertex 0 30.7693 40.6045
      vertex 6 29.4716 41.4716
      vertex 6 30.7693 40.6045
    endloop
  endfacet
  facet normal 0 0.555571 0.831469
    outer loop
      vertex 6 29.4716 41.4716
      vertex 0 30.7693 40.6045
      vertex 0 29.4716 41.4716
    endloop
  endfacet
  facet normal -0 0.19509 0.980785
    outer loop
      vertex 0 32.3 40.3
      vertex 6 30.7693 40.6045
      vertex 6 32.3 40.3
    endloop
  endfacet
  facet normal 0 0.19509 0.980785
    outer loop
      vertex 6 30.7693 40.6045
      vertex 0 32.3 40.3
      vertex 0 30.7693 40.6045
    endloop
  endfacet
  facet normal 0 0.980785 -0.19509
    outer loop
      vertex 6 28.3 44.3
      vertex 0 28.6045 45.8307
      vertex 6 28.6045 45.8307
    endloop
  endfacet
  facet normal 0 0.980785 -0.19509
    outer loop
      vertex 0 28.6045 45.8307
      vertex 6 28.3 44.3
      vertex 0 28.3 44.3
    endloop
  endfacet
  facet normal 0 0.831469 -0.555571
    outer loop
      vertex 6 28.6045 45.8307
      vertex 0 29.4716 47.1284
      vertex 6 29.4716 47.1284
    endloop
  endfacet
  facet normal 0 0.831469 -0.555571
    outer loop
      vertex 0 29.4716 47.1284
      vertex 6 28.6045 45.8307
      vertex 0 28.6045 45.8307
    endloop
  endfacet
  facet normal 0 0.555571 -0.831469
    outer loop
      vertex 0 29.4716 47.1284
      vertex 6 30.7693 47.9955
      vertex 6 29.4716 47.1284
    endloop
  endfacet
  facet normal 0 0.555571 -0.831469
    outer loop
      vertex 6 30.7693 47.9955
      vertex 0 29.4716 47.1284
      vertex 0 30.7693 47.9955
    endloop
  endfacet
endsolid OpenSCAD_Model
