solid OpenSCAD_Model
  facet normal -1 0 0
    outer loop
      vertex 0 -19 0
      vertex 0 -33 10
      vertex 0 -19 20
    endloop
  endfacet
  facet normal -1 0 0
    outer loop
      vertex 0 -19 0
      vertex 0 -33.0384 9.60982
      vertex 0 -33 10
    endloop
  endfacet
  facet normal -1 0 0
    outer loop
      vertex 0 -19 0
      vertex 0 -33.1522 9.23463
      vertex 0 -33.0384 9.60982
    endloop
  endfacet
  facet normal -1 0 0
    outer loop
      vertex 0 -19 0
      vertex 0 -33.3371 8.88886
      vertex 0 -33.1522 9.23463
    endloop
  endfacet
  facet normal -1 0 0
    outer loop
      vertex 0 -19 0
      vertex 0 -33.5858 8.58579
      vertex 0 -33.3371 8.88886
    endloop
  endfacet
  facet normal -1 0 0
    outer loop
      vertex 0 -19 0
      vertex 0 -33.8889 8.33706
      vertex 0 -33.5858 8.58579
    endloop
  endfacet
  facet normal -1 0 0
    outer loop
      vertex 0 -19 0
      vertex 0 -34.2346 8.15224
      vertex 0 -33.8889 8.33706
    endloop
  endfacet
  facet normal -1 0 0
    outer loop
      vertex 0 -19 0
      vertex 0 -34.6098 8.03843
      vertex 0 -34.2346 8.15224
    endloop
  endfacet
  facet normal -1 0 0
    outer loop
      vertex 0 -45 0
      vertex 0 -34.6098 8.03843
      vertex 0 -19 0
    endloop
  endfacet
  facet normal -1 0 0
    outer loop
      vertex 0 -34.6098 8.03843
      vertex 0 -45 0
      vertex 0 -35 8
    endloop
  endfacet
  facet normal -1 -0 0
    outer loop
      vertex 0 -35 8
      vertex 0 -45 0
      vertex 0 -35.3902 8.03843
    endloop
  endfacet
  facet normal -1 -0 0
    outer loop
      vertex 0 -36.9616 9.60982
      vertex 0 -45 0
      vertex 0 -37 10
    endloop
  endfacet
  facet normal -1 -0 0
    outer loop
      vertex 0 -36.8478 9.23463
      vertex 0 -45 0
      vertex 0 -36.9616 9.60982
    endloop
  endfacet
  facet normal -1 -0 0
    outer loop
      vertex 0 -36.6629 8.88886
      vertex 0 -45 0
      vertex 0 -36.8478 9.23463
    endloop
  endfacet
  facet normal -1 -0 0
    outer loop
      vertex 0 -36.4142 8.58579
      vertex 0 -45 0
      vertex 0 -36.6629 8.88886
    endloop
  endfacet
  facet normal -1 -0 0
    outer loop
      vertex 0 -36.1111 8.33706
      vertex 0 -45 0
      vertex 0 -36.4142 8.58579
    endloop
  endfacet
  facet normal -1 -0 0
    outer loop
      vertex 0 -35.7654 8.15224
      vertex 0 -45 0
      vertex 0 -36.1111 8.33706
    endloop
  endfacet
  facet normal -1 -0 0
    outer loop
      vertex 0 -35.3902 8.03843
      vertex 0 -45 0
      vertex 0 -35.7654 8.15224
    endloop
  endfacet
  facet normal -1 0 0
    outer loop
      vertex 0 -33.0384 10.3902
      vertex 0 -19 20
      vertex 0 -33 10
    endloop
  endfacet
  facet normal -1 0 0
    outer loop
      vertex 0 -33.1522 10.7654
      vertex 0 -19 20
      vertex 0 -33.0384 10.3902
    endloop
  endfacet
  facet normal -1 0 0
    outer loop
      vertex 0 -33.3371 11.1111
      vertex 0 -19 20
      vertex 0 -33.1522 10.7654
    endloop
  endfacet
  facet normal -1 0 0
    outer loop
      vertex 0 -33.5858 11.4142
      vertex 0 -19 20
      vertex 0 -33.3371 11.1111
    endloop
  endfacet
  facet normal -1 0 0
    outer loop
      vertex 0 -33.8889 11.6629
      vertex 0 -19 20
      vertex 0 -33.5858 11.4142
    endloop
  endfacet
  facet normal -1 0 0
    outer loop
      vertex 0 -34.2346 11.8478
      vertex 0 -19 20
      vertex 0 -33.8889 11.6629
    endloop
  endfacet
  facet normal -1 0 0
    outer loop
      vertex 0 -34.6098 11.9616
      vertex 0 -19 20
      vertex 0 -34.2346 11.8478
    endloop
  endfacet
  facet normal -1 0 0
    outer loop
      vertex 0 -45 20
      vertex 0 -34.6098 11.9616
      vertex 0 -35 12
    endloop
  endfacet
  facet normal -1 0 0
    outer loop
      vertex 0 -45 20
      vertex 0 -35 12
      vertex 0 -35.3902 11.9616
    endloop
  endfacet
  facet normal -1 0 0
    outer loop
      vertex 0 -45 20
      vertex 0 -35.3902 11.9616
      vertex 0 -35.7654 11.8478
    endloop
  endfacet
  facet normal -1 0 0
    outer loop
      vertex 0 -45 20
      vertex 0 -37 10
      vertex 0 -45 0
    endloop
  endfacet
  facet normal -1 0 0
    outer loop
      vertex 0 -37 10
      vertex 0 -45 20
      vertex 0 -36.9616 10.3902
    endloop
  endfacet
  facet normal -1 0 0
    outer loop
      vertex 0 -36.9616 10.3902
      vertex 0 -45 20
      vertex 0 -36.8478 10.7654
    endloop
  endfacet
  facet normal -1 0 0
    outer loop
      vertex 0 -34.6098 11.9616
      vertex 0 -45 20
      vertex 0 -19 20
    endloop
  endfacet
  facet normal -1 0 0
    outer loop
      vertex 0 -36.1111 11.6629
      vertex 0 -45 20
      vertex 0 -35.7654 11.8478
    endloop
  endfacet
  facet normal -1 0 0
    outer loop
      vertex 0 -36.4142 11.4142
      vertex 0 -45 20
      vertex 0 -36.1111 11.6629
    endloop
  endfacet
  facet normal -1 0 0
    outer loop
      vertex 0 -36.6629 11.1111
      vertex 0 -45 20
      vertex 0 -36.4142 11.4142
    endloop
  endfacet
  facet normal -1 0 0
    outer loop
      vertex 0 -36.8478 10.7654
      vertex 0 -45 20
      vertex 0 -36.6629 11.1111
    endloop
  endfacet
  facet normal 0 0 1
    outer loop
      vertex 6 45 20
      vertex 0 45 20
      vertex 6 25 20
    endloop
  endfacet
  facet normal 0 0 1
    outer loop
      vertex 40 25 20
      vertex 34 19 20
      vertex 40 -25 20
    endloop
  endfacet
  facet normal -0 0 1
    outer loop
      vertex 6 25 20
      vertex 34 19 20
      vertex 40 25 20
    endloop
  endfacet
  facet normal 0 0 1
    outer loop
      vertex 6 25 20
      vertex 0 19 20
      vertex 34 19 20
    endloop
  endfacet
  facet normal 0 0 1
    outer loop
      vertex 0 19 20
      vertex 6 25 20
      vertex 0 45 20
    endloop
  endfacet
  facet normal -0 0 1
    outer loop
      vertex 34 -19 20
      vertex 40 -25 20
      vertex 34 19 20
    endloop
  endfacet
  facet normal 0 0 1
    outer loop
      vertex 34 -19 20
      vertex 6 -25 20
      vertex 40 -25 20
    endloop
  endfacet
  facet normal -0 0 1
    outer loop
      vertex 0 -19 20
      vertex 6 -25 20
      vertex 34 -19 20
    endloop
  endfacet
  facet normal 0 0 1
    outer loop
      vertex 0 -45 20
      vertex 6 -25 20
      vertex 0 -19 20
    endloop
  endfacet
  facet normal 0 0 1
    outer loop
      vertex 6 -25 20
      vertex 0 -45 20
      vertex 6 -45 20
    endloop
  endfacet
  facet normal 1 0 0
    outer loop
      vertex 6 -25 20
      vertex 6 -33 10
      vertex 6 -25 0
    endloop
  endfacet
  facet normal 1 0 0
    outer loop
      vertex 6 -25 20
      vertex 6 -33.0384 10.3902
      vertex 6 -33 10
    endloop
  endfacet
  facet normal 1 0 0
    outer loop
      vertex 6 -25 20
      vertex 6 -33.1522 10.7654
      vertex 6 -33.0384 10.3902
    endloop
  endfacet
  facet normal 1 0 0
    outer loop
      vertex 6 -25 20
      vertex 6 -33.3371 11.1111
      vertex 6 -33.1522 10.7654
    endloop
  endfacet
  facet normal 1 0 0
    outer loop
      vertex 6 -25 20
      vertex 6 -33.5858 11.4142
      vertex 6 -33.3371 11.1111
    endloop
  endfacet
  facet normal 1 0 0
    outer loop
      vertex 6 -25 20
      vertex 6 -33.8889 11.6629
      vertex 6 -33.5858 11.4142
    endloop
  endfacet
  facet normal 1 0 0
    outer loop
      vertex 6 -25 20
      vertex 6 -34.2346 11.8478
      vertex 6 -33.8889 11.6629
    endloop
  endfacet
  facet normal 1 0 0
    outer loop
      vertex 6 -25 20
      vertex 6 -34.6098 11.9616
      vertex 6 -34.2346 11.8478
    endloop
  endfacet
  facet normal 1 0 0
    outer loop
      vertex 6 -25 20
      vertex 6 -35 12
      vertex 6 -34.6098 11.9616
    endloop
  endfacet
  facet normal 1 -0 0
    outer loop
      vertex 6 -45 20
      vertex 6 -35 12
      vertex 6 -25 20
    endloop
  endfacet
  facet normal 1 0 0
    outer loop
      vertex 6 -35 12
      vertex 6 -45 20
      vertex 6 -35.3902 11.9616
    endloop
  endfacet
  facet normal 1 0 0
    outer loop
      vertex 6 -35.3902 11.9616
      vertex 6 -45 20
      vertex 6 -35.7654 11.8478
    endloop
  endfacet
  facet normal 1 0 0
    outer loop
      vertex 6 -36.9616 10.3902
      vertex 6 -45 20
      vertex 6 -37 10
    endloop
  endfacet
  facet normal 1 0 0
    outer loop
      vertex 6 -36.8478 10.7654
      vertex 6 -45 20
      vertex 6 -36.9616 10.3902
    endloop
  endfacet
  facet normal 1 0 0
    outer loop
      vertex 6 -36.6629 11.1111
      vertex 6 -45 20
      vertex 6 -36.8478 10.7654
    endloop
  endfacet
  facet normal 1 0 0
    outer loop
      vertex 6 -36.4142 11.4142
      vertex 6 -45 20
      vertex 6 -36.6629 11.1111
    endloop
  endfacet
  facet normal 1 0 0
    outer loop
      vertex 6 -36.1111 11.6629
      vertex 6 -45 20
      vertex 6 -36.4142 11.4142
    endloop
  endfacet
  facet normal 1 0 0
    outer loop
      vertex 6 -35.7654 11.8478
      vertex 6 -45 20
      vertex 6 -36.1111 11.6629
    endloop
  endfacet
  facet normal 1 -0 0
    outer loop
      vertex 6 -33.0384 9.60982
      vertex 6 -25 0
      vertex 6 -33 10
    endloop
  endfacet
  facet normal 1 -0 0
    outer loop
      vertex 6 -33.1522 9.23463
      vertex 6 -25 0
      vertex 6 -33.0384 9.60982
    endloop
  endfacet
  facet normal 1 -0 0
    outer loop
      vertex 6 -33.3371 8.88886
      vertex 6 -25 0
      vertex 6 -33.1522 9.23463
    endloop
  endfacet
  facet normal 1 -0 0
    outer loop
      vertex 6 -33.5858 8.58579
      vertex 6 -25 0
      vertex 6 -33.3371 8.88886
    endloop
  endfacet
  facet normal 1 -0 0
    outer loop
      vertex 6 -33.8889 8.33706
      vertex 6 -25 0
      vertex 6 -33.5858 8.58579
    endloop
  endfacet
  facet normal 1 -0 0
    outer loop
      vertex 6 -34.2346 8.15224
      vertex 6 -25 0
      vertex 6 -33.8889 8.33706
    endloop
  endfacet
  facet normal 1 -0 0
    outer loop
      vertex 6 -34.6098 8.03843
      vertex 6 -25 0
      vertex 6 -34.2346 8.15224
    endloop
  endfacet
  facet normal 1 -0 0
    outer loop
      vertex 6 -35 8
      vertex 6 -25 0
      vertex 6 -34.6098 8.03843
    endloop
  endfacet
  facet normal 1 0 0
    outer loop
      vertex 6 -45 0
      vertex 6 -35 8
      vertex 6 -35.3902 8.03843
    endloop
  endfacet
  facet normal 1 0 0
    outer loop
      vertex 6 -45 0
      vertex 6 -35.3902 8.03843
      vertex 6 -35.7654 8.15224
    endloop
  endfacet
  facet normal 1 0 0
    outer loop
      vertex 6 -45 0
      vertex 6 -35.7654 8.15224
      vertex 6 -36.1111 8.33706
    endloop
  endfacet
  facet normal 1 0 0
    outer loop
      vertex 6 -45 0
      vertex 6 -37 10
      vertex 6 -45 20
    endloop
  endfacet
  facet normal 1 0 0
    outer loop
      vertex 6 -37 10
      vertex 6 -45 0
      vertex 6 -36.9616 9.60982
    endloop
  endfacet
  facet normal 1 0 0
    outer loop
      vertex 6 -36.9616 9.60982
      vertex 6 -45 0
      vertex 6 -36.8478 9.23463
    endloop
  endfacet
  facet normal 1 0 0
    outer loop
      vertex 6 -35 8
      vertex 6 -45 0
      vertex 6 -25 0
    endloop
  endfacet
  facet normal 1 0 0
    outer loop
      vertex 6 -36.4142 8.58579
      vertex 6 -45 0
      vertex 6 -36.1111 8.33706
    endloop
  endfacet
  facet normal 1 0 0
    outer loop
      vertex 6 -36.6629 8.88886
      vertex 6 -45 0
      vertex 6 -36.4142 8.58579
    endloop
  endfacet
  facet normal 1 0 0
    outer loop
      vertex 6 -36.8478 9.23463
      vertex 6 -45 0
      vertex 6 -36.6629 8.88886
    endloop
  endfacet
  facet normal 0 -1 0
    outer loop
      vertex 6 -25 0
      vertex 40 -25 20
      vertex 6 -25 20
    endloop
  endfacet
  facet normal 0 -1 -0
    outer loop
      vertex 40 -25 20
      vertex 6 -25 0
      vertex 40 -25 0
    endloop
  endfacet
  facet normal 0 0 -1
    outer loop
      vertex 6 -45 0
      vertex 0 -45 0
      vertex 6 -25 0
    endloop
  endfacet
  facet normal 0 0 -1
    outer loop
      vertex 40 -25 0
      vertex 34 -19 0
      vertex 40 25 0
    endloop
  endfacet
  facet normal 0 0 -1
    outer loop
      vertex 6 -25 0
      vertex 34 -19 0
      vertex 40 -25 0
    endloop
  endfacet
  facet normal 0 0 -1
    outer loop
      vertex 6 -25 0
      vertex 0 -19 0
      vertex 34 -19 0
    endloop
  endfacet
  facet normal 0 0 -1
    outer loop
      vertex 0 -19 0
      vertex 6 -25 0
      vertex 0 -45 0
    endloop
  endfacet
  facet normal 0 0 -1
    outer loop
      vertex 34 19 0
      vertex 40 25 0
      vertex 34 -19 0
    endloop
  endfacet
  facet normal 0 0 -1
    outer loop
      vertex 34 19 0
      vertex 6 25 0
      vertex 40 25 0
    endloop
  endfacet
  facet normal 0 0 -1
    outer loop
      vertex 0 19 0
      vertex 6 25 0
      vertex 34 19 0
    endloop
  endfacet
  facet normal 0 0 -1
    outer loop
      vertex 0 45 0
      vertex 6 25 0
      vertex 0 19 0
    endloop
  endfacet
  facet normal 0 0 -1
    outer loop
      vertex 6 25 0
      vertex 0 45 0
      vertex 6 45 0
    endloop
  endfacet
  facet normal 0 -1 0
    outer loop
      vertex 0 -45 0
      vertex 6 -45 20
      vertex 0 -45 20
    endloop
  endfacet
  facet normal 0 -1 -0
    outer loop
      vertex 6 -45 20
      vertex 0 -45 0
      vertex 6 -45 0
    endloop
  endfacet
  facet normal -1 0 0
    outer loop
      vertex 0 45 0
      vertex 0 37 10
      vertex 0 45 20
    endloop
  endfacet
  facet normal -1 0 0
    outer loop
      vertex 0 45 0
      vertex 0 36.9616 9.60982
      vertex 0 37 10
    endloop
  endfacet
  facet normal -1 0 0
    outer loop
      vertex 0 45 0
      vertex 0 36.8478 9.23463
      vertex 0 36.9616 9.60982
    endloop
  endfacet
  facet normal -1 0 0
    outer loop
      vertex 0 45 0
      vertex 0 36.6629 8.88886
      vertex 0 36.8478 9.23463
    endloop
  endfacet
  facet normal -1 0 0
    outer loop
      vertex 0 45 0
      vertex 0 36.4142 8.58579
      vertex 0 36.6629 8.88886
    endloop
  endfacet
  facet normal -1 0 0
    outer loop
      vertex 0 45 0
      vertex 0 36.1111 8.33706
      vertex 0 36.4142 8.58579
    endloop
  endfacet
  facet normal -1 0 0
    outer loop
      vertex 0 45 0
      vertex 0 35.7654 8.15224
      vertex 0 36.1111 8.33706
    endloop
  endfacet
  facet normal -1 0 0
    outer loop
      vertex 0 45 0
      vertex 0 35.3902 8.03843
      vertex 0 35.7654 8.15224
    endloop
  endfacet
  facet normal -1 0 0
    outer loop
      vertex 0 45 0
      vertex 0 35 8
      vertex 0 35.3902 8.03843
    endloop
  endfacet
  facet normal -1 0 0
    outer loop
      vertex 0 45 0
      vertex 0 34.6098 8.03843
      vertex 0 35 8
    endloop
  endfacet
  facet normal -1 0 0
    outer loop
      vertex 0 19 0
      vertex 0 34.6098 8.03843
      vertex 0 45 0
    endloop
  endfacet
  facet normal -1 -0 0
    outer loop
      vertex 0 34.6098 8.03843
      vertex 0 19 0
      vertex 0 34.2346 8.15224
    endloop
  endfacet
  facet normal -1 -0 0
    outer loop
      vertex 0 33.0384 9.60982
      vertex 0 19 0
      vertex 0 33 10
    endloop
  endfacet
  facet normal -1 -0 0
    outer loop
      vertex 0 33.1522 9.23463
      vertex 0 19 0
      vertex 0 33.0384 9.60982
    endloop
  endfacet
  facet normal -1 -0 0
    outer loop
      vertex 0 33.3371 8.88886
      vertex 0 19 0
      vertex 0 33.1522 9.23463
    endloop
  endfacet
  facet normal -1 -0 0
    outer loop
      vertex 0 33.5858 8.58579
      vertex 0 19 0
      vertex 0 33.3371 8.88886
    endloop
  endfacet
  facet normal -1 -0 0
    outer loop
      vertex 0 33.8889 8.33706
      vertex 0 19 0
      vertex 0 33.5858 8.58579
    endloop
  endfacet
  facet normal -1 -0 0
    outer loop
      vertex 0 34.2346 8.15224
      vertex 0 19 0
      vertex 0 33.8889 8.33706
    endloop
  endfacet
  facet normal -1 0 0
    outer loop
      vertex 0 36.9616 10.3902
      vertex 0 45 20
      vertex 0 37 10
    endloop
  endfacet
  facet normal -1 0 0
    outer loop
      vertex 0 36.8478 10.7654
      vertex 0 45 20
      vertex 0 36.9616 10.3902
    endloop
  endfacet
  facet normal -1 0 0
    outer loop
      vertex 0 36.6629 11.1111
      vertex 0 45 20
      vertex 0 36.8478 10.7654
    endloop
  endfacet
  facet normal -1 0 0
    outer loop
      vertex 0 36.4142 11.4142
      vertex 0 45 20
      vertex 0 36.6629 11.1111
    endloop
  endfacet
  facet normal -1 0 0
    outer loop
      vertex 0 36.1111 11.6629
      vertex 0 45 20
      vertex 0 36.4142 11.4142
    endloop
  endfacet
  facet normal -1 0 0
    outer loop
      vertex 0 35.7654 11.8478
      vertex 0 45 20
      vertex 0 36.1111 11.6629
    endloop
  endfacet
  facet normal -1 0 0
    outer loop
      vertex 0 35.3902 11.9616
      vertex 0 45 20
      vertex 0 35.7654 11.8478
    endloop
  endfacet
  facet normal -1 0 0
    outer loop
      vertex 0 35 12
      vertex 0 45 20
      vertex 0 35.3902 11.9616
    endloop
  endfacet
  facet normal -1 0 0
    outer loop
      vertex 0 34.6098 11.9616
      vertex 0 45 20
      vertex 0 35 12
    endloop
  endfacet
  facet normal -1 0 0
    outer loop
      vertex 0 19 20
      vertex 0 34.6098 11.9616
      vertex 0 34.2346 11.8478
    endloop
  endfacet
  facet normal -1 0 0
    outer loop
      vertex 0 19 20
      vertex 0 34.2346 11.8478
      vertex 0 33.8889 11.6629
    endloop
  endfacet
  facet normal -1 0 0
    outer loop
      vertex 0 19 20
      vertex 0 33 10
      vertex 0 19 0
    endloop
  endfacet
  facet normal -1 0 0
    outer loop
      vertex 0 33 10
      vertex 0 19 20
      vertex 0 33.0384 10.3902
    endloop
  endfacet
  facet normal -1 0 0
    outer loop
      vertex 0 33.0384 10.3902
      vertex 0 19 20
      vertex 0 33.1522 10.7654
    endloop
  endfacet
  facet normal -1 0 0
    outer loop
      vertex 0 33.1522 10.7654
      vertex 0 19 20
      vertex 0 33.3371 11.1111
    endloop
  endfacet
  facet normal -1 0 0
    outer loop
      vertex 0 33.3371 11.1111
      vertex 0 19 20
      vertex 0 33.5858 11.4142
    endloop
  endfacet
  facet normal -1 0 0
    outer loop
      vertex 0 34.6098 11.9616
      vertex 0 19 20
      vertex 0 45 20
    endloop
  endfacet
  facet normal -1 0 0
    outer loop
      vertex 0 33.5858 11.4142
      vertex 0 19 20
      vertex 0 33.8889 11.6629
    endloop
  endfacet
  facet normal 1 0 0
    outer loop
      vertex 6 45 20
      vertex 6 37 10
      vertex 6 45 0
    endloop
  endfacet
  facet normal 1 0 0
    outer loop
      vertex 6 45 20
      vertex 6 36.9616 10.3902
      vertex 6 37 10
    endloop
  endfacet
  facet normal 1 0 0
    outer loop
      vertex 6 45 20
      vertex 6 36.8478 10.7654
      vertex 6 36.9616 10.3902
    endloop
  endfacet
  facet normal 1 0 0
    outer loop
      vertex 6 45 20
      vertex 6 36.6629 11.1111
      vertex 6 36.8478 10.7654
    endloop
  endfacet
  facet normal 1 0 0
    outer loop
      vertex 6 45 20
      vertex 6 36.4142 11.4142
      vertex 6 36.6629 11.1111
    endloop
  endfacet
  facet normal 1 0 0
    outer loop
      vertex 6 45 20
      vertex 6 36.1111 11.6629
      vertex 6 36.4142 11.4142
    endloop
  endfacet
  facet normal 1 0 0
    outer loop
      vertex 6 45 20
      vertex 6 35.7654 11.8478
      vertex 6 36.1111 11.6629
    endloop
  endfacet
  facet normal 1 0 0
    outer loop
      vertex 6 45 20
      vertex 6 35.3902 11.9616
      vertex 6 35.7654 11.8478
    endloop
  endfacet
  facet normal 1 0 0
    outer loop
      vertex 6 45 20
      vertex 6 35 12
      vertex 6 35.3902 11.9616
    endloop
  endfacet
  facet normal 1 -0 0
    outer loop
      vertex 6 25 20
      vertex 6 35 12
      vertex 6 45 20
    endloop
  endfacet
  facet normal 1 0 0
    outer loop
      vertex 6 35 12
      vertex 6 25 20
      vertex 6 34.6098 11.9616
    endloop
  endfacet
  facet normal 1 0 0
    outer loop
      vertex 6 34.6098 11.9616
      vertex 6 25 20
      vertex 6 34.2346 11.8478
    endloop
  endfacet
  facet normal 1 0 0
    outer loop
      vertex 6 33.0384 10.3902
      vertex 6 25 20
      vertex 6 33 10
    endloop
  endfacet
  facet normal 1 0 0
    outer loop
      vertex 6 33.1522 10.7654
      vertex 6 25 20
      vertex 6 33.0384 10.3902
    endloop
  endfacet
  facet normal 1 0 0
    outer loop
      vertex 6 33.3371 11.1111
      vertex 6 25 20
      vertex 6 33.1522 10.7654
    endloop
  endfacet
  facet normal 1 0 0
    outer loop
      vertex 6 33.5858 11.4142
      vertex 6 25 20
      vertex 6 33.3371 11.1111
    endloop
  endfacet
  facet normal 1 0 0
    outer loop
      vertex 6 33.8889 11.6629
      vertex 6 25 20
      vertex 6 33.5858 11.4142
    endloop
  endfacet
  facet normal 1 0 0
    outer loop
      vertex 6 34.2346 11.8478
      vertex 6 25 20
      vertex 6 33.8889 11.6629
    endloop
  endfacet
  facet normal 1 -0 0
    outer loop
      vertex 6 36.9616 9.60982
      vertex 6 45 0
      vertex 6 37 10
    endloop
  endfacet
  facet normal 1 -0 0
    outer loop
      vertex 6 36.8478 9.23463
      vertex 6 45 0
      vertex 6 36.9616 9.60982
    endloop
  endfacet
  facet normal 1 -0 0
    outer loop
      vertex 6 36.6629 8.88886
      vertex 6 45 0
      vertex 6 36.8478 9.23463
    endloop
  endfacet
  facet normal 1 -0 0
    outer loop
      vertex 6 36.4142 8.58579
      vertex 6 45 0
      vertex 6 36.6629 8.88886
    endloop
  endfacet
  facet normal 1 -0 0
    outer loop
      vertex 6 36.1111 8.33706
      vertex 6 45 0
      vertex 6 36.4142 8.58579
    endloop
  endfacet
  facet normal 1 -0 0
    outer loop
      vertex 6 35.7654 8.15224
      vertex 6 45 0
      vertex 6 36.1111 8.33706
    endloop
  endfacet
  facet normal 1 -0 0
    outer loop
      vertex 6 35.3902 8.03843
      vertex 6 45 0
      vertex 6 35.7654 8.15224
    endloop
  endfacet
  facet normal 1 -0 0
    outer loop
      vertex 6 35 8
      vertex 6 45 0
      vertex 6 35.3902 8.03843
    endloop
  endfacet
  facet normal 1 0 0
    outer loop
      vertex 6 25 0
      vertex 6 35 8
      vertex 6 34.6098 8.03843
    endloop
  endfacet
  facet normal 1 0 0
    outer loop
      vertex 6 25 0
      vertex 6 34.6098 8.03843
      vertex 6 34.2346 8.15224
    endloop
  endfacet
  facet normal 1 0 0
    outer loop
      vertex 6 25 0
      vertex 6 34.2346 8.15224
      vertex 6 33.8889 8.33706
    endloop
  endfacet
  facet normal 1 0 0
    outer loop
      vertex 6 25 0
      vertex 6 33 10
      vertex 6 25 20
    endloop
  endfacet
  facet normal 1 0 0
    outer loop
      vertex 6 33 10
      vertex 6 25 0
      vertex 6 33.0384 9.60982
    endloop
  endfacet
  facet normal 1 0 0
    outer loop
      vertex 6 33.0384 9.60982
      vertex 6 25 0
      vertex 6 33.1522 9.23463
    endloop
  endfacet
  facet normal 1 0 0
    outer loop
      vertex 6 35 8
      vertex 6 25 0
      vertex 6 45 0
    endloop
  endfacet
  facet normal 1 0 0
    outer loop
      vertex 6 33.5858 8.58579
      vertex 6 25 0
      vertex 6 33.8889 8.33706
    endloop
  endfacet
  facet normal 1 0 0
    outer loop
      vertex 6 33.3371 8.88886
      vertex 6 25 0
      vertex 6 33.5858 8.58579
    endloop
  endfacet
  facet normal 1 0 0
    outer loop
      vertex 6 33.1522 9.23463
      vertex 6 25 0
      vertex 6 33.3371 8.88886
    endloop
  endfacet
  facet normal 0 1 -0
    outer loop
      vertex 6 45 0
      vertex 0 45 20
      vertex 6 45 20
    endloop
  endfacet
  facet normal 0 1 0
    outer loop
      vertex 0 45 20
      vertex 6 45 0
      vertex 0 45 0
    endloop
  endfacet
  facet normal 0 1 -0
    outer loop
      vertex 40 25 0
      vertex 6 25 20
      vertex 40 25 20
    endloop
  endfacet
  facet normal 0 1 0
    outer loop
      vertex 6 25 20
      vertex 40 25 0
      vertex 6 25 0
    endloop
  endfacet
  facet normal 1 0 0
    outer loop
      vertex 40 25 20
      vertex 40 13.5 12.0207
      vertex 40 25 0
    endloop
  endfacet
  facet normal 1 0 0
    outer loop
      vertex 40 25 20
      vertex 40 10 14.0414
      vertex 40 13.5 12.0207
    endloop
  endfacet
  facet normal 1 0 0
    outer loop
      vertex 40 6.5 12.0207
      vertex 40 -8 10
      vertex 40 6.5 7.97927
    endloop
  endfacet
  facet normal 1 0 0
    outer loop
      vertex 40 -9.23463 11.8478
      vertex 40 6.5 12.0207
      vertex 40 10 14.0414
    endloop
  endfacet
  facet normal 1 -0 0
    outer loop
      vertex 40 -25 20
      vertex 40 10 14.0414
      vertex 40 25 20
    endloop
  endfacet
  facet normal 1 0 0
    outer loop
      vertex 40 6.5 12.0207
      vertex 40 -8.03843 10.3902
      vertex 40 -8 10
    endloop
  endfacet
  facet normal 1 0 0
    outer loop
      vertex 40 6.5 12.0207
      vertex 40 -8.15224 10.7654
      vertex 40 -8.03843 10.3902
    endloop
  endfacet
  facet normal 1 0 0
    outer loop
      vertex 40 6.5 12.0207
      vertex 40 -8.33706 11.1111
      vertex 40 -8.15224 10.7654
    endloop
  endfacet
  facet normal 1 0 0
    outer loop
      vertex 40 6.5 12.0207
      vertex 40 -8.58579 11.4142
      vertex 40 -8.33706 11.1111
    endloop
  endfacet
  facet normal 1 0 0
    outer loop
      vertex 40 6.5 12.0207
      vertex 40 -8.88886 11.6629
      vertex 40 -8.58579 11.4142
    endloop
  endfacet
  facet normal 1 0 0
    outer loop
      vertex 40 6.5 12.0207
      vertex 40 -9.23463 11.8478
      vertex 40 -8.88886 11.6629
    endloop
  endfacet
  facet normal 1 0 0
    outer loop
      vertex 40 10 14.0414
      vertex 40 -9.60982 11.9616
      vertex 40 -9.23463 11.8478
    endloop
  endfacet
  facet normal 1 0 0
    outer loop
      vertex 40 10 14.0414
      vertex 40 -25 20
      vertex 40 -9.60982 11.9616
    endloop
  endfacet
  facet normal 1 0 0
    outer loop
      vertex 40 -9.60982 11.9616
      vertex 40 -25 20
      vertex 40 -10 12
    endloop
  endfacet
  facet normal 1 0 0
    outer loop
      vertex 40 -11.9616 10.3902
      vertex 40 -25 20
      vertex 40 -12 10
    endloop
  endfacet
  facet normal 1 0 0
    outer loop
      vertex 40 -11.8478 10.7654
      vertex 40 -25 20
      vertex 40 -11.9616 10.3902
    endloop
  endfacet
  facet normal 1 0 0
    outer loop
      vertex 40 -11.6629 11.1111
      vertex 40 -25 20
      vertex 40 -11.8478 10.7654
    endloop
  endfacet
  facet normal 1 0 0
    outer loop
      vertex 40 -11.4142 11.4142
      vertex 40 -25 20
      vertex 40 -11.6629 11.1111
    endloop
  endfacet
  facet normal 1 0 0
    outer loop
      vertex 40 -11.1111 11.6629
      vertex 40 -25 20
      vertex 40 -11.4142 11.4142
    endloop
  endfacet
  facet normal 1 0 0
    outer loop
      vertex 40 -10.7654 11.8478
      vertex 40 -25 20
      vertex 40 -11.1111 11.6629
    endloop
  endfacet
  facet normal 1 0 0
    outer loop
      vertex 40 -10.3902 11.9616
      vertex 40 -25 20
      vertex 40 -10.7654 11.8478
    endloop
  endfacet
  facet normal 1 0 0
    outer loop
      vertex 40 -10 12
      vertex 40 -25 20
      vertex 40 -10.3902 11.9616
    endloop
  endfacet
  facet normal 1 -0 0
    outer loop
      vertex 40 13.5 7.97927
      vertex 40 25 0
      vertex 40 13.5 12.0207
    endloop
  endfacet
  facet normal 1 -0 0
    outer loop
      vertex 40 10 5.95855
      vertex 40 25 0
      vertex 40 13.5 7.97927
    endloop
  endfacet
  facet normal 1 -0 0
    outer loop
      vertex 40 -8.03843 9.60982
      vertex 40 6.5 7.97927
      vertex 40 -8 10
    endloop
  endfacet
  facet normal 1 -0 0
    outer loop
      vertex 40 -8.15224 9.23463
      vertex 40 6.5 7.97927
      vertex 40 -8.03843 9.60982
    endloop
  endfacet
  facet normal 1 -0 0
    outer loop
      vertex 40 -8.33706 8.88886
      vertex 40 6.5 7.97927
      vertex 40 -8.15224 9.23463
    endloop
  endfacet
  facet normal 1 -0 0
    outer loop
      vertex 40 -8.58579 8.58579
      vertex 40 6.5 7.97927
      vertex 40 -8.33706 8.88886
    endloop
  endfacet
  facet normal 1 -0 0
    outer loop
      vertex 40 -8.88886 8.33706
      vertex 40 6.5 7.97927
      vertex 40 -8.58579 8.58579
    endloop
  endfacet
  facet normal 1 -0 0
    outer loop
      vertex 40 -9.23463 8.15224
      vertex 40 6.5 7.97927
      vertex 40 -8.88886 8.33706
    endloop
  endfacet
  facet normal 1 0 0
    outer loop
      vertex 40 6.5 7.97927
      vertex 40 -9.23463 8.15224
      vertex 40 10 5.95855
    endloop
  endfacet
  facet normal 1 -0 0
    outer loop
      vertex 40 -9.60982 8.03843
      vertex 40 10 5.95855
      vertex 40 -9.23463 8.15224
    endloop
  endfacet
  facet normal 1 0 0
    outer loop
      vertex 40 -25 0
      vertex 40 10 5.95855
      vertex 40 -9.60982 8.03843
    endloop
  endfacet
  facet normal 1 0 0
    outer loop
      vertex 40 -25 0
      vertex 40 -9.60982 8.03843
      vertex 40 -10 8
    endloop
  endfacet
  facet normal 1 0 0
    outer loop
      vertex 40 -25 0
      vertex 40 -10 8
      vertex 40 -10.3902 8.03843
    endloop
  endfacet
  facet normal 1 0 0
    outer loop
      vertex 40 -25 0
      vertex 40 -12 10
      vertex 40 -25 20
    endloop
  endfacet
  facet normal 1 0 0
    outer loop
      vertex 40 -12 10
      vertex 40 -25 0
      vertex 40 -11.9616 9.60982
    endloop
  endfacet
  facet normal 1 0 0
    outer loop
      vertex 40 -11.9616 9.60982
      vertex 40 -25 0
      vertex 40 -11.8478 9.23463
    endloop
  endfacet
  facet normal 1 0 0
    outer loop
      vertex 40 -11.8478 9.23463
      vertex 40 -25 0
      vertex 40 -11.6629 8.88886
    endloop
  endfacet
  facet normal 1 0 0
    outer loop
      vertex 40 10 5.95855
      vertex 40 -25 0
      vertex 40 25 0
    endloop
  endfacet
  facet normal 1 0 0
    outer loop
      vertex 40 -10.7654 8.15224
      vertex 40 -25 0
      vertex 40 -10.3902 8.03843
    endloop
  endfacet
  facet normal 1 0 0
    outer loop
      vertex 40 -11.1111 8.33706
      vertex 40 -25 0
      vertex 40 -10.7654 8.15224
    endloop
  endfacet
  facet normal 1 0 0
    outer loop
      vertex 40 -11.4142 8.58579
      vertex 40 -25 0
      vertex 40 -11.1111 8.33706
    endloop
  endfacet
  facet normal 1 0 0
    outer loop
      vertex 40 -11.6629 8.88886
      vertex 40 -25 0
      vertex 40 -11.4142 8.58579
    endloop
  endfacet
  facet normal 0 1 -0
    outer loop
      vertex 34 -19 0
      vertex 0 -19 20
      vertex 34 -19 20
    endloop
  endfacet
  facet normal 0 1 0
    outer loop
      vertex 0 -19 20
      vertex 34 -19 0
      vertex 0 -19 0
    endloop
  endfacet
  facet normal 0 -1 0
    outer loop
      vertex 0 19 0
      vertex 34 19 20
      vertex 0 19 20
    endloop
  endfacet
  facet normal 0 -1 -0
    outer loop
      vertex 34 19 20
      vertex 0 19 0
      vertex 34 19 0
    endloop
  endfacet
  facet normal -1 0 0
    outer loop
      vertex 34 19 0
      vertex 34 12 10
      vertex 34 19 20
    endloop
  endfacet
  facet normal -1 0 0
    outer loop
      vertex 34 19 0
      vertex 34 11.9616 9.60982
      vertex 34 12 10
    endloop
  endfacet
  facet normal -1 0 0
    outer loop
      vertex 34 19 0
      vertex 34 11.8478 9.23463
      vertex 34 11.9616 9.60982
    endloop
  endfacet
  facet normal -1 0 0
    outer loop
      vertex 34 19 0
      vertex 34 11.6629 8.88886
      vertex 34 11.8478 9.23463
    endloop
  endfacet
  facet normal -1 0 0
    outer loop
      vertex 34 19 0
      vertex 34 11.4142 8.58579
      vertex 34 11.6629 8.88886
    endloop
  endfacet
  facet normal -1 0 0
    outer loop
      vertex 34 19 0
      vertex 34 11.1111 8.33706
      vertex 34 11.4142 8.58579
    endloop
  endfacet
  facet normal -1 0 0
    outer loop
      vertex 34 19 0
      vertex 34 10.7654 8.15224
      vertex 34 11.1111 8.33706
    endloop
  endfacet
  facet normal -1 0 0
    outer loop
      vertex 34 19 0
      vertex 34 10.3902 8.03843
      vertex 34 10.7654 8.15224
    endloop
  endfacet
  facet normal -1 0 0
    outer loop
      vertex 34 19 0
      vertex 34 10 8
      vertex 34 10.3902 8.03843
    endloop
  endfacet
  facet normal -1 0 0
    outer loop
      vertex 34 19 0
      vertex 34 9.60982 8.03843
      vertex 34 10 8
    endloop
  endfacet
  facet normal -1 0 0
    outer loop
      vertex 34 19 0
      vertex 34 9.23463 8.15224
      vertex 34 9.60982 8.03843
    endloop
  endfacet
  facet normal -1 0 0
    outer loop
      vertex 34 -10 5.95855
      vertex 34 9.23463 8.15224
      vertex 34 19 0
    endloop
  endfacet
  facet normal -1 0 -0
    outer loop
      vertex 34 -6.5 7.97927
      vertex 34 9.23463 8.15224
      vertex 34 -10 5.95855
    endloop
  endfacet
  facet normal -1 -0 0
    outer loop
      vertex 34 8.03843 9.60982
      vertex 34 -6.5 7.97927
      vertex 34 8 10
    endloop
  endfacet
  facet normal -1 -0 0
    outer loop
      vertex 34 8.15224 9.23463
      vertex 34 -6.5 7.97927
      vertex 34 8.03843 9.60982
    endloop
  endfacet
  facet normal -1 -0 0
    outer loop
      vertex 34 8.33706 8.88886
      vertex 34 -6.5 7.97927
      vertex 34 8.15224 9.23463
    endloop
  endfacet
  facet normal -1 -0 0
    outer loop
      vertex 34 8.58579 8.58579
      vertex 34 -6.5 7.97927
      vertex 34 8.33706 8.88886
    endloop
  endfacet
  facet normal -1 -0 0
    outer loop
      vertex 34 8.88886 8.33706
      vertex 34 -6.5 7.97927
      vertex 34 8.58579 8.58579
    endloop
  endfacet
  facet normal -1 -0 0
    outer loop
      vertex 34 9.23463 8.15224
      vertex 34 -6.5 7.97927
      vertex 34 8.88886 8.33706
    endloop
  endfacet
  facet normal -1 -0 0
    outer loop
      vertex 34 -13.5 7.97927
      vertex 34 -19 0
      vertex 34 -13.5 12.0207
    endloop
  endfacet
  facet normal -1 -0 0
    outer loop
      vertex 34 -10 5.95855
      vertex 34 -19 0
      vertex 34 -13.5 7.97927
    endloop
  endfacet
  facet normal -1 0 0
    outer loop
      vertex 34 -19 0
      vertex 34 -10 5.95855
      vertex 34 19 0
    endloop
  endfacet
  facet normal -1 0 0
    outer loop
      vertex 34 11.9616 10.3902
      vertex 34 19 20
      vertex 34 12 10
    endloop
  endfacet
  facet normal -1 0 0
    outer loop
      vertex 34 11.8478 10.7654
      vertex 34 19 20
      vertex 34 11.9616 10.3902
    endloop
  endfacet
  facet normal -1 0 0
    outer loop
      vertex 34 11.6629 11.1111
      vertex 34 19 20
      vertex 34 11.8478 10.7654
    endloop
  endfacet
  facet normal -1 0 0
    outer loop
      vertex 34 11.4142 11.4142
      vertex 34 19 20
      vertex 34 11.6629 11.1111
    endloop
  endfacet
  facet normal -1 0 0
    outer loop
      vertex 34 11.1111 11.6629
      vertex 34 19 20
      vertex 34 11.4142 11.4142
    endloop
  endfacet
  facet normal -1 0 0
    outer loop
      vertex 34 10.7654 11.8478
      vertex 34 19 20
      vertex 34 11.1111 11.6629
    endloop
  endfacet
  facet normal -1 0 0
    outer loop
      vertex 34 10.3902 11.9616
      vertex 34 19 20
      vertex 34 10.7654 11.8478
    endloop
  endfacet
  facet normal -1 0 0
    outer loop
      vertex 34 10 12
      vertex 34 19 20
      vertex 34 10.3902 11.9616
    endloop
  endfacet
  facet normal -1 0 0
    outer loop
      vertex 34 9.60982 11.9616
      vertex 34 19 20
      vertex 34 10 12
    endloop
  endfacet
  facet normal -1 0 0
    outer loop
      vertex 34 9.23463 11.8478
      vertex 34 19 20
      vertex 34 9.60982 11.9616
    endloop
  endfacet
  facet normal -1 0 0
    outer loop
      vertex 34 -6.5 12.0207
      vertex 34 9.23463 11.8478
      vertex 34 8.88886 11.6629
    endloop
  endfacet
  facet normal -1 0 0
    outer loop
      vertex 34 -6.5 12.0207
      vertex 34 8.88886 11.6629
      vertex 34 8.58579 11.4142
    endloop
  endfacet
  facet normal -1 0 0
    outer loop
      vertex 34 -6.5 12.0207
      vertex 34 8 10
      vertex 34 -6.5 7.97927
    endloop
  endfacet
  facet normal -1 0 0
    outer loop
      vertex 34 8 10
      vertex 34 -6.5 12.0207
      vertex 34 8.03843 10.3902
    endloop
  endfacet
  facet normal -1 0 0
    outer loop
      vertex 34 8.03843 10.3902
      vertex 34 -6.5 12.0207
      vertex 34 8.15224 10.7654
    endloop
  endfacet
  facet normal -1 0 0
    outer loop
      vertex 34 8.15224 10.7654
      vertex 34 -6.5 12.0207
      vertex 34 8.33706 11.1111
    endloop
  endfacet
  facet normal -1 0 0
    outer loop
      vertex 34 8.33706 11.1111
      vertex 34 -6.5 12.0207
      vertex 34 8.58579 11.4142
    endloop
  endfacet
  facet normal -1 0 0
    outer loop
      vertex 34 9.23463 11.8478
      vertex 34 -6.5 12.0207
      vertex 34 -10 14.0414
    endloop
  endfacet
  facet normal -1 0 0
    outer loop
      vertex 34 9.23463 11.8478
      vertex 34 -10 14.0414
      vertex 34 19 20
    endloop
  endfacet
  facet normal -1 0 0
    outer loop
      vertex 34 -10 14.0414
      vertex 34 -19 20
      vertex 34 19 20
    endloop
  endfacet
  facet normal -1 0 0
    outer loop
      vertex 34 -13.5 12.0207
      vertex 34 -19 20
      vertex 34 -10 14.0414
    endloop
  endfacet
  facet normal -1 0 0
    outer loop
      vertex 34 -19 20
      vertex 34 -13.5 12.0207
      vertex 34 -19 0
    endloop
  endfacet
  facet normal 0 -0.0980162 0.995185
    outer loop
      vertex 0 -34.6098 8.03843
      vertex 6 -35 8
      vertex 6 -34.6098 8.03843
    endloop
  endfacet
  facet normal 0 -0.0980162 0.995185
    outer loop
      vertex 6 -35 8
      vertex 0 -34.6098 8.03843
      vertex 0 -35 8
    endloop
  endfacet
  facet normal 0 -0.0980186 -0.995185
    outer loop
      vertex 0 -35 12
      vertex 6 -34.6098 11.9616
      vertex 6 -35 12
    endloop
  endfacet
  facet normal -0 -0.0980186 -0.995185
    outer loop
      vertex 6 -34.6098 11.9616
      vertex 0 -35 12
      vertex 0 -34.6098 11.9616
    endloop
  endfacet
  facet normal 0 -0.995185 -0.0980167
    outer loop
      vertex 0 -33 10
      vertex 6 -33.0384 10.3902
      vertex 0 -33.0384 10.3902
    endloop
  endfacet
  facet normal 0 -0.995185 -0.0980167
    outer loop
      vertex 6 -33.0384 10.3902
      vertex 0 -33 10
      vertex 6 -33 10
    endloop
  endfacet
  facet normal 0 0.995185 -0.0980167
    outer loop
      vertex 6 -37 10
      vertex 0 -36.9616 10.3902
      vertex 6 -36.9616 10.3902
    endloop
  endfacet
  facet normal 0 0.995185 -0.0980167
    outer loop
      vertex 0 -36.9616 10.3902
      vertex 6 -37 10
      vertex 0 -37 10
    endloop
  endfacet
  facet normal 0 0.634393 -0.773011
    outer loop
      vertex 0 -36.4142 11.4142
      vertex 6 -36.1111 11.6629
      vertex 6 -36.4142 11.4142
    endloop
  endfacet
  facet normal 0 0.634393 -0.773011
    outer loop
      vertex 6 -36.1111 11.6629
      vertex 0 -36.4142 11.4142
      vertex 0 -36.1111 11.6629
    endloop
  endfacet
  facet normal 0 -0.634393 -0.773011
    outer loop
      vertex 0 -33.8889 11.6629
      vertex 6 -33.5858 11.4142
      vertex 6 -33.8889 11.6629
    endloop
  endfacet
  facet normal -0 -0.634393 -0.773011
    outer loop
      vertex 6 -33.5858 11.4142
      vertex 0 -33.8889 11.6629
      vertex 0 -33.5858 11.4142
    endloop
  endfacet
  facet normal 0 -0.881923 -0.471394
    outer loop
      vertex 0 -33.1522 10.7654
      vertex 6 -33.3371 11.1111
      vertex 0 -33.3371 11.1111
    endloop
  endfacet
  facet normal 0 -0.881923 -0.471394
    outer loop
      vertex 6 -33.3371 11.1111
      vertex 0 -33.1522 10.7654
      vertex 6 -33.1522 10.7654
    endloop
  endfacet
  facet normal -0 0.634393 0.773011
    outer loop
      vertex 0 -36.1111 8.33706
      vertex 6 -36.4142 8.58579
      vertex 6 -36.1111 8.33706
    endloop
  endfacet
  facet normal 0 0.634393 0.773011
    outer loop
      vertex 6 -36.4142 8.58579
      vertex 0 -36.1111 8.33706
      vertex 0 -36.4142 8.58579
    endloop
  endfacet
  facet normal 0 0.290287 -0.95694
    outer loop
      vertex 0 -35.7654 11.8478
      vertex 6 -35.3902 11.9616
      vertex 6 -35.7654 11.8478
    endloop
  endfacet
  facet normal 0 0.290287 -0.95694
    outer loop
      vertex 6 -35.3902 11.9616
      vertex 0 -35.7654 11.8478
      vertex 0 -35.3902 11.9616
    endloop
  endfacet
  facet normal 0 -0.290287 0.95694
    outer loop
      vertex 0 -34.2346 8.15224
      vertex 6 -34.6098 8.03843
      vertex 6 -34.2346 8.15224
    endloop
  endfacet
  facet normal 0 -0.290287 0.95694
    outer loop
      vertex 6 -34.6098 8.03843
      vertex 0 -34.2346 8.15224
      vertex 0 -34.6098 8.03843
    endloop
  endfacet
  facet normal 0 -0.634393 0.773011
    outer loop
      vertex 0 -33.5858 8.58579
      vertex 6 -33.8889 8.33706
      vertex 6 -33.5858 8.58579
    endloop
  endfacet
  facet normal 0 -0.634393 0.773011
    outer loop
      vertex 6 -33.8889 8.33706
      vertex 0 -33.5858 8.58579
      vertex 0 -33.8889 8.33706
    endloop
  endfacet
  facet normal 0 -0.995185 0.0980165
    outer loop
      vertex 0 -33.0384 9.60982
      vertex 6 -33 10
      vertex 0 -33 10
    endloop
  endfacet
  facet normal 0 -0.995185 0.0980165
    outer loop
      vertex 6 -33 10
      vertex 0 -33.0384 9.60982
      vertex 6 -33.0384 9.60982
    endloop
  endfacet
  facet normal 0 -0.881923 0.471394
    outer loop
      vertex 0 -33.3371 8.88886
      vertex 6 -33.1522 9.23463
      vertex 0 -33.1522 9.23463
    endloop
  endfacet
  facet normal 0 -0.881923 0.471394
    outer loop
      vertex 6 -33.1522 9.23463
      vertex 0 -33.3371 8.88886
      vertex 6 -33.3371 8.88886
    endloop
  endfacet
  facet normal 0 -0.471393 -0.881923
    outer loop
      vertex 0 -34.2346 11.8478
      vertex 6 -33.8889 11.6629
      vertex 6 -34.2346 11.8478
    endloop
  endfacet
  facet normal -0 -0.471393 -0.881923
    outer loop
      vertex 6 -33.8889 11.6629
      vertex 0 -34.2346 11.8478
      vertex 0 -33.8889 11.6629
    endloop
  endfacet
  facet normal 0 -0.290287 -0.95694
    outer loop
      vertex 0 -34.6098 11.9616
      vertex 6 -34.2346 11.8478
      vertex 6 -34.6098 11.9616
    endloop
  endfacet
  facet normal -0 -0.290287 -0.95694
    outer loop
      vertex 6 -34.2346 11.8478
      vertex 0 -34.6098 11.9616
      vertex 0 -34.2346 11.8478
    endloop
  endfacet
  facet normal 0 -0.77301 -0.634394
    outer loop
      vertex 0 -33.3371 11.1111
      vertex 6 -33.5858 11.4142
      vertex 0 -33.5858 11.4142
    endloop
  endfacet
  facet normal 0 -0.77301 -0.634394
    outer loop
      vertex 6 -33.5858 11.4142
      vertex 0 -33.3371 11.1111
      vertex 6 -33.3371 11.1111
    endloop
  endfacet
  facet normal 0 -0.95694 -0.290285
    outer loop
      vertex 0 -33.0384 10.3902
      vertex 6 -33.1522 10.7654
      vertex 0 -33.1522 10.7654
    endloop
  endfacet
  facet normal 0 -0.95694 -0.290285
    outer loop
      vertex 6 -33.1522 10.7654
      vertex 0 -33.0384 10.3902
      vertex 6 -33.0384 10.3902
    endloop
  endfacet
  facet normal 0 0.95694 0.290285
    outer loop
      vertex 6 -36.8478 9.23463
      vertex 0 -36.9616 9.60982
      vertex 6 -36.9616 9.60982
    endloop
  endfacet
  facet normal 0 0.95694 0.290285
    outer loop
      vertex 0 -36.9616 9.60982
      vertex 6 -36.8478 9.23463
      vertex 0 -36.8478 9.23463
    endloop
  endfacet
  facet normal 0 0.995185 0.0980165
    outer loop
      vertex 6 -36.9616 9.60982
      vertex 0 -37 10
      vertex 6 -37 10
    endloop
  endfacet
  facet normal 0 0.995185 0.0980165
    outer loop
      vertex 0 -37 10
      vertex 6 -36.9616 9.60982
      vertex 0 -36.9616 9.60982
    endloop
  endfacet
  facet normal 0 0.77301 0.634394
    outer loop
      vertex 6 -36.4142 8.58579
      vertex 0 -36.6629 8.88886
      vertex 6 -36.6629 8.88886
    endloop
  endfacet
  facet normal 0 0.77301 0.634394
    outer loop
      vertex 0 -36.6629 8.88886
      vertex 6 -36.4142 8.58579
      vertex 0 -36.4142 8.58579
    endloop
  endfacet
  facet normal 0 0.881923 -0.471394
    outer loop
      vertex 6 -36.8478 10.7654
      vertex 0 -36.6629 11.1111
      vertex 6 -36.6629 11.1111
    endloop
  endfacet
  facet normal 0 0.881923 -0.471394
    outer loop
      vertex 0 -36.6629 11.1111
      vertex 6 -36.8478 10.7654
      vertex 0 -36.8478 10.7654
    endloop
  endfacet
  facet normal 0 0.77301 -0.634394
    outer loop
      vertex 6 -36.6629 11.1111
      vertex 0 -36.4142 11.4142
      vertex 6 -36.4142 11.4142
    endloop
  endfacet
  facet normal 0 0.77301 -0.634394
    outer loop
      vertex 0 -36.4142 11.4142
      vertex 6 -36.6629 11.1111
      vertex 0 -36.6629 11.1111
    endloop
  endfacet
  facet normal 0 0.95694 -0.290285
    outer loop
      vertex 6 -36.9616 10.3902
      vertex 0 -36.8478 10.7654
      vertex 6 -36.8478 10.7654
    endloop
  endfacet
  facet normal 0 0.95694 -0.290285
    outer loop
      vertex 0 -36.8478 10.7654
      vertex 6 -36.9616 10.3902
      vertex 0 -36.9616 10.3902
    endloop
  endfacet
  facet normal 0 0.0980186 -0.995185
    outer loop
      vertex 0 -35.3902 11.9616
      vertex 6 -35 12
      vertex 6 -35.3902 11.9616
    endloop
  endfacet
  facet normal 0 0.0980186 -0.995185
    outer loop
      vertex 6 -35 12
      vertex 0 -35.3902 11.9616
      vertex 0 -35 12
    endloop
  endfacet
  facet normal 0 -0.471393 0.881923
    outer loop
      vertex 0 -33.8889 8.33706
      vertex 6 -34.2346 8.15224
      vertex 6 -33.8889 8.33706
    endloop
  endfacet
  facet normal 0 -0.471393 0.881923
    outer loop
      vertex 6 -34.2346 8.15224
      vertex 0 -33.8889 8.33706
      vertex 0 -34.2346 8.15224
    endloop
  endfacet
  facet normal 0 -0.77301 0.634394
    outer loop
      vertex 0 -33.5858 8.58579
      vertex 6 -33.3371 8.88886
      vertex 0 -33.3371 8.88886
    endloop
  endfacet
  facet normal 0 -0.77301 0.634394
    outer loop
      vertex 6 -33.3371 8.88886
      vertex 0 -33.5858 8.58579
      vertex 6 -33.5858 8.58579
    endloop
  endfacet
  facet normal 0 -0.95694 0.290285
    outer loop
      vertex 0 -33.1522 9.23463
      vertex 6 -33.0384 9.60982
      vertex 0 -33.0384 9.60982
    endloop
  endfacet
  facet normal 0 -0.95694 0.290285
    outer loop
      vertex 6 -33.0384 9.60982
      vertex 0 -33.1522 9.23463
      vertex 6 -33.1522 9.23463
    endloop
  endfacet
  facet normal -0 0.290287 0.95694
    outer loop
      vertex 0 -35.3902 8.03843
      vertex 6 -35.7654 8.15224
      vertex 6 -35.3902 8.03843
    endloop
  endfacet
  facet normal 0 0.290287 0.95694
    outer loop
      vertex 6 -35.7654 8.15224
      vertex 0 -35.3902 8.03843
      vertex 0 -35.7654 8.15224
    endloop
  endfacet
  facet normal -0 0.471393 0.881923
    outer loop
      vertex 0 -35.7654 8.15224
      vertex 6 -36.1111 8.33706
      vertex 6 -35.7654 8.15224
    endloop
  endfacet
  facet normal 0 0.471393 0.881923
    outer loop
      vertex 6 -36.1111 8.33706
      vertex 0 -35.7654 8.15224
      vertex 0 -36.1111 8.33706
    endloop
  endfacet
  facet normal -0 0.0980162 0.995185
    outer loop
      vertex 0 -35 8
      vertex 6 -35.3902 8.03843
      vertex 6 -35 8
    endloop
  endfacet
  facet normal 0 0.0980162 0.995185
    outer loop
      vertex 6 -35.3902 8.03843
      vertex 0 -35 8
      vertex 0 -35.3902 8.03843
    endloop
  endfacet
  facet normal 0 0.471393 -0.881923
    outer loop
      vertex 0 -36.1111 11.6629
      vertex 6 -35.7654 11.8478
      vertex 6 -36.1111 11.6629
    endloop
  endfacet
  facet normal 0 0.471393 -0.881923
    outer loop
      vertex 6 -35.7654 11.8478
      vertex 0 -36.1111 11.6629
      vertex 0 -35.7654 11.8478
    endloop
  endfacet
  facet normal 0 0.881923 0.471394
    outer loop
      vertex 6 -36.6629 8.88886
      vertex 0 -36.8478 9.23463
      vertex 6 -36.8478 9.23463
    endloop
  endfacet
  facet normal 0 0.881923 0.471394
    outer loop
      vertex 0 -36.8478 9.23463
      vertex 6 -36.6629 8.88886
      vertex 0 -36.6629 8.88886
    endloop
  endfacet
  facet normal 0 -0.634393 0.773011
    outer loop
      vertex 0 36.4142 8.58579
      vertex 6 36.1111 8.33706
      vertex 6 36.4142 8.58579
    endloop
  endfacet
  facet normal 0 -0.634393 0.773011
    outer loop
      vertex 6 36.1111 8.33706
      vertex 0 36.4142 8.58579
      vertex 0 36.1111 8.33706
    endloop
  endfacet
  facet normal 0 -0.995185 0.0980165
    outer loop
      vertex 0 36.9616 9.60982
      vertex 6 37 10
      vertex 0 37 10
    endloop
  endfacet
  facet normal 0 -0.995185 0.0980165
    outer loop
      vertex 6 37 10
      vertex 0 36.9616 9.60982
      vertex 6 36.9616 9.60982
    endloop
  endfacet
  facet normal 0 -0.95694 0.290285
    outer loop
      vertex 0 36.8478 9.23463
      vertex 6 36.9616 9.60982
      vertex 0 36.9616 9.60982
    endloop
  endfacet
  facet normal 0 -0.95694 0.290285
    outer loop
      vertex 6 36.9616 9.60982
      vertex 0 36.8478 9.23463
      vertex 6 36.8478 9.23463
    endloop
  endfacet
  facet normal 0 -0.95694 -0.290285
    outer loop
      vertex 0 36.9616 10.3902
      vertex 6 36.8478 10.7654
      vertex 0 36.8478 10.7654
    endloop
  endfacet
  facet normal 0 -0.95694 -0.290285
    outer loop
      vertex 6 36.8478 10.7654
      vertex 0 36.9616 10.3902
      vertex 6 36.9616 10.3902
    endloop
  endfacet
  facet normal 0 -0.471393 -0.881923
    outer loop
      vertex 0 35.7654 11.8478
      vertex 6 36.1111 11.6629
      vertex 6 35.7654 11.8478
    endloop
  endfacet
  facet normal -0 -0.471393 -0.881923
    outer loop
      vertex 6 36.1111 11.6629
      vertex 0 35.7654 11.8478
      vertex 0 36.1111 11.6629
    endloop
  endfacet
  facet normal -0 0.0980162 0.995185
    outer loop
      vertex 0 35 8
      vertex 6 34.6098 8.03843
      vertex 6 35 8
    endloop
  endfacet
  facet normal 0 0.0980162 0.995185
    outer loop
      vertex 6 34.6098 8.03843
      vertex 0 35 8
      vertex 0 34.6098 8.03843
    endloop
  endfacet
  facet normal 0 0.95694 0.290285
    outer loop
      vertex 6 33.1522 9.23463
      vertex 0 33.0384 9.60982
      vertex 6 33.0384 9.60982
    endloop
  endfacet
  facet normal 0 0.95694 0.290285
    outer loop
      vertex 0 33.0384 9.60982
      vertex 6 33.1522 9.23463
      vertex 0 33.1522 9.23463
    endloop
  endfacet
  facet normal 0 -0.290287 0.95694
    outer loop
      vertex 0 35.7654 8.15224
      vertex 6 35.3902 8.03843
      vertex 6 35.7654 8.15224
    endloop
  endfacet
  facet normal 0 -0.290287 0.95694
    outer loop
      vertex 6 35.3902 8.03843
      vertex 0 35.7654 8.15224
      vertex 0 35.3902 8.03843
    endloop
  endfacet
  facet normal 0 -0.471393 0.881923
    outer loop
      vertex 0 36.1111 8.33706
      vertex 6 35.7654 8.15224
      vertex 6 36.1111 8.33706
    endloop
  endfacet
  facet normal 0 -0.471393 0.881923
    outer loop
      vertex 6 35.7654 8.15224
      vertex 0 36.1111 8.33706
      vertex 0 35.7654 8.15224
    endloop
  endfacet
  facet normal 0 -0.881923 0.471394
    outer loop
      vertex 0 36.6629 8.88886
      vertex 6 36.8478 9.23463
      vertex 0 36.8478 9.23463
    endloop
  endfacet
  facet normal 0 -0.881923 0.471394
    outer loop
      vertex 6 36.8478 9.23463
      vertex 0 36.6629 8.88886
      vertex 6 36.6629 8.88886
    endloop
  endfacet
  facet normal 0 -0.0980186 -0.995185
    outer loop
      vertex 0 35 12
      vertex 6 35.3902 11.9616
      vertex 6 35 12
    endloop
  endfacet
  facet normal -0 -0.0980186 -0.995185
    outer loop
      vertex 6 35.3902 11.9616
      vertex 0 35 12
      vertex 0 35.3902 11.9616
    endloop
  endfacet
  facet normal 0 -0.634393 -0.773011
    outer loop
      vertex 0 36.1111 11.6629
      vertex 6 36.4142 11.4142
      vertex 6 36.1111 11.6629
    endloop
  endfacet
  facet normal -0 -0.634393 -0.773011
    outer loop
      vertex 6 36.4142 11.4142
      vertex 0 36.1111 11.6629
      vertex 0 36.4142 11.4142
    endloop
  endfacet
  facet normal 0 -0.881923 -0.471394
    outer loop
      vertex 0 36.8478 10.7654
      vertex 6 36.6629 11.1111
      vertex 0 36.6629 11.1111
    endloop
  endfacet
  facet normal 0 -0.881923 -0.471394
    outer loop
      vertex 6 36.6629 11.1111
      vertex 0 36.8478 10.7654
      vertex 6 36.8478 10.7654
    endloop
  endfacet
  facet normal 0 -0.995185 -0.0980167
    outer loop
      vertex 0 37 10
      vertex 6 36.9616 10.3902
      vertex 0 36.9616 10.3902
    endloop
  endfacet
  facet normal 0 -0.995185 -0.0980167
    outer loop
      vertex 6 36.9616 10.3902
      vertex 0 37 10
      vertex 6 37 10
    endloop
  endfacet
  facet normal 0 -0.77301 -0.634394
    outer loop
      vertex 0 36.6629 11.1111
      vertex 6 36.4142 11.4142
      vertex 0 36.4142 11.4142
    endloop
  endfacet
  facet normal 0 -0.77301 -0.634394
    outer loop
      vertex 6 36.4142 11.4142
      vertex 0 36.6629 11.1111
      vertex 6 36.6629 11.1111
    endloop
  endfacet
  facet normal 0 -0.0980162 0.995185
    outer loop
      vertex 0 35.3902 8.03843
      vertex 6 35 8
      vertex 6 35.3902 8.03843
    endloop
  endfacet
  facet normal 0 -0.0980162 0.995185
    outer loop
      vertex 6 35 8
      vertex 0 35.3902 8.03843
      vertex 0 35 8
    endloop
  endfacet
  facet normal 0 0.290287 -0.95694
    outer loop
      vertex 0 34.2346 11.8478
      vertex 6 34.6098 11.9616
      vertex 6 34.2346 11.8478
    endloop
  endfacet
  facet normal 0 0.290287 -0.95694
    outer loop
      vertex 6 34.6098 11.9616
      vertex 0 34.2346 11.8478
      vertex 0 34.6098 11.9616
    endloop
  endfacet
  facet normal 0 0.77301 0.634394
    outer loop
      vertex 6 33.5858 8.58579
      vertex 0 33.3371 8.88886
      vertex 6 33.3371 8.88886
    endloop
  endfacet
  facet normal 0 0.77301 0.634394
    outer loop
      vertex 0 33.3371 8.88886
      vertex 6 33.5858 8.58579
      vertex 0 33.5858 8.58579
    endloop
  endfacet
  facet normal 0 -0.77301 0.634394
    outer loop
      vertex 0 36.4142 8.58579
      vertex 6 36.6629 8.88886
      vertex 0 36.6629 8.88886
    endloop
  endfacet
  facet normal 0 -0.77301 0.634394
    outer loop
      vertex 6 36.6629 8.88886
      vertex 0 36.4142 8.58579
      vertex 6 36.4142 8.58579
    endloop
  endfacet
  facet normal 0 -0.290287 -0.95694
    outer loop
      vertex 0 35.3902 11.9616
      vertex 6 35.7654 11.8478
      vertex 6 35.3902 11.9616
    endloop
  endfacet
  facet normal -0 -0.290287 -0.95694
    outer loop
      vertex 6 35.7654 11.8478
      vertex 0 35.3902 11.9616
      vertex 0 35.7654 11.8478
    endloop
  endfacet
  facet normal -0 0.471393 0.881923
    outer loop
      vertex 0 34.2346 8.15224
      vertex 6 33.8889 8.33706
      vertex 6 34.2346 8.15224
    endloop
  endfacet
  facet normal 0 0.471393 0.881923
    outer loop
      vertex 6 33.8889 8.33706
      vertex 0 34.2346 8.15224
      vertex 0 33.8889 8.33706
    endloop
  endfacet
  facet normal 0 0.0980186 -0.995185
    outer loop
      vertex 0 34.6098 11.9616
      vertex 6 35 12
      vertex 6 34.6098 11.9616
    endloop
  endfacet
  facet normal 0 0.0980186 -0.995185
    outer loop
      vertex 6 35 12
      vertex 0 34.6098 11.9616
      vertex 0 35 12
    endloop
  endfacet
  facet normal 0 0.634393 -0.773011
    outer loop
      vertex 0 33.5858 11.4142
      vertex 6 33.8889 11.6629
      vertex 6 33.5858 11.4142
    endloop
  endfacet
  facet normal 0 0.634393 -0.773011
    outer loop
      vertex 6 33.8889 11.6629
      vertex 0 33.5858 11.4142
      vertex 0 33.8889 11.6629
    endloop
  endfacet
  facet normal 0 0.881923 0.471394
    outer loop
      vertex 6 33.3371 8.88886
      vertex 0 33.1522 9.23463
      vertex 6 33.1522 9.23463
    endloop
  endfacet
  facet normal 0 0.881923 0.471394
    outer loop
      vertex 0 33.1522 9.23463
      vertex 6 33.3371 8.88886
      vertex 0 33.3371 8.88886
    endloop
  endfacet
  facet normal -0 0.290287 0.95694
    outer loop
      vertex 0 34.6098 8.03843
      vertex 6 34.2346 8.15224
      vertex 6 34.6098 8.03843
    endloop
  endfacet
  facet normal 0 0.290287 0.95694
    outer loop
      vertex 6 34.2346 8.15224
      vertex 0 34.6098 8.03843
      vertex 0 34.2346 8.15224
    endloop
  endfacet
  facet normal 0 0.995185 0.0980165
    outer loop
      vertex 6 33.0384 9.60982
      vertex 0 33 10
      vertex 6 33 10
    endloop
  endfacet
  facet normal 0 0.995185 0.0980165
    outer loop
      vertex 0 33 10
      vertex 6 33.0384 9.60982
      vertex 0 33.0384 9.60982
    endloop
  endfacet
  facet normal 0 0.995185 -0.0980167
    outer loop
      vertex 6 33 10
      vertex 0 33.0384 10.3902
      vertex 6 33.0384 10.3902
    endloop
  endfacet
  facet normal 0 0.995185 -0.0980167
    outer loop
      vertex 0 33.0384 10.3902
      vertex 6 33 10
      vertex 0 33 10
    endloop
  endfacet
  facet normal 0 0.881923 -0.471394
    outer loop
      vertex 6 33.1522 10.7654
      vertex 0 33.3371 11.1111
      vertex 6 33.3371 11.1111
    endloop
  endfacet
  facet normal 0 0.881923 -0.471394
    outer loop
      vertex 0 33.3371 11.1111
      vertex 6 33.1522 10.7654
      vertex 0 33.1522 10.7654
    endloop
  endfacet
  facet normal 0 0.95694 -0.290285
    outer loop
      vertex 6 33.0384 10.3902
      vertex 0 33.1522 10.7654
      vertex 6 33.1522 10.7654
    endloop
  endfacet
  facet normal 0 0.95694 -0.290285
    outer loop
      vertex 0 33.1522 10.7654
      vertex 6 33.0384 10.3902
      vertex 0 33.0384 10.3902
    endloop
  endfacet
  facet normal 0 0.471393 -0.881923
    outer loop
      vertex 0 33.8889 11.6629
      vertex 6 34.2346 11.8478
      vertex 6 33.8889 11.6629
    endloop
  endfacet
  facet normal 0 0.471393 -0.881923
    outer loop
      vertex 6 34.2346 11.8478
      vertex 0 33.8889 11.6629
      vertex 0 34.2346 11.8478
    endloop
  endfacet
  facet normal 0 0.77301 -0.634394
    outer loop
      vertex 6 33.3371 11.1111
      vertex 0 33.5858 11.4142
      vertex 6 33.5858 11.4142
    endloop
  endfacet
  facet normal 0 0.77301 -0.634394
    outer loop
      vertex 0 33.5858 11.4142
      vertex 6 33.3371 11.1111
      vertex 0 33.3371 11.1111
    endloop
  endfacet
  facet normal -0 0.634393 0.773011
    outer loop
      vertex 0 33.8889 8.33706
      vertex 6 33.5858 8.58579
      vertex 6 33.8889 8.33706
    endloop
  endfacet
  facet normal 0 0.634393 0.773011
    outer loop
      vertex 6 33.5858 8.58579
      vertex 0 33.8889 8.33706
      vertex 0 33.5858 8.58579
    endloop
  endfacet
  facet normal 0 -0.0980165 0.995185
    outer loop
      vertex 37.19 -9.60982 8.03843
      vertex 40 -10 8
      vertex 40 -9.60982 8.03843
    endloop
  endfacet
  facet normal 0 -0.0980165 0.995185
    outer loop
      vertex 40 -10 8
      vertex 37.19 -9.60982 8.03843
      vertex 37.19 -10 8
    endloop
  endfacet
  facet normal 0 -0.0980189 -0.995185
    outer loop
      vertex 37.19 -10 12
      vertex 40 -9.60982 11.9616
      vertex 40 -10 12
    endloop
  endfacet
  facet normal -0 -0.0980189 -0.995185
    outer loop
      vertex 40 -9.60982 11.9616
      vertex 37.19 -10 12
      vertex 37.19 -9.60982 11.9616
    endloop
  endfacet
  facet normal 0 -0.995185 -0.0980167
    outer loop
      vertex 37.19 -8 10
      vertex 40 -8.03843 10.3902
      vertex 37.19 -8.03843 10.3902
    endloop
  endfacet
  facet normal 0 -0.995185 -0.0980167
    outer loop
      vertex 40 -8.03843 10.3902
      vertex 37.19 -8 10
      vertex 40 -8 10
    endloop
  endfacet
  facet normal 0 0.995185 -0.0980191
    outer loop
      vertex 40 -12 10
      vertex 37.19 -11.9616 10.3902
      vertex 40 -11.9616 10.3902
    endloop
  endfacet
  facet normal 0 0.995185 -0.0980191
    outer loop
      vertex 37.19 -11.9616 10.3902
      vertex 40 -12 10
      vertex 37.19 -12 10
    endloop
  endfacet
  facet normal 0 0.634394 -0.77301
    outer loop
      vertex 37.19 -11.4142 11.4142
      vertex 40 -11.1111 11.6629
      vertex 40 -11.4142 11.4142
    endloop
  endfacet
  facet normal 0 0.634394 -0.77301
    outer loop
      vertex 40 -11.1111 11.6629
      vertex 37.19 -11.4142 11.4142
      vertex 37.19 -11.1111 11.6629
    endloop
  endfacet
  facet normal 0 -0.634394 -0.77301
    outer loop
      vertex 37.19 -8.88886 11.6629
      vertex 40 -8.58579 11.4142
      vertex 40 -8.88886 11.6629
    endloop
  endfacet
  facet normal -0 -0.634394 -0.77301
    outer loop
      vertex 40 -8.58579 11.4142
      vertex 37.19 -8.88886 11.6629
      vertex 37.19 -8.58579 11.4142
    endloop
  endfacet
  facet normal 0 -0.881922 -0.471395
    outer loop
      vertex 37.19 -8.15224 10.7654
      vertex 40 -8.33706 11.1111
      vertex 37.19 -8.33706 11.1111
    endloop
  endfacet
  facet normal 0 -0.881922 -0.471395
    outer loop
      vertex 40 -8.33706 11.1111
      vertex 37.19 -8.15224 10.7654
      vertex 40 -8.15224 10.7654
    endloop
  endfacet
  facet normal -0 0.634394 0.77301
    outer loop
      vertex 37.19 -11.1111 8.33706
      vertex 40 -11.4142 8.58579
      vertex 40 -11.1111 8.33706
    endloop
  endfacet
  facet normal 0 0.634394 0.77301
    outer loop
      vertex 40 -11.4142 8.58579
      vertex 37.19 -11.1111 8.33706
      vertex 37.19 -11.4142 8.58579
    endloop
  endfacet
  facet normal -0 0.471395 0.881922
    outer loop
      vertex 37.19 -10.7654 8.15224
      vertex 40 -11.1111 8.33706
      vertex 40 -10.7654 8.15224
    endloop
  endfacet
  facet normal 0 0.471395 0.881922
    outer loop
      vertex 40 -11.1111 8.33706
      vertex 37.19 -10.7654 8.15224
      vertex 37.19 -11.1111 8.33706
    endloop
  endfacet
  facet normal 0 0.290285 -0.95694
    outer loop
      vertex 37.19 -10.7654 11.8478
      vertex 40 -10.3902 11.9616
      vertex 40 -10.7654 11.8478
    endloop
  endfacet
  facet normal 0 0.290285 -0.95694
    outer loop
      vertex 40 -10.3902 11.9616
      vertex 37.19 -10.7654 11.8478
      vertex 37.19 -10.3902 11.9616
    endloop
  endfacet
  facet normal 0 -0.290285 0.95694
    outer loop
      vertex 37.19 -9.23463 8.15224
      vertex 40 -9.60982 8.03843
      vertex 40 -9.23463 8.15224
    endloop
  endfacet
  facet normal 0 -0.290285 0.95694
    outer loop
      vertex 40 -9.60982 8.03843
      vertex 37.19 -9.23463 8.15224
      vertex 37.19 -9.60982 8.03843
    endloop
  endfacet
  facet normal 0 -0.634394 0.77301
    outer loop
      vertex 37.19 -8.58579 8.58579
      vertex 40 -8.88886 8.33706
      vertex 40 -8.58579 8.58579
    endloop
  endfacet
  facet normal 0 -0.634394 0.77301
    outer loop
      vertex 40 -8.88886 8.33706
      vertex 37.19 -8.58579 8.58579
      vertex 37.19 -8.88886 8.33706
    endloop
  endfacet
  facet normal 0 -0.995185 0.0980165
    outer loop
      vertex 37.19 -8.03843 9.60982
      vertex 40 -8 10
      vertex 37.19 -8 10
    endloop
  endfacet
  facet normal 0 -0.995185 0.0980165
    outer loop
      vertex 40 -8 10
      vertex 37.19 -8.03843 9.60982
      vertex 40 -8.03843 9.60982
    endloop
  endfacet
  facet normal 0 -0.881922 0.471395
    outer loop
      vertex 37.19 -8.33706 8.88886
      vertex 40 -8.15224 9.23463
      vertex 37.19 -8.15224 9.23463
    endloop
  endfacet
  facet normal 0 -0.881922 0.471395
    outer loop
      vertex 40 -8.15224 9.23463
      vertex 37.19 -8.33706 8.88886
      vertex 40 -8.33706 8.88886
    endloop
  endfacet
  facet normal 0 -0.471395 -0.881922
    outer loop
      vertex 37.19 -9.23463 11.8478
      vertex 40 -8.88886 11.6629
      vertex 40 -9.23463 11.8478
    endloop
  endfacet
  facet normal -0 -0.471395 -0.881922
    outer loop
      vertex 40 -8.88886 11.6629
      vertex 37.19 -9.23463 11.8478
      vertex 37.19 -8.88886 11.6629
    endloop
  endfacet
  facet normal 0 -0.290285 -0.95694
    outer loop
      vertex 37.19 -9.60982 11.9616
      vertex 40 -9.23463 11.8478
      vertex 40 -9.60982 11.9616
    endloop
  endfacet
  facet normal -0 -0.290285 -0.95694
    outer loop
      vertex 40 -9.23463 11.8478
      vertex 37.19 -9.60982 11.9616
      vertex 37.19 -9.23463 11.8478
    endloop
  endfacet
  facet normal 0 -0.77301 -0.634394
    outer loop
      vertex 37.19 -8.33706 11.1111
      vertex 40 -8.58579 11.4142
      vertex 37.19 -8.58579 11.4142
    endloop
  endfacet
  facet normal 0 -0.77301 -0.634394
    outer loop
      vertex 40 -8.58579 11.4142
      vertex 37.19 -8.33706 11.1111
      vertex 40 -8.33706 11.1111
    endloop
  endfacet
  facet normal 0 -0.95694 -0.290285
    outer loop
      vertex 37.19 -8.03843 10.3902
      vertex 40 -8.15224 10.7654
      vertex 37.19 -8.15224 10.7654
    endloop
  endfacet
  facet normal 0 -0.95694 -0.290285
    outer loop
      vertex 40 -8.15224 10.7654
      vertex 37.19 -8.03843 10.3902
      vertex 40 -8.03843 10.3902
    endloop
  endfacet
  facet normal -0 0.0980167 0.995185
    outer loop
      vertex 37.19 -10 8
      vertex 40 -10.3902 8.03843
      vertex 40 -10 8
    endloop
  endfacet
  facet normal 0 0.0980167 0.995185
    outer loop
      vertex 40 -10.3902 8.03843
      vertex 37.19 -10 8
      vertex 37.19 -10.3902 8.03843
    endloop
  endfacet
  facet normal 0 0.881922 0.471395
    outer loop
      vertex 40 -11.6629 8.88886
      vertex 37.19 -11.8478 9.23463
      vertex 40 -11.8478 9.23463
    endloop
  endfacet
  facet normal 0 0.881922 0.471395
    outer loop
      vertex 37.19 -11.8478 9.23463
      vertex 40 -11.6629 8.88886
      vertex 37.19 -11.6629 8.88886
    endloop
  endfacet
  facet normal 0 0.995185 0.0980189
    outer loop
      vertex 40 -11.9616 9.60982
      vertex 37.19 -12 10
      vertex 40 -12 10
    endloop
  endfacet
  facet normal 0 0.995185 0.0980189
    outer loop
      vertex 37.19 -12 10
      vertex 40 -11.9616 9.60982
      vertex 37.19 -11.9616 9.60982
    endloop
  endfacet
  facet normal 0 0.77301 0.634394
    outer loop
      vertex 40 -11.4142 8.58579
      vertex 37.19 -11.6629 8.88886
      vertex 40 -11.6629 8.88886
    endloop
  endfacet
  facet normal 0 0.77301 0.634394
    outer loop
      vertex 37.19 -11.6629 8.88886
      vertex 40 -11.4142 8.58579
      vertex 37.19 -11.4142 8.58579
    endloop
  endfacet
  facet normal 0 0.881922 -0.471395
    outer loop
      vertex 40 -11.8478 10.7654
      vertex 37.19 -11.6629 11.1111
      vertex 40 -11.6629 11.1111
    endloop
  endfacet
  facet normal 0 0.881922 -0.471395
    outer loop
      vertex 37.19 -11.6629 11.1111
      vertex 40 -11.8478 10.7654
      vertex 37.19 -11.8478 10.7654
    endloop
  endfacet
  facet normal 0 0.77301 -0.634394
    outer loop
      vertex 40 -11.6629 11.1111
      vertex 37.19 -11.4142 11.4142
      vertex 40 -11.4142 11.4142
    endloop
  endfacet
  facet normal 0 0.77301 -0.634394
    outer loop
      vertex 37.19 -11.4142 11.4142
      vertex 40 -11.6629 11.1111
      vertex 37.19 -11.6629 11.1111
    endloop
  endfacet
  facet normal 0 0.95694 -0.290285
    outer loop
      vertex 40 -11.9616 10.3902
      vertex 37.19 -11.8478 10.7654
      vertex 40 -11.8478 10.7654
    endloop
  endfacet
  facet normal 0 0.95694 -0.290285
    outer loop
      vertex 37.19 -11.8478 10.7654
      vertex 40 -11.9616 10.3902
      vertex 37.19 -11.9616 10.3902
    endloop
  endfacet
  facet normal 0 0.471395 -0.881922
    outer loop
      vertex 37.19 -11.1111 11.6629
      vertex 40 -10.7654 11.8478
      vertex 40 -11.1111 11.6629
    endloop
  endfacet
  facet normal 0 0.471395 -0.881922
    outer loop
      vertex 40 -10.7654 11.8478
      vertex 37.19 -11.1111 11.6629
      vertex 37.19 -10.7654 11.8478
    endloop
  endfacet
  facet normal 0 0.0980191 -0.995185
    outer loop
      vertex 37.19 -10.3902 11.9616
      vertex 40 -10 12
      vertex 40 -10.3902 11.9616
    endloop
  endfacet
  facet normal 0 0.0980191 -0.995185
    outer loop
      vertex 40 -10 12
      vertex 37.19 -10.3902 11.9616
      vertex 37.19 -10 12
    endloop
  endfacet
  facet normal 0 -0.471395 0.881922
    outer loop
      vertex 37.19 -8.88886 8.33706
      vertex 40 -9.23463 8.15224
      vertex 40 -8.88886 8.33706
    endloop
  endfacet
  facet normal 0 -0.471395 0.881922
    outer loop
      vertex 40 -9.23463 8.15224
      vertex 37.19 -8.88886 8.33706
      vertex 37.19 -9.23463 8.15224
    endloop
  endfacet
  facet normal 0 -0.77301 0.634394
    outer loop
      vertex 37.19 -8.58579 8.58579
      vertex 40 -8.33706 8.88886
      vertex 37.19 -8.33706 8.88886
    endloop
  endfacet
  facet normal 0 -0.77301 0.634394
    outer loop
      vertex 40 -8.33706 8.88886
      vertex 37.19 -8.58579 8.58579
      vertex 40 -8.58579 8.58579
    endloop
  endfacet
  facet normal 0 -0.95694 0.290285
    outer loop
      vertex 37.19 -8.15224 9.23463
      vertex 40 -8.03843 9.60982
      vertex 37.19 -8.03843 9.60982
    endloop
  endfacet
  facet normal 0 -0.95694 0.290285
    outer loop
      vertex 40 -8.03843 9.60982
      vertex 37.19 -8.15224 9.23463
      vertex 40 -8.15224 9.23463
    endloop
  endfacet
  facet normal 0 0.95694 0.290285
    outer loop
      vertex 40 -11.8478 9.23463
      vertex 37.19 -11.9616 9.60982
      vertex 40 -11.9616 9.60982
    endloop
  endfacet
  facet normal 0 0.95694 0.290285
    outer loop
      vertex 37.19 -11.9616 9.60982
      vertex 40 -11.8478 9.23463
      vertex 37.19 -11.8478 9.23463
    endloop
  endfacet
  facet normal -0 0.290285 0.95694
    outer loop
      vertex 37.19 -10.3902 8.03843
      vertex 40 -10.7654 8.15224
      vertex 40 -10.3902 8.03843
    endloop
  endfacet
  facet normal 0 0.290285 0.95694
    outer loop
      vertex 40 -10.7654 8.15224
      vertex 37.19 -10.3902 8.03843
      vertex 37.19 -10.7654 8.15224
    endloop
  endfacet
  facet normal 0 -0.634394 0.77301
    outer loop
      vertex 34 11.4142 8.58579
      vertex 36.81 11.1111 8.33706
      vertex 36.81 11.4142 8.58579
    endloop
  endfacet
  facet normal 0 -0.634394 0.77301
    outer loop
      vertex 36.81 11.1111 8.33706
      vertex 34 11.4142 8.58579
      vertex 34 11.1111 8.33706
    endloop
  endfacet
  facet normal 0 -0.995185 0.0980189
    outer loop
      vertex 34 11.9616 9.60982
      vertex 36.81 12 10
      vertex 34 12 10
    endloop
  endfacet
  facet normal 0 -0.995185 0.0980189
    outer loop
      vertex 36.81 12 10
      vertex 34 11.9616 9.60982
      vertex 36.81 11.9616 9.60982
    endloop
  endfacet
  facet normal 0 -0.95694 0.290285
    outer loop
      vertex 34 11.8478 9.23463
      vertex 36.81 11.9616 9.60982
      vertex 34 11.9616 9.60982
    endloop
  endfacet
  facet normal 0 -0.95694 0.290285
    outer loop
      vertex 36.81 11.9616 9.60982
      vertex 34 11.8478 9.23463
      vertex 36.81 11.8478 9.23463
    endloop
  endfacet
  facet normal 0 -0.95694 -0.290285
    outer loop
      vertex 34 11.9616 10.3902
      vertex 36.81 11.8478 10.7654
      vertex 34 11.8478 10.7654
    endloop
  endfacet
  facet normal 0 -0.95694 -0.290285
    outer loop
      vertex 36.81 11.8478 10.7654
      vertex 34 11.9616 10.3902
      vertex 36.81 11.9616 10.3902
    endloop
  endfacet
  facet normal 0 -0.471395 -0.881922
    outer loop
      vertex 34 10.7654 11.8478
      vertex 36.81 11.1111 11.6629
      vertex 36.81 10.7654 11.8478
    endloop
  endfacet
  facet normal -0 -0.471395 -0.881922
    outer loop
      vertex 36.81 11.1111 11.6629
      vertex 34 10.7654 11.8478
      vertex 34 11.1111 11.6629
    endloop
  endfacet
  facet normal -0 0.0980165 0.995185
    outer loop
      vertex 34 10 8
      vertex 36.81 9.60982 8.03843
      vertex 36.81 10 8
    endloop
  endfacet
  facet normal 0 0.0980165 0.995185
    outer loop
      vertex 36.81 9.60982 8.03843
      vertex 34 10 8
      vertex 34 9.60982 8.03843
    endloop
  endfacet
  facet normal 0 0.95694 0.290285
    outer loop
      vertex 36.81 8.15224 9.23463
      vertex 34 8.03843 9.60982
      vertex 36.81 8.03843 9.60982
    endloop
  endfacet
  facet normal 0 0.95694 0.290285
    outer loop
      vertex 34 8.03843 9.60982
      vertex 36.81 8.15224 9.23463
      vertex 34 8.15224 9.23463
    endloop
  endfacet
  facet normal 0 -0.290285 0.95694
    outer loop
      vertex 34 10.7654 8.15224
      vertex 36.81 10.3902 8.03843
      vertex 36.81 10.7654 8.15224
    endloop
  endfacet
  facet normal 0 -0.290285 0.95694
    outer loop
      vertex 36.81 10.3902 8.03843
      vertex 34 10.7654 8.15224
      vertex 34 10.3902 8.03843
    endloop
  endfacet
  facet normal 0 -0.471395 0.881922
    outer loop
      vertex 34 11.1111 8.33706
      vertex 36.81 10.7654 8.15224
      vertex 36.81 11.1111 8.33706
    endloop
  endfacet
  facet normal 0 -0.471395 0.881922
    outer loop
      vertex 36.81 10.7654 8.15224
      vertex 34 11.1111 8.33706
      vertex 34 10.7654 8.15224
    endloop
  endfacet
  facet normal 0 -0.881922 0.471395
    outer loop
      vertex 34 11.6629 8.88886
      vertex 36.81 11.8478 9.23463
      vertex 34 11.8478 9.23463
    endloop
  endfacet
  facet normal 0 -0.881922 0.471395
    outer loop
      vertex 36.81 11.8478 9.23463
      vertex 34 11.6629 8.88886
      vertex 36.81 11.6629 8.88886
    endloop
  endfacet
  facet normal 0 -0.0980191 -0.995185
    outer loop
      vertex 34 10 12
      vertex 36.81 10.3902 11.9616
      vertex 36.81 10 12
    endloop
  endfacet
  facet normal -0 -0.0980191 -0.995185
    outer loop
      vertex 36.81 10.3902 11.9616
      vertex 34 10 12
      vertex 34 10.3902 11.9616
    endloop
  endfacet
  facet normal 0 -0.634394 -0.77301
    outer loop
      vertex 34 11.1111 11.6629
      vertex 36.81 11.4142 11.4142
      vertex 36.81 11.1111 11.6629
    endloop
  endfacet
  facet normal -0 -0.634394 -0.77301
    outer loop
      vertex 36.81 11.4142 11.4142
      vertex 34 11.1111 11.6629
      vertex 34 11.4142 11.4142
    endloop
  endfacet
  facet normal 0 -0.881922 -0.471395
    outer loop
      vertex 34 11.8478 10.7654
      vertex 36.81 11.6629 11.1111
      vertex 34 11.6629 11.1111
    endloop
  endfacet
  facet normal 0 -0.881922 -0.471395
    outer loop
      vertex 36.81 11.6629 11.1111
      vertex 34 11.8478 10.7654
      vertex 36.81 11.8478 10.7654
    endloop
  endfacet
  facet normal 0 -0.995185 -0.0980191
    outer loop
      vertex 34 12 10
      vertex 36.81 11.9616 10.3902
      vertex 34 11.9616 10.3902
    endloop
  endfacet
  facet normal 0 -0.995185 -0.0980191
    outer loop
      vertex 36.81 11.9616 10.3902
      vertex 34 12 10
      vertex 36.81 12 10
    endloop
  endfacet
  facet normal 0 -0.77301 -0.634394
    outer loop
      vertex 34 11.6629 11.1111
      vertex 36.81 11.4142 11.4142
      vertex 34 11.4142 11.4142
    endloop
  endfacet
  facet normal 0 -0.77301 -0.634394
    outer loop
      vertex 36.81 11.4142 11.4142
      vertex 34 11.6629 11.1111
      vertex 36.81 11.6629 11.1111
    endloop
  endfacet
  facet normal 0 -0.0980167 0.995185
    outer loop
      vertex 34 10.3902 8.03843
      vertex 36.81 10 8
      vertex 36.81 10.3902 8.03843
    endloop
  endfacet
  facet normal 0 -0.0980167 0.995185
    outer loop
      vertex 36.81 10 8
      vertex 34 10.3902 8.03843
      vertex 34 10 8
    endloop
  endfacet
  facet normal 0 0.77301 0.634394
    outer loop
      vertex 36.81 8.58579 8.58579
      vertex 34 8.33706 8.88886
      vertex 36.81 8.33706 8.88886
    endloop
  endfacet
  facet normal 0 0.77301 0.634394
    outer loop
      vertex 34 8.33706 8.88886
      vertex 36.81 8.58579 8.58579
      vertex 34 8.58579 8.58579
    endloop
  endfacet
  facet normal 0 -0.77301 0.634394
    outer loop
      vertex 34 11.4142 8.58579
      vertex 36.81 11.6629 8.88886
      vertex 34 11.6629 8.88886
    endloop
  endfacet
  facet normal 0 -0.77301 0.634394
    outer loop
      vertex 36.81 11.6629 8.88886
      vertex 34 11.4142 8.58579
      vertex 36.81 11.4142 8.58579
    endloop
  endfacet
  facet normal 0 -0.290285 -0.95694
    outer loop
      vertex 34 10.3902 11.9616
      vertex 36.81 10.7654 11.8478
      vertex 36.81 10.3902 11.9616
    endloop
  endfacet
  facet normal -0 -0.290285 -0.95694
    outer loop
      vertex 36.81 10.7654 11.8478
      vertex 34 10.3902 11.9616
      vertex 34 10.7654 11.8478
    endloop
  endfacet
  facet normal -0 0.471395 0.881922
    outer loop
      vertex 34 9.23463 8.15224
      vertex 36.81 8.88886 8.33706
      vertex 36.81 9.23463 8.15224
    endloop
  endfacet
  facet normal 0 0.471395 0.881922
    outer loop
      vertex 36.81 8.88886 8.33706
      vertex 34 9.23463 8.15224
      vertex 34 8.88886 8.33706
    endloop
  endfacet
  facet normal 0 0.0980189 -0.995185
    outer loop
      vertex 34 9.60982 11.9616
      vertex 36.81 10 12
      vertex 36.81 9.60982 11.9616
    endloop
  endfacet
  facet normal 0 0.0980189 -0.995185
    outer loop
      vertex 36.81 10 12
      vertex 34 9.60982 11.9616
      vertex 34 10 12
    endloop
  endfacet
  facet normal 0 0.634394 -0.77301
    outer loop
      vertex 34 8.58579 11.4142
      vertex 36.81 8.88886 11.6629
      vertex 36.81 8.58579 11.4142
    endloop
  endfacet
  facet normal 0 0.634394 -0.77301
    outer loop
      vertex 36.81 8.88886 11.6629
      vertex 34 8.58579 11.4142
      vertex 34 8.88886 11.6629
    endloop
  endfacet
  facet normal 0 0.881922 0.471395
    outer loop
      vertex 36.81 8.33706 8.88886
      vertex 34 8.15224 9.23463
      vertex 36.81 8.15224 9.23463
    endloop
  endfacet
  facet normal 0 0.881922 0.471395
    outer loop
      vertex 34 8.15224 9.23463
      vertex 36.81 8.33706 8.88886
      vertex 34 8.33706 8.88886
    endloop
  endfacet
  facet normal -0 0.290285 0.95694
    outer loop
      vertex 34 9.60982 8.03843
      vertex 36.81 9.23463 8.15224
      vertex 36.81 9.60982 8.03843
    endloop
  endfacet
  facet normal 0 0.290285 0.95694
    outer loop
      vertex 36.81 9.23463 8.15224
      vertex 34 9.60982 8.03843
      vertex 34 9.23463 8.15224
    endloop
  endfacet
  facet normal 0 0.995185 0.0980165
    outer loop
      vertex 36.81 8.03843 9.60982
      vertex 34 8 10
      vertex 36.81 8 10
    endloop
  endfacet
  facet normal 0 0.995185 0.0980165
    outer loop
      vertex 34 8 10
      vertex 36.81 8.03843 9.60982
      vertex 34 8.03843 9.60982
    endloop
  endfacet
  facet normal 0 0.995185 -0.0980167
    outer loop
      vertex 36.81 8 10
      vertex 34 8.03843 10.3902
      vertex 36.81 8.03843 10.3902
    endloop
  endfacet
  facet normal 0 0.995185 -0.0980167
    outer loop
      vertex 34 8.03843 10.3902
      vertex 36.81 8 10
      vertex 34 8 10
    endloop
  endfacet
  facet normal 0 0.95694 -0.290285
    outer loop
      vertex 36.81 8.03843 10.3902
      vertex 34 8.15224 10.7654
      vertex 36.81 8.15224 10.7654
    endloop
  endfacet
  facet normal 0 0.95694 -0.290285
    outer loop
      vertex 34 8.15224 10.7654
      vertex 36.81 8.03843 10.3902
      vertex 34 8.03843 10.3902
    endloop
  endfacet
  facet normal 0 0.881922 -0.471395
    outer loop
      vertex 36.81 8.15224 10.7654
      vertex 34 8.33706 11.1111
      vertex 36.81 8.33706 11.1111
    endloop
  endfacet
  facet normal 0 0.881922 -0.471395
    outer loop
      vertex 34 8.33706 11.1111
      vertex 36.81 8.15224 10.7654
      vertex 34 8.15224 10.7654
    endloop
  endfacet
  facet normal 0 0.471395 -0.881922
    outer loop
      vertex 34 8.88886 11.6629
      vertex 36.81 9.23463 11.8478
      vertex 36.81 8.88886 11.6629
    endloop
  endfacet
  facet normal 0 0.471395 -0.881922
    outer loop
      vertex 36.81 9.23463 11.8478
      vertex 34 8.88886 11.6629
      vertex 34 9.23463 11.8478
    endloop
  endfacet
  facet normal 0 0.77301 -0.634394
    outer loop
      vertex 36.81 8.33706 11.1111
      vertex 34 8.58579 11.4142
      vertex 36.81 8.58579 11.4142
    endloop
  endfacet
  facet normal 0 0.77301 -0.634394
    outer loop
      vertex 34 8.58579 11.4142
      vertex 36.81 8.33706 11.1111
      vertex 34 8.33706 11.1111
    endloop
  endfacet
  facet normal -0 0.634394 0.77301
    outer loop
      vertex 34 8.88886 8.33706
      vertex 36.81 8.58579 8.58579
      vertex 36.81 8.88886 8.33706
    endloop
  endfacet
  facet normal 0 0.634394 0.77301
    outer loop
      vertex 36.81 8.58579 8.58579
      vertex 34 8.88886 8.33706
      vertex 34 8.58579 8.58579
    endloop
  endfacet
  facet normal 0 0.290285 -0.95694
    outer loop
      vertex 34 9.23463 11.8478
      vertex 36.81 9.60982 11.9616
      vertex 36.81 9.23463 11.8478
    endloop
  endfacet
  facet normal 0 0.290285 -0.95694
    outer loop
      vertex 36.81 9.60982 11.9616
      vertex 34 9.23463 11.8478
      vertex 34 9.60982 11.9616
    endloop
  endfacet
  facet normal 0 -0.499999 -0.866026
    outer loop
      vertex 34 -10 14.0414
      vertex 37.19 -6.5 12.0207
      vertex 37.19 -10 14.0414
    endloop
  endfacet
  facet normal -0 -0.499999 -0.866026
    outer loop
      vertex 37.19 -6.5 12.0207
      vertex 34 -10 14.0414
      vertex 34 -6.5 12.0207
    endloop
  endfacet
  facet normal 0 -0.499999 0.866026
    outer loop
      vertex 34 -6.5 7.97927
      vertex 37.19 -10 5.95855
      vertex 37.19 -6.5 7.97927
    endloop
  endfacet
  facet normal 0 -0.499999 0.866026
    outer loop
      vertex 37.19 -10 5.95855
      vertex 34 -6.5 7.97927
      vertex 34 -10 5.95855
    endloop
  endfacet
  facet normal 0 -1 0
    outer loop
      vertex 34 -6.5 7.97927
      vertex 37.19 -6.5 12.0207
      vertex 34 -6.5 12.0207
    endloop
  endfacet
  facet normal 0 -1 -0
    outer loop
      vertex 37.19 -6.5 12.0207
      vertex 34 -6.5 7.97927
      vertex 37.19 -6.5 7.97927
    endloop
  endfacet
  facet normal -1 0 0
    outer loop
      vertex 37.19 -6.5 7.97927
      vertex 37.19 -8 10
      vertex 37.19 -6.5 12.0207
    endloop
  endfacet
  facet normal -1 0 0
    outer loop
      vertex 37.19 -6.5 7.97927
      vertex 37.19 -8.03843 9.60982
      vertex 37.19 -8 10
    endloop
  endfacet
  facet normal -1 0 0
    outer loop
      vertex 37.19 -6.5 7.97927
      vertex 37.19 -8.15224 9.23463
      vertex 37.19 -8.03843 9.60982
    endloop
  endfacet
  facet normal -1 0 0
    outer loop
      vertex 37.19 -6.5 7.97927
      vertex 37.19 -8.33706 8.88886
      vertex 37.19 -8.15224 9.23463
    endloop
  endfacet
  facet normal -1 0 0
    outer loop
      vertex 37.19 -6.5 7.97927
      vertex 37.19 -8.58579 8.58579
      vertex 37.19 -8.33706 8.88886
    endloop
  endfacet
  facet normal -1 0 0
    outer loop
      vertex 37.19 -6.5 7.97927
      vertex 37.19 -8.88886 8.33706
      vertex 37.19 -8.58579 8.58579
    endloop
  endfacet
  facet normal -1 0 0
    outer loop
      vertex 37.19 -10 5.95855
      vertex 37.19 -8.88886 8.33706
      vertex 37.19 -6.5 7.97927
    endloop
  endfacet
  facet normal -1 0 0
    outer loop
      vertex 37.19 -8.88886 8.33706
      vertex 37.19 -10 5.95855
      vertex 37.19 -9.23463 8.15224
    endloop
  endfacet
  facet normal -1 0 0
    outer loop
      vertex 37.19 -9.23463 8.15224
      vertex 37.19 -10 5.95855
      vertex 37.19 -9.60982 8.03843
    endloop
  endfacet
  facet normal -1 0 0
    outer loop
      vertex 37.19 -10 5.95855
      vertex 37.19 -10 8
      vertex 37.19 -9.60982 8.03843
    endloop
  endfacet
  facet normal -1 0 0
    outer loop
      vertex 37.19 -10 5.95855
      vertex 37.19 -10.3902 8.03843
      vertex 37.19 -10 8
    endloop
  endfacet
  facet normal -1 0 0
    outer loop
      vertex 37.19 -10 5.95855
      vertex 37.19 -10.7654 8.15224
      vertex 37.19 -10.3902 8.03843
    endloop
  endfacet
  facet normal -1 0 0
    outer loop
      vertex 37.19 -10 5.95855
      vertex 37.19 -11.1111 8.33706
      vertex 37.19 -10.7654 8.15224
    endloop
  endfacet
  facet normal -1 0 0
    outer loop
      vertex 37.19 -13.5 7.97927
      vertex 37.19 -11.1111 8.33706
      vertex 37.19 -10 5.95855
    endloop
  endfacet
  facet normal -1 -0 0
    outer loop
      vertex 37.19 -11.1111 8.33706
      vertex 37.19 -13.5 7.97927
      vertex 37.19 -11.4142 8.58579
    endloop
  endfacet
  facet normal -1 -0 0
    outer loop
      vertex 37.19 -11.9616 9.60982
      vertex 37.19 -13.5 7.97927
      vertex 37.19 -12 10
    endloop
  endfacet
  facet normal -1 -0 0
    outer loop
      vertex 37.19 -11.8478 9.23463
      vertex 37.19 -13.5 7.97927
      vertex 37.19 -11.9616 9.60982
    endloop
  endfacet
  facet normal -1 -0 0
    outer loop
      vertex 37.19 -11.6629 8.88886
      vertex 37.19 -13.5 7.97927
      vertex 37.19 -11.8478 9.23463
    endloop
  endfacet
  facet normal -1 -0 0
    outer loop
      vertex 37.19 -11.4142 8.58579
      vertex 37.19 -13.5 7.97927
      vertex 37.19 -11.6629 8.88886
    endloop
  endfacet
  facet normal -1 0 0
    outer loop
      vertex 37.19 -8.03843 10.3902
      vertex 37.19 -6.5 12.0207
      vertex 37.19 -8 10
    endloop
  endfacet
  facet normal -1 0 0
    outer loop
      vertex 37.19 -8.15224 10.7654
      vertex 37.19 -6.5 12.0207
      vertex 37.19 -8.03843 10.3902
    endloop
  endfacet
  facet normal -1 0 0
    outer loop
      vertex 37.19 -8.33706 11.1111
      vertex 37.19 -6.5 12.0207
      vertex 37.19 -8.15224 10.7654
    endloop
  endfacet
  facet normal -1 0 0
    outer loop
      vertex 37.19 -8.58579 11.4142
      vertex 37.19 -6.5 12.0207
      vertex 37.19 -8.33706 11.1111
    endloop
  endfacet
  facet normal -1 0 0
    outer loop
      vertex 37.19 -8.88886 11.6629
      vertex 37.19 -6.5 12.0207
      vertex 37.19 -8.58579 11.4142
    endloop
  endfacet
  facet normal -1 0 0
    outer loop
      vertex 37.19 -10 14.0414
      vertex 37.19 -8.88886 11.6629
      vertex 37.19 -9.23463 11.8478
    endloop
  endfacet
  facet normal -1 0 0
    outer loop
      vertex 37.19 -10 14.0414
      vertex 37.19 -9.23463 11.8478
      vertex 37.19 -9.60982 11.9616
    endloop
  endfacet
  facet normal -1 0 0
    outer loop
      vertex 37.19 -10 14.0414
      vertex 37.19 -9.60982 11.9616
      vertex 37.19 -10 12
    endloop
  endfacet
  facet normal -1 0 0
    outer loop
      vertex 37.19 -8.88886 11.6629
      vertex 37.19 -10 14.0414
      vertex 37.19 -6.5 12.0207
    endloop
  endfacet
  facet normal -1 0 0
    outer loop
      vertex 37.19 -10.3902 11.9616
      vertex 37.19 -10 14.0414
      vertex 37.19 -10 12
    endloop
  endfacet
  facet normal -1 0 0
    outer loop
      vertex 37.19 -10.7654 11.8478
      vertex 37.19 -10 14.0414
      vertex 37.19 -10.3902 11.9616
    endloop
  endfacet
  facet normal -1 0 0
    outer loop
      vertex 37.19 -11.1111 11.6629
      vertex 37.19 -10 14.0414
      vertex 37.19 -10.7654 11.8478
    endloop
  endfacet
  facet normal -1 0 0
    outer loop
      vertex 37.19 -13.5 12.0207
      vertex 37.19 -11.1111 11.6629
      vertex 37.19 -11.4142 11.4142
    endloop
  endfacet
  facet normal -1 0 0
    outer loop
      vertex 37.19 -13.5 12.0207
      vertex 37.19 -11.4142 11.4142
      vertex 37.19 -11.6629 11.1111
    endloop
  endfacet
  facet normal -1 0 0
    outer loop
      vertex 37.19 -13.5 12.0207
      vertex 37.19 -12 10
      vertex 37.19 -13.5 7.97927
    endloop
  endfacet
  facet normal -1 0 0
    outer loop
      vertex 37.19 -12 10
      vertex 37.19 -13.5 12.0207
      vertex 37.19 -11.9616 10.3902
    endloop
  endfacet
  facet normal -1 0 0
    outer loop
      vertex 37.19 -11.9616 10.3902
      vertex 37.19 -13.5 12.0207
      vertex 37.19 -11.8478 10.7654
    endloop
  endfacet
  facet normal -1 0 0
    outer loop
      vertex 37.19 -11.8478 10.7654
      vertex 37.19 -13.5 12.0207
      vertex 37.19 -11.6629 11.1111
    endloop
  endfacet
  facet normal -1 0 0
    outer loop
      vertex 37.19 -11.1111 11.6629
      vertex 37.19 -13.5 12.0207
      vertex 37.19 -10 14.0414
    endloop
  endfacet
  facet normal 0 0.499999 -0.866026
    outer loop
      vertex 34 -13.5 12.0207
      vertex 37.19 -10 14.0414
      vertex 37.19 -13.5 12.0207
    endloop
  endfacet
  facet normal 0 0.499999 -0.866026
    outer loop
      vertex 37.19 -10 14.0414
      vertex 34 -13.5 12.0207
      vertex 34 -10 14.0414
    endloop
  endfacet
  facet normal -0 0.499999 0.866026
    outer loop
      vertex 34 -10 5.95855
      vertex 37.19 -13.5 7.97927
      vertex 37.19 -10 5.95855
    endloop
  endfacet
  facet normal 0 0.499999 0.866026
    outer loop
      vertex 37.19 -13.5 7.97927
      vertex 34 -10 5.95855
      vertex 34 -13.5 7.97927
    endloop
  endfacet
  facet normal 0 1 -0
    outer loop
      vertex 37.19 -13.5 7.97927
      vertex 34 -13.5 12.0207
      vertex 37.19 -13.5 12.0207
    endloop
  endfacet
  facet normal 0 1 0
    outer loop
      vertex 34 -13.5 12.0207
      vertex 37.19 -13.5 7.97927
      vertex 34 -13.5 7.97927
    endloop
  endfacet
  facet normal 0 -0.499999 -0.866026
    outer loop
      vertex 36.81 10 14.0414
      vertex 40 13.5 12.0207
      vertex 40 10 14.0414
    endloop
  endfacet
  facet normal -0 -0.499999 -0.866026
    outer loop
      vertex 40 13.5 12.0207
      vertex 36.81 10 14.0414
      vertex 36.81 13.5 12.0207
    endloop
  endfacet
  facet normal 0 -0.499999 0.866026
    outer loop
      vertex 36.81 13.5 7.97927
      vertex 40 10 5.95855
      vertex 40 13.5 7.97927
    endloop
  endfacet
  facet normal 0 -0.499999 0.866026
    outer loop
      vertex 40 10 5.95855
      vertex 36.81 13.5 7.97927
      vertex 36.81 10 5.95855
    endloop
  endfacet
  facet normal 0 -1 0
    outer loop
      vertex 36.81 13.5 7.97927
      vertex 40 13.5 12.0207
      vertex 36.81 13.5 12.0207
    endloop
  endfacet
  facet normal 0 -1 -0
    outer loop
      vertex 40 13.5 12.0207
      vertex 36.81 13.5 7.97927
      vertex 40 13.5 7.97927
    endloop
  endfacet
  facet normal 1 0 0
    outer loop
      vertex 36.81 13.5 12.0207
      vertex 36.81 12 10
      vertex 36.81 13.5 7.97927
    endloop
  endfacet
  facet normal 1 0 0
    outer loop
      vertex 36.81 13.5 12.0207
      vertex 36.81 11.9616 10.3902
      vertex 36.81 12 10
    endloop
  endfacet
  facet normal 1 0 0
    outer loop
      vertex 36.81 13.5 12.0207
      vertex 36.81 11.8478 10.7654
      vertex 36.81 11.9616 10.3902
    endloop
  endfacet
  facet normal 1 0 0
    outer loop
      vertex 36.81 13.5 12.0207
      vertex 36.81 11.6629 11.1111
      vertex 36.81 11.8478 10.7654
    endloop
  endfacet
  facet normal 1 0 0
    outer loop
      vertex 36.81 13.5 12.0207
      vertex 36.81 11.4142 11.4142
      vertex 36.81 11.6629 11.1111
    endloop
  endfacet
  facet normal 1 0 0
    outer loop
      vertex 36.81 13.5 12.0207
      vertex 36.81 11.1111 11.6629
      vertex 36.81 11.4142 11.4142
    endloop
  endfacet
  facet normal 1 0 0
    outer loop
      vertex 36.81 10 14.0414
      vertex 36.81 11.1111 11.6629
      vertex 36.81 13.5 12.0207
    endloop
  endfacet
  facet normal 1 0 0
    outer loop
      vertex 36.81 11.1111 11.6629
      vertex 36.81 10 14.0414
      vertex 36.81 10.7654 11.8478
    endloop
  endfacet
  facet normal 1 0 0
    outer loop
      vertex 36.81 10.7654 11.8478
      vertex 36.81 10 14.0414
      vertex 36.81 10.3902 11.9616
    endloop
  endfacet
  facet normal 1 0 0
    outer loop
      vertex 36.81 10 14.0414
      vertex 36.81 10 12
      vertex 36.81 10.3902 11.9616
    endloop
  endfacet
  facet normal 1 0 0
    outer loop
      vertex 36.81 10 14.0414
      vertex 36.81 9.60982 11.9616
      vertex 36.81 10 12
    endloop
  endfacet
  facet normal 1 0 0
    outer loop
      vertex 36.81 10 14.0414
      vertex 36.81 9.23463 11.8478
      vertex 36.81 9.60982 11.9616
    endloop
  endfacet
  facet normal 1 0 0
    outer loop
      vertex 36.81 10 14.0414
      vertex 36.81 8.88886 11.6629
      vertex 36.81 9.23463 11.8478
    endloop
  endfacet
  facet normal 1 -0 0
    outer loop
      vertex 36.81 6.5 12.0207
      vertex 36.81 8.88886 11.6629
      vertex 36.81 10 14.0414
    endloop
  endfacet
  facet normal 1 0 0
    outer loop
      vertex 36.81 8.88886 11.6629
      vertex 36.81 6.5 12.0207
      vertex 36.81 8.58579 11.4142
    endloop
  endfacet
  facet normal 1 0 0
    outer loop
      vertex 36.81 8.03843 10.3902
      vertex 36.81 6.5 12.0207
      vertex 36.81 8 10
    endloop
  endfacet
  facet normal 1 0 0
    outer loop
      vertex 36.81 8.15224 10.7654
      vertex 36.81 6.5 12.0207
      vertex 36.81 8.03843 10.3902
    endloop
  endfacet
  facet normal 1 0 0
    outer loop
      vertex 36.81 8.33706 11.1111
      vertex 36.81 6.5 12.0207
      vertex 36.81 8.15224 10.7654
    endloop
  endfacet
  facet normal 1 0 0
    outer loop
      vertex 36.81 8.58579 11.4142
      vertex 36.81 6.5 12.0207
      vertex 36.81 8.33706 11.1111
    endloop
  endfacet
  facet normal 1 -0 0
    outer loop
      vertex 36.81 11.9616 9.60982
      vertex 36.81 13.5 7.97927
      vertex 36.81 12 10
    endloop
  endfacet
  facet normal 1 -0 0
    outer loop
      vertex 36.81 11.8478 9.23463
      vertex 36.81 13.5 7.97927
      vertex 36.81 11.9616 9.60982
    endloop
  endfacet
  facet normal 1 -0 0
    outer loop
      vertex 36.81 11.6629 8.88886
      vertex 36.81 13.5 7.97927
      vertex 36.81 11.8478 9.23463
    endloop
  endfacet
  facet normal 1 -0 0
    outer loop
      vertex 36.81 11.4142 8.58579
      vertex 36.81 13.5 7.97927
      vertex 36.81 11.6629 8.88886
    endloop
  endfacet
  facet normal 1 -0 0
    outer loop
      vertex 36.81 11.1111 8.33706
      vertex 36.81 13.5 7.97927
      vertex 36.81 11.4142 8.58579
    endloop
  endfacet
  facet normal 1 0 0
    outer loop
      vertex 36.81 10 5.95855
      vertex 36.81 11.1111 8.33706
      vertex 36.81 10.7654 8.15224
    endloop
  endfacet
  facet normal 1 0 0
    outer loop
      vertex 36.81 10 5.95855
      vertex 36.81 10.7654 8.15224
      vertex 36.81 10.3902 8.03843
    endloop
  endfacet
  facet normal 1 0 0
    outer loop
      vertex 36.81 10 5.95855
      vertex 36.81 10.3902 8.03843
      vertex 36.81 10 8
    endloop
  endfacet
  facet normal 1 0 0
    outer loop
      vertex 36.81 11.1111 8.33706
      vertex 36.81 10 5.95855
      vertex 36.81 13.5 7.97927
    endloop
  endfacet
  facet normal 1 0 0
    outer loop
      vertex 36.81 9.60982 8.03843
      vertex 36.81 10 5.95855
      vertex 36.81 10 8
    endloop
  endfacet
  facet normal 1 0 0
    outer loop
      vertex 36.81 9.23463 8.15224
      vertex 36.81 10 5.95855
      vertex 36.81 9.60982 8.03843
    endloop
  endfacet
  facet normal 1 0 0
    outer loop
      vertex 36.81 8.88886 8.33706
      vertex 36.81 10 5.95855
      vertex 36.81 9.23463 8.15224
    endloop
  endfacet
  facet normal 1 0 0
    outer loop
      vertex 36.81 6.5 7.97927
      vertex 36.81 8.88886 8.33706
      vertex 36.81 8.58579 8.58579
    endloop
  endfacet
  facet normal 1 0 0
    outer loop
      vertex 36.81 6.5 7.97927
      vertex 36.81 8.58579 8.58579
      vertex 36.81 8.33706 8.88886
    endloop
  endfacet
  facet normal 1 0 0
    outer loop
      vertex 36.81 6.5 7.97927
      vertex 36.81 8 10
      vertex 36.81 6.5 12.0207
    endloop
  endfacet
  facet normal 1 0 0
    outer loop
      vertex 36.81 8 10
      vertex 36.81 6.5 7.97927
      vertex 36.81 8.03843 9.60982
    endloop
  endfacet
  facet normal 1 0 0
    outer loop
      vertex 36.81 8.03843 9.60982
      vertex 36.81 6.5 7.97927
      vertex 36.81 8.15224 9.23463
    endloop
  endfacet
  facet normal 1 0 0
    outer loop
      vertex 36.81 8.15224 9.23463
      vertex 36.81 6.5 7.97927
      vertex 36.81 8.33706 8.88886
    endloop
  endfacet
  facet normal 1 0 0
    outer loop
      vertex 36.81 8.88886 8.33706
      vertex 36.81 6.5 7.97927
      vertex 36.81 10 5.95855
    endloop
  endfacet
  facet normal 0 0.499999 -0.866026
    outer loop
      vertex 36.81 6.5 12.0207
      vertex 40 10 14.0414
      vertex 40 6.5 12.0207
    endloop
  endfacet
  facet normal 0 0.499999 -0.866026
    outer loop
      vertex 40 10 14.0414
      vertex 36.81 6.5 12.0207
      vertex 36.81 10 14.0414
    endloop
  endfacet
  facet normal -0 0.499999 0.866026
    outer loop
      vertex 36.81 10 5.95855
      vertex 40 6.5 7.97927
      vertex 40 10 5.95855
    endloop
  endfacet
  facet normal 0 0.499999 0.866026
    outer loop
      vertex 40 6.5 7.97927
      vertex 36.81 10 5.95855
      vertex 36.81 6.5 7.97927
    endloop
  endfacet
  facet normal 0 1 -0
    outer loop
      vertex 40 6.5 7.97927
      vertex 36.81 6.5 12.0207
      vertex 40 6.5 12.0207
    endloop
  endfacet
  facet normal 0 1 0
    outer loop
      vertex 36.81 6.5 12.0207
      vertex 40 6.5 7.97927
      vertex 36.81 6.5 7.97927
    endloop
  endfacet
endsolid OpenSCAD_Model
