solid OpenSCAD_Model
  facet normal -1 0 0
    outer loop
      vertex 0 -14 0
      vertex 0 -28 10
      vertex 0 -14 20
    endloop
  endfacet
  facet normal -1 0 0
    outer loop
      vertex 0 -14 0
      vertex 0 -28.0384 9.60982
      vertex 0 -28 10
    endloop
  endfacet
  facet normal -1 0 0
    outer loop
      vertex 0 -14 0
      vertex 0 -28.1522 9.23463
      vertex 0 -28.0384 9.60982
    endloop
  endfacet
  facet normal -1 0 0
    outer loop
      vertex 0 -14 0
      vertex 0 -28.3371 8.88886
      vertex 0 -28.1522 9.23463
    endloop
  endfacet
  facet normal -1 0 0
    outer loop
      vertex 0 -14 0
      vertex 0 -28.5858 8.58579
      vertex 0 -28.3371 8.88886
    endloop
  endfacet
  facet normal -1 0 0
    outer loop
      vertex 0 -14 0
      vertex 0 -28.8889 8.33706
      vertex 0 -28.5858 8.58579
    endloop
  endfacet
  facet normal -1 0 0
    outer loop
      vertex 0 -14 0
      vertex 0 -29.2346 8.15224
      vertex 0 -28.8889 8.33706
    endloop
  endfacet
  facet normal -1 0 0
    outer loop
      vertex 0 -14 0
      vertex 0 -29.6098 8.03843
      vertex 0 -29.2346 8.15224
    endloop
  endfacet
  facet normal -1 0 0
    outer loop
      vertex 0 -40 0
      vertex 0 -29.6098 8.03843
      vertex 0 -14 0
    endloop
  endfacet
  facet normal -1 0 0
    outer loop
      vertex 0 -29.6098 8.03843
      vertex 0 -40 0
      vertex 0 -30 8
    endloop
  endfacet
  facet normal -1 -0 0
    outer loop
      vertex 0 -30 8
      vertex 0 -40 0
      vertex 0 -30.3902 8.03843
    endloop
  endfacet
  facet normal -1 -0 0
    outer loop
      vertex 0 -31.9616 9.60982
      vertex 0 -40 0
      vertex 0 -32 10
    endloop
  endfacet
  facet normal -1 -0 0
    outer loop
      vertex 0 -31.8478 9.23463
      vertex 0 -40 0
      vertex 0 -31.9616 9.60982
    endloop
  endfacet
  facet normal -1 -0 0
    outer loop
      vertex 0 -31.6629 8.88886
      vertex 0 -40 0
      vertex 0 -31.8478 9.23463
    endloop
  endfacet
  facet normal -1 -0 0
    outer loop
      vertex 0 -31.4142 8.58579
      vertex 0 -40 0
      vertex 0 -31.6629 8.88886
    endloop
  endfacet
  facet normal -1 -0 0
    outer loop
      vertex 0 -31.1111 8.33706
      vertex 0 -40 0
      vertex 0 -31.4142 8.58579
    endloop
  endfacet
  facet normal -1 -0 0
    outer loop
      vertex 0 -30.7654 8.15224
      vertex 0 -40 0
      vertex 0 -31.1111 8.33706
    endloop
  endfacet
  facet normal -1 -0 0
    outer loop
      vertex 0 -30.3902 8.03843
      vertex 0 -40 0
      vertex 0 -30.7654 8.15224
    endloop
  endfacet
  facet normal -1 0 0
    outer loop
      vertex 0 -28.0384 10.3902
      vertex 0 -14 20
      vertex 0 -28 10
    endloop
  endfacet
  facet normal -1 0 0
    outer loop
      vertex 0 -28.1522 10.7654
      vertex 0 -14 20
      vertex 0 -28.0384 10.3902
    endloop
  endfacet
  facet normal -1 0 0
    outer loop
      vertex 0 -28.3371 11.1111
      vertex 0 -14 20
      vertex 0 -28.1522 10.7654
    endloop
  endfacet
  facet normal -1 0 0
    outer loop
      vertex 0 -28.5858 11.4142
      vertex 0 -14 20
      vertex 0 -28.3371 11.1111
    endloop
  endfacet
  facet normal -1 0 0
    outer loop
      vertex 0 -28.8889 11.6629
      vertex 0 -14 20
      vertex 0 -28.5858 11.4142
    endloop
  endfacet
  facet normal -1 0 0
    outer loop
      vertex 0 -29.2346 11.8478
      vertex 0 -14 20
      vertex 0 -28.8889 11.6629
    endloop
  endfacet
  facet normal -1 0 0
    outer loop
      vertex 0 -29.6098 11.9616
      vertex 0 -14 20
      vertex 0 -29.2346 11.8478
    endloop
  endfacet
  facet normal -1 0 0
    outer loop
      vertex 0 -40 20
      vertex 0 -29.6098 11.9616
      vertex 0 -30 12
    endloop
  endfacet
  facet normal -1 0 0
    outer loop
      vertex 0 -40 20
      vertex 0 -30 12
      vertex 0 -30.3902 11.9616
    endloop
  endfacet
  facet normal -1 0 0
    outer loop
      vertex 0 -40 20
      vertex 0 -30.3902 11.9616
      vertex 0 -30.7654 11.8478
    endloop
  endfacet
  facet normal -1 0 0
    outer loop
      vertex 0 -40 20
      vertex 0 -32 10
      vertex 0 -40 0
    endloop
  endfacet
  facet normal -1 0 0
    outer loop
      vertex 0 -32 10
      vertex 0 -40 20
      vertex 0 -31.9616 10.3902
    endloop
  endfacet
  facet normal -1 0 0
    outer loop
      vertex 0 -31.9616 10.3902
      vertex 0 -40 20
      vertex 0 -31.8478 10.7654
    endloop
  endfacet
  facet normal -1 0 0
    outer loop
      vertex 0 -29.6098 11.9616
      vertex 0 -40 20
      vertex 0 -14 20
    endloop
  endfacet
  facet normal -1 0 0
    outer loop
      vertex 0 -31.1111 11.6629
      vertex 0 -40 20
      vertex 0 -30.7654 11.8478
    endloop
  endfacet
  facet normal -1 0 0
    outer loop
      vertex 0 -31.4142 11.4142
      vertex 0 -40 20
      vertex 0 -31.1111 11.6629
    endloop
  endfacet
  facet normal -1 0 0
    outer loop
      vertex 0 -31.6629 11.1111
      vertex 0 -40 20
      vertex 0 -31.4142 11.4142
    endloop
  endfacet
  facet normal -1 0 0
    outer loop
      vertex 0 -31.8478 10.7654
      vertex 0 -40 20
      vertex 0 -31.6629 11.1111
    endloop
  endfacet
  facet normal 0 0 1
    outer loop
      vertex 6 40 20
      vertex 0 40 20
      vertex 6 20 20
    endloop
  endfacet
  facet normal 0 0 1
    outer loop
      vertex 40 20 20
      vertex 34 14 20
      vertex 40 -20 20
    endloop
  endfacet
  facet normal -0 0 1
    outer loop
      vertex 6 20 20
      vertex 34 14 20
      vertex 40 20 20
    endloop
  endfacet
  facet normal 0 0 1
    outer loop
      vertex 6 20 20
      vertex 0 14 20
      vertex 34 14 20
    endloop
  endfacet
  facet normal 0 0 1
    outer loop
      vertex 0 14 20
      vertex 6 20 20
      vertex 0 40 20
    endloop
  endfacet
  facet normal -0 0 1
    outer loop
      vertex 34 -14 20
      vertex 40 -20 20
      vertex 34 14 20
    endloop
  endfacet
  facet normal 0 0 1
    outer loop
      vertex 34 -14 20
      vertex 6 -20 20
      vertex 40 -20 20
    endloop
  endfacet
  facet normal -0 0 1
    outer loop
      vertex 0 -14 20
      vertex 6 -20 20
      vertex 34 -14 20
    endloop
  endfacet
  facet normal 0 0 1
    outer loop
      vertex 0 -40 20
      vertex 6 -20 20
      vertex 0 -14 20
    endloop
  endfacet
  facet normal 0 0 1
    outer loop
      vertex 6 -20 20
      vertex 0 -40 20
      vertex 6 -40 20
    endloop
  endfacet
  facet normal 1 0 0
    outer loop
      vertex 6 -20 20
      vertex 6 -28 10
      vertex 6 -20 0
    endloop
  endfacet
  facet normal 1 0 0
    outer loop
      vertex 6 -20 20
      vertex 6 -28.0384 10.3902
      vertex 6 -28 10
    endloop
  endfacet
  facet normal 1 0 0
    outer loop
      vertex 6 -20 20
      vertex 6 -28.1522 10.7654
      vertex 6 -28.0384 10.3902
    endloop
  endfacet
  facet normal 1 0 0
    outer loop
      vertex 6 -20 20
      vertex 6 -28.3371 11.1111
      vertex 6 -28.1522 10.7654
    endloop
  endfacet
  facet normal 1 0 0
    outer loop
      vertex 6 -20 20
      vertex 6 -28.5858 11.4142
      vertex 6 -28.3371 11.1111
    endloop
  endfacet
  facet normal 1 0 0
    outer loop
      vertex 6 -20 20
      vertex 6 -28.8889 11.6629
      vertex 6 -28.5858 11.4142
    endloop
  endfacet
  facet normal 1 0 0
    outer loop
      vertex 6 -20 20
      vertex 6 -29.2346 11.8478
      vertex 6 -28.8889 11.6629
    endloop
  endfacet
  facet normal 1 0 0
    outer loop
      vertex 6 -20 20
      vertex 6 -29.6098 11.9616
      vertex 6 -29.2346 11.8478
    endloop
  endfacet
  facet normal 1 0 0
    outer loop
      vertex 6 -20 20
      vertex 6 -30 12
      vertex 6 -29.6098 11.9616
    endloop
  endfacet
  facet normal 1 -0 0
    outer loop
      vertex 6 -40 20
      vertex 6 -30 12
      vertex 6 -20 20
    endloop
  endfacet
  facet normal 1 0 0
    outer loop
      vertex 6 -30 12
      vertex 6 -40 20
      vertex 6 -30.3902 11.9616
    endloop
  endfacet
  facet normal 1 0 0
    outer loop
      vertex 6 -30.3902 11.9616
      vertex 6 -40 20
      vertex 6 -30.7654 11.8478
    endloop
  endfacet
  facet normal 1 0 0
    outer loop
      vertex 6 -31.9616 10.3902
      vertex 6 -40 20
      vertex 6 -32 10
    endloop
  endfacet
  facet normal 1 0 0
    outer loop
      vertex 6 -31.8478 10.7654
      vertex 6 -40 20
      vertex 6 -31.9616 10.3902
    endloop
  endfacet
  facet normal 1 0 0
    outer loop
      vertex 6 -31.6629 11.1111
      vertex 6 -40 20
      vertex 6 -31.8478 10.7654
    endloop
  endfacet
  facet normal 1 0 0
    outer loop
      vertex 6 -31.4142 11.4142
      vertex 6 -40 20
      vertex 6 -31.6629 11.1111
    endloop
  endfacet
  facet normal 1 0 0
    outer loop
      vertex 6 -31.1111 11.6629
      vertex 6 -40 20
      vertex 6 -31.4142 11.4142
    endloop
  endfacet
  facet normal 1 0 0
    outer loop
      vertex 6 -30.7654 11.8478
      vertex 6 -40 20
      vertex 6 -31.1111 11.6629
    endloop
  endfacet
  facet normal 1 -0 0
    outer loop
      vertex 6 -28.0384 9.60982
      vertex 6 -20 0
      vertex 6 -28 10
    endloop
  endfacet
  facet normal 1 -0 0
    outer loop
      vertex 6 -28.1522 9.23463
      vertex 6 -20 0
      vertex 6 -28.0384 9.60982
    endloop
  endfacet
  facet normal 1 -0 0
    outer loop
      vertex 6 -28.3371 8.88886
      vertex 6 -20 0
      vertex 6 -28.1522 9.23463
    endloop
  endfacet
  facet normal 1 -0 0
    outer loop
      vertex 6 -28.5858 8.58579
      vertex 6 -20 0
      vertex 6 -28.3371 8.88886
    endloop
  endfacet
  facet normal 1 -0 0
    outer loop
      vertex 6 -28.8889 8.33706
      vertex 6 -20 0
      vertex 6 -28.5858 8.58579
    endloop
  endfacet
  facet normal 1 -0 0
    outer loop
      vertex 6 -29.2346 8.15224
      vertex 6 -20 0
      vertex 6 -28.8889 8.33706
    endloop
  endfacet
  facet normal 1 -0 0
    outer loop
      vertex 6 -29.6098 8.03843
      vertex 6 -20 0
      vertex 6 -29.2346 8.15224
    endloop
  endfacet
  facet normal 1 -0 0
    outer loop
      vertex 6 -30 8
      vertex 6 -20 0
      vertex 6 -29.6098 8.03843
    endloop
  endfacet
  facet normal 1 0 0
    outer loop
      vertex 6 -40 0
      vertex 6 -30 8
      vertex 6 -30.3902 8.03843
    endloop
  endfacet
  facet normal 1 0 0
    outer loop
      vertex 6 -40 0
      vertex 6 -30.3902 8.03843
      vertex 6 -30.7654 8.15224
    endloop
  endfacet
  facet normal 1 0 0
    outer loop
      vertex 6 -40 0
      vertex 6 -30.7654 8.15224
      vertex 6 -31.1111 8.33706
    endloop
  endfacet
  facet normal 1 0 0
    outer loop
      vertex 6 -40 0
      vertex 6 -32 10
      vertex 6 -40 20
    endloop
  endfacet
  facet normal 1 0 0
    outer loop
      vertex 6 -32 10
      vertex 6 -40 0
      vertex 6 -31.9616 9.60982
    endloop
  endfacet
  facet normal 1 0 0
    outer loop
      vertex 6 -31.9616 9.60982
      vertex 6 -40 0
      vertex 6 -31.8478 9.23463
    endloop
  endfacet
  facet normal 1 0 0
    outer loop
      vertex 6 -30 8
      vertex 6 -40 0
      vertex 6 -20 0
    endloop
  endfacet
  facet normal 1 0 0
    outer loop
      vertex 6 -31.4142 8.58579
      vertex 6 -40 0
      vertex 6 -31.1111 8.33706
    endloop
  endfacet
  facet normal 1 0 0
    outer loop
      vertex 6 -31.6629 8.88886
      vertex 6 -40 0
      vertex 6 -31.4142 8.58579
    endloop
  endfacet
  facet normal 1 0 0
    outer loop
      vertex 6 -31.8478 9.23463
      vertex 6 -40 0
      vertex 6 -31.6629 8.88886
    endloop
  endfacet
  facet normal 0 -1 0
    outer loop
      vertex 6 -20 0
      vertex 40 -20 20
      vertex 6 -20 20
    endloop
  endfacet
  facet normal 0 -1 -0
    outer loop
      vertex 40 -20 20
      vertex 6 -20 0
      vertex 40 -20 0
    endloop
  endfacet
  facet normal 0 0 -1
    outer loop
      vertex 6 -40 0
      vertex 0 -40 0
      vertex 6 -20 0
    endloop
  endfacet
  facet normal 0 0 -1
    outer loop
      vertex 40 -20 0
      vertex 34 -14 0
      vertex 40 20 0
    endloop
  endfacet
  facet normal 0 0 -1
    outer loop
      vertex 6 -20 0
      vertex 34 -14 0
      vertex 40 -20 0
    endloop
  endfacet
  facet normal 0 0 -1
    outer loop
      vertex 6 -20 0
      vertex 0 -14 0
      vertex 34 -14 0
    endloop
  endfacet
  facet normal 0 0 -1
    outer loop
      vertex 0 -14 0
      vertex 6 -20 0
      vertex 0 -40 0
    endloop
  endfacet
  facet normal 0 0 -1
    outer loop
      vertex 34 14 0
      vertex 40 20 0
      vertex 34 -14 0
    endloop
  endfacet
  facet normal 0 0 -1
    outer loop
      vertex 34 14 0
      vertex 6 20 0
      vertex 40 20 0
    endloop
  endfacet
  facet normal 0 0 -1
    outer loop
      vertex 0 14 0
      vertex 6 20 0
      vertex 34 14 0
    endloop
  endfacet
  facet normal 0 0 -1
    outer loop
      vertex 0 40 0
      vertex 6 20 0
      vertex 0 14 0
    endloop
  endfacet
  facet normal 0 0 -1
    outer loop
      vertex 6 20 0
      vertex 0 40 0
      vertex 6 40 0
    endloop
  endfacet
  facet normal 0 -1 0
    outer loop
      vertex 0 -40 0
      vertex 6 -40 20
      vertex 0 -40 20
    endloop
  endfacet
  facet normal 0 -1 -0
    outer loop
      vertex 6 -40 20
      vertex 0 -40 0
      vertex 6 -40 0
    endloop
  endfacet
  facet normal -1 0 0
    outer loop
      vertex 0 40 0
      vertex 0 32 10
      vertex 0 40 20
    endloop
  endfacet
  facet normal -1 0 0
    outer loop
      vertex 0 40 0
      vertex 0 31.9616 9.60982
      vertex 0 32 10
    endloop
  endfacet
  facet normal -1 0 0
    outer loop
      vertex 0 40 0
      vertex 0 31.8478 9.23463
      vertex 0 31.9616 9.60982
    endloop
  endfacet
  facet normal -1 0 0
    outer loop
      vertex 0 40 0
      vertex 0 31.6629 8.88886
      vertex 0 31.8478 9.23463
    endloop
  endfacet
  facet normal -1 0 0
    outer loop
      vertex 0 40 0
      vertex 0 31.4142 8.58579
      vertex 0 31.6629 8.88886
    endloop
  endfacet
  facet normal -1 0 0
    outer loop
      vertex 0 40 0
      vertex 0 31.1111 8.33706
      vertex 0 31.4142 8.58579
    endloop
  endfacet
  facet normal -1 0 0
    outer loop
      vertex 0 40 0
      vertex 0 30.7654 8.15224
      vertex 0 31.1111 8.33706
    endloop
  endfacet
  facet normal -1 0 0
    outer loop
      vertex 0 40 0
      vertex 0 30.3902 8.03843
      vertex 0 30.7654 8.15224
    endloop
  endfacet
  facet normal -1 0 0
    outer loop
      vertex 0 40 0
      vertex 0 30 8
      vertex 0 30.3902 8.03843
    endloop
  endfacet
  facet normal -1 0 0
    outer loop
      vertex 0 40 0
      vertex 0 29.6098 8.03843
      vertex 0 30 8
    endloop
  endfacet
  facet normal -1 0 0
    outer loop
      vertex 0 14 0
      vertex 0 29.6098 8.03843
      vertex 0 40 0
    endloop
  endfacet
  facet normal -1 -0 0
    outer loop
      vertex 0 29.6098 8.03843
      vertex 0 14 0
      vertex 0 29.2346 8.15224
    endloop
  endfacet
  facet normal -1 -0 0
    outer loop
      vertex 0 28.0384 9.60982
      vertex 0 14 0
      vertex 0 28 10
    endloop
  endfacet
  facet normal -1 -0 0
    outer loop
      vertex 0 28.1522 9.23463
      vertex 0 14 0
      vertex 0 28.0384 9.60982
    endloop
  endfacet
  facet normal -1 -0 0
    outer loop
      vertex 0 28.3371 8.88886
      vertex 0 14 0
      vertex 0 28.1522 9.23463
    endloop
  endfacet
  facet normal -1 -0 0
    outer loop
      vertex 0 28.5858 8.58579
      vertex 0 14 0
      vertex 0 28.3371 8.88886
    endloop
  endfacet
  facet normal -1 -0 0
    outer loop
      vertex 0 28.8889 8.33706
      vertex 0 14 0
      vertex 0 28.5858 8.58579
    endloop
  endfacet
  facet normal -1 -0 0
    outer loop
      vertex 0 29.2346 8.15224
      vertex 0 14 0
      vertex 0 28.8889 8.33706
    endloop
  endfacet
  facet normal -1 0 0
    outer loop
      vertex 0 31.9616 10.3902
      vertex 0 40 20
      vertex 0 32 10
    endloop
  endfacet
  facet normal -1 0 0
    outer loop
      vertex 0 31.8478 10.7654
      vertex 0 40 20
      vertex 0 31.9616 10.3902
    endloop
  endfacet
  facet normal -1 0 0
    outer loop
      vertex 0 31.6629 11.1111
      vertex 0 40 20
      vertex 0 31.8478 10.7654
    endloop
  endfacet
  facet normal -1 0 0
    outer loop
      vertex 0 31.4142 11.4142
      vertex 0 40 20
      vertex 0 31.6629 11.1111
    endloop
  endfacet
  facet normal -1 0 0
    outer loop
      vertex 0 31.1111 11.6629
      vertex 0 40 20
      vertex 0 31.4142 11.4142
    endloop
  endfacet
  facet normal -1 0 0
    outer loop
      vertex 0 30.7654 11.8478
      vertex 0 40 20
      vertex 0 31.1111 11.6629
    endloop
  endfacet
  facet normal -1 0 0
    outer loop
      vertex 0 30.3902 11.9616
      vertex 0 40 20
      vertex 0 30.7654 11.8478
    endloop
  endfacet
  facet normal -1 0 0
    outer loop
      vertex 0 30 12
      vertex 0 40 20
      vertex 0 30.3902 11.9616
    endloop
  endfacet
  facet normal -1 0 0
    outer loop
      vertex 0 29.6098 11.9616
      vertex 0 40 20
      vertex 0 30 12
    endloop
  endfacet
  facet normal -1 0 0
    outer loop
      vertex 0 14 20
      vertex 0 29.6098 11.9616
      vertex 0 29.2346 11.8478
    endloop
  endfacet
  facet normal -1 0 0
    outer loop
      vertex 0 14 20
      vertex 0 29.2346 11.8478
      vertex 0 28.8889 11.6629
    endloop
  endfacet
  facet normal -1 0 0
    outer loop
      vertex 0 14 20
      vertex 0 28 10
      vertex 0 14 0
    endloop
  endfacet
  facet normal -1 0 0
    outer loop
      vertex 0 28 10
      vertex 0 14 20
      vertex 0 28.0384 10.3902
    endloop
  endfacet
  facet normal -1 0 0
    outer loop
      vertex 0 28.0384 10.3902
      vertex 0 14 20
      vertex 0 28.1522 10.7654
    endloop
  endfacet
  facet normal -1 0 0
    outer loop
      vertex 0 28.1522 10.7654
      vertex 0 14 20
      vertex 0 28.3371 11.1111
    endloop
  endfacet
  facet normal -1 0 0
    outer loop
      vertex 0 28.3371 11.1111
      vertex 0 14 20
      vertex 0 28.5858 11.4142
    endloop
  endfacet
  facet normal -1 0 0
    outer loop
      vertex 0 29.6098 11.9616
      vertex 0 14 20
      vertex 0 40 20
    endloop
  endfacet
  facet normal -1 0 0
    outer loop
      vertex 0 28.5858 11.4142
      vertex 0 14 20
      vertex 0 28.8889 11.6629
    endloop
  endfacet
  facet normal 1 0 0
    outer loop
      vertex 6 40 20
      vertex 6 32 10
      vertex 6 40 0
    endloop
  endfacet
  facet normal 1 0 0
    outer loop
      vertex 6 40 20
      vertex 6 31.9616 10.3902
      vertex 6 32 10
    endloop
  endfacet
  facet normal 1 0 0
    outer loop
      vertex 6 40 20
      vertex 6 31.8478 10.7654
      vertex 6 31.9616 10.3902
    endloop
  endfacet
  facet normal 1 0 0
    outer loop
      vertex 6 40 20
      vertex 6 31.6629 11.1111
      vertex 6 31.8478 10.7654
    endloop
  endfacet
  facet normal 1 0 0
    outer loop
      vertex 6 40 20
      vertex 6 31.4142 11.4142
      vertex 6 31.6629 11.1111
    endloop
  endfacet
  facet normal 1 0 0
    outer loop
      vertex 6 40 20
      vertex 6 31.1111 11.6629
      vertex 6 31.4142 11.4142
    endloop
  endfacet
  facet normal 1 0 0
    outer loop
      vertex 6 40 20
      vertex 6 30.7654 11.8478
      vertex 6 31.1111 11.6629
    endloop
  endfacet
  facet normal 1 0 0
    outer loop
      vertex 6 40 20
      vertex 6 30.3902 11.9616
      vertex 6 30.7654 11.8478
    endloop
  endfacet
  facet normal 1 0 0
    outer loop
      vertex 6 40 20
      vertex 6 30 12
      vertex 6 30.3902 11.9616
    endloop
  endfacet
  facet normal 1 -0 0
    outer loop
      vertex 6 20 20
      vertex 6 30 12
      vertex 6 40 20
    endloop
  endfacet
  facet normal 1 0 0
    outer loop
      vertex 6 30 12
      vertex 6 20 20
      vertex 6 29.6098 11.9616
    endloop
  endfacet
  facet normal 1 0 0
    outer loop
      vertex 6 29.6098 11.9616
      vertex 6 20 20
      vertex 6 29.2346 11.8478
    endloop
  endfacet
  facet normal 1 0 0
    outer loop
      vertex 6 28.0384 10.3902
      vertex 6 20 20
      vertex 6 28 10
    endloop
  endfacet
  facet normal 1 0 0
    outer loop
      vertex 6 28.1522 10.7654
      vertex 6 20 20
      vertex 6 28.0384 10.3902
    endloop
  endfacet
  facet normal 1 0 0
    outer loop
      vertex 6 28.3371 11.1111
      vertex 6 20 20
      vertex 6 28.1522 10.7654
    endloop
  endfacet
  facet normal 1 0 0
    outer loop
      vertex 6 28.5858 11.4142
      vertex 6 20 20
      vertex 6 28.3371 11.1111
    endloop
  endfacet
  facet normal 1 0 0
    outer loop
      vertex 6 28.8889 11.6629
      vertex 6 20 20
      vertex 6 28.5858 11.4142
    endloop
  endfacet
  facet normal 1 0 0
    outer loop
      vertex 6 29.2346 11.8478
      vertex 6 20 20
      vertex 6 28.8889 11.6629
    endloop
  endfacet
  facet normal 1 -0 0
    outer loop
      vertex 6 31.9616 9.60982
      vertex 6 40 0
      vertex 6 32 10
    endloop
  endfacet
  facet normal 1 -0 0
    outer loop
      vertex 6 31.8478 9.23463
      vertex 6 40 0
      vertex 6 31.9616 9.60982
    endloop
  endfacet
  facet normal 1 -0 0
    outer loop
      vertex 6 31.6629 8.88886
      vertex 6 40 0
      vertex 6 31.8478 9.23463
    endloop
  endfacet
  facet normal 1 -0 0
    outer loop
      vertex 6 31.4142 8.58579
      vertex 6 40 0
      vertex 6 31.6629 8.88886
    endloop
  endfacet
  facet normal 1 -0 0
    outer loop
      vertex 6 31.1111 8.33706
      vertex 6 40 0
      vertex 6 31.4142 8.58579
    endloop
  endfacet
  facet normal 1 -0 0
    outer loop
      vertex 6 30.7654 8.15224
      vertex 6 40 0
      vertex 6 31.1111 8.33706
    endloop
  endfacet
  facet normal 1 -0 0
    outer loop
      vertex 6 30.3902 8.03843
      vertex 6 40 0
      vertex 6 30.7654 8.15224
    endloop
  endfacet
  facet normal 1 -0 0
    outer loop
      vertex 6 30 8
      vertex 6 40 0
      vertex 6 30.3902 8.03843
    endloop
  endfacet
  facet normal 1 0 0
    outer loop
      vertex 6 20 0
      vertex 6 30 8
      vertex 6 29.6098 8.03843
    endloop
  endfacet
  facet normal 1 0 0
    outer loop
      vertex 6 20 0
      vertex 6 29.6098 8.03843
      vertex 6 29.2346 8.15224
    endloop
  endfacet
  facet normal 1 0 0
    outer loop
      vertex 6 20 0
      vertex 6 29.2346 8.15224
      vertex 6 28.8889 8.33706
    endloop
  endfacet
  facet normal 1 0 0
    outer loop
      vertex 6 20 0
      vertex 6 28 10
      vertex 6 20 20
    endloop
  endfacet
  facet normal 1 0 0
    outer loop
      vertex 6 28 10
      vertex 6 20 0
      vertex 6 28.0384 9.60982
    endloop
  endfacet
  facet normal 1 0 0
    outer loop
      vertex 6 28.0384 9.60982
      vertex 6 20 0
      vertex 6 28.1522 9.23463
    endloop
  endfacet
  facet normal 1 0 0
    outer loop
      vertex 6 30 8
      vertex 6 20 0
      vertex 6 40 0
    endloop
  endfacet
  facet normal 1 0 0
    outer loop
      vertex 6 28.5858 8.58579
      vertex 6 20 0
      vertex 6 28.8889 8.33706
    endloop
  endfacet
  facet normal 1 0 0
    outer loop
      vertex 6 28.3371 8.88886
      vertex 6 20 0
      vertex 6 28.5858 8.58579
    endloop
  endfacet
  facet normal 1 0 0
    outer loop
      vertex 6 28.1522 9.23463
      vertex 6 20 0
      vertex 6 28.3371 8.88886
    endloop
  endfacet
  facet normal 0 1 -0
    outer loop
      vertex 6 40 0
      vertex 0 40 20
      vertex 6 40 20
    endloop
  endfacet
  facet normal 0 1 0
    outer loop
      vertex 0 40 20
      vertex 6 40 0
      vertex 0 40 0
    endloop
  endfacet
  facet normal 0 1 -0
    outer loop
      vertex 40 20 0
      vertex 6 20 20
      vertex 40 20 20
    endloop
  endfacet
  facet normal 0 1 0
    outer loop
      vertex 6 20 20
      vertex 40 20 0
      vertex 6 20 0
    endloop
  endfacet
  facet normal 1 0 0
    outer loop
      vertex 40 20 20
      vertex 40 2 10
      vertex 40 20 0
    endloop
  endfacet
  facet normal 1 0 0
    outer loop
      vertex 40 20 20
      vertex 40 1.96157 10.3902
      vertex 40 2 10
    endloop
  endfacet
  facet normal 1 0 0
    outer loop
      vertex 40 20 20
      vertex 40 1.84776 10.7654
      vertex 40 1.96157 10.3902
    endloop
  endfacet
  facet normal 1 0 0
    outer loop
      vertex 40 20 20
      vertex 40 1.66294 11.1111
      vertex 40 1.84776 10.7654
    endloop
  endfacet
  facet normal 1 0 0
    outer loop
      vertex 40 20 20
      vertex 40 1.41421 11.4142
      vertex 40 1.66294 11.1111
    endloop
  endfacet
  facet normal 1 0 0
    outer loop
      vertex 40 20 20
      vertex 40 1.11114 11.6629
      vertex 40 1.41421 11.4142
    endloop
  endfacet
  facet normal 1 0 0
    outer loop
      vertex 40 20 20
      vertex 40 0.765367 11.8478
      vertex 40 1.11114 11.6629
    endloop
  endfacet
  facet normal 1 0 0
    outer loop
      vertex 40 20 20
      vertex 40 0.390181 11.9616
      vertex 40 0.765367 11.8478
    endloop
  endfacet
  facet normal 1 0 0
    outer loop
      vertex 40 20 20
      vertex 40 0 12
      vertex 40 0.390181 11.9616
    endloop
  endfacet
  facet normal 1 -0 0
    outer loop
      vertex 40 -20 20
      vertex 40 0 12
      vertex 40 20 20
    endloop
  endfacet
  facet normal 1 0 0
    outer loop
      vertex 40 0 12
      vertex 40 -20 20
      vertex 40 -0.390181 11.9616
    endloop
  endfacet
  facet normal 1 0 0
    outer loop
      vertex 40 -1.96157 10.3902
      vertex 40 -20 20
      vertex 40 -2 10
    endloop
  endfacet
  facet normal 1 0 0
    outer loop
      vertex 40 -1.84776 10.7654
      vertex 40 -20 20
      vertex 40 -1.96157 10.3902
    endloop
  endfacet
  facet normal 1 0 0
    outer loop
      vertex 40 -1.66294 11.1111
      vertex 40 -20 20
      vertex 40 -1.84776 10.7654
    endloop
  endfacet
  facet normal 1 0 0
    outer loop
      vertex 40 -1.41421 11.4142
      vertex 40 -20 20
      vertex 40 -1.66294 11.1111
    endloop
  endfacet
  facet normal 1 0 0
    outer loop
      vertex 40 -1.11114 11.6629
      vertex 40 -20 20
      vertex 40 -1.41421 11.4142
    endloop
  endfacet
  facet normal 1 0 0
    outer loop
      vertex 40 -0.765367 11.8478
      vertex 40 -20 20
      vertex 40 -1.11114 11.6629
    endloop
  endfacet
  facet normal 1 0 0
    outer loop
      vertex 40 -0.390181 11.9616
      vertex 40 -20 20
      vertex 40 -0.765367 11.8478
    endloop
  endfacet
  facet normal 1 -0 0
    outer loop
      vertex 40 1.96157 9.60982
      vertex 40 20 0
      vertex 40 2 10
    endloop
  endfacet
  facet normal 1 -0 0
    outer loop
      vertex 40 1.84776 9.23463
      vertex 40 20 0
      vertex 40 1.96157 9.60982
    endloop
  endfacet
  facet normal 1 -0 0
    outer loop
      vertex 40 1.66294 8.88886
      vertex 40 20 0
      vertex 40 1.84776 9.23463
    endloop
  endfacet
  facet normal 1 -0 0
    outer loop
      vertex 40 1.41421 8.58579
      vertex 40 20 0
      vertex 40 1.66294 8.88886
    endloop
  endfacet
  facet normal 1 -0 0
    outer loop
      vertex 40 1.11114 8.33706
      vertex 40 20 0
      vertex 40 1.41421 8.58579
    endloop
  endfacet
  facet normal 1 -0 0
    outer loop
      vertex 40 0.765367 8.15224
      vertex 40 20 0
      vertex 40 1.11114 8.33706
    endloop
  endfacet
  facet normal 1 -0 0
    outer loop
      vertex 40 0.390181 8.03843
      vertex 40 20 0
      vertex 40 0.765367 8.15224
    endloop
  endfacet
  facet normal 1 -0 0
    outer loop
      vertex 40 0 8
      vertex 40 20 0
      vertex 40 0.390181 8.03843
    endloop
  endfacet
  facet normal 1 0 0
    outer loop
      vertex 40 -20 0
      vertex 40 0 8
      vertex 40 -0.390181 8.03843
    endloop
  endfacet
  facet normal 1 0 0
    outer loop
      vertex 40 -20 0
      vertex 40 -0.390181 8.03843
      vertex 40 -0.765367 8.15224
    endloop
  endfacet
  facet normal 1 0 0
    outer loop
      vertex 40 -20 0
      vertex 40 -2 10
      vertex 40 -20 20
    endloop
  endfacet
  facet normal 1 0 0
    outer loop
      vertex 40 -2 10
      vertex 40 -20 0
      vertex 40 -1.96157 9.60982
    endloop
  endfacet
  facet normal 1 0 0
    outer loop
      vertex 40 -1.96157 9.60982
      vertex 40 -20 0
      vertex 40 -1.84776 9.23463
    endloop
  endfacet
  facet normal 1 0 0
    outer loop
      vertex 40 -1.84776 9.23463
      vertex 40 -20 0
      vertex 40 -1.66294 8.88886
    endloop
  endfacet
  facet normal 1 0 0
    outer loop
      vertex 40 -1.66294 8.88886
      vertex 40 -20 0
      vertex 40 -1.41421 8.58579
    endloop
  endfacet
  facet normal 1 0 0
    outer loop
      vertex 40 0 8
      vertex 40 -20 0
      vertex 40 20 0
    endloop
  endfacet
  facet normal 1 0 0
    outer loop
      vertex 40 -1.11114 8.33706
      vertex 40 -20 0
      vertex 40 -0.765367 8.15224
    endloop
  endfacet
  facet normal 1 0 0
    outer loop
      vertex 40 -1.41421 8.58579
      vertex 40 -20 0
      vertex 40 -1.11114 8.33706
    endloop
  endfacet
  facet normal 0 1 -0
    outer loop
      vertex 34 -14 0
      vertex 0 -14 20
      vertex 34 -14 20
    endloop
  endfacet
  facet normal 0 1 0
    outer loop
      vertex 0 -14 20
      vertex 34 -14 0
      vertex 0 -14 0
    endloop
  endfacet
  facet normal 0 -1 0
    outer loop
      vertex 0 14 0
      vertex 34 14 20
      vertex 0 14 20
    endloop
  endfacet
  facet normal 0 -1 -0
    outer loop
      vertex 34 14 20
      vertex 0 14 0
      vertex 34 14 0
    endloop
  endfacet
  facet normal -1 0 0
    outer loop
      vertex 34 14 0
      vertex 34 3.5 7.97927
      vertex 34 14 20
    endloop
  endfacet
  facet normal -1 0 0
    outer loop
      vertex 34 14 0
      vertex 34 0 5.95855
      vertex 34 3.5 7.97927
    endloop
  endfacet
  facet normal -1 -0 0
    outer loop
      vertex 34 -3.5 7.97927
      vertex 34 -14 0
      vertex 34 -3.5 12.0207
    endloop
  endfacet
  facet normal -1 -0 0
    outer loop
      vertex 34 0 5.95855
      vertex 34 -14 0
      vertex 34 -3.5 7.97927
    endloop
  endfacet
  facet normal -1 0 0
    outer loop
      vertex 34 -14 0
      vertex 34 0 5.95855
      vertex 34 14 0
    endloop
  endfacet
  facet normal -1 0 0
    outer loop
      vertex 34 3.5 12.0207
      vertex 34 14 20
      vertex 34 3.5 7.97927
    endloop
  endfacet
  facet normal -1 0 0
    outer loop
      vertex 34 0 14.0414
      vertex 34 14 20
      vertex 34 3.5 12.0207
    endloop
  endfacet
  facet normal -1 0 0
    outer loop
      vertex 34 0 14.0414
      vertex 34 -14 20
      vertex 34 14 20
    endloop
  endfacet
  facet normal -1 0 0
    outer loop
      vertex 34 -3.5 12.0207
      vertex 34 -14 20
      vertex 34 0 14.0414
    endloop
  endfacet
  facet normal -1 0 0
    outer loop
      vertex 34 -14 20
      vertex 34 -3.5 12.0207
      vertex 34 -14 0
    endloop
  endfacet
  facet normal 0 -0.0980162 0.995185
    outer loop
      vertex 0 -29.6098 8.03843
      vertex 6 -30 8
      vertex 6 -29.6098 8.03843
    endloop
  endfacet
  facet normal 0 -0.0980162 0.995185
    outer loop
      vertex 6 -30 8
      vertex 0 -29.6098 8.03843
      vertex 0 -30 8
    endloop
  endfacet
  facet normal 0 -0.0980186 -0.995185
    outer loop
      vertex 0 -30 12
      vertex 6 -29.6098 11.9616
      vertex 6 -30 12
    endloop
  endfacet
  facet normal -0 -0.0980186 -0.995185
    outer loop
      vertex 6 -29.6098 11.9616
      vertex 0 -30 12
      vertex 0 -29.6098 11.9616
    endloop
  endfacet
  facet normal 0 -0.995185 -0.0980167
    outer loop
      vertex 0 -28 10
      vertex 6 -28.0384 10.3902
      vertex 0 -28.0384 10.3902
    endloop
  endfacet
  facet normal 0 -0.995185 -0.0980167
    outer loop
      vertex 6 -28.0384 10.3902
      vertex 0 -28 10
      vertex 6 -28 10
    endloop
  endfacet
  facet normal 0 0.995185 -0.0980167
    outer loop
      vertex 6 -32 10
      vertex 0 -31.9616 10.3902
      vertex 6 -31.9616 10.3902
    endloop
  endfacet
  facet normal 0 0.995185 -0.0980167
    outer loop
      vertex 0 -31.9616 10.3902
      vertex 6 -32 10
      vertex 0 -32 10
    endloop
  endfacet
  facet normal 0 0.634395 -0.773009
    outer loop
      vertex 0 -31.4142 11.4142
      vertex 6 -31.1111 11.6629
      vertex 6 -31.4142 11.4142
    endloop
  endfacet
  facet normal 0 0.634395 -0.773009
    outer loop
      vertex 6 -31.1111 11.6629
      vertex 0 -31.4142 11.4142
      vertex 0 -31.1111 11.6629
    endloop
  endfacet
  facet normal 0 -0.634393 -0.773011
    outer loop
      vertex 0 -28.8889 11.6629
      vertex 6 -28.5858 11.4142
      vertex 6 -28.8889 11.6629
    endloop
  endfacet
  facet normal -0 -0.634393 -0.773011
    outer loop
      vertex 6 -28.5858 11.4142
      vertex 0 -28.8889 11.6629
      vertex 0 -28.5858 11.4142
    endloop
  endfacet
  facet normal 0 -0.881923 -0.471394
    outer loop
      vertex 0 -28.1522 10.7654
      vertex 6 -28.3371 11.1111
      vertex 0 -28.3371 11.1111
    endloop
  endfacet
  facet normal 0 -0.881923 -0.471394
    outer loop
      vertex 6 -28.3371 11.1111
      vertex 0 -28.1522 10.7654
      vertex 6 -28.1522 10.7654
    endloop
  endfacet
  facet normal -0 0.471393 0.881923
    outer loop
      vertex 0 -30.7654 8.15224
      vertex 6 -31.1111 8.33706
      vertex 6 -30.7654 8.15224
    endloop
  endfacet
  facet normal 0 0.471393 0.881923
    outer loop
      vertex 6 -31.1111 8.33706
      vertex 0 -30.7654 8.15224
      vertex 0 -31.1111 8.33706
    endloop
  endfacet
  facet normal 0 0.290286 -0.95694
    outer loop
      vertex 0 -30.7654 11.8478
      vertex 6 -30.3902 11.9616
      vertex 6 -30.7654 11.8478
    endloop
  endfacet
  facet normal 0 0.290286 -0.95694
    outer loop
      vertex 6 -30.3902 11.9616
      vertex 0 -30.7654 11.8478
      vertex 0 -30.3902 11.9616
    endloop
  endfacet
  facet normal 0 -0.290286 0.95694
    outer loop
      vertex 0 -29.2346 8.15224
      vertex 6 -29.6098 8.03843
      vertex 6 -29.2346 8.15224
    endloop
  endfacet
  facet normal 0 -0.290286 0.95694
    outer loop
      vertex 6 -29.6098 8.03843
      vertex 0 -29.2346 8.15224
      vertex 0 -29.6098 8.03843
    endloop
  endfacet
  facet normal 0 -0.634393 0.773011
    outer loop
      vertex 0 -28.5858 8.58579
      vertex 6 -28.8889 8.33706
      vertex 6 -28.5858 8.58579
    endloop
  endfacet
  facet normal 0 -0.634393 0.773011
    outer loop
      vertex 6 -28.8889 8.33706
      vertex 0 -28.5858 8.58579
      vertex 0 -28.8889 8.33706
    endloop
  endfacet
  facet normal 0 -0.995185 0.0980165
    outer loop
      vertex 0 -28.0384 9.60982
      vertex 6 -28 10
      vertex 0 -28 10
    endloop
  endfacet
  facet normal 0 -0.995185 0.0980165
    outer loop
      vertex 6 -28 10
      vertex 0 -28.0384 9.60982
      vertex 6 -28.0384 9.60982
    endloop
  endfacet
  facet normal 0 -0.881923 0.471394
    outer loop
      vertex 0 -28.3371 8.88886
      vertex 6 -28.1522 9.23463
      vertex 0 -28.1522 9.23463
    endloop
  endfacet
  facet normal 0 -0.881923 0.471394
    outer loop
      vertex 6 -28.1522 9.23463
      vertex 0 -28.3371 8.88886
      vertex 6 -28.3371 8.88886
    endloop
  endfacet
  facet normal 0 -0.471395 -0.881922
    outer loop
      vertex 0 -29.2346 11.8478
      vertex 6 -28.8889 11.6629
      vertex 6 -29.2346 11.8478
    endloop
  endfacet
  facet normal -0 -0.471395 -0.881922
    outer loop
      vertex 6 -28.8889 11.6629
      vertex 0 -29.2346 11.8478
      vertex 0 -28.8889 11.6629
    endloop
  endfacet
  facet normal 0 -0.290286 -0.95694
    outer loop
      vertex 0 -29.6098 11.9616
      vertex 6 -29.2346 11.8478
      vertex 6 -29.6098 11.9616
    endloop
  endfacet
  facet normal -0 -0.290286 -0.95694
    outer loop
      vertex 6 -29.2346 11.8478
      vertex 0 -29.6098 11.9616
      vertex 0 -29.2346 11.8478
    endloop
  endfacet
  facet normal 0 -0.77301 -0.634394
    outer loop
      vertex 0 -28.3371 11.1111
      vertex 6 -28.5858 11.4142
      vertex 0 -28.5858 11.4142
    endloop
  endfacet
  facet normal 0 -0.77301 -0.634394
    outer loop
      vertex 6 -28.5858 11.4142
      vertex 0 -28.3371 11.1111
      vertex 6 -28.3371 11.1111
    endloop
  endfacet
  facet normal 0 -0.95694 -0.290285
    outer loop
      vertex 0 -28.0384 10.3902
      vertex 6 -28.1522 10.7654
      vertex 0 -28.1522 10.7654
    endloop
  endfacet
  facet normal 0 -0.95694 -0.290285
    outer loop
      vertex 6 -28.1522 10.7654
      vertex 0 -28.0384 10.3902
      vertex 6 -28.0384 10.3902
    endloop
  endfacet
  facet normal 0 0.881921 0.471397
    outer loop
      vertex 6 -31.6629 8.88886
      vertex 0 -31.8478 9.23463
      vertex 6 -31.8478 9.23463
    endloop
  endfacet
  facet normal 0 0.881921 0.471397
    outer loop
      vertex 0 -31.8478 9.23463
      vertex 6 -31.6629 8.88886
      vertex 0 -31.6629 8.88886
    endloop
  endfacet
  facet normal 0 0.995185 0.0980165
    outer loop
      vertex 6 -31.9616 9.60982
      vertex 0 -32 10
      vertex 6 -32 10
    endloop
  endfacet
  facet normal 0 0.995185 0.0980165
    outer loop
      vertex 0 -32 10
      vertex 6 -31.9616 9.60982
      vertex 0 -31.9616 9.60982
    endloop
  endfacet
  facet normal 0 0.77301 0.634394
    outer loop
      vertex 6 -31.4142 8.58579
      vertex 0 -31.6629 8.88886
      vertex 6 -31.6629 8.88886
    endloop
  endfacet
  facet normal 0 0.77301 0.634394
    outer loop
      vertex 0 -31.6629 8.88886
      vertex 6 -31.4142 8.58579
      vertex 0 -31.4142 8.58579
    endloop
  endfacet
  facet normal 0 0.881921 -0.471397
    outer loop
      vertex 6 -31.8478 10.7654
      vertex 0 -31.6629 11.1111
      vertex 6 -31.6629 11.1111
    endloop
  endfacet
  facet normal 0 0.881921 -0.471397
    outer loop
      vertex 0 -31.6629 11.1111
      vertex 6 -31.8478 10.7654
      vertex 0 -31.8478 10.7654
    endloop
  endfacet
  facet normal 0 0.77301 -0.634394
    outer loop
      vertex 6 -31.6629 11.1111
      vertex 0 -31.4142 11.4142
      vertex 6 -31.4142 11.4142
    endloop
  endfacet
  facet normal 0 0.77301 -0.634394
    outer loop
      vertex 0 -31.4142 11.4142
      vertex 6 -31.6629 11.1111
      vertex 0 -31.6629 11.1111
    endloop
  endfacet
  facet normal 0 0.95694 -0.290285
    outer loop
      vertex 6 -31.9616 10.3902
      vertex 0 -31.8478 10.7654
      vertex 6 -31.8478 10.7654
    endloop
  endfacet
  facet normal 0 0.95694 -0.290285
    outer loop
      vertex 0 -31.8478 10.7654
      vertex 6 -31.9616 10.3902
      vertex 0 -31.9616 10.3902
    endloop
  endfacet
  facet normal 0 0.471393 -0.881923
    outer loop
      vertex 0 -31.1111 11.6629
      vertex 6 -30.7654 11.8478
      vertex 6 -31.1111 11.6629
    endloop
  endfacet
  facet normal 0 0.471393 -0.881923
    outer loop
      vertex 6 -30.7654 11.8478
      vertex 0 -31.1111 11.6629
      vertex 0 -30.7654 11.8478
    endloop
  endfacet
  facet normal 0 0.0980191 -0.995185
    outer loop
      vertex 0 -30.3902 11.9616
      vertex 6 -30 12
      vertex 6 -30.3902 11.9616
    endloop
  endfacet
  facet normal 0 0.0980191 -0.995185
    outer loop
      vertex 6 -30 12
      vertex 0 -30.3902 11.9616
      vertex 0 -30 12
    endloop
  endfacet
  facet normal 0 -0.471395 0.881922
    outer loop
      vertex 0 -28.8889 8.33706
      vertex 6 -29.2346 8.15224
      vertex 6 -28.8889 8.33706
    endloop
  endfacet
  facet normal 0 -0.471395 0.881922
    outer loop
      vertex 6 -29.2346 8.15224
      vertex 0 -28.8889 8.33706
      vertex 0 -29.2346 8.15224
    endloop
  endfacet
  facet normal 0 -0.77301 0.634394
    outer loop
      vertex 0 -28.5858 8.58579
      vertex 6 -28.3371 8.88886
      vertex 0 -28.3371 8.88886
    endloop
  endfacet
  facet normal 0 -0.77301 0.634394
    outer loop
      vertex 6 -28.3371 8.88886
      vertex 0 -28.5858 8.58579
      vertex 6 -28.5858 8.58579
    endloop
  endfacet
  facet normal 0 -0.95694 0.290285
    outer loop
      vertex 0 -28.1522 9.23463
      vertex 6 -28.0384 9.60982
      vertex 0 -28.0384 9.60982
    endloop
  endfacet
  facet normal 0 -0.95694 0.290285
    outer loop
      vertex 6 -28.0384 9.60982
      vertex 0 -28.1522 9.23463
      vertex 6 -28.1522 9.23463
    endloop
  endfacet
  facet normal 0 0.95694 0.290285
    outer loop
      vertex 6 -31.8478 9.23463
      vertex 0 -31.9616 9.60982
      vertex 6 -31.9616 9.60982
    endloop
  endfacet
  facet normal 0 0.95694 0.290285
    outer loop
      vertex 0 -31.9616 9.60982
      vertex 6 -31.8478 9.23463
      vertex 0 -31.8478 9.23463
    endloop
  endfacet
  facet normal -0 0.634395 0.773009
    outer loop
      vertex 0 -31.1111 8.33706
      vertex 6 -31.4142 8.58579
      vertex 6 -31.1111 8.33706
    endloop
  endfacet
  facet normal 0 0.634395 0.773009
    outer loop
      vertex 6 -31.4142 8.58579
      vertex 0 -31.1111 8.33706
      vertex 0 -31.4142 8.58579
    endloop
  endfacet
  facet normal -0 0.290286 0.95694
    outer loop
      vertex 0 -30.3902 8.03843
      vertex 6 -30.7654 8.15224
      vertex 6 -30.3902 8.03843
    endloop
  endfacet
  facet normal 0 0.290286 0.95694
    outer loop
      vertex 6 -30.7654 8.15224
      vertex 0 -30.3902 8.03843
      vertex 0 -30.7654 8.15224
    endloop
  endfacet
  facet normal -0 0.0980167 0.995185
    outer loop
      vertex 0 -30 8
      vertex 6 -30.3902 8.03843
      vertex 6 -30 8
    endloop
  endfacet
  facet normal 0 0.0980167 0.995185
    outer loop
      vertex 6 -30.3902 8.03843
      vertex 0 -30 8
      vertex 0 -30.3902 8.03843
    endloop
  endfacet
  facet normal 0 -0.0980167 0.995185
    outer loop
      vertex 0 30.3902 8.03843
      vertex 6 30 8
      vertex 6 30.3902 8.03843
    endloop
  endfacet
  facet normal 0 -0.0980167 0.995185
    outer loop
      vertex 6 30 8
      vertex 0 30.3902 8.03843
      vertex 0 30 8
    endloop
  endfacet
  facet normal 0 -0.0980191 -0.995185
    outer loop
      vertex 0 30 12
      vertex 6 30.3902 11.9616
      vertex 6 30 12
    endloop
  endfacet
  facet normal -0 -0.0980191 -0.995185
    outer loop
      vertex 6 30.3902 11.9616
      vertex 0 30 12
      vertex 0 30.3902 11.9616
    endloop
  endfacet
  facet normal 0 0.995185 0.0980165
    outer loop
      vertex 6 28.0384 9.60982
      vertex 0 28 10
      vertex 6 28 10
    endloop
  endfacet
  facet normal 0 0.995185 0.0980165
    outer loop
      vertex 0 28 10
      vertex 6 28.0384 9.60982
      vertex 0 28.0384 9.60982
    endloop
  endfacet
  facet normal 0 -0.77301 -0.634394
    outer loop
      vertex 0 31.6629 11.1111
      vertex 6 31.4142 11.4142
      vertex 0 31.4142 11.4142
    endloop
  endfacet
  facet normal 0 -0.77301 -0.634394
    outer loop
      vertex 6 31.4142 11.4142
      vertex 0 31.6629 11.1111
      vertex 6 31.6629 11.1111
    endloop
  endfacet
  facet normal 0 -0.95694 -0.290285
    outer loop
      vertex 0 31.9616 10.3902
      vertex 6 31.8478 10.7654
      vertex 0 31.8478 10.7654
    endloop
  endfacet
  facet normal 0 -0.95694 -0.290285
    outer loop
      vertex 6 31.8478 10.7654
      vertex 0 31.9616 10.3902
      vertex 6 31.9616 10.3902
    endloop
  endfacet
  facet normal -0 0.290286 0.95694
    outer loop
      vertex 0 29.6098 8.03843
      vertex 6 29.2346 8.15224
      vertex 6 29.6098 8.03843
    endloop
  endfacet
  facet normal 0 0.290286 0.95694
    outer loop
      vertex 6 29.2346 8.15224
      vertex 0 29.6098 8.03843
      vertex 0 29.2346 8.15224
    endloop
  endfacet
  facet normal 0 -0.290286 0.95694
    outer loop
      vertex 0 30.7654 8.15224
      vertex 6 30.3902 8.03843
      vertex 6 30.7654 8.15224
    endloop
  endfacet
  facet normal 0 -0.290286 0.95694
    outer loop
      vertex 6 30.3902 8.03843
      vertex 0 30.7654 8.15224
      vertex 0 30.3902 8.03843
    endloop
  endfacet
  facet normal 0 -0.634395 0.773009
    outer loop
      vertex 0 31.4142 8.58579
      vertex 6 31.1111 8.33706
      vertex 6 31.4142 8.58579
    endloop
  endfacet
  facet normal 0 -0.634395 0.773009
    outer loop
      vertex 6 31.1111 8.33706
      vertex 0 31.4142 8.58579
      vertex 0 31.1111 8.33706
    endloop
  endfacet
  facet normal 0 -0.995185 0.0980165
    outer loop
      vertex 0 31.9616 9.60982
      vertex 6 32 10
      vertex 0 32 10
    endloop
  endfacet
  facet normal 0 -0.995185 0.0980165
    outer loop
      vertex 6 32 10
      vertex 0 31.9616 9.60982
      vertex 6 31.9616 9.60982
    endloop
  endfacet
  facet normal 0 -0.881921 0.471397
    outer loop
      vertex 0 31.6629 8.88886
      vertex 6 31.8478 9.23463
      vertex 0 31.8478 9.23463
    endloop
  endfacet
  facet normal 0 -0.881921 0.471397
    outer loop
      vertex 6 31.8478 9.23463
      vertex 0 31.6629 8.88886
      vertex 6 31.6629 8.88886
    endloop
  endfacet
  facet normal 0 -0.471393 -0.881923
    outer loop
      vertex 0 30.7654 11.8478
      vertex 6 31.1111 11.6629
      vertex 6 30.7654 11.8478
    endloop
  endfacet
  facet normal -0 -0.471393 -0.881923
    outer loop
      vertex 6 31.1111 11.6629
      vertex 0 30.7654 11.8478
      vertex 0 31.1111 11.6629
    endloop
  endfacet
  facet normal 0 -0.634395 -0.773009
    outer loop
      vertex 0 31.1111 11.6629
      vertex 6 31.4142 11.4142
      vertex 6 31.1111 11.6629
    endloop
  endfacet
  facet normal -0 -0.634395 -0.773009
    outer loop
      vertex 6 31.4142 11.4142
      vertex 0 31.1111 11.6629
      vertex 0 31.4142 11.4142
    endloop
  endfacet
  facet normal 0 -0.290286 -0.95694
    outer loop
      vertex 0 30.3902 11.9616
      vertex 6 30.7654 11.8478
      vertex 6 30.3902 11.9616
    endloop
  endfacet
  facet normal -0 -0.290286 -0.95694
    outer loop
      vertex 6 30.7654 11.8478
      vertex 0 30.3902 11.9616
      vertex 0 30.7654 11.8478
    endloop
  endfacet
  facet normal 0 -0.881921 -0.471397
    outer loop
      vertex 0 31.8478 10.7654
      vertex 6 31.6629 11.1111
      vertex 0 31.6629 11.1111
    endloop
  endfacet
  facet normal 0 -0.881921 -0.471397
    outer loop
      vertex 6 31.6629 11.1111
      vertex 0 31.8478 10.7654
      vertex 6 31.8478 10.7654
    endloop
  endfacet
  facet normal 0 -0.995185 -0.0980167
    outer loop
      vertex 0 32 10
      vertex 6 31.9616 10.3902
      vertex 0 31.9616 10.3902
    endloop
  endfacet
  facet normal 0 -0.995185 -0.0980167
    outer loop
      vertex 6 31.9616 10.3902
      vertex 0 32 10
      vertex 6 32 10
    endloop
  endfacet
  facet normal -0 0.0980162 0.995185
    outer loop
      vertex 0 30 8
      vertex 6 29.6098 8.03843
      vertex 6 30 8
    endloop
  endfacet
  facet normal 0 0.0980162 0.995185
    outer loop
      vertex 6 29.6098 8.03843
      vertex 0 30 8
      vertex 0 29.6098 8.03843
    endloop
  endfacet
  facet normal 0 0.634393 -0.773011
    outer loop
      vertex 0 28.5858 11.4142
      vertex 6 28.8889 11.6629
      vertex 6 28.5858 11.4142
    endloop
  endfacet
  facet normal 0 0.634393 -0.773011
    outer loop
      vertex 6 28.8889 11.6629
      vertex 0 28.5858 11.4142
      vertex 0 28.8889 11.6629
    endloop
  endfacet
  facet normal 0 -0.471393 0.881923
    outer loop
      vertex 0 31.1111 8.33706
      vertex 6 30.7654 8.15224
      vertex 6 31.1111 8.33706
    endloop
  endfacet
  facet normal 0 -0.471393 0.881923
    outer loop
      vertex 6 30.7654 8.15224
      vertex 0 31.1111 8.33706
      vertex 0 30.7654 8.15224
    endloop
  endfacet
  facet normal 0 -0.77301 0.634394
    outer loop
      vertex 0 31.4142 8.58579
      vertex 6 31.6629 8.88886
      vertex 0 31.6629 8.88886
    endloop
  endfacet
  facet normal 0 -0.77301 0.634394
    outer loop
      vertex 6 31.6629 8.88886
      vertex 0 31.4142 8.58579
      vertex 6 31.4142 8.58579
    endloop
  endfacet
  facet normal 0 -0.95694 0.290285
    outer loop
      vertex 0 31.8478 9.23463
      vertex 6 31.9616 9.60982
      vertex 0 31.9616 9.60982
    endloop
  endfacet
  facet normal 0 -0.95694 0.290285
    outer loop
      vertex 6 31.9616 9.60982
      vertex 0 31.8478 9.23463
      vertex 6 31.8478 9.23463
    endloop
  endfacet
  facet normal -0 0.471395 0.881922
    outer loop
      vertex 0 29.2346 8.15224
      vertex 6 28.8889 8.33706
      vertex 6 29.2346 8.15224
    endloop
  endfacet
  facet normal 0 0.471395 0.881922
    outer loop
      vertex 6 28.8889 8.33706
      vertex 0 29.2346 8.15224
      vertex 0 28.8889 8.33706
    endloop
  endfacet
  facet normal 0 0.290286 -0.95694
    outer loop
      vertex 0 29.2346 11.8478
      vertex 6 29.6098 11.9616
      vertex 6 29.2346 11.8478
    endloop
  endfacet
  facet normal 0 0.290286 -0.95694
    outer loop
      vertex 6 29.6098 11.9616
      vertex 0 29.2346 11.8478
      vertex 0 29.6098 11.9616
    endloop
  endfacet
  facet normal 0 0.95694 0.290285
    outer loop
      vertex 6 28.1522 9.23463
      vertex 0 28.0384 9.60982
      vertex 6 28.0384 9.60982
    endloop
  endfacet
  facet normal 0 0.95694 0.290285
    outer loop
      vertex 0 28.0384 9.60982
      vertex 6 28.1522 9.23463
      vertex 0 28.1522 9.23463
    endloop
  endfacet
  facet normal 0 0.77301 0.634394
    outer loop
      vertex 6 28.5858 8.58579
      vertex 0 28.3371 8.88886
      vertex 6 28.3371 8.88886
    endloop
  endfacet
  facet normal 0 0.77301 0.634394
    outer loop
      vertex 0 28.3371 8.88886
      vertex 6 28.5858 8.58579
      vertex 0 28.5858 8.58579
    endloop
  endfacet
  facet normal 0 0.995185 -0.0980167
    outer loop
      vertex 6 28 10
      vertex 0 28.0384 10.3902
      vertex 6 28.0384 10.3902
    endloop
  endfacet
  facet normal 0 0.995185 -0.0980167
    outer loop
      vertex 0 28.0384 10.3902
      vertex 6 28 10
      vertex 0 28 10
    endloop
  endfacet
  facet normal 0 0.95694 -0.290285
    outer loop
      vertex 6 28.0384 10.3902
      vertex 0 28.1522 10.7654
      vertex 6 28.1522 10.7654
    endloop
  endfacet
  facet normal 0 0.95694 -0.290285
    outer loop
      vertex 0 28.1522 10.7654
      vertex 6 28.0384 10.3902
      vertex 0 28.0384 10.3902
    endloop
  endfacet
  facet normal 0 0.881923 -0.471394
    outer loop
      vertex 6 28.1522 10.7654
      vertex 0 28.3371 11.1111
      vertex 6 28.3371 11.1111
    endloop
  endfacet
  facet normal 0 0.881923 -0.471394
    outer loop
      vertex 0 28.3371 11.1111
      vertex 6 28.1522 10.7654
      vertex 0 28.1522 10.7654
    endloop
  endfacet
  facet normal 0 0.77301 -0.634394
    outer loop
      vertex 6 28.3371 11.1111
      vertex 0 28.5858 11.4142
      vertex 6 28.5858 11.4142
    endloop
  endfacet
  facet normal 0 0.77301 -0.634394
    outer loop
      vertex 0 28.5858 11.4142
      vertex 6 28.3371 11.1111
      vertex 0 28.3371 11.1111
    endloop
  endfacet
  facet normal 0 0.471395 -0.881922
    outer loop
      vertex 0 28.8889 11.6629
      vertex 6 29.2346 11.8478
      vertex 6 28.8889 11.6629
    endloop
  endfacet
  facet normal 0 0.471395 -0.881922
    outer loop
      vertex 6 29.2346 11.8478
      vertex 0 28.8889 11.6629
      vertex 0 29.2346 11.8478
    endloop
  endfacet
  facet normal 0 0.0980186 -0.995185
    outer loop
      vertex 0 29.6098 11.9616
      vertex 6 30 12
      vertex 6 29.6098 11.9616
    endloop
  endfacet
  facet normal 0 0.0980186 -0.995185
    outer loop
      vertex 6 30 12
      vertex 0 29.6098 11.9616
      vertex 0 30 12
    endloop
  endfacet
  facet normal 0 0.881923 0.471394
    outer loop
      vertex 6 28.3371 8.88886
      vertex 0 28.1522 9.23463
      vertex 6 28.1522 9.23463
    endloop
  endfacet
  facet normal 0 0.881923 0.471394
    outer loop
      vertex 0 28.1522 9.23463
      vertex 6 28.3371 8.88886
      vertex 0 28.3371 8.88886
    endloop
  endfacet
  facet normal -0 0.634393 0.773011
    outer loop
      vertex 0 28.8889 8.33706
      vertex 6 28.5858 8.58579
      vertex 6 28.8889 8.33706
    endloop
  endfacet
  facet normal 0 0.634393 0.773011
    outer loop
      vertex 6 28.5858 8.58579
      vertex 0 28.8889 8.33706
      vertex 0 28.5858 8.58579
    endloop
  endfacet
  facet normal 0 -0.881922 0.471395
    outer loop
      vertex 37.19 1.66294 8.88886
      vertex 40 1.84776 9.23463
      vertex 37.19 1.84776 9.23463
    endloop
  endfacet
  facet normal 0 -0.881922 0.471395
    outer loop
      vertex 40 1.84776 9.23463
      vertex 37.19 1.66294 8.88886
      vertex 40 1.66294 8.88886
    endloop
  endfacet
  facet normal -0 0.0980167 0.995185
    outer loop
      vertex 37.19 0 8
      vertex 40 -0.390181 8.03843
      vertex 40 0 8
    endloop
  endfacet
  facet normal 0 0.0980167 0.995185
    outer loop
      vertex 40 -0.390181 8.03843
      vertex 37.19 0 8
      vertex 37.19 -0.390181 8.03843
    endloop
  endfacet
  facet normal 0 0.95694 -0.290285
    outer loop
      vertex 40 -1.96157 10.3902
      vertex 37.19 -1.84776 10.7654
      vertex 40 -1.84776 10.7654
    endloop
  endfacet
  facet normal 0 0.95694 -0.290285
    outer loop
      vertex 37.19 -1.84776 10.7654
      vertex 40 -1.96157 10.3902
      vertex 37.19 -1.96157 10.3902
    endloop
  endfacet
  facet normal 0 -0.95694 -0.290285
    outer loop
      vertex 37.19 1.96157 10.3902
      vertex 40 1.84776 10.7654
      vertex 37.19 1.84776 10.7654
    endloop
  endfacet
  facet normal 0 -0.95694 -0.290285
    outer loop
      vertex 40 1.84776 10.7654
      vertex 37.19 1.96157 10.3902
      vertex 40 1.96157 10.3902
    endloop
  endfacet
  facet normal 0 -0.471395 -0.881922
    outer loop
      vertex 37.19 0.765367 11.8478
      vertex 40 1.11114 11.6629
      vertex 40 0.765367 11.8478
    endloop
  endfacet
  facet normal -0 -0.471395 -0.881922
    outer loop
      vertex 40 1.11114 11.6629
      vertex 37.19 0.765367 11.8478
      vertex 37.19 1.11114 11.6629
    endloop
  endfacet
  facet normal 0 0.290285 -0.95694
    outer loop
      vertex 37.19 -0.765367 11.8478
      vertex 40 -0.390181 11.9616
      vertex 40 -0.765367 11.8478
    endloop
  endfacet
  facet normal 0 0.290285 -0.95694
    outer loop
      vertex 40 -0.390181 11.9616
      vertex 37.19 -0.765367 11.8478
      vertex 37.19 -0.390181 11.9616
    endloop
  endfacet
  facet normal 0 0.881922 -0.471395
    outer loop
      vertex 40 -1.84776 10.7654
      vertex 37.19 -1.66294 11.1111
      vertex 40 -1.66294 11.1111
    endloop
  endfacet
  facet normal 0 0.881922 -0.471395
    outer loop
      vertex 37.19 -1.66294 11.1111
      vertex 40 -1.84776 10.7654
      vertex 37.19 -1.84776 10.7654
    endloop
  endfacet
  facet normal 0 -0.471395 0.881922
    outer loop
      vertex 37.19 1.11114 8.33706
      vertex 40 0.765367 8.15224
      vertex 40 1.11114 8.33706
    endloop
  endfacet
  facet normal 0 -0.471395 0.881922
    outer loop
      vertex 40 0.765367 8.15224
      vertex 37.19 1.11114 8.33706
      vertex 37.19 0.765367 8.15224
    endloop
  endfacet
  facet normal 0 -0.290285 0.95694
    outer loop
      vertex 37.19 0.765367 8.15224
      vertex 40 0.390181 8.03843
      vertex 40 0.765367 8.15224
    endloop
  endfacet
  facet normal 0 -0.290285 0.95694
    outer loop
      vertex 40 0.390181 8.03843
      vertex 37.19 0.765367 8.15224
      vertex 37.19 0.390181 8.03843
    endloop
  endfacet
  facet normal 0 -0.634394 0.77301
    outer loop
      vertex 37.19 1.41421 8.58579
      vertex 40 1.11114 8.33706
      vertex 40 1.41421 8.58579
    endloop
  endfacet
  facet normal 0 -0.634394 0.77301
    outer loop
      vertex 40 1.11114 8.33706
      vertex 37.19 1.41421 8.58579
      vertex 37.19 1.11114 8.33706
    endloop
  endfacet
  facet normal 0 -0.995185 0.0980189
    outer loop
      vertex 37.19 1.96157 9.60982
      vertex 40 2 10
      vertex 37.19 2 10
    endloop
  endfacet
  facet normal 0 -0.995185 0.0980189
    outer loop
      vertex 40 2 10
      vertex 37.19 1.96157 9.60982
      vertex 40 1.96157 9.60982
    endloop
  endfacet
  facet normal 0 -0.0980191 -0.995185
    outer loop
      vertex 37.19 0 12
      vertex 40 0.390181 11.9616
      vertex 40 0 12
    endloop
  endfacet
  facet normal -0 -0.0980191 -0.995185
    outer loop
      vertex 40 0.390181 11.9616
      vertex 37.19 0 12
      vertex 37.19 0.390181 11.9616
    endloop
  endfacet
  facet normal 0 -0.634394 -0.77301
    outer loop
      vertex 37.19 1.11114 11.6629
      vertex 40 1.41421 11.4142
      vertex 40 1.11114 11.6629
    endloop
  endfacet
  facet normal -0 -0.634394 -0.77301
    outer loop
      vertex 40 1.41421 11.4142
      vertex 37.19 1.11114 11.6629
      vertex 37.19 1.41421 11.4142
    endloop
  endfacet
  facet normal 0 -0.881922 -0.471395
    outer loop
      vertex 37.19 1.84776 10.7654
      vertex 40 1.66294 11.1111
      vertex 37.19 1.66294 11.1111
    endloop
  endfacet
  facet normal 0 -0.881922 -0.471395
    outer loop
      vertex 40 1.66294 11.1111
      vertex 37.19 1.84776 10.7654
      vertex 40 1.84776 10.7654
    endloop
  endfacet
  facet normal 0 -0.995185 -0.0980191
    outer loop
      vertex 37.19 2 10
      vertex 40 1.96157 10.3902
      vertex 37.19 1.96157 10.3902
    endloop
  endfacet
  facet normal 0 -0.995185 -0.0980191
    outer loop
      vertex 40 1.96157 10.3902
      vertex 37.19 2 10
      vertex 40 2 10
    endloop
  endfacet
  facet normal 0 -0.77301 -0.634394
    outer loop
      vertex 37.19 1.66294 11.1111
      vertex 40 1.41421 11.4142
      vertex 37.19 1.41421 11.4142
    endloop
  endfacet
  facet normal 0 -0.77301 -0.634394
    outer loop
      vertex 40 1.41421 11.4142
      vertex 37.19 1.66294 11.1111
      vertex 40 1.66294 11.1111
    endloop
  endfacet
  facet normal 0 -0.0980167 0.995185
    outer loop
      vertex 37.19 0.390181 8.03843
      vertex 40 0 8
      vertex 40 0.390181 8.03843
    endloop
  endfacet
  facet normal 0 -0.0980167 0.995185
    outer loop
      vertex 40 0 8
      vertex 37.19 0.390181 8.03843
      vertex 37.19 0 8
    endloop
  endfacet
  facet normal 0 0.995185 0.0980189
    outer loop
      vertex 40 -1.96157 9.60982
      vertex 37.19 -2 10
      vertex 40 -2 10
    endloop
  endfacet
  facet normal 0 0.995185 0.0980189
    outer loop
      vertex 37.19 -2 10
      vertex 40 -1.96157 9.60982
      vertex 37.19 -1.96157 9.60982
    endloop
  endfacet
  facet normal 0 0.881922 0.471395
    outer loop
      vertex 40 -1.66294 8.88886
      vertex 37.19 -1.84776 9.23463
      vertex 40 -1.84776 9.23463
    endloop
  endfacet
  facet normal 0 0.881922 0.471395
    outer loop
      vertex 37.19 -1.84776 9.23463
      vertex 40 -1.66294 8.88886
      vertex 37.19 -1.66294 8.88886
    endloop
  endfacet
  facet normal 0 0.77301 0.634394
    outer loop
      vertex 40 -1.41421 8.58579
      vertex 37.19 -1.66294 8.88886
      vertex 40 -1.66294 8.88886
    endloop
  endfacet
  facet normal 0 0.77301 0.634394
    outer loop
      vertex 37.19 -1.66294 8.88886
      vertex 40 -1.41421 8.58579
      vertex 37.19 -1.41421 8.58579
    endloop
  endfacet
  facet normal -0 0.471395 0.881922
    outer loop
      vertex 37.19 -0.765367 8.15224
      vertex 40 -1.11114 8.33706
      vertex 40 -0.765367 8.15224
    endloop
  endfacet
  facet normal 0 0.471395 0.881922
    outer loop
      vertex 40 -1.11114 8.33706
      vertex 37.19 -0.765367 8.15224
      vertex 37.19 -1.11114 8.33706
    endloop
  endfacet
  facet normal 0 0.995185 -0.0980191
    outer loop
      vertex 40 -2 10
      vertex 37.19 -1.96157 10.3902
      vertex 40 -1.96157 10.3902
    endloop
  endfacet
  facet normal 0 0.995185 -0.0980191
    outer loop
      vertex 37.19 -1.96157 10.3902
      vertex 40 -2 10
      vertex 37.19 -2 10
    endloop
  endfacet
  facet normal 0 0.77301 -0.634394
    outer loop
      vertex 40 -1.66294 11.1111
      vertex 37.19 -1.41421 11.4142
      vertex 40 -1.41421 11.4142
    endloop
  endfacet
  facet normal 0 0.77301 -0.634394
    outer loop
      vertex 37.19 -1.41421 11.4142
      vertex 40 -1.66294 11.1111
      vertex 37.19 -1.66294 11.1111
    endloop
  endfacet
  facet normal 0 0.471395 -0.881922
    outer loop
      vertex 37.19 -1.11114 11.6629
      vertex 40 -0.765367 11.8478
      vertex 40 -1.11114 11.6629
    endloop
  endfacet
  facet normal 0 0.471395 -0.881922
    outer loop
      vertex 40 -0.765367 11.8478
      vertex 37.19 -1.11114 11.6629
      vertex 37.19 -0.765367 11.8478
    endloop
  endfacet
  facet normal 0 0.0980191 -0.995185
    outer loop
      vertex 37.19 -0.390181 11.9616
      vertex 40 0 12
      vertex 40 -0.390181 11.9616
    endloop
  endfacet
  facet normal 0 0.0980191 -0.995185
    outer loop
      vertex 40 0 12
      vertex 37.19 -0.390181 11.9616
      vertex 37.19 0 12
    endloop
  endfacet
  facet normal 0 0.634394 -0.77301
    outer loop
      vertex 37.19 -1.41421 11.4142
      vertex 40 -1.11114 11.6629
      vertex 40 -1.41421 11.4142
    endloop
  endfacet
  facet normal 0 0.634394 -0.77301
    outer loop
      vertex 40 -1.11114 11.6629
      vertex 37.19 -1.41421 11.4142
      vertex 37.19 -1.11114 11.6629
    endloop
  endfacet
  facet normal 0 -0.77301 0.634394
    outer loop
      vertex 37.19 1.41421 8.58579
      vertex 40 1.66294 8.88886
      vertex 37.19 1.66294 8.88886
    endloop
  endfacet
  facet normal 0 -0.77301 0.634394
    outer loop
      vertex 40 1.66294 8.88886
      vertex 37.19 1.41421 8.58579
      vertex 40 1.41421 8.58579
    endloop
  endfacet
  facet normal 0 -0.95694 0.290285
    outer loop
      vertex 37.19 1.84776 9.23463
      vertex 40 1.96157 9.60982
      vertex 37.19 1.96157 9.60982
    endloop
  endfacet
  facet normal 0 -0.95694 0.290285
    outer loop
      vertex 40 1.96157 9.60982
      vertex 37.19 1.84776 9.23463
      vertex 40 1.84776 9.23463
    endloop
  endfacet
  facet normal 0 -0.290285 -0.95694
    outer loop
      vertex 37.19 0.390181 11.9616
      vertex 40 0.765367 11.8478
      vertex 40 0.390181 11.9616
    endloop
  endfacet
  facet normal -0 -0.290285 -0.95694
    outer loop
      vertex 40 0.765367 11.8478
      vertex 37.19 0.390181 11.9616
      vertex 37.19 0.765367 11.8478
    endloop
  endfacet
  facet normal 0 0.95694 0.290285
    outer loop
      vertex 40 -1.84776 9.23463
      vertex 37.19 -1.96157 9.60982
      vertex 40 -1.96157 9.60982
    endloop
  endfacet
  facet normal 0 0.95694 0.290285
    outer loop
      vertex 37.19 -1.96157 9.60982
      vertex 40 -1.84776 9.23463
      vertex 37.19 -1.84776 9.23463
    endloop
  endfacet
  facet normal -0 0.634394 0.77301
    outer loop
      vertex 37.19 -1.11114 8.33706
      vertex 40 -1.41421 8.58579
      vertex 40 -1.11114 8.33706
    endloop
  endfacet
  facet normal 0 0.634394 0.77301
    outer loop
      vertex 40 -1.41421 8.58579
      vertex 37.19 -1.11114 8.33706
      vertex 37.19 -1.41421 8.58579
    endloop
  endfacet
  facet normal -0 0.290285 0.95694
    outer loop
      vertex 37.19 -0.390181 8.03843
      vertex 40 -0.765367 8.15224
      vertex 40 -0.390181 8.03843
    endloop
  endfacet
  facet normal 0 0.290285 0.95694
    outer loop
      vertex 40 -0.765367 8.15224
      vertex 37.19 -0.390181 8.03843
      vertex 37.19 -0.765367 8.15224
    endloop
  endfacet
  facet normal 0 -0.499999 -0.866026
    outer loop
      vertex 34 0 14.0414
      vertex 37.19 3.5 12.0207
      vertex 37.19 0 14.0414
    endloop
  endfacet
  facet normal -0 -0.499999 -0.866026
    outer loop
      vertex 37.19 3.5 12.0207
      vertex 34 0 14.0414
      vertex 34 3.5 12.0207
    endloop
  endfacet
  facet normal 0 -0.499999 0.866026
    outer loop
      vertex 34 3.5 7.97927
      vertex 37.19 0 5.95855
      vertex 37.19 3.5 7.97927
    endloop
  endfacet
  facet normal 0 -0.499999 0.866026
    outer loop
      vertex 37.19 0 5.95855
      vertex 34 3.5 7.97927
      vertex 34 0 5.95855
    endloop
  endfacet
  facet normal 0 -1 0
    outer loop
      vertex 34 3.5 7.97927
      vertex 37.19 3.5 12.0207
      vertex 34 3.5 12.0207
    endloop
  endfacet
  facet normal 0 -1 -0
    outer loop
      vertex 37.19 3.5 12.0207
      vertex 34 3.5 7.97927
      vertex 37.19 3.5 7.97927
    endloop
  endfacet
  facet normal -1 0 0
    outer loop
      vertex 37.19 3.5 7.97927
      vertex 37.19 2 10
      vertex 37.19 3.5 12.0207
    endloop
  endfacet
  facet normal -1 0 0
    outer loop
      vertex 37.19 3.5 7.97927
      vertex 37.19 1.96157 9.60982
      vertex 37.19 2 10
    endloop
  endfacet
  facet normal -1 0 0
    outer loop
      vertex 37.19 3.5 7.97927
      vertex 37.19 1.84776 9.23463
      vertex 37.19 1.96157 9.60982
    endloop
  endfacet
  facet normal -1 0 0
    outer loop
      vertex 37.19 3.5 7.97927
      vertex 37.19 1.66294 8.88886
      vertex 37.19 1.84776 9.23463
    endloop
  endfacet
  facet normal -1 0 0
    outer loop
      vertex 37.19 3.5 7.97927
      vertex 37.19 1.41421 8.58579
      vertex 37.19 1.66294 8.88886
    endloop
  endfacet
  facet normal -1 0 0
    outer loop
      vertex 37.19 3.5 7.97927
      vertex 37.19 1.11114 8.33706
      vertex 37.19 1.41421 8.58579
    endloop
  endfacet
  facet normal -1 0 0
    outer loop
      vertex 37.19 0 5.95855
      vertex 37.19 1.11114 8.33706
      vertex 37.19 3.5 7.97927
    endloop
  endfacet
  facet normal -1 0 0
    outer loop
      vertex 37.19 1.11114 8.33706
      vertex 37.19 0 5.95855
      vertex 37.19 0.765367 8.15224
    endloop
  endfacet
  facet normal -1 0 0
    outer loop
      vertex 37.19 0.765367 8.15224
      vertex 37.19 0 5.95855
      vertex 37.19 0.390181 8.03843
    endloop
  endfacet
  facet normal -1 0 0
    outer loop
      vertex 37.19 0 5.95855
      vertex 37.19 0 8
      vertex 37.19 0.390181 8.03843
    endloop
  endfacet
  facet normal -1 0 0
    outer loop
      vertex 37.19 0 5.95855
      vertex 37.19 -0.390181 8.03843
      vertex 37.19 0 8
    endloop
  endfacet
  facet normal -1 0 0
    outer loop
      vertex 37.19 0 5.95855
      vertex 37.19 -0.765367 8.15224
      vertex 37.19 -0.390181 8.03843
    endloop
  endfacet
  facet normal -1 0 0
    outer loop
      vertex 37.19 0 5.95855
      vertex 37.19 -1.11114 8.33706
      vertex 37.19 -0.765367 8.15224
    endloop
  endfacet
  facet normal -1 0 0
    outer loop
      vertex 37.19 -3.5 7.97927
      vertex 37.19 -1.11114 8.33706
      vertex 37.19 0 5.95855
    endloop
  endfacet
  facet normal -1 -0 0
    outer loop
      vertex 37.19 -1.11114 8.33706
      vertex 37.19 -3.5 7.97927
      vertex 37.19 -1.41421 8.58579
    endloop
  endfacet
  facet normal -1 -0 0
    outer loop
      vertex 37.19 -1.96157 9.60982
      vertex 37.19 -3.5 7.97927
      vertex 37.19 -2 10
    endloop
  endfacet
  facet normal -1 -0 0
    outer loop
      vertex 37.19 -1.84776 9.23463
      vertex 37.19 -3.5 7.97927
      vertex 37.19 -1.96157 9.60982
    endloop
  endfacet
  facet normal -1 -0 0
    outer loop
      vertex 37.19 -1.66294 8.88886
      vertex 37.19 -3.5 7.97927
      vertex 37.19 -1.84776 9.23463
    endloop
  endfacet
  facet normal -1 -0 0
    outer loop
      vertex 37.19 -1.41421 8.58579
      vertex 37.19 -3.5 7.97927
      vertex 37.19 -1.66294 8.88886
    endloop
  endfacet
  facet normal -1 0 0
    outer loop
      vertex 37.19 1.96157 10.3902
      vertex 37.19 3.5 12.0207
      vertex 37.19 2 10
    endloop
  endfacet
  facet normal -1 0 0
    outer loop
      vertex 37.19 1.84776 10.7654
      vertex 37.19 3.5 12.0207
      vertex 37.19 1.96157 10.3902
    endloop
  endfacet
  facet normal -1 0 0
    outer loop
      vertex 37.19 1.66294 11.1111
      vertex 37.19 3.5 12.0207
      vertex 37.19 1.84776 10.7654
    endloop
  endfacet
  facet normal -1 0 0
    outer loop
      vertex 37.19 1.41421 11.4142
      vertex 37.19 3.5 12.0207
      vertex 37.19 1.66294 11.1111
    endloop
  endfacet
  facet normal -1 0 0
    outer loop
      vertex 37.19 1.11114 11.6629
      vertex 37.19 3.5 12.0207
      vertex 37.19 1.41421 11.4142
    endloop
  endfacet
  facet normal -1 0 0
    outer loop
      vertex 37.19 0 14.0414
      vertex 37.19 1.11114 11.6629
      vertex 37.19 0.765367 11.8478
    endloop
  endfacet
  facet normal -1 0 0
    outer loop
      vertex 37.19 0 14.0414
      vertex 37.19 0.765367 11.8478
      vertex 37.19 0.390181 11.9616
    endloop
  endfacet
  facet normal -1 0 0
    outer loop
      vertex 37.19 0 14.0414
      vertex 37.19 0.390181 11.9616
      vertex 37.19 0 12
    endloop
  endfacet
  facet normal -1 0 0
    outer loop
      vertex 37.19 1.11114 11.6629
      vertex 37.19 0 14.0414
      vertex 37.19 3.5 12.0207
    endloop
  endfacet
  facet normal -1 0 0
    outer loop
      vertex 37.19 -0.390181 11.9616
      vertex 37.19 0 14.0414
      vertex 37.19 0 12
    endloop
  endfacet
  facet normal -1 0 0
    outer loop
      vertex 37.19 -0.765367 11.8478
      vertex 37.19 0 14.0414
      vertex 37.19 -0.390181 11.9616
    endloop
  endfacet
  facet normal -1 0 0
    outer loop
      vertex 37.19 -1.11114 11.6629
      vertex 37.19 0 14.0414
      vertex 37.19 -0.765367 11.8478
    endloop
  endfacet
  facet normal -1 0 0
    outer loop
      vertex 37.19 -3.5 12.0207
      vertex 37.19 -1.11114 11.6629
      vertex 37.19 -1.41421 11.4142
    endloop
  endfacet
  facet normal -1 0 0
    outer loop
      vertex 37.19 -3.5 12.0207
      vertex 37.19 -1.41421 11.4142
      vertex 37.19 -1.66294 11.1111
    endloop
  endfacet
  facet normal -1 0 0
    outer loop
      vertex 37.19 -3.5 12.0207
      vertex 37.19 -2 10
      vertex 37.19 -3.5 7.97927
    endloop
  endfacet
  facet normal -1 0 0
    outer loop
      vertex 37.19 -2 10
      vertex 37.19 -3.5 12.0207
      vertex 37.19 -1.96157 10.3902
    endloop
  endfacet
  facet normal -1 0 0
    outer loop
      vertex 37.19 -1.96157 10.3902
      vertex 37.19 -3.5 12.0207
      vertex 37.19 -1.84776 10.7654
    endloop
  endfacet
  facet normal -1 0 0
    outer loop
      vertex 37.19 -1.84776 10.7654
      vertex 37.19 -3.5 12.0207
      vertex 37.19 -1.66294 11.1111
    endloop
  endfacet
  facet normal -1 0 0
    outer loop
      vertex 37.19 -1.11114 11.6629
      vertex 37.19 -3.5 12.0207
      vertex 37.19 0 14.0414
    endloop
  endfacet
  facet normal 0 0.499999 -0.866026
    outer loop
      vertex 34 -3.5 12.0207
      vertex 37.19 0 14.0414
      vertex 37.19 -3.5 12.0207
    endloop
  endfacet
  facet normal 0 0.499999 -0.866026
    outer loop
      vertex 37.19 0 14.0414
      vertex 34 -3.5 12.0207
      vertex 34 0 14.0414
    endloop
  endfacet
  facet normal -0 0.499999 0.866026
    outer loop
      vertex 34 0 5.95855
      vertex 37.19 -3.5 7.97927
      vertex 37.19 0 5.95855
    endloop
  endfacet
  facet normal 0 0.499999 0.866026
    outer loop
      vertex 37.19 -3.5 7.97927
      vertex 34 0 5.95855
      vertex 34 -3.5 7.97927
    endloop
  endfacet
  facet normal 0 1 -0
    outer loop
      vertex 37.19 -3.5 7.97927
      vertex 34 -3.5 12.0207
      vertex 37.19 -3.5 12.0207
    endloop
  endfacet
  facet normal 0 1 0
    outer loop
      vertex 34 -3.5 12.0207
      vertex 37.19 -3.5 7.97927
      vertex 34 -3.5 7.97927
    endloop
  endfacet
endsolid OpenSCAD_Model
