solid OpenSCAD_Model
  facet normal 0.980785 0 -0.19509
    outer loop
      vertex 20 4 2
      vertex 19.8478 0 1.23463
      vertex 19.8478 4 1.23463
    endloop
  endfacet
  facet normal 0.980785 -4.65131e-08 -0.19509
    outer loop
      vertex 20 0 2
      vertex 19.8478 0 1.23463
      vertex 20 4 2
    endloop
  endfacet
  facet normal -0.19509 0 -0.980785
    outer loop
      vertex 1.23463 0 0.152241
      vertex 2 4 0
      vertex 2 0 0
    endloop
  endfacet
  facet normal -0.19509 0 -0.980785
    outer loop
      vertex 2 4 0
      vertex 1.23463 0 0.152241
      vertex 1.23463 4 0.152241
    endloop
  endfacet
  facet normal 0 -1 0
    outer loop
      vertex 5.88033 0 7.63033
      vertex 10 0 10
      vertex 5.63701 0 7.79291
    endloop
  endfacet
  facet normal 0 -1 0
    outer loop
      vertex 10 0 10
      vertex 14.563 0 7.79291
      vertex 14.85 0 7.85
    endloop
  endfacet
  facet normal 0 -1 0
    outer loop
      vertex 6.04291 0 7.38701
      vertex 10 0 10
      vertex 5.88033 0 7.63033
    endloop
  endfacet
  facet normal 0 -1 0
    outer loop
      vertex 10 0 10
      vertex 14.3197 0 7.63033
      vertex 14.563 0 7.79291
    endloop
  endfacet
  facet normal 0 -1 0
    outer loop
      vertex 6.1 0 7.1
      vertex 10 0 10
      vertex 6.04291 0 7.38701
    endloop
  endfacet
  facet normal 0 -1 0
    outer loop
      vertex 10 0 10
      vertex 14.1571 0 7.38701
      vertex 14.3197 0 7.63033
    endloop
  endfacet
  facet normal 0 -1 0
    outer loop
      vertex 6.04291 0 6.81299
      vertex 10 0 10
      vertex 6.1 0 7.1
    endloop
  endfacet
  facet normal 0 -1 0
    outer loop
      vertex 10 0 10
      vertex 14.1 0 7.1
      vertex 14.1571 0 7.38701
    endloop
  endfacet
  facet normal 0 -1 0
    outer loop
      vertex 14.1571 0 6.81299
      vertex 10 0 10
      vertex 6.04291 0 6.81299
    endloop
  endfacet
  facet normal 0 -1 0
    outer loop
      vertex 10 0 10
      vertex 14.1571 0 6.81299
      vertex 14.1 0 7.1
    endloop
  endfacet
  facet normal 0 -1 0
    outer loop
      vertex 5.88033 0 6.56967
      vertex 14.1571 0 6.81299
      vertex 6.04291 0 6.81299
    endloop
  endfacet
  facet normal 0 -1 0
    outer loop
      vertex 5.88033 0 6.56967
      vertex 14.3197 0 6.56967
      vertex 14.1571 0 6.81299
    endloop
  endfacet
  facet normal 0 -1 0
    outer loop
      vertex 5.63701 0 6.40709
      vertex 14.3197 0 6.56967
      vertex 5.88033 0 6.56967
    endloop
  endfacet
  facet normal 0 -1 0
    outer loop
      vertex 5.63701 0 6.40709
      vertex 14.563 0 6.40709
      vertex 14.3197 0 6.56967
    endloop
  endfacet
  facet normal 0 -1 0
    outer loop
      vertex 2 0 0
      vertex 5.63701 0 6.40709
      vertex 5.35 0 6.35
    endloop
  endfacet
  facet normal 0 -1 0
    outer loop
      vertex 5.63701 0 6.40709
      vertex 18 0 0
      vertex 14.563 0 6.40709
    endloop
  endfacet
  facet normal 0 -1 0
    outer loop
      vertex 0 0 40
      vertex 10 0 10
      vertex 10 0 40
    endloop
  endfacet
  facet normal 0 -1 0
    outer loop
      vertex 5.63701 0 7.79291
      vertex 10 0 10
      vertex 5.35 0 7.85
    endloop
  endfacet
  facet normal 0 -1 0
    outer loop
      vertex 5.06299 0 7.79291
      vertex 10 0 10
      vertex 0 0 40
    endloop
  endfacet
  facet normal 0 -1 0
    outer loop
      vertex 10 0 10
      vertex 5.06299 0 7.79291
      vertex 5.35 0 7.85
    endloop
  endfacet
  facet normal 0 -1 0
    outer loop
      vertex 0 0 40
      vertex 4.81967 0 7.63033
      vertex 5.06299 0 7.79291
    endloop
  endfacet
  facet normal 0 -1 0
    outer loop
      vertex 0 0 40
      vertex 4.65709 0 7.38701
      vertex 4.81967 0 7.63033
    endloop
  endfacet
  facet normal 0 -1 0
    outer loop
      vertex 0 0 2
      vertex 4.65709 0 7.38701
      vertex 0 0 40
    endloop
  endfacet
  facet normal 0 -1 0
    outer loop
      vertex 14.563 0 6.40709
      vertex 18 0 0
      vertex 14.85 0 6.35
    endloop
  endfacet
  facet normal 0 -1 0
    outer loop
      vertex 2 0 0
      vertex 5.35 0 6.35
      vertex 5.06299 0 6.40709
    endloop
  endfacet
  facet normal 0 -1 0
    outer loop
      vertex 4.65709 0 7.38701
      vertex 0 0 2
      vertex 4.6 0 7.1
    endloop
  endfacet
  facet normal 0 -1 0
    outer loop
      vertex 0 0 2
      vertex 4.65709 0 6.81299
      vertex 4.6 0 7.1
    endloop
  endfacet
  facet normal 0 -1 0
    outer loop
      vertex 0 0 2
      vertex 4.81967 0 6.56967
      vertex 4.65709 0 6.81299
    endloop
  endfacet
  facet normal 0 -1 0
    outer loop
      vertex 0 0 2
      vertex 5.06299 0 6.40709
      vertex 4.81967 0 6.56967
    endloop
  endfacet
  facet normal 0 -1 0
    outer loop
      vertex 2 0 0
      vertex 5.06299 0 6.40709
      vertex 0 0 2
    endloop
  endfacet
  facet normal 0 -1 0
    outer loop
      vertex 2 0 0
      vertex 0 0 2
      vertex 0.152241 0 1.23463
    endloop
  endfacet
  facet normal 0 -1 -0
    outer loop
      vertex 5.63701 0 6.40709
      vertex 2 0 0
      vertex 18 0 0
    endloop
  endfacet
  facet normal 0 -1 0
    outer loop
      vertex 2 0 0
      vertex 0.152241 0 1.23463
      vertex 0.585786 0 0.585786
    endloop
  endfacet
  facet normal 0 -1 0
    outer loop
      vertex 14.85 0 6.35
      vertex 18 0 0
      vertex 20 0 2
    endloop
  endfacet
  facet normal 0 -1 0
    outer loop
      vertex 2 0 0
      vertex 0.585786 0 0.585786
      vertex 1.23463 0 0.152241
    endloop
  endfacet
  facet normal 0 -1 0
    outer loop
      vertex 20 0 2
      vertex 18 0 0
      vertex 19.8478 0 1.23463
    endloop
  endfacet
  facet normal 0 -1 0
    outer loop
      vertex 19.8478 0 1.23463
      vertex 18 0 0
      vertex 19.4142 0 0.585786
    endloop
  endfacet
  facet normal 0 -1 0
    outer loop
      vertex 19.4142 0 0.585786
      vertex 18 0 0
      vertex 18.7654 0 0.152241
    endloop
  endfacet
  facet normal 0 -1 0
    outer loop
      vertex 10 0 10
      vertex 14.85 0 7.85
      vertex 20 0 10
    endloop
  endfacet
  facet normal 0 -1 0
    outer loop
      vertex 15.137 0 7.79291
      vertex 20 0 10
      vertex 14.85 0 7.85
    endloop
  endfacet
  facet normal 0 -1 0
    outer loop
      vertex 15.3803 0 7.63033
      vertex 20 0 10
      vertex 15.137 0 7.79291
    endloop
  endfacet
  facet normal 0 -1 0
    outer loop
      vertex 15.5429 0 7.38701
      vertex 20 0 10
      vertex 15.3803 0 7.63033
    endloop
  endfacet
  facet normal 0 -1 0
    outer loop
      vertex 15.6 0 7.1
      vertex 20 0 10
      vertex 15.5429 0 7.38701
    endloop
  endfacet
  facet normal 0 -1 0
    outer loop
      vertex 15.5429 0 6.81299
      vertex 20 0 10
      vertex 15.6 0 7.1
    endloop
  endfacet
  facet normal 0 -1 0
    outer loop
      vertex 20 0 2
      vertex 15.5429 0 6.81299
      vertex 15.3803 0 6.56967
    endloop
  endfacet
  facet normal 0 -1 0
    outer loop
      vertex 15.5429 0 6.81299
      vertex 20 0 2
      vertex 20 0 10
    endloop
  endfacet
  facet normal 0 -1 0
    outer loop
      vertex 15.137 0 6.40709
      vertex 20 0 2
      vertex 15.3803 0 6.56967
    endloop
  endfacet
  facet normal 0 -1 0
    outer loop
      vertex 20 0 2
      vertex 15.137 0 6.40709
      vertex 14.85 0 6.35
    endloop
  endfacet
  facet normal 0 1 -7.72436e-07
    outer loop
      vertex 18 4 0
      vertex 0.152241 4 1.23463
      vertex 19.8478 4 1.23463
    endloop
  endfacet
  facet normal 0 1 -7.72436e-07
    outer loop
      vertex 0.152241 4 1.23463
      vertex 18 4 0
      vertex 2 4 0
    endloop
  endfacet
  facet normal 0.19509 0 -0.980785
    outer loop
      vertex 18 0 0
      vertex 18.7654 4 0.152241
      vertex 18.7654 0 0.152241
    endloop
  endfacet
  facet normal 0.19509 0 -0.980785
    outer loop
      vertex 18.7654 4 0.152241
      vertex 18 0 0
      vertex 18 4 0
    endloop
  endfacet
  facet normal 1 -0 0
    outer loop
      vertex 20 0 10
      vertex 20 4 2
      vertex 20 4 10
    endloop
  endfacet
  facet normal 1 0 0
    outer loop
      vertex 20 4 2
      vertex 20 0 10
      vertex 20 0 2
    endloop
  endfacet
  facet normal -0 0 1
    outer loop
      vertex 10 4 10
      vertex 20 0 10
      vertex 20 4 10
    endloop
  endfacet
  facet normal 0 0 1
    outer loop
      vertex 20 0 10
      vertex 10 4 10
      vertex 10 0 10
    endloop
  endfacet
  facet normal 0 0 -1
    outer loop
      vertex 2 0 0
      vertex 18 4 0
      vertex 18 0 0
    endloop
  endfacet
  facet normal -0 0 -1
    outer loop
      vertex 18 4 0
      vertex 2 0 0
      vertex 2 4 0
    endloop
  endfacet
  facet normal -2.18774e-07 1 -1.09985e-06
    outer loop
      vertex 1.23463 4 0.152241
      vertex 0.152241 4 1.23463
      vertex 2 4 0
    endloop
  endfacet
  facet normal 0.831469 0 -0.555571
    outer loop
      vertex 19.8478 0 1.23463
      vertex 19.4142 4 0.585786
      vertex 19.8478 4 1.23463
    endloop
  endfacet
  facet normal 0.831469 0 -0.555571
    outer loop
      vertex 19.4142 4 0.585786
      vertex 19.8478 0 1.23463
      vertex 19.4142 0 0.585786
    endloop
  endfacet
  facet normal -1 0 0
    outer loop
      vertex 0 4 2
      vertex 0 0 2
      vertex 0 4 36
    endloop
  endfacet
  facet normal -1 0 0
    outer loop
      vertex 0 4 36
      vertex 0 14 40
      vertex 0 14 36
    endloop
  endfacet
  facet normal -1 0 0
    outer loop
      vertex 0 4 36
      vertex 0 0 40
      vertex 0 14 40
    endloop
  endfacet
  facet normal -1 0 0
    outer loop
      vertex 0 0 40
      vertex 0 4 36
      vertex 0 0 2
    endloop
  endfacet
  facet normal 0 1 -0
    outer loop
      vertex 14.3197 4 7.63033
      vertex 10 4 10
      vertex 14.563 4 7.79291
    endloop
  endfacet
  facet normal 0 1 0
    outer loop
      vertex 10 4 10
      vertex 5.63701 4 7.79291
      vertex 5.35 4 7.85
    endloop
  endfacet
  facet normal 0 1 -0
    outer loop
      vertex 14.1571 4 7.38701
      vertex 10 4 10
      vertex 14.3197 4 7.63033
    endloop
  endfacet
  facet normal 0 1 0
    outer loop
      vertex 10 4 10
      vertex 5.88033 4 7.63033
      vertex 5.63701 4 7.79291
    endloop
  endfacet
  facet normal 0 1 -0
    outer loop
      vertex 14.1 4 7.1
      vertex 10 4 10
      vertex 14.1571 4 7.38701
    endloop
  endfacet
  facet normal 0 1 0
    outer loop
      vertex 10 4 10
      vertex 6.04291 4 7.38701
      vertex 5.88033 4 7.63033
    endloop
  endfacet
  facet normal 0 1 0
    outer loop
      vertex 14.1571 4 6.81299
      vertex 10 4 10
      vertex 14.1 4 7.1
    endloop
  endfacet
  facet normal 0 1 0
    outer loop
      vertex 10 4 10
      vertex 6.1 4 7.1
      vertex 6.04291 4 7.38701
    endloop
  endfacet
  facet normal 0 1 0
    outer loop
      vertex 6.04291 4 6.81299
      vertex 10 4 10
      vertex 14.1571 4 6.81299
    endloop
  endfacet
  facet normal 0 1 0
    outer loop
      vertex 10 4 10
      vertex 6.04291 4 6.81299
      vertex 6.1 4 7.1
    endloop
  endfacet
  facet normal 0 1 0
    outer loop
      vertex 14.3197 4 6.56967
      vertex 6.04291 4 6.81299
      vertex 14.1571 4 6.81299
    endloop
  endfacet
  facet normal 0 1 0
    outer loop
      vertex 14.3197 4 6.56967
      vertex 5.88033 4 6.56967
      vertex 6.04291 4 6.81299
    endloop
  endfacet
  facet normal 0 1 0
    outer loop
      vertex 14.563 4 6.40709
      vertex 5.88033 4 6.56967
      vertex 14.3197 4 6.56967
    endloop
  endfacet
  facet normal 0 1 0
    outer loop
      vertex 14.563 4 6.40709
      vertex 5.63701 4 6.40709
      vertex 5.88033 4 6.56967
    endloop
  endfacet
  facet normal 0 1 0
    outer loop
      vertex 19.8478 4 1.23463
      vertex 14.563 4 6.40709
      vertex 14.85 4 6.35
    endloop
  endfacet
  facet normal 0 1 0
    outer loop
      vertex 14.563 4 6.40709
      vertex 19.8478 4 1.23463
      vertex 5.63701 4 6.40709
    endloop
  endfacet
  facet normal 0 1 0
    outer loop
      vertex 20 4 10
      vertex 14.85 4 7.85
      vertex 10 4 10
    endloop
  endfacet
  facet normal 0 1 0
    outer loop
      vertex 20 4 10
      vertex 15.137 4 7.79291
      vertex 14.85 4 7.85
    endloop
  endfacet
  facet normal 0 1 0
    outer loop
      vertex 20 4 10
      vertex 15.3803 4 7.63033
      vertex 15.137 4 7.79291
    endloop
  endfacet
  facet normal 0 1 0
    outer loop
      vertex 20 4 10
      vertex 15.5429 4 7.38701
      vertex 15.3803 4 7.63033
    endloop
  endfacet
  facet normal 0 1 0
    outer loop
      vertex 20 4 10
      vertex 15.6 4 7.1
      vertex 15.5429 4 7.38701
    endloop
  endfacet
  facet normal 0 1 0
    outer loop
      vertex 20 4 10
      vertex 15.5429 4 6.81299
      vertex 15.6 4 7.1
    endloop
  endfacet
  facet normal 0 1 -0
    outer loop
      vertex 20 4 2
      vertex 15.5429 4 6.81299
      vertex 20 4 10
    endloop
  endfacet
  facet normal 0 1 0
    outer loop
      vertex 15.137 4 6.40709
      vertex 19.8478 4 1.23463
      vertex 14.85 4 6.35
    endloop
  endfacet
  facet normal 0 1 -0
    outer loop
      vertex 19.8478 4 1.23463
      vertex 15.137 4 6.40709
      vertex 20 4 2
    endloop
  endfacet
  facet normal 0 1 0
    outer loop
      vertex 15.3803 4 6.56967
      vertex 20 4 2
      vertex 15.137 4 6.40709
    endloop
  endfacet
  facet normal 0 1 0
    outer loop
      vertex 15.5429 4 6.81299
      vertex 20 4 2
      vertex 15.3803 4 6.56967
    endloop
  endfacet
  facet normal 0 1 -0
    outer loop
      vertex 10 4 10
      vertex 0 4 36
      vertex 10 4 36
    endloop
  endfacet
  facet normal 0 1 -0
    outer loop
      vertex 14.563 4 7.79291
      vertex 10 4 10
      vertex 14.85 4 7.85
    endloop
  endfacet
  facet normal 0 1 0
    outer loop
      vertex 5.06299 4 7.79291
      vertex 10 4 10
      vertex 5.35 4 7.85
    endloop
  endfacet
  facet normal 0 1 0
    outer loop
      vertex 10 4 10
      vertex 5.06299 4 7.79291
      vertex 0 4 36
    endloop
  endfacet
  facet normal 0 1 -0
    outer loop
      vertex 4.81967 4 7.63033
      vertex 0 4 36
      vertex 5.06299 4 7.79291
    endloop
  endfacet
  facet normal 0 1 -0
    outer loop
      vertex 4.65709 4 7.38701
      vertex 0 4 36
      vertex 4.81967 4 7.63033
    endloop
  endfacet
  facet normal 0 1 0
    outer loop
      vertex 0 4 2
      vertex 4.65709 4 7.38701
      vertex 4.6 4 7.1
    endloop
  endfacet
  facet normal 0 1 0
    outer loop
      vertex 0.152241 4 1.23463
      vertex 5.63701 4 6.40709
      vertex 19.8478 4 1.23463
    endloop
  endfacet
  facet normal 0 1 0
    outer loop
      vertex 4.65709 4 7.38701
      vertex 0 4 2
      vertex 0 4 36
    endloop
  endfacet
  facet normal 0 1 0
    outer loop
      vertex 4.65709 4 6.81299
      vertex 0 4 2
      vertex 4.6 4 7.1
    endloop
  endfacet
  facet normal 0 1 0
    outer loop
      vertex 4.81967 4 6.56967
      vertex 0 4 2
      vertex 4.65709 4 6.81299
    endloop
  endfacet
  facet normal 0 1 0
    outer loop
      vertex 5.06299 4 6.40709
      vertex 0 4 2
      vertex 4.81967 4 6.56967
    endloop
  endfacet
  facet normal 0 1 0
    outer loop
      vertex 5.63701 4 6.40709
      vertex 0.152241 4 1.23463
      vertex 5.35 4 6.35
    endloop
  endfacet
  facet normal 0 1 0
    outer loop
      vertex 5.35 4 6.35
      vertex 0.152241 4 1.23463
      vertex 5.06299 4 6.40709
    endloop
  endfacet
  facet normal 0 1 0
    outer loop
      vertex 5.06299 4 6.40709
      vertex 0.152241 4 1.23463
      vertex 0 4 2
    endloop
  endfacet
  facet normal -0.83147 0 -0.55557
    outer loop
      vertex 0.585786 0 0.585786
      vertex 0.152241 4 1.23463
      vertex 0.585786 4 0.585786
    endloop
  endfacet
  facet normal -0.83147 -0 -0.55557
    outer loop
      vertex 0.152241 4 1.23463
      vertex 0.585786 0 0.585786
      vertex 0.152241 0 1.23463
    endloop
  endfacet
  facet normal 0.555569 0 -0.83147
    outer loop
      vertex 18.7654 0 0.152241
      vertex 19.4142 4 0.585786
      vertex 19.4142 0 0.585786
    endloop
  endfacet
  facet normal 0.555569 0 -0.83147
    outer loop
      vertex 19.4142 4 0.585786
      vertex 18.7654 0 0.152241
      vertex 18.7654 4 0.152241
    endloop
  endfacet
  facet normal 1.7742e-06 1 -2.65528e-06
    outer loop
      vertex 19.4142 4 0.585786
      vertex 18.7654 4 0.152241
      vertex 19.8478 4 1.23463
    endloop
  endfacet
  facet normal -1.7742e-06 1 -2.65528e-06
    outer loop
      vertex 0.585786 4 0.585786
      vertex 0.152241 4 1.23463
      vertex 1.23463 4 0.152241
    endloop
  endfacet
  facet normal 2.18775e-07 1 -1.09986e-06
    outer loop
      vertex 18.7654 4 0.152241
      vertex 18 4 0
      vertex 19.8478 4 1.23463
    endloop
  endfacet
  facet normal -0.55557 0 -0.83147
    outer loop
      vertex 0.585786 0 0.585786
      vertex 1.23463 4 0.152241
      vertex 1.23463 0 0.152241
    endloop
  endfacet
  facet normal -0.55557 0 -0.83147
    outer loop
      vertex 1.23463 4 0.152241
      vertex 0.585786 0 0.585786
      vertex 0.585786 4 0.585786
    endloop
  endfacet
  facet normal -0.980785 0 -0.19509
    outer loop
      vertex 0.152241 0 1.23463
      vertex 0 4 2
      vertex 0.152241 4 1.23463
    endloop
  endfacet
  facet normal -0.980785 -0 -0.19509
    outer loop
      vertex 0 4 2
      vertex 0.152241 0 1.23463
      vertex 0 0 2
    endloop
  endfacet
  facet normal -0.980786 0 0.195089
    outer loop
      vertex 15.5429 0 6.81299
      vertex 15.6 4 7.1
      vertex 15.5429 4 6.81299
    endloop
  endfacet
  facet normal -0.980786 0 0.195089
    outer loop
      vertex 15.6 4 7.1
      vertex 15.5429 0 6.81299
      vertex 15.6 0 7.1
    endloop
  endfacet
  facet normal 0.980785 -0 0.195092
    outer loop
      vertex 14.1 0 7.1
      vertex 14.1571 4 6.81299
      vertex 14.1 4 7.1
    endloop
  endfacet
  facet normal 0.980785 0 0.195092
    outer loop
      vertex 14.1571 4 6.81299
      vertex 14.1 0 7.1
      vertex 14.1571 0 6.81299
    endloop
  endfacet
  facet normal -0.195091 0 0.980785
    outer loop
      vertex 14.85 4 6.35
      vertex 15.137 0 6.40709
      vertex 15.137 4 6.40709
    endloop
  endfacet
  facet normal -0.195091 0 0.980785
    outer loop
      vertex 15.137 0 6.40709
      vertex 14.85 4 6.35
      vertex 14.85 0 6.35
    endloop
  endfacet
  facet normal -0.83147 0 0.55557
    outer loop
      vertex 15.3803 0 6.56967
      vertex 15.5429 4 6.81299
      vertex 15.3803 4 6.56967
    endloop
  endfacet
  facet normal -0.83147 0 0.55557
    outer loop
      vertex 15.5429 4 6.81299
      vertex 15.3803 0 6.56967
      vertex 15.5429 0 6.81299
    endloop
  endfacet
  facet normal -0.195088 0 -0.980786
    outer loop
      vertex 14.85 0 7.85
      vertex 15.137 4 7.79291
      vertex 15.137 0 7.79291
    endloop
  endfacet
  facet normal -0.195088 0 -0.980786
    outer loop
      vertex 15.137 4 7.79291
      vertex 14.85 0 7.85
      vertex 14.85 4 7.85
    endloop
  endfacet
  facet normal -0.55557 0 -0.83147
    outer loop
      vertex 15.137 0 7.79291
      vertex 15.3803 4 7.63033
      vertex 15.3803 0 7.63033
    endloop
  endfacet
  facet normal -0.55557 0 -0.83147
    outer loop
      vertex 15.3803 4 7.63033
      vertex 15.137 0 7.79291
      vertex 15.137 4 7.79291
    endloop
  endfacet
  facet normal -0.55557 0 0.83147
    outer loop
      vertex 15.137 4 6.40709
      vertex 15.3803 0 6.56967
      vertex 15.3803 4 6.56967
    endloop
  endfacet
  facet normal -0.55557 0 0.83147
    outer loop
      vertex 15.3803 0 6.56967
      vertex 15.137 4 6.40709
      vertex 15.137 0 6.40709
    endloop
  endfacet
  facet normal 0.55557 0 0.83147
    outer loop
      vertex 14.3197 4 6.56967
      vertex 14.563 0 6.40709
      vertex 14.563 4 6.40709
    endloop
  endfacet
  facet normal 0.55557 0 0.83147
    outer loop
      vertex 14.563 0 6.40709
      vertex 14.3197 4 6.56967
      vertex 14.3197 0 6.56967
    endloop
  endfacet
  facet normal 0.83147 -0 0.55557
    outer loop
      vertex 14.1571 0 6.81299
      vertex 14.3197 4 6.56967
      vertex 14.1571 4 6.81299
    endloop
  endfacet
  facet normal 0.83147 0 0.55557
    outer loop
      vertex 14.3197 4 6.56967
      vertex 14.1571 0 6.81299
      vertex 14.3197 0 6.56967
    endloop
  endfacet
  facet normal 0.195092 0 0.980785
    outer loop
      vertex 14.563 4 6.40709
      vertex 14.85 0 6.35
      vertex 14.85 4 6.35
    endloop
  endfacet
  facet normal 0.195092 0 0.980785
    outer loop
      vertex 14.85 0 6.35
      vertex 14.563 4 6.40709
      vertex 14.563 0 6.40709
    endloop
  endfacet
  facet normal -0.980786 0 -0.195088
    outer loop
      vertex 15.6 0 7.1
      vertex 15.5429 4 7.38701
      vertex 15.6 4 7.1
    endloop
  endfacet
  facet normal -0.980786 -0 -0.195088
    outer loop
      vertex 15.5429 4 7.38701
      vertex 15.6 0 7.1
      vertex 15.5429 0 7.38701
    endloop
  endfacet
  facet normal -0.83147 0 -0.55557
    outer loop
      vertex 15.5429 0 7.38701
      vertex 15.3803 4 7.63033
      vertex 15.5429 4 7.38701
    endloop
  endfacet
  facet normal -0.83147 -0 -0.55557
    outer loop
      vertex 15.3803 4 7.63033
      vertex 15.5429 0 7.38701
      vertex 15.3803 0 7.63033
    endloop
  endfacet
  facet normal 0.55557 0 -0.83147
    outer loop
      vertex 14.3197 0 7.63033
      vertex 14.563 4 7.79291
      vertex 14.563 0 7.79291
    endloop
  endfacet
  facet normal 0.55557 0 -0.83147
    outer loop
      vertex 14.563 4 7.79291
      vertex 14.3197 0 7.63033
      vertex 14.3197 4 7.63033
    endloop
  endfacet
  facet normal 0.83147 0 -0.55557
    outer loop
      vertex 14.3197 0 7.63033
      vertex 14.1571 4 7.38701
      vertex 14.3197 4 7.63033
    endloop
  endfacet
  facet normal 0.83147 0 -0.55557
    outer loop
      vertex 14.1571 4 7.38701
      vertex 14.3197 0 7.63033
      vertex 14.1571 0 7.38701
    endloop
  endfacet
  facet normal 0.980785 0 -0.195091
    outer loop
      vertex 14.1571 0 7.38701
      vertex 14.1 4 7.1
      vertex 14.1571 4 7.38701
    endloop
  endfacet
  facet normal 0.980785 0 -0.195091
    outer loop
      vertex 14.1 4 7.1
      vertex 14.1571 0 7.38701
      vertex 14.1 0 7.1
    endloop
  endfacet
  facet normal 0.195089 0 -0.980786
    outer loop
      vertex 14.563 0 7.79291
      vertex 14.85 4 7.85
      vertex 14.85 0 7.85
    endloop
  endfacet
  facet normal 0.195089 0 -0.980786
    outer loop
      vertex 14.85 4 7.85
      vertex 14.563 0 7.79291
      vertex 14.563 4 7.79291
    endloop
  endfacet
  facet normal -0.980786 0 0.195089
    outer loop
      vertex 6.04291 0 6.81299
      vertex 6.1 4 7.1
      vertex 6.04291 4 6.81299
    endloop
  endfacet
  facet normal -0.980786 0 0.195089
    outer loop
      vertex 6.1 4 7.1
      vertex 6.04291 0 6.81299
      vertex 6.1 0 7.1
    endloop
  endfacet
  facet normal 0.980785 -0 0.195092
    outer loop
      vertex 4.6 0 7.1
      vertex 4.65709 4 6.81299
      vertex 4.6 4 7.1
    endloop
  endfacet
  facet normal 0.980785 0 0.195092
    outer loop
      vertex 4.65709 4 6.81299
      vertex 4.6 0 7.1
      vertex 4.65709 0 6.81299
    endloop
  endfacet
  facet normal -0.195091 0 0.980785
    outer loop
      vertex 5.35 4 6.35
      vertex 5.63701 0 6.40709
      vertex 5.63701 4 6.40709
    endloop
  endfacet
  facet normal -0.195091 0 0.980785
    outer loop
      vertex 5.63701 0 6.40709
      vertex 5.35 4 6.35
      vertex 5.35 0 6.35
    endloop
  endfacet
  facet normal -0.83147 0 0.55557
    outer loop
      vertex 5.88033 0 6.56967
      vertex 6.04291 4 6.81299
      vertex 5.88033 4 6.56967
    endloop
  endfacet
  facet normal -0.83147 0 0.55557
    outer loop
      vertex 6.04291 4 6.81299
      vertex 5.88033 0 6.56967
      vertex 6.04291 0 6.81299
    endloop
  endfacet
  facet normal -0.195088 0 -0.980786
    outer loop
      vertex 5.35 0 7.85
      vertex 5.63701 4 7.79291
      vertex 5.63701 0 7.79291
    endloop
  endfacet
  facet normal -0.195088 0 -0.980786
    outer loop
      vertex 5.63701 4 7.79291
      vertex 5.35 0 7.85
      vertex 5.35 4 7.85
    endloop
  endfacet
  facet normal -0.55557 0 -0.83147
    outer loop
      vertex 5.63701 0 7.79291
      vertex 5.88033 4 7.63033
      vertex 5.88033 0 7.63033
    endloop
  endfacet
  facet normal -0.55557 0 -0.83147
    outer loop
      vertex 5.88033 4 7.63033
      vertex 5.63701 0 7.79291
      vertex 5.63701 4 7.79291
    endloop
  endfacet
  facet normal -0.55557 0 0.83147
    outer loop
      vertex 5.63701 4 6.40709
      vertex 5.88033 0 6.56967
      vertex 5.88033 4 6.56967
    endloop
  endfacet
  facet normal -0.55557 0 0.83147
    outer loop
      vertex 5.88033 0 6.56967
      vertex 5.63701 4 6.40709
      vertex 5.63701 0 6.40709
    endloop
  endfacet
  facet normal 0.55557 0 0.83147
    outer loop
      vertex 4.81967 4 6.56967
      vertex 5.06299 0 6.40709
      vertex 5.06299 4 6.40709
    endloop
  endfacet
  facet normal 0.55557 0 0.83147
    outer loop
      vertex 5.06299 0 6.40709
      vertex 4.81967 4 6.56967
      vertex 4.81967 0 6.56967
    endloop
  endfacet
  facet normal 0.83147 -0 0.55557
    outer loop
      vertex 4.65709 0 6.81299
      vertex 4.81967 4 6.56967
      vertex 4.65709 4 6.81299
    endloop
  endfacet
  facet normal 0.83147 0 0.55557
    outer loop
      vertex 4.81967 4 6.56967
      vertex 4.65709 0 6.81299
      vertex 4.81967 0 6.56967
    endloop
  endfacet
  facet normal 0.195092 0 0.980785
    outer loop
      vertex 5.06299 4 6.40709
      vertex 5.35 0 6.35
      vertex 5.35 4 6.35
    endloop
  endfacet
  facet normal 0.195092 0 0.980785
    outer loop
      vertex 5.35 0 6.35
      vertex 5.06299 4 6.40709
      vertex 5.06299 0 6.40709
    endloop
  endfacet
  facet normal -0.980786 0 -0.195088
    outer loop
      vertex 6.1 0 7.1
      vertex 6.04291 4 7.38701
      vertex 6.1 4 7.1
    endloop
  endfacet
  facet normal -0.980786 -0 -0.195088
    outer loop
      vertex 6.04291 4 7.38701
      vertex 6.1 0 7.1
      vertex 6.04291 0 7.38701
    endloop
  endfacet
  facet normal -0.83147 0 -0.55557
    outer loop
      vertex 6.04291 0 7.38701
      vertex 5.88033 4 7.63033
      vertex 6.04291 4 7.38701
    endloop
  endfacet
  facet normal -0.83147 -0 -0.55557
    outer loop
      vertex 5.88033 4 7.63033
      vertex 6.04291 0 7.38701
      vertex 5.88033 0 7.63033
    endloop
  endfacet
  facet normal 0.980785 0 -0.195091
    outer loop
      vertex 4.65709 0 7.38701
      vertex 4.6 4 7.1
      vertex 4.65709 4 7.38701
    endloop
  endfacet
  facet normal 0.980785 0 -0.195091
    outer loop
      vertex 4.6 4 7.1
      vertex 4.65709 0 7.38701
      vertex 4.6 0 7.1
    endloop
  endfacet
  facet normal 0.55557 0 -0.83147
    outer loop
      vertex 4.81967 0 7.63033
      vertex 5.06299 4 7.79291
      vertex 5.06299 0 7.79291
    endloop
  endfacet
  facet normal 0.55557 0 -0.83147
    outer loop
      vertex 5.06299 4 7.79291
      vertex 4.81967 0 7.63033
      vertex 4.81967 4 7.63033
    endloop
  endfacet
  facet normal 0.83147 0 -0.55557
    outer loop
      vertex 4.81967 0 7.63033
      vertex 4.65709 4 7.38701
      vertex 4.81967 4 7.63033
    endloop
  endfacet
  facet normal 0.83147 0 -0.55557
    outer loop
      vertex 4.65709 4 7.38701
      vertex 4.81967 0 7.63033
      vertex 4.65709 0 7.38701
    endloop
  endfacet
  facet normal 0.195089 0 -0.980786
    outer loop
      vertex 5.06299 0 7.79291
      vertex 5.35 4 7.85
      vertex 5.35 0 7.85
    endloop
  endfacet
  facet normal 0.195089 0 -0.980786
    outer loop
      vertex 5.35 4 7.85
      vertex 5.06299 0 7.79291
      vertex 5.06299 4 7.79291
    endloop
  endfacet
  facet normal 0 0 1
    outer loop
      vertex 10 14 40
      vertex 7 9 40
      vertex 10 0 40
    endloop
  endfacet
  facet normal 0 0 1
    outer loop
      vertex 10 14 40
      vertex 6.84776 9.76537 40
      vertex 7 9 40
    endloop
  endfacet
  facet normal 0 0 1
    outer loop
      vertex 10 14 40
      vertex 6.41421 10.4142 40
      vertex 6.84776 9.76537 40
    endloop
  endfacet
  facet normal 0 0 1
    outer loop
      vertex 10 14 40
      vertex 5.76537 10.8478 40
      vertex 6.41421 10.4142 40
    endloop
  endfacet
  facet normal 0 0 1
    outer loop
      vertex 10 14 40
      vertex 5 11 40
      vertex 5.76537 10.8478 40
    endloop
  endfacet
  facet normal -0 0 1
    outer loop
      vertex 0 14 40
      vertex 5 11 40
      vertex 10 14 40
    endloop
  endfacet
  facet normal 0 0 1
    outer loop
      vertex 3.15224 9.76537 40
      vertex 0 14 40
      vertex 3 9 40
    endloop
  endfacet
  facet normal 0 0 1
    outer loop
      vertex 3.58579 10.4142 40
      vertex 0 14 40
      vertex 3.15224 9.76537 40
    endloop
  endfacet
  facet normal 0 0 1
    outer loop
      vertex 4.23463 10.8478 40
      vertex 0 14 40
      vertex 3.58579 10.4142 40
    endloop
  endfacet
  facet normal 0 0 1
    outer loop
      vertex 5 11 40
      vertex 0 14 40
      vertex 4.23463 10.8478 40
    endloop
  endfacet
  facet normal -0 0 1
    outer loop
      vertex 6.84776 8.23463 40
      vertex 10 0 40
      vertex 7 9 40
    endloop
  endfacet
  facet normal -0 0 1
    outer loop
      vertex 6.41421 7.58579 40
      vertex 10 0 40
      vertex 6.84776 8.23463 40
    endloop
  endfacet
  facet normal -0 0 1
    outer loop
      vertex 5.76537 7.15224 40
      vertex 10 0 40
      vertex 6.41421 7.58579 40
    endloop
  endfacet
  facet normal -0 0 1
    outer loop
      vertex 5 7 40
      vertex 10 0 40
      vertex 5.76537 7.15224 40
    endloop
  endfacet
  facet normal 0 0 1
    outer loop
      vertex 0 0 40
      vertex 5 7 40
      vertex 4.23463 7.15224 40
    endloop
  endfacet
  facet normal 0 0 1
    outer loop
      vertex 0 0 40
      vertex 4.23463 7.15224 40
      vertex 3.58579 7.58579 40
    endloop
  endfacet
  facet normal 0 0 1
    outer loop
      vertex 0 0 40
      vertex 3 9 40
      vertex 0 14 40
    endloop
  endfacet
  facet normal 0 0 1
    outer loop
      vertex 5 7 40
      vertex 0 0 40
      vertex 10 0 40
    endloop
  endfacet
  facet normal 0 0 1
    outer loop
      vertex 3.15224 8.23463 40
      vertex 0 0 40
      vertex 3.58579 7.58579 40
    endloop
  endfacet
  facet normal 0 0 1
    outer loop
      vertex 3 9 40
      vertex 0 0 40
      vertex 3.15224 8.23463 40
    endloop
  endfacet
  facet normal 1 0 0
    outer loop
      vertex 10 14 40
      vertex 10 4 36
      vertex 10 14 36
    endloop
  endfacet
  facet normal 1 -0 0
    outer loop
      vertex 10 0 40
      vertex 10 4 36
      vertex 10 14 40
    endloop
  endfacet
  facet normal 1 0 0
    outer loop
      vertex 10 0 10
      vertex 10 4 36
      vertex 10 0 40
    endloop
  endfacet
  facet normal 1 0 0
    outer loop
      vertex 10 4 36
      vertex 10 0 10
      vertex 10 4 10
    endloop
  endfacet
  facet normal 0 0 -1
    outer loop
      vertex 10 4 36
      vertex 9.04145 9 36
      vertex 10 14 36
    endloop
  endfacet
  facet normal 0 0 -1
    outer loop
      vertex 10 4 36
      vertex 7.02073 5.5 36
      vertex 9.04145 9 36
    endloop
  endfacet
  facet normal 0 0 -1
    outer loop
      vertex 10 4 36
      vertex 2.97927 5.5 36
      vertex 7.02073 5.5 36
    endloop
  endfacet
  facet normal -0 0 -1
    outer loop
      vertex 2.97927 5.5 36
      vertex 0 4 36
      vertex 0.958549 9 36
    endloop
  endfacet
  facet normal 0 0 -1
    outer loop
      vertex 0 4 36
      vertex 2.97927 5.5 36
      vertex 10 4 36
    endloop
  endfacet
  facet normal 0 0 -1
    outer loop
      vertex 7.02073 12.5 36
      vertex 10 14 36
      vertex 9.04145 9 36
    endloop
  endfacet
  facet normal 0 0 -1
    outer loop
      vertex 2.97927 12.5 36
      vertex 10 14 36
      vertex 7.02073 12.5 36
    endloop
  endfacet
  facet normal 0 0 -1
    outer loop
      vertex 2.97927 12.5 36
      vertex 0 14 36
      vertex 10 14 36
    endloop
  endfacet
  facet normal 0 0 -1
    outer loop
      vertex 0.958549 9 36
      vertex 0 14 36
      vertex 2.97927 12.5 36
    endloop
  endfacet
  facet normal 0 0 -1
    outer loop
      vertex 0 14 36
      vertex 0.958549 9 36
      vertex 0 4 36
    endloop
  endfacet
  facet normal 0 1 -0
    outer loop
      vertex 10 14 36
      vertex 0 14 40
      vertex 10 14 40
    endloop
  endfacet
  facet normal 0 1 0
    outer loop
      vertex 0 14 40
      vertex 10 14 36
      vertex 0 14 36
    endloop
  endfacet
  facet normal -0.980785 -0.195091 0
    outer loop
      vertex 7 9 37.3333
      vertex 6.84776 9.76537 40
      vertex 6.84776 9.76537 37.3333
    endloop
  endfacet
  facet normal -0.980785 -0.195091 0
    outer loop
      vertex 6.84776 9.76537 40
      vertex 7 9 37.3333
      vertex 7 9 40
    endloop
  endfacet
  facet normal 0.195091 -0.980785 0
    outer loop
      vertex 4.23463 10.8478 37.3333
      vertex 5 11 40
      vertex 4.23463 10.8478 40
    endloop
  endfacet
  facet normal 0.195091 -0.980785 0
    outer loop
      vertex 5 11 40
      vertex 4.23463 10.8478 37.3333
      vertex 5 11 37.3333
    endloop
  endfacet
  facet normal -0.19509 0.980785 0
    outer loop
      vertex 5.76537 7.15224 37.3333
      vertex 5 7 40
      vertex 5.76537 7.15224 40
    endloop
  endfacet
  facet normal -0.19509 0.980785 0
    outer loop
      vertex 5 7 40
      vertex 5.76537 7.15224 37.3333
      vertex 5 7 37.3333
    endloop
  endfacet
  facet normal -0.55557 -0.83147 0
    outer loop
      vertex 5.76537 10.8478 37.3333
      vertex 6.41421 10.4142 40
      vertex 5.76537 10.8478 40
    endloop
  endfacet
  facet normal -0.55557 -0.83147 -0
    outer loop
      vertex 6.41421 10.4142 40
      vertex 5.76537 10.8478 37.3333
      vertex 6.41421 10.4142 37.3333
    endloop
  endfacet
  facet normal -0.83147 -0.55557 0
    outer loop
      vertex 6.84776 9.76537 37.3333
      vertex 6.41421 10.4142 40
      vertex 6.41421 10.4142 37.3333
    endloop
  endfacet
  facet normal -0.83147 -0.55557 0
    outer loop
      vertex 6.41421 10.4142 40
      vertex 6.84776 9.76537 37.3333
      vertex 6.84776 9.76537 40
    endloop
  endfacet
  facet normal -0.195091 -0.980785 0
    outer loop
      vertex 5 11 37.3333
      vertex 5.76537 10.8478 40
      vertex 5 11 40
    endloop
  endfacet
  facet normal -0.195091 -0.980785 -0
    outer loop
      vertex 5.76537 10.8478 40
      vertex 5 11 37.3333
      vertex 5.76537 10.8478 37.3333
    endloop
  endfacet
  facet normal 0.83147 -0.55557 0
    outer loop
      vertex 3.15224 9.76537 40
      vertex 3.58579 10.4142 37.3333
      vertex 3.58579 10.4142 40
    endloop
  endfacet
  facet normal 0.83147 -0.55557 0
    outer loop
      vertex 3.58579 10.4142 37.3333
      vertex 3.15224 9.76537 40
      vertex 3.15224 9.76537 37.3333
    endloop
  endfacet
  facet normal 0.980785 -0.19509 0
    outer loop
      vertex 3 9 40
      vertex 3.15224 9.76537 37.3333
      vertex 3.15224 9.76537 40
    endloop
  endfacet
  facet normal 0.980785 -0.19509 0
    outer loop
      vertex 3.15224 9.76537 37.3333
      vertex 3 9 40
      vertex 3 9 37.3333
    endloop
  endfacet
  facet normal 0.55557 -0.83147 0
    outer loop
      vertex 3.58579 10.4142 37.3333
      vertex 4.23463 10.8478 40
      vertex 3.58579 10.4142 40
    endloop
  endfacet
  facet normal 0.55557 -0.83147 0
    outer loop
      vertex 4.23463 10.8478 40
      vertex 3.58579 10.4142 37.3333
      vertex 4.23463 10.8478 37.3333
    endloop
  endfacet
  facet normal -0.980785 0.195091 0
    outer loop
      vertex 6.84776 8.23463 37.3333
      vertex 7 9 40
      vertex 7 9 37.3333
    endloop
  endfacet
  facet normal -0.980785 0.195091 0
    outer loop
      vertex 7 9 40
      vertex 6.84776 8.23463 37.3333
      vertex 6.84776 8.23463 40
    endloop
  endfacet
  facet normal 0.19509 0.980785 -0
    outer loop
      vertex 5 7 37.3333
      vertex 4.23463 7.15224 40
      vertex 5 7 40
    endloop
  endfacet
  facet normal 0.19509 0.980785 0
    outer loop
      vertex 4.23463 7.15224 40
      vertex 5 7 37.3333
      vertex 4.23463 7.15224 37.3333
    endloop
  endfacet
  facet normal 0.83147 0.55557 0
    outer loop
      vertex 3.58579 7.58579 40
      vertex 3.15224 8.23463 37.3333
      vertex 3.15224 8.23463 40
    endloop
  endfacet
  facet normal 0.83147 0.55557 0
    outer loop
      vertex 3.15224 8.23463 37.3333
      vertex 3.58579 7.58579 40
      vertex 3.58579 7.58579 37.3333
    endloop
  endfacet
  facet normal 0.980785 0.19509 0
    outer loop
      vertex 3.15224 8.23463 40
      vertex 3 9 37.3333
      vertex 3 9 40
    endloop
  endfacet
  facet normal 0.980785 0.19509 0
    outer loop
      vertex 3 9 37.3333
      vertex 3.15224 8.23463 40
      vertex 3.15224 8.23463 37.3333
    endloop
  endfacet
  facet normal -0.83147 0.55557 0
    outer loop
      vertex 6.41421 7.58579 37.3333
      vertex 6.84776 8.23463 40
      vertex 6.84776 8.23463 37.3333
    endloop
  endfacet
  facet normal -0.83147 0.55557 0
    outer loop
      vertex 6.84776 8.23463 40
      vertex 6.41421 7.58579 37.3333
      vertex 6.41421 7.58579 40
    endloop
  endfacet
  facet normal -0.55557 0.83147 0
    outer loop
      vertex 6.41421 7.58579 37.3333
      vertex 5.76537 7.15224 40
      vertex 6.41421 7.58579 40
    endloop
  endfacet
  facet normal -0.55557 0.83147 0
    outer loop
      vertex 5.76537 7.15224 40
      vertex 6.41421 7.58579 37.3333
      vertex 5.76537 7.15224 37.3333
    endloop
  endfacet
  facet normal 0.55557 0.83147 -0
    outer loop
      vertex 4.23463 7.15224 37.3333
      vertex 3.58579 7.58579 40
      vertex 4.23463 7.15224 40
    endloop
  endfacet
  facet normal 0.55557 0.83147 0
    outer loop
      vertex 3.58579 7.58579 40
      vertex 4.23463 7.15224 37.3333
      vertex 3.58579 7.58579 37.3333
    endloop
  endfacet
  facet normal -0.866026 -0.499999 0
    outer loop
      vertex 9.04145 9 36
      vertex 7.02073 12.5 37.3333
      vertex 7.02073 12.5 36
    endloop
  endfacet
  facet normal -0.866026 -0.499999 0
    outer loop
      vertex 7.02073 12.5 37.3333
      vertex 9.04145 9 36
      vertex 9.04145 9 37.3333
    endloop
  endfacet
  facet normal 0.866026 -0.499999 0
    outer loop
      vertex 0.958549 9 37.3333
      vertex 2.97927 12.5 36
      vertex 2.97927 12.5 37.3333
    endloop
  endfacet
  facet normal 0.866026 -0.499999 0
    outer loop
      vertex 2.97927 12.5 36
      vertex 0.958549 9 37.3333
      vertex 0.958549 9 36
    endloop
  endfacet
  facet normal 0 -1 0
    outer loop
      vertex 2.97927 12.5 36
      vertex 7.02073 12.5 37.3333
      vertex 2.97927 12.5 37.3333
    endloop
  endfacet
  facet normal 0 -1 -0
    outer loop
      vertex 7.02073 12.5 37.3333
      vertex 2.97927 12.5 36
      vertex 7.02073 12.5 36
    endloop
  endfacet
  facet normal 0 0 -1
    outer loop
      vertex 6.84776 8.23463 37.3333
      vertex 9.04145 9 37.3333
      vertex 7.02073 5.5 37.3333
    endloop
  endfacet
  facet normal 0 0 -1
    outer loop
      vertex 6.84776 9.76537 37.3333
      vertex 9.04145 9 37.3333
      vertex 7 9 37.3333
    endloop
  endfacet
  facet normal -0 0 -1
    outer loop
      vertex 9.04145 9 37.3333
      vertex 6.84776 8.23463 37.3333
      vertex 7 9 37.3333
    endloop
  endfacet
  facet normal 0 0 -1
    outer loop
      vertex 7.02073 5.5 37.3333
      vertex 6.41421 7.58579 37.3333
      vertex 6.84776 8.23463 37.3333
    endloop
  endfacet
  facet normal 0 0 -1
    outer loop
      vertex 7.02073 5.5 37.3333
      vertex 5.76537 7.15224 37.3333
      vertex 6.41421 7.58579 37.3333
    endloop
  endfacet
  facet normal 0 0 -1
    outer loop
      vertex 7.02073 5.5 37.3333
      vertex 5 7 37.3333
      vertex 5.76537 7.15224 37.3333
    endloop
  endfacet
  facet normal 0 0 -1
    outer loop
      vertex 2.97927 5.5 37.3333
      vertex 5 7 37.3333
      vertex 7.02073 5.5 37.3333
    endloop
  endfacet
  facet normal 0 0 -1
    outer loop
      vertex 0.958549 9 37.3333
      vertex 3.15224 8.23463 37.3333
      vertex 2.97927 5.5 37.3333
    endloop
  endfacet
  facet normal -0 0 -1
    outer loop
      vertex 3.58579 7.58579 37.3333
      vertex 2.97927 5.5 37.3333
      vertex 3.15224 8.23463 37.3333
    endloop
  endfacet
  facet normal -0 0 -1
    outer loop
      vertex 4.23463 7.15224 37.3333
      vertex 2.97927 5.5 37.3333
      vertex 3.58579 7.58579 37.3333
    endloop
  endfacet
  facet normal -0 0 -1
    outer loop
      vertex 5 7 37.3333
      vertex 2.97927 5.5 37.3333
      vertex 4.23463 7.15224 37.3333
    endloop
  endfacet
  facet normal 0 0 -1
    outer loop
      vertex 9.04145 9 37.3333
      vertex 6.84776 9.76537 37.3333
      vertex 7.02073 12.5 37.3333
    endloop
  endfacet
  facet normal 0 0 -1
    outer loop
      vertex 6.41421 10.4142 37.3333
      vertex 7.02073 12.5 37.3333
      vertex 6.84776 9.76537 37.3333
    endloop
  endfacet
  facet normal 0 0 -1
    outer loop
      vertex 5.76537 10.8478 37.3333
      vertex 7.02073 12.5 37.3333
      vertex 6.41421 10.4142 37.3333
    endloop
  endfacet
  facet normal 0 0 -1
    outer loop
      vertex 5 11 37.3333
      vertex 7.02073 12.5 37.3333
      vertex 5.76537 10.8478 37.3333
    endloop
  endfacet
  facet normal 0 0 -1
    outer loop
      vertex 2.97927 12.5 37.3333
      vertex 5 11 37.3333
      vertex 4.23463 10.8478 37.3333
    endloop
  endfacet
  facet normal 0 0 -1
    outer loop
      vertex 5 11 37.3333
      vertex 2.97927 12.5 37.3333
      vertex 7.02073 12.5 37.3333
    endloop
  endfacet
  facet normal 0 0 -1
    outer loop
      vertex 3.58579 10.4142 37.3333
      vertex 2.97927 12.5 37.3333
      vertex 4.23463 10.8478 37.3333
    endloop
  endfacet
  facet normal 0 0 -1
    outer loop
      vertex 3.15224 9.76537 37.3333
      vertex 2.97927 12.5 37.3333
      vertex 3.58579 10.4142 37.3333
    endloop
  endfacet
  facet normal 0 0 -1
    outer loop
      vertex 0.958549 9 37.3333
      vertex 3.15224 9.76537 37.3333
      vertex 3 9 37.3333
    endloop
  endfacet
  facet normal 0 0 -1
    outer loop
      vertex 3.15224 8.23463 37.3333
      vertex 0.958549 9 37.3333
      vertex 3 9 37.3333
    endloop
  endfacet
  facet normal -0 0 -1
    outer loop
      vertex 3.15224 9.76537 37.3333
      vertex 0.958549 9 37.3333
      vertex 2.97927 12.5 37.3333
    endloop
  endfacet
  facet normal -0.866026 0.499999 0
    outer loop
      vertex 7.02073 5.5 36
      vertex 9.04145 9 37.3333
      vertex 9.04145 9 36
    endloop
  endfacet
  facet normal -0.866026 0.499999 0
    outer loop
      vertex 9.04145 9 37.3333
      vertex 7.02073 5.5 36
      vertex 7.02073 5.5 37.3333
    endloop
  endfacet
  facet normal 0.866026 0.499999 0
    outer loop
      vertex 2.97927 5.5 37.3333
      vertex 0.958549 9 36
      vertex 0.958549 9 37.3333
    endloop
  endfacet
  facet normal 0.866026 0.499999 0
    outer loop
      vertex 0.958549 9 36
      vertex 2.97927 5.5 37.3333
      vertex 2.97927 5.5 36
    endloop
  endfacet
  facet normal 0 1 -0
    outer loop
      vertex 7.02073 5.5 36
      vertex 2.97927 5.5 37.3333
      vertex 7.02073 5.5 37.3333
    endloop
  endfacet
  facet normal 0 1 0
    outer loop
      vertex 2.97927 5.5 37.3333
      vertex 7.02073 5.5 36
      vertex 2.97927 5.5 36
    endloop
  endfacet
endsolid OpenSCAD_Model
