solid OpenSCAD_Model
  facet normal 0.980785 0 -0.19509
    outer loop
      vertex 20 3 2
      vertex 19.8478 0 1.23463
      vertex 19.8478 3 1.23463
    endloop
  endfacet
  facet normal 0.980785 -6.20174e-08 -0.19509
    outer loop
      vertex 20 0 2
      vertex 19.8478 0 1.23463
      vertex 20 3 2
    endloop
  endfacet
  facet normal -0.19509 0 -0.980785
    outer loop
      vertex 1.23463 0 0.152241
      vertex 2 3 0
      vertex 2 0 0
    endloop
  endfacet
  facet normal -0.19509 0 -0.980785
    outer loop
      vertex 2 3 0
      vertex 1.23463 0 0.152241
      vertex 1.23463 3 0.152241
    endloop
  endfacet
  facet normal 0 -1 0
    outer loop
      vertex 5.91568 0 7.66568
      vertex 10 0 10
      vertex 5.65615 0 7.8391
    endloop
  endfacet
  facet normal 0 -1 0
    outer loop
      vertex 10 0 10
      vertex 14.5439 0 7.8391
      vertex 14.85 0 7.9
    endloop
  endfacet
  facet normal 0 -1 0
    outer loop
      vertex 6.0891 0 7.40615
      vertex 10 0 10
      vertex 5.91568 0 7.66568
    endloop
  endfacet
  facet normal 0 -1 0
    outer loop
      vertex 10 0 10
      vertex 14.2843 0 7.66568
      vertex 14.5439 0 7.8391
    endloop
  endfacet
  facet normal 0 -1 0
    outer loop
      vertex 6.15 0 7.1
      vertex 10 0 10
      vertex 6.0891 0 7.40615
    endloop
  endfacet
  facet normal 0 -1 0
    outer loop
      vertex 10 0 10
      vertex 14.1109 0 7.40615
      vertex 14.2843 0 7.66568
    endloop
  endfacet
  facet normal 0 -1 0
    outer loop
      vertex 6.0891 0 6.79385
      vertex 10 0 10
      vertex 6.15 0 7.1
    endloop
  endfacet
  facet normal 0 -1 0
    outer loop
      vertex 10 0 10
      vertex 14.05 0 7.1
      vertex 14.1109 0 7.40615
    endloop
  endfacet
  facet normal 0 -1 0
    outer loop
      vertex 14.1109 0 6.79385
      vertex 10 0 10
      vertex 6.0891 0 6.79385
    endloop
  endfacet
  facet normal 0 -1 0
    outer loop
      vertex 10 0 10
      vertex 14.1109 0 6.79385
      vertex 14.05 0 7.1
    endloop
  endfacet
  facet normal 0 -1 0
    outer loop
      vertex 5.91568 0 6.53431
      vertex 14.1109 0 6.79385
      vertex 6.0891 0 6.79385
    endloop
  endfacet
  facet normal 0 -1 0
    outer loop
      vertex 5.91568 0 6.53431
      vertex 14.2843 0 6.53431
      vertex 14.1109 0 6.79385
    endloop
  endfacet
  facet normal 0 -1 0
    outer loop
      vertex 5.65615 0 6.3609
      vertex 14.2843 0 6.53431
      vertex 5.91568 0 6.53431
    endloop
  endfacet
  facet normal 0 -1 0
    outer loop
      vertex 5.65615 0 6.3609
      vertex 14.5439 0 6.3609
      vertex 14.2843 0 6.53431
    endloop
  endfacet
  facet normal 0 -1 0
    outer loop
      vertex 2 0 0
      vertex 5.65615 0 6.3609
      vertex 5.35 0 6.3
    endloop
  endfacet
  facet normal 0 -1 0
    outer loop
      vertex 5.65615 0 6.3609
      vertex 18 0 0
      vertex 14.5439 0 6.3609
    endloop
  endfacet
  facet normal 0 -1 0
    outer loop
      vertex 0 0 27.5
      vertex 10 0 10
      vertex 10 0 27.5
    endloop
  endfacet
  facet normal 0 -1 0
    outer loop
      vertex 5.65615 0 7.8391
      vertex 10 0 10
      vertex 5.35 0 7.9
    endloop
  endfacet
  facet normal 0 -1 0
    outer loop
      vertex 0 0 27.5
      vertex 5.35 0 7.9
      vertex 10 0 10
    endloop
  endfacet
  facet normal 0 -1 0
    outer loop
      vertex 0 0 27.5
      vertex 5.04385 0 7.8391
      vertex 5.35 0 7.9
    endloop
  endfacet
  facet normal 0 -1 0
    outer loop
      vertex 0 0 27.5
      vertex 4.78431 0 7.66568
      vertex 5.04385 0 7.8391
    endloop
  endfacet
  facet normal 0 -1 0
    outer loop
      vertex 0 0 27.5
      vertex 4.6109 0 7.40615
      vertex 4.78431 0 7.66568
    endloop
  endfacet
  facet normal 0 -1 0
    outer loop
      vertex 0 0 2
      vertex 4.6109 0 7.40615
      vertex 0 0 27.5
    endloop
  endfacet
  facet normal 0 -1 0
    outer loop
      vertex 4.6109 0 7.40615
      vertex 0 0 2
      vertex 4.55 0 7.1
    endloop
  endfacet
  facet normal 0 -1 0
    outer loop
      vertex 14.5439 0 6.3609
      vertex 18 0 0
      vertex 14.85 0 6.3
    endloop
  endfacet
  facet normal 0 -1 0
    outer loop
      vertex 2 0 0
      vertex 5.35 0 6.3
      vertex 5.04385 0 6.3609
    endloop
  endfacet
  facet normal 0 -1 -0
    outer loop
      vertex 4.55 0 7.1
      vertex 0 0 2
      vertex 4.6109 0 6.79385
    endloop
  endfacet
  facet normal 0 -1 0
    outer loop
      vertex 0 0 2
      vertex 4.78431 0 6.53431
      vertex 4.6109 0 6.79385
    endloop
  endfacet
  facet normal 0 -1 0
    outer loop
      vertex 0 0 2
      vertex 5.04385 0 6.3609
      vertex 4.78431 0 6.53431
    endloop
  endfacet
  facet normal 0 -1 0
    outer loop
      vertex 2 0 0
      vertex 5.04385 0 6.3609
      vertex 0 0 2
    endloop
  endfacet
  facet normal 0 -1 0
    outer loop
      vertex 2 0 0
      vertex 0 0 2
      vertex 0.152241 0 1.23463
    endloop
  endfacet
  facet normal 0 -1 -0
    outer loop
      vertex 5.65615 0 6.3609
      vertex 2 0 0
      vertex 18 0 0
    endloop
  endfacet
  facet normal 0 -1 0
    outer loop
      vertex 2 0 0
      vertex 0.152241 0 1.23463
      vertex 0.585786 0 0.585786
    endloop
  endfacet
  facet normal 0 -1 0
    outer loop
      vertex 14.85 0 6.3
      vertex 18 0 0
      vertex 20 0 2
    endloop
  endfacet
  facet normal 0 -1 0
    outer loop
      vertex 2 0 0
      vertex 0.585786 0 0.585786
      vertex 1.23463 0 0.152241
    endloop
  endfacet
  facet normal 0 -1 0
    outer loop
      vertex 20 0 2
      vertex 18 0 0
      vertex 19.8478 0 1.23463
    endloop
  endfacet
  facet normal 0 -1 0
    outer loop
      vertex 19.8478 0 1.23463
      vertex 18 0 0
      vertex 19.4142 0 0.585786
    endloop
  endfacet
  facet normal 0 -1 0
    outer loop
      vertex 19.4142 0 0.585786
      vertex 18 0 0
      vertex 18.7654 0 0.152241
    endloop
  endfacet
  facet normal 0 -1 0
    outer loop
      vertex 10 0 10
      vertex 14.85 0 7.9
      vertex 20 0 10
    endloop
  endfacet
  facet normal 0 -1 0
    outer loop
      vertex 15.1561 0 7.8391
      vertex 20 0 10
      vertex 14.85 0 7.9
    endloop
  endfacet
  facet normal 0 -1 0
    outer loop
      vertex 15.4157 0 7.66568
      vertex 20 0 10
      vertex 15.1561 0 7.8391
    endloop
  endfacet
  facet normal 0 -1 0
    outer loop
      vertex 15.5891 0 7.40615
      vertex 20 0 10
      vertex 15.4157 0 7.66568
    endloop
  endfacet
  facet normal 0 -1 0
    outer loop
      vertex 15.65 0 7.1
      vertex 20 0 10
      vertex 15.5891 0 7.40615
    endloop
  endfacet
  facet normal 0 -1 0
    outer loop
      vertex 15.5891 0 6.79385
      vertex 20 0 10
      vertex 15.65 0 7.1
    endloop
  endfacet
  facet normal 0 -1 0
    outer loop
      vertex 20 0 2
      vertex 15.5891 0 6.79385
      vertex 15.4157 0 6.53431
    endloop
  endfacet
  facet normal 0 -1 0
    outer loop
      vertex 15.5891 0 6.79385
      vertex 20 0 2
      vertex 20 0 10
    endloop
  endfacet
  facet normal 0 -1 0
    outer loop
      vertex 15.1561 0 6.3609
      vertex 20 0 2
      vertex 15.4157 0 6.53431
    endloop
  endfacet
  facet normal 0 -1 0
    outer loop
      vertex 20 0 2
      vertex 15.1561 0 6.3609
      vertex 14.85 0 6.3
    endloop
  endfacet
  facet normal 0 1 -7.72436e-07
    outer loop
      vertex 18 3 0
      vertex 0.152241 3 1.23463
      vertex 19.8478 3 1.23463
    endloop
  endfacet
  facet normal 0 1 -7.72436e-07
    outer loop
      vertex 0.152241 3 1.23463
      vertex 18 3 0
      vertex 2 3 0
    endloop
  endfacet
  facet normal 0.19509 0 -0.980785
    outer loop
      vertex 18 0 0
      vertex 18.7654 3 0.152241
      vertex 18.7654 0 0.152241
    endloop
  endfacet
  facet normal 0.19509 0 -0.980785
    outer loop
      vertex 18.7654 3 0.152241
      vertex 18 0 0
      vertex 18 3 0
    endloop
  endfacet
  facet normal 1 -0 0
    outer loop
      vertex 20 0 10
      vertex 20 3 2
      vertex 20 3 10
    endloop
  endfacet
  facet normal 1 0 0
    outer loop
      vertex 20 3 2
      vertex 20 0 10
      vertex 20 0 2
    endloop
  endfacet
  facet normal -0 0 1
    outer loop
      vertex 10 3 10
      vertex 20 0 10
      vertex 20 3 10
    endloop
  endfacet
  facet normal 0 0 1
    outer loop
      vertex 20 0 10
      vertex 10 3 10
      vertex 10 0 10
    endloop
  endfacet
  facet normal 0 0 -1
    outer loop
      vertex 2 0 0
      vertex 18 3 0
      vertex 18 0 0
    endloop
  endfacet
  facet normal -0 0 -1
    outer loop
      vertex 18 3 0
      vertex 2 0 0
      vertex 2 3 0
    endloop
  endfacet
  facet normal -2.18774e-07 1 -1.09985e-06
    outer loop
      vertex 1.23463 3 0.152241
      vertex 0.152241 3 1.23463
      vertex 2 3 0
    endloop
  endfacet
  facet normal 0.831469 0 -0.555571
    outer loop
      vertex 19.8478 0 1.23463
      vertex 19.4142 3 0.585786
      vertex 19.8478 3 1.23463
    endloop
  endfacet
  facet normal 0.831469 0 -0.555571
    outer loop
      vertex 19.4142 3 0.585786
      vertex 19.8478 0 1.23463
      vertex 19.4142 0 0.585786
    endloop
  endfacet
  facet normal -1 0 0
    outer loop
      vertex 0 3 2
      vertex 0 0 2
      vertex 0 3 20
    endloop
  endfacet
  facet normal -1 0 0
    outer loop
      vertex 0 3 20
      vertex 0 10 27.5
      vertex 0 10 20
    endloop
  endfacet
  facet normal -1 0 0
    outer loop
      vertex 0 3 20
      vertex 0 0 27.5
      vertex 0 10 27.5
    endloop
  endfacet
  facet normal -1 0 0
    outer loop
      vertex 0 0 27.5
      vertex 0 3 20
      vertex 0 0 2
    endloop
  endfacet
  facet normal 0 1 -0
    outer loop
      vertex 14.2843 3 7.66568
      vertex 10 3 10
      vertex 14.5439 3 7.8391
    endloop
  endfacet
  facet normal 0 1 0
    outer loop
      vertex 10 3 10
      vertex 5.65615 3 7.8391
      vertex 5.35 3 7.9
    endloop
  endfacet
  facet normal 0 1 -0
    outer loop
      vertex 14.1109 3 7.40615
      vertex 10 3 10
      vertex 14.2843 3 7.66568
    endloop
  endfacet
  facet normal 0 1 0
    outer loop
      vertex 10 3 10
      vertex 5.91568 3 7.66568
      vertex 5.65615 3 7.8391
    endloop
  endfacet
  facet normal 0 1 -0
    outer loop
      vertex 14.05 3 7.1
      vertex 10 3 10
      vertex 14.1109 3 7.40615
    endloop
  endfacet
  facet normal 0 1 0
    outer loop
      vertex 10 3 10
      vertex 6.0891 3 7.40615
      vertex 5.91568 3 7.66568
    endloop
  endfacet
  facet normal 0 1 0
    outer loop
      vertex 14.1109 3 6.79385
      vertex 10 3 10
      vertex 14.05 3 7.1
    endloop
  endfacet
  facet normal 0 1 0
    outer loop
      vertex 10 3 10
      vertex 6.15 3 7.1
      vertex 6.0891 3 7.40615
    endloop
  endfacet
  facet normal 0 1 0
    outer loop
      vertex 6.0891 3 6.79385
      vertex 10 3 10
      vertex 14.1109 3 6.79385
    endloop
  endfacet
  facet normal 0 1 0
    outer loop
      vertex 10 3 10
      vertex 6.0891 3 6.79385
      vertex 6.15 3 7.1
    endloop
  endfacet
  facet normal 0 1 0
    outer loop
      vertex 14.2843 3 6.53431
      vertex 6.0891 3 6.79385
      vertex 14.1109 3 6.79385
    endloop
  endfacet
  facet normal 0 1 0
    outer loop
      vertex 14.2843 3 6.53431
      vertex 5.91568 3 6.53431
      vertex 6.0891 3 6.79385
    endloop
  endfacet
  facet normal 0 1 0
    outer loop
      vertex 14.5439 3 6.3609
      vertex 5.91568 3 6.53431
      vertex 14.2843 3 6.53431
    endloop
  endfacet
  facet normal 0 1 0
    outer loop
      vertex 14.5439 3 6.3609
      vertex 5.65615 3 6.3609
      vertex 5.91568 3 6.53431
    endloop
  endfacet
  facet normal 0 1 0
    outer loop
      vertex 19.8478 3 1.23463
      vertex 14.5439 3 6.3609
      vertex 14.85 3 6.3
    endloop
  endfacet
  facet normal 0 1 0
    outer loop
      vertex 14.5439 3 6.3609
      vertex 19.8478 3 1.23463
      vertex 5.65615 3 6.3609
    endloop
  endfacet
  facet normal 0 1 0
    outer loop
      vertex 20 3 10
      vertex 14.85 3 7.9
      vertex 10 3 10
    endloop
  endfacet
  facet normal 0 1 0
    outer loop
      vertex 20 3 10
      vertex 15.1561 3 7.8391
      vertex 14.85 3 7.9
    endloop
  endfacet
  facet normal 0 1 0
    outer loop
      vertex 20 3 10
      vertex 15.4157 3 7.66568
      vertex 15.1561 3 7.8391
    endloop
  endfacet
  facet normal 0 1 0
    outer loop
      vertex 20 3 10
      vertex 15.5891 3 7.40615
      vertex 15.4157 3 7.66568
    endloop
  endfacet
  facet normal 0 1 0
    outer loop
      vertex 20 3 10
      vertex 15.65 3 7.1
      vertex 15.5891 3 7.40615
    endloop
  endfacet
  facet normal 0 1 0
    outer loop
      vertex 20 3 10
      vertex 15.5891 3 6.79385
      vertex 15.65 3 7.1
    endloop
  endfacet
  facet normal 0 1 -0
    outer loop
      vertex 20 3 2
      vertex 15.5891 3 6.79385
      vertex 20 3 10
    endloop
  endfacet
  facet normal 0 1 0
    outer loop
      vertex 15.1561 3 6.3609
      vertex 19.8478 3 1.23463
      vertex 14.85 3 6.3
    endloop
  endfacet
  facet normal 0 1 -0
    outer loop
      vertex 19.8478 3 1.23463
      vertex 15.1561 3 6.3609
      vertex 20 3 2
    endloop
  endfacet
  facet normal 0 1 0
    outer loop
      vertex 15.4157 3 6.53431
      vertex 20 3 2
      vertex 15.1561 3 6.3609
    endloop
  endfacet
  facet normal 0 1 0
    outer loop
      vertex 15.5891 3 6.79385
      vertex 20 3 2
      vertex 15.4157 3 6.53431
    endloop
  endfacet
  facet normal 0 1 -0
    outer loop
      vertex 10 3 10
      vertex 0 3 20
      vertex 10 3 20
    endloop
  endfacet
  facet normal 0 1 -0
    outer loop
      vertex 14.5439 3 7.8391
      vertex 10 3 10
      vertex 14.85 3 7.9
    endloop
  endfacet
  facet normal 0 1 -0
    outer loop
      vertex 5.35 3 7.9
      vertex 0 3 20
      vertex 10 3 10
    endloop
  endfacet
  facet normal 0 1 -0
    outer loop
      vertex 5.04385 3 7.8391
      vertex 0 3 20
      vertex 5.35 3 7.9
    endloop
  endfacet
  facet normal 0 1 -0
    outer loop
      vertex 4.78431 3 7.66568
      vertex 0 3 20
      vertex 5.04385 3 7.8391
    endloop
  endfacet
  facet normal 0 1 -0
    outer loop
      vertex 4.6109 3 7.40615
      vertex 0 3 20
      vertex 4.78431 3 7.66568
    endloop
  endfacet
  facet normal 0 1 0
    outer loop
      vertex 0 3 2
      vertex 4.6109 3 7.40615
      vertex 4.55 3 7.1
    endloop
  endfacet
  facet normal 0 1 0
    outer loop
      vertex 0 3 2
      vertex 4.55 3 7.1
      vertex 4.6109 3 6.79385
    endloop
  endfacet
  facet normal 0 1 0
    outer loop
      vertex 0.152241 3 1.23463
      vertex 5.65615 3 6.3609
      vertex 19.8478 3 1.23463
    endloop
  endfacet
  facet normal 0 1 0
    outer loop
      vertex 4.6109 3 7.40615
      vertex 0 3 2
      vertex 0 3 20
    endloop
  endfacet
  facet normal 0 1 0
    outer loop
      vertex 4.78431 3 6.53431
      vertex 0 3 2
      vertex 4.6109 3 6.79385
    endloop
  endfacet
  facet normal 0 1 0
    outer loop
      vertex 5.04385 3 6.3609
      vertex 0 3 2
      vertex 4.78431 3 6.53431
    endloop
  endfacet
  facet normal 0 1 0
    outer loop
      vertex 5.65615 3 6.3609
      vertex 0.152241 3 1.23463
      vertex 5.35 3 6.3
    endloop
  endfacet
  facet normal 0 1 0
    outer loop
      vertex 5.35 3 6.3
      vertex 0.152241 3 1.23463
      vertex 5.04385 3 6.3609
    endloop
  endfacet
  facet normal 0 1 0
    outer loop
      vertex 5.04385 3 6.3609
      vertex 0.152241 3 1.23463
      vertex 0 3 2
    endloop
  endfacet
  facet normal -0.83147 0 -0.55557
    outer loop
      vertex 0.585786 0 0.585786
      vertex 0.152241 3 1.23463
      vertex 0.585786 3 0.585786
    endloop
  endfacet
  facet normal -0.83147 -0 -0.55557
    outer loop
      vertex 0.152241 3 1.23463
      vertex 0.585786 0 0.585786
      vertex 0.152241 0 1.23463
    endloop
  endfacet
  facet normal 0.555569 0 -0.83147
    outer loop
      vertex 18.7654 0 0.152241
      vertex 19.4142 3 0.585786
      vertex 19.4142 0 0.585786
    endloop
  endfacet
  facet normal 0.555569 0 -0.83147
    outer loop
      vertex 19.4142 3 0.585786
      vertex 18.7654 0 0.152241
      vertex 18.7654 3 0.152241
    endloop
  endfacet
  facet normal 1.7742e-06 1 -2.65528e-06
    outer loop
      vertex 19.4142 3 0.585786
      vertex 18.7654 3 0.152241
      vertex 19.8478 3 1.23463
    endloop
  endfacet
  facet normal -1.7742e-06 1 -2.65528e-06
    outer loop
      vertex 0.585786 3 0.585786
      vertex 0.152241 3 1.23463
      vertex 1.23463 3 0.152241
    endloop
  endfacet
  facet normal 2.18775e-07 1 -1.09986e-06
    outer loop
      vertex 18.7654 3 0.152241
      vertex 18 3 0
      vertex 19.8478 3 1.23463
    endloop
  endfacet
  facet normal -0.55557 0 -0.83147
    outer loop
      vertex 0.585786 0 0.585786
      vertex 1.23463 3 0.152241
      vertex 1.23463 0 0.152241
    endloop
  endfacet
  facet normal -0.55557 0 -0.83147
    outer loop
      vertex 1.23463 3 0.152241
      vertex 0.585786 0 0.585786
      vertex 0.585786 3 0.585786
    endloop
  endfacet
  facet normal -0.980785 0 -0.19509
    outer loop
      vertex 0.152241 0 1.23463
      vertex 0 3 2
      vertex 0.152241 3 1.23463
    endloop
  endfacet
  facet normal -0.980785 -0 -0.19509
    outer loop
      vertex 0 3 2
      vertex 0.152241 0 1.23463
      vertex 0 0 2
    endloop
  endfacet
  facet normal -0.980785 0 0.195092
    outer loop
      vertex 15.5891 0 6.79385
      vertex 15.65 3 7.1
      vertex 15.5891 3 6.79385
    endloop
  endfacet
  facet normal -0.980785 0 0.195092
    outer loop
      vertex 15.65 3 7.1
      vertex 15.5891 0 6.79385
      vertex 15.65 0 7.1
    endloop
  endfacet
  facet normal 0.980785 -0 0.195092
    outer loop
      vertex 14.05 0 7.1
      vertex 14.1109 3 6.79385
      vertex 14.05 3 7.1
    endloop
  endfacet
  facet normal 0.980785 0 0.195092
    outer loop
      vertex 14.1109 3 6.79385
      vertex 14.05 0 7.1
      vertex 14.1109 0 6.79385
    endloop
  endfacet
  facet normal -0.195092 0 0.980785
    outer loop
      vertex 14.85 3 6.3
      vertex 15.1561 0 6.3609
      vertex 15.1561 3 6.3609
    endloop
  endfacet
  facet normal -0.195092 0 0.980785
    outer loop
      vertex 15.1561 0 6.3609
      vertex 14.85 3 6.3
      vertex 14.85 0 6.3
    endloop
  endfacet
  facet normal -0.83147 0 0.55557
    outer loop
      vertex 15.4157 0 6.53431
      vertex 15.5891 3 6.79385
      vertex 15.4157 3 6.53431
    endloop
  endfacet
  facet normal -0.83147 0 0.55557
    outer loop
      vertex 15.5891 3 6.79385
      vertex 15.4157 0 6.53431
      vertex 15.5891 0 6.79385
    endloop
  endfacet
  facet normal 0.195092 0 -0.980785
    outer loop
      vertex 14.5439 0 7.8391
      vertex 14.85 3 7.9
      vertex 14.85 0 7.9
    endloop
  endfacet
  facet normal 0.195092 0 -0.980785
    outer loop
      vertex 14.85 3 7.9
      vertex 14.5439 0 7.8391
      vertex 14.5439 3 7.8391
    endloop
  endfacet
  facet normal -0.55557 0 0.83147
    outer loop
      vertex 15.1561 3 6.3609
      vertex 15.4157 0 6.53431
      vertex 15.4157 3 6.53431
    endloop
  endfacet
  facet normal -0.55557 0 0.83147
    outer loop
      vertex 15.4157 0 6.53431
      vertex 15.1561 3 6.3609
      vertex 15.1561 0 6.3609
    endloop
  endfacet
  facet normal 0.55557 0 0.83147
    outer loop
      vertex 14.2843 3 6.53431
      vertex 14.5439 0 6.3609
      vertex 14.5439 3 6.3609
    endloop
  endfacet
  facet normal 0.55557 0 0.83147
    outer loop
      vertex 14.5439 0 6.3609
      vertex 14.2843 3 6.53431
      vertex 14.2843 0 6.53431
    endloop
  endfacet
  facet normal 0.83147 -0 0.55557
    outer loop
      vertex 14.1109 0 6.79385
      vertex 14.2843 3 6.53431
      vertex 14.1109 3 6.79385
    endloop
  endfacet
  facet normal 0.83147 0 0.55557
    outer loop
      vertex 14.2843 3 6.53431
      vertex 14.1109 0 6.79385
      vertex 14.2843 0 6.53431
    endloop
  endfacet
  facet normal 0.195092 0 0.980785
    outer loop
      vertex 14.5439 3 6.3609
      vertex 14.85 0 6.3
      vertex 14.85 3 6.3
    endloop
  endfacet
  facet normal 0.195092 0 0.980785
    outer loop
      vertex 14.85 0 6.3
      vertex 14.5439 3 6.3609
      vertex 14.5439 0 6.3609
    endloop
  endfacet
  facet normal 0.55557 0 -0.83147
    outer loop
      vertex 14.2843 0 7.66568
      vertex 14.5439 3 7.8391
      vertex 14.5439 0 7.8391
    endloop
  endfacet
  facet normal 0.55557 0 -0.83147
    outer loop
      vertex 14.5439 3 7.8391
      vertex 14.2843 0 7.66568
      vertex 14.2843 3 7.66568
    endloop
  endfacet
  facet normal 0.980785 0 -0.195092
    outer loop
      vertex 14.1109 0 7.40615
      vertex 14.05 3 7.1
      vertex 14.1109 3 7.40615
    endloop
  endfacet
  facet normal 0.980785 0 -0.195092
    outer loop
      vertex 14.05 3 7.1
      vertex 14.1109 0 7.40615
      vertex 14.05 0 7.1
    endloop
  endfacet
  facet normal -0.980785 0 -0.195092
    outer loop
      vertex 15.65 0 7.1
      vertex 15.5891 3 7.40615
      vertex 15.65 3 7.1
    endloop
  endfacet
  facet normal -0.980785 -0 -0.195092
    outer loop
      vertex 15.5891 3 7.40615
      vertex 15.65 0 7.1
      vertex 15.5891 0 7.40615
    endloop
  endfacet
  facet normal -0.55557 0 -0.83147
    outer loop
      vertex 15.1561 0 7.8391
      vertex 15.4157 3 7.66568
      vertex 15.4157 0 7.66568
    endloop
  endfacet
  facet normal -0.55557 0 -0.83147
    outer loop
      vertex 15.4157 3 7.66568
      vertex 15.1561 0 7.8391
      vertex 15.1561 3 7.8391
    endloop
  endfacet
  facet normal -0.195092 0 -0.980785
    outer loop
      vertex 14.85 0 7.9
      vertex 15.1561 3 7.8391
      vertex 15.1561 0 7.8391
    endloop
  endfacet
  facet normal -0.195092 0 -0.980785
    outer loop
      vertex 15.1561 3 7.8391
      vertex 14.85 0 7.9
      vertex 14.85 3 7.9
    endloop
  endfacet
  facet normal -0.83147 0 -0.55557
    outer loop
      vertex 15.5891 0 7.40615
      vertex 15.4157 3 7.66568
      vertex 15.5891 3 7.40615
    endloop
  endfacet
  facet normal -0.83147 -0 -0.55557
    outer loop
      vertex 15.4157 3 7.66568
      vertex 15.5891 0 7.40615
      vertex 15.4157 0 7.66568
    endloop
  endfacet
  facet normal 0.83147 0 -0.55557
    outer loop
      vertex 14.2843 0 7.66568
      vertex 14.1109 3 7.40615
      vertex 14.2843 3 7.66568
    endloop
  endfacet
  facet normal 0.83147 0 -0.55557
    outer loop
      vertex 14.1109 3 7.40615
      vertex 14.2843 0 7.66568
      vertex 14.1109 0 7.40615
    endloop
  endfacet
  facet normal -0.980785 0 0.195092
    outer loop
      vertex 6.0891 0 6.79385
      vertex 6.15 3 7.1
      vertex 6.0891 3 6.79385
    endloop
  endfacet
  facet normal -0.980785 0 0.195092
    outer loop
      vertex 6.15 3 7.1
      vertex 6.0891 0 6.79385
      vertex 6.15 0 7.1
    endloop
  endfacet
  facet normal 0.980785 -0 0.195092
    outer loop
      vertex 4.55 0 7.1
      vertex 4.6109 3 6.79385
      vertex 4.55 3 7.1
    endloop
  endfacet
  facet normal 0.980785 0 0.195092
    outer loop
      vertex 4.6109 3 6.79385
      vertex 4.55 0 7.1
      vertex 4.6109 0 6.79385
    endloop
  endfacet
  facet normal -0.195092 0 0.980785
    outer loop
      vertex 5.35 3 6.3
      vertex 5.65615 0 6.3609
      vertex 5.65615 3 6.3609
    endloop
  endfacet
  facet normal -0.195092 0 0.980785
    outer loop
      vertex 5.65615 0 6.3609
      vertex 5.35 3 6.3
      vertex 5.35 0 6.3
    endloop
  endfacet
  facet normal -0.83147 0 0.55557
    outer loop
      vertex 5.91568 0 6.53431
      vertex 6.0891 3 6.79385
      vertex 5.91568 3 6.53431
    endloop
  endfacet
  facet normal -0.83147 0 0.55557
    outer loop
      vertex 6.0891 3 6.79385
      vertex 5.91568 0 6.53431
      vertex 6.0891 0 6.79385
    endloop
  endfacet
  facet normal 0.195092 0 -0.980785
    outer loop
      vertex 5.04385 0 7.8391
      vertex 5.35 3 7.9
      vertex 5.35 0 7.9
    endloop
  endfacet
  facet normal 0.195092 0 -0.980785
    outer loop
      vertex 5.35 3 7.9
      vertex 5.04385 0 7.8391
      vertex 5.04385 3 7.8391
    endloop
  endfacet
  facet normal -0.55557 0 0.83147
    outer loop
      vertex 5.65615 3 6.3609
      vertex 5.91568 0 6.53431
      vertex 5.91568 3 6.53431
    endloop
  endfacet
  facet normal -0.55557 0 0.83147
    outer loop
      vertex 5.91568 0 6.53431
      vertex 5.65615 3 6.3609
      vertex 5.65615 0 6.3609
    endloop
  endfacet
  facet normal 0.55557 0 0.83147
    outer loop
      vertex 4.78431 3 6.53431
      vertex 5.04385 0 6.3609
      vertex 5.04385 3 6.3609
    endloop
  endfacet
  facet normal 0.55557 0 0.83147
    outer loop
      vertex 5.04385 0 6.3609
      vertex 4.78431 3 6.53431
      vertex 4.78431 0 6.53431
    endloop
  endfacet
  facet normal 0.83147 -0 0.55557
    outer loop
      vertex 4.6109 0 6.79385
      vertex 4.78431 3 6.53431
      vertex 4.6109 3 6.79385
    endloop
  endfacet
  facet normal 0.83147 0 0.55557
    outer loop
      vertex 4.78431 3 6.53431
      vertex 4.6109 0 6.79385
      vertex 4.78431 0 6.53431
    endloop
  endfacet
  facet normal 0.195092 0 0.980785
    outer loop
      vertex 5.04385 3 6.3609
      vertex 5.35 0 6.3
      vertex 5.35 3 6.3
    endloop
  endfacet
  facet normal 0.195092 0 0.980785
    outer loop
      vertex 5.35 0 6.3
      vertex 5.04385 3 6.3609
      vertex 5.04385 0 6.3609
    endloop
  endfacet
  facet normal 0.55557 0 -0.83147
    outer loop
      vertex 4.78431 0 7.66568
      vertex 5.04385 3 7.8391
      vertex 5.04385 0 7.8391
    endloop
  endfacet
  facet normal 0.55557 0 -0.83147
    outer loop
      vertex 5.04385 3 7.8391
      vertex 4.78431 0 7.66568
      vertex 4.78431 3 7.66568
    endloop
  endfacet
  facet normal 0.980785 0 -0.195092
    outer loop
      vertex 4.6109 0 7.40615
      vertex 4.55 3 7.1
      vertex 4.6109 3 7.40615
    endloop
  endfacet
  facet normal 0.980785 0 -0.195092
    outer loop
      vertex 4.55 3 7.1
      vertex 4.6109 0 7.40615
      vertex 4.55 0 7.1
    endloop
  endfacet
  facet normal -0.980785 0 -0.195092
    outer loop
      vertex 6.15 0 7.1
      vertex 6.0891 3 7.40615
      vertex 6.15 3 7.1
    endloop
  endfacet
  facet normal -0.980785 -0 -0.195092
    outer loop
      vertex 6.0891 3 7.40615
      vertex 6.15 0 7.1
      vertex 6.0891 0 7.40615
    endloop
  endfacet
  facet normal -0.55557 0 -0.83147
    outer loop
      vertex 5.65615 0 7.8391
      vertex 5.91568 3 7.66568
      vertex 5.91568 0 7.66568
    endloop
  endfacet
  facet normal -0.55557 0 -0.83147
    outer loop
      vertex 5.91568 3 7.66568
      vertex 5.65615 0 7.8391
      vertex 5.65615 3 7.8391
    endloop
  endfacet
  facet normal -0.195092 0 -0.980785
    outer loop
      vertex 5.35 0 7.9
      vertex 5.65615 3 7.8391
      vertex 5.65615 0 7.8391
    endloop
  endfacet
  facet normal -0.195092 0 -0.980785
    outer loop
      vertex 5.65615 3 7.8391
      vertex 5.35 0 7.9
      vertex 5.35 3 7.9
    endloop
  endfacet
  facet normal -0.83147 0 -0.55557
    outer loop
      vertex 6.0891 0 7.40615
      vertex 5.91568 3 7.66568
      vertex 6.0891 3 7.40615
    endloop
  endfacet
  facet normal -0.83147 -0 -0.55557
    outer loop
      vertex 5.91568 3 7.66568
      vertex 6.0891 0 7.40615
      vertex 5.91568 0 7.66568
    endloop
  endfacet
  facet normal 0.83147 0 -0.55557
    outer loop
      vertex 4.78431 0 7.66568
      vertex 4.6109 3 7.40615
      vertex 4.78431 3 7.66568
    endloop
  endfacet
  facet normal 0.83147 0 -0.55557
    outer loop
      vertex 4.6109 3 7.40615
      vertex 4.78431 0 7.66568
      vertex 4.6109 0 7.40615
    endloop
  endfacet
  facet normal 0 0 1
    outer loop
      vertex 10 10 27.5
      vertex 6.25 5 27.5
      vertex 10 0 27.5
    endloop
  endfacet
  facet normal 0 0 1
    outer loop
      vertex 10 10 27.5
      vertex 6.15485 5.47835 27.5
      vertex 6.25 5 27.5
    endloop
  endfacet
  facet normal 0 0 1
    outer loop
      vertex 10 10 27.5
      vertex 5.88388 5.88388 27.5
      vertex 6.15485 5.47835 27.5
    endloop
  endfacet
  facet normal 0 0 1
    outer loop
      vertex 10 10 27.5
      vertex 5.47835 6.15485 27.5
      vertex 5.88388 5.88388 27.5
    endloop
  endfacet
  facet normal 0 0 1
    outer loop
      vertex 10 10 27.5
      vertex 5 6.25 27.5
      vertex 5.47835 6.15485 27.5
    endloop
  endfacet
  facet normal -0 0 1
    outer loop
      vertex 0 10 27.5
      vertex 5 6.25 27.5
      vertex 10 10 27.5
    endloop
  endfacet
  facet normal 0 0 1
    outer loop
      vertex 5 6.25 27.5
      vertex 0 10 27.5
      vertex 4.52165 6.15485 27.5
    endloop
  endfacet
  facet normal 0 0 1
    outer loop
      vertex 3.84515 5.47835 27.5
      vertex 0 10 27.5
      vertex 3.75 5 27.5
    endloop
  endfacet
  facet normal 0 0 1
    outer loop
      vertex 4.11612 5.88388 27.5
      vertex 0 10 27.5
      vertex 3.84515 5.47835 27.5
    endloop
  endfacet
  facet normal 0 0 1
    outer loop
      vertex 4.52165 6.15485 27.5
      vertex 0 10 27.5
      vertex 4.11612 5.88388 27.5
    endloop
  endfacet
  facet normal -0 0 1
    outer loop
      vertex 6.15485 4.52165 27.5
      vertex 10 0 27.5
      vertex 6.25 5 27.5
    endloop
  endfacet
  facet normal -0 0 1
    outer loop
      vertex 5.88388 4.11612 27.5
      vertex 10 0 27.5
      vertex 6.15485 4.52165 27.5
    endloop
  endfacet
  facet normal -0 0 1
    outer loop
      vertex 5.47835 3.84515 27.5
      vertex 10 0 27.5
      vertex 5.88388 4.11612 27.5
    endloop
  endfacet
  facet normal -0 0 1
    outer loop
      vertex 5 3.75 27.5
      vertex 10 0 27.5
      vertex 5.47835 3.84515 27.5
    endloop
  endfacet
  facet normal 0 0 1
    outer loop
      vertex 0 0 27.5
      vertex 5 3.75 27.5
      vertex 4.52165 3.84515 27.5
    endloop
  endfacet
  facet normal 0 0 1
    outer loop
      vertex 0 0 27.5
      vertex 4.52165 3.84515 27.5
      vertex 4.11612 4.11612 27.5
    endloop
  endfacet
  facet normal 0 0 1
    outer loop
      vertex 0 0 27.5
      vertex 3.75 5 27.5
      vertex 0 10 27.5
    endloop
  endfacet
  facet normal 0 0 1
    outer loop
      vertex 3.75 5 27.5
      vertex 0 0 27.5
      vertex 3.84515 4.52165 27.5
    endloop
  endfacet
  facet normal 0 0 1
    outer loop
      vertex 5 3.75 27.5
      vertex 0 0 27.5
      vertex 10 0 27.5
    endloop
  endfacet
  facet normal 0 0 1
    outer loop
      vertex 3.84515 4.52165 27.5
      vertex 0 0 27.5
      vertex 4.11612 4.11612 27.5
    endloop
  endfacet
  facet normal 1 0 0
    outer loop
      vertex 10 10 27.5
      vertex 10 3 20
      vertex 10 10 20
    endloop
  endfacet
  facet normal 1 -0 0
    outer loop
      vertex 10 0 27.5
      vertex 10 3 20
      vertex 10 10 27.5
    endloop
  endfacet
  facet normal 1 0 0
    outer loop
      vertex 10 0 10
      vertex 10 3 20
      vertex 10 0 27.5
    endloop
  endfacet
  facet normal 1 0 0
    outer loop
      vertex 10 3 20
      vertex 10 0 10
      vertex 10 3 10
    endloop
  endfacet
  facet normal 0 1 -0
    outer loop
      vertex 10 10 20
      vertex 0 10 27.5
      vertex 10 10 27.5
    endloop
  endfacet
  facet normal 0 1 0
    outer loop
      vertex 0 10 27.5
      vertex 10 10 20
      vertex 0 10 20
    endloop
  endfacet
  facet normal 0 0 -1
    outer loop
      vertex 6.15485 5.47835 20
      vertex 10 3 20
      vertex 6.25 5 20
    endloop
  endfacet
  facet normal 0 0 -1
    outer loop
      vertex 10 3 20
      vertex 6.15485 4.52165 20
      vertex 6.25 5 20
    endloop
  endfacet
  facet normal 0 0 -1
    outer loop
      vertex 10 3 20
      vertex 5.88388 4.11612 20
      vertex 6.15485 4.52165 20
    endloop
  endfacet
  facet normal 0 0 -1
    outer loop
      vertex 10 3 20
      vertex 5.47835 3.84515 20
      vertex 5.88388 4.11612 20
    endloop
  endfacet
  facet normal 0 0 -1
    outer loop
      vertex 10 3 20
      vertex 5 3.75 20
      vertex 5.47835 3.84515 20
    endloop
  endfacet
  facet normal -0 0 -1
    outer loop
      vertex 3.84515 4.52165 20
      vertex 0 3 20
      vertex 3.75 5 20
    endloop
  endfacet
  facet normal -0 0 -1
    outer loop
      vertex 4.11612 4.11612 20
      vertex 0 3 20
      vertex 3.84515 4.52165 20
    endloop
  endfacet
  facet normal -0 0 -1
    outer loop
      vertex 4.52165 3.84515 20
      vertex 0 3 20
      vertex 4.11612 4.11612 20
    endloop
  endfacet
  facet normal -0 0 -1
    outer loop
      vertex 5 3.75 20
      vertex 0 3 20
      vertex 4.52165 3.84515 20
    endloop
  endfacet
  facet normal 0 0 -1
    outer loop
      vertex 0 3 20
      vertex 5 3.75 20
      vertex 10 3 20
    endloop
  endfacet
  facet normal 0 0 -1
    outer loop
      vertex 10 3 20
      vertex 6.15485 5.47835 20
      vertex 10 10 20
    endloop
  endfacet
  facet normal 0 0 -1
    outer loop
      vertex 5.88388 5.88388 20
      vertex 10 10 20
      vertex 6.15485 5.47835 20
    endloop
  endfacet
  facet normal 0 0 -1
    outer loop
      vertex 5.47835 6.15485 20
      vertex 10 10 20
      vertex 5.88388 5.88388 20
    endloop
  endfacet
  facet normal 0 0 -1
    outer loop
      vertex 5 6.25 20
      vertex 10 10 20
      vertex 5.47835 6.15485 20
    endloop
  endfacet
  facet normal 0 0 -1
    outer loop
      vertex 0 10 20
      vertex 5 6.25 20
      vertex 4.52165 6.15485 20
    endloop
  endfacet
  facet normal 0 0 -1
    outer loop
      vertex 0 10 20
      vertex 4.52165 6.15485 20
      vertex 4.11612 5.88388 20
    endloop
  endfacet
  facet normal 0 0 -1
    outer loop
      vertex 0 3 20
      vertex 3.84515 5.47835 20
      vertex 3.75 5 20
    endloop
  endfacet
  facet normal 0 0 -1
    outer loop
      vertex 0 10 20
      vertex 3.84515 5.47835 20
      vertex 0 3 20
    endloop
  endfacet
  facet normal 0 0 -1
    outer loop
      vertex 5 6.25 20
      vertex 0 10 20
      vertex 10 10 20
    endloop
  endfacet
  facet normal 0 0 -1
    outer loop
      vertex 3.84515 5.47835 20
      vertex 0 10 20
      vertex 4.11612 5.88388 20
    endloop
  endfacet
  facet normal -0.980785 -0.195091 0
    outer loop
      vertex 6.25 5 20
      vertex 6.15485 5.47835 27.5
      vertex 6.15485 5.47835 20
    endloop
  endfacet
  facet normal -0.980785 -0.195091 0
    outer loop
      vertex 6.15485 5.47835 27.5
      vertex 6.25 5 20
      vertex 6.25 5 27.5
    endloop
  endfacet
  facet normal 0.195091 -0.980785 0
    outer loop
      vertex 4.52165 6.15485 20
      vertex 5 6.25 27.5
      vertex 4.52165 6.15485 27.5
    endloop
  endfacet
  facet normal 0.195091 -0.980785 0
    outer loop
      vertex 5 6.25 27.5
      vertex 4.52165 6.15485 20
      vertex 5 6.25 20
    endloop
  endfacet
  facet normal -0.195089 0.980785 0
    outer loop
      vertex 5.47835 3.84515 20
      vertex 5 3.75 27.5
      vertex 5.47835 3.84515 27.5
    endloop
  endfacet
  facet normal -0.195089 0.980785 0
    outer loop
      vertex 5 3.75 27.5
      vertex 5.47835 3.84515 20
      vertex 5 3.75 20
    endloop
  endfacet
  facet normal -0.555569 0.83147 0
    outer loop
      vertex 5.88388 4.11612 20
      vertex 5.47835 3.84515 27.5
      vertex 5.88388 4.11612 27.5
    endloop
  endfacet
  facet normal -0.555569 0.83147 0
    outer loop
      vertex 5.47835 3.84515 27.5
      vertex 5.88388 4.11612 20
      vertex 5.47835 3.84515 20
    endloop
  endfacet
  facet normal -0.555569 -0.83147 0
    outer loop
      vertex 5.47835 6.15485 20
      vertex 5.88388 5.88388 27.5
      vertex 5.47835 6.15485 27.5
    endloop
  endfacet
  facet normal -0.555569 -0.83147 -0
    outer loop
      vertex 5.88388 5.88388 27.5
      vertex 5.47835 6.15485 20
      vertex 5.88388 5.88388 20
    endloop
  endfacet
  facet normal -0.83147 -0.555569 0
    outer loop
      vertex 6.15485 5.47835 20
      vertex 5.88388 5.88388 27.5
      vertex 5.88388 5.88388 20
    endloop
  endfacet
  facet normal -0.83147 -0.555569 0
    outer loop
      vertex 5.88388 5.88388 27.5
      vertex 6.15485 5.47835 20
      vertex 6.15485 5.47835 27.5
    endloop
  endfacet
  facet normal -0.195091 -0.980785 0
    outer loop
      vertex 5 6.25 20
      vertex 5.47835 6.15485 27.5
      vertex 5 6.25 27.5
    endloop
  endfacet
  facet normal -0.195091 -0.980785 -0
    outer loop
      vertex 5.47835 6.15485 27.5
      vertex 5 6.25 20
      vertex 5.47835 6.15485 20
    endloop
  endfacet
  facet normal 0.83147 -0.555569 0
    outer loop
      vertex 3.84515 5.47835 27.5
      vertex 4.11612 5.88388 20
      vertex 4.11612 5.88388 27.5
    endloop
  endfacet
  facet normal 0.83147 -0.555569 0
    outer loop
      vertex 4.11612 5.88388 20
      vertex 3.84515 5.47835 27.5
      vertex 3.84515 5.47835 20
    endloop
  endfacet
  facet normal 0.980785 -0.195089 0
    outer loop
      vertex 3.75 5 27.5
      vertex 3.84515 5.47835 20
      vertex 3.84515 5.47835 27.5
    endloop
  endfacet
  facet normal 0.980785 -0.195089 0
    outer loop
      vertex 3.84515 5.47835 20
      vertex 3.75 5 27.5
      vertex 3.75 5 20
    endloop
  endfacet
  facet normal 0.555569 -0.83147 0
    outer loop
      vertex 4.11612 5.88388 20
      vertex 4.52165 6.15485 27.5
      vertex 4.11612 5.88388 27.5
    endloop
  endfacet
  facet normal 0.555569 -0.83147 0
    outer loop
      vertex 4.52165 6.15485 27.5
      vertex 4.11612 5.88388 20
      vertex 4.52165 6.15485 20
    endloop
  endfacet
  facet normal -0.980785 0.195091 0
    outer loop
      vertex 6.15485 4.52165 20
      vertex 6.25 5 27.5
      vertex 6.25 5 20
    endloop
  endfacet
  facet normal -0.980785 0.195091 0
    outer loop
      vertex 6.25 5 27.5
      vertex 6.15485 4.52165 20
      vertex 6.15485 4.52165 27.5
    endloop
  endfacet
  facet normal 0.195089 0.980786 -0
    outer loop
      vertex 5 3.75 20
      vertex 4.52165 3.84515 27.5
      vertex 5 3.75 27.5
    endloop
  endfacet
  facet normal 0.195089 0.980786 0
    outer loop
      vertex 4.52165 3.84515 27.5
      vertex 5 3.75 20
      vertex 4.52165 3.84515 20
    endloop
  endfacet
  facet normal 0.83147 0.555569 0
    outer loop
      vertex 4.11612 4.11612 27.5
      vertex 3.84515 4.52165 20
      vertex 3.84515 4.52165 27.5
    endloop
  endfacet
  facet normal 0.83147 0.555569 0
    outer loop
      vertex 3.84515 4.52165 20
      vertex 4.11612 4.11612 27.5
      vertex 4.11612 4.11612 20
    endloop
  endfacet
  facet normal 0.980786 0.195089 0
    outer loop
      vertex 3.84515 4.52165 27.5
      vertex 3.75 5 20
      vertex 3.75 5 27.5
    endloop
  endfacet
  facet normal 0.980786 0.195089 0
    outer loop
      vertex 3.75 5 20
      vertex 3.84515 4.52165 27.5
      vertex 3.84515 4.52165 20
    endloop
  endfacet
  facet normal -0.83147 0.555569 0
    outer loop
      vertex 5.88388 4.11612 20
      vertex 6.15485 4.52165 27.5
      vertex 6.15485 4.52165 20
    endloop
  endfacet
  facet normal -0.83147 0.555569 0
    outer loop
      vertex 6.15485 4.52165 27.5
      vertex 5.88388 4.11612 20
      vertex 5.88388 4.11612 27.5
    endloop
  endfacet
  facet normal 0.555569 0.83147 -0
    outer loop
      vertex 4.52165 3.84515 20
      vertex 4.11612 4.11612 27.5
      vertex 4.52165 3.84515 27.5
    endloop
  endfacet
  facet normal 0.555569 0.83147 0
    outer loop
      vertex 4.11612 4.11612 27.5
      vertex 4.52165 3.84515 20
      vertex 4.11612 4.11612 20
    endloop
  endfacet
endsolid OpenSCAD_Model
