solid OpenSCAD_Model
  facet normal 0.92388 0.382683 0
    outer loop
      vertex 25 0 0
      vertex 17.6777 17.6777 -6.5
      vertex 17.6777 17.6777 0
    endloop
  endfacet
  facet normal 0.92388 0.382683 0
    outer loop
      vertex 17.6777 17.6777 -6.5
      vertex 25 0 0
      vertex 25 0 -6.5
    endloop
  endfacet
  facet normal -0.92388 0.382683 0
    outer loop
      vertex -25 0 -6.5
      vertex -17.6777 17.6777 0
      vertex -17.6777 17.6777 -6.5
    endloop
  endfacet
  facet normal -0.92388 0.382683 0
    outer loop
      vertex -17.6777 17.6777 0
      vertex -25 0 -6.5
      vertex -25 0 0
    endloop
  endfacet
  facet normal 0.382683 0.92388 -0
    outer loop
      vertex 17.6777 17.6777 -6.5
      vertex 0 25 0
      vertex 17.6777 17.6777 0
    endloop
  endfacet
  facet normal 0.382683 0.92388 0
    outer loop
      vertex 0 25 0
      vertex 17.6777 17.6777 -6.5
      vertex 0 25 -6.5
    endloop
  endfacet
  facet normal 0 0 -1
    outer loop
      vertex 7.50555 0 -6.5
      vertex 25 0 -6.5
      vertex 17.6777 -17.6777 -6.5
    endloop
  endfacet
  facet normal 0 0 -1
    outer loop
      vertex 25 0 -6.5
      vertex 7.50555 0 -6.5
      vertex 17.6777 17.6777 -6.5
    endloop
  endfacet
  facet normal 0 0 -1
    outer loop
      vertex 17.6777 -17.6777 -6.5
      vertex 3.75278 -6.5 -6.5
      vertex 7.50555 0 -6.5
    endloop
  endfacet
  facet normal 0 0 -1
    outer loop
      vertex 0 -25 -6.5
      vertex 3.75278 -6.5 -6.5
      vertex 17.6777 -17.6777 -6.5
    endloop
  endfacet
  facet normal 0 0 -1
    outer loop
      vertex 0 -25 -6.5
      vertex -3.75278 -6.5 -6.5
      vertex 3.75278 -6.5 -6.5
    endloop
  endfacet
  facet normal 0 0 -1
    outer loop
      vertex -17.6777 -17.6777 -6.5
      vertex -3.75278 -6.5 -6.5
      vertex 0 -25 -6.5
    endloop
  endfacet
  facet normal -0 0 -1
    outer loop
      vertex -3.75278 -6.5 -6.5
      vertex -17.6777 -17.6777 -6.5
      vertex -7.50555 0 -6.5
    endloop
  endfacet
  facet normal 0 0 -1
    outer loop
      vertex 3.75278 6.5 -6.5
      vertex 17.6777 17.6777 -6.5
      vertex 7.50555 0 -6.5
    endloop
  endfacet
  facet normal 0 0 -1
    outer loop
      vertex 3.75278 6.5 -6.5
      vertex 0 25 -6.5
      vertex 17.6777 17.6777 -6.5
    endloop
  endfacet
  facet normal 0 0 -1
    outer loop
      vertex -3.75278 6.5 -6.5
      vertex 0 25 -6.5
      vertex 3.75278 6.5 -6.5
    endloop
  endfacet
  facet normal 0 0 -1
    outer loop
      vertex -17.6777 17.6777 -6.5
      vertex -3.75278 6.5 -6.5
      vertex -7.50555 0 -6.5
    endloop
  endfacet
  facet normal 0 0 -1
    outer loop
      vertex -25 0 -6.5
      vertex -7.50555 0 -6.5
      vertex -17.6777 -17.6777 -6.5
    endloop
  endfacet
  facet normal 0 0 -1
    outer loop
      vertex -3.75278 6.5 -6.5
      vertex -17.6777 17.6777 -6.5
      vertex 0 25 -6.5
    endloop
  endfacet
  facet normal 0 0 -1
    outer loop
      vertex -7.50555 0 -6.5
      vertex -25 0 -6.5
      vertex -17.6777 17.6777 -6.5
    endloop
  endfacet
  facet normal -0.382683 0.92388 0
    outer loop
      vertex 0 25 -6.5
      vertex -17.6777 17.6777 0
      vertex 0 25 0
    endloop
  endfacet
  facet normal -0.382683 0.92388 0
    outer loop
      vertex -17.6777 17.6777 0
      vertex 0 25 -6.5
      vertex -17.6777 17.6777 -6.5
    endloop
  endfacet
  facet normal 0.382683 -0.92388 0
    outer loop
      vertex 0 -25 -6.5
      vertex 17.6777 -17.6777 0
      vertex 0 -25 0
    endloop
  endfacet
  facet normal 0.382683 -0.92388 0
    outer loop
      vertex 17.6777 -17.6777 0
      vertex 0 -25 -6.5
      vertex 17.6777 -17.6777 -6.5
    endloop
  endfacet
  facet normal -0.92388 -0.382683 0
    outer loop
      vertex -17.6777 -17.6777 -6.5
      vertex -25 0 0
      vertex -25 0 -6.5
    endloop
  endfacet
  facet normal -0.92388 -0.382683 0
    outer loop
      vertex -25 0 0
      vertex -17.6777 -17.6777 -6.5
      vertex -17.6777 -17.6777 0
    endloop
  endfacet
  facet normal -0.382683 -0.92388 0
    outer loop
      vertex -17.6777 -17.6777 -6.5
      vertex 0 -25 0
      vertex -17.6777 -17.6777 0
    endloop
  endfacet
  facet normal -0.382683 -0.92388 -0
    outer loop
      vertex 0 -25 0
      vertex -17.6777 -17.6777 -6.5
      vertex 0 -25 -6.5
    endloop
  endfacet
  facet normal -0 0 1
    outer loop
      vertex 3.69552 1.53073 0
      vertex 25 0 0
      vertex 17.6777 17.6777 0
    endloop
  endfacet
  facet normal 0 0 1
    outer loop
      vertex 3.92314 -0.780361 0
      vertex 25 0 0
      vertex 4 0 0
    endloop
  endfacet
  facet normal 0 0 1
    outer loop
      vertex 25 0 0
      vertex 3.92314 0.780361 0
      vertex 4 0 0
    endloop
  endfacet
  facet normal 0 0 1
    outer loop
      vertex 25 0 0
      vertex 3.69552 1.53073 0
      vertex 3.92314 0.780361 0
    endloop
  endfacet
  facet normal 0 0 1
    outer loop
      vertex 17.6777 17.6777 0
      vertex 3.32588 2.22228 0
      vertex 3.69552 1.53073 0
    endloop
  endfacet
  facet normal 0 0 1
    outer loop
      vertex 17.6777 17.6777 0
      vertex 2.82843 2.82843 0
      vertex 3.32588 2.22228 0
    endloop
  endfacet
  facet normal 0 0 1
    outer loop
      vertex 17.6777 17.6777 0
      vertex 2.22228 3.32588 0
      vertex 2.82843 2.82843 0
    endloop
  endfacet
  facet normal 0 0 1
    outer loop
      vertex 17.6777 17.6777 0
      vertex 1.53073 3.69552 0
      vertex 2.22228 3.32588 0
    endloop
  endfacet
  facet normal 0 0 1
    outer loop
      vertex 0 25 0
      vertex 1.53073 3.69552 0
      vertex 17.6777 17.6777 0
    endloop
  endfacet
  facet normal 0 0 1
    outer loop
      vertex 1.53073 3.69552 0
      vertex 0 25 0
      vertex 0.780361 3.92314 0
    endloop
  endfacet
  facet normal 0 0 1
    outer loop
      vertex 0 25 0
      vertex 0 4 0
      vertex 0.780361 3.92314 0
    endloop
  endfacet
  facet normal 0 0 1
    outer loop
      vertex 0 25 0
      vertex -0.780361 3.92314 0
      vertex 0 4 0
    endloop
  endfacet
  facet normal 0 0 1
    outer loop
      vertex 0 25 0
      vertex -1.53073 3.69552 0
      vertex -0.780361 3.92314 0
    endloop
  endfacet
  facet normal -0 0 1
    outer loop
      vertex -17.6777 17.6777 0
      vertex -1.53073 3.69552 0
      vertex 0 25 0
    endloop
  endfacet
  facet normal 0 0 1
    outer loop
      vertex -1.53073 3.69552 0
      vertex -17.6777 17.6777 0
      vertex -2.22228 3.32588 0
    endloop
  endfacet
  facet normal 0 0 1
    outer loop
      vertex -2.22228 3.32588 0
      vertex -17.6777 17.6777 0
      vertex -2.82843 2.82843 0
    endloop
  endfacet
  facet normal 0 0 1
    outer loop
      vertex -2.82843 2.82843 0
      vertex -17.6777 17.6777 0
      vertex -3.32588 2.22228 0
    endloop
  endfacet
  facet normal 0 0 1
    outer loop
      vertex -3.32588 2.22228 0
      vertex -17.6777 17.6777 0
      vertex -3.69552 1.53073 0
    endloop
  endfacet
  facet normal 0 0 1
    outer loop
      vertex -3.69552 1.53073 0
      vertex -25 0 0
      vertex -3.92314 0.780361 0
    endloop
  endfacet
  facet normal 0 0 1
    outer loop
      vertex -25 0 0
      vertex -3.69552 1.53073 0
      vertex -17.6777 17.6777 0
    endloop
  endfacet
  facet normal 0 0 1
    outer loop
      vertex 3.69552 -1.53073 0
      vertex 25 0 0
      vertex 3.92314 -0.780361 0
    endloop
  endfacet
  facet normal 0 0 1
    outer loop
      vertex 25 0 0
      vertex 3.69552 -1.53073 0
      vertex 17.6777 -17.6777 0
    endloop
  endfacet
  facet normal -0 0 1
    outer loop
      vertex 3.32588 -2.22228 0
      vertex 17.6777 -17.6777 0
      vertex 3.69552 -1.53073 0
    endloop
  endfacet
  facet normal -0 0 1
    outer loop
      vertex 2.82843 -2.82843 0
      vertex 17.6777 -17.6777 0
      vertex 3.32588 -2.22228 0
    endloop
  endfacet
  facet normal -0 0 1
    outer loop
      vertex 2.22228 -3.32588 0
      vertex 17.6777 -17.6777 0
      vertex 2.82843 -2.82843 0
    endloop
  endfacet
  facet normal -0 0 1
    outer loop
      vertex 1.53073 -3.69552 0
      vertex 17.6777 -17.6777 0
      vertex 2.22228 -3.32588 0
    endloop
  endfacet
  facet normal 0 0 1
    outer loop
      vertex 0 -25 0
      vertex 1.53073 -3.69552 0
      vertex 0.780361 -3.92314 0
    endloop
  endfacet
  facet normal 0 0 1
    outer loop
      vertex 0 -25 0
      vertex 0.780361 -3.92314 0
      vertex 0 -4 0
    endloop
  endfacet
  facet normal 0 0 1
    outer loop
      vertex 1.53073 -3.69552 0
      vertex 0 -25 0
      vertex 17.6777 -17.6777 0
    endloop
  endfacet
  facet normal 0 0 1
    outer loop
      vertex -0.780361 -3.92314 0
      vertex 0 -25 0
      vertex 0 -4 0
    endloop
  endfacet
  facet normal 0 0 1
    outer loop
      vertex -1.53073 -3.69552 0
      vertex 0 -25 0
      vertex -0.780361 -3.92314 0
    endloop
  endfacet
  facet normal 0 0 1
    outer loop
      vertex -17.6777 -17.6777 0
      vertex -1.53073 -3.69552 0
      vertex -2.22228 -3.32588 0
    endloop
  endfacet
  facet normal 0 0 1
    outer loop
      vertex -17.6777 -17.6777 0
      vertex -2.22228 -3.32588 0
      vertex -2.82843 -2.82843 0
    endloop
  endfacet
  facet normal 0 0 1
    outer loop
      vertex -17.6777 -17.6777 0
      vertex -2.82843 -2.82843 0
      vertex -3.32588 -2.22228 0
    endloop
  endfacet
  facet normal 0 0 1
    outer loop
      vertex -17.6777 -17.6777 0
      vertex -3.32588 -2.22228 0
      vertex -3.69552 -1.53073 0
    endloop
  endfacet
  facet normal 0 0 1
    outer loop
      vertex -25 0 0
      vertex -3.69552 -1.53073 0
      vertex -3.92314 -0.780361 0
    endloop
  endfacet
  facet normal 0 0 1
    outer loop
      vertex -3.92314 0.780361 0
      vertex -25 0 0
      vertex -4 0 0
    endloop
  endfacet
  facet normal 0 0 1
    outer loop
      vertex -4 0 0
      vertex -25 0 0
      vertex -3.92314 -0.780361 0
    endloop
  endfacet
  facet normal 0 0 1
    outer loop
      vertex -1.53073 -3.69552 0
      vertex -17.6777 -17.6777 0
      vertex 0 -25 0
    endloop
  endfacet
  facet normal 0 0 1
    outer loop
      vertex -3.69552 -1.53073 0
      vertex -25 0 0
      vertex -17.6777 -17.6777 0
    endloop
  endfacet
  facet normal 0.92388 -0.382683 0
    outer loop
      vertex 17.6777 -17.6777 0
      vertex 25 0 -6.5
      vertex 25 0 0
    endloop
  endfacet
  facet normal 0.92388 -0.382683 0
    outer loop
      vertex 25 0 -6.5
      vertex 17.6777 -17.6777 0
      vertex 17.6777 -17.6777 -6.5
    endloop
  endfacet
  facet normal -0.995185 -0.0980179 0
    outer loop
      vertex 4 0 -0.5
      vertex 3.92314 0.780361 0
      vertex 3.92314 0.780361 -0.5
    endloop
  endfacet
  facet normal -0.995185 -0.0980179 0
    outer loop
      vertex 3.92314 0.780361 0
      vertex 4 0 -0.5
      vertex 4 0 0
    endloop
  endfacet
  facet normal 0.995185 -0.0980179 0
    outer loop
      vertex -4 0 0
      vertex -3.92314 0.780361 -0.5
      vertex -3.92314 0.780361 0
    endloop
  endfacet
  facet normal 0.995185 -0.0980179 0
    outer loop
      vertex -3.92314 0.780361 -0.5
      vertex -4 0 0
      vertex -4 0 -0.5
    endloop
  endfacet
  facet normal -0.0980179 -0.995185 0
    outer loop
      vertex 0 4 -0.5
      vertex 0.780361 3.92314 0
      vertex 0 4 0
    endloop
  endfacet
  facet normal -0.0980179 -0.995185 -0
    outer loop
      vertex 0.780361 3.92314 0
      vertex 0 4 -0.5
      vertex 0.780361 3.92314 -0.5
    endloop
  endfacet
  facet normal 0.0980179 0.995185 -0
    outer loop
      vertex 0 -4 -0.5
      vertex -0.780361 -3.92314 0
      vertex 0 -4 0
    endloop
  endfacet
  facet normal 0.0980179 0.995185 0
    outer loop
      vertex -0.780361 -3.92314 0
      vertex 0 -4 -0.5
      vertex -0.780361 -3.92314 -0.5
    endloop
  endfacet
  facet normal 0.77301 0.634394 0
    outer loop
      vertex -2.82843 -2.82843 0
      vertex -3.32588 -2.22228 -0.5
      vertex -3.32588 -2.22228 0
    endloop
  endfacet
  facet normal 0.77301 0.634394 0
    outer loop
      vertex -3.32588 -2.22228 -0.5
      vertex -2.82843 -2.82843 0
      vertex -2.82843 -2.82843 -0.5
    endloop
  endfacet
  facet normal -0.634394 -0.77301 0
    outer loop
      vertex 2.22228 3.32588 -0.5
      vertex 2.82843 2.82843 0
      vertex 2.22228 3.32588 0
    endloop
  endfacet
  facet normal -0.634394 -0.77301 -0
    outer loop
      vertex 2.82843 2.82843 0
      vertex 2.22228 3.32588 -0.5
      vertex 2.82843 2.82843 -0.5
    endloop
  endfacet
  facet normal 0.634394 -0.77301 0
    outer loop
      vertex -2.82843 2.82843 -0.5
      vertex -2.22228 3.32588 0
      vertex -2.82843 2.82843 0
    endloop
  endfacet
  facet normal 0.634394 -0.77301 0
    outer loop
      vertex -2.22228 3.32588 0
      vertex -2.82843 2.82843 -0.5
      vertex -2.22228 3.32588 -0.5
    endloop
  endfacet
  facet normal 0.290285 -0.95694 0
    outer loop
      vertex -1.53073 3.69552 -0.5
      vertex -0.780361 3.92314 0
      vertex -1.53073 3.69552 0
    endloop
  endfacet
  facet normal 0.290285 -0.95694 0
    outer loop
      vertex -0.780361 3.92314 0
      vertex -1.53073 3.69552 -0.5
      vertex -0.780361 3.92314 -0.5
    endloop
  endfacet
  facet normal -0.77301 0.634394 0
    outer loop
      vertex 2.82843 -2.82843 -0.5
      vertex 3.32588 -2.22228 0
      vertex 3.32588 -2.22228 -0.5
    endloop
  endfacet
  facet normal -0.77301 0.634394 0
    outer loop
      vertex 3.32588 -2.22228 0
      vertex 2.82843 -2.82843 -0.5
      vertex 2.82843 -2.82843 0
    endloop
  endfacet
  facet normal -0.881921 -0.471396 0
    outer loop
      vertex 3.69552 1.53073 -0.5
      vertex 3.32588 2.22228 0
      vertex 3.32588 2.22228 -0.5
    endloop
  endfacet
  facet normal -0.881921 -0.471396 0
    outer loop
      vertex 3.32588 2.22228 0
      vertex 3.69552 1.53073 -0.5
      vertex 3.69552 1.53073 0
    endloop
  endfacet
  facet normal -0.95694 -0.290285 0
    outer loop
      vertex 3.92314 0.780361 -0.5
      vertex 3.69552 1.53073 0
      vertex 3.69552 1.53073 -0.5
    endloop
  endfacet
  facet normal -0.95694 -0.290285 0
    outer loop
      vertex 3.69552 1.53073 0
      vertex 3.92314 0.780361 -0.5
      vertex 3.92314 0.780361 0
    endloop
  endfacet
  facet normal -0.77301 -0.634394 0
    outer loop
      vertex 3.32588 2.22228 -0.5
      vertex 2.82843 2.82843 0
      vertex 2.82843 2.82843 -0.5
    endloop
  endfacet
  facet normal -0.77301 -0.634394 0
    outer loop
      vertex 2.82843 2.82843 0
      vertex 3.32588 2.22228 -0.5
      vertex 3.32588 2.22228 0
    endloop
  endfacet
  facet normal -0.290285 -0.95694 0
    outer loop
      vertex 0.780361 3.92314 -0.5
      vertex 1.53073 3.69552 0
      vertex 0.780361 3.92314 0
    endloop
  endfacet
  facet normal -0.290285 -0.95694 -0
    outer loop
      vertex 1.53073 3.69552 0
      vertex 0.780361 3.92314 -0.5
      vertex 1.53073 3.69552 -0.5
    endloop
  endfacet
  facet normal -0.471396 -0.881921 0
    outer loop
      vertex 1.53073 3.69552 -0.5
      vertex 2.22228 3.32588 0
      vertex 1.53073 3.69552 0
    endloop
  endfacet
  facet normal -0.471396 -0.881921 -0
    outer loop
      vertex 2.22228 3.32588 0
      vertex 1.53073 3.69552 -0.5
      vertex 2.22228 3.32588 -0.5
    endloop
  endfacet
  facet normal 0.881921 -0.471396 0
    outer loop
      vertex -3.69552 1.53073 0
      vertex -3.32588 2.22228 -0.5
      vertex -3.32588 2.22228 0
    endloop
  endfacet
  facet normal 0.881921 -0.471396 0
    outer loop
      vertex -3.32588 2.22228 -0.5
      vertex -3.69552 1.53073 0
      vertex -3.69552 1.53073 -0.5
    endloop
  endfacet
  facet normal 0.77301 -0.634394 0
    outer loop
      vertex -3.32588 2.22228 0
      vertex -2.82843 2.82843 -0.5
      vertex -2.82843 2.82843 0
    endloop
  endfacet
  facet normal 0.77301 -0.634394 0
    outer loop
      vertex -2.82843 2.82843 -0.5
      vertex -3.32588 2.22228 0
      vertex -3.32588 2.22228 -0.5
    endloop
  endfacet
  facet normal 0.95694 -0.290285 0
    outer loop
      vertex -3.92314 0.780361 0
      vertex -3.69552 1.53073 -0.5
      vertex -3.69552 1.53073 0
    endloop
  endfacet
  facet normal 0.95694 -0.290285 0
    outer loop
      vertex -3.69552 1.53073 -0.5
      vertex -3.92314 0.780361 0
      vertex -3.92314 0.780361 -0.5
    endloop
  endfacet
  facet normal 0.471396 -0.881921 0
    outer loop
      vertex -2.22228 3.32588 -0.5
      vertex -1.53073 3.69552 0
      vertex -2.22228 3.32588 0
    endloop
  endfacet
  facet normal 0.471396 -0.881921 0
    outer loop
      vertex -1.53073 3.69552 0
      vertex -2.22228 3.32588 -0.5
      vertex -1.53073 3.69552 -0.5
    endloop
  endfacet
  facet normal 0.0980179 -0.995185 0
    outer loop
      vertex -0.780361 3.92314 -0.5
      vertex 0 4 0
      vertex -0.780361 3.92314 0
    endloop
  endfacet
  facet normal 0.0980179 -0.995185 0
    outer loop
      vertex 0 4 0
      vertex -0.780361 3.92314 -0.5
      vertex 0 4 -0.5
    endloop
  endfacet
  facet normal -0.995185 0.0980179 0
    outer loop
      vertex 3.92314 -0.780361 -0.5
      vertex 4 0 0
      vertex 4 0 -0.5
    endloop
  endfacet
  facet normal -0.995185 0.0980179 0
    outer loop
      vertex 4 0 0
      vertex 3.92314 -0.780361 -0.5
      vertex 3.92314 -0.780361 0
    endloop
  endfacet
  facet normal -0.471396 0.881921 0
    outer loop
      vertex 2.22228 -3.32588 -0.5
      vertex 1.53073 -3.69552 0
      vertex 2.22228 -3.32588 0
    endloop
  endfacet
  facet normal -0.471396 0.881921 0
    outer loop
      vertex 1.53073 -3.69552 0
      vertex 2.22228 -3.32588 -0.5
      vertex 1.53073 -3.69552 -0.5
    endloop
  endfacet
  facet normal -0.0980179 0.995185 0
    outer loop
      vertex 0.780361 -3.92314 -0.5
      vertex 0 -4 0
      vertex 0.780361 -3.92314 0
    endloop
  endfacet
  facet normal -0.0980179 0.995185 0
    outer loop
      vertex 0 -4 0
      vertex 0.780361 -3.92314 -0.5
      vertex 0 -4 -0.5
    endloop
  endfacet
  facet normal -0.634394 0.77301 0
    outer loop
      vertex 2.82843 -2.82843 -0.5
      vertex 2.22228 -3.32588 0
      vertex 2.82843 -2.82843 0
    endloop
  endfacet
  facet normal -0.634394 0.77301 0
    outer loop
      vertex 2.22228 -3.32588 0
      vertex 2.82843 -2.82843 -0.5
      vertex 2.22228 -3.32588 -0.5
    endloop
  endfacet
  facet normal 0.634394 0.77301 -0
    outer loop
      vertex -2.22228 -3.32588 -0.5
      vertex -2.82843 -2.82843 0
      vertex -2.22228 -3.32588 0
    endloop
  endfacet
  facet normal 0.634394 0.77301 0
    outer loop
      vertex -2.82843 -2.82843 0
      vertex -2.22228 -3.32588 -0.5
      vertex -2.82843 -2.82843 -0.5
    endloop
  endfacet
  facet normal 0.290285 0.95694 -0
    outer loop
      vertex -0.780361 -3.92314 -0.5
      vertex -1.53073 -3.69552 0
      vertex -0.780361 -3.92314 0
    endloop
  endfacet
  facet normal 0.290285 0.95694 0
    outer loop
      vertex -1.53073 -3.69552 0
      vertex -0.780361 -3.92314 -0.5
      vertex -1.53073 -3.69552 -0.5
    endloop
  endfacet
  facet normal 0.881921 0.471396 0
    outer loop
      vertex -3.32588 -2.22228 0
      vertex -3.69552 -1.53073 -0.5
      vertex -3.69552 -1.53073 0
    endloop
  endfacet
  facet normal 0.881921 0.471396 0
    outer loop
      vertex -3.69552 -1.53073 -0.5
      vertex -3.32588 -2.22228 0
      vertex -3.32588 -2.22228 -0.5
    endloop
  endfacet
  facet normal 0.995185 0.0980179 0
    outer loop
      vertex -3.92314 -0.780361 0
      vertex -4 0 -0.5
      vertex -4 0 0
    endloop
  endfacet
  facet normal 0.995185 0.0980179 0
    outer loop
      vertex -4 0 -0.5
      vertex -3.92314 -0.780361 0
      vertex -3.92314 -0.780361 -0.5
    endloop
  endfacet
  facet normal -0.290285 0.95694 0
    outer loop
      vertex 1.53073 -3.69552 -0.5
      vertex 0.780361 -3.92314 0
      vertex 1.53073 -3.69552 0
    endloop
  endfacet
  facet normal -0.290285 0.95694 0
    outer loop
      vertex 0.780361 -3.92314 0
      vertex 1.53073 -3.69552 -0.5
      vertex 0.780361 -3.92314 -0.5
    endloop
  endfacet
  facet normal -0.95694 0.290285 0
    outer loop
      vertex 3.69552 -1.53073 -0.5
      vertex 3.92314 -0.780361 0
      vertex 3.92314 -0.780361 -0.5
    endloop
  endfacet
  facet normal -0.95694 0.290285 0
    outer loop
      vertex 3.92314 -0.780361 0
      vertex 3.69552 -1.53073 -0.5
      vertex 3.69552 -1.53073 0
    endloop
  endfacet
  facet normal -0.881921 0.471396 0
    outer loop
      vertex 3.32588 -2.22228 -0.5
      vertex 3.69552 -1.53073 0
      vertex 3.69552 -1.53073 -0.5
    endloop
  endfacet
  facet normal -0.881921 0.471396 0
    outer loop
      vertex 3.69552 -1.53073 0
      vertex 3.32588 -2.22228 -0.5
      vertex 3.32588 -2.22228 0
    endloop
  endfacet
  facet normal 0.471396 0.881921 -0
    outer loop
      vertex -1.53073 -3.69552 -0.5
      vertex -2.22228 -3.32588 0
      vertex -1.53073 -3.69552 0
    endloop
  endfacet
  facet normal 0.471396 0.881921 0
    outer loop
      vertex -2.22228 -3.32588 0
      vertex -1.53073 -3.69552 -0.5
      vertex -2.22228 -3.32588 -0.5
    endloop
  endfacet
  facet normal 0.95694 0.290285 0
    outer loop
      vertex -3.69552 -1.53073 0
      vertex -3.92314 -0.780361 -0.5
      vertex -3.92314 -0.780361 0
    endloop
  endfacet
  facet normal 0.95694 0.290285 0
    outer loop
      vertex -3.92314 -0.780361 -0.5
      vertex -3.69552 -1.53073 0
      vertex -3.69552 -1.53073 -0.5
    endloop
  endfacet
  facet normal -0.866025 -0.5 0
    outer loop
      vertex 7.50555 0 -6.5
      vertex 3.75278 6.5 -0.5
      vertex 3.75278 6.5 -6.5
    endloop
  endfacet
  facet normal -0.866025 -0.5 0
    outer loop
      vertex 3.75278 6.5 -0.5
      vertex 7.50555 0 -6.5
      vertex 7.50555 0 -0.5
    endloop
  endfacet
  facet normal 0.866025 -0.5 0
    outer loop
      vertex -7.50555 0 -0.5
      vertex -3.75278 6.5 -6.5
      vertex -3.75278 6.5 -0.5
    endloop
  endfacet
  facet normal 0.866025 -0.5 0
    outer loop
      vertex -3.75278 6.5 -6.5
      vertex -7.50555 0 -0.5
      vertex -7.50555 0 -6.5
    endloop
  endfacet
  facet normal 0 -1 0
    outer loop
      vertex -3.75278 6.5 -6.5
      vertex 3.75278 6.5 -0.5
      vertex -3.75278 6.5 -0.5
    endloop
  endfacet
  facet normal 0 -1 -0
    outer loop
      vertex 3.75278 6.5 -0.5
      vertex -3.75278 6.5 -6.5
      vertex 3.75278 6.5 -6.5
    endloop
  endfacet
  facet normal -0 0 -1
    outer loop
      vertex 7.50555 0 -0.5
      vertex 3.92314 -0.780361 -0.5
      vertex 4 0 -0.5
    endloop
  endfacet
  facet normal 0 0 -1
    outer loop
      vertex 3.32588 -2.22228 -0.5
      vertex 7.50555 0 -0.5
      vertex 3.75278 -6.5 -0.5
    endloop
  endfacet
  facet normal 0 0 -1
    outer loop
      vertex 7.50555 0 -0.5
      vertex 3.69552 -1.53073 -0.5
      vertex 3.92314 -0.780361 -0.5
    endloop
  endfacet
  facet normal 0 0 -1
    outer loop
      vertex 7.50555 0 -0.5
      vertex 3.32588 -2.22228 -0.5
      vertex 3.69552 -1.53073 -0.5
    endloop
  endfacet
  facet normal 0 0 -1
    outer loop
      vertex 3.75278 -6.5 -0.5
      vertex 2.82843 -2.82843 -0.5
      vertex 3.32588 -2.22228 -0.5
    endloop
  endfacet
  facet normal 0 0 -1
    outer loop
      vertex 3.75278 -6.5 -0.5
      vertex 2.22228 -3.32588 -0.5
      vertex 2.82843 -2.82843 -0.5
    endloop
  endfacet
  facet normal 0 0 -1
    outer loop
      vertex 3.75278 -6.5 -0.5
      vertex 1.53073 -3.69552 -0.5
      vertex 2.22228 -3.32588 -0.5
    endloop
  endfacet
  facet normal 0 0 -1
    outer loop
      vertex 3.75278 -6.5 -0.5
      vertex 0.780361 -3.92314 -0.5
      vertex 1.53073 -3.69552 -0.5
    endloop
  endfacet
  facet normal 0 0 -1
    outer loop
      vertex 3.75278 -6.5 -0.5
      vertex 0 -4 -0.5
      vertex 0.780361 -3.92314 -0.5
    endloop
  endfacet
  facet normal 0 0 -1
    outer loop
      vertex -3.75278 -6.5 -0.5
      vertex 0 -4 -0.5
      vertex 3.75278 -6.5 -0.5
    endloop
  endfacet
  facet normal -0 0 -1
    outer loop
      vertex 0 -4 -0.5
      vertex -3.75278 -6.5 -0.5
      vertex -0.780361 -3.92314 -0.5
    endloop
  endfacet
  facet normal -0 0 -1
    outer loop
      vertex -0.780361 -3.92314 -0.5
      vertex -3.75278 -6.5 -0.5
      vertex -1.53073 -3.69552 -0.5
    endloop
  endfacet
  facet normal 0 0 -1
    outer loop
      vertex -3.75278 -6.5 -0.5
      vertex -2.22228 -3.32588 -0.5
      vertex -1.53073 -3.69552 -0.5
    endloop
  endfacet
  facet normal 0 0 -1
    outer loop
      vertex -3.75278 -6.5 -0.5
      vertex -2.82843 -2.82843 -0.5
      vertex -2.22228 -3.32588 -0.5
    endloop
  endfacet
  facet normal 0 0 -1
    outer loop
      vertex -3.75278 -6.5 -0.5
      vertex -3.32588 -2.22228 -0.5
      vertex -2.82843 -2.82843 -0.5
    endloop
  endfacet
  facet normal 0 0 -1
    outer loop
      vertex -7.50555 0 -0.5
      vertex -3.32588 -2.22228 -0.5
      vertex -3.75278 -6.5 -0.5
    endloop
  endfacet
  facet normal 0 0 -1
    outer loop
      vertex -3.32588 -2.22228 -0.5
      vertex -7.50555 0 -0.5
      vertex -3.69552 -1.53073 -0.5
    endloop
  endfacet
  facet normal 0 0 -1
    outer loop
      vertex -3.69552 -1.53073 -0.5
      vertex -7.50555 0 -0.5
      vertex -3.92314 -0.780361 -0.5
    endloop
  endfacet
  facet normal 0 0 -1
    outer loop
      vertex -3.92314 -0.780361 -0.5
      vertex -7.50555 0 -0.5
      vertex -4 0 -0.5
    endloop
  endfacet
  facet normal 0 0 -1
    outer loop
      vertex 3.92314 0.780361 -0.5
      vertex 7.50555 0 -0.5
      vertex 4 0 -0.5
    endloop
  endfacet
  facet normal 0 0 -1
    outer loop
      vertex 3.69552 1.53073 -0.5
      vertex 7.50555 0 -0.5
      vertex 3.92314 0.780361 -0.5
    endloop
  endfacet
  facet normal 0 0 -1
    outer loop
      vertex 3.32588 2.22228 -0.5
      vertex 7.50555 0 -0.5
      vertex 3.69552 1.53073 -0.5
    endloop
  endfacet
  facet normal 0 0 -1
    outer loop
      vertex 7.50555 0 -0.5
      vertex 3.32588 2.22228 -0.5
      vertex 3.75278 6.5 -0.5
    endloop
  endfacet
  facet normal 0 0 -1
    outer loop
      vertex 2.82843 2.82843 -0.5
      vertex 3.75278 6.5 -0.5
      vertex 3.32588 2.22228 -0.5
    endloop
  endfacet
  facet normal 0 0 -1
    outer loop
      vertex 2.22228 3.32588 -0.5
      vertex 3.75278 6.5 -0.5
      vertex 2.82843 2.82843 -0.5
    endloop
  endfacet
  facet normal 0 0 -1
    outer loop
      vertex 1.53073 3.69552 -0.5
      vertex 3.75278 6.5 -0.5
      vertex 2.22228 3.32588 -0.5
    endloop
  endfacet
  facet normal 0 0 -1
    outer loop
      vertex 0.780361 3.92314 -0.5
      vertex 3.75278 6.5 -0.5
      vertex 1.53073 3.69552 -0.5
    endloop
  endfacet
  facet normal 0 0 -1
    outer loop
      vertex 0 4 -0.5
      vertex 3.75278 6.5 -0.5
      vertex 0.780361 3.92314 -0.5
    endloop
  endfacet
  facet normal 0 0 -1
    outer loop
      vertex -3.75278 6.5 -0.5
      vertex 0 4 -0.5
      vertex -0.780361 3.92314 -0.5
    endloop
  endfacet
  facet normal 0 0 -1
    outer loop
      vertex -3.75278 6.5 -0.5
      vertex -0.780361 3.92314 -0.5
      vertex -1.53073 3.69552 -0.5
    endloop
  endfacet
  facet normal 0 0 -1
    outer loop
      vertex 0 4 -0.5
      vertex -3.75278 6.5 -0.5
      vertex 3.75278 6.5 -0.5
    endloop
  endfacet
  facet normal 0 0 -1
    outer loop
      vertex -2.22228 3.32588 -0.5
      vertex -3.75278 6.5 -0.5
      vertex -1.53073 3.69552 -0.5
    endloop
  endfacet
  facet normal 0 0 -1
    outer loop
      vertex -2.82843 2.82843 -0.5
      vertex -3.75278 6.5 -0.5
      vertex -2.22228 3.32588 -0.5
    endloop
  endfacet
  facet normal 0 0 -1
    outer loop
      vertex -3.32588 2.22228 -0.5
      vertex -3.75278 6.5 -0.5
      vertex -2.82843 2.82843 -0.5
    endloop
  endfacet
  facet normal 0 0 -1
    outer loop
      vertex -7.50555 0 -0.5
      vertex -3.32588 2.22228 -0.5
      vertex -3.69552 1.53073 -0.5
    endloop
  endfacet
  facet normal 0 0 -1
    outer loop
      vertex -7.50555 0 -0.5
      vertex -3.69552 1.53073 -0.5
      vertex -3.92314 0.780361 -0.5
    endloop
  endfacet
  facet normal 0 0 -1
    outer loop
      vertex -7.50555 0 -0.5
      vertex -3.92314 0.780361 -0.5
      vertex -4 0 -0.5
    endloop
  endfacet
  facet normal -0 0 -1
    outer loop
      vertex -3.32588 2.22228 -0.5
      vertex -7.50555 0 -0.5
      vertex -3.75278 6.5 -0.5
    endloop
  endfacet
  facet normal -0.866025 0.5 0
    outer loop
      vertex 3.75278 -6.5 -6.5
      vertex 7.50555 0 -0.5
      vertex 7.50555 0 -6.5
    endloop
  endfacet
  facet normal -0.866025 0.5 0
    outer loop
      vertex 7.50555 0 -0.5
      vertex 3.75278 -6.5 -6.5
      vertex 3.75278 -6.5 -0.5
    endloop
  endfacet
  facet normal 0.866025 0.5 0
    outer loop
      vertex -3.75278 -6.5 -0.5
      vertex -7.50555 0 -6.5
      vertex -7.50555 0 -0.5
    endloop
  endfacet
  facet normal 0.866025 0.5 0
    outer loop
      vertex -7.50555 0 -6.5
      vertex -3.75278 -6.5 -0.5
      vertex -3.75278 -6.5 -6.5
    endloop
  endfacet
  facet normal 1.27063e-07 1 -0
    outer loop
      vertex 3.75278 -6.5 -6.5
      vertex -3.75278 -6.5 -0.5
      vertex 3.75278 -6.5 -0.5
    endloop
  endfacet
  facet normal 1.27063e-07 1 0
    outer loop
      vertex -3.75278 -6.5 -0.5
      vertex 3.75278 -6.5 -6.5
      vertex -3.75278 -6.5 -6.5
    endloop
  endfacet
endsolid OpenSCAD_Model
