solid OpenSCAD_Model
  facet normal -0.995185 0.0980177 0
    outer loop
      vertex -5 0 8.5
      vertex -4.90393 0.975451 13.5
      vertex -4.90393 0.975451 8.5
    endloop
  endfacet
  facet normal -0.995185 0.0980177 0
    outer loop
      vertex -4.90393 0.975451 13.5
      vertex -5 0 8.5
      vertex -5 0 13.5
    endloop
  endfacet
  facet normal -0.0980177 -0.995185 0
    outer loop
      vertex -0.975451 -4.90393 8.5
      vertex 0 -5 13.5
      vertex -0.975451 -4.90393 13.5
    endloop
  endfacet
  facet normal -0.0980177 -0.995185 -0
    outer loop
      vertex 0 -5 13.5
      vertex -0.975451 -4.90393 8.5
      vertex 0 -5 8.5
    endloop
  endfacet
  facet normal -0.773011 -0.634393 0
    outer loop
      vertex -3.53553 -3.53553 8.5
      vertex -4.15735 -2.77785 13.5
      vertex -4.15735 -2.77785 8.5
    endloop
  endfacet
  facet normal -0.773011 -0.634393 0
    outer loop
      vertex -4.15735 -2.77785 13.5
      vertex -3.53553 -3.53553 8.5
      vertex -3.53553 -3.53553 13.5
    endloop
  endfacet
  facet normal -0.634393 0.773011 0
    outer loop
      vertex -2.77785 4.15735 8.5
      vertex -3.53553 3.53553 13.5
      vertex -2.77785 4.15735 13.5
    endloop
  endfacet
  facet normal -0.634393 0.773011 0
    outer loop
      vertex -3.53553 3.53553 13.5
      vertex -2.77785 4.15735 8.5
      vertex -3.53553 3.53553 8.5
    endloop
  endfacet
  facet normal -0.290285 0.95694 0
    outer loop
      vertex -0.975451 4.90393 8.5
      vertex -1.91342 4.6194 13.5
      vertex -0.975451 4.90393 13.5
    endloop
  endfacet
  facet normal -0.290285 0.95694 0
    outer loop
      vertex -1.91342 4.6194 13.5
      vertex -0.975451 4.90393 8.5
      vertex -1.91342 4.6194 8.5
    endloop
  endfacet
  facet normal 0 0 -1
    outer loop
      vertex 7.5 -5 8.5
      vertex 1.675 0 8.5
      vertex 7.5 5 8.5
    endloop
  endfacet
  facet normal 0 0 -1
    outer loop
      vertex 7.5 -5 8.5
      vertex 1.64281 -0.326776 8.5
      vertex 1.675 0 8.5
    endloop
  endfacet
  facet normal 0 0 -1
    outer loop
      vertex 7.5 -5 8.5
      vertex 1.5475 -0.640994 8.5
      vertex 1.64281 -0.326776 8.5
    endloop
  endfacet
  facet normal 0 0 -1
    outer loop
      vertex 7.5 -5 8.5
      vertex 1.39271 -0.93058 8.5
      vertex 1.5475 -0.640994 8.5
    endloop
  endfacet
  facet normal 0 0 -1
    outer loop
      vertex 7.5 -5 8.5
      vertex 1.1844 -1.1844 8.5
      vertex 1.39271 -0.93058 8.5
    endloop
  endfacet
  facet normal 0 0 -1
    outer loop
      vertex 0 -5 8.5
      vertex 1.1844 -1.1844 8.5
      vertex 7.5 -5 8.5
    endloop
  endfacet
  facet normal 0 0 -1
    outer loop
      vertex 1.1844 -1.1844 8.5
      vertex 0 -5 8.5
      vertex 0.93058 -1.39271 8.5
    endloop
  endfacet
  facet normal 0 0 -1
    outer loop
      vertex 0.93058 -1.39271 8.5
      vertex 0 -5 8.5
      vertex 0.640994 -1.5475 8.5
    endloop
  endfacet
  facet normal 0 0 -1
    outer loop
      vertex 0.640994 -1.5475 8.5
      vertex 0 -5 8.5
      vertex 0.326776 -1.64281 8.5
    endloop
  endfacet
  facet normal 0 0 -1
    outer loop
      vertex 0 -5 8.5
      vertex 0 -1.675 8.5
      vertex 0.326776 -1.64281 8.5
    endloop
  endfacet
  facet normal 0 0 -1
    outer loop
      vertex 0 -5 8.5
      vertex -0.326776 -1.64281 8.5
      vertex 0 -1.675 8.5
    endloop
  endfacet
  facet normal 0 0 -1
    outer loop
      vertex -0.975451 -4.90393 8.5
      vertex -0.326776 -1.64281 8.5
      vertex 0 -5 8.5
    endloop
  endfacet
  facet normal -0 0 -1
    outer loop
      vertex -0.326776 -1.64281 8.5
      vertex -0.975451 -4.90393 8.5
      vertex -0.640994 -1.5475 8.5
    endloop
  endfacet
  facet normal 0 0 -1
    outer loop
      vertex -1.91342 -4.6194 8.5
      vertex -0.640994 -1.5475 8.5
      vertex -0.975451 -4.90393 8.5
    endloop
  endfacet
  facet normal -0 0 -1
    outer loop
      vertex -0.640994 -1.5475 8.5
      vertex -1.91342 -4.6194 8.5
      vertex -0.93058 -1.39271 8.5
    endloop
  endfacet
  facet normal 0 0 -1
    outer loop
      vertex -2.77785 -4.15735 8.5
      vertex -0.93058 -1.39271 8.5
      vertex -1.91342 -4.6194 8.5
    endloop
  endfacet
  facet normal -0 0 -1
    outer loop
      vertex -0.93058 -1.39271 8.5
      vertex -2.77785 -4.15735 8.5
      vertex -1.1844 -1.1844 8.5
    endloop
  endfacet
  facet normal 0 0 -1
    outer loop
      vertex -3.53553 -3.53553 8.5
      vertex -1.1844 -1.1844 8.5
      vertex -2.77785 -4.15735 8.5
    endloop
  endfacet
  facet normal 0 0 -1
    outer loop
      vertex -4.15735 -2.77785 8.5
      vertex -1.39271 -0.93058 8.5
      vertex -3.53553 -3.53553 8.5
    endloop
  endfacet
  facet normal -0 0 -1
    outer loop
      vertex -1.1844 -1.1844 8.5
      vertex -3.53553 -3.53553 8.5
      vertex -1.39271 -0.93058 8.5
    endloop
  endfacet
  facet normal 0 0 -1
    outer loop
      vertex 1.64281 0.326776 8.5
      vertex 7.5 5 8.5
      vertex 1.675 0 8.5
    endloop
  endfacet
  facet normal 0 0 -1
    outer loop
      vertex 1.5475 0.640994 8.5
      vertex 7.5 5 8.5
      vertex 1.64281 0.326776 8.5
    endloop
  endfacet
  facet normal 0 0 -1
    outer loop
      vertex 1.39271 0.93058 8.5
      vertex 7.5 5 8.5
      vertex 1.5475 0.640994 8.5
    endloop
  endfacet
  facet normal 0 0 -1
    outer loop
      vertex 1.1844 1.1844 8.5
      vertex 7.5 5 8.5
      vertex 1.39271 0.93058 8.5
    endloop
  endfacet
  facet normal 0 0 -1
    outer loop
      vertex 0 5 8.5
      vertex 1.1844 1.1844 8.5
      vertex 0.93058 1.39271 8.5
    endloop
  endfacet
  facet normal 0 0 -1
    outer loop
      vertex 0 5 8.5
      vertex 0.93058 1.39271 8.5
      vertex 0.640994 1.5475 8.5
    endloop
  endfacet
  facet normal 0 0 -1
    outer loop
      vertex 0 5 8.5
      vertex 0.640994 1.5475 8.5
      vertex 0.326776 1.64281 8.5
    endloop
  endfacet
  facet normal 0 0 -1
    outer loop
      vertex 0 5 8.5
      vertex 0.326776 1.64281 8.5
      vertex 0 1.675 8.5
    endloop
  endfacet
  facet normal 0 0 -1
    outer loop
      vertex 1.1844 1.1844 8.5
      vertex 0 5 8.5
      vertex 7.5 5 8.5
    endloop
  endfacet
  facet normal 0 0 -1
    outer loop
      vertex -0.326776 1.64281 8.5
      vertex 0 5 8.5
      vertex 0 1.675 8.5
    endloop
  endfacet
  facet normal 0 0 -1
    outer loop
      vertex -0.975451 4.90393 8.5
      vertex -0.326776 1.64281 8.5
      vertex -0.640994 1.5475 8.5
    endloop
  endfacet
  facet normal 0 0 -1
    outer loop
      vertex -1.91342 4.6194 8.5
      vertex -0.640994 1.5475 8.5
      vertex -0.93058 1.39271 8.5
    endloop
  endfacet
  facet normal 0 0 -1
    outer loop
      vertex -0.326776 1.64281 8.5
      vertex -0.975451 4.90393 8.5
      vertex 0 5 8.5
    endloop
  endfacet
  facet normal 0 0 -1
    outer loop
      vertex -2.77785 4.15735 8.5
      vertex -0.93058 1.39271 8.5
      vertex -1.1844 1.1844 8.5
    endloop
  endfacet
  facet normal 0 0 -1
    outer loop
      vertex -3.53553 3.53553 8.5
      vertex -1.1844 1.1844 8.5
      vertex -1.39271 0.93058 8.5
    endloop
  endfacet
  facet normal 0 0 -1
    outer loop
      vertex -4.15735 2.77785 8.5
      vertex -1.39271 0.93058 8.5
      vertex -1.5475 0.640994 8.5
    endloop
  endfacet
  facet normal 0 0 -1
    outer loop
      vertex -4.6194 1.91342 8.5
      vertex -1.5475 0.640994 8.5
      vertex -1.64281 0.326776 8.5
    endloop
  endfacet
  facet normal 0 0 -1
    outer loop
      vertex -0.640994 1.5475 8.5
      vertex -1.91342 4.6194 8.5
      vertex -0.975451 4.90393 8.5
    endloop
  endfacet
  facet normal 0 0 -1
    outer loop
      vertex -4.90393 0.975451 8.5
      vertex -1.64281 0.326776 8.5
      vertex -1.675 0 8.5
    endloop
  endfacet
  facet normal -0 0 -1
    outer loop
      vertex -1.39271 -0.93058 8.5
      vertex -4.15735 -2.77785 8.5
      vertex -1.5475 -0.640994 8.5
    endloop
  endfacet
  facet normal 0 0 -1
    outer loop
      vertex -4.6194 -1.91342 8.5
      vertex -1.5475 -0.640994 8.5
      vertex -4.15735 -2.77785 8.5
    endloop
  endfacet
  facet normal 0 0 -1
    outer loop
      vertex -0.93058 1.39271 8.5
      vertex -2.77785 4.15735 8.5
      vertex -1.91342 4.6194 8.5
    endloop
  endfacet
  facet normal -0 0 -1
    outer loop
      vertex -1.5475 -0.640994 8.5
      vertex -4.6194 -1.91342 8.5
      vertex -1.64281 -0.326776 8.5
    endloop
  endfacet
  facet normal 0 0 -1
    outer loop
      vertex -1.1844 1.1844 8.5
      vertex -3.53553 3.53553 8.5
      vertex -2.77785 4.15735 8.5
    endloop
  endfacet
  facet normal 0 0 -1
    outer loop
      vertex -4.90393 -0.975451 8.5
      vertex -1.64281 -0.326776 8.5
      vertex -4.6194 -1.91342 8.5
    endloop
  endfacet
  facet normal 0 0 -1
    outer loop
      vertex -1.39271 0.93058 8.5
      vertex -4.15735 2.77785 8.5
      vertex -3.53553 3.53553 8.5
    endloop
  endfacet
  facet normal -0 0 -1
    outer loop
      vertex -1.64281 -0.326776 8.5
      vertex -4.90393 -0.975451 8.5
      vertex -1.675 0 8.5
    endloop
  endfacet
  facet normal 0 0 -1
    outer loop
      vertex -1.5475 0.640994 8.5
      vertex -4.6194 1.91342 8.5
      vertex -4.15735 2.77785 8.5
    endloop
  endfacet
  facet normal 0 0 -1
    outer loop
      vertex -5 0 8.5
      vertex -1.675 0 8.5
      vertex -4.90393 -0.975451 8.5
    endloop
  endfacet
  facet normal 0 0 -1
    outer loop
      vertex -1.64281 0.326776 8.5
      vertex -4.90393 0.975451 8.5
      vertex -4.6194 1.91342 8.5
    endloop
  endfacet
  facet normal 0 0 -1
    outer loop
      vertex -1.675 0 8.5
      vertex -5 0 8.5
      vertex -4.90393 0.975451 8.5
    endloop
  endfacet
  facet normal -0.881921 0.471397 0
    outer loop
      vertex -4.6194 1.91342 8.5
      vertex -4.15735 2.77785 13.5
      vertex -4.15735 2.77785 8.5
    endloop
  endfacet
  facet normal -0.881921 0.471397 0
    outer loop
      vertex -4.15735 2.77785 13.5
      vertex -4.6194 1.91342 8.5
      vertex -4.6194 1.91342 13.5
    endloop
  endfacet
  facet normal -0.773011 0.634393 0
    outer loop
      vertex -4.15735 2.77785 8.5
      vertex -3.53553 3.53553 13.5
      vertex -3.53553 3.53553 8.5
    endloop
  endfacet
  facet normal -0.773011 0.634393 0
    outer loop
      vertex -3.53553 3.53553 13.5
      vertex -4.15735 2.77785 8.5
      vertex -4.15735 2.77785 13.5
    endloop
  endfacet
  facet normal -0.95694 0.290285 0
    outer loop
      vertex -4.90393 0.975451 8.5
      vertex -4.6194 1.91342 13.5
      vertex -4.6194 1.91342 8.5
    endloop
  endfacet
  facet normal -0.95694 0.290285 0
    outer loop
      vertex -4.6194 1.91342 13.5
      vertex -4.90393 0.975451 8.5
      vertex -4.90393 0.975451 13.5
    endloop
  endfacet
  facet normal -0 0 1
    outer loop
      vertex 0 5 13.5
      vertex 10 -5 13.5
      vertex 10 5 13.5
    endloop
  endfacet
  facet normal 0 0 1
    outer loop
      vertex 0 5 13.5
      vertex 0 -5 13.5
      vertex 10 -5 13.5
    endloop
  endfacet
  facet normal -0 0 1
    outer loop
      vertex -0.975451 4.90393 13.5
      vertex 0 -5 13.5
      vertex 0 5 13.5
    endloop
  endfacet
  facet normal 0 0 1
    outer loop
      vertex -0.975451 4.90393 13.5
      vertex -0.975451 -4.90393 13.5
      vertex 0 -5 13.5
    endloop
  endfacet
  facet normal -0 0 1
    outer loop
      vertex -1.91342 4.6194 13.5
      vertex -0.975451 -4.90393 13.5
      vertex -0.975451 4.90393 13.5
    endloop
  endfacet
  facet normal 0 0 1
    outer loop
      vertex -1.91342 4.6194 13.5
      vertex -1.91342 -4.6194 13.5
      vertex -0.975451 -4.90393 13.5
    endloop
  endfacet
  facet normal -0 0 1
    outer loop
      vertex -2.77785 4.15735 13.5
      vertex -1.91342 -4.6194 13.5
      vertex -1.91342 4.6194 13.5
    endloop
  endfacet
  facet normal 0 0 1
    outer loop
      vertex -2.77785 4.15735 13.5
      vertex -2.77785 -4.15735 13.5
      vertex -1.91342 -4.6194 13.5
    endloop
  endfacet
  facet normal -0 0 1
    outer loop
      vertex -3.53553 3.53553 13.5
      vertex -2.77785 -4.15735 13.5
      vertex -2.77785 4.15735 13.5
    endloop
  endfacet
  facet normal 0 0 1
    outer loop
      vertex -3.53553 3.53553 13.5
      vertex -3.53553 -3.53553 13.5
      vertex -2.77785 -4.15735 13.5
    endloop
  endfacet
  facet normal -0 0 1
    outer loop
      vertex -4.15735 2.77785 13.5
      vertex -3.53553 -3.53553 13.5
      vertex -3.53553 3.53553 13.5
    endloop
  endfacet
  facet normal 0 0 1
    outer loop
      vertex -4.15735 2.77785 13.5
      vertex -4.15735 -2.77785 13.5
      vertex -3.53553 -3.53553 13.5
    endloop
  endfacet
  facet normal -0 0 1
    outer loop
      vertex -4.6194 1.91342 13.5
      vertex -4.15735 -2.77785 13.5
      vertex -4.15735 2.77785 13.5
    endloop
  endfacet
  facet normal 0 0 1
    outer loop
      vertex -4.6194 1.91342 13.5
      vertex -4.6194 -1.91342 13.5
      vertex -4.15735 -2.77785 13.5
    endloop
  endfacet
  facet normal -0 0 1
    outer loop
      vertex -4.90393 0.975451 13.5
      vertex -4.6194 -1.91342 13.5
      vertex -4.6194 1.91342 13.5
    endloop
  endfacet
  facet normal 0 0 1
    outer loop
      vertex -4.90393 0.975451 13.5
      vertex -4.90393 -0.975451 13.5
      vertex -4.6194 -1.91342 13.5
    endloop
  endfacet
  facet normal 0 -0 1
    outer loop
      vertex -4.90393 -0.975451 13.5
      vertex -4.90393 0.975451 13.5
      vertex -5 0 13.5
    endloop
  endfacet
  facet normal -0.471397 0.881921 0
    outer loop
      vertex -1.91342 4.6194 8.5
      vertex -2.77785 4.15735 13.5
      vertex -1.91342 4.6194 13.5
    endloop
  endfacet
  facet normal -0.471397 0.881921 0
    outer loop
      vertex -2.77785 4.15735 13.5
      vertex -1.91342 4.6194 8.5
      vertex -2.77785 4.15735 8.5
    endloop
  endfacet
  facet normal -0.0980177 0.995185 0
    outer loop
      vertex 0 5 8.5
      vertex -0.975451 4.90393 13.5
      vertex 0 5 13.5
    endloop
  endfacet
  facet normal -0.0980177 0.995185 0
    outer loop
      vertex -0.975451 4.90393 13.5
      vertex 0 5 8.5
      vertex -0.975451 4.90393 8.5
    endloop
  endfacet
  facet normal -0.634393 -0.773011 0
    outer loop
      vertex -3.53553 -3.53553 8.5
      vertex -2.77785 -4.15735 13.5
      vertex -3.53553 -3.53553 13.5
    endloop
  endfacet
  facet normal -0.634393 -0.773011 -0
    outer loop
      vertex -2.77785 -4.15735 13.5
      vertex -3.53553 -3.53553 8.5
      vertex -2.77785 -4.15735 8.5
    endloop
  endfacet
  facet normal -0.290285 -0.95694 0
    outer loop
      vertex -1.91342 -4.6194 8.5
      vertex -0.975451 -4.90393 13.5
      vertex -1.91342 -4.6194 13.5
    endloop
  endfacet
  facet normal -0.290285 -0.95694 -0
    outer loop
      vertex -0.975451 -4.90393 13.5
      vertex -1.91342 -4.6194 8.5
      vertex -0.975451 -4.90393 8.5
    endloop
  endfacet
  facet normal -0.881921 -0.471397 0
    outer loop
      vertex -4.15735 -2.77785 8.5
      vertex -4.6194 -1.91342 13.5
      vertex -4.6194 -1.91342 8.5
    endloop
  endfacet
  facet normal -0.881921 -0.471397 0
    outer loop
      vertex -4.6194 -1.91342 13.5
      vertex -4.15735 -2.77785 8.5
      vertex -4.15735 -2.77785 13.5
    endloop
  endfacet
  facet normal -0.995185 -0.0980177 0
    outer loop
      vertex -4.90393 -0.975451 8.5
      vertex -5 0 13.5
      vertex -5 0 8.5
    endloop
  endfacet
  facet normal -0.995185 -0.0980177 0
    outer loop
      vertex -5 0 13.5
      vertex -4.90393 -0.975451 8.5
      vertex -4.90393 -0.975451 13.5
    endloop
  endfacet
  facet normal -0.471397 -0.881921 0
    outer loop
      vertex -2.77785 -4.15735 8.5
      vertex -1.91342 -4.6194 13.5
      vertex -2.77785 -4.15735 13.5
    endloop
  endfacet
  facet normal -0.471397 -0.881921 -0
    outer loop
      vertex -1.91342 -4.6194 13.5
      vertex -2.77785 -4.15735 8.5
      vertex -1.91342 -4.6194 8.5
    endloop
  endfacet
  facet normal -0.95694 -0.290285 0
    outer loop
      vertex -4.6194 -1.91342 8.5
      vertex -4.90393 -0.975451 13.5
      vertex -4.90393 -0.975451 8.5
    endloop
  endfacet
  facet normal -0.95694 -0.290285 0
    outer loop
      vertex -4.90393 -0.975451 13.5
      vertex -4.6194 -1.91342 8.5
      vertex -4.6194 -1.91342 13.5
    endloop
  endfacet
  facet normal 0 1 -0
    outer loop
      vertex 12.5 5 -9.9
      vertex 7.5 5 8.5
      vertex 12.5 5 11
    endloop
  endfacet
  facet normal 0 1 0
    outer loop
      vertex 7.5 5 8.5
      vertex 12.5 5 -9.9
      vertex 7.5 5 -11.14
    endloop
  endfacet
  facet normal 0 1 0
    outer loop
      vertex 12.5 5 11
      vertex 10 5 13.5
      vertex 10.4877 5 13.452
    endloop
  endfacet
  facet normal 0 1 0
    outer loop
      vertex 12.5 5 11
      vertex 10.4877 5 13.452
      vertex 10.9567 5 13.3097
    endloop
  endfacet
  facet normal 0 1 0
    outer loop
      vertex 12.5 5 11
      vertex 10.9567 5 13.3097
      vertex 11.3889 5 13.0787
    endloop
  endfacet
  facet normal 0 1 0
    outer loop
      vertex 12.5 5 11
      vertex 11.3889 5 13.0787
      vertex 11.7678 5 12.7678
    endloop
  endfacet
  facet normal 0 1 0
    outer loop
      vertex 12.5 5 11
      vertex 11.7678 5 12.7678
      vertex 12.0787 5 12.3889
    endloop
  endfacet
  facet normal 0 1 0
    outer loop
      vertex 12.5 5 11
      vertex 12.0787 5 12.3889
      vertex 12.3097 5 11.9567
    endloop
  endfacet
  facet normal 0 1 0
    outer loop
      vertex 12.5 5 11
      vertex 12.3097 5 11.9567
      vertex 12.452 5 11.4877
    endloop
  endfacet
  facet normal 0 1 0
    outer loop
      vertex 10 5 13.5
      vertex 12.5 5 11
      vertex 7.5 5 8.5
    endloop
  endfacet
  facet normal 0 1 0
    outer loop
      vertex 10 5 13.5
      vertex 7.5 5 8.5
      vertex 0 5 13.5
    endloop
  endfacet
  facet normal 0 1 0
    outer loop
      vertex 0 5 13.5
      vertex 7.5 5 8.5
      vertex 0 5 8.5
    endloop
  endfacet
  facet normal 0 -1 0
    outer loop
      vertex 7.5 -5 8.5
      vertex 10 -5 13.5
      vertex 0 -5 13.5
    endloop
  endfacet
  facet normal -0 -1 0
    outer loop
      vertex 12.5 -5 11
      vertex 10 -5 13.5
      vertex 7.5 -5 8.5
    endloop
  endfacet
  facet normal 0 -1 0
    outer loop
      vertex 10 -5 13.5
      vertex 12.5 -5 11
      vertex 10.4877 -5 13.452
    endloop
  endfacet
  facet normal 0 -1 0
    outer loop
      vertex 10.4877 -5 13.452
      vertex 12.5 -5 11
      vertex 10.9567 -5 13.3097
    endloop
  endfacet
  facet normal 0 -1 0
    outer loop
      vertex 10.9567 -5 13.3097
      vertex 12.5 -5 11
      vertex 11.3889 -5 13.0787
    endloop
  endfacet
  facet normal 0 -1 0
    outer loop
      vertex 11.3889 -5 13.0787
      vertex 12.5 -5 11
      vertex 11.7678 -5 12.7678
    endloop
  endfacet
  facet normal 0 -1 0
    outer loop
      vertex 11.7678 -5 12.7678
      vertex 12.5 -5 11
      vertex 12.0787 -5 12.3889
    endloop
  endfacet
  facet normal 0 -1 0
    outer loop
      vertex 12.0787 -5 12.3889
      vertex 12.5 -5 11
      vertex 12.3097 -5 11.9567
    endloop
  endfacet
  facet normal 0 -1 0
    outer loop
      vertex 7.5 -5 8.5
      vertex 0 -5 13.5
      vertex 0 -5 8.5
    endloop
  endfacet
  facet normal 0 -1 0
    outer loop
      vertex 12.3097 -5 11.9567
      vertex 12.5 -5 11
      vertex 12.452 -5 11.4877
    endloop
  endfacet
  facet normal 0 -1 0
    outer loop
      vertex 7.5 -5 8.5
      vertex 12.5 -5 -9.9
      vertex 12.5 -5 11
    endloop
  endfacet
  facet normal -0 -1 0
    outer loop
      vertex 12.5 -5 -9.9
      vertex 7.5 -5 8.5
      vertex 7.5 -5 -11.14
    endloop
  endfacet
  facet normal 0.995185 0.0980172 0
    outer loop
      vertex 1.675 0 8.5
      vertex 1.64281 0.326776 6.04558
      vertex 1.64281 0.326776 8.5
    endloop
  endfacet
  facet normal 0.995185 0.0980172 0
    outer loop
      vertex 1.64281 0.326776 6.04558
      vertex 1.675 0 8.5
      vertex 1.675 0 6.04558
    endloop
  endfacet
  facet normal -0.995185 0.0980172 0
    outer loop
      vertex -1.675 0 6.04558
      vertex -1.64281 0.326776 8.5
      vertex -1.64281 0.326776 6.04558
    endloop
  endfacet
  facet normal -0.995185 0.0980172 0
    outer loop
      vertex -1.64281 0.326776 8.5
      vertex -1.675 0 6.04558
      vertex -1.675 0 8.5
    endloop
  endfacet
  facet normal 0.0980172 0.995185 -0
    outer loop
      vertex 0.326776 1.64281 6.04558
      vertex 0 1.675 8.5
      vertex 0.326776 1.64281 8.5
    endloop
  endfacet
  facet normal 0.0980172 0.995185 0
    outer loop
      vertex 0 1.675 8.5
      vertex 0.326776 1.64281 6.04558
      vertex 0 1.675 6.04558
    endloop
  endfacet
  facet normal -0.0980172 -0.995185 0
    outer loop
      vertex -0.326776 -1.64281 6.04558
      vertex 0 -1.675 8.5
      vertex -0.326776 -1.64281 8.5
    endloop
  endfacet
  facet normal -0.0980172 -0.995185 -0
    outer loop
      vertex 0 -1.675 8.5
      vertex -0.326776 -1.64281 6.04558
      vertex 0 -1.675 6.04558
    endloop
  endfacet
  facet normal -0.773011 -0.634393 0
    outer loop
      vertex -1.1844 -1.1844 6.04558
      vertex -1.39271 -0.93058 8.5
      vertex -1.39271 -0.93058 6.04558
    endloop
  endfacet
  facet normal -0.773011 -0.634393 0
    outer loop
      vertex -1.39271 -0.93058 8.5
      vertex -1.1844 -1.1844 6.04558
      vertex -1.1844 -1.1844 8.5
    endloop
  endfacet
  facet normal 0.773011 0.634393 0
    outer loop
      vertex 1.39271 0.93058 8.5
      vertex 1.1844 1.1844 6.04558
      vertex 1.1844 1.1844 8.5
    endloop
  endfacet
  facet normal 0.773011 0.634393 0
    outer loop
      vertex 1.1844 1.1844 6.04558
      vertex 1.39271 0.93058 8.5
      vertex 1.39271 0.93058 6.04558
    endloop
  endfacet
  facet normal 0.956941 0.290284 0
    outer loop
      vertex 1.64281 0.326776 8.5
      vertex 1.5475 0.640994 6.04558
      vertex 1.5475 0.640994 8.5
    endloop
  endfacet
  facet normal 0.956941 0.290284 0
    outer loop
      vertex 1.5475 0.640994 6.04558
      vertex 1.64281 0.326776 8.5
      vertex 1.64281 0.326776 6.04558
    endloop
  endfacet
  facet normal -0.634393 0.773011 0
    outer loop
      vertex -0.93058 1.39271 6.04558
      vertex -1.1844 1.1844 8.5
      vertex -0.93058 1.39271 8.5
    endloop
  endfacet
  facet normal -0.634393 0.773011 0
    outer loop
      vertex -1.1844 1.1844 8.5
      vertex -0.93058 1.39271 6.04558
      vertex -1.1844 1.1844 6.04558
    endloop
  endfacet
  facet normal -0.290284 0.956941 0
    outer loop
      vertex -0.326776 1.64281 6.04558
      vertex -0.640994 1.5475 8.5
      vertex -0.326776 1.64281 8.5
    endloop
  endfacet
  facet normal -0.290284 0.956941 0
    outer loop
      vertex -0.640994 1.5475 8.5
      vertex -0.326776 1.64281 6.04558
      vertex -0.640994 1.5475 6.04558
    endloop
  endfacet
  facet normal 0.634393 -0.773011 0
    outer loop
      vertex 0.93058 -1.39271 6.04558
      vertex 1.1844 -1.1844 8.5
      vertex 0.93058 -1.39271 8.5
    endloop
  endfacet
  facet normal 0.634393 -0.773011 0
    outer loop
      vertex 1.1844 -1.1844 8.5
      vertex 0.93058 -1.39271 6.04558
      vertex 1.1844 -1.1844 6.04558
    endloop
  endfacet
  facet normal 0 0 -1
    outer loop
      vertex 1.64281 -0.326776 6.04558
      vertex 1.64281 0.326776 6.04558
      vertex 1.675 0 6.04558
    endloop
  endfacet
  facet normal 0 0 -1
    outer loop
      vertex 1.5475 -0.640994 6.04558
      vertex 1.64281 0.326776 6.04558
      vertex 1.64281 -0.326776 6.04558
    endloop
  endfacet
  facet normal 0 0 -1
    outer loop
      vertex 1.5475 -0.640994 6.04558
      vertex 1.5475 0.640994 6.04558
      vertex 1.64281 0.326776 6.04558
    endloop
  endfacet
  facet normal 0 0 -1
    outer loop
      vertex 1.39271 -0.93058 6.04558
      vertex 1.5475 0.640994 6.04558
      vertex 1.5475 -0.640994 6.04558
    endloop
  endfacet
  facet normal 0 0 -1
    outer loop
      vertex 1.39271 -0.93058 6.04558
      vertex 1.39271 0.93058 6.04558
      vertex 1.5475 0.640994 6.04558
    endloop
  endfacet
  facet normal 0 0 -1
    outer loop
      vertex 1.1844 -1.1844 6.04558
      vertex 1.39271 0.93058 6.04558
      vertex 1.39271 -0.93058 6.04558
    endloop
  endfacet
  facet normal 0 0 -1
    outer loop
      vertex 1.1844 -1.1844 6.04558
      vertex 1.1844 1.1844 6.04558
      vertex 1.39271 0.93058 6.04558
    endloop
  endfacet
  facet normal 0 0 -1
    outer loop
      vertex 0.93058 -1.39271 6.04558
      vertex 1.1844 1.1844 6.04558
      vertex 1.1844 -1.1844 6.04558
    endloop
  endfacet
  facet normal 0 0 -1
    outer loop
      vertex 0.93058 -1.39271 6.04558
      vertex 0.93058 1.39271 6.04558
      vertex 1.1844 1.1844 6.04558
    endloop
  endfacet
  facet normal 0 0 -1
    outer loop
      vertex 0.640994 -1.5475 6.04558
      vertex 0.93058 1.39271 6.04558
      vertex 0.93058 -1.39271 6.04558
    endloop
  endfacet
  facet normal 0 0 -1
    outer loop
      vertex 0.640994 -1.5475 6.04558
      vertex 0.640994 1.5475 6.04558
      vertex 0.93058 1.39271 6.04558
    endloop
  endfacet
  facet normal 0 0 -1
    outer loop
      vertex 0.326776 -1.64281 6.04558
      vertex 0.640994 1.5475 6.04558
      vertex 0.640994 -1.5475 6.04558
    endloop
  endfacet
  facet normal 0 0 -1
    outer loop
      vertex 0.326776 -1.64281 6.04558
      vertex 0.326776 1.64281 6.04558
      vertex 0.640994 1.5475 6.04558
    endloop
  endfacet
  facet normal 0 0 -1
    outer loop
      vertex 0 -1.675 6.04558
      vertex 0.326776 1.64281 6.04558
      vertex 0.326776 -1.64281 6.04558
    endloop
  endfacet
  facet normal 0 0 -1
    outer loop
      vertex 0 -1.675 6.04558
      vertex 0 1.675 6.04558
      vertex 0.326776 1.64281 6.04558
    endloop
  endfacet
  facet normal 0 0 -1
    outer loop
      vertex -0.326776 -1.64281 6.04558
      vertex 0 1.675 6.04558
      vertex 0 -1.675 6.04558
    endloop
  endfacet
  facet normal 0 0 -1
    outer loop
      vertex -0.326776 -1.64281 6.04558
      vertex -0.326776 1.64281 6.04558
      vertex 0 1.675 6.04558
    endloop
  endfacet
  facet normal 0 0 -1
    outer loop
      vertex -0.640994 -1.5475 6.04558
      vertex -0.326776 1.64281 6.04558
      vertex -0.326776 -1.64281 6.04558
    endloop
  endfacet
  facet normal 0 0 -1
    outer loop
      vertex -0.640994 -1.5475 6.04558
      vertex -0.640994 1.5475 6.04558
      vertex -0.326776 1.64281 6.04558
    endloop
  endfacet
  facet normal 0 0 -1
    outer loop
      vertex -0.93058 -1.39271 6.04558
      vertex -0.640994 1.5475 6.04558
      vertex -0.640994 -1.5475 6.04558
    endloop
  endfacet
  facet normal 0 0 -1
    outer loop
      vertex -0.93058 -1.39271 6.04558
      vertex -0.93058 1.39271 6.04558
      vertex -0.640994 1.5475 6.04558
    endloop
  endfacet
  facet normal 0 0 -1
    outer loop
      vertex -1.1844 -1.1844 6.04558
      vertex -0.93058 1.39271 6.04558
      vertex -0.93058 -1.39271 6.04558
    endloop
  endfacet
  facet normal 0 0 -1
    outer loop
      vertex -1.1844 -1.1844 6.04558
      vertex -1.1844 1.1844 6.04558
      vertex -0.93058 1.39271 6.04558
    endloop
  endfacet
  facet normal 0 0 -1
    outer loop
      vertex -1.39271 -0.93058 6.04558
      vertex -1.1844 1.1844 6.04558
      vertex -1.1844 -1.1844 6.04558
    endloop
  endfacet
  facet normal 0 0 -1
    outer loop
      vertex -1.39271 -0.93058 6.04558
      vertex -1.39271 0.93058 6.04558
      vertex -1.1844 1.1844 6.04558
    endloop
  endfacet
  facet normal 0 0 -1
    outer loop
      vertex -1.5475 -0.640994 6.04558
      vertex -1.39271 0.93058 6.04558
      vertex -1.39271 -0.93058 6.04558
    endloop
  endfacet
  facet normal 0 0 -1
    outer loop
      vertex -1.5475 -0.640994 6.04558
      vertex -1.5475 0.640994 6.04558
      vertex -1.39271 0.93058 6.04558
    endloop
  endfacet
  facet normal 0 0 -1
    outer loop
      vertex -1.64281 -0.326776 6.04558
      vertex -1.5475 0.640994 6.04558
      vertex -1.5475 -0.640994 6.04558
    endloop
  endfacet
  facet normal 0 0 -1
    outer loop
      vertex -1.64281 -0.326776 6.04558
      vertex -1.64281 0.326776 6.04558
      vertex -1.5475 0.640994 6.04558
    endloop
  endfacet
  facet normal 0 -0 -1
    outer loop
      vertex -1.64281 0.326776 6.04558
      vertex -1.64281 -0.326776 6.04558
      vertex -1.675 0 6.04558
    endloop
  endfacet
  facet normal 0.881921 0.471397 0
    outer loop
      vertex 1.5475 0.640994 8.5
      vertex 1.39271 0.93058 6.04558
      vertex 1.39271 0.93058 8.5
    endloop
  endfacet
  facet normal 0.881921 0.471397 0
    outer loop
      vertex 1.39271 0.93058 6.04558
      vertex 1.5475 0.640994 8.5
      vertex 1.5475 0.640994 6.04558
    endloop
  endfacet
  facet normal 0.471397 0.881921 -0
    outer loop
      vertex 0.93058 1.39271 6.04558
      vertex 0.640994 1.5475 8.5
      vertex 0.93058 1.39271 8.5
    endloop
  endfacet
  facet normal 0.471397 0.881921 0
    outer loop
      vertex 0.640994 1.5475 8.5
      vertex 0.93058 1.39271 6.04558
      vertex 0.640994 1.5475 6.04558
    endloop
  endfacet
  facet normal 0.290284 0.956941 -0
    outer loop
      vertex 0.640994 1.5475 6.04558
      vertex 0.326776 1.64281 8.5
      vertex 0.640994 1.5475 8.5
    endloop
  endfacet
  facet normal 0.290284 0.956941 0
    outer loop
      vertex 0.326776 1.64281 8.5
      vertex 0.640994 1.5475 6.04558
      vertex 0.326776 1.64281 6.04558
    endloop
  endfacet
  facet normal 0.634393 0.773011 -0
    outer loop
      vertex 1.1844 1.1844 6.04558
      vertex 0.93058 1.39271 8.5
      vertex 1.1844 1.1844 8.5
    endloop
  endfacet
  facet normal 0.634393 0.773011 0
    outer loop
      vertex 0.93058 1.39271 8.5
      vertex 1.1844 1.1844 6.04558
      vertex 0.93058 1.39271 6.04558
    endloop
  endfacet
  facet normal -0.881921 0.471397 0
    outer loop
      vertex -1.5475 0.640994 6.04558
      vertex -1.39271 0.93058 8.5
      vertex -1.39271 0.93058 6.04558
    endloop
  endfacet
  facet normal -0.881921 0.471397 0
    outer loop
      vertex -1.39271 0.93058 8.5
      vertex -1.5475 0.640994 6.04558
      vertex -1.5475 0.640994 8.5
    endloop
  endfacet
  facet normal -0.773011 0.634393 0
    outer loop
      vertex -1.39271 0.93058 6.04558
      vertex -1.1844 1.1844 8.5
      vertex -1.1844 1.1844 6.04558
    endloop
  endfacet
  facet normal -0.773011 0.634393 0
    outer loop
      vertex -1.1844 1.1844 8.5
      vertex -1.39271 0.93058 6.04558
      vertex -1.39271 0.93058 8.5
    endloop
  endfacet
  facet normal -0.956941 0.290284 0
    outer loop
      vertex -1.64281 0.326776 6.04558
      vertex -1.5475 0.640994 8.5
      vertex -1.5475 0.640994 6.04558
    endloop
  endfacet
  facet normal -0.956941 0.290284 0
    outer loop
      vertex -1.5475 0.640994 8.5
      vertex -1.64281 0.326776 6.04558
      vertex -1.64281 0.326776 8.5
    endloop
  endfacet
  facet normal -0.471397 0.881921 0
    outer loop
      vertex -0.640994 1.5475 6.04558
      vertex -0.93058 1.39271 8.5
      vertex -0.640994 1.5475 8.5
    endloop
  endfacet
  facet normal -0.471397 0.881921 0
    outer loop
      vertex -0.93058 1.39271 8.5
      vertex -0.640994 1.5475 6.04558
      vertex -0.93058 1.39271 6.04558
    endloop
  endfacet
  facet normal -0.0980172 0.995185 0
    outer loop
      vertex 0 1.675 6.04558
      vertex -0.326776 1.64281 8.5
      vertex 0 1.675 8.5
    endloop
  endfacet
  facet normal -0.0980172 0.995185 0
    outer loop
      vertex -0.326776 1.64281 8.5
      vertex 0 1.675 6.04558
      vertex -0.326776 1.64281 6.04558
    endloop
  endfacet
  facet normal 0.0980172 -0.995185 0
    outer loop
      vertex 0 -1.675 6.04558
      vertex 0.326776 -1.64281 8.5
      vertex 0 -1.675 8.5
    endloop
  endfacet
  facet normal 0.0980172 -0.995185 0
    outer loop
      vertex 0.326776 -1.64281 8.5
      vertex 0 -1.675 6.04558
      vertex 0.326776 -1.64281 6.04558
    endloop
  endfacet
  facet normal 0.471397 -0.881921 0
    outer loop
      vertex 0.640994 -1.5475 6.04558
      vertex 0.93058 -1.39271 8.5
      vertex 0.640994 -1.5475 8.5
    endloop
  endfacet
  facet normal 0.471397 -0.881921 0
    outer loop
      vertex 0.93058 -1.39271 8.5
      vertex 0.640994 -1.5475 6.04558
      vertex 0.93058 -1.39271 6.04558
    endloop
  endfacet
  facet normal -0.634393 -0.773011 0
    outer loop
      vertex -1.1844 -1.1844 6.04558
      vertex -0.93058 -1.39271 8.5
      vertex -1.1844 -1.1844 8.5
    endloop
  endfacet
  facet normal -0.634393 -0.773011 -0
    outer loop
      vertex -0.93058 -1.39271 8.5
      vertex -1.1844 -1.1844 6.04558
      vertex -0.93058 -1.39271 6.04558
    endloop
  endfacet
  facet normal -0.290284 -0.956941 0
    outer loop
      vertex -0.640994 -1.5475 6.04558
      vertex -0.326776 -1.64281 8.5
      vertex -0.640994 -1.5475 8.5
    endloop
  endfacet
  facet normal -0.290284 -0.956941 -0
    outer loop
      vertex -0.326776 -1.64281 8.5
      vertex -0.640994 -1.5475 6.04558
      vertex -0.326776 -1.64281 6.04558
    endloop
  endfacet
  facet normal -0.881921 -0.471397 0
    outer loop
      vertex -1.39271 -0.93058 6.04558
      vertex -1.5475 -0.640994 8.5
      vertex -1.5475 -0.640994 6.04558
    endloop
  endfacet
  facet normal -0.881921 -0.471397 0
    outer loop
      vertex -1.5475 -0.640994 8.5
      vertex -1.39271 -0.93058 6.04558
      vertex -1.39271 -0.93058 8.5
    endloop
  endfacet
  facet normal -0.995185 -0.0980172 0
    outer loop
      vertex -1.64281 -0.326776 6.04558
      vertex -1.675 0 8.5
      vertex -1.675 0 6.04558
    endloop
  endfacet
  facet normal -0.995185 -0.0980172 0
    outer loop
      vertex -1.675 0 8.5
      vertex -1.64281 -0.326776 6.04558
      vertex -1.64281 -0.326776 8.5
    endloop
  endfacet
  facet normal 0.995185 -0.0980172 0
    outer loop
      vertex 1.64281 -0.326776 8.5
      vertex 1.675 0 6.04558
      vertex 1.675 0 8.5
    endloop
  endfacet
  facet normal 0.995185 -0.0980172 0
    outer loop
      vertex 1.675 0 6.04558
      vertex 1.64281 -0.326776 8.5
      vertex 1.64281 -0.326776 6.04558
    endloop
  endfacet
  facet normal 0.290284 -0.956941 0
    outer loop
      vertex 0.326776 -1.64281 6.04558
      vertex 0.640994 -1.5475 8.5
      vertex 0.326776 -1.64281 8.5
    endloop
  endfacet
  facet normal 0.290284 -0.956941 0
    outer loop
      vertex 0.640994 -1.5475 8.5
      vertex 0.326776 -1.64281 6.04558
      vertex 0.640994 -1.5475 6.04558
    endloop
  endfacet
  facet normal 0.881921 -0.471397 0
    outer loop
      vertex 1.39271 -0.93058 8.5
      vertex 1.5475 -0.640994 6.04558
      vertex 1.5475 -0.640994 8.5
    endloop
  endfacet
  facet normal 0.881921 -0.471397 0
    outer loop
      vertex 1.5475 -0.640994 6.04558
      vertex 1.39271 -0.93058 8.5
      vertex 1.39271 -0.93058 6.04558
    endloop
  endfacet
  facet normal 0.773011 -0.634393 0
    outer loop
      vertex 1.1844 -1.1844 8.5
      vertex 1.39271 -0.93058 6.04558
      vertex 1.39271 -0.93058 8.5
    endloop
  endfacet
  facet normal 0.773011 -0.634393 0
    outer loop
      vertex 1.39271 -0.93058 6.04558
      vertex 1.1844 -1.1844 8.5
      vertex 1.1844 -1.1844 6.04558
    endloop
  endfacet
  facet normal 0.956941 -0.290284 0
    outer loop
      vertex 1.5475 -0.640994 8.5
      vertex 1.64281 -0.326776 6.04558
      vertex 1.64281 -0.326776 8.5
    endloop
  endfacet
  facet normal 0.956941 -0.290284 0
    outer loop
      vertex 1.64281 -0.326776 6.04558
      vertex 1.5475 -0.640994 8.5
      vertex 1.5475 -0.640994 6.04558
    endloop
  endfacet
  facet normal -0.471397 -0.881921 0
    outer loop
      vertex -0.93058 -1.39271 6.04558
      vertex -0.640994 -1.5475 8.5
      vertex -0.93058 -1.39271 8.5
    endloop
  endfacet
  facet normal -0.471397 -0.881921 -0
    outer loop
      vertex -0.640994 -1.5475 8.5
      vertex -0.93058 -1.39271 6.04558
      vertex -0.640994 -1.5475 6.04558
    endloop
  endfacet
  facet normal -0.956941 -0.290284 0
    outer loop
      vertex -1.5475 -0.640994 6.04558
      vertex -1.64281 -0.326776 8.5
      vertex -1.64281 -0.326776 6.04558
    endloop
  endfacet
  facet normal -0.956941 -0.290284 0
    outer loop
      vertex -1.64281 -0.326776 8.5
      vertex -1.5475 -0.640994 6.04558
      vertex -1.5475 -0.640994 8.5
    endloop
  endfacet
  facet normal 0.995185 0.098017 -0
    outer loop
      vertex 6.2 0 -25.2
      vertex 6.08087 1.20956 -16.4919
      vertex 6.2 0 -16.4624
    endloop
  endfacet
  facet normal 0.995185 0.098017 0
    outer loop
      vertex 6.08087 1.20956 -16.4919
      vertex 6.2 0 -25.2
      vertex 6.08087 1.20956 -25.2
    endloop
  endfacet
  facet normal -0.995185 0.098017 0
    outer loop
      vertex -6.2 0 -25.2
      vertex -6.08087 1.20956 -13
      vertex -6.08087 1.20956 -25.2
    endloop
  endfacet
  facet normal -0.995185 0.098017 0
    outer loop
      vertex -6.08087 1.20956 -13
      vertex -6.2 0 -25.2
      vertex -6.2 0 -13
    endloop
  endfacet
  facet normal -0.098017 0.995185 0
    outer loop
      vertex 0 6.2 -18
      vertex -1.20956 6.08087 -13
      vertex 0 6.2 -13
    endloop
  endfacet
  facet normal -0.098017 0.995185 0
    outer loop
      vertex -1.20956 6.08087 -25.2
      vertex 0 6.2 -18
      vertex 0 6.2 -25.2
    endloop
  endfacet
  facet normal -0.098017 0.995185 0
    outer loop
      vertex 0 6.2 -18
      vertex -1.20956 6.08087 -25.2
      vertex -1.20956 6.08087 -13
    endloop
  endfacet
  facet normal 0.098017 -0.995185 0
    outer loop
      vertex 1.20956 -6.08087 -25.2
      vertex 0 -6.2 -18
      vertex 0 -6.2 -25.2
    endloop
  endfacet
  facet normal 0.098017 -0.995185 0
    outer loop
      vertex 0 -6.2 -18
      vertex 1.20956 -6.08087 -25.2
      vertex 1.20956 -6.08087 -17.7
    endloop
  endfacet
  facet normal 0.634393 0.77301 -0
    outer loop
      vertex 4.38406 4.38406 -25.2
      vertex 3.44454 5.15511 -17.1458
      vertex 4.38406 4.38406 -16.9128
    endloop
  endfacet
  facet normal 0.634393 0.77301 0
    outer loop
      vertex 3.44454 5.15511 -17.1458
      vertex 4.38406 4.38406 -25.2
      vertex 3.44454 5.15511 -25.2
    endloop
  endfacet
  facet normal -0.634393 0.77301 0
    outer loop
      vertex -3.44454 5.15511 -25.2
      vertex -4.38406 4.38406 -13
      vertex -3.44454 5.15511 -13
    endloop
  endfacet
  facet normal -0.634393 0.77301 0
    outer loop
      vertex -4.38406 4.38406 -13
      vertex -3.44454 5.15511 -25.2
      vertex -4.38406 4.38406 -25.2
    endloop
  endfacet
  facet normal -0.290285 0.95694 0
    outer loop
      vertex -1.20956 6.08087 -25.2
      vertex -2.37264 5.72805 -13
      vertex -1.20956 6.08087 -13
    endloop
  endfacet
  facet normal -0.290285 0.95694 0
    outer loop
      vertex -2.37264 5.72805 -13
      vertex -1.20956 6.08087 -25.2
      vertex -2.37264 5.72805 -25.2
    endloop
  endfacet
  facet normal 0.881921 -0.471397 0
    outer loop
      vertex 5.15511 -3.44454 -16.7215
      vertex 5.72805 -2.37264 -25.2
      vertex 5.72805 -2.37264 -16.5794
    endloop
  endfacet
  facet normal 0.881921 -0.471397 0
    outer loop
      vertex 5.72805 -2.37264 -25.2
      vertex 5.15511 -3.44454 -16.7215
      vertex 5.15511 -3.44454 -25.2
    endloop
  endfacet
  facet normal 0.881921 0.471397 -0
    outer loop
      vertex 5.72805 2.37264 -25.2
      vertex 5.15511 3.44454 -16.7215
      vertex 5.72805 2.37264 -16.5794
    endloop
  endfacet
  facet normal 0.881921 0.471397 0
    outer loop
      vertex 5.15511 3.44454 -16.7215
      vertex 5.72805 2.37264 -25.2
      vertex 5.15511 3.44454 -25.2
    endloop
  endfacet
  facet normal 0.95694 0.290285 -0
    outer loop
      vertex 6.08087 1.20956 -25.2
      vertex 5.72805 2.37264 -16.5794
      vertex 6.08087 1.20956 -16.4919
    endloop
  endfacet
  facet normal 0.95694 0.290285 0
    outer loop
      vertex 5.72805 2.37264 -16.5794
      vertex 6.08087 1.20956 -25.2
      vertex 5.72805 2.37264 -25.2
    endloop
  endfacet
  facet normal 0.77301 0.634393 -0
    outer loop
      vertex 5.15511 3.44454 -25.2
      vertex 4.38406 4.38406 -16.9128
      vertex 5.15511 3.44454 -16.7215
    endloop
  endfacet
  facet normal 0.77301 0.634393 0
    outer loop
      vertex 4.38406 4.38406 -16.9128
      vertex 5.15511 3.44454 -25.2
      vertex 4.38406 4.38406 -25.2
    endloop
  endfacet
  facet normal 0.290285 0.95694 -0
    outer loop
      vertex 2.37264 5.72805 -25.2
      vertex 1.20956 6.08087 -17.7
      vertex 2.37264 5.72805 -17.4116
    endloop
  endfacet
  facet normal 0.290285 0.95694 0
    outer loop
      vertex 1.20956 6.08087 -17.7
      vertex 2.37264 5.72805 -25.2
      vertex 1.20956 6.08087 -25.2
    endloop
  endfacet
  facet normal 0.098017 0.995185 -0
    outer loop
      vertex 1.20956 6.08087 -25.2
      vertex 0 6.2 -18
      vertex 1.20956 6.08087 -17.7
    endloop
  endfacet
  facet normal 0.098017 0.995185 0
    outer loop
      vertex 0 6.2 -18
      vertex 1.20956 6.08087 -25.2
      vertex 0 6.2 -25.2
    endloop
  endfacet
  facet normal 0.471397 0.881921 -0
    outer loop
      vertex 3.44454 5.15511 -25.2
      vertex 2.37264 5.72805 -17.4116
      vertex 3.44454 5.15511 -17.1458
    endloop
  endfacet
  facet normal 0.471397 0.881921 0
    outer loop
      vertex 2.37264 5.72805 -17.4116
      vertex 3.44454 5.15511 -25.2
      vertex 2.37264 5.72805 -25.2
    endloop
  endfacet
  facet normal -0.881921 0.471397 0
    outer loop
      vertex -5.72805 2.37264 -25.2
      vertex -5.15511 3.44454 -13
      vertex -5.15511 3.44454 -25.2
    endloop
  endfacet
  facet normal -0.881921 0.471397 0
    outer loop
      vertex -5.15511 3.44454 -13
      vertex -5.72805 2.37264 -25.2
      vertex -5.72805 2.37264 -13
    endloop
  endfacet
  facet normal -0.77301 0.634393 0
    outer loop
      vertex -5.15511 3.44454 -25.2
      vertex -4.38406 4.38406 -13
      vertex -4.38406 4.38406 -25.2
    endloop
  endfacet
  facet normal -0.77301 0.634393 0
    outer loop
      vertex -4.38406 4.38406 -13
      vertex -5.15511 3.44454 -25.2
      vertex -5.15511 3.44454 -13
    endloop
  endfacet
  facet normal -0.95694 0.290285 0
    outer loop
      vertex -6.08087 1.20956 -25.2
      vertex -5.72805 2.37264 -13
      vertex -5.72805 2.37264 -25.2
    endloop
  endfacet
  facet normal -0.95694 0.290285 0
    outer loop
      vertex -5.72805 2.37264 -13
      vertex -6.08087 1.20956 -25.2
      vertex -6.08087 1.20956 -13
    endloop
  endfacet
  facet normal -0 0 1
    outer loop
      vertex -1.20956 6.08087 -13
      vertex 0 -6.2 -13
      vertex 0 6.2 -13
    endloop
  endfacet
  facet normal 0 0 1
    outer loop
      vertex -1.20956 6.08087 -13
      vertex -1.20956 -6.08087 -13
      vertex 0 -6.2 -13
    endloop
  endfacet
  facet normal -0 0 1
    outer loop
      vertex -2.37264 5.72805 -13
      vertex -1.20956 -6.08087 -13
      vertex -1.20956 6.08087 -13
    endloop
  endfacet
  facet normal 0 0 1
    outer loop
      vertex -2.37264 5.72805 -13
      vertex -2.37264 -5.72805 -13
      vertex -1.20956 -6.08087 -13
    endloop
  endfacet
  facet normal -0 0 1
    outer loop
      vertex -3.44454 5.15511 -13
      vertex -2.37264 -5.72805 -13
      vertex -2.37264 5.72805 -13
    endloop
  endfacet
  facet normal 0 0 1
    outer loop
      vertex -3.44454 5.15511 -13
      vertex -3.44454 -5.15511 -13
      vertex -2.37264 -5.72805 -13
    endloop
  endfacet
  facet normal -0 0 1
    outer loop
      vertex -4.38406 4.38406 -13
      vertex -3.44454 -5.15511 -13
      vertex -3.44454 5.15511 -13
    endloop
  endfacet
  facet normal 0 0 1
    outer loop
      vertex -4.38406 4.38406 -13
      vertex -4.38406 -4.38406 -13
      vertex -3.44454 -5.15511 -13
    endloop
  endfacet
  facet normal -0 0 1
    outer loop
      vertex -5.15511 3.44454 -13
      vertex -4.38406 -4.38406 -13
      vertex -4.38406 4.38406 -13
    endloop
  endfacet
  facet normal 0 0 1
    outer loop
      vertex -5.15511 3.44454 -13
      vertex -5.15511 -3.44454 -13
      vertex -4.38406 -4.38406 -13
    endloop
  endfacet
  facet normal -0 0 1
    outer loop
      vertex -5.72805 2.37264 -13
      vertex -5.15511 -3.44454 -13
      vertex -5.15511 3.44454 -13
    endloop
  endfacet
  facet normal 0 0 1
    outer loop
      vertex -5.72805 2.37264 -13
      vertex -5.72805 -2.37264 -13
      vertex -5.15511 -3.44454 -13
    endloop
  endfacet
  facet normal -0 0 1
    outer loop
      vertex -6.08087 1.20956 -13
      vertex -5.72805 -2.37264 -13
      vertex -5.72805 2.37264 -13
    endloop
  endfacet
  facet normal 0 0 1
    outer loop
      vertex -6.08087 1.20956 -13
      vertex -6.08087 -1.20956 -13
      vertex -5.72805 -2.37264 -13
    endloop
  endfacet
  facet normal 0 -0 1
    outer loop
      vertex -6.08087 -1.20956 -13
      vertex -6.08087 1.20956 -13
      vertex -6.2 0 -13
    endloop
  endfacet
  facet normal -0.471397 0.881921 0
    outer loop
      vertex -2.37264 5.72805 -25.2
      vertex -3.44454 5.15511 -13
      vertex -2.37264 5.72805 -13
    endloop
  endfacet
  facet normal -0.471397 0.881921 0
    outer loop
      vertex -3.44454 5.15511 -13
      vertex -2.37264 5.72805 -25.2
      vertex -3.44454 5.15511 -25.2
    endloop
  endfacet
  facet normal 0 0 -1
    outer loop
      vertex 4.25 0 -25.2
      vertex 6.2 0 -25.2
      vertex 6.08087 -1.20956 -25.2
    endloop
  endfacet
  facet normal 0 0 -1
    outer loop
      vertex 4.16834 -0.829133 -25.2
      vertex 6.08087 -1.20956 -25.2
      vertex 5.72805 -2.37264 -25.2
    endloop
  endfacet
  facet normal 0 0 -1
    outer loop
      vertex 6.2 0 -25.2
      vertex 4.25 0 -25.2
      vertex 6.08087 1.20956 -25.2
    endloop
  endfacet
  facet normal 0 0 -1
    outer loop
      vertex 3.92649 -1.6264 -25.2
      vertex 5.72805 -2.37264 -25.2
      vertex 5.15511 -3.44454 -25.2
    endloop
  endfacet
  facet normal 0 0 -1
    outer loop
      vertex 4.16834 0.829133 -25.2
      vertex 6.08087 1.20956 -25.2
      vertex 4.25 0 -25.2
    endloop
  endfacet
  facet normal 0 0 -1
    outer loop
      vertex 3.53375 -2.36117 -25.2
      vertex 5.15511 -3.44454 -25.2
      vertex 4.38406 -4.38406 -25.2
    endloop
  endfacet
  facet normal -0 0 -1
    outer loop
      vertex 6.08087 1.20956 -25.2
      vertex 4.16834 0.829133 -25.2
      vertex 5.72805 2.37264 -25.2
    endloop
  endfacet
  facet normal 0 0 -1
    outer loop
      vertex 3.92649 1.6264 -25.2
      vertex 5.72805 2.37264 -25.2
      vertex 4.16834 0.829133 -25.2
    endloop
  endfacet
  facet normal 0 0 -1
    outer loop
      vertex 6.08087 -1.20956 -25.2
      vertex 4.16834 -0.829133 -25.2
      vertex 4.25 0 -25.2
    endloop
  endfacet
  facet normal 0 0 -1
    outer loop
      vertex 5.72805 -2.37264 -25.2
      vertex 3.92649 -1.6264 -25.2
      vertex 4.16834 -0.829133 -25.2
    endloop
  endfacet
  facet normal 0 0 -1
    outer loop
      vertex 5.15511 -3.44454 -25.2
      vertex 3.53375 -2.36117 -25.2
      vertex 3.92649 -1.6264 -25.2
    endloop
  endfacet
  facet normal 0 0 -1
    outer loop
      vertex 3.0052 -3.0052 -25.2
      vertex 4.38406 -4.38406 -25.2
      vertex 3.44454 -5.15511 -25.2
    endloop
  endfacet
  facet normal 0 0 -1
    outer loop
      vertex 4.38406 -4.38406 -25.2
      vertex 3.0052 -3.0052 -25.2
      vertex 3.53375 -2.36117 -25.2
    endloop
  endfacet
  facet normal 0 0 -1
    outer loop
      vertex 2.36117 -3.53375 -25.2
      vertex 3.44454 -5.15511 -25.2
      vertex 2.37264 -5.72805 -25.2
    endloop
  endfacet
  facet normal 0 0 -1
    outer loop
      vertex 3.44454 -5.15511 -25.2
      vertex 2.36117 -3.53375 -25.2
      vertex 3.0052 -3.0052 -25.2
    endloop
  endfacet
  facet normal 0 0 -1
    outer loop
      vertex 2.37264 -5.72805 -25.2
      vertex 1.6264 -3.92649 -25.2
      vertex 2.36117 -3.53375 -25.2
    endloop
  endfacet
  facet normal 0 0 -1
    outer loop
      vertex 1.20956 -6.08087 -25.2
      vertex 1.6264 -3.92649 -25.2
      vertex 2.37264 -5.72805 -25.2
    endloop
  endfacet
  facet normal 0 0 -1
    outer loop
      vertex 1.20956 -6.08087 -25.2
      vertex 0.829133 -4.16834 -25.2
      vertex 1.6264 -3.92649 -25.2
    endloop
  endfacet
  facet normal 0 0 -1
    outer loop
      vertex 0 -6.2 -25.2
      vertex 0.829133 -4.16834 -25.2
      vertex 1.20956 -6.08087 -25.2
    endloop
  endfacet
  facet normal 0 0 -1
    outer loop
      vertex 0 -6.2 -25.2
      vertex 0 -4.25 -25.2
      vertex 0.829133 -4.16834 -25.2
    endloop
  endfacet
  facet normal 0 0 -1
    outer loop
      vertex 0 -6.2 -25.2
      vertex -0.829133 -4.16834 -25.2
      vertex 0 -4.25 -25.2
    endloop
  endfacet
  facet normal 0 0 -1
    outer loop
      vertex -1.20956 -6.08087 -25.2
      vertex -0.829133 -4.16834 -25.2
      vertex 0 -6.2 -25.2
    endloop
  endfacet
  facet normal 0 0 -1
    outer loop
      vertex -1.20956 -6.08087 -25.2
      vertex -1.6264 -3.92649 -25.2
      vertex -0.829133 -4.16834 -25.2
    endloop
  endfacet
  facet normal 0 0 -1
    outer loop
      vertex -2.37264 -5.72805 -25.2
      vertex -1.6264 -3.92649 -25.2
      vertex -1.20956 -6.08087 -25.2
    endloop
  endfacet
  facet normal -0 0 -1
    outer loop
      vertex -1.6264 -3.92649 -25.2
      vertex -2.37264 -5.72805 -25.2
      vertex -2.36117 -3.53375 -25.2
    endloop
  endfacet
  facet normal 0 0 -1
    outer loop
      vertex -3.44454 -5.15511 -25.2
      vertex -2.36117 -3.53375 -25.2
      vertex -2.37264 -5.72805 -25.2
    endloop
  endfacet
  facet normal -0 0 -1
    outer loop
      vertex -2.36117 -3.53375 -25.2
      vertex -3.44454 -5.15511 -25.2
      vertex -3.0052 -3.0052 -25.2
    endloop
  endfacet
  facet normal 0 0 -1
    outer loop
      vertex -4.38406 -4.38406 -25.2
      vertex -3.0052 -3.0052 -25.2
      vertex -3.44454 -5.15511 -25.2
    endloop
  endfacet
  facet normal -0 0 -1
    outer loop
      vertex -3.0052 -3.0052 -25.2
      vertex -4.38406 -4.38406 -25.2
      vertex -3.53375 -2.36117 -25.2
    endloop
  endfacet
  facet normal 0 0 -1
    outer loop
      vertex -5.15511 -3.44454 -25.2
      vertex -3.53375 -2.36117 -25.2
      vertex -4.38406 -4.38406 -25.2
    endloop
  endfacet
  facet normal 0 0 -1
    outer loop
      vertex -5.72805 -2.37264 -25.2
      vertex -3.92649 -1.6264 -25.2
      vertex -5.15511 -3.44454 -25.2
    endloop
  endfacet
  facet normal -0 0 -1
    outer loop
      vertex -3.53375 -2.36117 -25.2
      vertex -5.15511 -3.44454 -25.2
      vertex -3.92649 -1.6264 -25.2
    endloop
  endfacet
  facet normal -0 0 -1
    outer loop
      vertex 5.72805 2.37264 -25.2
      vertex 3.92649 1.6264 -25.2
      vertex 5.15511 3.44454 -25.2
    endloop
  endfacet
  facet normal 0 0 -1
    outer loop
      vertex 3.53375 2.36117 -25.2
      vertex 5.15511 3.44454 -25.2
      vertex 3.92649 1.6264 -25.2
    endloop
  endfacet
  facet normal -0 0 -1
    outer loop
      vertex 5.15511 3.44454 -25.2
      vertex 3.53375 2.36117 -25.2
      vertex 4.38406 4.38406 -25.2
    endloop
  endfacet
  facet normal 0 0 -1
    outer loop
      vertex 3.0052 3.0052 -25.2
      vertex 4.38406 4.38406 -25.2
      vertex 3.53375 2.36117 -25.2
    endloop
  endfacet
  facet normal -0 0 -1
    outer loop
      vertex 4.38406 4.38406 -25.2
      vertex 3.0052 3.0052 -25.2
      vertex 3.44454 5.15511 -25.2
    endloop
  endfacet
  facet normal 0 0 -1
    outer loop
      vertex 2.36117 3.53375 -25.2
      vertex 3.44454 5.15511 -25.2
      vertex 3.0052 3.0052 -25.2
    endloop
  endfacet
  facet normal -0 0 -1
    outer loop
      vertex 3.44454 5.15511 -25.2
      vertex 2.36117 3.53375 -25.2
      vertex 2.37264 5.72805 -25.2
    endloop
  endfacet
  facet normal 0 0 -1
    outer loop
      vertex 1.6264 3.92649 -25.2
      vertex 2.37264 5.72805 -25.2
      vertex 2.36117 3.53375 -25.2
    endloop
  endfacet
  facet normal 0 0 -1
    outer loop
      vertex 1.6264 3.92649 -25.2
      vertex 1.20956 6.08087 -25.2
      vertex 2.37264 5.72805 -25.2
    endloop
  endfacet
  facet normal 0 0 -1
    outer loop
      vertex 0.829133 4.16834 -25.2
      vertex 1.20956 6.08087 -25.2
      vertex 1.6264 3.92649 -25.2
    endloop
  endfacet
  facet normal 0 0 -1
    outer loop
      vertex 0 4.25 -25.2
      vertex 1.20956 6.08087 -25.2
      vertex 0.829133 4.16834 -25.2
    endloop
  endfacet
  facet normal 0 0 -1
    outer loop
      vertex 0 4.25 -25.2
      vertex 0 6.2 -25.2
      vertex 1.20956 6.08087 -25.2
    endloop
  endfacet
  facet normal 0 0 -1
    outer loop
      vertex -0.829133 4.16834 -25.2
      vertex 0 6.2 -25.2
      vertex 0 4.25 -25.2
    endloop
  endfacet
  facet normal 0 0 -1
    outer loop
      vertex -0.829133 4.16834 -25.2
      vertex -1.20956 6.08087 -25.2
      vertex 0 6.2 -25.2
    endloop
  endfacet
  facet normal 0 0 -1
    outer loop
      vertex -1.6264 3.92649 -25.2
      vertex -1.20956 6.08087 -25.2
      vertex -0.829133 4.16834 -25.2
    endloop
  endfacet
  facet normal 0 0 -1
    outer loop
      vertex -2.37264 5.72805 -25.2
      vertex -1.6264 3.92649 -25.2
      vertex -2.36117 3.53375 -25.2
    endloop
  endfacet
  facet normal 0 0 -1
    outer loop
      vertex -1.6264 3.92649 -25.2
      vertex -2.37264 5.72805 -25.2
      vertex -1.20956 6.08087 -25.2
    endloop
  endfacet
  facet normal 0 0 -1
    outer loop
      vertex -3.44454 5.15511 -25.2
      vertex -2.36117 3.53375 -25.2
      vertex -3.0052 3.0052 -25.2
    endloop
  endfacet
  facet normal 0 0 -1
    outer loop
      vertex -2.36117 3.53375 -25.2
      vertex -3.44454 5.15511 -25.2
      vertex -2.37264 5.72805 -25.2
    endloop
  endfacet
  facet normal 0 0 -1
    outer loop
      vertex -4.38406 4.38406 -25.2
      vertex -3.0052 3.0052 -25.2
      vertex -3.53375 2.36117 -25.2
    endloop
  endfacet
  facet normal 0 0 -1
    outer loop
      vertex -5.15511 3.44454 -25.2
      vertex -3.53375 2.36117 -25.2
      vertex -3.92649 1.6264 -25.2
    endloop
  endfacet
  facet normal 0 0 -1
    outer loop
      vertex -5.72805 2.37264 -25.2
      vertex -3.92649 1.6264 -25.2
      vertex -4.16834 0.829133 -25.2
    endloop
  endfacet
  facet normal 0 0 -1
    outer loop
      vertex -3.0052 3.0052 -25.2
      vertex -4.38406 4.38406 -25.2
      vertex -3.44454 5.15511 -25.2
    endloop
  endfacet
  facet normal 0 0 -1
    outer loop
      vertex -6.08087 1.20956 -25.2
      vertex -4.16834 0.829133 -25.2
      vertex -4.25 0 -25.2
    endloop
  endfacet
  facet normal -0 0 -1
    outer loop
      vertex -3.92649 -1.6264 -25.2
      vertex -5.72805 -2.37264 -25.2
      vertex -4.16834 -0.829133 -25.2
    endloop
  endfacet
  facet normal 0 0 -1
    outer loop
      vertex -6.08087 -1.20956 -25.2
      vertex -4.16834 -0.829133 -25.2
      vertex -5.72805 -2.37264 -25.2
    endloop
  endfacet
  facet normal 0 0 -1
    outer loop
      vertex -3.53375 2.36117 -25.2
      vertex -5.15511 3.44454 -25.2
      vertex -4.38406 4.38406 -25.2
    endloop
  endfacet
  facet normal -0 0 -1
    outer loop
      vertex -4.16834 -0.829133 -25.2
      vertex -6.08087 -1.20956 -25.2
      vertex -4.25 0 -25.2
    endloop
  endfacet
  facet normal 0 0 -1
    outer loop
      vertex -3.92649 1.6264 -25.2
      vertex -5.72805 2.37264 -25.2
      vertex -5.15511 3.44454 -25.2
    endloop
  endfacet
  facet normal 0 0 -1
    outer loop
      vertex -6.2 0 -25.2
      vertex -4.25 0 -25.2
      vertex -6.08087 -1.20956 -25.2
    endloop
  endfacet
  facet normal 0 0 -1
    outer loop
      vertex -4.16834 0.829133 -25.2
      vertex -6.08087 1.20956 -25.2
      vertex -5.72805 2.37264 -25.2
    endloop
  endfacet
  facet normal 0 0 -1
    outer loop
      vertex -4.25 0 -25.2
      vertex -6.2 0 -25.2
      vertex -6.08087 1.20956 -25.2
    endloop
  endfacet
  facet normal 0.290285 -0.95694 0
    outer loop
      vertex 2.37264 -5.72805 -25.2
      vertex 1.20956 -6.08087 -17.7
      vertex 1.20956 -6.08087 -25.2
    endloop
  endfacet
  facet normal 0.290285 -0.95694 0
    outer loop
      vertex 1.20956 -6.08087 -17.7
      vertex 2.37264 -5.72805 -25.2
      vertex 2.37264 -5.72805 -17.4116
    endloop
  endfacet
  facet normal 0.634393 -0.77301 0
    outer loop
      vertex 4.38406 -4.38406 -25.2
      vertex 3.44454 -5.15511 -17.1458
      vertex 3.44454 -5.15511 -25.2
    endloop
  endfacet
  facet normal 0.634393 -0.77301 0
    outer loop
      vertex 3.44454 -5.15511 -17.1458
      vertex 4.38406 -4.38406 -25.2
      vertex 4.38406 -4.38406 -16.9128
    endloop
  endfacet
  facet normal 0.77301 -0.634393 0
    outer loop
      vertex 4.38406 -4.38406 -16.9128
      vertex 5.15511 -3.44454 -25.2
      vertex 5.15511 -3.44454 -16.7215
    endloop
  endfacet
  facet normal 0.77301 -0.634393 0
    outer loop
      vertex 5.15511 -3.44454 -25.2
      vertex 4.38406 -4.38406 -16.9128
      vertex 4.38406 -4.38406 -25.2
    endloop
  endfacet
  facet normal 0.95694 -0.290285 0
    outer loop
      vertex 5.72805 -2.37264 -16.5794
      vertex 6.08087 -1.20956 -25.2
      vertex 6.08087 -1.20956 -16.4919
    endloop
  endfacet
  facet normal 0.95694 -0.290285 0
    outer loop
      vertex 6.08087 -1.20956 -25.2
      vertex 5.72805 -2.37264 -16.5794
      vertex 5.72805 -2.37264 -25.2
    endloop
  endfacet
  facet normal 0.995185 -0.098017 0
    outer loop
      vertex 6.08087 -1.20956 -16.4919
      vertex 6.2 0 -25.2
      vertex 6.2 0 -16.4624
    endloop
  endfacet
  facet normal 0.995185 -0.098017 0
    outer loop
      vertex 6.2 0 -25.2
      vertex 6.08087 -1.20956 -16.4919
      vertex 6.08087 -1.20956 -25.2
    endloop
  endfacet
  facet normal -0.634393 -0.77301 0
    outer loop
      vertex -4.38406 -4.38406 -25.2
      vertex -3.44454 -5.15511 -13
      vertex -4.38406 -4.38406 -13
    endloop
  endfacet
  facet normal -0.634393 -0.77301 -0
    outer loop
      vertex -3.44454 -5.15511 -13
      vertex -4.38406 -4.38406 -25.2
      vertex -3.44454 -5.15511 -25.2
    endloop
  endfacet
  facet normal -0.881921 -0.471397 0
    outer loop
      vertex -5.15511 -3.44454 -25.2
      vertex -5.72805 -2.37264 -13
      vertex -5.72805 -2.37264 -25.2
    endloop
  endfacet
  facet normal -0.881921 -0.471397 0
    outer loop
      vertex -5.72805 -2.37264 -13
      vertex -5.15511 -3.44454 -25.2
      vertex -5.15511 -3.44454 -13
    endloop
  endfacet
  facet normal -0.77301 -0.634393 0
    outer loop
      vertex -4.38406 -4.38406 -25.2
      vertex -5.15511 -3.44454 -13
      vertex -5.15511 -3.44454 -25.2
    endloop
  endfacet
  facet normal -0.77301 -0.634393 0
    outer loop
      vertex -5.15511 -3.44454 -13
      vertex -4.38406 -4.38406 -25.2
      vertex -4.38406 -4.38406 -13
    endloop
  endfacet
  facet normal 0.471397 -0.881921 0
    outer loop
      vertex 3.44454 -5.15511 -25.2
      vertex 2.37264 -5.72805 -17.4116
      vertex 2.37264 -5.72805 -25.2
    endloop
  endfacet
  facet normal 0.471397 -0.881921 0
    outer loop
      vertex 2.37264 -5.72805 -17.4116
      vertex 3.44454 -5.15511 -25.2
      vertex 3.44454 -5.15511 -17.1458
    endloop
  endfacet
  facet normal -0.290285 -0.95694 0
    outer loop
      vertex -2.37264 -5.72805 -25.2
      vertex -1.20956 -6.08087 -13
      vertex -2.37264 -5.72805 -13
    endloop
  endfacet
  facet normal -0.290285 -0.95694 -0
    outer loop
      vertex -1.20956 -6.08087 -13
      vertex -2.37264 -5.72805 -25.2
      vertex -1.20956 -6.08087 -25.2
    endloop
  endfacet
  facet normal -0.95694 -0.290285 0
    outer loop
      vertex -5.72805 -2.37264 -25.2
      vertex -6.08087 -1.20956 -13
      vertex -6.08087 -1.20956 -25.2
    endloop
  endfacet
  facet normal -0.95694 -0.290285 0
    outer loop
      vertex -6.08087 -1.20956 -13
      vertex -5.72805 -2.37264 -25.2
      vertex -5.72805 -2.37264 -13
    endloop
  endfacet
  facet normal -0.995185 -0.098017 0
    outer loop
      vertex -6.08087 -1.20956 -25.2
      vertex -6.2 0 -13
      vertex -6.2 0 -25.2
    endloop
  endfacet
  facet normal -0.995185 -0.098017 0
    outer loop
      vertex -6.2 0 -13
      vertex -6.08087 -1.20956 -25.2
      vertex -6.08087 -1.20956 -13
    endloop
  endfacet
  facet normal -0.098017 -0.995185 0
    outer loop
      vertex -1.20956 -6.08087 -13
      vertex 0 -6.2 -18
      vertex 0 -6.2 -13
    endloop
  endfacet
  facet normal -0.098017 -0.995185 0
    outer loop
      vertex -1.20956 -6.08087 -25.2
      vertex 0 -6.2 -18
      vertex -1.20956 -6.08087 -13
    endloop
  endfacet
  facet normal -0.098017 -0.995185 -0
    outer loop
      vertex 0 -6.2 -18
      vertex -1.20956 -6.08087 -25.2
      vertex 0 -6.2 -25.2
    endloop
  endfacet
  facet normal -0.471397 -0.881921 0
    outer loop
      vertex -3.44454 -5.15511 -25.2
      vertex -2.37264 -5.72805 -13
      vertex -3.44454 -5.15511 -13
    endloop
  endfacet
  facet normal -0.471397 -0.881921 -0
    outer loop
      vertex -2.37264 -5.72805 -13
      vertex -3.44454 -5.15511 -25.2
      vertex -2.37264 -5.72805 -25.2
    endloop
  endfacet
  facet normal 1 0 0
    outer loop
      vertex 12.5 1.87744 3.2365
      vertex 12.5 -3.10454 0.261489
      vertex 12.5 1.87744 0.26149
    endloop
  endfacet
  facet normal 1 0 0
    outer loop
      vertex 12.5 -3.71954 3.2365
      vertex 12.5 -3.10454 -0.676498
      vertex 12.5 -3.10454 0.261489
    endloop
  endfacet
  facet normal 1 0 0
    outer loop
      vertex 12.5 -5 -9.9
      vertex 12.5 -3.46954 -3.4375
      vertex 12.5 -3.71954 3.2365
    endloop
  endfacet
  facet normal 1 0 0
    outer loop
      vertex 12.5 -3.10454 -0.676498
      vertex 12.5 -3.71954 3.2365
      vertex 12.5 -3.46954 -3.4375
    endloop
  endfacet
  facet normal 1 -0 0
    outer loop
      vertex 12.5 -3.71954 3.2365
      vertex 12.5 -3.10454 0.261489
      vertex 12.5 1.87744 3.2365
    endloop
  endfacet
  facet normal 1 -0 0
    outer loop
      vertex 12.5 -3.10454 -0.676498
      vertex 12.5 1.87744 -3.4375
      vertex 12.5 1.87744 -0.676497
    endloop
  endfacet
  facet normal 1 0 0
    outer loop
      vertex 12.5 1.87744 -3.4375
      vertex 12.5 -3.10454 -0.676498
      vertex 12.5 -3.46954 -3.4375
    endloop
  endfacet
  facet normal 1 -0 0
    outer loop
      vertex 12.5 3.04144 4.1875
      vertex 12.5 5 -9.9
      vertex 12.5 5 11
    endloop
  endfacet
  facet normal 1 0 0
    outer loop
      vertex 12.5 -5 -9.9
      vertex 12.5 5 -9.9
      vertex 12.5 3.04144 -4.38849
    endloop
  endfacet
  facet normal 1 0 0
    outer loop
      vertex 12.5 5 -9.9
      vertex 12.5 3.04144 4.1875
      vertex 12.5 3.04144 -4.38849
    endloop
  endfacet
  facet normal 1 -0 0
    outer loop
      vertex 12.5 -5 11
      vertex 12.5 3.04144 4.1875
      vertex 12.5 5 11
    endloop
  endfacet
  facet normal 1 0 0
    outer loop
      vertex 12.5 -3.71954 4.1875
      vertex 12.5 -5 11
      vertex 12.5 -3.71954 3.2365
    endloop
  endfacet
  facet normal 1 0 0
    outer loop
      vertex 12.5 3.04144 4.1875
      vertex 12.5 -5 11
      vertex 12.5 -3.71954 4.1875
    endloop
  endfacet
  facet normal 1 0 0
    outer loop
      vertex 12.5 -5 -9.9
      vertex 12.5 3.04144 -4.38849
      vertex 12.5 -3.46954 -4.38849
    endloop
  endfacet
  facet normal 1 0 0
    outer loop
      vertex 12.5 -5 -9.9
      vertex 12.5 -3.71954 3.2365
      vertex 12.5 -5 11
    endloop
  endfacet
  facet normal 1 0 0
    outer loop
      vertex 12.5 -3.46954 -3.4375
      vertex 12.5 -5 -9.9
      vertex 12.5 -3.46954 -4.38849
    endloop
  endfacet
  facet normal 1 0 0
    outer loop
      vertex 12.5 5 -9.9
      vertex 12.5 -5 -9.9
      vertex 12.5 5 -14.9
    endloop
  endfacet
  facet normal 1 0 0
    outer loop
      vertex 12.5 5 -14.9
      vertex 12.5 -5 -9.9
      vertex 12.5 -5 -14.9
    endloop
  endfacet
  facet normal 0.240708 0 -0.970598
    outer loop
      vertex 12.5 -5 -14.9
      vertex 6.2 0 -16.4624
      vertex 12.5 5 -14.9
    endloop
  endfacet
  facet normal 0.240708 2.41064e-07 -0.970597
    outer loop
      vertex 12.5 -5 -14.9
      vertex 6.08087 -1.20956 -16.4919
      vertex 6.2 0 -16.4624
    endloop
  endfacet
  facet normal 0.240708 -4.04912e-07 -0.970598
    outer loop
      vertex 12.5 -5 -14.9
      vertex 5.72805 -2.37264 -16.5794
      vertex 6.08087 -1.20956 -16.4919
    endloop
  endfacet
  facet normal 0.240708 2.38816e-07 -0.970598
    outer loop
      vertex 12.5 -5 -14.9
      vertex 5.15511 -3.44454 -16.7215
      vertex 5.72805 -2.37264 -16.5794
    endloop
  endfacet
  facet normal 0.240708 -8.19229e-07 -0.970598
    outer loop
      vertex 12.5 -5 -14.9
      vertex 4.38406 -4.38406 -16.9128
      vertex 5.15511 -3.44454 -16.7215
    endloop
  endfacet
  facet normal 0.240708 1.3323e-06 -0.970598
    outer loop
      vertex 12.5 -5 -14.9
      vertex 3.44454 -5.15511 -17.1458
      vertex 4.38406 -4.38406 -16.9128
    endloop
  endfacet
  facet normal 0.240708 -3.01838e-06 -0.970598
    outer loop
      vertex 12.5 -5 -14.9
      vertex 2.37264 -5.72805 -17.4116
      vertex 3.44454 -5.15511 -17.1458
    endloop
  endfacet
  facet normal 0.240708 5.55619e-06 -0.970598
    outer loop
      vertex 12.5 -5 -14.9
      vertex 1.20956 -6.08087 -17.7
      vertex 2.37264 -5.72805 -17.4116
    endloop
  endfacet
  facet normal 0.24071 -1.90266e-05 -0.970597
    outer loop
      vertex 1.20956 -6.08087 -17.7
      vertex 12.5 -5 -14.9
      vertex 0 -6.2 -18
    endloop
  endfacet
  facet normal 0.240708 -2.41064e-07 -0.970597
    outer loop
      vertex 6.08087 1.20956 -16.4919
      vertex 12.5 5 -14.9
      vertex 6.2 0 -16.4624
    endloop
  endfacet
  facet normal 0.240708 4.04912e-07 -0.970598
    outer loop
      vertex 5.72805 2.37264 -16.5794
      vertex 12.5 5 -14.9
      vertex 6.08087 1.20956 -16.4919
    endloop
  endfacet
  facet normal 0.240708 -2.38816e-07 -0.970598
    outer loop
      vertex 5.15511 3.44454 -16.7215
      vertex 12.5 5 -14.9
      vertex 5.72805 2.37264 -16.5794
    endloop
  endfacet
  facet normal 0.240708 8.19229e-07 -0.970598
    outer loop
      vertex 4.38406 4.38406 -16.9128
      vertex 12.5 5 -14.9
      vertex 5.15511 3.44454 -16.7215
    endloop
  endfacet
  facet normal 0.240708 -1.3323e-06 -0.970598
    outer loop
      vertex 3.44454 5.15511 -17.1458
      vertex 12.5 5 -14.9
      vertex 4.38406 4.38406 -16.9128
    endloop
  endfacet
  facet normal 0.240708 3.01838e-06 -0.970598
    outer loop
      vertex 2.37264 5.72805 -17.4116
      vertex 12.5 5 -14.9
      vertex 3.44454 5.15511 -17.1458
    endloop
  endfacet
  facet normal 0.240708 -5.55619e-06 -0.970598
    outer loop
      vertex 1.20956 6.08087 -17.7
      vertex 12.5 5 -14.9
      vertex 2.37264 5.72805 -17.4116
    endloop
  endfacet
  facet normal 0.24071 1.90266e-05 -0.970597
    outer loop
      vertex 12.5 5 -14.9
      vertex 1.20956 6.08087 -17.7
      vertex 0 6.2 -18
    endloop
  endfacet
  facet normal -0.240708 0 0.970598
    outer loop
      vertex 7.5 5 -11.14
      vertex 0 6.2 -13
      vertex 7.5 -5 -11.14
    endloop
  endfacet
  facet normal -0.240708 0 0.970598
    outer loop
      vertex 0 6.2 -13
      vertex 7.5 5 -11.14
      vertex 12.5 5 -9.9
    endloop
  endfacet
  facet normal -0.240708 0 0.970598
    outer loop
      vertex 7.5 -5 -11.14
      vertex 0 -6.2 -13
      vertex 12.5 -5 -9.9
    endloop
  endfacet
  facet normal -0.240708 0 0.970598
    outer loop
      vertex 0 -6.2 -13
      vertex 7.5 -5 -11.14
      vertex 0 6.2 -13
    endloop
  endfacet
  facet normal 0.0955607 0.995424 -0
    outer loop
      vertex 12.5 5 -14.9
      vertex 0 6.2 -13
      vertex 12.5 5 -9.9
    endloop
  endfacet
  facet normal 0.0955607 0.995424 0
    outer loop
      vertex 0 6.2 -13
      vertex 12.5 5 -14.9
      vertex 0 6.2 -18
    endloop
  endfacet
  facet normal 0.0955607 -0.995424 0
    outer loop
      vertex 0 -6.2 -13
      vertex 12.5 -5 -14.9
      vertex 12.5 -5 -9.9
    endloop
  endfacet
  facet normal 0.0955607 -0.995424 0
    outer loop
      vertex 12.5 -5 -14.9
      vertex 0 -6.2 -13
      vertex 0 -6.2 -18
    endloop
  endfacet
  facet normal -0.995185 -0.0980179 0
    outer loop
      vertex 4.25 0 -25.2
      vertex 4.16834 0.829133 -15.2
      vertex 4.16834 0.829133 -25.2
    endloop
  endfacet
  facet normal -0.995185 -0.0980179 0
    outer loop
      vertex 4.16834 0.829133 -15.2
      vertex 4.25 0 -25.2
      vertex 4.25 0 -15.2
    endloop
  endfacet
  facet normal 0.995185 -0.0980179 0
    outer loop
      vertex -4.25 0 -15.2
      vertex -4.16834 0.829133 -25.2
      vertex -4.16834 0.829133 -15.2
    endloop
  endfacet
  facet normal 0.995185 -0.0980179 0
    outer loop
      vertex -4.16834 0.829133 -25.2
      vertex -4.25 0 -15.2
      vertex -4.25 0 -25.2
    endloop
  endfacet
  facet normal -0.0980179 -0.995185 0
    outer loop
      vertex 0 4.25 -25.2
      vertex 0.829133 4.16834 -15.2
      vertex 0 4.25 -15.2
    endloop
  endfacet
  facet normal -0.0980179 -0.995185 -0
    outer loop
      vertex 0.829133 4.16834 -15.2
      vertex 0 4.25 -25.2
      vertex 0.829133 4.16834 -25.2
    endloop
  endfacet
  facet normal -0.634393 -0.77301 0
    outer loop
      vertex 2.36117 3.53375 -25.2
      vertex 3.0052 3.0052 -15.2
      vertex 2.36117 3.53375 -15.2
    endloop
  endfacet
  facet normal -0.634393 -0.77301 -0
    outer loop
      vertex 3.0052 3.0052 -15.2
      vertex 2.36117 3.53375 -25.2
      vertex 3.0052 3.0052 -25.2
    endloop
  endfacet
  facet normal -0.471397 -0.881921 0
    outer loop
      vertex 1.6264 3.92649 -25.2
      vertex 2.36117 3.53375 -15.2
      vertex 1.6264 3.92649 -15.2
    endloop
  endfacet
  facet normal -0.471397 -0.881921 -0
    outer loop
      vertex 2.36117 3.53375 -15.2
      vertex 1.6264 3.92649 -25.2
      vertex 2.36117 3.53375 -25.2
    endloop
  endfacet
  facet normal 0.634393 -0.77301 0
    outer loop
      vertex -3.0052 3.0052 -25.2
      vertex -2.36117 3.53375 -15.2
      vertex -3.0052 3.0052 -15.2
    endloop
  endfacet
  facet normal 0.634393 -0.77301 0
    outer loop
      vertex -2.36117 3.53375 -15.2
      vertex -3.0052 3.0052 -25.2
      vertex -2.36117 3.53375 -25.2
    endloop
  endfacet
  facet normal 0.290284 -0.956941 0
    outer loop
      vertex -1.6264 3.92649 -25.2
      vertex -0.829133 4.16834 -15.2
      vertex -1.6264 3.92649 -15.2
    endloop
  endfacet
  facet normal 0.290284 -0.956941 0
    outer loop
      vertex -0.829133 4.16834 -15.2
      vertex -1.6264 3.92649 -25.2
      vertex -0.829133 4.16834 -25.2
    endloop
  endfacet
  facet normal -0.77301 0.634393 0
    outer loop
      vertex 3.0052 -3.0052 -25.2
      vertex 3.53375 -2.36117 -15.2
      vertex 3.53375 -2.36117 -25.2
    endloop
  endfacet
  facet normal -0.77301 0.634393 0
    outer loop
      vertex 3.53375 -2.36117 -15.2
      vertex 3.0052 -3.0052 -25.2
      vertex 3.0052 -3.0052 -15.2
    endloop
  endfacet
  facet normal -0.881921 0.471397 0
    outer loop
      vertex 3.53375 -2.36117 -25.2
      vertex 3.92649 -1.6264 -15.2
      vertex 3.92649 -1.6264 -25.2
    endloop
  endfacet
  facet normal -0.881921 0.471397 0
    outer loop
      vertex 3.92649 -1.6264 -15.2
      vertex 3.53375 -2.36117 -25.2
      vertex 3.53375 -2.36117 -15.2
    endloop
  endfacet
  facet normal -0.881921 -0.471397 0
    outer loop
      vertex 3.92649 1.6264 -25.2
      vertex 3.53375 2.36117 -15.2
      vertex 3.53375 2.36117 -25.2
    endloop
  endfacet
  facet normal -0.881921 -0.471397 0
    outer loop
      vertex 3.53375 2.36117 -15.2
      vertex 3.92649 1.6264 -25.2
      vertex 3.92649 1.6264 -15.2
    endloop
  endfacet
  facet normal -0.956941 -0.290284 0
    outer loop
      vertex 4.16834 0.829133 -25.2
      vertex 3.92649 1.6264 -15.2
      vertex 3.92649 1.6264 -25.2
    endloop
  endfacet
  facet normal -0.956941 -0.290284 0
    outer loop
      vertex 3.92649 1.6264 -15.2
      vertex 4.16834 0.829133 -25.2
      vertex 4.16834 0.829133 -15.2
    endloop
  endfacet
  facet normal -0.77301 -0.634393 0
    outer loop
      vertex 3.53375 2.36117 -25.2
      vertex 3.0052 3.0052 -15.2
      vertex 3.0052 3.0052 -25.2
    endloop
  endfacet
  facet normal -0.77301 -0.634393 0
    outer loop
      vertex 3.0052 3.0052 -15.2
      vertex 3.53375 2.36117 -25.2
      vertex 3.53375 2.36117 -15.2
    endloop
  endfacet
  facet normal -0.290284 -0.956941 0
    outer loop
      vertex 0.829133 4.16834 -25.2
      vertex 1.6264 3.92649 -15.2
      vertex 0.829133 4.16834 -15.2
    endloop
  endfacet
  facet normal -0.290284 -0.956941 -0
    outer loop
      vertex 1.6264 3.92649 -15.2
      vertex 0.829133 4.16834 -25.2
      vertex 1.6264 3.92649 -25.2
    endloop
  endfacet
  facet normal 0.881921 -0.471397 0
    outer loop
      vertex -3.92649 1.6264 -15.2
      vertex -3.53375 2.36117 -25.2
      vertex -3.53375 2.36117 -15.2
    endloop
  endfacet
  facet normal 0.881921 -0.471397 0
    outer loop
      vertex -3.53375 2.36117 -25.2
      vertex -3.92649 1.6264 -15.2
      vertex -3.92649 1.6264 -25.2
    endloop
  endfacet
  facet normal 0.77301 -0.634393 0
    outer loop
      vertex -3.53375 2.36117 -15.2
      vertex -3.0052 3.0052 -25.2
      vertex -3.0052 3.0052 -15.2
    endloop
  endfacet
  facet normal 0.77301 -0.634393 0
    outer loop
      vertex -3.0052 3.0052 -25.2
      vertex -3.53375 2.36117 -15.2
      vertex -3.53375 2.36117 -25.2
    endloop
  endfacet
  facet normal 0.956941 -0.290284 0
    outer loop
      vertex -4.16834 0.829133 -15.2
      vertex -3.92649 1.6264 -25.2
      vertex -3.92649 1.6264 -15.2
    endloop
  endfacet
  facet normal 0.956941 -0.290284 0
    outer loop
      vertex -3.92649 1.6264 -25.2
      vertex -4.16834 0.829133 -15.2
      vertex -4.16834 0.829133 -25.2
    endloop
  endfacet
  facet normal 0 0 -1
    outer loop
      vertex 4.16834 -0.829133 -15.2
      vertex 4.16834 0.829133 -15.2
      vertex 4.25 0 -15.2
    endloop
  endfacet
  facet normal 0 0 -1
    outer loop
      vertex 3.92649 -1.6264 -15.2
      vertex 4.16834 0.829133 -15.2
      vertex 4.16834 -0.829133 -15.2
    endloop
  endfacet
  facet normal 0 0 -1
    outer loop
      vertex 3.92649 -1.6264 -15.2
      vertex 3.92649 1.6264 -15.2
      vertex 4.16834 0.829133 -15.2
    endloop
  endfacet
  facet normal 0 0 -1
    outer loop
      vertex 3.53375 -2.36117 -15.2
      vertex 3.92649 1.6264 -15.2
      vertex 3.92649 -1.6264 -15.2
    endloop
  endfacet
  facet normal 0 0 -1
    outer loop
      vertex 3.53375 -2.36117 -15.2
      vertex 3.53375 2.36117 -15.2
      vertex 3.92649 1.6264 -15.2
    endloop
  endfacet
  facet normal 0 0 -1
    outer loop
      vertex 3.0052 -3.0052 -15.2
      vertex 3.53375 2.36117 -15.2
      vertex 3.53375 -2.36117 -15.2
    endloop
  endfacet
  facet normal 0 0 -1
    outer loop
      vertex 3.0052 -3.0052 -15.2
      vertex 3.0052 3.0052 -15.2
      vertex 3.53375 2.36117 -15.2
    endloop
  endfacet
  facet normal 0 0 -1
    outer loop
      vertex 2.36117 -3.53375 -15.2
      vertex 3.0052 3.0052 -15.2
      vertex 3.0052 -3.0052 -15.2
    endloop
  endfacet
  facet normal 0 0 -1
    outer loop
      vertex 2.36117 -3.53375 -15.2
      vertex 2.36117 3.53375 -15.2
      vertex 3.0052 3.0052 -15.2
    endloop
  endfacet
  facet normal 0 0 -1
    outer loop
      vertex 1.6264 -3.92649 -15.2
      vertex 2.36117 3.53375 -15.2
      vertex 2.36117 -3.53375 -15.2
    endloop
  endfacet
  facet normal 0 0 -1
    outer loop
      vertex 1.6264 -3.92649 -15.2
      vertex 1.6264 3.92649 -15.2
      vertex 2.36117 3.53375 -15.2
    endloop
  endfacet
  facet normal 0 0 -1
    outer loop
      vertex 0.829133 -4.16834 -15.2
      vertex 1.6264 3.92649 -15.2
      vertex 1.6264 -3.92649 -15.2
    endloop
  endfacet
  facet normal 0 0 -1
    outer loop
      vertex 0.829133 -4.16834 -15.2
      vertex 0.829133 4.16834 -15.2
      vertex 1.6264 3.92649 -15.2
    endloop
  endfacet
  facet normal 0 0 -1
    outer loop
      vertex 0 -4.25 -15.2
      vertex 0.829133 4.16834 -15.2
      vertex 0.829133 -4.16834 -15.2
    endloop
  endfacet
  facet normal 0 0 -1
    outer loop
      vertex 0 -4.25 -15.2
      vertex 0 4.25 -15.2
      vertex 0.829133 4.16834 -15.2
    endloop
  endfacet
  facet normal 0 0 -1
    outer loop
      vertex -0.829133 -4.16834 -15.2
      vertex 0 4.25 -15.2
      vertex 0 -4.25 -15.2
    endloop
  endfacet
  facet normal 0 0 -1
    outer loop
      vertex -0.829133 -4.16834 -15.2
      vertex -0.829133 4.16834 -15.2
      vertex 0 4.25 -15.2
    endloop
  endfacet
  facet normal 0 0 -1
    outer loop
      vertex -1.6264 -3.92649 -15.2
      vertex -0.829133 4.16834 -15.2
      vertex -0.829133 -4.16834 -15.2
    endloop
  endfacet
  facet normal 0 0 -1
    outer loop
      vertex -1.6264 -3.92649 -15.2
      vertex -1.6264 3.92649 -15.2
      vertex -0.829133 4.16834 -15.2
    endloop
  endfacet
  facet normal 0 0 -1
    outer loop
      vertex -2.36117 -3.53375 -15.2
      vertex -1.6264 3.92649 -15.2
      vertex -1.6264 -3.92649 -15.2
    endloop
  endfacet
  facet normal 0 0 -1
    outer loop
      vertex -2.36117 -3.53375 -15.2
      vertex -2.36117 3.53375 -15.2
      vertex -1.6264 3.92649 -15.2
    endloop
  endfacet
  facet normal 0 0 -1
    outer loop
      vertex -3.0052 -3.0052 -15.2
      vertex -2.36117 3.53375 -15.2
      vertex -2.36117 -3.53375 -15.2
    endloop
  endfacet
  facet normal 0 0 -1
    outer loop
      vertex -3.0052 -3.0052 -15.2
      vertex -3.0052 3.0052 -15.2
      vertex -2.36117 3.53375 -15.2
    endloop
  endfacet
  facet normal 0 0 -1
    outer loop
      vertex -3.53375 -2.36117 -15.2
      vertex -3.0052 3.0052 -15.2
      vertex -3.0052 -3.0052 -15.2
    endloop
  endfacet
  facet normal 0 0 -1
    outer loop
      vertex -3.53375 -2.36117 -15.2
      vertex -3.53375 2.36117 -15.2
      vertex -3.0052 3.0052 -15.2
    endloop
  endfacet
  facet normal 0 0 -1
    outer loop
      vertex -3.92649 -1.6264 -15.2
      vertex -3.53375 2.36117 -15.2
      vertex -3.53375 -2.36117 -15.2
    endloop
  endfacet
  facet normal 0 0 -1
    outer loop
      vertex -3.92649 -1.6264 -15.2
      vertex -3.92649 1.6264 -15.2
      vertex -3.53375 2.36117 -15.2
    endloop
  endfacet
  facet normal 0 0 -1
    outer loop
      vertex -4.16834 -0.829133 -15.2
      vertex -3.92649 1.6264 -15.2
      vertex -3.92649 -1.6264 -15.2
    endloop
  endfacet
  facet normal 0 0 -1
    outer loop
      vertex -4.16834 -0.829133 -15.2
      vertex -4.16834 0.829133 -15.2
      vertex -3.92649 1.6264 -15.2
    endloop
  endfacet
  facet normal 0 -0 -1
    outer loop
      vertex -4.16834 0.829133 -15.2
      vertex -4.16834 -0.829133 -15.2
      vertex -4.25 0 -15.2
    endloop
  endfacet
  facet normal 0.471397 -0.881921 0
    outer loop
      vertex -2.36117 3.53375 -25.2
      vertex -1.6264 3.92649 -15.2
      vertex -2.36117 3.53375 -15.2
    endloop
  endfacet
  facet normal 0.471397 -0.881921 0
    outer loop
      vertex -1.6264 3.92649 -15.2
      vertex -2.36117 3.53375 -25.2
      vertex -1.6264 3.92649 -25.2
    endloop
  endfacet
  facet normal 0.0980179 -0.995185 0
    outer loop
      vertex -0.829133 4.16834 -25.2
      vertex 0 4.25 -15.2
      vertex -0.829133 4.16834 -15.2
    endloop
  endfacet
  facet normal 0.0980179 -0.995185 0
    outer loop
      vertex 0 4.25 -15.2
      vertex -0.829133 4.16834 -25.2
      vertex 0 4.25 -25.2
    endloop
  endfacet
  facet normal -0.995185 0.0980179 0
    outer loop
      vertex 4.16834 -0.829133 -25.2
      vertex 4.25 0 -15.2
      vertex 4.25 0 -25.2
    endloop
  endfacet
  facet normal -0.995185 0.0980179 0
    outer loop
      vertex 4.25 0 -15.2
      vertex 4.16834 -0.829133 -25.2
      vertex 4.16834 -0.829133 -15.2
    endloop
  endfacet
  facet normal -0.634393 0.77301 0
    outer loop
      vertex 3.0052 -3.0052 -25.2
      vertex 2.36117 -3.53375 -15.2
      vertex 3.0052 -3.0052 -15.2
    endloop
  endfacet
  facet normal -0.634393 0.77301 0
    outer loop
      vertex 2.36117 -3.53375 -15.2
      vertex 3.0052 -3.0052 -25.2
      vertex 2.36117 -3.53375 -25.2
    endloop
  endfacet
  facet normal 0.634393 0.77301 -0
    outer loop
      vertex -2.36117 -3.53375 -25.2
      vertex -3.0052 -3.0052 -15.2
      vertex -2.36117 -3.53375 -15.2
    endloop
  endfacet
  facet normal 0.634393 0.77301 0
    outer loop
      vertex -3.0052 -3.0052 -15.2
      vertex -2.36117 -3.53375 -25.2
      vertex -3.0052 -3.0052 -25.2
    endloop
  endfacet
  facet normal 0.290284 0.956941 -0
    outer loop
      vertex -0.829133 -4.16834 -25.2
      vertex -1.6264 -3.92649 -15.2
      vertex -0.829133 -4.16834 -15.2
    endloop
  endfacet
  facet normal 0.290284 0.956941 0
    outer loop
      vertex -1.6264 -3.92649 -15.2
      vertex -0.829133 -4.16834 -25.2
      vertex -1.6264 -3.92649 -25.2
    endloop
  endfacet
  facet normal 0.881921 0.471397 0
    outer loop
      vertex -3.53375 -2.36117 -15.2
      vertex -3.92649 -1.6264 -25.2
      vertex -3.92649 -1.6264 -15.2
    endloop
  endfacet
  facet normal 0.881921 0.471397 0
    outer loop
      vertex -3.92649 -1.6264 -25.2
      vertex -3.53375 -2.36117 -15.2
      vertex -3.53375 -2.36117 -25.2
    endloop
  endfacet
  facet normal 0.77301 0.634393 0
    outer loop
      vertex -3.0052 -3.0052 -15.2
      vertex -3.53375 -2.36117 -25.2
      vertex -3.53375 -2.36117 -15.2
    endloop
  endfacet
  facet normal 0.77301 0.634393 0
    outer loop
      vertex -3.53375 -2.36117 -25.2
      vertex -3.0052 -3.0052 -15.2
      vertex -3.0052 -3.0052 -25.2
    endloop
  endfacet
  facet normal 0.995185 0.0980179 0
    outer loop
      vertex -4.16834 -0.829133 -15.2
      vertex -4.25 0 -25.2
      vertex -4.25 0 -15.2
    endloop
  endfacet
  facet normal 0.995185 0.0980179 0
    outer loop
      vertex -4.25 0 -25.2
      vertex -4.16834 -0.829133 -15.2
      vertex -4.16834 -0.829133 -25.2
    endloop
  endfacet
  facet normal -0.0980179 0.995185 0
    outer loop
      vertex 0.829133 -4.16834 -25.2
      vertex 0 -4.25 -15.2
      vertex 0.829133 -4.16834 -15.2
    endloop
  endfacet
  facet normal -0.0980179 0.995185 0
    outer loop
      vertex 0 -4.25 -15.2
      vertex 0.829133 -4.16834 -25.2
      vertex 0 -4.25 -25.2
    endloop
  endfacet
  facet normal -0.471397 0.881921 0
    outer loop
      vertex 2.36117 -3.53375 -25.2
      vertex 1.6264 -3.92649 -15.2
      vertex 2.36117 -3.53375 -15.2
    endloop
  endfacet
  facet normal -0.471397 0.881921 0
    outer loop
      vertex 1.6264 -3.92649 -15.2
      vertex 2.36117 -3.53375 -25.2
      vertex 1.6264 -3.92649 -25.2
    endloop
  endfacet
  facet normal -0.956941 0.290284 0
    outer loop
      vertex 3.92649 -1.6264 -25.2
      vertex 4.16834 -0.829133 -15.2
      vertex 4.16834 -0.829133 -25.2
    endloop
  endfacet
  facet normal -0.956941 0.290284 0
    outer loop
      vertex 4.16834 -0.829133 -15.2
      vertex 3.92649 -1.6264 -25.2
      vertex 3.92649 -1.6264 -15.2
    endloop
  endfacet
  facet normal 0.471397 0.881921 -0
    outer loop
      vertex -1.6264 -3.92649 -25.2
      vertex -2.36117 -3.53375 -15.2
      vertex -1.6264 -3.92649 -15.2
    endloop
  endfacet
  facet normal 0.471397 0.881921 0
    outer loop
      vertex -2.36117 -3.53375 -15.2
      vertex -1.6264 -3.92649 -25.2
      vertex -2.36117 -3.53375 -25.2
    endloop
  endfacet
  facet normal 0.0980179 0.995185 -0
    outer loop
      vertex 0 -4.25 -25.2
      vertex -0.829133 -4.16834 -15.2
      vertex 0 -4.25 -15.2
    endloop
  endfacet
  facet normal 0.0980179 0.995185 0
    outer loop
      vertex -0.829133 -4.16834 -15.2
      vertex 0 -4.25 -25.2
      vertex -0.829133 -4.16834 -25.2
    endloop
  endfacet
  facet normal 0.956941 0.290284 0
    outer loop
      vertex -3.92649 -1.6264 -15.2
      vertex -4.16834 -0.829133 -25.2
      vertex -4.16834 -0.829133 -15.2
    endloop
  endfacet
  facet normal 0.956941 0.290284 0
    outer loop
      vertex -4.16834 -0.829133 -25.2
      vertex -3.92649 -1.6264 -15.2
      vertex -3.92649 -1.6264 -25.2
    endloop
  endfacet
  facet normal -0.290284 0.956941 0
    outer loop
      vertex 1.6264 -3.92649 -25.2
      vertex 0.829133 -4.16834 -15.2
      vertex 1.6264 -3.92649 -15.2
    endloop
  endfacet
  facet normal -0.290284 0.956941 0
    outer loop
      vertex 0.829133 -4.16834 -15.2
      vertex 1.6264 -3.92649 -25.2
      vertex 0.829133 -4.16834 -25.2
    endloop
  endfacet
  facet normal -1 0 0
    outer loop
      vertex 7.5 -5 -11.14
      vertex 7.5 5 8.5
      vertex 7.5 5 -11.14
    endloop
  endfacet
  facet normal -1 -0 0
    outer loop
      vertex 7.5 5 8.5
      vertex 7.5 -5 -11.14
      vertex 7.5 -5 8.5
    endloop
  endfacet
  facet normal 1 0 0
    outer loop
      vertex 13 1.87744 0.26149
      vertex 13 3.04144 4.1875
      vertex 13 1.87744 3.2365
    endloop
  endfacet
  facet normal 1 -0 0
    outer loop
      vertex 13 -3.71954 4.1875
      vertex 13 1.87744 3.2365
      vertex 13 3.04144 4.1875
    endloop
  endfacet
  facet normal 1 0 0
    outer loop
      vertex 13 1.87744 3.2365
      vertex 13 -3.71954 4.1875
      vertex 13 -3.71954 3.2365
    endloop
  endfacet
  facet normal 1 -0 0
    outer loop
      vertex 13 1.87744 -0.676497
      vertex 13 3.04144 -4.38849
      vertex 13 3.04144 4.1875
    endloop
  endfacet
  facet normal 1 -0 0
    outer loop
      vertex 13 1.87744 -3.4375
      vertex 13 3.04144 -4.38849
      vertex 13 1.87744 -0.676497
    endloop
  endfacet
  facet normal 1 0 0
    outer loop
      vertex 13 -3.46954 -4.38849
      vertex 13 1.87744 -3.4375
      vertex 13 -3.46954 -3.4375
    endloop
  endfacet
  facet normal 1 0 0
    outer loop
      vertex 13 1.87744 -3.4375
      vertex 13 -3.46954 -4.38849
      vertex 13 3.04144 -4.38849
    endloop
  endfacet
  facet normal 1 0 0
    outer loop
      vertex 13 3.04144 4.1875
      vertex 13 1.87744 0.26149
      vertex 13 1.87744 -0.676497
    endloop
  endfacet
  facet normal 1 -0 0
    outer loop
      vertex 13 -3.10454 0.261489
      vertex 13 1.87744 -0.676497
      vertex 13 1.87744 0.26149
    endloop
  endfacet
  facet normal 1 0 0
    outer loop
      vertex 13 1.87744 -0.676497
      vertex 13 -3.10454 0.261489
      vertex 13 -3.10454 -0.676498
    endloop
  endfacet
  facet normal 0 0 -1
    outer loop
      vertex 12.5 -3.71954 3.2365
      vertex 13 1.87744 3.2365
      vertex 13 -3.71954 3.2365
    endloop
  endfacet
  facet normal -0 0 -1
    outer loop
      vertex 13 1.87744 3.2365
      vertex 12.5 -3.71954 3.2365
      vertex 12.5 1.87744 3.2365
    endloop
  endfacet
  facet normal 0 -1 0
    outer loop
      vertex 12.5 1.87744 0.26149
      vertex 13 1.87744 3.2365
      vertex 12.5 1.87744 3.2365
    endloop
  endfacet
  facet normal 0 -1 -0
    outer loop
      vertex 13 1.87744 3.2365
      vertex 12.5 1.87744 0.26149
      vertex 13 1.87744 0.26149
    endloop
  endfacet
  facet normal 0 -1.91425e-07 1
    outer loop
      vertex 12.5 1.87744 0.26149
      vertex 13 -3.10454 0.261489
      vertex 13 1.87744 0.26149
    endloop
  endfacet
  facet normal 0 -1.91425e-07 1
    outer loop
      vertex 13 -3.10454 0.261489
      vertex 12.5 1.87744 0.26149
      vertex 12.5 -3.10454 0.261489
    endloop
  endfacet
  facet normal 0 -1 0
    outer loop
      vertex 12.5 -3.10454 -0.676498
      vertex 13 -3.10454 0.261489
      vertex 12.5 -3.10454 0.261489
    endloop
  endfacet
  facet normal 0 -1 -0
    outer loop
      vertex 13 -3.10454 0.261489
      vertex 12.5 -3.10454 -0.676498
      vertex 13 -3.10454 -0.676498
    endloop
  endfacet
  facet normal 0 1.91425e-07 -1
    outer loop
      vertex 12.5 -3.10454 -0.676498
      vertex 13 1.87744 -0.676497
      vertex 13 -3.10454 -0.676498
    endloop
  endfacet
  facet normal 0 1.91425e-07 -1
    outer loop
      vertex 13 1.87744 -0.676497
      vertex 12.5 -3.10454 -0.676498
      vertex 12.5 1.87744 -0.676497
    endloop
  endfacet
  facet normal 0 -1 0
    outer loop
      vertex 12.5 1.87744 -3.4375
      vertex 13 1.87744 -0.676497
      vertex 12.5 1.87744 -0.676497
    endloop
  endfacet
  facet normal 0 -1 -0
    outer loop
      vertex 13 1.87744 -0.676497
      vertex 12.5 1.87744 -3.4375
      vertex 13 1.87744 -3.4375
    endloop
  endfacet
  facet normal 0 -1.78357e-07 1
    outer loop
      vertex 12.5 1.87744 -3.4375
      vertex 13 -3.46954 -3.4375
      vertex 13 1.87744 -3.4375
    endloop
  endfacet
  facet normal 0 -1.78357e-07 1
    outer loop
      vertex 13 -3.46954 -3.4375
      vertex 12.5 1.87744 -3.4375
      vertex 12.5 -3.46954 -3.4375
    endloop
  endfacet
  facet normal 0 -1 0
    outer loop
      vertex 12.5 -3.46954 -4.38849
      vertex 13 -3.46954 -3.4375
      vertex 12.5 -3.46954 -3.4375
    endloop
  endfacet
  facet normal 0 -1 -0
    outer loop
      vertex 13 -3.46954 -3.4375
      vertex 12.5 -3.46954 -4.38849
      vertex 13 -3.46954 -4.38849
    endloop
  endfacet
  facet normal 0 0 -1
    outer loop
      vertex 12.5 -3.46954 -4.38849
      vertex 13 3.04144 -4.38849
      vertex 13 -3.46954 -4.38849
    endloop
  endfacet
  facet normal -0 0 -1
    outer loop
      vertex 13 3.04144 -4.38849
      vertex 12.5 -3.46954 -4.38849
      vertex 12.5 3.04144 -4.38849
    endloop
  endfacet
  facet normal 0 1 1.11203e-07
    outer loop
      vertex 13 3.04144 -4.38849
      vertex 12.5 3.04144 4.1875
      vertex 13 3.04144 4.1875
    endloop
  endfacet
  facet normal 0 1 1.11203e-07
    outer loop
      vertex 12.5 3.04144 4.1875
      vertex 13 3.04144 -4.38849
      vertex 12.5 3.04144 -4.38849
    endloop
  endfacet
  facet normal -0 0 1
    outer loop
      vertex 12.5 3.04144 4.1875
      vertex 13 -3.71954 4.1875
      vertex 13 3.04144 4.1875
    endloop
  endfacet
  facet normal 0 0 1
    outer loop
      vertex 13 -3.71954 4.1875
      vertex 12.5 3.04144 4.1875
      vertex 12.5 -3.71954 4.1875
    endloop
  endfacet
  facet normal 0 -1 0
    outer loop
      vertex 12.5 -3.71954 3.2365
      vertex 13 -3.71954 4.1875
      vertex 12.5 -3.71954 4.1875
    endloop
  endfacet
  facet normal 0 -1 -0
    outer loop
      vertex 13 -3.71954 4.1875
      vertex 12.5 -3.71954 3.2365
      vertex 13 -3.71954 3.2365
    endloop
  endfacet
  facet normal 0.995185 -0 0.0980187
    outer loop
      vertex 12.452 -5 11.4877
      vertex 12.5 5 11
      vertex 12.452 5 11.4877
    endloop
  endfacet
  facet normal 0.995185 0 0.0980187
    outer loop
      vertex 12.5 5 11
      vertex 12.452 -5 11.4877
      vertex 12.5 -5 11
    endloop
  endfacet
  facet normal 0.471396 0 0.881922
    outer loop
      vertex 10.9567 5 13.3097
      vertex 11.3889 -5 13.0787
      vertex 11.3889 5 13.0787
    endloop
  endfacet
  facet normal 0.471396 0 0.881922
    outer loop
      vertex 11.3889 -5 13.0787
      vertex 10.9567 5 13.3097
      vertex 10.9567 -5 13.3097
    endloop
  endfacet
  facet normal 0.881922 -0 0.471396
    outer loop
      vertex 12.0787 -5 12.3889
      vertex 12.3097 5 11.9567
      vertex 12.0787 5 12.3889
    endloop
  endfacet
  facet normal 0.881922 0 0.471396
    outer loop
      vertex 12.3097 5 11.9567
      vertex 12.0787 -5 12.3889
      vertex 12.3097 -5 11.9567
    endloop
  endfacet
  facet normal 0.634392 0 0.773011
    outer loop
      vertex 11.3889 5 13.0787
      vertex 11.7678 -5 12.7678
      vertex 11.7678 5 12.7678
    endloop
  endfacet
  facet normal 0.634392 0 0.773011
    outer loop
      vertex 11.7678 -5 12.7678
      vertex 11.3889 5 13.0787
      vertex 11.3889 -5 13.0787
    endloop
  endfacet
  facet normal 0.290285 0 0.95694
    outer loop
      vertex 10.4877 5 13.452
      vertex 10.9567 -5 13.3097
      vertex 10.9567 5 13.3097
    endloop
  endfacet
  facet normal 0.290285 0 0.95694
    outer loop
      vertex 10.9567 -5 13.3097
      vertex 10.4877 5 13.452
      vertex 10.4877 -5 13.452
    endloop
  endfacet
  facet normal 0.95694 -0 0.290285
    outer loop
      vertex 12.3097 -5 11.9567
      vertex 12.452 5 11.4877
      vertex 12.3097 5 11.9567
    endloop
  endfacet
  facet normal 0.95694 0 0.290285
    outer loop
      vertex 12.452 5 11.4877
      vertex 12.3097 -5 11.9567
      vertex 12.452 -5 11.4877
    endloop
  endfacet
  facet normal 0.773011 -0 0.634392
    outer loop
      vertex 11.7678 -5 12.7678
      vertex 12.0787 5 12.3889
      vertex 11.7678 5 12.7678
    endloop
  endfacet
  facet normal 0.773011 0 0.634392
    outer loop
      vertex 12.0787 5 12.3889
      vertex 11.7678 -5 12.7678
      vertex 12.0787 -5 12.3889
    endloop
  endfacet
  facet normal 0.0980187 0 0.995185
    outer loop
      vertex 10 5 13.5
      vertex 10.4877 -5 13.452
      vertex 10.4877 5 13.452
    endloop
  endfacet
  facet normal 0.0980187 0 0.995185
    outer loop
      vertex 10.4877 -5 13.452
      vertex 10 5 13.5
      vertex 10 -5 13.5
    endloop
  endfacet
endsolid OpenSCAD_Model
