solid OpenSCAD_Model
  facet normal -0.995185 0.0980177 0
    outer loop
      vertex -5 0 8.5
      vertex -4.90393 0.975451 13.5
      vertex -4.90393 0.975451 8.5
    endloop
  endfacet
  facet normal -0.995185 0.0980177 0
    outer loop
      vertex -4.90393 0.975451 13.5
      vertex -5 0 8.5
      vertex -5 0 13.5
    endloop
  endfacet
  facet normal -0.0980177 -0.995185 0
    outer loop
      vertex -0.975451 -4.90393 8.5
      vertex 0 -5 13.5
      vertex -0.975451 -4.90393 13.5
    endloop
  endfacet
  facet normal -0.0980177 -0.995185 -0
    outer loop
      vertex 0 -5 13.5
      vertex -0.975451 -4.90393 8.5
      vertex 0 -5 8.5
    endloop
  endfacet
  facet normal -0.773011 -0.634393 0
    outer loop
      vertex -3.53553 -3.53553 8.5
      vertex -4.15735 -2.77785 13.5
      vertex -4.15735 -2.77785 8.5
    endloop
  endfacet
  facet normal -0.773011 -0.634393 0
    outer loop
      vertex -4.15735 -2.77785 13.5
      vertex -3.53553 -3.53553 8.5
      vertex -3.53553 -3.53553 13.5
    endloop
  endfacet
  facet normal -0.634393 0.773011 0
    outer loop
      vertex -2.77785 4.15735 8.5
      vertex -3.53553 3.53553 13.5
      vertex -2.77785 4.15735 13.5
    endloop
  endfacet
  facet normal -0.634393 0.773011 0
    outer loop
      vertex -3.53553 3.53553 13.5
      vertex -2.77785 4.15735 8.5
      vertex -3.53553 3.53553 8.5
    endloop
  endfacet
  facet normal -0.290285 0.95694 0
    outer loop
      vertex -0.975451 4.90393 8.5
      vertex -1.91342 4.6194 13.5
      vertex -0.975451 4.90393 13.5
    endloop
  endfacet
  facet normal -0.290285 0.95694 0
    outer loop
      vertex -1.91342 4.6194 13.5
      vertex -0.975451 4.90393 8.5
      vertex -1.91342 4.6194 8.5
    endloop
  endfacet
  facet normal 0 0 -1
    outer loop
      vertex 7.5 -5 8.5
      vertex 1.675 0 8.5
      vertex 7.5 5 8.5
    endloop
  endfacet
  facet normal 0 0 -1
    outer loop
      vertex 7.5 -5 8.5
      vertex 1.64281 -0.326776 8.5
      vertex 1.675 0 8.5
    endloop
  endfacet
  facet normal 0 0 -1
    outer loop
      vertex 7.5 -5 8.5
      vertex 1.5475 -0.640994 8.5
      vertex 1.64281 -0.326776 8.5
    endloop
  endfacet
  facet normal 0 0 -1
    outer loop
      vertex 7.5 -5 8.5
      vertex 1.39271 -0.93058 8.5
      vertex 1.5475 -0.640994 8.5
    endloop
  endfacet
  facet normal 0 0 -1
    outer loop
      vertex 7.5 -5 8.5
      vertex 1.1844 -1.1844 8.5
      vertex 1.39271 -0.93058 8.5
    endloop
  endfacet
  facet normal 0 0 -1
    outer loop
      vertex 0 -5 8.5
      vertex 1.1844 -1.1844 8.5
      vertex 7.5 -5 8.5
    endloop
  endfacet
  facet normal 0 0 -1
    outer loop
      vertex 1.1844 -1.1844 8.5
      vertex 0 -5 8.5
      vertex 0.93058 -1.39271 8.5
    endloop
  endfacet
  facet normal 0 0 -1
    outer loop
      vertex 0.93058 -1.39271 8.5
      vertex 0 -5 8.5
      vertex 0.640994 -1.5475 8.5
    endloop
  endfacet
  facet normal 0 0 -1
    outer loop
      vertex 0.640994 -1.5475 8.5
      vertex 0 -5 8.5
      vertex 0.326776 -1.64281 8.5
    endloop
  endfacet
  facet normal 0 0 -1
    outer loop
      vertex 0 -5 8.5
      vertex 0 -1.675 8.5
      vertex 0.326776 -1.64281 8.5
    endloop
  endfacet
  facet normal 0 0 -1
    outer loop
      vertex 0 -5 8.5
      vertex -0.326776 -1.64281 8.5
      vertex 0 -1.675 8.5
    endloop
  endfacet
  facet normal 0 0 -1
    outer loop
      vertex -0.975451 -4.90393 8.5
      vertex -0.326776 -1.64281 8.5
      vertex 0 -5 8.5
    endloop
  endfacet
  facet normal -0 0 -1
    outer loop
      vertex -0.326776 -1.64281 8.5
      vertex -0.975451 -4.90393 8.5
      vertex -0.640994 -1.5475 8.5
    endloop
  endfacet
  facet normal 0 0 -1
    outer loop
      vertex -1.91342 -4.6194 8.5
      vertex -0.640994 -1.5475 8.5
      vertex -0.975451 -4.90393 8.5
    endloop
  endfacet
  facet normal -0 0 -1
    outer loop
      vertex -0.640994 -1.5475 8.5
      vertex -1.91342 -4.6194 8.5
      vertex -0.93058 -1.39271 8.5
    endloop
  endfacet
  facet normal 0 0 -1
    outer loop
      vertex -2.77785 -4.15735 8.5
      vertex -0.93058 -1.39271 8.5
      vertex -1.91342 -4.6194 8.5
    endloop
  endfacet
  facet normal -0 0 -1
    outer loop
      vertex -0.93058 -1.39271 8.5
      vertex -2.77785 -4.15735 8.5
      vertex -1.1844 -1.1844 8.5
    endloop
  endfacet
  facet normal 0 0 -1
    outer loop
      vertex -3.53553 -3.53553 8.5
      vertex -1.1844 -1.1844 8.5
      vertex -2.77785 -4.15735 8.5
    endloop
  endfacet
  facet normal 0 0 -1
    outer loop
      vertex -4.15735 -2.77785 8.5
      vertex -1.39271 -0.93058 8.5
      vertex -3.53553 -3.53553 8.5
    endloop
  endfacet
  facet normal -0 0 -1
    outer loop
      vertex -1.1844 -1.1844 8.5
      vertex -3.53553 -3.53553 8.5
      vertex -1.39271 -0.93058 8.5
    endloop
  endfacet
  facet normal 0 0 -1
    outer loop
      vertex 1.64281 0.326776 8.5
      vertex 7.5 5 8.5
      vertex 1.675 0 8.5
    endloop
  endfacet
  facet normal 0 0 -1
    outer loop
      vertex 1.5475 0.640994 8.5
      vertex 7.5 5 8.5
      vertex 1.64281 0.326776 8.5
    endloop
  endfacet
  facet normal 0 0 -1
    outer loop
      vertex 1.39271 0.93058 8.5
      vertex 7.5 5 8.5
      vertex 1.5475 0.640994 8.5
    endloop
  endfacet
  facet normal 0 0 -1
    outer loop
      vertex 1.1844 1.1844 8.5
      vertex 7.5 5 8.5
      vertex 1.39271 0.93058 8.5
    endloop
  endfacet
  facet normal 0 0 -1
    outer loop
      vertex 0 5 8.5
      vertex 1.1844 1.1844 8.5
      vertex 0.93058 1.39271 8.5
    endloop
  endfacet
  facet normal 0 0 -1
    outer loop
      vertex 0 5 8.5
      vertex 0.93058 1.39271 8.5
      vertex 0.640994 1.5475 8.5
    endloop
  endfacet
  facet normal 0 0 -1
    outer loop
      vertex 0 5 8.5
      vertex 0.640994 1.5475 8.5
      vertex 0.326776 1.64281 8.5
    endloop
  endfacet
  facet normal 0 0 -1
    outer loop
      vertex 0 5 8.5
      vertex 0.326776 1.64281 8.5
      vertex 0 1.675 8.5
    endloop
  endfacet
  facet normal 0 0 -1
    outer loop
      vertex 1.1844 1.1844 8.5
      vertex 0 5 8.5
      vertex 7.5 5 8.5
    endloop
  endfacet
  facet normal 0 0 -1
    outer loop
      vertex -0.326776 1.64281 8.5
      vertex 0 5 8.5
      vertex 0 1.675 8.5
    endloop
  endfacet
  facet normal 0 0 -1
    outer loop
      vertex -0.975451 4.90393 8.5
      vertex -0.326776 1.64281 8.5
      vertex -0.640994 1.5475 8.5
    endloop
  endfacet
  facet normal 0 0 -1
    outer loop
      vertex -1.91342 4.6194 8.5
      vertex -0.640994 1.5475 8.5
      vertex -0.93058 1.39271 8.5
    endloop
  endfacet
  facet normal 0 0 -1
    outer loop
      vertex -0.326776 1.64281 8.5
      vertex -0.975451 4.90393 8.5
      vertex 0 5 8.5
    endloop
  endfacet
  facet normal 0 0 -1
    outer loop
      vertex -2.77785 4.15735 8.5
      vertex -0.93058 1.39271 8.5
      vertex -1.1844 1.1844 8.5
    endloop
  endfacet
  facet normal 0 0 -1
    outer loop
      vertex -3.53553 3.53553 8.5
      vertex -1.1844 1.1844 8.5
      vertex -1.39271 0.93058 8.5
    endloop
  endfacet
  facet normal 0 0 -1
    outer loop
      vertex -4.15735 2.77785 8.5
      vertex -1.39271 0.93058 8.5
      vertex -1.5475 0.640994 8.5
    endloop
  endfacet
  facet normal 0 0 -1
    outer loop
      vertex -4.6194 1.91342 8.5
      vertex -1.5475 0.640994 8.5
      vertex -1.64281 0.326776 8.5
    endloop
  endfacet
  facet normal 0 0 -1
    outer loop
      vertex -0.640994 1.5475 8.5
      vertex -1.91342 4.6194 8.5
      vertex -0.975451 4.90393 8.5
    endloop
  endfacet
  facet normal 0 0 -1
    outer loop
      vertex -4.90393 0.975451 8.5
      vertex -1.64281 0.326776 8.5
      vertex -1.675 0 8.5
    endloop
  endfacet
  facet normal -0 0 -1
    outer loop
      vertex -1.39271 -0.93058 8.5
      vertex -4.15735 -2.77785 8.5
      vertex -1.5475 -0.640994 8.5
    endloop
  endfacet
  facet normal 0 0 -1
    outer loop
      vertex -4.6194 -1.91342 8.5
      vertex -1.5475 -0.640994 8.5
      vertex -4.15735 -2.77785 8.5
    endloop
  endfacet
  facet normal 0 0 -1
    outer loop
      vertex -0.93058 1.39271 8.5
      vertex -2.77785 4.15735 8.5
      vertex -1.91342 4.6194 8.5
    endloop
  endfacet
  facet normal -0 0 -1
    outer loop
      vertex -1.5475 -0.640994 8.5
      vertex -4.6194 -1.91342 8.5
      vertex -1.64281 -0.326776 8.5
    endloop
  endfacet
  facet normal 0 0 -1
    outer loop
      vertex -1.1844 1.1844 8.5
      vertex -3.53553 3.53553 8.5
      vertex -2.77785 4.15735 8.5
    endloop
  endfacet
  facet normal 0 0 -1
    outer loop
      vertex -4.90393 -0.975451 8.5
      vertex -1.64281 -0.326776 8.5
      vertex -4.6194 -1.91342 8.5
    endloop
  endfacet
  facet normal 0 0 -1
    outer loop
      vertex -1.39271 0.93058 8.5
      vertex -4.15735 2.77785 8.5
      vertex -3.53553 3.53553 8.5
    endloop
  endfacet
  facet normal -0 0 -1
    outer loop
      vertex -1.64281 -0.326776 8.5
      vertex -4.90393 -0.975451 8.5
      vertex -1.675 0 8.5
    endloop
  endfacet
  facet normal 0 0 -1
    outer loop
      vertex -1.5475 0.640994 8.5
      vertex -4.6194 1.91342 8.5
      vertex -4.15735 2.77785 8.5
    endloop
  endfacet
  facet normal 0 0 -1
    outer loop
      vertex -5 0 8.5
      vertex -1.675 0 8.5
      vertex -4.90393 -0.975451 8.5
    endloop
  endfacet
  facet normal 0 0 -1
    outer loop
      vertex -1.64281 0.326776 8.5
      vertex -4.90393 0.975451 8.5
      vertex -4.6194 1.91342 8.5
    endloop
  endfacet
  facet normal 0 0 -1
    outer loop
      vertex -1.675 0 8.5
      vertex -5 0 8.5
      vertex -4.90393 0.975451 8.5
    endloop
  endfacet
  facet normal -0.881921 0.471397 0
    outer loop
      vertex -4.6194 1.91342 8.5
      vertex -4.15735 2.77785 13.5
      vertex -4.15735 2.77785 8.5
    endloop
  endfacet
  facet normal -0.881921 0.471397 0
    outer loop
      vertex -4.15735 2.77785 13.5
      vertex -4.6194 1.91342 8.5
      vertex -4.6194 1.91342 13.5
    endloop
  endfacet
  facet normal -0.773011 0.634393 0
    outer loop
      vertex -4.15735 2.77785 8.5
      vertex -3.53553 3.53553 13.5
      vertex -3.53553 3.53553 8.5
    endloop
  endfacet
  facet normal -0.773011 0.634393 0
    outer loop
      vertex -3.53553 3.53553 13.5
      vertex -4.15735 2.77785 8.5
      vertex -4.15735 2.77785 13.5
    endloop
  endfacet
  facet normal -0.95694 0.290285 0
    outer loop
      vertex -4.90393 0.975451 8.5
      vertex -4.6194 1.91342 13.5
      vertex -4.6194 1.91342 8.5
    endloop
  endfacet
  facet normal -0.95694 0.290285 0
    outer loop
      vertex -4.6194 1.91342 13.5
      vertex -4.90393 0.975451 8.5
      vertex -4.90393 0.975451 13.5
    endloop
  endfacet
  facet normal -0 0 1
    outer loop
      vertex 0 5 13.5
      vertex 10 -5 13.5
      vertex 10 5 13.5
    endloop
  endfacet
  facet normal 0 0 1
    outer loop
      vertex 0 5 13.5
      vertex 0 -5 13.5
      vertex 10 -5 13.5
    endloop
  endfacet
  facet normal -0 0 1
    outer loop
      vertex -0.975451 4.90393 13.5
      vertex 0 -5 13.5
      vertex 0 5 13.5
    endloop
  endfacet
  facet normal 0 0 1
    outer loop
      vertex -0.975451 4.90393 13.5
      vertex -0.975451 -4.90393 13.5
      vertex 0 -5 13.5
    endloop
  endfacet
  facet normal -0 0 1
    outer loop
      vertex -1.91342 4.6194 13.5
      vertex -0.975451 -4.90393 13.5
      vertex -0.975451 4.90393 13.5
    endloop
  endfacet
  facet normal 0 0 1
    outer loop
      vertex -1.91342 4.6194 13.5
      vertex -1.91342 -4.6194 13.5
      vertex -0.975451 -4.90393 13.5
    endloop
  endfacet
  facet normal -0 0 1
    outer loop
      vertex -2.77785 4.15735 13.5
      vertex -1.91342 -4.6194 13.5
      vertex -1.91342 4.6194 13.5
    endloop
  endfacet
  facet normal 0 0 1
    outer loop
      vertex -2.77785 4.15735 13.5
      vertex -2.77785 -4.15735 13.5
      vertex -1.91342 -4.6194 13.5
    endloop
  endfacet
  facet normal -0 0 1
    outer loop
      vertex -3.53553 3.53553 13.5
      vertex -2.77785 -4.15735 13.5
      vertex -2.77785 4.15735 13.5
    endloop
  endfacet
  facet normal 0 0 1
    outer loop
      vertex -3.53553 3.53553 13.5
      vertex -3.53553 -3.53553 13.5
      vertex -2.77785 -4.15735 13.5
    endloop
  endfacet
  facet normal -0 0 1
    outer loop
      vertex -4.15735 2.77785 13.5
      vertex -3.53553 -3.53553 13.5
      vertex -3.53553 3.53553 13.5
    endloop
  endfacet
  facet normal 0 0 1
    outer loop
      vertex -4.15735 2.77785 13.5
      vertex -4.15735 -2.77785 13.5
      vertex -3.53553 -3.53553 13.5
    endloop
  endfacet
  facet normal -0 0 1
    outer loop
      vertex -4.6194 1.91342 13.5
      vertex -4.15735 -2.77785 13.5
      vertex -4.15735 2.77785 13.5
    endloop
  endfacet
  facet normal 0 0 1
    outer loop
      vertex -4.6194 1.91342 13.5
      vertex -4.6194 -1.91342 13.5
      vertex -4.15735 -2.77785 13.5
    endloop
  endfacet
  facet normal -0 0 1
    outer loop
      vertex -4.90393 0.975451 13.5
      vertex -4.6194 -1.91342 13.5
      vertex -4.6194 1.91342 13.5
    endloop
  endfacet
  facet normal 0 0 1
    outer loop
      vertex -4.90393 0.975451 13.5
      vertex -4.90393 -0.975451 13.5
      vertex -4.6194 -1.91342 13.5
    endloop
  endfacet
  facet normal 0 -0 1
    outer loop
      vertex -4.90393 -0.975451 13.5
      vertex -4.90393 0.975451 13.5
      vertex -5 0 13.5
    endloop
  endfacet
  facet normal -0.471397 0.881921 0
    outer loop
      vertex -1.91342 4.6194 8.5
      vertex -2.77785 4.15735 13.5
      vertex -1.91342 4.6194 13.5
    endloop
  endfacet
  facet normal -0.471397 0.881921 0
    outer loop
      vertex -2.77785 4.15735 13.5
      vertex -1.91342 4.6194 8.5
      vertex -2.77785 4.15735 8.5
    endloop
  endfacet
  facet normal -0.0980177 0.995185 0
    outer loop
      vertex 0 5 8.5
      vertex -0.975451 4.90393 13.5
      vertex 0 5 13.5
    endloop
  endfacet
  facet normal -0.0980177 0.995185 0
    outer loop
      vertex -0.975451 4.90393 13.5
      vertex 0 5 8.5
      vertex -0.975451 4.90393 8.5
    endloop
  endfacet
  facet normal -0.634393 -0.773011 0
    outer loop
      vertex -3.53553 -3.53553 8.5
      vertex -2.77785 -4.15735 13.5
      vertex -3.53553 -3.53553 13.5
    endloop
  endfacet
  facet normal -0.634393 -0.773011 -0
    outer loop
      vertex -2.77785 -4.15735 13.5
      vertex -3.53553 -3.53553 8.5
      vertex -2.77785 -4.15735 8.5
    endloop
  endfacet
  facet normal -0.290285 -0.95694 0
    outer loop
      vertex -1.91342 -4.6194 8.5
      vertex -0.975451 -4.90393 13.5
      vertex -1.91342 -4.6194 13.5
    endloop
  endfacet
  facet normal -0.290285 -0.95694 -0
    outer loop
      vertex -0.975451 -4.90393 13.5
      vertex -1.91342 -4.6194 8.5
      vertex -0.975451 -4.90393 8.5
    endloop
  endfacet
  facet normal -0.881921 -0.471397 0
    outer loop
      vertex -4.15735 -2.77785 8.5
      vertex -4.6194 -1.91342 13.5
      vertex -4.6194 -1.91342 8.5
    endloop
  endfacet
  facet normal -0.881921 -0.471397 0
    outer loop
      vertex -4.6194 -1.91342 13.5
      vertex -4.15735 -2.77785 8.5
      vertex -4.15735 -2.77785 13.5
    endloop
  endfacet
  facet normal -0.995185 -0.0980177 0
    outer loop
      vertex -4.90393 -0.975451 8.5
      vertex -5 0 13.5
      vertex -5 0 8.5
    endloop
  endfacet
  facet normal -0.995185 -0.0980177 0
    outer loop
      vertex -5 0 13.5
      vertex -4.90393 -0.975451 8.5
      vertex -4.90393 -0.975451 13.5
    endloop
  endfacet
  facet normal -0.471397 -0.881921 0
    outer loop
      vertex -2.77785 -4.15735 8.5
      vertex -1.91342 -4.6194 13.5
      vertex -2.77785 -4.15735 13.5
    endloop
  endfacet
  facet normal -0.471397 -0.881921 -0
    outer loop
      vertex -1.91342 -4.6194 13.5
      vertex -2.77785 -4.15735 8.5
      vertex -1.91342 -4.6194 8.5
    endloop
  endfacet
  facet normal -0.95694 -0.290285 0
    outer loop
      vertex -4.6194 -1.91342 8.5
      vertex -4.90393 -0.975451 13.5
      vertex -4.90393 -0.975451 8.5
    endloop
  endfacet
  facet normal -0.95694 -0.290285 0
    outer loop
      vertex -4.90393 -0.975451 13.5
      vertex -4.6194 -1.91342 8.5
      vertex -4.6194 -1.91342 13.5
    endloop
  endfacet
  facet normal 0 1 -0
    outer loop
      vertex 12.5 5 -9.5
      vertex 7.5 5 8.5
      vertex 12.5 5 11
    endloop
  endfacet
  facet normal 0 1 0
    outer loop
      vertex 7.5 5 8.5
      vertex 12.5 5 -9.5
      vertex 7.5 5 -10.9
    endloop
  endfacet
  facet normal 0 1 0
    outer loop
      vertex 12.5 5 11
      vertex 10 5 13.5
      vertex 10.4877 5 13.452
    endloop
  endfacet
  facet normal 0 1 0
    outer loop
      vertex 12.5 5 11
      vertex 10.4877 5 13.452
      vertex 10.9567 5 13.3097
    endloop
  endfacet
  facet normal 0 1 0
    outer loop
      vertex 12.5 5 11
      vertex 10.9567 5 13.3097
      vertex 11.3889 5 13.0787
    endloop
  endfacet
  facet normal 0 1 0
    outer loop
      vertex 12.5 5 11
      vertex 11.3889 5 13.0787
      vertex 11.7678 5 12.7678
    endloop
  endfacet
  facet normal 0 1 0
    outer loop
      vertex 12.5 5 11
      vertex 11.7678 5 12.7678
      vertex 12.0787 5 12.3889
    endloop
  endfacet
  facet normal 0 1 0
    outer loop
      vertex 12.5 5 11
      vertex 12.0787 5 12.3889
      vertex 12.3097 5 11.9567
    endloop
  endfacet
  facet normal 0 1 0
    outer loop
      vertex 12.5 5 11
      vertex 12.3097 5 11.9567
      vertex 12.452 5 11.4877
    endloop
  endfacet
  facet normal 0 1 0
    outer loop
      vertex 10 5 13.5
      vertex 12.5 5 11
      vertex 7.5 5 8.5
    endloop
  endfacet
  facet normal 0 1 0
    outer loop
      vertex 10 5 13.5
      vertex 7.5 5 8.5
      vertex 0 5 13.5
    endloop
  endfacet
  facet normal 0 1 0
    outer loop
      vertex 0 5 13.5
      vertex 7.5 5 8.5
      vertex 0 5 8.5
    endloop
  endfacet
  facet normal 0 -1 0
    outer loop
      vertex 7.5 -5 8.5
      vertex 10 -5 13.5
      vertex 0 -5 13.5
    endloop
  endfacet
  facet normal -0 -1 0
    outer loop
      vertex 12.5 -5 11
      vertex 10 -5 13.5
      vertex 7.5 -5 8.5
    endloop
  endfacet
  facet normal 0 -1 0
    outer loop
      vertex 10 -5 13.5
      vertex 12.5 -5 11
      vertex 10.4877 -5 13.452
    endloop
  endfacet
  facet normal 0 -1 0
    outer loop
      vertex 10.4877 -5 13.452
      vertex 12.5 -5 11
      vertex 10.9567 -5 13.3097
    endloop
  endfacet
  facet normal 0 -1 0
    outer loop
      vertex 10.9567 -5 13.3097
      vertex 12.5 -5 11
      vertex 11.3889 -5 13.0787
    endloop
  endfacet
  facet normal 0 -1 0
    outer loop
      vertex 11.3889 -5 13.0787
      vertex 12.5 -5 11
      vertex 11.7678 -5 12.7678
    endloop
  endfacet
  facet normal 0 -1 0
    outer loop
      vertex 11.7678 -5 12.7678
      vertex 12.5 -5 11
      vertex 12.0787 -5 12.3889
    endloop
  endfacet
  facet normal 0 -1 0
    outer loop
      vertex 12.0787 -5 12.3889
      vertex 12.5 -5 11
      vertex 12.3097 -5 11.9567
    endloop
  endfacet
  facet normal 0 -1 0
    outer loop
      vertex 7.5 -5 8.5
      vertex 0 -5 13.5
      vertex 0 -5 8.5
    endloop
  endfacet
  facet normal 0 -1 0
    outer loop
      vertex 12.3097 -5 11.9567
      vertex 12.5 -5 11
      vertex 12.452 -5 11.4877
    endloop
  endfacet
  facet normal 0 -1 0
    outer loop
      vertex 7.5 -5 8.5
      vertex 12.5 -5 -9.5
      vertex 12.5 -5 11
    endloop
  endfacet
  facet normal -0 -1 0
    outer loop
      vertex 12.5 -5 -9.5
      vertex 7.5 -5 8.5
      vertex 7.5 -5 -10.9
    endloop
  endfacet
  facet normal 0.995185 0.0980172 0
    outer loop
      vertex 1.675 0 8.5
      vertex 1.64281 0.326776 6.04558
      vertex 1.64281 0.326776 8.5
    endloop
  endfacet
  facet normal 0.995185 0.0980172 0
    outer loop
      vertex 1.64281 0.326776 6.04558
      vertex 1.675 0 8.5
      vertex 1.675 0 6.04558
    endloop
  endfacet
  facet normal -0.995185 0.0980172 0
    outer loop
      vertex -1.675 0 6.04558
      vertex -1.64281 0.326776 8.5
      vertex -1.64281 0.326776 6.04558
    endloop
  endfacet
  facet normal -0.995185 0.0980172 0
    outer loop
      vertex -1.64281 0.326776 8.5
      vertex -1.675 0 6.04558
      vertex -1.675 0 8.5
    endloop
  endfacet
  facet normal 0.0980172 0.995185 -0
    outer loop
      vertex 0.326776 1.64281 6.04558
      vertex 0 1.675 8.5
      vertex 0.326776 1.64281 8.5
    endloop
  endfacet
  facet normal 0.0980172 0.995185 0
    outer loop
      vertex 0 1.675 8.5
      vertex 0.326776 1.64281 6.04558
      vertex 0 1.675 6.04558
    endloop
  endfacet
  facet normal -0.0980172 -0.995185 0
    outer loop
      vertex -0.326776 -1.64281 6.04558
      vertex 0 -1.675 8.5
      vertex -0.326776 -1.64281 8.5
    endloop
  endfacet
  facet normal -0.0980172 -0.995185 -0
    outer loop
      vertex 0 -1.675 8.5
      vertex -0.326776 -1.64281 6.04558
      vertex 0 -1.675 6.04558
    endloop
  endfacet
  facet normal -0.773011 -0.634393 0
    outer loop
      vertex -1.1844 -1.1844 6.04558
      vertex -1.39271 -0.93058 8.5
      vertex -1.39271 -0.93058 6.04558
    endloop
  endfacet
  facet normal -0.773011 -0.634393 0
    outer loop
      vertex -1.39271 -0.93058 8.5
      vertex -1.1844 -1.1844 6.04558
      vertex -1.1844 -1.1844 8.5
    endloop
  endfacet
  facet normal 0.773011 0.634393 0
    outer loop
      vertex 1.39271 0.93058 8.5
      vertex 1.1844 1.1844 6.04558
      vertex 1.1844 1.1844 8.5
    endloop
  endfacet
  facet normal 0.773011 0.634393 0
    outer loop
      vertex 1.1844 1.1844 6.04558
      vertex 1.39271 0.93058 8.5
      vertex 1.39271 0.93058 6.04558
    endloop
  endfacet
  facet normal 0.956941 0.290284 0
    outer loop
      vertex 1.64281 0.326776 8.5
      vertex 1.5475 0.640994 6.04558
      vertex 1.5475 0.640994 8.5
    endloop
  endfacet
  facet normal 0.956941 0.290284 0
    outer loop
      vertex 1.5475 0.640994 6.04558
      vertex 1.64281 0.326776 8.5
      vertex 1.64281 0.326776 6.04558
    endloop
  endfacet
  facet normal -0.634393 0.773011 0
    outer loop
      vertex -0.93058 1.39271 6.04558
      vertex -1.1844 1.1844 8.5
      vertex -0.93058 1.39271 8.5
    endloop
  endfacet
  facet normal -0.634393 0.773011 0
    outer loop
      vertex -1.1844 1.1844 8.5
      vertex -0.93058 1.39271 6.04558
      vertex -1.1844 1.1844 6.04558
    endloop
  endfacet
  facet normal -0.290284 0.956941 0
    outer loop
      vertex -0.326776 1.64281 6.04558
      vertex -0.640994 1.5475 8.5
      vertex -0.326776 1.64281 8.5
    endloop
  endfacet
  facet normal -0.290284 0.956941 0
    outer loop
      vertex -0.640994 1.5475 8.5
      vertex -0.326776 1.64281 6.04558
      vertex -0.640994 1.5475 6.04558
    endloop
  endfacet
  facet normal 0.634393 -0.773011 0
    outer loop
      vertex 0.93058 -1.39271 6.04558
      vertex 1.1844 -1.1844 8.5
      vertex 0.93058 -1.39271 8.5
    endloop
  endfacet
  facet normal 0.634393 -0.773011 0
    outer loop
      vertex 1.1844 -1.1844 8.5
      vertex 0.93058 -1.39271 6.04558
      vertex 1.1844 -1.1844 6.04558
    endloop
  endfacet
  facet normal 0 0 -1
    outer loop
      vertex 1.64281 -0.326776 6.04558
      vertex 1.64281 0.326776 6.04558
      vertex 1.675 0 6.04558
    endloop
  endfacet
  facet normal 0 0 -1
    outer loop
      vertex 1.5475 -0.640994 6.04558
      vertex 1.64281 0.326776 6.04558
      vertex 1.64281 -0.326776 6.04558
    endloop
  endfacet
  facet normal 0 0 -1
    outer loop
      vertex 1.5475 -0.640994 6.04558
      vertex 1.5475 0.640994 6.04558
      vertex 1.64281 0.326776 6.04558
    endloop
  endfacet
  facet normal 0 0 -1
    outer loop
      vertex 1.39271 -0.93058 6.04558
      vertex 1.5475 0.640994 6.04558
      vertex 1.5475 -0.640994 6.04558
    endloop
  endfacet
  facet normal 0 0 -1
    outer loop
      vertex 1.39271 -0.93058 6.04558
      vertex 1.39271 0.93058 6.04558
      vertex 1.5475 0.640994 6.04558
    endloop
  endfacet
  facet normal 0 0 -1
    outer loop
      vertex 1.1844 -1.1844 6.04558
      vertex 1.39271 0.93058 6.04558
      vertex 1.39271 -0.93058 6.04558
    endloop
  endfacet
  facet normal 0 0 -1
    outer loop
      vertex 1.1844 -1.1844 6.04558
      vertex 1.1844 1.1844 6.04558
      vertex 1.39271 0.93058 6.04558
    endloop
  endfacet
  facet normal 0 0 -1
    outer loop
      vertex 0.93058 -1.39271 6.04558
      vertex 1.1844 1.1844 6.04558
      vertex 1.1844 -1.1844 6.04558
    endloop
  endfacet
  facet normal 0 0 -1
    outer loop
      vertex 0.93058 -1.39271 6.04558
      vertex 0.93058 1.39271 6.04558
      vertex 1.1844 1.1844 6.04558
    endloop
  endfacet
  facet normal 0 0 -1
    outer loop
      vertex 0.640994 -1.5475 6.04558
      vertex 0.93058 1.39271 6.04558
      vertex 0.93058 -1.39271 6.04558
    endloop
  endfacet
  facet normal 0 0 -1
    outer loop
      vertex 0.640994 -1.5475 6.04558
      vertex 0.640994 1.5475 6.04558
      vertex 0.93058 1.39271 6.04558
    endloop
  endfacet
  facet normal 0 0 -1
    outer loop
      vertex 0.326776 -1.64281 6.04558
      vertex 0.640994 1.5475 6.04558
      vertex 0.640994 -1.5475 6.04558
    endloop
  endfacet
  facet normal 0 0 -1
    outer loop
      vertex 0.326776 -1.64281 6.04558
      vertex 0.326776 1.64281 6.04558
      vertex 0.640994 1.5475 6.04558
    endloop
  endfacet
  facet normal 0 0 -1
    outer loop
      vertex 0 -1.675 6.04558
      vertex 0.326776 1.64281 6.04558
      vertex 0.326776 -1.64281 6.04558
    endloop
  endfacet
  facet normal 0 0 -1
    outer loop
      vertex 0 -1.675 6.04558
      vertex 0 1.675 6.04558
      vertex 0.326776 1.64281 6.04558
    endloop
  endfacet
  facet normal 0 0 -1
    outer loop
      vertex -0.326776 -1.64281 6.04558
      vertex 0 1.675 6.04558
      vertex 0 -1.675 6.04558
    endloop
  endfacet
  facet normal 0 0 -1
    outer loop
      vertex -0.326776 -1.64281 6.04558
      vertex -0.326776 1.64281 6.04558
      vertex 0 1.675 6.04558
    endloop
  endfacet
  facet normal 0 0 -1
    outer loop
      vertex -0.640994 -1.5475 6.04558
      vertex -0.326776 1.64281 6.04558
      vertex -0.326776 -1.64281 6.04558
    endloop
  endfacet
  facet normal 0 0 -1
    outer loop
      vertex -0.640994 -1.5475 6.04558
      vertex -0.640994 1.5475 6.04558
      vertex -0.326776 1.64281 6.04558
    endloop
  endfacet
  facet normal 0 0 -1
    outer loop
      vertex -0.93058 -1.39271 6.04558
      vertex -0.640994 1.5475 6.04558
      vertex -0.640994 -1.5475 6.04558
    endloop
  endfacet
  facet normal 0 0 -1
    outer loop
      vertex -0.93058 -1.39271 6.04558
      vertex -0.93058 1.39271 6.04558
      vertex -0.640994 1.5475 6.04558
    endloop
  endfacet
  facet normal 0 0 -1
    outer loop
      vertex -1.1844 -1.1844 6.04558
      vertex -0.93058 1.39271 6.04558
      vertex -0.93058 -1.39271 6.04558
    endloop
  endfacet
  facet normal 0 0 -1
    outer loop
      vertex -1.1844 -1.1844 6.04558
      vertex -1.1844 1.1844 6.04558
      vertex -0.93058 1.39271 6.04558
    endloop
  endfacet
  facet normal 0 0 -1
    outer loop
      vertex -1.39271 -0.93058 6.04558
      vertex -1.1844 1.1844 6.04558
      vertex -1.1844 -1.1844 6.04558
    endloop
  endfacet
  facet normal 0 0 -1
    outer loop
      vertex -1.39271 -0.93058 6.04558
      vertex -1.39271 0.93058 6.04558
      vertex -1.1844 1.1844 6.04558
    endloop
  endfacet
  facet normal 0 0 -1
    outer loop
      vertex -1.5475 -0.640994 6.04558
      vertex -1.39271 0.93058 6.04558
      vertex -1.39271 -0.93058 6.04558
    endloop
  endfacet
  facet normal 0 0 -1
    outer loop
      vertex -1.5475 -0.640994 6.04558
      vertex -1.5475 0.640994 6.04558
      vertex -1.39271 0.93058 6.04558
    endloop
  endfacet
  facet normal 0 0 -1
    outer loop
      vertex -1.64281 -0.326776 6.04558
      vertex -1.5475 0.640994 6.04558
      vertex -1.5475 -0.640994 6.04558
    endloop
  endfacet
  facet normal 0 0 -1
    outer loop
      vertex -1.64281 -0.326776 6.04558
      vertex -1.64281 0.326776 6.04558
      vertex -1.5475 0.640994 6.04558
    endloop
  endfacet
  facet normal 0 -0 -1
    outer loop
      vertex -1.64281 0.326776 6.04558
      vertex -1.64281 -0.326776 6.04558
      vertex -1.675 0 6.04558
    endloop
  endfacet
  facet normal 0.881921 0.471397 0
    outer loop
      vertex 1.5475 0.640994 8.5
      vertex 1.39271 0.93058 6.04558
      vertex 1.39271 0.93058 8.5
    endloop
  endfacet
  facet normal 0.881921 0.471397 0
    outer loop
      vertex 1.39271 0.93058 6.04558
      vertex 1.5475 0.640994 8.5
      vertex 1.5475 0.640994 6.04558
    endloop
  endfacet
  facet normal 0.471397 0.881921 -0
    outer loop
      vertex 0.93058 1.39271 6.04558
      vertex 0.640994 1.5475 8.5
      vertex 0.93058 1.39271 8.5
    endloop
  endfacet
  facet normal 0.471397 0.881921 0
    outer loop
      vertex 0.640994 1.5475 8.5
      vertex 0.93058 1.39271 6.04558
      vertex 0.640994 1.5475 6.04558
    endloop
  endfacet
  facet normal 0.290284 0.956941 -0
    outer loop
      vertex 0.640994 1.5475 6.04558
      vertex 0.326776 1.64281 8.5
      vertex 0.640994 1.5475 8.5
    endloop
  endfacet
  facet normal 0.290284 0.956941 0
    outer loop
      vertex 0.326776 1.64281 8.5
      vertex 0.640994 1.5475 6.04558
      vertex 0.326776 1.64281 6.04558
    endloop
  endfacet
  facet normal 0.634393 0.773011 -0
    outer loop
      vertex 1.1844 1.1844 6.04558
      vertex 0.93058 1.39271 8.5
      vertex 1.1844 1.1844 8.5
    endloop
  endfacet
  facet normal 0.634393 0.773011 0
    outer loop
      vertex 0.93058 1.39271 8.5
      vertex 1.1844 1.1844 6.04558
      vertex 0.93058 1.39271 6.04558
    endloop
  endfacet
  facet normal -0.881921 0.471397 0
    outer loop
      vertex -1.5475 0.640994 6.04558
      vertex -1.39271 0.93058 8.5
      vertex -1.39271 0.93058 6.04558
    endloop
  endfacet
  facet normal -0.881921 0.471397 0
    outer loop
      vertex -1.39271 0.93058 8.5
      vertex -1.5475 0.640994 6.04558
      vertex -1.5475 0.640994 8.5
    endloop
  endfacet
  facet normal -0.773011 0.634393 0
    outer loop
      vertex -1.39271 0.93058 6.04558
      vertex -1.1844 1.1844 8.5
      vertex -1.1844 1.1844 6.04558
    endloop
  endfacet
  facet normal -0.773011 0.634393 0
    outer loop
      vertex -1.1844 1.1844 8.5
      vertex -1.39271 0.93058 6.04558
      vertex -1.39271 0.93058 8.5
    endloop
  endfacet
  facet normal -0.956941 0.290284 0
    outer loop
      vertex -1.64281 0.326776 6.04558
      vertex -1.5475 0.640994 8.5
      vertex -1.5475 0.640994 6.04558
    endloop
  endfacet
  facet normal -0.956941 0.290284 0
    outer loop
      vertex -1.5475 0.640994 8.5
      vertex -1.64281 0.326776 6.04558
      vertex -1.64281 0.326776 8.5
    endloop
  endfacet
  facet normal -0.471397 0.881921 0
    outer loop
      vertex -0.640994 1.5475 6.04558
      vertex -0.93058 1.39271 8.5
      vertex -0.640994 1.5475 8.5
    endloop
  endfacet
  facet normal -0.471397 0.881921 0
    outer loop
      vertex -0.93058 1.39271 8.5
      vertex -0.640994 1.5475 6.04558
      vertex -0.93058 1.39271 6.04558
    endloop
  endfacet
  facet normal -0.0980172 0.995185 0
    outer loop
      vertex 0 1.675 6.04558
      vertex -0.326776 1.64281 8.5
      vertex 0 1.675 8.5
    endloop
  endfacet
  facet normal -0.0980172 0.995185 0
    outer loop
      vertex -0.326776 1.64281 8.5
      vertex 0 1.675 6.04558
      vertex -0.326776 1.64281 6.04558
    endloop
  endfacet
  facet normal 0.0980172 -0.995185 0
    outer loop
      vertex 0 -1.675 6.04558
      vertex 0.326776 -1.64281 8.5
      vertex 0 -1.675 8.5
    endloop
  endfacet
  facet normal 0.0980172 -0.995185 0
    outer loop
      vertex 0.326776 -1.64281 8.5
      vertex 0 -1.675 6.04558
      vertex 0.326776 -1.64281 6.04558
    endloop
  endfacet
  facet normal 0.471397 -0.881921 0
    outer loop
      vertex 0.640994 -1.5475 6.04558
      vertex 0.93058 -1.39271 8.5
      vertex 0.640994 -1.5475 8.5
    endloop
  endfacet
  facet normal 0.471397 -0.881921 0
    outer loop
      vertex 0.93058 -1.39271 8.5
      vertex 0.640994 -1.5475 6.04558
      vertex 0.93058 -1.39271 6.04558
    endloop
  endfacet
  facet normal -0.634393 -0.773011 0
    outer loop
      vertex -1.1844 -1.1844 6.04558
      vertex -0.93058 -1.39271 8.5
      vertex -1.1844 -1.1844 8.5
    endloop
  endfacet
  facet normal -0.634393 -0.773011 -0
    outer loop
      vertex -0.93058 -1.39271 8.5
      vertex -1.1844 -1.1844 6.04558
      vertex -0.93058 -1.39271 6.04558
    endloop
  endfacet
  facet normal -0.290284 -0.956941 0
    outer loop
      vertex -0.640994 -1.5475 6.04558
      vertex -0.326776 -1.64281 8.5
      vertex -0.640994 -1.5475 8.5
    endloop
  endfacet
  facet normal -0.290284 -0.956941 -0
    outer loop
      vertex -0.326776 -1.64281 8.5
      vertex -0.640994 -1.5475 6.04558
      vertex -0.326776 -1.64281 6.04558
    endloop
  endfacet
  facet normal -0.881921 -0.471397 0
    outer loop
      vertex -1.39271 -0.93058 6.04558
      vertex -1.5475 -0.640994 8.5
      vertex -1.5475 -0.640994 6.04558
    endloop
  endfacet
  facet normal -0.881921 -0.471397 0
    outer loop
      vertex -1.5475 -0.640994 8.5
      vertex -1.39271 -0.93058 6.04558
      vertex -1.39271 -0.93058 8.5
    endloop
  endfacet
  facet normal -0.995185 -0.0980172 0
    outer loop
      vertex -1.64281 -0.326776 6.04558
      vertex -1.675 0 8.5
      vertex -1.675 0 6.04558
    endloop
  endfacet
  facet normal -0.995185 -0.0980172 0
    outer loop
      vertex -1.675 0 8.5
      vertex -1.64281 -0.326776 6.04558
      vertex -1.64281 -0.326776 8.5
    endloop
  endfacet
  facet normal 0.995185 -0.0980172 0
    outer loop
      vertex 1.64281 -0.326776 8.5
      vertex 1.675 0 6.04558
      vertex 1.675 0 8.5
    endloop
  endfacet
  facet normal 0.995185 -0.0980172 0
    outer loop
      vertex 1.675 0 6.04558
      vertex 1.64281 -0.326776 8.5
      vertex 1.64281 -0.326776 6.04558
    endloop
  endfacet
  facet normal 0.290284 -0.956941 0
    outer loop
      vertex 0.326776 -1.64281 6.04558
      vertex 0.640994 -1.5475 8.5
      vertex 0.326776 -1.64281 8.5
    endloop
  endfacet
  facet normal 0.290284 -0.956941 0
    outer loop
      vertex 0.640994 -1.5475 8.5
      vertex 0.326776 -1.64281 6.04558
      vertex 0.640994 -1.5475 6.04558
    endloop
  endfacet
  facet normal 0.881921 -0.471397 0
    outer loop
      vertex 1.39271 -0.93058 8.5
      vertex 1.5475 -0.640994 6.04558
      vertex 1.5475 -0.640994 8.5
    endloop
  endfacet
  facet normal 0.881921 -0.471397 0
    outer loop
      vertex 1.5475 -0.640994 6.04558
      vertex 1.39271 -0.93058 8.5
      vertex 1.39271 -0.93058 6.04558
    endloop
  endfacet
  facet normal 0.773011 -0.634393 0
    outer loop
      vertex 1.1844 -1.1844 8.5
      vertex 1.39271 -0.93058 6.04558
      vertex 1.39271 -0.93058 8.5
    endloop
  endfacet
  facet normal 0.773011 -0.634393 0
    outer loop
      vertex 1.39271 -0.93058 6.04558
      vertex 1.1844 -1.1844 8.5
      vertex 1.1844 -1.1844 6.04558
    endloop
  endfacet
  facet normal 0.956941 -0.290284 0
    outer loop
      vertex 1.5475 -0.640994 8.5
      vertex 1.64281 -0.326776 6.04558
      vertex 1.64281 -0.326776 8.5
    endloop
  endfacet
  facet normal 0.956941 -0.290284 0
    outer loop
      vertex 1.64281 -0.326776 6.04558
      vertex 1.5475 -0.640994 8.5
      vertex 1.5475 -0.640994 6.04558
    endloop
  endfacet
  facet normal -0.471397 -0.881921 0
    outer loop
      vertex -0.93058 -1.39271 6.04558
      vertex -0.640994 -1.5475 8.5
      vertex -0.93058 -1.39271 8.5
    endloop
  endfacet
  facet normal -0.471397 -0.881921 -0
    outer loop
      vertex -0.640994 -1.5475 8.5
      vertex -0.93058 -1.39271 6.04558
      vertex -0.640994 -1.5475 6.04558
    endloop
  endfacet
  facet normal -0.956941 -0.290284 0
    outer loop
      vertex -1.5475 -0.640994 6.04558
      vertex -1.64281 -0.326776 8.5
      vertex -1.64281 -0.326776 6.04558
    endloop
  endfacet
  facet normal -0.956941 -0.290284 0
    outer loop
      vertex -1.64281 -0.326776 8.5
      vertex -1.5475 -0.640994 6.04558
      vertex -1.5475 -0.640994 8.5
    endloop
  endfacet
  facet normal 0.995185 0.0980175 -0
    outer loop
      vertex 6 0 -25
      vertex 5.88471 1.17054 -16.3523
      vertex 6 0 -16.32
    endloop
  endfacet
  facet normal 0.995185 0.0980175 0
    outer loop
      vertex 5.88471 1.17054 -16.3523
      vertex 6 0 -25
      vertex 5.88471 1.17054 -25
    endloop
  endfacet
  facet normal -0.995185 0.0980175 0
    outer loop
      vertex -6 0 -25
      vertex -5.88471 1.17054 -13
      vertex -5.88471 1.17054 -25
    endloop
  endfacet
  facet normal -0.995185 0.0980175 0
    outer loop
      vertex -5.88471 1.17054 -13
      vertex -6 0 -25
      vertex -6 0 -13
    endloop
  endfacet
  facet normal 0.0980175 0.995185 -0
    outer loop
      vertex 1.17054 5.88471 -25
      vertex 0 6 -18
      vertex 1.17054 5.88471 -17.6722
    endloop
  endfacet
  facet normal 0.0980175 0.995185 0
    outer loop
      vertex 0 6 -18
      vertex 1.17054 5.88471 -25
      vertex 0 6 -25
    endloop
  endfacet
  facet normal -0.773011 -0.634393 0
    outer loop
      vertex -4.24264 -4.24264 -25
      vertex -4.98882 -3.33342 -13
      vertex -4.98882 -3.33342 -25
    endloop
  endfacet
  facet normal -0.773011 -0.634393 0
    outer loop
      vertex -4.98882 -3.33342 -13
      vertex -4.24264 -4.24264 -25
      vertex -4.24264 -4.24264 -13
    endloop
  endfacet
  facet normal 0.773011 0.634393 -0
    outer loop
      vertex 4.98882 3.33342 -25
      vertex 4.24264 4.24264 -16.8121
      vertex 4.98882 3.33342 -16.6031
    endloop
  endfacet
  facet normal 0.773011 0.634393 0
    outer loop
      vertex 4.24264 4.24264 -16.8121
      vertex 4.98882 3.33342 -25
      vertex 4.24264 4.24264 -25
    endloop
  endfacet
  facet normal -0.634393 0.773011 0
    outer loop
      vertex -3.33342 4.98882 -25
      vertex -4.24264 4.24264 -13
      vertex -3.33342 4.98882 -13
    endloop
  endfacet
  facet normal -0.634393 0.773011 0
    outer loop
      vertex -4.24264 4.24264 -13
      vertex -3.33342 4.98882 -25
      vertex -4.24264 4.24264 -25
    endloop
  endfacet
  facet normal -0.290285 0.95694 0
    outer loop
      vertex -1.17054 5.88471 -25
      vertex -2.2961 5.54328 -13
      vertex -1.17054 5.88471 -13
    endloop
  endfacet
  facet normal -0.290285 0.95694 0
    outer loop
      vertex -2.2961 5.54328 -13
      vertex -1.17054 5.88471 -25
      vertex -2.2961 5.54328 -25
    endloop
  endfacet
  facet normal 0 0 -1
    outer loop
      vertex 4.25 0 -25
      vertex 6 0 -25
      vertex 5.88471 -1.17054 -25
    endloop
  endfacet
  facet normal 0 0 -1
    outer loop
      vertex 4.16834 -0.829133 -25
      vertex 5.88471 -1.17054 -25
      vertex 5.54328 -2.2961 -25
    endloop
  endfacet
  facet normal 0 0 -1
    outer loop
      vertex 6 0 -25
      vertex 4.25 0 -25
      vertex 5.88471 1.17054 -25
    endloop
  endfacet
  facet normal 0 0 -1
    outer loop
      vertex 3.92649 -1.6264 -25
      vertex 5.54328 -2.2961 -25
      vertex 4.98882 -3.33342 -25
    endloop
  endfacet
  facet normal 0 0 -1
    outer loop
      vertex 4.16834 0.829133 -25
      vertex 5.88471 1.17054 -25
      vertex 4.25 0 -25
    endloop
  endfacet
  facet normal -0 0 -1
    outer loop
      vertex 5.88471 1.17054 -25
      vertex 4.16834 0.829133 -25
      vertex 5.54328 2.2961 -25
    endloop
  endfacet
  facet normal 0 0 -1
    outer loop
      vertex 3.53375 -2.36117 -25
      vertex 4.98882 -3.33342 -25
      vertex 4.24264 -4.24264 -25
    endloop
  endfacet
  facet normal 0 0 -1
    outer loop
      vertex 5.88471 -1.17054 -25
      vertex 4.16834 -0.829133 -25
      vertex 4.25 0 -25
    endloop
  endfacet
  facet normal 0 0 -1
    outer loop
      vertex 5.54328 -2.2961 -25
      vertex 3.92649 -1.6264 -25
      vertex 4.16834 -0.829133 -25
    endloop
  endfacet
  facet normal 0 0 -1
    outer loop
      vertex 4.98882 -3.33342 -25
      vertex 3.53375 -2.36117 -25
      vertex 3.92649 -1.6264 -25
    endloop
  endfacet
  facet normal 0 0 -1
    outer loop
      vertex 3.0052 -3.0052 -25
      vertex 4.24264 -4.24264 -25
      vertex 3.33342 -4.98882 -25
    endloop
  endfacet
  facet normal 0 0 -1
    outer loop
      vertex 4.24264 -4.24264 -25
      vertex 3.0052 -3.0052 -25
      vertex 3.53375 -2.36117 -25
    endloop
  endfacet
  facet normal 0 0 -1
    outer loop
      vertex 3.33342 -4.98882 -25
      vertex 2.36117 -3.53375 -25
      vertex 3.0052 -3.0052 -25
    endloop
  endfacet
  facet normal 0 0 -1
    outer loop
      vertex 2.2961 -5.54328 -25
      vertex 2.36117 -3.53375 -25
      vertex 3.33342 -4.98882 -25
    endloop
  endfacet
  facet normal 0 0 -1
    outer loop
      vertex 2.2961 -5.54328 -25
      vertex 1.6264 -3.92649 -25
      vertex 2.36117 -3.53375 -25
    endloop
  endfacet
  facet normal 0 0 -1
    outer loop
      vertex 1.17054 -5.88471 -25
      vertex 1.6264 -3.92649 -25
      vertex 2.2961 -5.54328 -25
    endloop
  endfacet
  facet normal 0 0 -1
    outer loop
      vertex 1.17054 -5.88471 -25
      vertex 0.829133 -4.16834 -25
      vertex 1.6264 -3.92649 -25
    endloop
  endfacet
  facet normal 0 0 -1
    outer loop
      vertex 0 -6 -25
      vertex 0.829133 -4.16834 -25
      vertex 1.17054 -5.88471 -25
    endloop
  endfacet
  facet normal 0 0 -1
    outer loop
      vertex 0 -6 -25
      vertex 0 -4.25 -25
      vertex 0.829133 -4.16834 -25
    endloop
  endfacet
  facet normal 0 0 -1
    outer loop
      vertex 0 -6 -25
      vertex -0.829133 -4.16834 -25
      vertex 0 -4.25 -25
    endloop
  endfacet
  facet normal 0 0 -1
    outer loop
      vertex -1.17054 -5.88471 -25
      vertex -0.829133 -4.16834 -25
      vertex 0 -6 -25
    endloop
  endfacet
  facet normal 0 0 -1
    outer loop
      vertex -1.17054 -5.88471 -25
      vertex -1.6264 -3.92649 -25
      vertex -0.829133 -4.16834 -25
    endloop
  endfacet
  facet normal 0 0 -1
    outer loop
      vertex -2.2961 -5.54328 -25
      vertex -1.6264 -3.92649 -25
      vertex -1.17054 -5.88471 -25
    endloop
  endfacet
  facet normal 0 0 -1
    outer loop
      vertex -2.2961 -5.54328 -25
      vertex -2.36117 -3.53375 -25
      vertex -1.6264 -3.92649 -25
    endloop
  endfacet
  facet normal 0 0 -1
    outer loop
      vertex -3.33342 -4.98882 -25
      vertex -2.36117 -3.53375 -25
      vertex -2.2961 -5.54328 -25
    endloop
  endfacet
  facet normal -0 0 -1
    outer loop
      vertex -2.36117 -3.53375 -25
      vertex -3.33342 -4.98882 -25
      vertex -3.0052 -3.0052 -25
    endloop
  endfacet
  facet normal 0 0 -1
    outer loop
      vertex -4.24264 -4.24264 -25
      vertex -3.0052 -3.0052 -25
      vertex -3.33342 -4.98882 -25
    endloop
  endfacet
  facet normal -0 0 -1
    outer loop
      vertex -3.0052 -3.0052 -25
      vertex -4.24264 -4.24264 -25
      vertex -3.53375 -2.36117 -25
    endloop
  endfacet
  facet normal 0 0 -1
    outer loop
      vertex -4.98882 -3.33342 -25
      vertex -3.53375 -2.36117 -25
      vertex -4.24264 -4.24264 -25
    endloop
  endfacet
  facet normal -0 0 -1
    outer loop
      vertex -3.53375 -2.36117 -25
      vertex -4.98882 -3.33342 -25
      vertex -3.92649 -1.6264 -25
    endloop
  endfacet
  facet normal 0 0 -1
    outer loop
      vertex -5.54328 -2.2961 -25
      vertex -3.92649 -1.6264 -25
      vertex -4.98882 -3.33342 -25
    endloop
  endfacet
  facet normal -0 0 -1
    outer loop
      vertex -3.92649 -1.6264 -25
      vertex -5.54328 -2.2961 -25
      vertex -4.16834 -0.829133 -25
    endloop
  endfacet
  facet normal 0 0 -1
    outer loop
      vertex 3.92649 1.6264 -25
      vertex 5.54328 2.2961 -25
      vertex 4.16834 0.829133 -25
    endloop
  endfacet
  facet normal -0 0 -1
    outer loop
      vertex 5.54328 2.2961 -25
      vertex 3.92649 1.6264 -25
      vertex 4.98882 3.33342 -25
    endloop
  endfacet
  facet normal 0 0 -1
    outer loop
      vertex 3.53375 2.36117 -25
      vertex 4.98882 3.33342 -25
      vertex 3.92649 1.6264 -25
    endloop
  endfacet
  facet normal -0 0 -1
    outer loop
      vertex 4.98882 3.33342 -25
      vertex 3.53375 2.36117 -25
      vertex 4.24264 4.24264 -25
    endloop
  endfacet
  facet normal 0 0 -1
    outer loop
      vertex 3.0052 3.0052 -25
      vertex 4.24264 4.24264 -25
      vertex 3.53375 2.36117 -25
    endloop
  endfacet
  facet normal -0 0 -1
    outer loop
      vertex 4.24264 4.24264 -25
      vertex 3.0052 3.0052 -25
      vertex 3.33342 4.98882 -25
    endloop
  endfacet
  facet normal 0 0 -1
    outer loop
      vertex 2.36117 3.53375 -25
      vertex 3.33342 4.98882 -25
      vertex 3.0052 3.0052 -25
    endloop
  endfacet
  facet normal 0 0 -1
    outer loop
      vertex 2.36117 3.53375 -25
      vertex 2.2961 5.54328 -25
      vertex 3.33342 4.98882 -25
    endloop
  endfacet
  facet normal 0 0 -1
    outer loop
      vertex 1.6264 3.92649 -25
      vertex 2.2961 5.54328 -25
      vertex 2.36117 3.53375 -25
    endloop
  endfacet
  facet normal 0 0 -1
    outer loop
      vertex 1.6264 3.92649 -25
      vertex 1.17054 5.88471 -25
      vertex 2.2961 5.54328 -25
    endloop
  endfacet
  facet normal 0 0 -1
    outer loop
      vertex 0.829133 4.16834 -25
      vertex 1.17054 5.88471 -25
      vertex 1.6264 3.92649 -25
    endloop
  endfacet
  facet normal 0 0 -1
    outer loop
      vertex 0 4.25 -25
      vertex 1.17054 5.88471 -25
      vertex 0.829133 4.16834 -25
    endloop
  endfacet
  facet normal 0 0 -1
    outer loop
      vertex 0 4.25 -25
      vertex 0 6 -25
      vertex 1.17054 5.88471 -25
    endloop
  endfacet
  facet normal 0 0 -1
    outer loop
      vertex -0.829133 4.16834 -25
      vertex 0 6 -25
      vertex 0 4.25 -25
    endloop
  endfacet
  facet normal 0 0 -1
    outer loop
      vertex -0.829133 4.16834 -25
      vertex -1.17054 5.88471 -25
      vertex 0 6 -25
    endloop
  endfacet
  facet normal 0 0 -1
    outer loop
      vertex -1.6264 3.92649 -25
      vertex -1.17054 5.88471 -25
      vertex -0.829133 4.16834 -25
    endloop
  endfacet
  facet normal 0 0 -1
    outer loop
      vertex -1.6264 3.92649 -25
      vertex -2.2961 5.54328 -25
      vertex -1.17054 5.88471 -25
    endloop
  endfacet
  facet normal 0 0 -1
    outer loop
      vertex -2.36117 3.53375 -25
      vertex -2.2961 5.54328 -25
      vertex -1.6264 3.92649 -25
    endloop
  endfacet
  facet normal 0 0 -1
    outer loop
      vertex -3.33342 4.98882 -25
      vertex -2.36117 3.53375 -25
      vertex -3.0052 3.0052 -25
    endloop
  endfacet
  facet normal 0 0 -1
    outer loop
      vertex -2.36117 3.53375 -25
      vertex -3.33342 4.98882 -25
      vertex -2.2961 5.54328 -25
    endloop
  endfacet
  facet normal 0 0 -1
    outer loop
      vertex -4.24264 4.24264 -25
      vertex -3.0052 3.0052 -25
      vertex -3.53375 2.36117 -25
    endloop
  endfacet
  facet normal 0 0 -1
    outer loop
      vertex -4.98882 3.33342 -25
      vertex -3.53375 2.36117 -25
      vertex -3.92649 1.6264 -25
    endloop
  endfacet
  facet normal 0 0 -1
    outer loop
      vertex -5.54328 2.2961 -25
      vertex -3.92649 1.6264 -25
      vertex -4.16834 0.829133 -25
    endloop
  endfacet
  facet normal 0 0 -1
    outer loop
      vertex -3.0052 3.0052 -25
      vertex -4.24264 4.24264 -25
      vertex -3.33342 4.98882 -25
    endloop
  endfacet
  facet normal 0 0 -1
    outer loop
      vertex -5.88471 1.17054 -25
      vertex -4.16834 0.829133 -25
      vertex -4.25 0 -25
    endloop
  endfacet
  facet normal 0 0 -1
    outer loop
      vertex -5.88471 -1.17054 -25
      vertex -4.16834 -0.829133 -25
      vertex -5.54328 -2.2961 -25
    endloop
  endfacet
  facet normal 0 0 -1
    outer loop
      vertex -3.53375 2.36117 -25
      vertex -4.98882 3.33342 -25
      vertex -4.24264 4.24264 -25
    endloop
  endfacet
  facet normal -0 0 -1
    outer loop
      vertex -4.16834 -0.829133 -25
      vertex -5.88471 -1.17054 -25
      vertex -4.25 0 -25
    endloop
  endfacet
  facet normal 0 0 -1
    outer loop
      vertex -3.92649 1.6264 -25
      vertex -5.54328 2.2961 -25
      vertex -4.98882 3.33342 -25
    endloop
  endfacet
  facet normal 0 0 -1
    outer loop
      vertex -6 0 -25
      vertex -4.25 0 -25
      vertex -5.88471 -1.17054 -25
    endloop
  endfacet
  facet normal 0 0 -1
    outer loop
      vertex -4.16834 0.829133 -25
      vertex -5.88471 1.17054 -25
      vertex -5.54328 2.2961 -25
    endloop
  endfacet
  facet normal 0 0 -1
    outer loop
      vertex -4.25 0 -25
      vertex -6 0 -25
      vertex -5.88471 1.17054 -25
    endloop
  endfacet
  facet normal 0.881921 0.471397 -0
    outer loop
      vertex 5.54328 2.2961 -25
      vertex 4.98882 3.33342 -16.6031
      vertex 5.54328 2.2961 -16.4479
    endloop
  endfacet
  facet normal 0.881921 0.471397 0
    outer loop
      vertex 4.98882 3.33342 -16.6031
      vertex 5.54328 2.2961 -25
      vertex 4.98882 3.33342 -25
    endloop
  endfacet
  facet normal 0.95694 0.290285 -0
    outer loop
      vertex 5.88471 1.17054 -25
      vertex 5.54328 2.2961 -16.4479
      vertex 5.88471 1.17054 -16.3523
    endloop
  endfacet
  facet normal 0.95694 0.290285 0
    outer loop
      vertex 5.54328 2.2961 -16.4479
      vertex 5.88471 1.17054 -25
      vertex 5.54328 2.2961 -25
    endloop
  endfacet
  facet normal 0.471397 0.881921 -0
    outer loop
      vertex 3.33342 4.98882 -25
      vertex 2.2961 5.54328 -17.3571
      vertex 3.33342 4.98882 -17.0666
    endloop
  endfacet
  facet normal 0.471397 0.881921 0
    outer loop
      vertex 2.2961 5.54328 -17.3571
      vertex 3.33342 4.98882 -25
      vertex 2.2961 5.54328 -25
    endloop
  endfacet
  facet normal 0.290285 0.95694 -0
    outer loop
      vertex 2.2961 5.54328 -25
      vertex 1.17054 5.88471 -17.6722
      vertex 2.2961 5.54328 -17.3571
    endloop
  endfacet
  facet normal 0.290285 0.95694 0
    outer loop
      vertex 1.17054 5.88471 -17.6722
      vertex 2.2961 5.54328 -25
      vertex 1.17054 5.88471 -25
    endloop
  endfacet
  facet normal 0.634393 0.773011 -0
    outer loop
      vertex 4.24264 4.24264 -25
      vertex 3.33342 4.98882 -17.0666
      vertex 4.24264 4.24264 -16.8121
    endloop
  endfacet
  facet normal 0.634393 0.773011 0
    outer loop
      vertex 3.33342 4.98882 -17.0666
      vertex 4.24264 4.24264 -25
      vertex 3.33342 4.98882 -25
    endloop
  endfacet
  facet normal -0.881921 0.471397 0
    outer loop
      vertex -5.54328 2.2961 -25
      vertex -4.98882 3.33342 -13
      vertex -4.98882 3.33342 -25
    endloop
  endfacet
  facet normal -0.881921 0.471397 0
    outer loop
      vertex -4.98882 3.33342 -13
      vertex -5.54328 2.2961 -25
      vertex -5.54328 2.2961 -13
    endloop
  endfacet
  facet normal -0.773011 0.634393 0
    outer loop
      vertex -4.98882 3.33342 -25
      vertex -4.24264 4.24264 -13
      vertex -4.24264 4.24264 -25
    endloop
  endfacet
  facet normal -0.773011 0.634393 0
    outer loop
      vertex -4.24264 4.24264 -13
      vertex -4.98882 3.33342 -25
      vertex -4.98882 3.33342 -13
    endloop
  endfacet
  facet normal -0.95694 0.290285 0
    outer loop
      vertex -5.88471 1.17054 -25
      vertex -5.54328 2.2961 -13
      vertex -5.54328 2.2961 -25
    endloop
  endfacet
  facet normal -0.95694 0.290285 0
    outer loop
      vertex -5.54328 2.2961 -13
      vertex -5.88471 1.17054 -25
      vertex -5.88471 1.17054 -13
    endloop
  endfacet
  facet normal -0 0 1
    outer loop
      vertex -1.17054 5.88471 -13
      vertex 0 -6 -13
      vertex 0 6 -13
    endloop
  endfacet
  facet normal 0 0 1
    outer loop
      vertex -1.17054 5.88471 -13
      vertex -1.17054 -5.88471 -13
      vertex 0 -6 -13
    endloop
  endfacet
  facet normal -0 0 1
    outer loop
      vertex -2.2961 5.54328 -13
      vertex -1.17054 -5.88471 -13
      vertex -1.17054 5.88471 -13
    endloop
  endfacet
  facet normal 0 0 1
    outer loop
      vertex -2.2961 5.54328 -13
      vertex -2.2961 -5.54328 -13
      vertex -1.17054 -5.88471 -13
    endloop
  endfacet
  facet normal -0 0 1
    outer loop
      vertex -3.33342 4.98882 -13
      vertex -2.2961 -5.54328 -13
      vertex -2.2961 5.54328 -13
    endloop
  endfacet
  facet normal 0 0 1
    outer loop
      vertex -3.33342 4.98882 -13
      vertex -3.33342 -4.98882 -13
      vertex -2.2961 -5.54328 -13
    endloop
  endfacet
  facet normal -0 0 1
    outer loop
      vertex -4.24264 4.24264 -13
      vertex -3.33342 -4.98882 -13
      vertex -3.33342 4.98882 -13
    endloop
  endfacet
  facet normal 0 0 1
    outer loop
      vertex -4.24264 4.24264 -13
      vertex -4.24264 -4.24264 -13
      vertex -3.33342 -4.98882 -13
    endloop
  endfacet
  facet normal -0 0 1
    outer loop
      vertex -4.98882 3.33342 -13
      vertex -4.24264 -4.24264 -13
      vertex -4.24264 4.24264 -13
    endloop
  endfacet
  facet normal 0 0 1
    outer loop
      vertex -4.98882 3.33342 -13
      vertex -4.98882 -3.33342 -13
      vertex -4.24264 -4.24264 -13
    endloop
  endfacet
  facet normal -0 0 1
    outer loop
      vertex -5.54328 2.2961 -13
      vertex -4.98882 -3.33342 -13
      vertex -4.98882 3.33342 -13
    endloop
  endfacet
  facet normal 0 0 1
    outer loop
      vertex -5.54328 2.2961 -13
      vertex -5.54328 -2.2961 -13
      vertex -4.98882 -3.33342 -13
    endloop
  endfacet
  facet normal -0 0 1
    outer loop
      vertex -5.88471 1.17054 -13
      vertex -5.54328 -2.2961 -13
      vertex -5.54328 2.2961 -13
    endloop
  endfacet
  facet normal 0 0 1
    outer loop
      vertex -5.88471 1.17054 -13
      vertex -5.88471 -1.17054 -13
      vertex -5.54328 -2.2961 -13
    endloop
  endfacet
  facet normal 0 -0 1
    outer loop
      vertex -5.88471 -1.17054 -13
      vertex -5.88471 1.17054 -13
      vertex -6 0 -13
    endloop
  endfacet
  facet normal -0.471397 0.881921 0
    outer loop
      vertex -2.2961 5.54328 -25
      vertex -3.33342 4.98882 -13
      vertex -2.2961 5.54328 -13
    endloop
  endfacet
  facet normal -0.471397 0.881921 0
    outer loop
      vertex -3.33342 4.98882 -13
      vertex -2.2961 5.54328 -25
      vertex -3.33342 4.98882 -25
    endloop
  endfacet
  facet normal -0.0980175 0.995185 0
    outer loop
      vertex 0 6 -18
      vertex -1.17054 5.88471 -13
      vertex 0 6 -13
    endloop
  endfacet
  facet normal -0.0980175 0.995185 0
    outer loop
      vertex -1.17054 5.88471 -25
      vertex 0 6 -18
      vertex 0 6 -25
    endloop
  endfacet
  facet normal -0.0980175 0.995185 0
    outer loop
      vertex 0 6 -18
      vertex -1.17054 5.88471 -25
      vertex -1.17054 5.88471 -13
    endloop
  endfacet
  facet normal 0.995185 -0.0980175 0
    outer loop
      vertex 5.88471 -1.17054 -16.3523
      vertex 6 0 -25
      vertex 6 0 -16.32
    endloop
  endfacet
  facet normal 0.995185 -0.0980175 0
    outer loop
      vertex 6 0 -25
      vertex 5.88471 -1.17054 -16.3523
      vertex 5.88471 -1.17054 -25
    endloop
  endfacet
  facet normal 0.0980175 -0.995185 0
    outer loop
      vertex 1.17054 -5.88471 -25
      vertex 0 -6 -18
      vertex 0 -6 -25
    endloop
  endfacet
  facet normal 0.0980175 -0.995185 0
    outer loop
      vertex 0 -6 -18
      vertex 1.17054 -5.88471 -25
      vertex 1.17054 -5.88471 -17.6722
    endloop
  endfacet
  facet normal 0.471397 -0.881921 0
    outer loop
      vertex 3.33342 -4.98882 -25
      vertex 2.2961 -5.54328 -17.3571
      vertex 2.2961 -5.54328 -25
    endloop
  endfacet
  facet normal 0.471397 -0.881921 0
    outer loop
      vertex 2.2961 -5.54328 -17.3571
      vertex 3.33342 -4.98882 -25
      vertex 3.33342 -4.98882 -17.0666
    endloop
  endfacet
  facet normal -0.634393 -0.773011 0
    outer loop
      vertex -4.24264 -4.24264 -25
      vertex -3.33342 -4.98882 -13
      vertex -4.24264 -4.24264 -13
    endloop
  endfacet
  facet normal -0.634393 -0.773011 -0
    outer loop
      vertex -3.33342 -4.98882 -13
      vertex -4.24264 -4.24264 -25
      vertex -3.33342 -4.98882 -25
    endloop
  endfacet
  facet normal -0.290285 -0.95694 0
    outer loop
      vertex -2.2961 -5.54328 -25
      vertex -1.17054 -5.88471 -13
      vertex -2.2961 -5.54328 -13
    endloop
  endfacet
  facet normal -0.290285 -0.95694 -0
    outer loop
      vertex -1.17054 -5.88471 -13
      vertex -2.2961 -5.54328 -25
      vertex -1.17054 -5.88471 -25
    endloop
  endfacet
  facet normal -0.881921 -0.471397 0
    outer loop
      vertex -4.98882 -3.33342 -25
      vertex -5.54328 -2.2961 -13
      vertex -5.54328 -2.2961 -25
    endloop
  endfacet
  facet normal -0.881921 -0.471397 0
    outer loop
      vertex -5.54328 -2.2961 -13
      vertex -4.98882 -3.33342 -25
      vertex -4.98882 -3.33342 -13
    endloop
  endfacet
  facet normal -0.995185 -0.0980175 0
    outer loop
      vertex -5.88471 -1.17054 -25
      vertex -6 0 -13
      vertex -6 0 -25
    endloop
  endfacet
  facet normal -0.995185 -0.0980175 0
    outer loop
      vertex -6 0 -13
      vertex -5.88471 -1.17054 -25
      vertex -5.88471 -1.17054 -13
    endloop
  endfacet
  facet normal 0.290285 -0.95694 0
    outer loop
      vertex 2.2961 -5.54328 -25
      vertex 1.17054 -5.88471 -17.6722
      vertex 1.17054 -5.88471 -25
    endloop
  endfacet
  facet normal 0.290285 -0.95694 0
    outer loop
      vertex 1.17054 -5.88471 -17.6722
      vertex 2.2961 -5.54328 -25
      vertex 2.2961 -5.54328 -17.3571
    endloop
  endfacet
  facet normal 0.634393 -0.773011 0
    outer loop
      vertex 4.24264 -4.24264 -25
      vertex 3.33342 -4.98882 -17.0666
      vertex 3.33342 -4.98882 -25
    endloop
  endfacet
  facet normal 0.634393 -0.773011 0
    outer loop
      vertex 3.33342 -4.98882 -17.0666
      vertex 4.24264 -4.24264 -25
      vertex 4.24264 -4.24264 -16.8121
    endloop
  endfacet
  facet normal 0.773011 -0.634393 0
    outer loop
      vertex 4.24264 -4.24264 -16.8121
      vertex 4.98882 -3.33342 -25
      vertex 4.98882 -3.33342 -16.6031
    endloop
  endfacet
  facet normal 0.773011 -0.634393 0
    outer loop
      vertex 4.98882 -3.33342 -25
      vertex 4.24264 -4.24264 -16.8121
      vertex 4.24264 -4.24264 -25
    endloop
  endfacet
  facet normal -0.471397 -0.881921 0
    outer loop
      vertex -3.33342 -4.98882 -25
      vertex -2.2961 -5.54328 -13
      vertex -3.33342 -4.98882 -13
    endloop
  endfacet
  facet normal -0.471397 -0.881921 -0
    outer loop
      vertex -2.2961 -5.54328 -13
      vertex -3.33342 -4.98882 -25
      vertex -2.2961 -5.54328 -25
    endloop
  endfacet
  facet normal -0.0980175 -0.995185 0
    outer loop
      vertex -1.17054 -5.88471 -13
      vertex 0 -6 -18
      vertex 0 -6 -13
    endloop
  endfacet
  facet normal -0.0980175 -0.995185 0
    outer loop
      vertex -1.17054 -5.88471 -25
      vertex 0 -6 -18
      vertex -1.17054 -5.88471 -13
    endloop
  endfacet
  facet normal -0.0980175 -0.995185 -0
    outer loop
      vertex 0 -6 -18
      vertex -1.17054 -5.88471 -25
      vertex 0 -6 -25
    endloop
  endfacet
  facet normal -0.95694 -0.290285 0
    outer loop
      vertex -5.54328 -2.2961 -25
      vertex -5.88471 -1.17054 -13
      vertex -5.88471 -1.17054 -25
    endloop
  endfacet
  facet normal -0.95694 -0.290285 0
    outer loop
      vertex -5.88471 -1.17054 -13
      vertex -5.54328 -2.2961 -25
      vertex -5.54328 -2.2961 -13
    endloop
  endfacet
  facet normal 0.881921 -0.471397 0
    outer loop
      vertex 4.98882 -3.33342 -16.6031
      vertex 5.54328 -2.2961 -25
      vertex 5.54328 -2.2961 -16.4479
    endloop
  endfacet
  facet normal 0.881921 -0.471397 0
    outer loop
      vertex 5.54328 -2.2961 -25
      vertex 4.98882 -3.33342 -16.6031
      vertex 4.98882 -3.33342 -25
    endloop
  endfacet
  facet normal 0.95694 -0.290285 0
    outer loop
      vertex 5.54328 -2.2961 -16.4479
      vertex 5.88471 -1.17054 -25
      vertex 5.88471 -1.17054 -16.3523
    endloop
  endfacet
  facet normal 0.95694 -0.290285 0
    outer loop
      vertex 5.88471 -1.17054 -25
      vertex 5.54328 -2.2961 -16.4479
      vertex 5.54328 -2.2961 -25
    endloop
  endfacet
  facet normal 1 0 0
    outer loop
      vertex 12.5 1.87744 3.2365
      vertex 12.5 -3.10454 0.261489
      vertex 12.5 1.87744 0.26149
    endloop
  endfacet
  facet normal 1 0 0
    outer loop
      vertex 12.5 -3.71954 3.2365
      vertex 12.5 -3.10454 -0.676498
      vertex 12.5 -3.10454 0.261489
    endloop
  endfacet
  facet normal 1 0 0
    outer loop
      vertex 12.5 -5 -9.5
      vertex 12.5 -3.46954 -3.4375
      vertex 12.5 -3.71954 3.2365
    endloop
  endfacet
  facet normal 1 0 0
    outer loop
      vertex 12.5 -3.10454 -0.676498
      vertex 12.5 -3.71954 3.2365
      vertex 12.5 -3.46954 -3.4375
    endloop
  endfacet
  facet normal 1 -0 0
    outer loop
      vertex 12.5 -3.71954 3.2365
      vertex 12.5 -3.10454 0.261489
      vertex 12.5 1.87744 3.2365
    endloop
  endfacet
  facet normal 1 -0 0
    outer loop
      vertex 12.5 -3.10454 -0.676498
      vertex 12.5 1.87744 -3.4375
      vertex 12.5 1.87744 -0.676497
    endloop
  endfacet
  facet normal 1 0 0
    outer loop
      vertex 12.5 1.87744 -3.4375
      vertex 12.5 -3.10454 -0.676498
      vertex 12.5 -3.46954 -3.4375
    endloop
  endfacet
  facet normal 1 -0 0
    outer loop
      vertex 12.5 3.04144 4.1875
      vertex 12.5 5 -9.5
      vertex 12.5 5 11
    endloop
  endfacet
  facet normal 1 0 0
    outer loop
      vertex 12.5 -5 -9.5
      vertex 12.5 5 -9.5
      vertex 12.5 3.04144 -4.38849
    endloop
  endfacet
  facet normal 1 0 0
    outer loop
      vertex 12.5 5 -9.5
      vertex 12.5 3.04144 4.1875
      vertex 12.5 3.04144 -4.38849
    endloop
  endfacet
  facet normal 1 -0 0
    outer loop
      vertex 12.5 -5 11
      vertex 12.5 3.04144 4.1875
      vertex 12.5 5 11
    endloop
  endfacet
  facet normal 1 0 0
    outer loop
      vertex 12.5 -3.71954 4.1875
      vertex 12.5 -5 11
      vertex 12.5 -3.71954 3.2365
    endloop
  endfacet
  facet normal 1 0 0
    outer loop
      vertex 12.5 3.04144 4.1875
      vertex 12.5 -5 11
      vertex 12.5 -3.71954 4.1875
    endloop
  endfacet
  facet normal 1 0 0
    outer loop
      vertex 12.5 -5 -9.5
      vertex 12.5 3.04144 -4.38849
      vertex 12.5 -3.46954 -4.38849
    endloop
  endfacet
  facet normal 1 0 0
    outer loop
      vertex 12.5 -5 -9.5
      vertex 12.5 -3.71954 3.2365
      vertex 12.5 -5 11
    endloop
  endfacet
  facet normal 1 0 0
    outer loop
      vertex 12.5 -3.46954 -3.4375
      vertex 12.5 -5 -9.5
      vertex 12.5 -3.46954 -4.38849
    endloop
  endfacet
  facet normal 1 0 0
    outer loop
      vertex 12.5 5 -9.5
      vertex 12.5 -5 -9.5
      vertex 12.5 5 -14.5
    endloop
  endfacet
  facet normal 1 0 0
    outer loop
      vertex 12.5 5 -14.5
      vertex 12.5 -5 -9.5
      vertex 12.5 -5 -14.5
    endloop
  endfacet
  facet normal 0.26963 0 -0.962964
    outer loop
      vertex 12.5 -5 -14.5
      vertex 6 0 -16.32
      vertex 12.5 5 -14.5
    endloop
  endfacet
  facet normal 0.26963 7.91784e-07 -0.962964
    outer loop
      vertex 12.5 -5 -14.5
      vertex 5.88471 -1.17054 -16.3523
      vertex 6 0 -16.32
    endloop
  endfacet
  facet normal 0.269629 -1.13768e-06 -0.962964
    outer loop
      vertex 12.5 -5 -14.5
      vertex 5.54328 -2.2961 -16.4479
      vertex 5.88471 -1.17054 -16.3523
    endloop
  endfacet
  facet normal 0.26963 1.97544e-08 -0.962964
    outer loop
      vertex 12.5 -5 -14.5
      vertex 4.98882 -3.33342 -16.6031
      vertex 5.54328 -2.2961 -16.4479
    endloop
  endfacet
  facet normal 0.26963 1.40765e-06 -0.962964
    outer loop
      vertex 12.5 -5 -14.5
      vertex 4.24264 -4.24264 -16.8121
      vertex 4.98882 -3.33342 -16.6031
    endloop
  endfacet
  facet normal 0.26963 -1.7145e-07 -0.962964
    outer loop
      vertex 12.5 -5 -14.5
      vertex 3.33342 -4.98882 -17.0666
      vertex 4.24264 -4.24264 -16.8121
    endloop
  endfacet
  facet normal 0.26963 -1.43423e-06 -0.962964
    outer loop
      vertex 12.5 -5 -14.5
      vertex 2.2961 -5.54328 -17.3571
      vertex 3.33342 -4.98882 -17.0666
    endloop
  endfacet
  facet normal 0.26963 2.5513e-06 -0.962964
    outer loop
      vertex 12.5 -5 -14.5
      vertex 1.17054 -5.88471 -17.6722
      vertex 2.2961 -5.54328 -17.3571
    endloop
  endfacet
  facet normal 0.269632 -2.37592e-05 -0.962964
    outer loop
      vertex 1.17054 -5.88471 -17.6722
      vertex 12.5 -5 -14.5
      vertex 0 -6 -18
    endloop
  endfacet
  facet normal 0.26963 -7.91784e-07 -0.962964
    outer loop
      vertex 5.88471 1.17054 -16.3523
      vertex 12.5 5 -14.5
      vertex 6 0 -16.32
    endloop
  endfacet
  facet normal 0.269629 1.13768e-06 -0.962964
    outer loop
      vertex 5.54328 2.2961 -16.4479
      vertex 12.5 5 -14.5
      vertex 5.88471 1.17054 -16.3523
    endloop
  endfacet
  facet normal 0.26963 -1.97544e-08 -0.962964
    outer loop
      vertex 4.98882 3.33342 -16.6031
      vertex 12.5 5 -14.5
      vertex 5.54328 2.2961 -16.4479
    endloop
  endfacet
  facet normal 0.26963 -1.40765e-06 -0.962964
    outer loop
      vertex 4.24264 4.24264 -16.8121
      vertex 12.5 5 -14.5
      vertex 4.98882 3.33342 -16.6031
    endloop
  endfacet
  facet normal 0.26963 1.7145e-07 -0.962964
    outer loop
      vertex 3.33342 4.98882 -17.0666
      vertex 12.5 5 -14.5
      vertex 4.24264 4.24264 -16.8121
    endloop
  endfacet
  facet normal 0.26963 1.43423e-06 -0.962964
    outer loop
      vertex 2.2961 5.54328 -17.3571
      vertex 12.5 5 -14.5
      vertex 3.33342 4.98882 -17.0666
    endloop
  endfacet
  facet normal 0.26963 -2.5513e-06 -0.962964
    outer loop
      vertex 1.17054 5.88471 -17.6722
      vertex 12.5 5 -14.5
      vertex 2.2961 5.54328 -17.3571
    endloop
  endfacet
  facet normal 0.269632 2.37592e-05 -0.962964
    outer loop
      vertex 12.5 5 -14.5
      vertex 1.17054 5.88471 -17.6722
      vertex 0 6 -18
    endloop
  endfacet
  facet normal 0.0797452 0.996815 -0
    outer loop
      vertex 12.5 5 -14.5
      vertex 0 6 -13
      vertex 12.5 5 -9.5
    endloop
  endfacet
  facet normal 0.0797452 0.996815 0
    outer loop
      vertex 0 6 -13
      vertex 12.5 5 -14.5
      vertex 0 6 -18
    endloop
  endfacet
  facet normal 0.0797452 -0.996815 0
    outer loop
      vertex 0 -6 -13
      vertex 12.5 -5 -14.5
      vertex 12.5 -5 -9.5
    endloop
  endfacet
  facet normal 0.0797452 -0.996815 0
    outer loop
      vertex 12.5 -5 -14.5
      vertex 0 -6 -13
      vertex 0 -6 -18
    endloop
  endfacet
  facet normal -0.26963 0 0.962964
    outer loop
      vertex 7.5 5 -10.9
      vertex 0 6 -13
      vertex 7.5 -5 -10.9
    endloop
  endfacet
  facet normal -0.26963 9.18354e-07 0.962964
    outer loop
      vertex 0 6 -13
      vertex 7.5 5 -10.9
      vertex 12.5 5 -9.5
    endloop
  endfacet
  facet normal -0.26963 -9.18354e-07 0.962964
    outer loop
      vertex 7.5 -5 -10.9
      vertex 0 -6 -13
      vertex 12.5 -5 -9.5
    endloop
  endfacet
  facet normal -0.26963 0 0.962964
    outer loop
      vertex 0 -6 -13
      vertex 7.5 -5 -10.9
      vertex 0 6 -13
    endloop
  endfacet
  facet normal -0.995185 -0.0980179 0
    outer loop
      vertex 4.25 0 -25
      vertex 4.16834 0.829133 -15
      vertex 4.16834 0.829133 -25
    endloop
  endfacet
  facet normal -0.995185 -0.0980179 0
    outer loop
      vertex 4.16834 0.829133 -15
      vertex 4.25 0 -25
      vertex 4.25 0 -15
    endloop
  endfacet
  facet normal 0.995185 -0.0980179 0
    outer loop
      vertex -4.25 0 -15
      vertex -4.16834 0.829133 -25
      vertex -4.16834 0.829133 -15
    endloop
  endfacet
  facet normal 0.995185 -0.0980179 0
    outer loop
      vertex -4.16834 0.829133 -25
      vertex -4.25 0 -15
      vertex -4.25 0 -25
    endloop
  endfacet
  facet normal -0.0980179 -0.995185 0
    outer loop
      vertex 0 4.25 -25
      vertex 0.829133 4.16834 -15
      vertex 0 4.25 -15
    endloop
  endfacet
  facet normal -0.0980179 -0.995185 -0
    outer loop
      vertex 0.829133 4.16834 -15
      vertex 0 4.25 -25
      vertex 0.829133 4.16834 -25
    endloop
  endfacet
  facet normal 0.77301 0.634393 0
    outer loop
      vertex -3.0052 -3.0052 -15
      vertex -3.53375 -2.36117 -25
      vertex -3.53375 -2.36117 -15
    endloop
  endfacet
  facet normal 0.77301 0.634393 0
    outer loop
      vertex -3.53375 -2.36117 -25
      vertex -3.0052 -3.0052 -15
      vertex -3.0052 -3.0052 -25
    endloop
  endfacet
  facet normal -0.634393 -0.77301 0
    outer loop
      vertex 2.36117 3.53375 -25
      vertex 3.0052 3.0052 -15
      vertex 2.36117 3.53375 -15
    endloop
  endfacet
  facet normal -0.634393 -0.77301 -0
    outer loop
      vertex 3.0052 3.0052 -15
      vertex 2.36117 3.53375 -25
      vertex 3.0052 3.0052 -25
    endloop
  endfacet
  facet normal -0.471397 -0.881921 0
    outer loop
      vertex 1.6264 3.92649 -25
      vertex 2.36117 3.53375 -15
      vertex 1.6264 3.92649 -15
    endloop
  endfacet
  facet normal -0.471397 -0.881921 -0
    outer loop
      vertex 2.36117 3.53375 -15
      vertex 1.6264 3.92649 -25
      vertex 2.36117 3.53375 -25
    endloop
  endfacet
  facet normal 0.634393 -0.77301 0
    outer loop
      vertex -3.0052 3.0052 -25
      vertex -2.36117 3.53375 -15
      vertex -3.0052 3.0052 -15
    endloop
  endfacet
  facet normal 0.634393 -0.77301 0
    outer loop
      vertex -2.36117 3.53375 -15
      vertex -3.0052 3.0052 -25
      vertex -2.36117 3.53375 -25
    endloop
  endfacet
  facet normal 0.290284 -0.956941 0
    outer loop
      vertex -1.6264 3.92649 -25
      vertex -0.829133 4.16834 -15
      vertex -1.6264 3.92649 -15
    endloop
  endfacet
  facet normal 0.290284 -0.956941 0
    outer loop
      vertex -0.829133 4.16834 -15
      vertex -1.6264 3.92649 -25
      vertex -0.829133 4.16834 -25
    endloop
  endfacet
  facet normal -0.77301 0.634393 0
    outer loop
      vertex 3.0052 -3.0052 -25
      vertex 3.53375 -2.36117 -15
      vertex 3.53375 -2.36117 -25
    endloop
  endfacet
  facet normal -0.77301 0.634393 0
    outer loop
      vertex 3.53375 -2.36117 -15
      vertex 3.0052 -3.0052 -25
      vertex 3.0052 -3.0052 -15
    endloop
  endfacet
  facet normal -0.881921 0.471397 0
    outer loop
      vertex 3.53375 -2.36117 -25
      vertex 3.92649 -1.6264 -15
      vertex 3.92649 -1.6264 -25
    endloop
  endfacet
  facet normal -0.881921 0.471397 0
    outer loop
      vertex 3.92649 -1.6264 -15
      vertex 3.53375 -2.36117 -25
      vertex 3.53375 -2.36117 -15
    endloop
  endfacet
  facet normal -0.881921 -0.471397 0
    outer loop
      vertex 3.92649 1.6264 -25
      vertex 3.53375 2.36117 -15
      vertex 3.53375 2.36117 -25
    endloop
  endfacet
  facet normal -0.881921 -0.471397 0
    outer loop
      vertex 3.53375 2.36117 -15
      vertex 3.92649 1.6264 -25
      vertex 3.92649 1.6264 -15
    endloop
  endfacet
  facet normal -0.956941 -0.290284 0
    outer loop
      vertex 4.16834 0.829133 -25
      vertex 3.92649 1.6264 -15
      vertex 3.92649 1.6264 -25
    endloop
  endfacet
  facet normal -0.956941 -0.290284 0
    outer loop
      vertex 3.92649 1.6264 -15
      vertex 4.16834 0.829133 -25
      vertex 4.16834 0.829133 -15
    endloop
  endfacet
  facet normal -0.77301 -0.634393 0
    outer loop
      vertex 3.53375 2.36117 -25
      vertex 3.0052 3.0052 -15
      vertex 3.0052 3.0052 -25
    endloop
  endfacet
  facet normal -0.77301 -0.634393 0
    outer loop
      vertex 3.0052 3.0052 -15
      vertex 3.53375 2.36117 -25
      vertex 3.53375 2.36117 -15
    endloop
  endfacet
  facet normal -0.290284 -0.956941 0
    outer loop
      vertex 0.829133 4.16834 -25
      vertex 1.6264 3.92649 -15
      vertex 0.829133 4.16834 -15
    endloop
  endfacet
  facet normal -0.290284 -0.956941 -0
    outer loop
      vertex 1.6264 3.92649 -15
      vertex 0.829133 4.16834 -25
      vertex 1.6264 3.92649 -25
    endloop
  endfacet
  facet normal 0.881921 -0.471397 0
    outer loop
      vertex -3.92649 1.6264 -15
      vertex -3.53375 2.36117 -25
      vertex -3.53375 2.36117 -15
    endloop
  endfacet
  facet normal 0.881921 -0.471397 0
    outer loop
      vertex -3.53375 2.36117 -25
      vertex -3.92649 1.6264 -15
      vertex -3.92649 1.6264 -25
    endloop
  endfacet
  facet normal 0.77301 -0.634393 0
    outer loop
      vertex -3.53375 2.36117 -15
      vertex -3.0052 3.0052 -25
      vertex -3.0052 3.0052 -15
    endloop
  endfacet
  facet normal 0.77301 -0.634393 0
    outer loop
      vertex -3.0052 3.0052 -25
      vertex -3.53375 2.36117 -15
      vertex -3.53375 2.36117 -25
    endloop
  endfacet
  facet normal 0.956941 -0.290284 0
    outer loop
      vertex -4.16834 0.829133 -15
      vertex -3.92649 1.6264 -25
      vertex -3.92649 1.6264 -15
    endloop
  endfacet
  facet normal 0.956941 -0.290284 0
    outer loop
      vertex -3.92649 1.6264 -25
      vertex -4.16834 0.829133 -15
      vertex -4.16834 0.829133 -25
    endloop
  endfacet
  facet normal 0 0 -1
    outer loop
      vertex 4.16834 -0.829133 -15
      vertex 4.16834 0.829133 -15
      vertex 4.25 0 -15
    endloop
  endfacet
  facet normal 0 0 -1
    outer loop
      vertex 3.92649 -1.6264 -15
      vertex 4.16834 0.829133 -15
      vertex 4.16834 -0.829133 -15
    endloop
  endfacet
  facet normal 0 0 -1
    outer loop
      vertex 3.92649 -1.6264 -15
      vertex 3.92649 1.6264 -15
      vertex 4.16834 0.829133 -15
    endloop
  endfacet
  facet normal 0 0 -1
    outer loop
      vertex 3.53375 -2.36117 -15
      vertex 3.92649 1.6264 -15
      vertex 3.92649 -1.6264 -15
    endloop
  endfacet
  facet normal 0 0 -1
    outer loop
      vertex 3.53375 -2.36117 -15
      vertex 3.53375 2.36117 -15
      vertex 3.92649 1.6264 -15
    endloop
  endfacet
  facet normal 0 0 -1
    outer loop
      vertex 3.0052 -3.0052 -15
      vertex 3.53375 2.36117 -15
      vertex 3.53375 -2.36117 -15
    endloop
  endfacet
  facet normal 0 0 -1
    outer loop
      vertex 3.0052 -3.0052 -15
      vertex 3.0052 3.0052 -15
      vertex 3.53375 2.36117 -15
    endloop
  endfacet
  facet normal 0 0 -1
    outer loop
      vertex 2.36117 -3.53375 -15
      vertex 3.0052 3.0052 -15
      vertex 3.0052 -3.0052 -15
    endloop
  endfacet
  facet normal 0 0 -1
    outer loop
      vertex 2.36117 -3.53375 -15
      vertex 2.36117 3.53375 -15
      vertex 3.0052 3.0052 -15
    endloop
  endfacet
  facet normal 0 0 -1
    outer loop
      vertex 1.6264 -3.92649 -15
      vertex 2.36117 3.53375 -15
      vertex 2.36117 -3.53375 -15
    endloop
  endfacet
  facet normal 0 0 -1
    outer loop
      vertex 1.6264 -3.92649 -15
      vertex 1.6264 3.92649 -15
      vertex 2.36117 3.53375 -15
    endloop
  endfacet
  facet normal 0 0 -1
    outer loop
      vertex 0.829133 -4.16834 -15
      vertex 1.6264 3.92649 -15
      vertex 1.6264 -3.92649 -15
    endloop
  endfacet
  facet normal 0 0 -1
    outer loop
      vertex 0.829133 -4.16834 -15
      vertex 0.829133 4.16834 -15
      vertex 1.6264 3.92649 -15
    endloop
  endfacet
  facet normal 0 0 -1
    outer loop
      vertex 0 -4.25 -15
      vertex 0.829133 4.16834 -15
      vertex 0.829133 -4.16834 -15
    endloop
  endfacet
  facet normal 0 0 -1
    outer loop
      vertex 0 -4.25 -15
      vertex 0 4.25 -15
      vertex 0.829133 4.16834 -15
    endloop
  endfacet
  facet normal 0 0 -1
    outer loop
      vertex -0.829133 -4.16834 -15
      vertex 0 4.25 -15
      vertex 0 -4.25 -15
    endloop
  endfacet
  facet normal 0 0 -1
    outer loop
      vertex -0.829133 -4.16834 -15
      vertex -0.829133 4.16834 -15
      vertex 0 4.25 -15
    endloop
  endfacet
  facet normal 0 0 -1
    outer loop
      vertex -1.6264 -3.92649 -15
      vertex -0.829133 4.16834 -15
      vertex -0.829133 -4.16834 -15
    endloop
  endfacet
  facet normal 0 0 -1
    outer loop
      vertex -1.6264 -3.92649 -15
      vertex -1.6264 3.92649 -15
      vertex -0.829133 4.16834 -15
    endloop
  endfacet
  facet normal 0 0 -1
    outer loop
      vertex -2.36117 -3.53375 -15
      vertex -1.6264 3.92649 -15
      vertex -1.6264 -3.92649 -15
    endloop
  endfacet
  facet normal 0 0 -1
    outer loop
      vertex -2.36117 -3.53375 -15
      vertex -2.36117 3.53375 -15
      vertex -1.6264 3.92649 -15
    endloop
  endfacet
  facet normal 0 0 -1
    outer loop
      vertex -3.0052 -3.0052 -15
      vertex -2.36117 3.53375 -15
      vertex -2.36117 -3.53375 -15
    endloop
  endfacet
  facet normal 0 0 -1
    outer loop
      vertex -3.0052 -3.0052 -15
      vertex -3.0052 3.0052 -15
      vertex -2.36117 3.53375 -15
    endloop
  endfacet
  facet normal 0 0 -1
    outer loop
      vertex -3.53375 -2.36117 -15
      vertex -3.0052 3.0052 -15
      vertex -3.0052 -3.0052 -15
    endloop
  endfacet
  facet normal 0 0 -1
    outer loop
      vertex -3.53375 -2.36117 -15
      vertex -3.53375 2.36117 -15
      vertex -3.0052 3.0052 -15
    endloop
  endfacet
  facet normal 0 0 -1
    outer loop
      vertex -3.92649 -1.6264 -15
      vertex -3.53375 2.36117 -15
      vertex -3.53375 -2.36117 -15
    endloop
  endfacet
  facet normal 0 0 -1
    outer loop
      vertex -3.92649 -1.6264 -15
      vertex -3.92649 1.6264 -15
      vertex -3.53375 2.36117 -15
    endloop
  endfacet
  facet normal 0 0 -1
    outer loop
      vertex -4.16834 -0.829133 -15
      vertex -3.92649 1.6264 -15
      vertex -3.92649 -1.6264 -15
    endloop
  endfacet
  facet normal 0 0 -1
    outer loop
      vertex -4.16834 -0.829133 -15
      vertex -4.16834 0.829133 -15
      vertex -3.92649 1.6264 -15
    endloop
  endfacet
  facet normal 0 -0 -1
    outer loop
      vertex -4.16834 0.829133 -15
      vertex -4.16834 -0.829133 -15
      vertex -4.25 0 -15
    endloop
  endfacet
  facet normal 0.471397 -0.881921 0
    outer loop
      vertex -2.36117 3.53375 -25
      vertex -1.6264 3.92649 -15
      vertex -2.36117 3.53375 -15
    endloop
  endfacet
  facet normal 0.471397 -0.881921 0
    outer loop
      vertex -1.6264 3.92649 -15
      vertex -2.36117 3.53375 -25
      vertex -1.6264 3.92649 -25
    endloop
  endfacet
  facet normal 0.0980179 -0.995185 0
    outer loop
      vertex -0.829133 4.16834 -25
      vertex 0 4.25 -15
      vertex -0.829133 4.16834 -15
    endloop
  endfacet
  facet normal 0.0980179 -0.995185 0
    outer loop
      vertex 0 4.25 -15
      vertex -0.829133 4.16834 -25
      vertex 0 4.25 -25
    endloop
  endfacet
  facet normal -0.995185 0.0980179 0
    outer loop
      vertex 4.16834 -0.829133 -25
      vertex 4.25 0 -15
      vertex 4.25 0 -25
    endloop
  endfacet
  facet normal -0.995185 0.0980179 0
    outer loop
      vertex 4.25 0 -15
      vertex 4.16834 -0.829133 -25
      vertex 4.16834 -0.829133 -15
    endloop
  endfacet
  facet normal -0.634393 0.77301 0
    outer loop
      vertex 3.0052 -3.0052 -25
      vertex 2.36117 -3.53375 -15
      vertex 3.0052 -3.0052 -15
    endloop
  endfacet
  facet normal -0.634393 0.77301 0
    outer loop
      vertex 2.36117 -3.53375 -15
      vertex 3.0052 -3.0052 -25
      vertex 2.36117 -3.53375 -25
    endloop
  endfacet
  facet normal 0.634393 0.77301 -0
    outer loop
      vertex -2.36117 -3.53375 -25
      vertex -3.0052 -3.0052 -15
      vertex -2.36117 -3.53375 -15
    endloop
  endfacet
  facet normal 0.634393 0.77301 0
    outer loop
      vertex -3.0052 -3.0052 -15
      vertex -2.36117 -3.53375 -25
      vertex -3.0052 -3.0052 -25
    endloop
  endfacet
  facet normal 0.290284 0.956941 -0
    outer loop
      vertex -0.829133 -4.16834 -25
      vertex -1.6264 -3.92649 -15
      vertex -0.829133 -4.16834 -15
    endloop
  endfacet
  facet normal 0.290284 0.956941 0
    outer loop
      vertex -1.6264 -3.92649 -15
      vertex -0.829133 -4.16834 -25
      vertex -1.6264 -3.92649 -25
    endloop
  endfacet
  facet normal 0.881921 0.471397 0
    outer loop
      vertex -3.53375 -2.36117 -15
      vertex -3.92649 -1.6264 -25
      vertex -3.92649 -1.6264 -15
    endloop
  endfacet
  facet normal 0.881921 0.471397 0
    outer loop
      vertex -3.92649 -1.6264 -25
      vertex -3.53375 -2.36117 -15
      vertex -3.53375 -2.36117 -25
    endloop
  endfacet
  facet normal 0.995185 0.0980179 0
    outer loop
      vertex -4.16834 -0.829133 -15
      vertex -4.25 0 -25
      vertex -4.25 0 -15
    endloop
  endfacet
  facet normal 0.995185 0.0980179 0
    outer loop
      vertex -4.25 0 -25
      vertex -4.16834 -0.829133 -15
      vertex -4.16834 -0.829133 -25
    endloop
  endfacet
  facet normal -0.0980179 0.995185 0
    outer loop
      vertex 0.829133 -4.16834 -25
      vertex 0 -4.25 -15
      vertex 0.829133 -4.16834 -15
    endloop
  endfacet
  facet normal -0.0980179 0.995185 0
    outer loop
      vertex 0 -4.25 -15
      vertex 0.829133 -4.16834 -25
      vertex 0 -4.25 -25
    endloop
  endfacet
  facet normal -0.471397 0.881921 0
    outer loop
      vertex 2.36117 -3.53375 -25
      vertex 1.6264 -3.92649 -15
      vertex 2.36117 -3.53375 -15
    endloop
  endfacet
  facet normal -0.471397 0.881921 0
    outer loop
      vertex 1.6264 -3.92649 -15
      vertex 2.36117 -3.53375 -25
      vertex 1.6264 -3.92649 -25
    endloop
  endfacet
  facet normal -0.956941 0.290284 0
    outer loop
      vertex 3.92649 -1.6264 -25
      vertex 4.16834 -0.829133 -15
      vertex 4.16834 -0.829133 -25
    endloop
  endfacet
  facet normal -0.956941 0.290284 0
    outer loop
      vertex 4.16834 -0.829133 -15
      vertex 3.92649 -1.6264 -25
      vertex 3.92649 -1.6264 -15
    endloop
  endfacet
  facet normal 0.471397 0.881921 -0
    outer loop
      vertex -1.6264 -3.92649 -25
      vertex -2.36117 -3.53375 -15
      vertex -1.6264 -3.92649 -15
    endloop
  endfacet
  facet normal 0.471397 0.881921 0
    outer loop
      vertex -2.36117 -3.53375 -15
      vertex -1.6264 -3.92649 -25
      vertex -2.36117 -3.53375 -25
    endloop
  endfacet
  facet normal 0.0980179 0.995185 -0
    outer loop
      vertex 0 -4.25 -25
      vertex -0.829133 -4.16834 -15
      vertex 0 -4.25 -15
    endloop
  endfacet
  facet normal 0.0980179 0.995185 0
    outer loop
      vertex -0.829133 -4.16834 -15
      vertex 0 -4.25 -25
      vertex -0.829133 -4.16834 -25
    endloop
  endfacet
  facet normal 0.956941 0.290284 0
    outer loop
      vertex -3.92649 -1.6264 -15
      vertex -4.16834 -0.829133 -25
      vertex -4.16834 -0.829133 -15
    endloop
  endfacet
  facet normal 0.956941 0.290284 0
    outer loop
      vertex -4.16834 -0.829133 -25
      vertex -3.92649 -1.6264 -15
      vertex -3.92649 -1.6264 -25
    endloop
  endfacet
  facet normal -0.290284 0.956941 0
    outer loop
      vertex 1.6264 -3.92649 -25
      vertex 0.829133 -4.16834 -15
      vertex 1.6264 -3.92649 -15
    endloop
  endfacet
  facet normal -0.290284 0.956941 0
    outer loop
      vertex 0.829133 -4.16834 -15
      vertex 1.6264 -3.92649 -25
      vertex 0.829133 -4.16834 -25
    endloop
  endfacet
  facet normal -1 0 0
    outer loop
      vertex 7.5 -5 -10.9
      vertex 7.5 5 8.5
      vertex 7.5 5 -10.9
    endloop
  endfacet
  facet normal -1 -0 0
    outer loop
      vertex 7.5 5 8.5
      vertex 7.5 -5 -10.9
      vertex 7.5 -5 8.5
    endloop
  endfacet
  facet normal 1 0 0
    outer loop
      vertex 13 1.87744 0.26149
      vertex 13 3.04144 4.1875
      vertex 13 1.87744 3.2365
    endloop
  endfacet
  facet normal 1 -0 0
    outer loop
      vertex 13 -3.71954 4.1875
      vertex 13 1.87744 3.2365
      vertex 13 3.04144 4.1875
    endloop
  endfacet
  facet normal 1 0 0
    outer loop
      vertex 13 1.87744 3.2365
      vertex 13 -3.71954 4.1875
      vertex 13 -3.71954 3.2365
    endloop
  endfacet
  facet normal 1 -0 0
    outer loop
      vertex 13 1.87744 -0.676497
      vertex 13 3.04144 -4.38849
      vertex 13 3.04144 4.1875
    endloop
  endfacet
  facet normal 1 -0 0
    outer loop
      vertex 13 1.87744 -3.4375
      vertex 13 3.04144 -4.38849
      vertex 13 1.87744 -0.676497
    endloop
  endfacet
  facet normal 1 0 0
    outer loop
      vertex 13 -3.46954 -4.38849
      vertex 13 1.87744 -3.4375
      vertex 13 -3.46954 -3.4375
    endloop
  endfacet
  facet normal 1 0 0
    outer loop
      vertex 13 1.87744 -3.4375
      vertex 13 -3.46954 -4.38849
      vertex 13 3.04144 -4.38849
    endloop
  endfacet
  facet normal 1 0 0
    outer loop
      vertex 13 3.04144 4.1875
      vertex 13 1.87744 0.26149
      vertex 13 1.87744 -0.676497
    endloop
  endfacet
  facet normal 1 -0 0
    outer loop
      vertex 13 -3.10454 0.261489
      vertex 13 1.87744 -0.676497
      vertex 13 1.87744 0.26149
    endloop
  endfacet
  facet normal 1 0 0
    outer loop
      vertex 13 1.87744 -0.676497
      vertex 13 -3.10454 0.261489
      vertex 13 -3.10454 -0.676498
    endloop
  endfacet
  facet normal 0 0 -1
    outer loop
      vertex 12.5 -3.71954 3.2365
      vertex 13 1.87744 3.2365
      vertex 13 -3.71954 3.2365
    endloop
  endfacet
  facet normal -0 0 -1
    outer loop
      vertex 13 1.87744 3.2365
      vertex 12.5 -3.71954 3.2365
      vertex 12.5 1.87744 3.2365
    endloop
  endfacet
  facet normal 0 -1 0
    outer loop
      vertex 12.5 1.87744 0.26149
      vertex 13 1.87744 3.2365
      vertex 12.5 1.87744 3.2365
    endloop
  endfacet
  facet normal 0 -1 -0
    outer loop
      vertex 13 1.87744 3.2365
      vertex 12.5 1.87744 0.26149
      vertex 13 1.87744 0.26149
    endloop
  endfacet
  facet normal 0 -1.91425e-07 1
    outer loop
      vertex 12.5 1.87744 0.26149
      vertex 13 -3.10454 0.261489
      vertex 13 1.87744 0.26149
    endloop
  endfacet
  facet normal 0 -1.91425e-07 1
    outer loop
      vertex 13 -3.10454 0.261489
      vertex 12.5 1.87744 0.26149
      vertex 12.5 -3.10454 0.261489
    endloop
  endfacet
  facet normal 0 -1 0
    outer loop
      vertex 12.5 -3.10454 -0.676498
      vertex 13 -3.10454 0.261489
      vertex 12.5 -3.10454 0.261489
    endloop
  endfacet
  facet normal 0 -1 -0
    outer loop
      vertex 13 -3.10454 0.261489
      vertex 12.5 -3.10454 -0.676498
      vertex 13 -3.10454 -0.676498
    endloop
  endfacet
  facet normal 0 1.91425e-07 -1
    outer loop
      vertex 12.5 -3.10454 -0.676498
      vertex 13 1.87744 -0.676497
      vertex 13 -3.10454 -0.676498
    endloop
  endfacet
  facet normal 0 1.91425e-07 -1
    outer loop
      vertex 13 1.87744 -0.676497
      vertex 12.5 -3.10454 -0.676498
      vertex 12.5 1.87744 -0.676497
    endloop
  endfacet
  facet normal 0 -1 0
    outer loop
      vertex 12.5 1.87744 -3.4375
      vertex 13 1.87744 -0.676497
      vertex 12.5 1.87744 -0.676497
    endloop
  endfacet
  facet normal 0 -1 -0
    outer loop
      vertex 13 1.87744 -0.676497
      vertex 12.5 1.87744 -3.4375
      vertex 13 1.87744 -3.4375
    endloop
  endfacet
  facet normal 0 -1.78357e-07 1
    outer loop
      vertex 12.5 1.87744 -3.4375
      vertex 13 -3.46954 -3.4375
      vertex 13 1.87744 -3.4375
    endloop
  endfacet
  facet normal 0 -1.78357e-07 1
    outer loop
      vertex 13 -3.46954 -3.4375
      vertex 12.5 1.87744 -3.4375
      vertex 12.5 -3.46954 -3.4375
    endloop
  endfacet
  facet normal 0 -1 0
    outer loop
      vertex 12.5 -3.46954 -4.38849
      vertex 13 -3.46954 -3.4375
      vertex 12.5 -3.46954 -3.4375
    endloop
  endfacet
  facet normal 0 -1 -0
    outer loop
      vertex 13 -3.46954 -3.4375
      vertex 12.5 -3.46954 -4.38849
      vertex 13 -3.46954 -4.38849
    endloop
  endfacet
  facet normal 0 0 -1
    outer loop
      vertex 12.5 -3.46954 -4.38849
      vertex 13 3.04144 -4.38849
      vertex 13 -3.46954 -4.38849
    endloop
  endfacet
  facet normal -0 0 -1
    outer loop
      vertex 13 3.04144 -4.38849
      vertex 12.5 -3.46954 -4.38849
      vertex 12.5 3.04144 -4.38849
    endloop
  endfacet
  facet normal 0 1 1.11203e-07
    outer loop
      vertex 13 3.04144 -4.38849
      vertex 12.5 3.04144 4.1875
      vertex 13 3.04144 4.1875
    endloop
  endfacet
  facet normal 0 1 1.11203e-07
    outer loop
      vertex 12.5 3.04144 4.1875
      vertex 13 3.04144 -4.38849
      vertex 12.5 3.04144 -4.38849
    endloop
  endfacet
  facet normal -0 0 1
    outer loop
      vertex 12.5 3.04144 4.1875
      vertex 13 -3.71954 4.1875
      vertex 13 3.04144 4.1875
    endloop
  endfacet
  facet normal 0 0 1
    outer loop
      vertex 13 -3.71954 4.1875
      vertex 12.5 3.04144 4.1875
      vertex 12.5 -3.71954 4.1875
    endloop
  endfacet
  facet normal 0 -1 0
    outer loop
      vertex 12.5 -3.71954 3.2365
      vertex 13 -3.71954 4.1875
      vertex 12.5 -3.71954 4.1875
    endloop
  endfacet
  facet normal 0 -1 -0
    outer loop
      vertex 13 -3.71954 4.1875
      vertex 12.5 -3.71954 3.2365
      vertex 13 -3.71954 3.2365
    endloop
  endfacet
  facet normal 0.995185 -0 0.0980187
    outer loop
      vertex 12.452 -5 11.4877
      vertex 12.5 5 11
      vertex 12.452 5 11.4877
    endloop
  endfacet
  facet normal 0.995185 0 0.0980187
    outer loop
      vertex 12.5 5 11
      vertex 12.452 -5 11.4877
      vertex 12.5 -5 11
    endloop
  endfacet
  facet normal 0.471396 0 0.881922
    outer loop
      vertex 10.9567 5 13.3097
      vertex 11.3889 -5 13.0787
      vertex 11.3889 5 13.0787
    endloop
  endfacet
  facet normal 0.471396 0 0.881922
    outer loop
      vertex 11.3889 -5 13.0787
      vertex 10.9567 5 13.3097
      vertex 10.9567 -5 13.3097
    endloop
  endfacet
  facet normal 0.881922 -0 0.471396
    outer loop
      vertex 12.0787 -5 12.3889
      vertex 12.3097 5 11.9567
      vertex 12.0787 5 12.3889
    endloop
  endfacet
  facet normal 0.881922 0 0.471396
    outer loop
      vertex 12.3097 5 11.9567
      vertex 12.0787 -5 12.3889
      vertex 12.3097 -5 11.9567
    endloop
  endfacet
  facet normal 0.634392 0 0.773011
    outer loop
      vertex 11.3889 5 13.0787
      vertex 11.7678 -5 12.7678
      vertex 11.7678 5 12.7678
    endloop
  endfacet
  facet normal 0.634392 0 0.773011
    outer loop
      vertex 11.7678 -5 12.7678
      vertex 11.3889 5 13.0787
      vertex 11.3889 -5 13.0787
    endloop
  endfacet
  facet normal 0.290285 0 0.95694
    outer loop
      vertex 10.4877 5 13.452
      vertex 10.9567 -5 13.3097
      vertex 10.9567 5 13.3097
    endloop
  endfacet
  facet normal 0.290285 0 0.95694
    outer loop
      vertex 10.9567 -5 13.3097
      vertex 10.4877 5 13.452
      vertex 10.4877 -5 13.452
    endloop
  endfacet
  facet normal 0.95694 -0 0.290285
    outer loop
      vertex 12.3097 -5 11.9567
      vertex 12.452 5 11.4877
      vertex 12.3097 5 11.9567
    endloop
  endfacet
  facet normal 0.95694 0 0.290285
    outer loop
      vertex 12.452 5 11.4877
      vertex 12.3097 -5 11.9567
      vertex 12.452 -5 11.4877
    endloop
  endfacet
  facet normal 0.773011 -0 0.634392
    outer loop
      vertex 11.7678 -5 12.7678
      vertex 12.0787 5 12.3889
      vertex 11.7678 5 12.7678
    endloop
  endfacet
  facet normal 0.773011 0 0.634392
    outer loop
      vertex 12.0787 5 12.3889
      vertex 11.7678 -5 12.7678
      vertex 12.0787 -5 12.3889
    endloop
  endfacet
  facet normal 0.0980187 0 0.995185
    outer loop
      vertex 10 5 13.5
      vertex 10.4877 -5 13.452
      vertex 10.4877 5 13.452
    endloop
  endfacet
  facet normal 0.0980187 0 0.995185
    outer loop
      vertex 10.4877 -5 13.452
      vertex 10 5 13.5
      vertex 10 -5 13.5
    endloop
  endfacet
endsolid OpenSCAD_Model
