solid OpenSCAD_Model
  facet normal -1 0 0
    outer loop
      vertex -7.5 1.38589 -4.42636
      vertex -7.5 7.875 -12.875
      vertex -7.5 1.5 -5
    endloop
  endfacet
  facet normal -1 0 0
    outer loop
      vertex -7.5 7.875 -12.875
      vertex -7.5 1.49992 -5.00038
      vertex -7.5 1.5 -5
    endloop
  endfacet
  facet normal -1 0 0
    outer loop
      vertex -7.5 7.875 -12.875
      vertex -7.5 1.38582 -5.57402
      vertex -7.5 1.49992 -5.00038
    endloop
  endfacet
  facet normal -1 0 0
    outer loop
      vertex -7.5 7.875 -12.875
      vertex -7.5 1.06066 -6.06066
      vertex -7.5 1.38582 -5.57402
    endloop
  endfacet
  facet normal -1 0 0
    outer loop
      vertex -7.5 7.875 -12.875
      vertex -7.5 0.574024 -6.38582
      vertex -7.5 1.06066 -6.06066
    endloop
  endfacet
  facet normal -1 0 0
    outer loop
      vertex -7.5 7.875 -12.875
      vertex -7.5 0.000382146 -6.49992
      vertex -7.5 0.574024 -6.38582
    endloop
  endfacet
  facet normal -1 0 0
    outer loop
      vertex -7.5 7.875 -12.875
      vertex -7.5 0 -6.5
      vertex -7.5 0.000382146 -6.49992
    endloop
  endfacet
  facet normal -1 0 0
    outer loop
      vertex -7.5 -7.875 -12.875
      vertex -7.5 0 -6.5
      vertex -7.5 7.875 -12.875
    endloop
  endfacet
  facet normal -1 -0 0
    outer loop
      vertex -7.5 0 -6.5
      vertex -7.5 -7.875 -12.875
      vertex -7.5 -0.000382146 -6.49992
    endloop
  endfacet
  facet normal -1 -0 0
    outer loop
      vertex -7.5 -0.000382146 -6.49992
      vertex -7.5 -7.875 -12.875
      vertex -7.5 -0.574024 -6.38582
    endloop
  endfacet
  facet normal -1 0 0
    outer loop
      vertex -7.5 -7.875 -12.875
      vertex -7.5 -1.49992 -5.00038
      vertex -7.5 -1.38582 -5.57402
    endloop
  endfacet
  facet normal -1 -0 0
    outer loop
      vertex -7.5 -1.49992 -5.00038
      vertex -7.5 -7.875 -12.875
      vertex -7.5 -1.5 -5
    endloop
  endfacet
  facet normal -1 -0 0
    outer loop
      vertex -7.5 -1.06066 -6.06066
      vertex -7.5 -7.875 -12.875
      vertex -7.5 -1.38582 -5.57402
    endloop
  endfacet
  facet normal -1 -0 0
    outer loop
      vertex -7.5 -0.574024 -6.38582
      vertex -7.5 -7.875 -12.875
      vertex -7.5 -1.06066 -6.06066
    endloop
  endfacet
  facet normal -1 0 0
    outer loop
      vertex -7.5 1.38582 -4.42597
      vertex -7.5 7.875 -12.875
      vertex -7.5 1.38589 -4.42636
    endloop
  endfacet
  facet normal -1 0 0
    outer loop
      vertex -7.5 7.875 -12.875
      vertex -7.5 1.38582 -4.42597
      vertex -7.5 7.875 36.875
    endloop
  endfacet
  facet normal -1 0 0
    outer loop
      vertex -7.5 1.06066 -3.93934
      vertex -7.5 7.875 36.875
      vertex -7.5 1.38582 -4.42597
    endloop
  endfacet
  facet normal -1 0 0
    outer loop
      vertex -7.5 0.574024 -3.61418
      vertex -7.5 7.875 36.875
      vertex -7.5 1.06066 -3.93934
    endloop
  endfacet
  facet normal -1 0 0
    outer loop
      vertex -7.5 0.573642 -3.6141
      vertex -7.5 7.875 36.875
      vertex -7.5 0.574024 -3.61418
    endloop
  endfacet
  facet normal -1 0 0
    outer loop
      vertex -7.5 0 -3.5
      vertex -7.5 7.875 36.875
      vertex -7.5 0.573642 -3.6141
    endloop
  endfacet
  facet normal -1 0 0
    outer loop
      vertex -7.5 -7.875 36.875
      vertex -7.5 0 -3.5
      vertex -7.5 -0.573642 -3.6141
    endloop
  endfacet
  facet normal -1 0 0
    outer loop
      vertex -7.5 -7.875 36.875
      vertex -7.5 -0.573642 -3.6141
      vertex -7.5 -0.574024 -3.61418
    endloop
  endfacet
  facet normal -1 0 0
    outer loop
      vertex -7.5 -7.875 36.875
      vertex -7.5 -0.574024 -3.61418
      vertex -7.5 -1.06066 -3.93934
    endloop
  endfacet
  facet normal -1 0 0
    outer loop
      vertex -7.5 -7.875 36.875
      vertex -7.5 -1.06066 -3.93934
      vertex -7.5 -1.38582 -4.42597
    endloop
  endfacet
  facet normal -1 0 0
    outer loop
      vertex -7.5 -7.875 -12.875
      vertex -7.5 -1.38589 -4.42636
      vertex -7.5 -1.5 -5
    endloop
  endfacet
  facet normal -1 0 0
    outer loop
      vertex -7.5 -7.875 -12.875
      vertex -7.5 -1.38582 -4.42597
      vertex -7.5 -1.38589 -4.42636
    endloop
  endfacet
  facet normal -1 0 0
    outer loop
      vertex -7.5 -7.875 36.875
      vertex -7.5 -1.38582 -4.42597
      vertex -7.5 -7.875 -12.875
    endloop
  endfacet
  facet normal -1 0 0
    outer loop
      vertex -7.5 0 -3.5
      vertex -7.5 -7.875 36.875
      vertex -7.5 7.875 36.875
    endloop
  endfacet
  facet normal -0 0 1
    outer loop
      vertex -4.5 7.875 4.875
      vertex 4.5 -7.875 4.875
      vertex 4.5 7.875 4.875
    endloop
  endfacet
  facet normal 0 0 1
    outer loop
      vertex 4.5 -7.875 4.875
      vertex -4.5 7.875 4.875
      vertex -4.5 -7.875 4.875
    endloop
  endfacet
  facet normal 1 -0 0
    outer loop
      vertex 7.5 1.38582 -4.42597
      vertex 7.5 7.875 -12.875
      vertex 7.5 7.875 36.875
    endloop
  endfacet
  facet normal 1 0 0
    outer loop
      vertex 7.5 7.875 -12.875
      vertex 7.5 1.49992 -4.99962
      vertex 7.5 1.5 -5
    endloop
  endfacet
  facet normal 1 0 0
    outer loop
      vertex 7.5 7.875 -12.875
      vertex 7.5 1.38582 -4.42597
      vertex 7.5 1.49992 -4.99962
    endloop
  endfacet
  facet normal 1 0 0
    outer loop
      vertex 7.5 7.875 36.875
      vertex 7.5 1.06066 -3.93934
      vertex 7.5 1.38582 -4.42597
    endloop
  endfacet
  facet normal 1 0 0
    outer loop
      vertex 7.5 7.875 36.875
      vertex 7.5 0.574024 -3.61418
      vertex 7.5 1.06066 -3.93934
    endloop
  endfacet
  facet normal 1 0 0
    outer loop
      vertex 7.5 7.875 36.875
      vertex 7.5 0.000382146 -3.50008
      vertex 7.5 0.574024 -3.61418
    endloop
  endfacet
  facet normal 1 0 0
    outer loop
      vertex 7.5 7.875 36.875
      vertex 7.5 0 -3.5
      vertex 7.5 0.000382146 -3.50008
    endloop
  endfacet
  facet normal 1 -0 0
    outer loop
      vertex 7.5 -7.875 36.875
      vertex 7.5 0 -3.5
      vertex 7.5 7.875 36.875
    endloop
  endfacet
  facet normal 1 0 0
    outer loop
      vertex 7.5 0 -3.5
      vertex 7.5 -7.875 36.875
      vertex 7.5 -0.000382146 -3.50008
    endloop
  endfacet
  facet normal 1 0 0
    outer loop
      vertex 7.5 -0.000382146 -3.50008
      vertex 7.5 -7.875 36.875
      vertex 7.5 -0.574024 -3.61418
    endloop
  endfacet
  facet normal 1 0 0
    outer loop
      vertex 7.5 -0.574024 -3.61418
      vertex 7.5 -7.875 36.875
      vertex 7.5 -1.06066 -3.93934
    endloop
  endfacet
  facet normal 1 0 0
    outer loop
      vertex 7.5 -7.875 -12.875
      vertex 7.5 -1.49992 -4.99962
      vertex 7.5 -1.38582 -4.42597
    endloop
  endfacet
  facet normal 1 0 0
    outer loop
      vertex 7.5 -7.875 -12.875
      vertex 7.5 -1.38582 -4.42597
      vertex 7.5 -7.875 36.875
    endloop
  endfacet
  facet normal 1 0 0
    outer loop
      vertex 7.5 -1.06066 -3.93934
      vertex 7.5 -7.875 36.875
      vertex 7.5 -1.38582 -4.42597
    endloop
  endfacet
  facet normal 1 -0 0
    outer loop
      vertex 7.5 1.38589 -5.57364
      vertex 7.5 7.875 -12.875
      vertex 7.5 1.5 -5
    endloop
  endfacet
  facet normal 1 -0 0
    outer loop
      vertex 7.5 1.38582 -5.57402
      vertex 7.5 7.875 -12.875
      vertex 7.5 1.38589 -5.57364
    endloop
  endfacet
  facet normal 1 -0 0
    outer loop
      vertex 7.5 1.06066 -6.06066
      vertex 7.5 7.875 -12.875
      vertex 7.5 1.38582 -5.57402
    endloop
  endfacet
  facet normal 1 -0 0
    outer loop
      vertex 7.5 0.574024 -6.38582
      vertex 7.5 7.875 -12.875
      vertex 7.5 1.06066 -6.06066
    endloop
  endfacet
  facet normal 1 -0 0
    outer loop
      vertex 7.5 0.573642 -6.38589
      vertex 7.5 7.875 -12.875
      vertex 7.5 0.574024 -6.38582
    endloop
  endfacet
  facet normal 1 -0 0
    outer loop
      vertex 7.5 0 -6.5
      vertex 7.5 7.875 -12.875
      vertex 7.5 0.573642 -6.38589
    endloop
  endfacet
  facet normal 1 0 0
    outer loop
      vertex 7.5 -7.875 -12.875
      vertex 7.5 0 -6.5
      vertex 7.5 -0.573642 -6.38589
    endloop
  endfacet
  facet normal 1 0 0
    outer loop
      vertex 7.5 -7.875 -12.875
      vertex 7.5 -0.573642 -6.38589
      vertex 7.5 -0.574024 -6.38582
    endloop
  endfacet
  facet normal 1 0 0
    outer loop
      vertex 7.5 -7.875 -12.875
      vertex 7.5 -0.574024 -6.38582
      vertex 7.5 -1.06066 -6.06066
    endloop
  endfacet
  facet normal 1 0 0
    outer loop
      vertex 7.5 0 -6.5
      vertex 7.5 -7.875 -12.875
      vertex 7.5 7.875 -12.875
    endloop
  endfacet
  facet normal 1 0 0
    outer loop
      vertex 7.5 -1.38582 -5.57402
      vertex 7.5 -7.875 -12.875
      vertex 7.5 -1.06066 -6.06066
    endloop
  endfacet
  facet normal 1 0 0
    outer loop
      vertex 7.5 -1.38589 -5.57364
      vertex 7.5 -7.875 -12.875
      vertex 7.5 -1.38582 -5.57402
    endloop
  endfacet
  facet normal 1 0 0
    outer loop
      vertex 7.5 -1.5 -5
      vertex 7.5 -7.875 -12.875
      vertex 7.5 -1.38589 -5.57364
    endloop
  endfacet
  facet normal 1 0 0
    outer loop
      vertex 7.5 -1.49992 -4.99962
      vertex 7.5 -7.875 -12.875
      vertex 7.5 -1.5 -5
    endloop
  endfacet
  facet normal 0 1 0
    outer loop
      vertex 7.5 7.875 36.875
      vertex 4.5 7.875 33.875
      vertex -7.5 7.875 36.875
    endloop
  endfacet
  facet normal 0 1 0
    outer loop
      vertex 7.5 7.875 36.875
      vertex 4.5 7.875 4.875
      vertex 4.5 7.875 33.875
    endloop
  endfacet
  facet normal 0 1 0
    outer loop
      vertex 4.5 7.875 4.875
      vertex 4.5 7.875 2.875
      vertex -4.5 7.875 4.875
    endloop
  endfacet
  facet normal 0 1 -0
    outer loop
      vertex 7.5 7.875 -12.875
      vertex 4.5 7.875 4.875
      vertex 7.5 7.875 36.875
    endloop
  endfacet
  facet normal 0 1 0
    outer loop
      vertex 4.5 7.875 4.875
      vertex 7.5 7.875 -12.875
      vertex 4.5 7.875 2.875
    endloop
  endfacet
  facet normal 0 1 0
    outer loop
      vertex 4.5 7.875 2.875
      vertex 7.5 7.875 -12.875
      vertex 4.5 7.875 -12.875
    endloop
  endfacet
  facet normal 0 1 -0
    outer loop
      vertex -4.5 7.875 33.875
      vertex -7.5 7.875 36.875
      vertex 4.5 7.875 33.875
    endloop
  endfacet
  facet normal 0 1 -0
    outer loop
      vertex -4.5 7.875 4.875
      vertex -7.5 7.875 36.875
      vertex -4.5 7.875 33.875
    endloop
  endfacet
  facet normal 0 1 0
    outer loop
      vertex -4.5 7.875 2.875
      vertex -4.5 7.875 4.875
      vertex 4.5 7.875 2.875
    endloop
  endfacet
  facet normal 0 1 0
    outer loop
      vertex -7.5 7.875 -12.875
      vertex -4.5 7.875 4.875
      vertex -4.5 7.875 2.875
    endloop
  endfacet
  facet normal 0 1 0
    outer loop
      vertex -7.5 7.875 -12.875
      vertex -4.5 7.875 2.875
      vertex -4.5 7.875 -12.875
    endloop
  endfacet
  facet normal 0 1 0
    outer loop
      vertex -4.5 7.875 4.875
      vertex -7.5 7.875 -12.875
      vertex -7.5 7.875 36.875
    endloop
  endfacet
  facet normal 0 0 -1
    outer loop
      vertex -7.5 -7.875 -12.875
      vertex -4.5 7.875 -12.875
      vertex -4.5 -7.875 -12.875
    endloop
  endfacet
  facet normal -0 0 -1
    outer loop
      vertex -4.5 7.875 -12.875
      vertex -7.5 -7.875 -12.875
      vertex -7.5 7.875 -12.875
    endloop
  endfacet
  facet normal 0 0 -1
    outer loop
      vertex 4.5 -7.875 -12.875
      vertex 7.5 7.875 -12.875
      vertex 7.5 -7.875 -12.875
    endloop
  endfacet
  facet normal -0 0 -1
    outer loop
      vertex 7.5 7.875 -12.875
      vertex 4.5 -7.875 -12.875
      vertex 4.5 7.875 -12.875
    endloop
  endfacet
  facet normal 0 -1 0
    outer loop
      vertex -7.5 -7.875 36.875
      vertex -4.5 -7.875 33.875
      vertex 7.5 -7.875 36.875
    endloop
  endfacet
  facet normal 0 -1 0
    outer loop
      vertex -7.5 -7.875 36.875
      vertex -4.5 -7.875 4.875
      vertex -4.5 -7.875 33.875
    endloop
  endfacet
  facet normal 0 -1 0
    outer loop
      vertex -4.5 -7.875 4.875
      vertex -4.5 -7.875 2.875
      vertex 4.5 -7.875 4.875
    endloop
  endfacet
  facet normal 0 -1 0
    outer loop
      vertex -7.5 -7.875 -12.875
      vertex -4.5 -7.875 4.875
      vertex -7.5 -7.875 36.875
    endloop
  endfacet
  facet normal 0 -1 -0
    outer loop
      vertex -4.5 -7.875 4.875
      vertex -7.5 -7.875 -12.875
      vertex -4.5 -7.875 2.875
    endloop
  endfacet
  facet normal 0 -1 -0
    outer loop
      vertex -4.5 -7.875 2.875
      vertex -7.5 -7.875 -12.875
      vertex -4.5 -7.875 -12.875
    endloop
  endfacet
  facet normal 0 -1 0
    outer loop
      vertex 4.5 -7.875 33.875
      vertex 7.5 -7.875 36.875
      vertex -4.5 -7.875 33.875
    endloop
  endfacet
  facet normal 0 -1 0
    outer loop
      vertex 4.5 -7.875 4.875
      vertex 7.5 -7.875 36.875
      vertex 4.5 -7.875 33.875
    endloop
  endfacet
  facet normal 0 -1 0
    outer loop
      vertex 4.5 -7.875 2.875
      vertex 4.5 -7.875 4.875
      vertex -4.5 -7.875 2.875
    endloop
  endfacet
  facet normal 0 -1 0
    outer loop
      vertex 7.5 -7.875 -12.875
      vertex 4.5 -7.875 4.875
      vertex 4.5 -7.875 2.875
    endloop
  endfacet
  facet normal 0 -1 0
    outer loop
      vertex 7.5 -7.875 -12.875
      vertex 4.5 -7.875 2.875
      vertex 4.5 -7.875 -12.875
    endloop
  endfacet
  facet normal 0 -1 0
    outer loop
      vertex 4.5 -7.875 4.875
      vertex 7.5 -7.875 -12.875
      vertex 7.5 -7.875 36.875
    endloop
  endfacet
  facet normal 1 0 0
    outer loop
      vertex -4.5 7.875 2.875
      vertex -4.5 1.5 -5
      vertex -4.5 7.875 -12.875
    endloop
  endfacet
  facet normal 1 0 0
    outer loop
      vertex -4.5 7.875 2.875
      vertex -4.5 1.4087 -4.54101
      vertex -4.5 1.5 -5
    endloop
  endfacet
  facet normal 1 0 0
    outer loop
      vertex -4.5 7.875 2.875
      vertex -4.5 1.38582 -4.42597
      vertex -4.5 1.4087 -4.54101
    endloop
  endfacet
  facet normal 1 0 0
    outer loop
      vertex -4.5 7.875 2.875
      vertex -4.5 1.06066 -3.93934
      vertex -4.5 1.38582 -4.42597
    endloop
  endfacet
  facet normal 1 0 0
    outer loop
      vertex -4.5 7.875 2.875
      vertex -4.5 0.574024 -3.61418
      vertex -4.5 1.06066 -3.93934
    endloop
  endfacet
  facet normal 1 0 0
    outer loop
      vertex -4.5 7.875 2.875
      vertex -4.5 0.45899 -3.5913
      vertex -4.5 0.574024 -3.61418
    endloop
  endfacet
  facet normal 1 0 0
    outer loop
      vertex -4.5 7.875 2.875
      vertex -4.5 0 -3.5
      vertex -4.5 0.45899 -3.5913
    endloop
  endfacet
  facet normal 1 -0 0
    outer loop
      vertex -4.5 -7.875 2.875
      vertex -4.5 0 -3.5
      vertex -4.5 7.875 2.875
    endloop
  endfacet
  facet normal 1 0 0
    outer loop
      vertex -4.5 0 -3.5
      vertex -4.5 -7.875 2.875
      vertex -4.5 -0.45899 -3.5913
    endloop
  endfacet
  facet normal 1 0 0
    outer loop
      vertex -4.5 -0.45899 -3.5913
      vertex -4.5 -7.875 2.875
      vertex -4.5 -0.574024 -3.61418
    endloop
  endfacet
  facet normal 1 0 0
    outer loop
      vertex -4.5 -7.875 2.875
      vertex -4.5 -1.4087 -4.54101
      vertex -4.5 -1.38582 -4.42597
    endloop
  endfacet
  facet normal 1 0 0
    outer loop
      vertex -4.5 -1.4087 -4.54101
      vertex -4.5 -7.875 2.875
      vertex -4.5 -1.5 -5
    endloop
  endfacet
  facet normal 1 0 0
    outer loop
      vertex -4.5 -1.06066 -3.93934
      vertex -4.5 -7.875 2.875
      vertex -4.5 -1.38582 -4.42597
    endloop
  endfacet
  facet normal 1 0 0
    outer loop
      vertex -4.5 -0.574024 -3.61418
      vertex -4.5 -7.875 2.875
      vertex -4.5 -1.06066 -3.93934
    endloop
  endfacet
  facet normal 1 -0 0
    outer loop
      vertex -4.5 1.47712 -5.11503
      vertex -4.5 7.875 -12.875
      vertex -4.5 1.5 -5
    endloop
  endfacet
  facet normal 1 -0 0
    outer loop
      vertex -4.5 1.38582 -5.57402
      vertex -4.5 7.875 -12.875
      vertex -4.5 1.47712 -5.11503
    endloop
  endfacet
  facet normal 1 -0 0
    outer loop
      vertex -4.5 1.06066 -6.06066
      vertex -4.5 7.875 -12.875
      vertex -4.5 1.38582 -5.57402
    endloop
  endfacet
  facet normal 1 -0 0
    outer loop
      vertex -4.5 0.574024 -6.38582
      vertex -4.5 7.875 -12.875
      vertex -4.5 1.06066 -6.06066
    endloop
  endfacet
  facet normal 1 -0 0
    outer loop
      vertex -4.5 0.115034 -6.47712
      vertex -4.5 7.875 -12.875
      vertex -4.5 0.574024 -6.38582
    endloop
  endfacet
  facet normal 1 -0 0
    outer loop
      vertex -4.5 0 -6.5
      vertex -4.5 7.875 -12.875
      vertex -4.5 0.115034 -6.47712
    endloop
  endfacet
  facet normal 1 0 0
    outer loop
      vertex -4.5 -7.875 -12.875
      vertex -4.5 0 -6.5
      vertex -4.5 -0.115034 -6.47712
    endloop
  endfacet
  facet normal 1 0 0
    outer loop
      vertex -4.5 -7.875 -12.875
      vertex -4.5 -0.115034 -6.47712
      vertex -4.5 -0.574024 -6.38582
    endloop
  endfacet
  facet normal 1 0 0
    outer loop
      vertex -4.5 -7.875 -12.875
      vertex -4.5 -0.574024 -6.38582
      vertex -4.5 -1.06066 -6.06066
    endloop
  endfacet
  facet normal 1 0 0
    outer loop
      vertex -4.5 -7.875 -12.875
      vertex -4.5 -1.5 -5
      vertex -4.5 -7.875 2.875
    endloop
  endfacet
  facet normal 1 0 0
    outer loop
      vertex -4.5 -1.5 -5
      vertex -4.5 -7.875 -12.875
      vertex -4.5 -1.47712 -5.11503
    endloop
  endfacet
  facet normal 1 0 0
    outer loop
      vertex -4.5 -1.47712 -5.11503
      vertex -4.5 -7.875 -12.875
      vertex -4.5 -1.38582 -5.57402
    endloop
  endfacet
  facet normal 1 0 0
    outer loop
      vertex -4.5 0 -6.5
      vertex -4.5 -7.875 -12.875
      vertex -4.5 7.875 -12.875
    endloop
  endfacet
  facet normal 1 0 0
    outer loop
      vertex -4.5 -1.38582 -5.57402
      vertex -4.5 -7.875 -12.875
      vertex -4.5 -1.06066 -6.06066
    endloop
  endfacet
  facet normal 0 0 -1
    outer loop
      vertex -4.5 -7.875 2.875
      vertex 4.5 7.875 2.875
      vertex 4.5 -7.875 2.875
    endloop
  endfacet
  facet normal -0 0 -1
    outer loop
      vertex 4.5 7.875 2.875
      vertex -4.5 -7.875 2.875
      vertex -4.5 7.875 2.875
    endloop
  endfacet
  facet normal -1 0 0
    outer loop
      vertex 4.5 7.875 -12.875
      vertex 4.5 1.5 -5
      vertex 4.5 7.875 2.875
    endloop
  endfacet
  facet normal -1 0 0
    outer loop
      vertex 4.5 7.875 -12.875
      vertex 4.5 1.4087 -5.45899
      vertex 4.5 1.5 -5
    endloop
  endfacet
  facet normal -1 0 0
    outer loop
      vertex 4.5 7.875 -12.875
      vertex 4.5 1.38582 -5.57402
      vertex 4.5 1.4087 -5.45899
    endloop
  endfacet
  facet normal -1 0 0
    outer loop
      vertex 4.5 7.875 -12.875
      vertex 4.5 1.06066 -6.06066
      vertex 4.5 1.38582 -5.57402
    endloop
  endfacet
  facet normal -1 0 0
    outer loop
      vertex 4.5 7.875 -12.875
      vertex 4.5 0.574024 -6.38582
      vertex 4.5 1.06066 -6.06066
    endloop
  endfacet
  facet normal -1 0 0
    outer loop
      vertex 4.5 7.875 -12.875
      vertex 4.5 0.45899 -6.4087
      vertex 4.5 0.574024 -6.38582
    endloop
  endfacet
  facet normal -1 0 0
    outer loop
      vertex 4.5 7.875 -12.875
      vertex 4.5 0 -6.5
      vertex 4.5 0.45899 -6.4087
    endloop
  endfacet
  facet normal -1 0 0
    outer loop
      vertex 4.5 -7.875 -12.875
      vertex 4.5 0 -6.5
      vertex 4.5 7.875 -12.875
    endloop
  endfacet
  facet normal -1 -0 0
    outer loop
      vertex 4.5 0 -6.5
      vertex 4.5 -7.875 -12.875
      vertex 4.5 -0.45899 -6.4087
    endloop
  endfacet
  facet normal -1 -0 0
    outer loop
      vertex 4.5 -0.45899 -6.4087
      vertex 4.5 -7.875 -12.875
      vertex 4.5 -0.574024 -6.38582
    endloop
  endfacet
  facet normal -1 0 0
    outer loop
      vertex 4.5 -7.875 -12.875
      vertex 4.5 -1.4087 -5.45899
      vertex 4.5 -1.38582 -5.57402
    endloop
  endfacet
  facet normal -1 -0 0
    outer loop
      vertex 4.5 -1.4087 -5.45899
      vertex 4.5 -7.875 -12.875
      vertex 4.5 -1.5 -5
    endloop
  endfacet
  facet normal -1 -0 0
    outer loop
      vertex 4.5 -1.06066 -6.06066
      vertex 4.5 -7.875 -12.875
      vertex 4.5 -1.38582 -5.57402
    endloop
  endfacet
  facet normal -1 -0 0
    outer loop
      vertex 4.5 -0.574024 -6.38582
      vertex 4.5 -7.875 -12.875
      vertex 4.5 -1.06066 -6.06066
    endloop
  endfacet
  facet normal -1 0 0
    outer loop
      vertex 4.5 1.47712 -4.88496
      vertex 4.5 7.875 2.875
      vertex 4.5 1.5 -5
    endloop
  endfacet
  facet normal -1 0 0
    outer loop
      vertex 4.5 1.38582 -4.42597
      vertex 4.5 7.875 2.875
      vertex 4.5 1.47712 -4.88496
    endloop
  endfacet
  facet normal -1 0 0
    outer loop
      vertex 4.5 1.06066 -3.93934
      vertex 4.5 7.875 2.875
      vertex 4.5 1.38582 -4.42597
    endloop
  endfacet
  facet normal -1 0 0
    outer loop
      vertex 4.5 0.574024 -3.61418
      vertex 4.5 7.875 2.875
      vertex 4.5 1.06066 -3.93934
    endloop
  endfacet
  facet normal -1 0 0
    outer loop
      vertex 4.5 0.115034 -3.52288
      vertex 4.5 7.875 2.875
      vertex 4.5 0.574024 -3.61418
    endloop
  endfacet
  facet normal -1 0 0
    outer loop
      vertex 4.5 0 -3.5
      vertex 4.5 7.875 2.875
      vertex 4.5 0.115034 -3.52288
    endloop
  endfacet
  facet normal -1 0 0
    outer loop
      vertex 4.5 -7.875 2.875
      vertex 4.5 0 -3.5
      vertex 4.5 -0.115034 -3.52288
    endloop
  endfacet
  facet normal -1 0 0
    outer loop
      vertex 4.5 -7.875 2.875
      vertex 4.5 -0.115034 -3.52288
      vertex 4.5 -0.574024 -3.61418
    endloop
  endfacet
  facet normal -1 0 0
    outer loop
      vertex 4.5 -7.875 2.875
      vertex 4.5 -0.574024 -3.61418
      vertex 4.5 -1.06066 -3.93934
    endloop
  endfacet
  facet normal -1 0 0
    outer loop
      vertex 4.5 -7.875 2.875
      vertex 4.5 -1.5 -5
      vertex 4.5 -7.875 -12.875
    endloop
  endfacet
  facet normal -1 0 0
    outer loop
      vertex 4.5 -1.5 -5
      vertex 4.5 -7.875 2.875
      vertex 4.5 -1.47712 -4.88496
    endloop
  endfacet
  facet normal -1 0 0
    outer loop
      vertex 4.5 -1.47712 -4.88496
      vertex 4.5 -7.875 2.875
      vertex 4.5 -1.38582 -4.42597
    endloop
  endfacet
  facet normal -1 0 0
    outer loop
      vertex 4.5 0 -3.5
      vertex 4.5 -7.875 2.875
      vertex 4.5 7.875 2.875
    endloop
  endfacet
  facet normal -1 0 0
    outer loop
      vertex 4.5 -1.38582 -4.42597
      vertex 4.5 -7.875 2.875
      vertex 4.5 -1.06066 -3.93934
    endloop
  endfacet
  facet normal 0 -0.195092 0.980785
    outer loop
      vertex -7.5 0.574024 -6.38582
      vertex -4.5 0.115034 -6.47712
      vertex -4.5 0.574024 -6.38582
    endloop
  endfacet
  facet normal -7.53587e-08 -0.195092 0.980785
    outer loop
      vertex -4.5 0.115034 -6.47712
      vertex -7.5 0.574024 -6.38582
      vertex -7.5 0.000382146 -6.49992
    endloop
  endfacet
  facet normal 0 -0.194615 0.98088
    outer loop
      vertex 4.5 0.574024 -6.38582
      vertex 7.5 0.573642 -6.38589
      vertex 7.5 0.574024 -6.38582
    endloop
  endfacet
  facet normal -6.31828e-08 -0.195093 0.980785
    outer loop
      vertex 7.5 0.573642 -6.38589
      vertex 4.5 0.574024 -6.38582
      vertex 4.5 0.45899 -6.4087
    endloop
  endfacet
  facet normal -6.44979e-08 -0.195093 0.980785
    outer loop
      vertex -7.5 0.000382146 -6.49992
      vertex -4.5 0 -6.5
      vertex -4.5 0.115034 -6.47712
    endloop
  endfacet
  facet normal 0 -0.194605 0.980882
    outer loop
      vertex -4.5 0 -6.5
      vertex -7.5 0.000382146 -6.49992
      vertex -7.5 0 -6.5
    endloop
  endfacet
  facet normal -1.36138e-07 -0.195091 0.980785
    outer loop
      vertex 4.5 0.45899 -6.4087
      vertex 7.5 0 -6.5
      vertex 7.5 0.573642 -6.38589
    endloop
  endfacet
  facet normal 0 -0.19509 0.980785
    outer loop
      vertex 7.5 0 -6.5
      vertex 4.5 0.45899 -6.4087
      vertex 4.5 0 -6.5
    endloop
  endfacet
  facet normal 0 0.195204 -0.980763
    outer loop
      vertex -7.5 -0.573642 -3.6141
      vertex -4.5 -0.574024 -3.61418
      vertex -7.5 -0.574024 -3.61418
    endloop
  endfacet
  facet normal -1.47629e-08 0.195093 -0.980785
    outer loop
      vertex -4.5 -0.574024 -3.61418
      vertex -7.5 -0.573642 -3.6141
      vertex -4.5 -0.45899 -3.5913
    endloop
  endfacet
  facet normal 0 0.195092 -0.980785
    outer loop
      vertex 4.5 -0.115034 -3.52288
      vertex 7.5 -0.574024 -3.61418
      vertex 4.5 -0.574024 -3.61418
    endloop
  endfacet
  facet normal 1.29917e-08 0.195092 -0.980785
    outer loop
      vertex 7.5 -0.574024 -3.61418
      vertex 4.5 -0.115034 -3.52288
      vertex 7.5 -0.000382146 -3.50008
    endloop
  endfacet
  facet normal -0 0.55557 0.83147
    outer loop
      vertex -7.5 -0.574024 -6.38582
      vertex -4.5 -1.06066 -6.06066
      vertex -4.5 -0.574024 -6.38582
    endloop
  endfacet
  facet normal 0 0.55557 0.83147
    outer loop
      vertex -4.5 -1.06066 -6.06066
      vertex -7.5 -0.574024 -6.38582
      vertex -7.5 -1.06066 -6.06066
    endloop
  endfacet
  facet normal -0 0.55557 0.83147
    outer loop
      vertex 4.5 -0.574024 -6.38582
      vertex 7.5 -1.06066 -6.06066
      vertex 7.5 -0.574024 -6.38582
    endloop
  endfacet
  facet normal 0 0.55557 0.83147
    outer loop
      vertex 7.5 -1.06066 -6.06066
      vertex 4.5 -0.574024 -6.38582
      vertex 4.5 -1.06066 -6.06066
    endloop
  endfacet
  facet normal 0 0.980785 -0.195092
    outer loop
      vertex -7.5 -1.5 -5
      vertex -4.5 -1.4087 -4.54101
      vertex -4.5 -1.5 -5
    endloop
  endfacet
  facet normal -2.24875e-08 0.980785 -0.195092
    outer loop
      vertex -4.5 -1.4087 -4.54101
      vertex -7.5 -1.5 -5
      vertex -7.5 -1.38589 -4.42636
    endloop
  endfacet
  facet normal 0 0.980745 -0.195292
    outer loop
      vertex 4.5 -1.5 -5
      vertex 7.5 -1.49992 -4.99962
      vertex 7.5 -1.5 -5
    endloop
  endfacet
  facet normal -2.65143e-08 0.980785 -0.195092
    outer loop
      vertex 7.5 -1.49992 -4.99962
      vertex 4.5 -1.5 -5
      vertex 4.5 -1.47712 -4.88496
    endloop
  endfacet
  facet normal -2.24875e-08 -0.980785 -0.195092
    outer loop
      vertex -7.5 1.5 -5
      vertex -4.5 1.4087 -4.54101
      vertex -7.5 1.38589 -4.42636
    endloop
  endfacet
  facet normal 0 -0.980785 -0.195092
    outer loop
      vertex -4.5 1.4087 -4.54101
      vertex -7.5 1.5 -5
      vertex -4.5 1.5 -5
    endloop
  endfacet
  facet normal -2.65143e-08 -0.980785 -0.195092
    outer loop
      vertex 4.5 1.5 -5
      vertex 7.5 1.49992 -4.99962
      vertex 4.5 1.47712 -4.88496
    endloop
  endfacet
  facet normal 0 -0.980745 -0.195292
    outer loop
      vertex 7.5 1.49992 -4.99962
      vertex 4.5 1.5 -5
      vertex 7.5 1.5 -5
    endloop
  endfacet
  facet normal 0 -0.55557 -0.83147
    outer loop
      vertex -7.5 0.574024 -3.61418
      vertex -4.5 1.06066 -3.93934
      vertex -4.5 0.574024 -3.61418
    endloop
  endfacet
  facet normal -0 -0.55557 -0.83147
    outer loop
      vertex -4.5 1.06066 -3.93934
      vertex -7.5 0.574024 -3.61418
      vertex -7.5 1.06066 -3.93934
    endloop
  endfacet
  facet normal 0 -0.55557 -0.83147
    outer loop
      vertex 4.5 0.574024 -3.61418
      vertex 7.5 1.06066 -3.93934
      vertex 7.5 0.574024 -3.61418
    endloop
  endfacet
  facet normal -0 -0.55557 -0.83147
    outer loop
      vertex 7.5 1.06066 -3.93934
      vertex 4.5 0.574024 -3.61418
      vertex 4.5 1.06066 -3.93934
    endloop
  endfacet
  facet normal -7.53587e-08 0.195092 0.980785
    outer loop
      vertex -7.5 -0.574024 -6.38582
      vertex -4.5 -0.115034 -6.47712
      vertex -7.5 -0.000382146 -6.49992
    endloop
  endfacet
  facet normal 0 0.195092 0.980785
    outer loop
      vertex -4.5 -0.115034 -6.47712
      vertex -7.5 -0.574024 -6.38582
      vertex -4.5 -0.574024 -6.38582
    endloop
  endfacet
  facet normal -6.31828e-08 0.195093 0.980785
    outer loop
      vertex 4.5 -0.574024 -6.38582
      vertex 7.5 -0.573642 -6.38589
      vertex 4.5 -0.45899 -6.4087
    endloop
  endfacet
  facet normal 0 0.194615 0.98088
    outer loop
      vertex 7.5 -0.573642 -6.38589
      vertex 4.5 -0.574024 -6.38582
      vertex 7.5 -0.574024 -6.38582
    endloop
  endfacet
  facet normal 0 0.194605 0.980882
    outer loop
      vertex -7.5 -0.000382146 -6.49992
      vertex -4.5 0 -6.5
      vertex -7.5 0 -6.5
    endloop
  endfacet
  facet normal -6.44979e-08 0.195093 0.980785
    outer loop
      vertex -4.5 0 -6.5
      vertex -7.5 -0.000382146 -6.49992
      vertex -4.5 -0.115034 -6.47712
    endloop
  endfacet
  facet normal 0 0.19509 0.980785
    outer loop
      vertex 4.5 -0.45899 -6.4087
      vertex 7.5 0 -6.5
      vertex 4.5 0 -6.5
    endloop
  endfacet
  facet normal -1.36138e-07 0.195091 0.980785
    outer loop
      vertex 7.5 0 -6.5
      vertex 4.5 -0.45899 -6.4087
      vertex 7.5 -0.573642 -6.38589
    endloop
  endfacet
  facet normal 7.79458e-08 -0.19509 -0.980785
    outer loop
      vertex -7.5 0 -3.5
      vertex -4.5 0.45899 -3.5913
      vertex -4.5 0 -3.5
    endloop
  endfacet
  facet normal 7.37714e-08 -0.19509 -0.980785
    outer loop
      vertex -4.5 0.45899 -3.5913
      vertex -7.5 0 -3.5
      vertex -7.5 0.573642 -3.6141
    endloop
  endfacet
  facet normal 7.79442e-08 -0.195194 -0.980765
    outer loop
      vertex 4.5 0 -3.5
      vertex 7.5 0.000382146 -3.50008
      vertex 7.5 0 -3.5
    endloop
  endfacet
  facet normal 6.4239e-08 -0.195091 -0.980785
    outer loop
      vertex 7.5 0.000382146 -3.50008
      vertex 4.5 0 -3.5
      vertex 4.5 0.115034 -3.52288
    endloop
  endfacet
  facet normal 3.48828e-08 -0.980785 0.195092
    outer loop
      vertex -7.5 1.38582 -5.57402
      vertex -4.5 1.47712 -5.11503
      vertex -7.5 1.49992 -5.00038
    endloop
  endfacet
  facet normal 0 -0.980785 0.195092
    outer loop
      vertex -4.5 1.47712 -5.11503
      vertex -7.5 1.38582 -5.57402
      vertex -4.5 1.38582 -5.57402
    endloop
  endfacet
  facet normal 2.65143e-08 -0.980785 0.195092
    outer loop
      vertex 4.5 1.38582 -5.57402
      vertex 7.5 1.38589 -5.57364
      vertex 4.5 1.4087 -5.45899
    endloop
  endfacet
  facet normal 0 -0.980745 0.195292
    outer loop
      vertex 7.5 1.38589 -5.57364
      vertex 4.5 1.38582 -5.57402
      vertex 7.5 1.38582 -5.57402
    endloop
  endfacet
  facet normal 0 -0.980745 0.195292
    outer loop
      vertex -7.5 1.49992 -5.00038
      vertex -4.5 1.5 -5
      vertex -7.5 1.5 -5
    endloop
  endfacet
  facet normal 2.65143e-08 -0.980785 0.195092
    outer loop
      vertex -4.5 1.5 -5
      vertex -7.5 1.49992 -5.00038
      vertex -4.5 1.47712 -5.11503
    endloop
  endfacet
  facet normal 0 -0.980785 0.195092
    outer loop
      vertex 4.5 1.4087 -5.45899
      vertex 7.5 1.5 -5
      vertex 4.5 1.5 -5
    endloop
  endfacet
  facet normal 2.24875e-08 -0.980785 0.195092
    outer loop
      vertex 7.5 1.5 -5
      vertex 4.5 1.4087 -5.45899
      vertex 7.5 1.38589 -5.57364
    endloop
  endfacet
  facet normal 0 -0.83147 0.55557
    outer loop
      vertex -7.5 1.06066 -6.06066
      vertex -4.5 1.38582 -5.57402
      vertex -7.5 1.38582 -5.57402
    endloop
  endfacet
  facet normal 0 -0.83147 0.55557
    outer loop
      vertex -4.5 1.38582 -5.57402
      vertex -7.5 1.06066 -6.06066
      vertex -4.5 1.06066 -6.06066
    endloop
  endfacet
  facet normal 0 -0.83147 0.55557
    outer loop
      vertex 4.5 1.06066 -6.06066
      vertex 7.5 1.38582 -5.57402
      vertex 4.5 1.38582 -5.57402
    endloop
  endfacet
  facet normal 0 -0.83147 0.55557
    outer loop
      vertex 7.5 1.38582 -5.57402
      vertex 4.5 1.06066 -6.06066
      vertex 7.5 1.06066 -6.06066
    endloop
  endfacet
  facet normal 0 -0.55557 0.83147
    outer loop
      vertex -7.5 1.06066 -6.06066
      vertex -4.5 0.574024 -6.38582
      vertex -4.5 1.06066 -6.06066
    endloop
  endfacet
  facet normal 0 -0.55557 0.83147
    outer loop
      vertex -4.5 0.574024 -6.38582
      vertex -7.5 1.06066 -6.06066
      vertex -7.5 0.574024 -6.38582
    endloop
  endfacet
  facet normal 0 -0.55557 0.83147
    outer loop
      vertex 4.5 1.06066 -6.06066
      vertex 7.5 0.574024 -6.38582
      vertex 7.5 1.06066 -6.06066
    endloop
  endfacet
  facet normal 0 -0.55557 0.83147
    outer loop
      vertex 7.5 0.574024 -6.38582
      vertex 4.5 1.06066 -6.06066
      vertex 4.5 0.574024 -6.38582
    endloop
  endfacet
  facet normal 0 0.980745 -0.195292
    outer loop
      vertex -4.5 -1.38582 -4.42597
      vertex -7.5 -1.38589 -4.42636
      vertex -7.5 -1.38582 -4.42597
    endloop
  endfacet
  facet normal -2.65143e-08 0.980785 -0.195092
    outer loop
      vertex -7.5 -1.38589 -4.42636
      vertex -4.5 -1.38582 -4.42597
      vertex -4.5 -1.4087 -4.54101
    endloop
  endfacet
  facet normal 0 0.980785 -0.195092
    outer loop
      vertex 7.5 -1.38582 -4.42597
      vertex 4.5 -1.47712 -4.88496
      vertex 4.5 -1.38582 -4.42597
    endloop
  endfacet
  facet normal -3.48828e-08 0.980785 -0.195092
    outer loop
      vertex 4.5 -1.47712 -4.88496
      vertex 7.5 -1.38582 -4.42597
      vertex 7.5 -1.49992 -4.99962
    endloop
  endfacet
  facet normal -0 0.980785 0.195092
    outer loop
      vertex -7.5 -1.38582 -5.57402
      vertex -4.5 -1.47712 -5.11503
      vertex -4.5 -1.38582 -5.57402
    endloop
  endfacet
  facet normal 3.48828e-08 0.980785 0.195092
    outer loop
      vertex -4.5 -1.47712 -5.11503
      vertex -7.5 -1.38582 -5.57402
      vertex -7.5 -1.49992 -5.00038
    endloop
  endfacet
  facet normal -0 0.980745 0.195292
    outer loop
      vertex 4.5 -1.38582 -5.57402
      vertex 7.5 -1.38589 -5.57364
      vertex 7.5 -1.38582 -5.57402
    endloop
  endfacet
  facet normal 2.65143e-08 0.980785 0.195092
    outer loop
      vertex 7.5 -1.38589 -5.57364
      vertex 4.5 -1.38582 -5.57402
      vertex 4.5 -1.4087 -5.45899
    endloop
  endfacet
  facet normal 0 0.83147 0.55557
    outer loop
      vertex -4.5 -1.06066 -6.06066
      vertex -7.5 -1.38582 -5.57402
      vertex -4.5 -1.38582 -5.57402
    endloop
  endfacet
  facet normal 0 0.83147 0.55557
    outer loop
      vertex -7.5 -1.38582 -5.57402
      vertex -4.5 -1.06066 -6.06066
      vertex -7.5 -1.06066 -6.06066
    endloop
  endfacet
  facet normal 0 0.83147 0.55557
    outer loop
      vertex 7.5 -1.06066 -6.06066
      vertex 4.5 -1.38582 -5.57402
      vertex 7.5 -1.38582 -5.57402
    endloop
  endfacet
  facet normal 0 0.83147 0.55557
    outer loop
      vertex 4.5 -1.38582 -5.57402
      vertex 7.5 -1.06066 -6.06066
      vertex 4.5 -1.06066 -6.06066
    endloop
  endfacet
  facet normal -1.47629e-08 -0.195093 -0.980785
    outer loop
      vertex -7.5 0.573642 -3.6141
      vertex -4.5 0.574024 -3.61418
      vertex -4.5 0.45899 -3.5913
    endloop
  endfacet
  facet normal -0 -0.195204 -0.980763
    outer loop
      vertex -4.5 0.574024 -3.61418
      vertex -7.5 0.573642 -3.6141
      vertex -7.5 0.574024 -3.61418
    endloop
  endfacet
  facet normal 1.29917e-08 -0.195092 -0.980785
    outer loop
      vertex 4.5 0.115034 -3.52288
      vertex 7.5 0.574024 -3.61418
      vertex 7.5 0.000382146 -3.50008
    endloop
  endfacet
  facet normal -0 -0.195092 -0.980785
    outer loop
      vertex 7.5 0.574024 -3.61418
      vertex 4.5 0.115034 -3.52288
      vertex 4.5 0.574024 -3.61418
    endloop
  endfacet
  facet normal 7.37714e-08 0.19509 -0.980785
    outer loop
      vertex -7.5 0 -3.5
      vertex -4.5 -0.45899 -3.5913
      vertex -7.5 -0.573642 -3.6141
    endloop
  endfacet
  facet normal 7.79458e-08 0.19509 -0.980785
    outer loop
      vertex -4.5 -0.45899 -3.5913
      vertex -7.5 0 -3.5
      vertex -4.5 0 -3.5
    endloop
  endfacet
  facet normal 6.4239e-08 0.195091 -0.980785
    outer loop
      vertex 4.5 0 -3.5
      vertex 7.5 -0.000382146 -3.50008
      vertex 4.5 -0.115034 -3.52288
    endloop
  endfacet
  facet normal 7.79442e-08 0.195194 -0.980765
    outer loop
      vertex 7.5 -0.000382146 -3.50008
      vertex 4.5 0 -3.5
      vertex 7.5 0 -3.5
    endloop
  endfacet
  facet normal 0 -0.83147 -0.55557
    outer loop
      vertex -7.5 1.38582 -4.42597
      vertex -4.5 1.06066 -3.93934
      vertex -7.5 1.06066 -3.93934
    endloop
  endfacet
  facet normal 0 -0.83147 -0.55557
    outer loop
      vertex -4.5 1.06066 -3.93934
      vertex -7.5 1.38582 -4.42597
      vertex -4.5 1.38582 -4.42597
    endloop
  endfacet
  facet normal 0 -0.83147 -0.55557
    outer loop
      vertex 4.5 1.38582 -4.42597
      vertex 7.5 1.06066 -3.93934
      vertex 4.5 1.06066 -3.93934
    endloop
  endfacet
  facet normal 0 -0.83147 -0.55557
    outer loop
      vertex 7.5 1.06066 -3.93934
      vertex 4.5 1.38582 -4.42597
      vertex 7.5 1.38582 -4.42597
    endloop
  endfacet
  facet normal 0 -0.980745 -0.195292
    outer loop
      vertex -7.5 1.38589 -4.42636
      vertex -4.5 1.38582 -4.42597
      vertex -7.5 1.38582 -4.42597
    endloop
  endfacet
  facet normal -2.65143e-08 -0.980785 -0.195092
    outer loop
      vertex -4.5 1.38582 -4.42597
      vertex -7.5 1.38589 -4.42636
      vertex -4.5 1.4087 -4.54101
    endloop
  endfacet
  facet normal 0 -0.980785 -0.195092
    outer loop
      vertex 4.5 1.47712 -4.88496
      vertex 7.5 1.38582 -4.42597
      vertex 4.5 1.38582 -4.42597
    endloop
  endfacet
  facet normal -3.48828e-08 -0.980785 -0.195092
    outer loop
      vertex 7.5 1.38582 -4.42597
      vertex 4.5 1.47712 -4.88496
      vertex 7.5 1.49992 -4.99962
    endloop
  endfacet
  facet normal 0 0.55557 -0.83147
    outer loop
      vertex -7.5 -1.06066 -3.93934
      vertex -4.5 -0.574024 -3.61418
      vertex -4.5 -1.06066 -3.93934
    endloop
  endfacet
  facet normal 0 0.55557 -0.83147
    outer loop
      vertex -4.5 -0.574024 -3.61418
      vertex -7.5 -1.06066 -3.93934
      vertex -7.5 -0.574024 -3.61418
    endloop
  endfacet
  facet normal 0 0.55557 -0.83147
    outer loop
      vertex 4.5 -1.06066 -3.93934
      vertex 7.5 -0.574024 -3.61418
      vertex 7.5 -1.06066 -3.93934
    endloop
  endfacet
  facet normal 0 0.55557 -0.83147
    outer loop
      vertex 7.5 -0.574024 -3.61418
      vertex 4.5 -1.06066 -3.93934
      vertex 4.5 -0.574024 -3.61418
    endloop
  endfacet
  facet normal 0 0.980745 0.195292
    outer loop
      vertex -4.5 -1.5 -5
      vertex -7.5 -1.49992 -5.00038
      vertex -7.5 -1.5 -5
    endloop
  endfacet
  facet normal 2.65143e-08 0.980785 0.195092
    outer loop
      vertex -7.5 -1.49992 -5.00038
      vertex -4.5 -1.5 -5
      vertex -4.5 -1.47712 -5.11503
    endloop
  endfacet
  facet normal 0 0.980785 0.195092
    outer loop
      vertex 7.5 -1.5 -5
      vertex 4.5 -1.4087 -5.45899
      vertex 4.5 -1.5 -5
    endloop
  endfacet
  facet normal 2.24875e-08 0.980785 0.195092
    outer loop
      vertex 4.5 -1.4087 -5.45899
      vertex 7.5 -1.5 -5
      vertex 7.5 -1.38589 -5.57364
    endloop
  endfacet
  facet normal 0 0.83147 -0.55557
    outer loop
      vertex -4.5 -1.38582 -4.42597
      vertex -7.5 -1.06066 -3.93934
      vertex -4.5 -1.06066 -3.93934
    endloop
  endfacet
  facet normal 0 0.83147 -0.55557
    outer loop
      vertex -7.5 -1.06066 -3.93934
      vertex -4.5 -1.38582 -4.42597
      vertex -7.5 -1.38582 -4.42597
    endloop
  endfacet
  facet normal 0 0.83147 -0.55557
    outer loop
      vertex 7.5 -1.38582 -4.42597
      vertex 4.5 -1.06066 -3.93934
      vertex 7.5 -1.06066 -3.93934
    endloop
  endfacet
  facet normal 0 0.83147 -0.55557
    outer loop
      vertex 4.5 -1.06066 -3.93934
      vertex 7.5 -1.38582 -4.42597
      vertex 4.5 -1.38582 -4.42597
    endloop
  endfacet
  facet normal -1 0 0
    outer loop
      vertex 4.5 -7.875 4.875
      vertex 4.5 7.875 33.875
      vertex 4.5 7.875 4.875
    endloop
  endfacet
  facet normal -1 -0 0
    outer loop
      vertex 4.5 7.875 33.875
      vertex 4.5 -7.875 4.875
      vertex 4.5 -7.875 33.875
    endloop
  endfacet
  facet normal 0 0 -1
    outer loop
      vertex 4.5 -7.875 33.875
      vertex 4.04145 0 33.875
      vertex 4.5 7.875 33.875
    endloop
  endfacet
  facet normal 0 0 -1
    outer loop
      vertex 4.5 -7.875 33.875
      vertex 2.02073 -3.5 33.875
      vertex 4.04145 0 33.875
    endloop
  endfacet
  facet normal 0 0 -1
    outer loop
      vertex 4.5 -7.875 33.875
      vertex -2.02073 -3.5 33.875
      vertex 2.02073 -3.5 33.875
    endloop
  endfacet
  facet normal -0 0 -1
    outer loop
      vertex -2.02073 -3.5 33.875
      vertex -4.5 -7.875 33.875
      vertex -4.04145 0 33.875
    endloop
  endfacet
  facet normal 0 0 -1
    outer loop
      vertex -4.5 -7.875 33.875
      vertex -2.02073 -3.5 33.875
      vertex 4.5 -7.875 33.875
    endloop
  endfacet
  facet normal 0 0 -1
    outer loop
      vertex 2.02073 3.5 33.875
      vertex 4.5 7.875 33.875
      vertex 4.04145 0 33.875
    endloop
  endfacet
  facet normal 0 0 -1
    outer loop
      vertex -2.02073 3.5 33.875
      vertex 4.5 7.875 33.875
      vertex 2.02073 3.5 33.875
    endloop
  endfacet
  facet normal 0 0 -1
    outer loop
      vertex -2.02073 3.5 33.875
      vertex -4.5 7.875 33.875
      vertex 4.5 7.875 33.875
    endloop
  endfacet
  facet normal 0 0 -1
    outer loop
      vertex -4.04145 0 33.875
      vertex -4.5 7.875 33.875
      vertex -2.02073 3.5 33.875
    endloop
  endfacet
  facet normal 0 0 -1
    outer loop
      vertex -4.5 7.875 33.875
      vertex -4.04145 0 33.875
      vertex -4.5 -7.875 33.875
    endloop
  endfacet
  facet normal 1 -0 0
    outer loop
      vertex -4.5 -7.875 33.875
      vertex -4.5 7.875 4.875
      vertex -4.5 7.875 33.875
    endloop
  endfacet
  facet normal 1 0 0
    outer loop
      vertex -4.5 7.875 4.875
      vertex -4.5 -7.875 33.875
      vertex -4.5 -7.875 4.875
    endloop
  endfacet
  facet normal 0 0 1
    outer loop
      vertex 7.5 7.875 36.875
      vertex 2 0 36.875
      vertex 7.5 -7.875 36.875
    endloop
  endfacet
  facet normal 0 0 1
    outer loop
      vertex 7.5 7.875 36.875
      vertex 1.84776 0.765367 36.875
      vertex 2 0 36.875
    endloop
  endfacet
  facet normal 0 0 1
    outer loop
      vertex 7.5 7.875 36.875
      vertex 1.41421 1.41421 36.875
      vertex 1.84776 0.765367 36.875
    endloop
  endfacet
  facet normal 0 0 1
    outer loop
      vertex 7.5 7.875 36.875
      vertex 0.765367 1.84776 36.875
      vertex 1.41421 1.41421 36.875
    endloop
  endfacet
  facet normal 0 0 1
    outer loop
      vertex 7.5 7.875 36.875
      vertex 0 2 36.875
      vertex 0.765367 1.84776 36.875
    endloop
  endfacet
  facet normal -0 0 1
    outer loop
      vertex -7.5 7.875 36.875
      vertex 0 2 36.875
      vertex 7.5 7.875 36.875
    endloop
  endfacet
  facet normal 0 0 1
    outer loop
      vertex 0 2 36.875
      vertex -7.5 7.875 36.875
      vertex -0.765367 1.84776 36.875
    endloop
  endfacet
  facet normal 0 0 1
    outer loop
      vertex -1.84776 0.765367 36.875
      vertex -7.5 7.875 36.875
      vertex -2 0 36.875
    endloop
  endfacet
  facet normal 0 0 1
    outer loop
      vertex -1.41421 1.41421 36.875
      vertex -7.5 7.875 36.875
      vertex -1.84776 0.765367 36.875
    endloop
  endfacet
  facet normal 0 0 1
    outer loop
      vertex -0.765367 1.84776 36.875
      vertex -7.5 7.875 36.875
      vertex -1.41421 1.41421 36.875
    endloop
  endfacet
  facet normal -0 0 1
    outer loop
      vertex 1.84776 -0.765367 36.875
      vertex 7.5 -7.875 36.875
      vertex 2 0 36.875
    endloop
  endfacet
  facet normal -0 0 1
    outer loop
      vertex 1.41421 -1.41421 36.875
      vertex 7.5 -7.875 36.875
      vertex 1.84776 -0.765367 36.875
    endloop
  endfacet
  facet normal -0 0 1
    outer loop
      vertex 0.765367 -1.84776 36.875
      vertex 7.5 -7.875 36.875
      vertex 1.41421 -1.41421 36.875
    endloop
  endfacet
  facet normal -0 0 1
    outer loop
      vertex 0 -2 36.875
      vertex 7.5 -7.875 36.875
      vertex 0.765367 -1.84776 36.875
    endloop
  endfacet
  facet normal 0 0 1
    outer loop
      vertex -7.5 -7.875 36.875
      vertex 0 -2 36.875
      vertex -0.765367 -1.84776 36.875
    endloop
  endfacet
  facet normal 0 0 1
    outer loop
      vertex -7.5 -7.875 36.875
      vertex -0.765367 -1.84776 36.875
      vertex -1.41421 -1.41421 36.875
    endloop
  endfacet
  facet normal 0 0 1
    outer loop
      vertex -7.5 -7.875 36.875
      vertex -2 0 36.875
      vertex -7.5 7.875 36.875
    endloop
  endfacet
  facet normal 0 0 1
    outer loop
      vertex 0 -2 36.875
      vertex -7.5 -7.875 36.875
      vertex 7.5 -7.875 36.875
    endloop
  endfacet
  facet normal 0 0 1
    outer loop
      vertex -1.84776 -0.765367 36.875
      vertex -7.5 -7.875 36.875
      vertex -1.41421 -1.41421 36.875
    endloop
  endfacet
  facet normal 0 0 1
    outer loop
      vertex -2 0 36.875
      vertex -7.5 -7.875 36.875
      vertex -1.84776 -0.765367 36.875
    endloop
  endfacet
  facet normal -0.980785 -0.195091 0
    outer loop
      vertex 2 0 34.875
      vertex 1.84776 0.765367 36.875
      vertex 1.84776 0.765367 34.875
    endloop
  endfacet
  facet normal -0.980785 -0.195091 0
    outer loop
      vertex 1.84776 0.765367 36.875
      vertex 2 0 34.875
      vertex 2 0 36.875
    endloop
  endfacet
  facet normal 0.980785 -0.195091 0
    outer loop
      vertex -2 0 36.875
      vertex -1.84776 0.765367 34.875
      vertex -1.84776 0.765367 36.875
    endloop
  endfacet
  facet normal 0.980785 -0.195091 0
    outer loop
      vertex -1.84776 0.765367 34.875
      vertex -2 0 36.875
      vertex -2 0 34.875
    endloop
  endfacet
  facet normal -0.195091 -0.980785 0
    outer loop
      vertex 0 2 34.875
      vertex 0.765367 1.84776 36.875
      vertex 0 2 36.875
    endloop
  endfacet
  facet normal -0.195091 -0.980785 -0
    outer loop
      vertex 0.765367 1.84776 36.875
      vertex 0 2 34.875
      vertex 0.765367 1.84776 34.875
    endloop
  endfacet
  facet normal -0.83147 -0.55557 0
    outer loop
      vertex 1.84776 0.765367 34.875
      vertex 1.41421 1.41421 36.875
      vertex 1.41421 1.41421 34.875
    endloop
  endfacet
  facet normal -0.83147 -0.55557 0
    outer loop
      vertex 1.41421 1.41421 36.875
      vertex 1.84776 0.765367 34.875
      vertex 1.84776 0.765367 36.875
    endloop
  endfacet
  facet normal 0.195091 0.980785 -0
    outer loop
      vertex 0 -2 34.875
      vertex -0.765367 -1.84776 36.875
      vertex 0 -2 36.875
    endloop
  endfacet
  facet normal 0.195091 0.980785 0
    outer loop
      vertex -0.765367 -1.84776 36.875
      vertex 0 -2 34.875
      vertex -0.765367 -1.84776 34.875
    endloop
  endfacet
  facet normal -0.55557 -0.83147 0
    outer loop
      vertex 0.765367 1.84776 34.875
      vertex 1.41421 1.41421 36.875
      vertex 0.765367 1.84776 36.875
    endloop
  endfacet
  facet normal -0.55557 -0.83147 -0
    outer loop
      vertex 1.41421 1.41421 36.875
      vertex 0.765367 1.84776 34.875
      vertex 1.41421 1.41421 34.875
    endloop
  endfacet
  facet normal 0.55557 -0.83147 0
    outer loop
      vertex -1.41421 1.41421 34.875
      vertex -0.765367 1.84776 36.875
      vertex -1.41421 1.41421 36.875
    endloop
  endfacet
  facet normal 0.55557 -0.83147 0
    outer loop
      vertex -0.765367 1.84776 36.875
      vertex -1.41421 1.41421 34.875
      vertex -0.765367 1.84776 34.875
    endloop
  endfacet
  facet normal 0.83147 -0.55557 0
    outer loop
      vertex -1.84776 0.765367 36.875
      vertex -1.41421 1.41421 34.875
      vertex -1.41421 1.41421 36.875
    endloop
  endfacet
  facet normal 0.83147 -0.55557 0
    outer loop
      vertex -1.41421 1.41421 34.875
      vertex -1.84776 0.765367 36.875
      vertex -1.84776 0.765367 34.875
    endloop
  endfacet
  facet normal 0.195091 -0.980785 0
    outer loop
      vertex -0.765367 1.84776 34.875
      vertex 0 2 36.875
      vertex -0.765367 1.84776 36.875
    endloop
  endfacet
  facet normal 0.195091 -0.980785 0
    outer loop
      vertex 0 2 36.875
      vertex -0.765367 1.84776 34.875
      vertex 0 2 34.875
    endloop
  endfacet
  facet normal 0.55557 0.83147 -0
    outer loop
      vertex -0.765367 -1.84776 34.875
      vertex -1.41421 -1.41421 36.875
      vertex -0.765367 -1.84776 36.875
    endloop
  endfacet
  facet normal 0.55557 0.83147 0
    outer loop
      vertex -1.41421 -1.41421 36.875
      vertex -0.765367 -1.84776 34.875
      vertex -1.41421 -1.41421 34.875
    endloop
  endfacet
  facet normal 0.980785 0.195091 0
    outer loop
      vertex -1.84776 -0.765367 36.875
      vertex -2 0 34.875
      vertex -2 0 36.875
    endloop
  endfacet
  facet normal 0.980785 0.195091 0
    outer loop
      vertex -2 0 34.875
      vertex -1.84776 -0.765367 36.875
      vertex -1.84776 -0.765367 34.875
    endloop
  endfacet
  facet normal -0.980785 0.195091 0
    outer loop
      vertex 1.84776 -0.765367 34.875
      vertex 2 0 36.875
      vertex 2 0 34.875
    endloop
  endfacet
  facet normal -0.980785 0.195091 0
    outer loop
      vertex 2 0 36.875
      vertex 1.84776 -0.765367 34.875
      vertex 1.84776 -0.765367 36.875
    endloop
  endfacet
  facet normal -0.55557 0.83147 0
    outer loop
      vertex 1.41421 -1.41421 34.875
      vertex 0.765367 -1.84776 36.875
      vertex 1.41421 -1.41421 36.875
    endloop
  endfacet
  facet normal -0.55557 0.83147 0
    outer loop
      vertex 0.765367 -1.84776 36.875
      vertex 1.41421 -1.41421 34.875
      vertex 0.765367 -1.84776 34.875
    endloop
  endfacet
  facet normal -0.195091 0.980785 0
    outer loop
      vertex 0.765367 -1.84776 34.875
      vertex 0 -2 36.875
      vertex 0.765367 -1.84776 36.875
    endloop
  endfacet
  facet normal -0.195091 0.980785 0
    outer loop
      vertex 0 -2 36.875
      vertex 0.765367 -1.84776 34.875
      vertex 0 -2 34.875
    endloop
  endfacet
  facet normal -0.83147 0.55557 0
    outer loop
      vertex 1.41421 -1.41421 34.875
      vertex 1.84776 -0.765367 36.875
      vertex 1.84776 -0.765367 34.875
    endloop
  endfacet
  facet normal -0.83147 0.55557 0
    outer loop
      vertex 1.84776 -0.765367 36.875
      vertex 1.41421 -1.41421 34.875
      vertex 1.41421 -1.41421 36.875
    endloop
  endfacet
  facet normal 0.83147 0.55557 0
    outer loop
      vertex -1.41421 -1.41421 36.875
      vertex -1.84776 -0.765367 34.875
      vertex -1.84776 -0.765367 36.875
    endloop
  endfacet
  facet normal 0.83147 0.55557 0
    outer loop
      vertex -1.84776 -0.765367 34.875
      vertex -1.41421 -1.41421 36.875
      vertex -1.41421 -1.41421 34.875
    endloop
  endfacet
  facet normal -0.866026 -0.499999 0
    outer loop
      vertex 4.04145 0 33.875
      vertex 2.02073 3.5 34.875
      vertex 2.02073 3.5 33.875
    endloop
  endfacet
  facet normal -0.866026 -0.499999 0
    outer loop
      vertex 2.02073 3.5 34.875
      vertex 4.04145 0 33.875
      vertex 4.04145 0 34.875
    endloop
  endfacet
  facet normal 0.866026 -0.499999 0
    outer loop
      vertex -4.04145 0 34.875
      vertex -2.02073 3.5 33.875
      vertex -2.02073 3.5 34.875
    endloop
  endfacet
  facet normal 0.866026 -0.499999 0
    outer loop
      vertex -2.02073 3.5 33.875
      vertex -4.04145 0 34.875
      vertex -4.04145 0 33.875
    endloop
  endfacet
  facet normal 0 -1 0
    outer loop
      vertex -2.02073 3.5 33.875
      vertex 2.02073 3.5 34.875
      vertex -2.02073 3.5 34.875
    endloop
  endfacet
  facet normal 0 -1 -0
    outer loop
      vertex 2.02073 3.5 34.875
      vertex -2.02073 3.5 33.875
      vertex 2.02073 3.5 33.875
    endloop
  endfacet
  facet normal 0 0 -1
    outer loop
      vertex 1.84776 -0.765367 34.875
      vertex 4.04145 0 34.875
      vertex 2.02073 -3.5 34.875
    endloop
  endfacet
  facet normal 0 0 -1
    outer loop
      vertex 1.84776 0.765367 34.875
      vertex 4.04145 0 34.875
      vertex 2 0 34.875
    endloop
  endfacet
  facet normal -0 0 -1
    outer loop
      vertex 4.04145 0 34.875
      vertex 1.84776 -0.765367 34.875
      vertex 2 0 34.875
    endloop
  endfacet
  facet normal 0 0 -1
    outer loop
      vertex 2.02073 -3.5 34.875
      vertex 1.41421 -1.41421 34.875
      vertex 1.84776 -0.765367 34.875
    endloop
  endfacet
  facet normal 0 0 -1
    outer loop
      vertex 2.02073 -3.5 34.875
      vertex 0.765367 -1.84776 34.875
      vertex 1.41421 -1.41421 34.875
    endloop
  endfacet
  facet normal 0 0 -1
    outer loop
      vertex 2.02073 -3.5 34.875
      vertex 0 -2 34.875
      vertex 0.765367 -1.84776 34.875
    endloop
  endfacet
  facet normal 0 0 -1
    outer loop
      vertex -2.02073 -3.5 34.875
      vertex 0 -2 34.875
      vertex 2.02073 -3.5 34.875
    endloop
  endfacet
  facet normal 0 0 -1
    outer loop
      vertex -4.04145 0 34.875
      vertex -1.84776 -0.765367 34.875
      vertex -2.02073 -3.5 34.875
    endloop
  endfacet
  facet normal -0 0 -1
    outer loop
      vertex -1.41421 -1.41421 34.875
      vertex -2.02073 -3.5 34.875
      vertex -1.84776 -0.765367 34.875
    endloop
  endfacet
  facet normal -0 0 -1
    outer loop
      vertex -0.765367 -1.84776 34.875
      vertex -2.02073 -3.5 34.875
      vertex -1.41421 -1.41421 34.875
    endloop
  endfacet
  facet normal -0 0 -1
    outer loop
      vertex 0 -2 34.875
      vertex -2.02073 -3.5 34.875
      vertex -0.765367 -1.84776 34.875
    endloop
  endfacet
  facet normal 0 0 -1
    outer loop
      vertex 4.04145 0 34.875
      vertex 1.84776 0.765367 34.875
      vertex 2.02073 3.5 34.875
    endloop
  endfacet
  facet normal 0 0 -1
    outer loop
      vertex 1.41421 1.41421 34.875
      vertex 2.02073 3.5 34.875
      vertex 1.84776 0.765367 34.875
    endloop
  endfacet
  facet normal 0 0 -1
    outer loop
      vertex 0.765367 1.84776 34.875
      vertex 2.02073 3.5 34.875
      vertex 1.41421 1.41421 34.875
    endloop
  endfacet
  facet normal 0 0 -1
    outer loop
      vertex 0 2 34.875
      vertex 2.02073 3.5 34.875
      vertex 0.765367 1.84776 34.875
    endloop
  endfacet
  facet normal 0 0 -1
    outer loop
      vertex -2.02073 3.5 34.875
      vertex 0 2 34.875
      vertex -0.765367 1.84776 34.875
    endloop
  endfacet
  facet normal 0 0 -1
    outer loop
      vertex 0 2 34.875
      vertex -2.02073 3.5 34.875
      vertex 2.02073 3.5 34.875
    endloop
  endfacet
  facet normal 0 0 -1
    outer loop
      vertex -1.41421 1.41421 34.875
      vertex -2.02073 3.5 34.875
      vertex -0.765367 1.84776 34.875
    endloop
  endfacet
  facet normal 0 0 -1
    outer loop
      vertex -1.84776 0.765367 34.875
      vertex -2.02073 3.5 34.875
      vertex -1.41421 1.41421 34.875
    endloop
  endfacet
  facet normal 0 0 -1
    outer loop
      vertex -4.04145 0 34.875
      vertex -1.84776 0.765367 34.875
      vertex -2 0 34.875
    endloop
  endfacet
  facet normal 0 0 -1
    outer loop
      vertex -1.84776 -0.765367 34.875
      vertex -4.04145 0 34.875
      vertex -2 0 34.875
    endloop
  endfacet
  facet normal -0 0 -1
    outer loop
      vertex -1.84776 0.765367 34.875
      vertex -4.04145 0 34.875
      vertex -2.02073 3.5 34.875
    endloop
  endfacet
  facet normal -0.866026 0.499999 0
    outer loop
      vertex 2.02073 -3.5 33.875
      vertex 4.04145 0 34.875
      vertex 4.04145 0 33.875
    endloop
  endfacet
  facet normal -0.866026 0.499999 0
    outer loop
      vertex 4.04145 0 34.875
      vertex 2.02073 -3.5 33.875
      vertex 2.02073 -3.5 34.875
    endloop
  endfacet
  facet normal 0.866026 0.499999 0
    outer loop
      vertex -2.02073 -3.5 34.875
      vertex -4.04145 0 33.875
      vertex -4.04145 0 34.875
    endloop
  endfacet
  facet normal 0.866026 0.499999 0
    outer loop
      vertex -4.04145 0 33.875
      vertex -2.02073 -3.5 34.875
      vertex -2.02073 -3.5 33.875
    endloop
  endfacet
  facet normal 0 1 -0
    outer loop
      vertex 2.02073 -3.5 33.875
      vertex -2.02073 -3.5 34.875
      vertex 2.02073 -3.5 34.875
    endloop
  endfacet
  facet normal 0 1 0
    outer loop
      vertex -2.02073 -3.5 34.875
      vertex 2.02073 -3.5 33.875
      vertex -2.02073 -3.5 33.875
    endloop
  endfacet
endsolid OpenSCAD_Model
