solid OpenSCAD_Model
  facet normal -1 0 0
    outer loop
      vertex -8.125 1.38589 -4.42633
      vertex -8.125 7.875 -12.875
      vertex -8.125 1.5 -5
    endloop
  endfacet
  facet normal -1 0 0
    outer loop
      vertex -8.125 7.875 -12.875
      vertex -8.125 1.49993 -5.00035
      vertex -8.125 1.5 -5
    endloop
  endfacet
  facet normal -1 0 0
    outer loop
      vertex -8.125 7.875 -12.875
      vertex -8.125 1.38582 -5.57402
      vertex -8.125 1.49993 -5.00035
    endloop
  endfacet
  facet normal -1 0 0
    outer loop
      vertex -8.125 7.875 -12.875
      vertex -8.125 1.06066 -6.06066
      vertex -8.125 1.38582 -5.57402
    endloop
  endfacet
  facet normal -1 0 0
    outer loop
      vertex -8.125 7.875 -12.875
      vertex -8.125 0.574024 -6.38582
      vertex -8.125 1.06066 -6.06066
    endloop
  endfacet
  facet normal -1 0 0
    outer loop
      vertex -8.125 7.875 -12.875
      vertex -8.125 0.000352786 -6.49993
      vertex -8.125 0.574024 -6.38582
    endloop
  endfacet
  facet normal -1 0 0
    outer loop
      vertex -8.125 7.875 -12.875
      vertex -8.125 0 -6.5
      vertex -8.125 0.000352786 -6.49993
    endloop
  endfacet
  facet normal -1 0 0
    outer loop
      vertex -8.125 -7.875 -12.875
      vertex -8.125 0 -6.5
      vertex -8.125 7.875 -12.875
    endloop
  endfacet
  facet normal -1 -0 0
    outer loop
      vertex -8.125 0 -6.5
      vertex -8.125 -7.875 -12.875
      vertex -8.125 -0.000352786 -6.49993
    endloop
  endfacet
  facet normal -1 -0 0
    outer loop
      vertex -8.125 -0.000352786 -6.49993
      vertex -8.125 -7.875 -12.875
      vertex -8.125 -0.574024 -6.38582
    endloop
  endfacet
  facet normal -1 0 0
    outer loop
      vertex -8.125 -7.875 -12.875
      vertex -8.125 -1.49993 -5.00035
      vertex -8.125 -1.38582 -5.57402
    endloop
  endfacet
  facet normal -1 -0 0
    outer loop
      vertex -8.125 -1.49993 -5.00035
      vertex -8.125 -7.875 -12.875
      vertex -8.125 -1.5 -5
    endloop
  endfacet
  facet normal -1 -0 0
    outer loop
      vertex -8.125 -1.06066 -6.06066
      vertex -8.125 -7.875 -12.875
      vertex -8.125 -1.38582 -5.57402
    endloop
  endfacet
  facet normal -1 -0 0
    outer loop
      vertex -8.125 -0.574024 -6.38582
      vertex -8.125 -7.875 -12.875
      vertex -8.125 -1.06066 -6.06066
    endloop
  endfacet
  facet normal -1 0 0
    outer loop
      vertex -8.125 1.38582 -4.42597
      vertex -8.125 7.875 -12.875
      vertex -8.125 1.38589 -4.42633
    endloop
  endfacet
  facet normal -1 0 0
    outer loop
      vertex -8.125 7.875 -12.875
      vertex -8.125 1.38582 -4.42597
      vertex -8.125 7.875 26.875
    endloop
  endfacet
  facet normal -1 0 0
    outer loop
      vertex -8.125 1.06066 -3.93934
      vertex -8.125 7.875 26.875
      vertex -8.125 1.38582 -4.42597
    endloop
  endfacet
  facet normal -1 0 0
    outer loop
      vertex -8.125 0.574024 -3.61418
      vertex -8.125 7.875 26.875
      vertex -8.125 1.06066 -3.93934
    endloop
  endfacet
  facet normal -1 0 0
    outer loop
      vertex -8.125 0.573671 -3.61411
      vertex -8.125 7.875 26.875
      vertex -8.125 0.574024 -3.61418
    endloop
  endfacet
  facet normal -1 0 0
    outer loop
      vertex -8.125 0 -3.5
      vertex -8.125 7.875 26.875
      vertex -8.125 0.573671 -3.61411
    endloop
  endfacet
  facet normal -1 0 0
    outer loop
      vertex -8.125 -7.875 26.875
      vertex -8.125 0 -3.5
      vertex -8.125 -0.573671 -3.61411
    endloop
  endfacet
  facet normal -1 0 0
    outer loop
      vertex -8.125 -7.875 26.875
      vertex -8.125 -0.573671 -3.61411
      vertex -8.125 -0.574024 -3.61418
    endloop
  endfacet
  facet normal -1 0 0
    outer loop
      vertex -8.125 -7.875 26.875
      vertex -8.125 -0.574024 -3.61418
      vertex -8.125 -1.06066 -3.93934
    endloop
  endfacet
  facet normal -1 0 0
    outer loop
      vertex -8.125 -7.875 26.875
      vertex -8.125 -1.06066 -3.93934
      vertex -8.125 -1.38582 -4.42597
    endloop
  endfacet
  facet normal -1 0 0
    outer loop
      vertex -8.125 -7.875 -12.875
      vertex -8.125 -1.38589 -4.42633
      vertex -8.125 -1.5 -5
    endloop
  endfacet
  facet normal -1 0 0
    outer loop
      vertex -8.125 -7.875 -12.875
      vertex -8.125 -1.38582 -4.42597
      vertex -8.125 -1.38589 -4.42633
    endloop
  endfacet
  facet normal -1 0 0
    outer loop
      vertex -8.125 -7.875 26.875
      vertex -8.125 -1.38582 -4.42597
      vertex -8.125 -7.875 -12.875
    endloop
  endfacet
  facet normal -1 0 0
    outer loop
      vertex -8.125 0 -3.5
      vertex -8.125 -7.875 26.875
      vertex -8.125 7.875 26.875
    endloop
  endfacet
  facet normal -0 0 1
    outer loop
      vertex -5.125 7.875 4.875
      vertex 5.125 -7.875 4.875
      vertex 5.125 7.875 4.875
    endloop
  endfacet
  facet normal 0 0 1
    outer loop
      vertex 5.125 -7.875 4.875
      vertex -5.125 7.875 4.875
      vertex -5.125 -7.875 4.875
    endloop
  endfacet
  facet normal 1 -0 0
    outer loop
      vertex 8.125 1.38582 -4.42597
      vertex 8.125 7.875 -12.875
      vertex 8.125 7.875 26.875
    endloop
  endfacet
  facet normal 1 0 0
    outer loop
      vertex 8.125 7.875 -12.875
      vertex 8.125 1.49993 -4.99965
      vertex 8.125 1.5 -5
    endloop
  endfacet
  facet normal 1 0 0
    outer loop
      vertex 8.125 7.875 -12.875
      vertex 8.125 1.38582 -4.42597
      vertex 8.125 1.49993 -4.99965
    endloop
  endfacet
  facet normal 1 0 0
    outer loop
      vertex 8.125 7.875 26.875
      vertex 8.125 1.06066 -3.93934
      vertex 8.125 1.38582 -4.42597
    endloop
  endfacet
  facet normal 1 0 0
    outer loop
      vertex 8.125 7.875 26.875
      vertex 8.125 0.574024 -3.61418
      vertex 8.125 1.06066 -3.93934
    endloop
  endfacet
  facet normal 1 0 0
    outer loop
      vertex 8.125 7.875 26.875
      vertex 8.125 0.000352786 -3.50007
      vertex 8.125 0.574024 -3.61418
    endloop
  endfacet
  facet normal 1 0 0
    outer loop
      vertex 8.125 7.875 26.875
      vertex 8.125 0 -3.5
      vertex 8.125 0.000352786 -3.50007
    endloop
  endfacet
  facet normal 1 -0 0
    outer loop
      vertex 8.125 -7.875 26.875
      vertex 8.125 0 -3.5
      vertex 8.125 7.875 26.875
    endloop
  endfacet
  facet normal 1 0 0
    outer loop
      vertex 8.125 0 -3.5
      vertex 8.125 -7.875 26.875
      vertex 8.125 -0.000352786 -3.50007
    endloop
  endfacet
  facet normal 1 0 0
    outer loop
      vertex 8.125 -0.000352786 -3.50007
      vertex 8.125 -7.875 26.875
      vertex 8.125 -0.574024 -3.61418
    endloop
  endfacet
  facet normal 1 0 0
    outer loop
      vertex 8.125 -0.574024 -3.61418
      vertex 8.125 -7.875 26.875
      vertex 8.125 -1.06066 -3.93934
    endloop
  endfacet
  facet normal 1 0 0
    outer loop
      vertex 8.125 -7.875 -12.875
      vertex 8.125 -1.49993 -4.99965
      vertex 8.125 -1.38582 -4.42597
    endloop
  endfacet
  facet normal 1 0 0
    outer loop
      vertex 8.125 -7.875 -12.875
      vertex 8.125 -1.38582 -4.42597
      vertex 8.125 -7.875 26.875
    endloop
  endfacet
  facet normal 1 0 0
    outer loop
      vertex 8.125 -1.06066 -3.93934
      vertex 8.125 -7.875 26.875
      vertex 8.125 -1.38582 -4.42597
    endloop
  endfacet
  facet normal 1 -0 0
    outer loop
      vertex 8.125 1.38589 -5.57367
      vertex 8.125 7.875 -12.875
      vertex 8.125 1.5 -5
    endloop
  endfacet
  facet normal 1 -0 0
    outer loop
      vertex 8.125 1.38582 -5.57402
      vertex 8.125 7.875 -12.875
      vertex 8.125 1.38589 -5.57367
    endloop
  endfacet
  facet normal 1 -0 0
    outer loop
      vertex 8.125 1.06066 -6.06066
      vertex 8.125 7.875 -12.875
      vertex 8.125 1.38582 -5.57402
    endloop
  endfacet
  facet normal 1 -0 0
    outer loop
      vertex 8.125 0.574024 -6.38582
      vertex 8.125 7.875 -12.875
      vertex 8.125 1.06066 -6.06066
    endloop
  endfacet
  facet normal 1 -0 0
    outer loop
      vertex 8.125 0.573671 -6.38589
      vertex 8.125 7.875 -12.875
      vertex 8.125 0.574024 -6.38582
    endloop
  endfacet
  facet normal 1 -0 0
    outer loop
      vertex 8.125 0 -6.5
      vertex 8.125 7.875 -12.875
      vertex 8.125 0.573671 -6.38589
    endloop
  endfacet
  facet normal 1 0 0
    outer loop
      vertex 8.125 -7.875 -12.875
      vertex 8.125 0 -6.5
      vertex 8.125 -0.573671 -6.38589
    endloop
  endfacet
  facet normal 1 0 0
    outer loop
      vertex 8.125 -7.875 -12.875
      vertex 8.125 -0.573671 -6.38589
      vertex 8.125 -0.574024 -6.38582
    endloop
  endfacet
  facet normal 1 0 0
    outer loop
      vertex 8.125 -7.875 -12.875
      vertex 8.125 -0.574024 -6.38582
      vertex 8.125 -1.06066 -6.06066
    endloop
  endfacet
  facet normal 1 0 0
    outer loop
      vertex 8.125 -1.49993 -4.99965
      vertex 8.125 -7.875 -12.875
      vertex 8.125 -1.5 -5
    endloop
  endfacet
  facet normal 1 0 0
    outer loop
      vertex 8.125 -1.5 -5
      vertex 8.125 -7.875 -12.875
      vertex 8.125 -1.38589 -5.57367
    endloop
  endfacet
  facet normal 1 0 0
    outer loop
      vertex 8.125 0 -6.5
      vertex 8.125 -7.875 -12.875
      vertex 8.125 7.875 -12.875
    endloop
  endfacet
  facet normal 1 0 0
    outer loop
      vertex 8.125 -1.38582 -5.57402
      vertex 8.125 -7.875 -12.875
      vertex 8.125 -1.06066 -6.06066
    endloop
  endfacet
  facet normal 1 0 0
    outer loop
      vertex 8.125 -1.38589 -5.57367
      vertex 8.125 -7.875 -12.875
      vertex 8.125 -1.38582 -5.57402
    endloop
  endfacet
  facet normal 0 1 0
    outer loop
      vertex 8.125 7.875 26.875
      vertex 5.125 7.875 23.875
      vertex -8.125 7.875 26.875
    endloop
  endfacet
  facet normal 0 1 0
    outer loop
      vertex 8.125 7.875 26.875
      vertex 5.125 7.875 4.875
      vertex 5.125 7.875 23.875
    endloop
  endfacet
  facet normal 0 1 0
    outer loop
      vertex 5.125 7.875 4.875
      vertex 5.125 7.875 2.875
      vertex -5.125 7.875 4.875
    endloop
  endfacet
  facet normal 0 1 -0
    outer loop
      vertex 8.125 7.875 -12.875
      vertex 5.125 7.875 4.875
      vertex 8.125 7.875 26.875
    endloop
  endfacet
  facet normal 0 1 0
    outer loop
      vertex 5.125 7.875 4.875
      vertex 8.125 7.875 -12.875
      vertex 5.125 7.875 2.875
    endloop
  endfacet
  facet normal 0 1 0
    outer loop
      vertex 5.125 7.875 2.875
      vertex 8.125 7.875 -12.875
      vertex 5.125 7.875 -12.875
    endloop
  endfacet
  facet normal 0 1 -0
    outer loop
      vertex -5.125 7.875 23.875
      vertex -8.125 7.875 26.875
      vertex 5.125 7.875 23.875
    endloop
  endfacet
  facet normal 0 1 -0
    outer loop
      vertex -5.125 7.875 4.875
      vertex -8.125 7.875 26.875
      vertex -5.125 7.875 23.875
    endloop
  endfacet
  facet normal 0 1 0
    outer loop
      vertex -5.125 7.875 2.875
      vertex -5.125 7.875 4.875
      vertex 5.125 7.875 2.875
    endloop
  endfacet
  facet normal 0 1 0
    outer loop
      vertex -8.125 7.875 -12.875
      vertex -5.125 7.875 4.875
      vertex -5.125 7.875 2.875
    endloop
  endfacet
  facet normal 0 1 0
    outer loop
      vertex -8.125 7.875 -12.875
      vertex -5.125 7.875 2.875
      vertex -5.125 7.875 -12.875
    endloop
  endfacet
  facet normal 0 1 0
    outer loop
      vertex -5.125 7.875 4.875
      vertex -8.125 7.875 -12.875
      vertex -8.125 7.875 26.875
    endloop
  endfacet
  facet normal 0 0 -1
    outer loop
      vertex -8.125 -7.875 -12.875
      vertex -5.125 7.875 -12.875
      vertex -5.125 -7.875 -12.875
    endloop
  endfacet
  facet normal -0 0 -1
    outer loop
      vertex -5.125 7.875 -12.875
      vertex -8.125 -7.875 -12.875
      vertex -8.125 7.875 -12.875
    endloop
  endfacet
  facet normal 0 0 -1
    outer loop
      vertex 5.125 -7.875 -12.875
      vertex 8.125 7.875 -12.875
      vertex 8.125 -7.875 -12.875
    endloop
  endfacet
  facet normal -0 0 -1
    outer loop
      vertex 8.125 7.875 -12.875
      vertex 5.125 -7.875 -12.875
      vertex 5.125 7.875 -12.875
    endloop
  endfacet
  facet normal 0 -1 0
    outer loop
      vertex -8.125 -7.875 26.875
      vertex -5.125 -7.875 23.875
      vertex 8.125 -7.875 26.875
    endloop
  endfacet
  facet normal 0 -1 0
    outer loop
      vertex -8.125 -7.875 26.875
      vertex -5.125 -7.875 4.875
      vertex -5.125 -7.875 23.875
    endloop
  endfacet
  facet normal 0 -1 0
    outer loop
      vertex -5.125 -7.875 4.875
      vertex -5.125 -7.875 2.875
      vertex 5.125 -7.875 4.875
    endloop
  endfacet
  facet normal 0 -1 0
    outer loop
      vertex -8.125 -7.875 -12.875
      vertex -5.125 -7.875 4.875
      vertex -8.125 -7.875 26.875
    endloop
  endfacet
  facet normal 0 -1 -0
    outer loop
      vertex -5.125 -7.875 4.875
      vertex -8.125 -7.875 -12.875
      vertex -5.125 -7.875 2.875
    endloop
  endfacet
  facet normal 0 -1 -0
    outer loop
      vertex -5.125 -7.875 2.875
      vertex -8.125 -7.875 -12.875
      vertex -5.125 -7.875 -12.875
    endloop
  endfacet
  facet normal 0 -1 0
    outer loop
      vertex 5.125 -7.875 23.875
      vertex 8.125 -7.875 26.875
      vertex -5.125 -7.875 23.875
    endloop
  endfacet
  facet normal 0 -1 0
    outer loop
      vertex 5.125 -7.875 4.875
      vertex 8.125 -7.875 26.875
      vertex 5.125 -7.875 23.875
    endloop
  endfacet
  facet normal 0 -1 0
    outer loop
      vertex 5.125 -7.875 2.875
      vertex 5.125 -7.875 4.875
      vertex -5.125 -7.875 2.875
    endloop
  endfacet
  facet normal 0 -1 0
    outer loop
      vertex 8.125 -7.875 -12.875
      vertex 5.125 -7.875 4.875
      vertex 5.125 -7.875 2.875
    endloop
  endfacet
  facet normal 0 -1 0
    outer loop
      vertex 8.125 -7.875 -12.875
      vertex 5.125 -7.875 2.875
      vertex 5.125 -7.875 -12.875
    endloop
  endfacet
  facet normal 0 -1 0
    outer loop
      vertex 5.125 -7.875 4.875
      vertex 8.125 -7.875 -12.875
      vertex 8.125 -7.875 26.875
    endloop
  endfacet
  facet normal 1 0 0
    outer loop
      vertex -5.125 7.875 2.875
      vertex -5.125 1.5 -5
      vertex -5.125 7.875 -12.875
    endloop
  endfacet
  facet normal 1 0 0
    outer loop
      vertex -5.125 7.875 2.875
      vertex -5.125 1.40694 -4.53217
      vertex -5.125 1.5 -5
    endloop
  endfacet
  facet normal 1 0 0
    outer loop
      vertex -5.125 7.875 2.875
      vertex -5.125 1.38582 -4.42597
      vertex -5.125 1.40694 -4.53217
    endloop
  endfacet
  facet normal 1 0 0
    outer loop
      vertex -5.125 7.875 2.875
      vertex -5.125 1.06066 -3.93934
      vertex -5.125 1.38582 -4.42597
    endloop
  endfacet
  facet normal 1 0 0
    outer loop
      vertex -5.125 7.875 2.875
      vertex -5.125 0.574024 -3.61418
      vertex -5.125 1.06066 -3.93934
    endloop
  endfacet
  facet normal 1 0 0
    outer loop
      vertex -5.125 7.875 2.875
      vertex -5.125 0.467828 -3.59306
      vertex -5.125 0.574024 -3.61418
    endloop
  endfacet
  facet normal 1 0 0
    outer loop
      vertex -5.125 7.875 2.875
      vertex -5.125 0 -3.5
      vertex -5.125 0.467828 -3.59306
    endloop
  endfacet
  facet normal 1 -0 0
    outer loop
      vertex -5.125 -7.875 2.875
      vertex -5.125 0 -3.5
      vertex -5.125 7.875 2.875
    endloop
  endfacet
  facet normal 1 0 0
    outer loop
      vertex -5.125 0 -3.5
      vertex -5.125 -7.875 2.875
      vertex -5.125 -0.467828 -3.59306
    endloop
  endfacet
  facet normal 1 0 0
    outer loop
      vertex -5.125 -0.467828 -3.59306
      vertex -5.125 -7.875 2.875
      vertex -5.125 -0.574024 -3.61418
    endloop
  endfacet
  facet normal 1 0 0
    outer loop
      vertex -5.125 -7.875 2.875
      vertex -5.125 -1.40694 -4.53217
      vertex -5.125 -1.38582 -4.42597
    endloop
  endfacet
  facet normal 1 0 0
    outer loop
      vertex -5.125 -1.40694 -4.53217
      vertex -5.125 -7.875 2.875
      vertex -5.125 -1.5 -5
    endloop
  endfacet
  facet normal 1 0 0
    outer loop
      vertex -5.125 -1.06066 -3.93934
      vertex -5.125 -7.875 2.875
      vertex -5.125 -1.38582 -4.42597
    endloop
  endfacet
  facet normal 1 0 0
    outer loop
      vertex -5.125 -0.574024 -3.61418
      vertex -5.125 -7.875 2.875
      vertex -5.125 -1.06066 -3.93934
    endloop
  endfacet
  facet normal 1 -0 0
    outer loop
      vertex -5.125 1.47888 -5.1062
      vertex -5.125 7.875 -12.875
      vertex -5.125 1.5 -5
    endloop
  endfacet
  facet normal 1 -0 0
    outer loop
      vertex -5.125 1.38582 -5.57402
      vertex -5.125 7.875 -12.875
      vertex -5.125 1.47888 -5.1062
    endloop
  endfacet
  facet normal 1 -0 0
    outer loop
      vertex -5.125 1.06066 -6.06066
      vertex -5.125 7.875 -12.875
      vertex -5.125 1.38582 -5.57402
    endloop
  endfacet
  facet normal 1 -0 0
    outer loop
      vertex -5.125 0.574024 -6.38582
      vertex -5.125 7.875 -12.875
      vertex -5.125 1.06066 -6.06066
    endloop
  endfacet
  facet normal 1 -0 0
    outer loop
      vertex -5.125 0.106196 -6.47888
      vertex -5.125 7.875 -12.875
      vertex -5.125 0.574024 -6.38582
    endloop
  endfacet
  facet normal 1 -0 0
    outer loop
      vertex -5.125 0 -6.5
      vertex -5.125 7.875 -12.875
      vertex -5.125 0.106196 -6.47888
    endloop
  endfacet
  facet normal 1 0 0
    outer loop
      vertex -5.125 -7.875 -12.875
      vertex -5.125 0 -6.5
      vertex -5.125 -0.106196 -6.47888
    endloop
  endfacet
  facet normal 1 0 0
    outer loop
      vertex -5.125 -7.875 -12.875
      vertex -5.125 -0.106196 -6.47888
      vertex -5.125 -0.574024 -6.38582
    endloop
  endfacet
  facet normal 1 0 0
    outer loop
      vertex -5.125 -7.875 -12.875
      vertex -5.125 -0.574024 -6.38582
      vertex -5.125 -1.06066 -6.06066
    endloop
  endfacet
  facet normal 1 0 0
    outer loop
      vertex -5.125 -7.875 -12.875
      vertex -5.125 -1.5 -5
      vertex -5.125 -7.875 2.875
    endloop
  endfacet
  facet normal 1 0 0
    outer loop
      vertex -5.125 -1.5 -5
      vertex -5.125 -7.875 -12.875
      vertex -5.125 -1.47888 -5.1062
    endloop
  endfacet
  facet normal 1 0 0
    outer loop
      vertex -5.125 -1.47888 -5.1062
      vertex -5.125 -7.875 -12.875
      vertex -5.125 -1.38582 -5.57402
    endloop
  endfacet
  facet normal 1 0 0
    outer loop
      vertex -5.125 0 -6.5
      vertex -5.125 -7.875 -12.875
      vertex -5.125 7.875 -12.875
    endloop
  endfacet
  facet normal 1 0 0
    outer loop
      vertex -5.125 -1.38582 -5.57402
      vertex -5.125 -7.875 -12.875
      vertex -5.125 -1.06066 -6.06066
    endloop
  endfacet
  facet normal 0 0 -1
    outer loop
      vertex -5.125 -7.875 2.875
      vertex 5.125 7.875 2.875
      vertex 5.125 -7.875 2.875
    endloop
  endfacet
  facet normal -0 0 -1
    outer loop
      vertex 5.125 7.875 2.875
      vertex -5.125 -7.875 2.875
      vertex -5.125 7.875 2.875
    endloop
  endfacet
  facet normal -1 0 0
    outer loop
      vertex 5.125 7.875 -12.875
      vertex 5.125 1.5 -5
      vertex 5.125 7.875 2.875
    endloop
  endfacet
  facet normal -1 0 0
    outer loop
      vertex 5.125 7.875 -12.875
      vertex 5.125 1.40694 -5.46783
      vertex 5.125 1.5 -5
    endloop
  endfacet
  facet normal -1 0 0
    outer loop
      vertex 5.125 7.875 -12.875
      vertex 5.125 1.38582 -5.57402
      vertex 5.125 1.40694 -5.46783
    endloop
  endfacet
  facet normal -1 0 0
    outer loop
      vertex 5.125 7.875 -12.875
      vertex 5.125 1.06066 -6.06066
      vertex 5.125 1.38582 -5.57402
    endloop
  endfacet
  facet normal -1 0 0
    outer loop
      vertex 5.125 7.875 -12.875
      vertex 5.125 0.574024 -6.38582
      vertex 5.125 1.06066 -6.06066
    endloop
  endfacet
  facet normal -1 0 0
    outer loop
      vertex 5.125 7.875 -12.875
      vertex 5.125 0.467828 -6.40694
      vertex 5.125 0.574024 -6.38582
    endloop
  endfacet
  facet normal -1 0 0
    outer loop
      vertex 5.125 7.875 -12.875
      vertex 5.125 0 -6.5
      vertex 5.125 0.467828 -6.40694
    endloop
  endfacet
  facet normal -1 0 0
    outer loop
      vertex 5.125 -7.875 -12.875
      vertex 5.125 0 -6.5
      vertex 5.125 7.875 -12.875
    endloop
  endfacet
  facet normal -1 -0 0
    outer loop
      vertex 5.125 0 -6.5
      vertex 5.125 -7.875 -12.875
      vertex 5.125 -0.467828 -6.40694
    endloop
  endfacet
  facet normal -1 -0 0
    outer loop
      vertex 5.125 -0.467828 -6.40694
      vertex 5.125 -7.875 -12.875
      vertex 5.125 -0.574024 -6.38582
    endloop
  endfacet
  facet normal -1 0 0
    outer loop
      vertex 5.125 -7.875 -12.875
      vertex 5.125 -1.40694 -5.46783
      vertex 5.125 -1.38582 -5.57402
    endloop
  endfacet
  facet normal -1 -0 0
    outer loop
      vertex 5.125 -1.40694 -5.46783
      vertex 5.125 -7.875 -12.875
      vertex 5.125 -1.5 -5
    endloop
  endfacet
  facet normal -1 -0 0
    outer loop
      vertex 5.125 -1.06066 -6.06066
      vertex 5.125 -7.875 -12.875
      vertex 5.125 -1.38582 -5.57402
    endloop
  endfacet
  facet normal -1 -0 0
    outer loop
      vertex 5.125 -0.574024 -6.38582
      vertex 5.125 -7.875 -12.875
      vertex 5.125 -1.06066 -6.06066
    endloop
  endfacet
  facet normal -1 0 0
    outer loop
      vertex 5.125 1.47888 -4.8938
      vertex 5.125 7.875 2.875
      vertex 5.125 1.5 -5
    endloop
  endfacet
  facet normal -1 0 0
    outer loop
      vertex 5.125 1.38582 -4.42597
      vertex 5.125 7.875 2.875
      vertex 5.125 1.47888 -4.8938
    endloop
  endfacet
  facet normal -1 0 0
    outer loop
      vertex 5.125 1.06066 -3.93934
      vertex 5.125 7.875 2.875
      vertex 5.125 1.38582 -4.42597
    endloop
  endfacet
  facet normal -1 0 0
    outer loop
      vertex 5.125 0.574024 -3.61418
      vertex 5.125 7.875 2.875
      vertex 5.125 1.06066 -3.93934
    endloop
  endfacet
  facet normal -1 0 0
    outer loop
      vertex 5.125 0.106196 -3.52112
      vertex 5.125 7.875 2.875
      vertex 5.125 0.574024 -3.61418
    endloop
  endfacet
  facet normal -1 0 0
    outer loop
      vertex 5.125 0 -3.5
      vertex 5.125 7.875 2.875
      vertex 5.125 0.106196 -3.52112
    endloop
  endfacet
  facet normal -1 0 0
    outer loop
      vertex 5.125 -7.875 2.875
      vertex 5.125 0 -3.5
      vertex 5.125 -0.106196 -3.52112
    endloop
  endfacet
  facet normal -1 0 0
    outer loop
      vertex 5.125 -7.875 2.875
      vertex 5.125 -0.106196 -3.52112
      vertex 5.125 -0.574024 -3.61418
    endloop
  endfacet
  facet normal -1 0 0
    outer loop
      vertex 5.125 -7.875 2.875
      vertex 5.125 -0.574024 -3.61418
      vertex 5.125 -1.06066 -3.93934
    endloop
  endfacet
  facet normal -1 0 0
    outer loop
      vertex 5.125 -7.875 2.875
      vertex 5.125 -1.5 -5
      vertex 5.125 -7.875 -12.875
    endloop
  endfacet
  facet normal -1 0 0
    outer loop
      vertex 5.125 -1.5 -5
      vertex 5.125 -7.875 2.875
      vertex 5.125 -1.47888 -4.8938
    endloop
  endfacet
  facet normal -1 0 0
    outer loop
      vertex 5.125 -1.47888 -4.8938
      vertex 5.125 -7.875 2.875
      vertex 5.125 -1.38582 -4.42597
    endloop
  endfacet
  facet normal -1 0 0
    outer loop
      vertex 5.125 0 -3.5
      vertex 5.125 -7.875 2.875
      vertex 5.125 7.875 2.875
    endloop
  endfacet
  facet normal -1 0 0
    outer loop
      vertex 5.125 -1.38582 -4.42597
      vertex 5.125 -7.875 2.875
      vertex 5.125 -1.06066 -3.93934
    endloop
  endfacet
  facet normal 0 -0.195092 0.980785
    outer loop
      vertex -8.125 0.574024 -6.38582
      vertex -5.125 0.106196 -6.47888
      vertex -5.125 0.574024 -6.38582
    endloop
  endfacet
  facet normal -7.19349e-09 -0.195092 0.980785
    outer loop
      vertex -5.125 0.106196 -6.47888
      vertex -8.125 0.574024 -6.38582
      vertex -8.125 0.000352786 -6.49993
    endloop
  endfacet
  facet normal 0 -0.194873 0.980828
    outer loop
      vertex 5.125 0.574024 -6.38582
      vertex 8.125 0.573671 -6.38589
      vertex 8.125 0.574024 -6.38582
    endloop
  endfacet
  facet normal -2.67025e-08 -0.195092 0.980785
    outer loop
      vertex 8.125 0.573671 -6.38589
      vertex 5.125 0.574024 -6.38582
      vertex 5.125 0.467828 -6.40694
    endloop
  endfacet
  facet normal -2.57921e-08 -0.195092 0.980785
    outer loop
      vertex -8.125 0.000352786 -6.49993
      vertex -5.125 0 -6.5
      vertex -5.125 0.106196 -6.47888
    endloop
  endfacet
  facet normal 0 -0.194881 0.980827
    outer loop
      vertex -5.125 0 -6.5
      vertex -8.125 0.000352786 -6.49993
      vertex -8.125 0 -6.5
    endloop
  endfacet
  facet normal -6.54605e-08 -0.195091 0.980785
    outer loop
      vertex 5.125 0.467828 -6.40694
      vertex 8.125 0 -6.5
      vertex 8.125 0.573671 -6.38589
    endloop
  endfacet
  facet normal 0 -0.19509 0.980785
    outer loop
      vertex 8.125 0 -6.5
      vertex 5.125 0.467828 -6.40694
      vertex 5.125 0 -6.5
    endloop
  endfacet
  facet normal 0 0.194873 -0.980828
    outer loop
      vertex -8.125 -0.573671 -3.61411
      vertex -5.125 -0.574024 -3.61418
      vertex -8.125 -0.574024 -3.61418
    endloop
  endfacet
  facet normal 2.67025e-08 0.195092 -0.980785
    outer loop
      vertex -5.125 -0.574024 -3.61418
      vertex -8.125 -0.573671 -3.61411
      vertex -5.125 -0.467828 -3.59306
    endloop
  endfacet
  facet normal 0 0.195092 -0.980785
    outer loop
      vertex 5.125 -0.106196 -3.52112
      vertex 8.125 -0.574024 -3.61418
      vertex 5.125 -0.574024 -3.61418
    endloop
  endfacet
  facet normal 7.19349e-09 0.195092 -0.980785
    outer loop
      vertex 8.125 -0.574024 -3.61418
      vertex 5.125 -0.106196 -3.52112
      vertex 8.125 -0.000352786 -3.50007
    endloop
  endfacet
  facet normal 0 -0.55557 0.83147
    outer loop
      vertex -8.125 1.06066 -6.06066
      vertex -5.125 0.574024 -6.38582
      vertex -5.125 1.06066 -6.06066
    endloop
  endfacet
  facet normal 0 -0.55557 0.83147
    outer loop
      vertex -5.125 0.574024 -6.38582
      vertex -8.125 1.06066 -6.06066
      vertex -8.125 0.574024 -6.38582
    endloop
  endfacet
  facet normal 0 -0.55557 0.83147
    outer loop
      vertex 5.125 1.06066 -6.06066
      vertex 8.125 0.574024 -6.38582
      vertex 8.125 1.06066 -6.06066
    endloop
  endfacet
  facet normal 0 -0.55557 0.83147
    outer loop
      vertex 8.125 0.574024 -6.38582
      vertex 5.125 1.06066 -6.06066
      vertex 5.125 0.574024 -6.38582
    endloop
  endfacet
  facet normal -0 0.55557 0.83147
    outer loop
      vertex -8.125 -0.574024 -6.38582
      vertex -5.125 -1.06066 -6.06066
      vertex -5.125 -0.574024 -6.38582
    endloop
  endfacet
  facet normal 0 0.55557 0.83147
    outer loop
      vertex -5.125 -1.06066 -6.06066
      vertex -8.125 -0.574024 -6.38582
      vertex -8.125 -1.06066 -6.06066
    endloop
  endfacet
  facet normal -0 0.55557 0.83147
    outer loop
      vertex 5.125 -0.574024 -6.38582
      vertex 8.125 -1.06066 -6.06066
      vertex 8.125 -0.574024 -6.38582
    endloop
  endfacet
  facet normal 0 0.55557 0.83147
    outer loop
      vertex 8.125 -1.06066 -6.06066
      vertex 5.125 -0.574024 -6.38582
      vertex 5.125 -1.06066 -6.06066
    endloop
  endfacet
  facet normal 0 0.980785 -0.195092
    outer loop
      vertex -8.125 -1.5 -5
      vertex -5.125 -1.40694 -4.53217
      vertex -5.125 -1.5 -5
    endloop
  endfacet
  facet normal -2.08714e-08 0.980785 -0.195092
    outer loop
      vertex -5.125 -1.40694 -4.53217
      vertex -8.125 -1.5 -5
      vertex -8.125 -1.38589 -4.42633
    endloop
  endfacet
  facet normal 0 0.980771 -0.19516
    outer loop
      vertex 5.125 -1.5 -5
      vertex 8.125 -1.49993 -4.99965
      vertex 8.125 -1.5 -5
    endloop
  endfacet
  facet normal -8.43296e-09 0.980785 -0.195091
    outer loop
      vertex 8.125 -1.49993 -4.99965
      vertex 5.125 -1.5 -5
      vertex 5.125 -1.47888 -4.8938
    endloop
  endfacet
  facet normal -2.08714e-08 -0.980785 -0.195092
    outer loop
      vertex -8.125 1.5 -5
      vertex -5.125 1.40694 -4.53217
      vertex -8.125 1.38589 -4.42633
    endloop
  endfacet
  facet normal 0 -0.980785 -0.195092
    outer loop
      vertex -5.125 1.40694 -4.53217
      vertex -8.125 1.5 -5
      vertex -5.125 1.5 -5
    endloop
  endfacet
  facet normal -8.43296e-09 -0.980785 -0.195091
    outer loop
      vertex 5.125 1.5 -5
      vertex 8.125 1.49993 -4.99965
      vertex 5.125 1.47888 -4.8938
    endloop
  endfacet
  facet normal 0 -0.980771 -0.19516
    outer loop
      vertex 8.125 1.49993 -4.99965
      vertex 5.125 1.5 -5
      vertex 8.125 1.5 -5
    endloop
  endfacet
  facet normal 0 -0.55557 -0.83147
    outer loop
      vertex -8.125 0.574024 -3.61418
      vertex -5.125 1.06066 -3.93934
      vertex -5.125 0.574024 -3.61418
    endloop
  endfacet
  facet normal -0 -0.55557 -0.83147
    outer loop
      vertex -5.125 1.06066 -3.93934
      vertex -8.125 0.574024 -3.61418
      vertex -8.125 1.06066 -3.93934
    endloop
  endfacet
  facet normal 0 -0.55557 -0.83147
    outer loop
      vertex 5.125 0.574024 -3.61418
      vertex 8.125 1.06066 -3.93934
      vertex 8.125 0.574024 -3.61418
    endloop
  endfacet
  facet normal -0 -0.55557 -0.83147
    outer loop
      vertex 8.125 1.06066 -3.93934
      vertex 5.125 0.574024 -3.61418
      vertex 5.125 1.06066 -3.93934
    endloop
  endfacet
  facet normal -7.19349e-09 0.195092 0.980785
    outer loop
      vertex -8.125 -0.574024 -6.38582
      vertex -5.125 -0.106196 -6.47888
      vertex -8.125 -0.000352786 -6.49993
    endloop
  endfacet
  facet normal 0 0.195092 0.980785
    outer loop
      vertex -5.125 -0.106196 -6.47888
      vertex -8.125 -0.574024 -6.38582
      vertex -5.125 -0.574024 -6.38582
    endloop
  endfacet
  facet normal -2.67025e-08 0.195092 0.980785
    outer loop
      vertex 5.125 -0.574024 -6.38582
      vertex 8.125 -0.573671 -6.38589
      vertex 5.125 -0.467828 -6.40694
    endloop
  endfacet
  facet normal 0 0.194873 0.980828
    outer loop
      vertex 8.125 -0.573671 -6.38589
      vertex 5.125 -0.574024 -6.38582
      vertex 8.125 -0.574024 -6.38582
    endloop
  endfacet
  facet normal 0 0.194881 0.980827
    outer loop
      vertex -8.125 -0.000352786 -6.49993
      vertex -5.125 0 -6.5
      vertex -8.125 0 -6.5
    endloop
  endfacet
  facet normal -2.57921e-08 0.195092 0.980785
    outer loop
      vertex -5.125 0 -6.5
      vertex -8.125 -0.000352786 -6.49993
      vertex -5.125 -0.106196 -6.47888
    endloop
  endfacet
  facet normal 0 0.19509 0.980785
    outer loop
      vertex 5.125 -0.467828 -6.40694
      vertex 8.125 0 -6.5
      vertex 5.125 0 -6.5
    endloop
  endfacet
  facet normal -6.54605e-08 0.195091 0.980785
    outer loop
      vertex 8.125 0 -6.5
      vertex 5.125 -0.467828 -6.40694
      vertex 8.125 -0.573671 -6.38589
    endloop
  endfacet
  facet normal 7.79458e-08 -0.195091 -0.980785
    outer loop
      vertex -8.125 0 -3.5
      vertex -5.125 0.467828 -3.59306
      vertex -5.125 0 -3.5
    endloop
  endfacet
  facet normal 6.54605e-08 -0.195091 -0.980785
    outer loop
      vertex -5.125 0.467828 -3.59306
      vertex -8.125 0 -3.5
      vertex -8.125 0.573671 -3.61411
    endloop
  endfacet
  facet normal 7.79491e-08 -0.194881 -0.980827
    outer loop
      vertex 5.125 0 -3.5
      vertex 8.125 0.000352786 -3.50007
      vertex 8.125 0 -3.5
    endloop
  endfacet
  facet normal 1.03479e-07 -0.195089 -0.980785
    outer loop
      vertex 8.125 0.000352786 -3.50007
      vertex 5.125 0 -3.5
      vertex 5.125 0.106196 -3.52112
    endloop
  endfacet
  facet normal 3.23138e-08 -0.980785 0.195092
    outer loop
      vertex -8.125 1.38582 -5.57402
      vertex -5.125 1.47888 -5.1062
      vertex -8.125 1.49993 -5.00035
    endloop
  endfacet
  facet normal 0 -0.980785 0.195092
    outer loop
      vertex -5.125 1.47888 -5.1062
      vertex -8.125 1.38582 -5.57402
      vertex -5.125 1.38582 -5.57402
    endloop
  endfacet
  facet normal 8.43296e-09 -0.980785 0.195091
    outer loop
      vertex 5.125 1.38582 -5.57402
      vertex 8.125 1.38589 -5.57367
      vertex 5.125 1.40694 -5.46783
    endloop
  endfacet
  facet normal 0 -0.980771 0.19516
    outer loop
      vertex 8.125 1.38589 -5.57367
      vertex 5.125 1.38582 -5.57402
      vertex 8.125 1.38582 -5.57402
    endloop
  endfacet
  facet normal 0 -0.980771 0.19516
    outer loop
      vertex -8.125 1.49993 -5.00035
      vertex -5.125 1.5 -5
      vertex -8.125 1.5 -5
    endloop
  endfacet
  facet normal 8.43296e-09 -0.980785 0.195091
    outer loop
      vertex -5.125 1.5 -5
      vertex -8.125 1.49993 -5.00035
      vertex -5.125 1.47888 -5.1062
    endloop
  endfacet
  facet normal 0 -0.980785 0.195092
    outer loop
      vertex 5.125 1.40694 -5.46783
      vertex 8.125 1.5 -5
      vertex 5.125 1.5 -5
    endloop
  endfacet
  facet normal 2.08714e-08 -0.980785 0.195092
    outer loop
      vertex 8.125 1.5 -5
      vertex 5.125 1.40694 -5.46783
      vertex 8.125 1.38589 -5.57367
    endloop
  endfacet
  facet normal 0 -0.83147 0.55557
    outer loop
      vertex -8.125 1.06066 -6.06066
      vertex -5.125 1.38582 -5.57402
      vertex -8.125 1.38582 -5.57402
    endloop
  endfacet
  facet normal 0 -0.83147 0.55557
    outer loop
      vertex -5.125 1.38582 -5.57402
      vertex -8.125 1.06066 -6.06066
      vertex -5.125 1.06066 -6.06066
    endloop
  endfacet
  facet normal 0 -0.83147 0.55557
    outer loop
      vertex 5.125 1.06066 -6.06066
      vertex 8.125 1.38582 -5.57402
      vertex 5.125 1.38582 -5.57402
    endloop
  endfacet
  facet normal 0 -0.83147 0.55557
    outer loop
      vertex 8.125 1.38582 -5.57402
      vertex 5.125 1.06066 -6.06066
      vertex 8.125 1.06066 -6.06066
    endloop
  endfacet
  facet normal 0 0.980771 -0.19516
    outer loop
      vertex -5.125 -1.38582 -4.42597
      vertex -8.125 -1.38589 -4.42633
      vertex -8.125 -1.38582 -4.42597
    endloop
  endfacet
  facet normal -8.43296e-09 0.980785 -0.195091
    outer loop
      vertex -8.125 -1.38589 -4.42633
      vertex -5.125 -1.38582 -4.42597
      vertex -5.125 -1.40694 -4.53217
    endloop
  endfacet
  facet normal 0 0.980785 -0.195092
    outer loop
      vertex 8.125 -1.38582 -4.42597
      vertex 5.125 -1.47888 -4.8938
      vertex 5.125 -1.38582 -4.42597
    endloop
  endfacet
  facet normal -3.23138e-08 0.980785 -0.195092
    outer loop
      vertex 5.125 -1.47888 -4.8938
      vertex 8.125 -1.38582 -4.42597
      vertex 8.125 -1.49993 -4.99965
    endloop
  endfacet
  facet normal -0 0.980785 0.195092
    outer loop
      vertex -8.125 -1.38582 -5.57402
      vertex -5.125 -1.47888 -5.1062
      vertex -5.125 -1.38582 -5.57402
    endloop
  endfacet
  facet normal 3.23138e-08 0.980785 0.195092
    outer loop
      vertex -5.125 -1.47888 -5.1062
      vertex -8.125 -1.38582 -5.57402
      vertex -8.125 -1.49993 -5.00035
    endloop
  endfacet
  facet normal -0 0.980771 0.19516
    outer loop
      vertex 5.125 -1.38582 -5.57402
      vertex 8.125 -1.38589 -5.57367
      vertex 8.125 -1.38582 -5.57402
    endloop
  endfacet
  facet normal 8.43296e-09 0.980785 0.195091
    outer loop
      vertex 8.125 -1.38589 -5.57367
      vertex 5.125 -1.38582 -5.57402
      vertex 5.125 -1.40694 -5.46783
    endloop
  endfacet
  facet normal 0 0.83147 0.55557
    outer loop
      vertex -5.125 -1.06066 -6.06066
      vertex -8.125 -1.38582 -5.57402
      vertex -5.125 -1.38582 -5.57402
    endloop
  endfacet
  facet normal 0 0.83147 0.55557
    outer loop
      vertex -8.125 -1.38582 -5.57402
      vertex -5.125 -1.06066 -6.06066
      vertex -8.125 -1.06066 -6.06066
    endloop
  endfacet
  facet normal 0 0.83147 0.55557
    outer loop
      vertex 8.125 -1.06066 -6.06066
      vertex 5.125 -1.38582 -5.57402
      vertex 8.125 -1.38582 -5.57402
    endloop
  endfacet
  facet normal 0 0.83147 0.55557
    outer loop
      vertex 5.125 -1.38582 -5.57402
      vertex 8.125 -1.06066 -6.06066
      vertex 5.125 -1.06066 -6.06066
    endloop
  endfacet
  facet normal 2.67025e-08 -0.195092 -0.980785
    outer loop
      vertex -8.125 0.573671 -3.61411
      vertex -5.125 0.574024 -3.61418
      vertex -5.125 0.467828 -3.59306
    endloop
  endfacet
  facet normal -0 -0.194873 -0.980828
    outer loop
      vertex -5.125 0.574024 -3.61418
      vertex -8.125 0.573671 -3.61411
      vertex -8.125 0.574024 -3.61418
    endloop
  endfacet
  facet normal 7.19349e-09 -0.195092 -0.980785
    outer loop
      vertex 5.125 0.106196 -3.52112
      vertex 8.125 0.574024 -3.61418
      vertex 8.125 0.000352786 -3.50007
    endloop
  endfacet
  facet normal -0 -0.195092 -0.980785
    outer loop
      vertex 8.125 0.574024 -3.61418
      vertex 5.125 0.106196 -3.52112
      vertex 5.125 0.574024 -3.61418
    endloop
  endfacet
  facet normal 6.54605e-08 0.195091 -0.980785
    outer loop
      vertex -8.125 0 -3.5
      vertex -5.125 -0.467828 -3.59306
      vertex -8.125 -0.573671 -3.61411
    endloop
  endfacet
  facet normal 7.79458e-08 0.195091 -0.980785
    outer loop
      vertex -5.125 -0.467828 -3.59306
      vertex -8.125 0 -3.5
      vertex -5.125 0 -3.5
    endloop
  endfacet
  facet normal 1.03479e-07 0.195089 -0.980785
    outer loop
      vertex 5.125 0 -3.5
      vertex 8.125 -0.000352786 -3.50007
      vertex 5.125 -0.106196 -3.52112
    endloop
  endfacet
  facet normal 7.79491e-08 0.194881 -0.980827
    outer loop
      vertex 8.125 -0.000352786 -3.50007
      vertex 5.125 0 -3.5
      vertex 8.125 0 -3.5
    endloop
  endfacet
  facet normal 0 -0.83147 -0.55557
    outer loop
      vertex -8.125 1.38582 -4.42597
      vertex -5.125 1.06066 -3.93934
      vertex -8.125 1.06066 -3.93934
    endloop
  endfacet
  facet normal 0 -0.83147 -0.55557
    outer loop
      vertex -5.125 1.06066 -3.93934
      vertex -8.125 1.38582 -4.42597
      vertex -5.125 1.38582 -4.42597
    endloop
  endfacet
  facet normal 0 -0.83147 -0.55557
    outer loop
      vertex 5.125 1.38582 -4.42597
      vertex 8.125 1.06066 -3.93934
      vertex 5.125 1.06066 -3.93934
    endloop
  endfacet
  facet normal 0 -0.83147 -0.55557
    outer loop
      vertex 8.125 1.06066 -3.93934
      vertex 5.125 1.38582 -4.42597
      vertex 8.125 1.38582 -4.42597
    endloop
  endfacet
  facet normal 0 -0.980771 -0.19516
    outer loop
      vertex -8.125 1.38589 -4.42633
      vertex -5.125 1.38582 -4.42597
      vertex -8.125 1.38582 -4.42597
    endloop
  endfacet
  facet normal -8.43296e-09 -0.980785 -0.195091
    outer loop
      vertex -5.125 1.38582 -4.42597
      vertex -8.125 1.38589 -4.42633
      vertex -5.125 1.40694 -4.53217
    endloop
  endfacet
  facet normal 0 -0.980785 -0.195092
    outer loop
      vertex 5.125 1.47888 -4.8938
      vertex 8.125 1.38582 -4.42597
      vertex 5.125 1.38582 -4.42597
    endloop
  endfacet
  facet normal -3.23138e-08 -0.980785 -0.195092
    outer loop
      vertex 8.125 1.38582 -4.42597
      vertex 5.125 1.47888 -4.8938
      vertex 8.125 1.49993 -4.99965
    endloop
  endfacet
  facet normal 0 0.55557 -0.83147
    outer loop
      vertex -8.125 -1.06066 -3.93934
      vertex -5.125 -0.574024 -3.61418
      vertex -5.125 -1.06066 -3.93934
    endloop
  endfacet
  facet normal 0 0.55557 -0.83147
    outer loop
      vertex -5.125 -0.574024 -3.61418
      vertex -8.125 -1.06066 -3.93934
      vertex -8.125 -0.574024 -3.61418
    endloop
  endfacet
  facet normal 0 0.55557 -0.83147
    outer loop
      vertex 5.125 -1.06066 -3.93934
      vertex 8.125 -0.574024 -3.61418
      vertex 8.125 -1.06066 -3.93934
    endloop
  endfacet
  facet normal 0 0.55557 -0.83147
    outer loop
      vertex 8.125 -0.574024 -3.61418
      vertex 5.125 -1.06066 -3.93934
      vertex 5.125 -0.574024 -3.61418
    endloop
  endfacet
  facet normal 0 0.980771 0.19516
    outer loop
      vertex -5.125 -1.5 -5
      vertex -8.125 -1.49993 -5.00035
      vertex -8.125 -1.5 -5
    endloop
  endfacet
  facet normal 8.43296e-09 0.980785 0.195091
    outer loop
      vertex -8.125 -1.49993 -5.00035
      vertex -5.125 -1.5 -5
      vertex -5.125 -1.47888 -5.1062
    endloop
  endfacet
  facet normal 0 0.980785 0.195092
    outer loop
      vertex 8.125 -1.5 -5
      vertex 5.125 -1.40694 -5.46783
      vertex 5.125 -1.5 -5
    endloop
  endfacet
  facet normal 2.08714e-08 0.980785 0.195092
    outer loop
      vertex 5.125 -1.40694 -5.46783
      vertex 8.125 -1.5 -5
      vertex 8.125 -1.38589 -5.57367
    endloop
  endfacet
  facet normal 0 0.83147 -0.55557
    outer loop
      vertex -5.125 -1.38582 -4.42597
      vertex -8.125 -1.06066 -3.93934
      vertex -5.125 -1.06066 -3.93934
    endloop
  endfacet
  facet normal 0 0.83147 -0.55557
    outer loop
      vertex -8.125 -1.06066 -3.93934
      vertex -5.125 -1.38582 -4.42597
      vertex -8.125 -1.38582 -4.42597
    endloop
  endfacet
  facet normal 0 0.83147 -0.55557
    outer loop
      vertex 8.125 -1.38582 -4.42597
      vertex 5.125 -1.06066 -3.93934
      vertex 8.125 -1.06066 -3.93934
    endloop
  endfacet
  facet normal 0 0.83147 -0.55557
    outer loop
      vertex 5.125 -1.06066 -3.93934
      vertex 8.125 -1.38582 -4.42597
      vertex 5.125 -1.38582 -4.42597
    endloop
  endfacet
  facet normal -1 0 0
    outer loop
      vertex 5.125 -7.875 4.875
      vertex 5.125 7.875 23.875
      vertex 5.125 7.875 4.875
    endloop
  endfacet
  facet normal -1 -0 0
    outer loop
      vertex 5.125 7.875 23.875
      vertex 5.125 -7.875 4.875
      vertex 5.125 -7.875 23.875
    endloop
  endfacet
  facet normal 0 0 -1
    outer loop
      vertex 5.125 -7.875 23.875
      vertex 4.04145 0 23.875
      vertex 5.125 7.875 23.875
    endloop
  endfacet
  facet normal 0 0 -1
    outer loop
      vertex 5.125 -7.875 23.875
      vertex 2.02073 -3.5 23.875
      vertex 4.04145 0 23.875
    endloop
  endfacet
  facet normal 0 0 -1
    outer loop
      vertex 5.125 -7.875 23.875
      vertex -2.02073 -3.5 23.875
      vertex 2.02073 -3.5 23.875
    endloop
  endfacet
  facet normal -0 0 -1
    outer loop
      vertex -2.02073 -3.5 23.875
      vertex -5.125 -7.875 23.875
      vertex -4.04145 0 23.875
    endloop
  endfacet
  facet normal 0 0 -1
    outer loop
      vertex -5.125 -7.875 23.875
      vertex -2.02073 -3.5 23.875
      vertex 5.125 -7.875 23.875
    endloop
  endfacet
  facet normal 0 0 -1
    outer loop
      vertex 2.02073 3.5 23.875
      vertex 5.125 7.875 23.875
      vertex 4.04145 0 23.875
    endloop
  endfacet
  facet normal 0 0 -1
    outer loop
      vertex -2.02073 3.5 23.875
      vertex 5.125 7.875 23.875
      vertex 2.02073 3.5 23.875
    endloop
  endfacet
  facet normal 0 0 -1
    outer loop
      vertex -2.02073 3.5 23.875
      vertex -5.125 7.875 23.875
      vertex 5.125 7.875 23.875
    endloop
  endfacet
  facet normal 0 0 -1
    outer loop
      vertex -4.04145 0 23.875
      vertex -5.125 7.875 23.875
      vertex -2.02073 3.5 23.875
    endloop
  endfacet
  facet normal 0 0 -1
    outer loop
      vertex -5.125 7.875 23.875
      vertex -4.04145 0 23.875
      vertex -5.125 -7.875 23.875
    endloop
  endfacet
  facet normal 1 -0 0
    outer loop
      vertex -5.125 -7.875 23.875
      vertex -5.125 7.875 4.875
      vertex -5.125 7.875 23.875
    endloop
  endfacet
  facet normal 1 0 0
    outer loop
      vertex -5.125 7.875 4.875
      vertex -5.125 -7.875 23.875
      vertex -5.125 -7.875 4.875
    endloop
  endfacet
  facet normal 0 0 1
    outer loop
      vertex 8.125 7.875 26.875
      vertex 2 0 26.875
      vertex 8.125 -7.875 26.875
    endloop
  endfacet
  facet normal 0 0 1
    outer loop
      vertex 8.125 7.875 26.875
      vertex 1.84776 0.765367 26.875
      vertex 2 0 26.875
    endloop
  endfacet
  facet normal 0 0 1
    outer loop
      vertex 8.125 7.875 26.875
      vertex 1.41421 1.41421 26.875
      vertex 1.84776 0.765367 26.875
    endloop
  endfacet
  facet normal 0 0 1
    outer loop
      vertex 8.125 7.875 26.875
      vertex 0.765367 1.84776 26.875
      vertex 1.41421 1.41421 26.875
    endloop
  endfacet
  facet normal 0 0 1
    outer loop
      vertex 8.125 7.875 26.875
      vertex 0 2 26.875
      vertex 0.765367 1.84776 26.875
    endloop
  endfacet
  facet normal -0 0 1
    outer loop
      vertex -8.125 7.875 26.875
      vertex 0 2 26.875
      vertex 8.125 7.875 26.875
    endloop
  endfacet
  facet normal 0 0 1
    outer loop
      vertex 0 2 26.875
      vertex -8.125 7.875 26.875
      vertex -0.765367 1.84776 26.875
    endloop
  endfacet
  facet normal 0 0 1
    outer loop
      vertex -1.84776 0.765367 26.875
      vertex -8.125 7.875 26.875
      vertex -2 0 26.875
    endloop
  endfacet
  facet normal 0 0 1
    outer loop
      vertex -1.41421 1.41421 26.875
      vertex -8.125 7.875 26.875
      vertex -1.84776 0.765367 26.875
    endloop
  endfacet
  facet normal 0 0 1
    outer loop
      vertex -0.765367 1.84776 26.875
      vertex -8.125 7.875 26.875
      vertex -1.41421 1.41421 26.875
    endloop
  endfacet
  facet normal -0 0 1
    outer loop
      vertex 1.84776 -0.765367 26.875
      vertex 8.125 -7.875 26.875
      vertex 2 0 26.875
    endloop
  endfacet
  facet normal -0 0 1
    outer loop
      vertex 1.41421 -1.41421 26.875
      vertex 8.125 -7.875 26.875
      vertex 1.84776 -0.765367 26.875
    endloop
  endfacet
  facet normal -0 0 1
    outer loop
      vertex 0.765367 -1.84776 26.875
      vertex 8.125 -7.875 26.875
      vertex 1.41421 -1.41421 26.875
    endloop
  endfacet
  facet normal -0 0 1
    outer loop
      vertex 0 -2 26.875
      vertex 8.125 -7.875 26.875
      vertex 0.765367 -1.84776 26.875
    endloop
  endfacet
  facet normal 0 0 1
    outer loop
      vertex -8.125 -7.875 26.875
      vertex 0 -2 26.875
      vertex -0.765367 -1.84776 26.875
    endloop
  endfacet
  facet normal 0 0 1
    outer loop
      vertex -8.125 -7.875 26.875
      vertex -0.765367 -1.84776 26.875
      vertex -1.41421 -1.41421 26.875
    endloop
  endfacet
  facet normal 0 0 1
    outer loop
      vertex -8.125 -7.875 26.875
      vertex -2 0 26.875
      vertex -8.125 7.875 26.875
    endloop
  endfacet
  facet normal 0 0 1
    outer loop
      vertex -2 0 26.875
      vertex -8.125 -7.875 26.875
      vertex -1.84776 -0.765367 26.875
    endloop
  endfacet
  facet normal 0 0 1
    outer loop
      vertex 0 -2 26.875
      vertex -8.125 -7.875 26.875
      vertex 8.125 -7.875 26.875
    endloop
  endfacet
  facet normal 0 0 1
    outer loop
      vertex -1.84776 -0.765367 26.875
      vertex -8.125 -7.875 26.875
      vertex -1.41421 -1.41421 26.875
    endloop
  endfacet
  facet normal -0.980785 -0.195091 0
    outer loop
      vertex 2 0 24.875
      vertex 1.84776 0.765367 26.875
      vertex 1.84776 0.765367 24.875
    endloop
  endfacet
  facet normal -0.980785 -0.195091 0
    outer loop
      vertex 1.84776 0.765367 26.875
      vertex 2 0 24.875
      vertex 2 0 26.875
    endloop
  endfacet
  facet normal 0.980785 -0.195091 0
    outer loop
      vertex -2 0 26.875
      vertex -1.84776 0.765367 24.875
      vertex -1.84776 0.765367 26.875
    endloop
  endfacet
  facet normal 0.980785 -0.195091 0
    outer loop
      vertex -1.84776 0.765367 24.875
      vertex -2 0 26.875
      vertex -2 0 24.875
    endloop
  endfacet
  facet normal -0.195091 -0.980785 0
    outer loop
      vertex 0 2 24.875
      vertex 0.765367 1.84776 26.875
      vertex 0 2 26.875
    endloop
  endfacet
  facet normal -0.195091 -0.980785 -0
    outer loop
      vertex 0.765367 1.84776 26.875
      vertex 0 2 24.875
      vertex 0.765367 1.84776 24.875
    endloop
  endfacet
  facet normal -0.83147 -0.55557 0
    outer loop
      vertex 1.84776 0.765367 24.875
      vertex 1.41421 1.41421 26.875
      vertex 1.41421 1.41421 24.875
    endloop
  endfacet
  facet normal -0.83147 -0.55557 0
    outer loop
      vertex 1.41421 1.41421 26.875
      vertex 1.84776 0.765367 24.875
      vertex 1.84776 0.765367 26.875
    endloop
  endfacet
  facet normal -0.195091 0.980785 0
    outer loop
      vertex 0.765367 -1.84776 24.875
      vertex 0 -2 26.875
      vertex 0.765367 -1.84776 26.875
    endloop
  endfacet
  facet normal -0.195091 0.980785 0
    outer loop
      vertex 0 -2 26.875
      vertex 0.765367 -1.84776 24.875
      vertex 0 -2 24.875
    endloop
  endfacet
  facet normal 0.195091 0.980785 -0
    outer loop
      vertex 0 -2 24.875
      vertex -0.765367 -1.84776 26.875
      vertex 0 -2 26.875
    endloop
  endfacet
  facet normal 0.195091 0.980785 0
    outer loop
      vertex -0.765367 -1.84776 26.875
      vertex 0 -2 24.875
      vertex -0.765367 -1.84776 24.875
    endloop
  endfacet
  facet normal 0.195091 -0.980785 0
    outer loop
      vertex -0.765367 1.84776 24.875
      vertex 0 2 26.875
      vertex -0.765367 1.84776 26.875
    endloop
  endfacet
  facet normal 0.195091 -0.980785 0
    outer loop
      vertex 0 2 26.875
      vertex -0.765367 1.84776 24.875
      vertex 0 2 24.875
    endloop
  endfacet
  facet normal 0.55557 -0.83147 0
    outer loop
      vertex -1.41421 1.41421 24.875
      vertex -0.765367 1.84776 26.875
      vertex -1.41421 1.41421 26.875
    endloop
  endfacet
  facet normal 0.55557 -0.83147 0
    outer loop
      vertex -0.765367 1.84776 26.875
      vertex -1.41421 1.41421 24.875
      vertex -0.765367 1.84776 24.875
    endloop
  endfacet
  facet normal 0.980785 0.195091 0
    outer loop
      vertex -1.84776 -0.765367 26.875
      vertex -2 0 24.875
      vertex -2 0 26.875
    endloop
  endfacet
  facet normal 0.980785 0.195091 0
    outer loop
      vertex -2 0 24.875
      vertex -1.84776 -0.765367 26.875
      vertex -1.84776 -0.765367 24.875
    endloop
  endfacet
  facet normal 0.55557 0.83147 -0
    outer loop
      vertex -0.765367 -1.84776 24.875
      vertex -1.41421 -1.41421 26.875
      vertex -0.765367 -1.84776 26.875
    endloop
  endfacet
  facet normal 0.55557 0.83147 0
    outer loop
      vertex -1.41421 -1.41421 26.875
      vertex -0.765367 -1.84776 24.875
      vertex -1.41421 -1.41421 24.875
    endloop
  endfacet
  facet normal 0.83147 0.55557 0
    outer loop
      vertex -1.41421 -1.41421 26.875
      vertex -1.84776 -0.765367 24.875
      vertex -1.84776 -0.765367 26.875
    endloop
  endfacet
  facet normal 0.83147 0.55557 0
    outer loop
      vertex -1.84776 -0.765367 24.875
      vertex -1.41421 -1.41421 26.875
      vertex -1.41421 -1.41421 24.875
    endloop
  endfacet
  facet normal -0.55557 -0.83147 0
    outer loop
      vertex 0.765367 1.84776 24.875
      vertex 1.41421 1.41421 26.875
      vertex 0.765367 1.84776 26.875
    endloop
  endfacet
  facet normal -0.55557 -0.83147 -0
    outer loop
      vertex 1.41421 1.41421 26.875
      vertex 0.765367 1.84776 24.875
      vertex 1.41421 1.41421 24.875
    endloop
  endfacet
  facet normal 0.83147 -0.55557 0
    outer loop
      vertex -1.84776 0.765367 26.875
      vertex -1.41421 1.41421 24.875
      vertex -1.41421 1.41421 26.875
    endloop
  endfacet
  facet normal 0.83147 -0.55557 0
    outer loop
      vertex -1.41421 1.41421 24.875
      vertex -1.84776 0.765367 26.875
      vertex -1.84776 0.765367 24.875
    endloop
  endfacet
  facet normal -0.83147 0.55557 0
    outer loop
      vertex 1.41421 -1.41421 24.875
      vertex 1.84776 -0.765367 26.875
      vertex 1.84776 -0.765367 24.875
    endloop
  endfacet
  facet normal -0.83147 0.55557 0
    outer loop
      vertex 1.84776 -0.765367 26.875
      vertex 1.41421 -1.41421 24.875
      vertex 1.41421 -1.41421 26.875
    endloop
  endfacet
  facet normal -0.55557 0.83147 0
    outer loop
      vertex 1.41421 -1.41421 24.875
      vertex 0.765367 -1.84776 26.875
      vertex 1.41421 -1.41421 26.875
    endloop
  endfacet
  facet normal -0.55557 0.83147 0
    outer loop
      vertex 0.765367 -1.84776 26.875
      vertex 1.41421 -1.41421 24.875
      vertex 0.765367 -1.84776 24.875
    endloop
  endfacet
  facet normal -0.980785 0.195091 0
    outer loop
      vertex 1.84776 -0.765367 24.875
      vertex 2 0 26.875
      vertex 2 0 24.875
    endloop
  endfacet
  facet normal -0.980785 0.195091 0
    outer loop
      vertex 2 0 26.875
      vertex 1.84776 -0.765367 24.875
      vertex 1.84776 -0.765367 26.875
    endloop
  endfacet
  facet normal -0.866026 -0.499999 0
    outer loop
      vertex 4.04145 0 23.875
      vertex 2.02073 3.5 24.875
      vertex 2.02073 3.5 23.875
    endloop
  endfacet
  facet normal -0.866026 -0.499999 0
    outer loop
      vertex 2.02073 3.5 24.875
      vertex 4.04145 0 23.875
      vertex 4.04145 0 24.875
    endloop
  endfacet
  facet normal 0.866026 -0.499999 0
    outer loop
      vertex -4.04145 0 24.875
      vertex -2.02073 3.5 23.875
      vertex -2.02073 3.5 24.875
    endloop
  endfacet
  facet normal 0.866026 -0.499999 0
    outer loop
      vertex -2.02073 3.5 23.875
      vertex -4.04145 0 24.875
      vertex -4.04145 0 23.875
    endloop
  endfacet
  facet normal 0 -1 0
    outer loop
      vertex -2.02073 3.5 23.875
      vertex 2.02073 3.5 24.875
      vertex -2.02073 3.5 24.875
    endloop
  endfacet
  facet normal 0 -1 -0
    outer loop
      vertex 2.02073 3.5 24.875
      vertex -2.02073 3.5 23.875
      vertex 2.02073 3.5 23.875
    endloop
  endfacet
  facet normal 0 0 -1
    outer loop
      vertex 1.84776 -0.765367 24.875
      vertex 4.04145 0 24.875
      vertex 2.02073 -3.5 24.875
    endloop
  endfacet
  facet normal 0 0 -1
    outer loop
      vertex 1.84776 0.765367 24.875
      vertex 4.04145 0 24.875
      vertex 2 0 24.875
    endloop
  endfacet
  facet normal -0 0 -1
    outer loop
      vertex 4.04145 0 24.875
      vertex 1.84776 -0.765367 24.875
      vertex 2 0 24.875
    endloop
  endfacet
  facet normal 0 0 -1
    outer loop
      vertex 2.02073 -3.5 24.875
      vertex 1.41421 -1.41421 24.875
      vertex 1.84776 -0.765367 24.875
    endloop
  endfacet
  facet normal 0 0 -1
    outer loop
      vertex 2.02073 -3.5 24.875
      vertex 0.765367 -1.84776 24.875
      vertex 1.41421 -1.41421 24.875
    endloop
  endfacet
  facet normal 0 0 -1
    outer loop
      vertex 2.02073 -3.5 24.875
      vertex 0 -2 24.875
      vertex 0.765367 -1.84776 24.875
    endloop
  endfacet
  facet normal 0 0 -1
    outer loop
      vertex -2.02073 -3.5 24.875
      vertex 0 -2 24.875
      vertex 2.02073 -3.5 24.875
    endloop
  endfacet
  facet normal 0 0 -1
    outer loop
      vertex -4.04145 0 24.875
      vertex -1.84776 -0.765367 24.875
      vertex -2.02073 -3.5 24.875
    endloop
  endfacet
  facet normal -0 0 -1
    outer loop
      vertex -1.41421 -1.41421 24.875
      vertex -2.02073 -3.5 24.875
      vertex -1.84776 -0.765367 24.875
    endloop
  endfacet
  facet normal -0 0 -1
    outer loop
      vertex -0.765367 -1.84776 24.875
      vertex -2.02073 -3.5 24.875
      vertex -1.41421 -1.41421 24.875
    endloop
  endfacet
  facet normal -0 0 -1
    outer loop
      vertex 0 -2 24.875
      vertex -2.02073 -3.5 24.875
      vertex -0.765367 -1.84776 24.875
    endloop
  endfacet
  facet normal 0 0 -1
    outer loop
      vertex 4.04145 0 24.875
      vertex 1.84776 0.765367 24.875
      vertex 2.02073 3.5 24.875
    endloop
  endfacet
  facet normal 0 0 -1
    outer loop
      vertex 1.41421 1.41421 24.875
      vertex 2.02073 3.5 24.875
      vertex 1.84776 0.765367 24.875
    endloop
  endfacet
  facet normal 0 0 -1
    outer loop
      vertex 0.765367 1.84776 24.875
      vertex 2.02073 3.5 24.875
      vertex 1.41421 1.41421 24.875
    endloop
  endfacet
  facet normal 0 0 -1
    outer loop
      vertex 0 2 24.875
      vertex 2.02073 3.5 24.875
      vertex 0.765367 1.84776 24.875
    endloop
  endfacet
  facet normal 0 0 -1
    outer loop
      vertex -2.02073 3.5 24.875
      vertex 0 2 24.875
      vertex -0.765367 1.84776 24.875
    endloop
  endfacet
  facet normal 0 0 -1
    outer loop
      vertex 0 2 24.875
      vertex -2.02073 3.5 24.875
      vertex 2.02073 3.5 24.875
    endloop
  endfacet
  facet normal 0 0 -1
    outer loop
      vertex -1.41421 1.41421 24.875
      vertex -2.02073 3.5 24.875
      vertex -0.765367 1.84776 24.875
    endloop
  endfacet
  facet normal 0 0 -1
    outer loop
      vertex -1.84776 0.765367 24.875
      vertex -2.02073 3.5 24.875
      vertex -1.41421 1.41421 24.875
    endloop
  endfacet
  facet normal 0 0 -1
    outer loop
      vertex -4.04145 0 24.875
      vertex -1.84776 0.765367 24.875
      vertex -2 0 24.875
    endloop
  endfacet
  facet normal 0 0 -1
    outer loop
      vertex -1.84776 -0.765367 24.875
      vertex -4.04145 0 24.875
      vertex -2 0 24.875
    endloop
  endfacet
  facet normal -0 0 -1
    outer loop
      vertex -1.84776 0.765367 24.875
      vertex -4.04145 0 24.875
      vertex -2.02073 3.5 24.875
    endloop
  endfacet
  facet normal -0.866026 0.499999 0
    outer loop
      vertex 2.02073 -3.5 23.875
      vertex 4.04145 0 24.875
      vertex 4.04145 0 23.875
    endloop
  endfacet
  facet normal -0.866026 0.499999 0
    outer loop
      vertex 4.04145 0 24.875
      vertex 2.02073 -3.5 23.875
      vertex 2.02073 -3.5 24.875
    endloop
  endfacet
  facet normal 0.866026 0.499999 0
    outer loop
      vertex -2.02073 -3.5 24.875
      vertex -4.04145 0 23.875
      vertex -4.04145 0 24.875
    endloop
  endfacet
  facet normal 0.866026 0.499999 0
    outer loop
      vertex -4.04145 0 23.875
      vertex -2.02073 -3.5 24.875
      vertex -2.02073 -3.5 23.875
    endloop
  endfacet
  facet normal 0 1 -0
    outer loop
      vertex 2.02073 -3.5 23.875
      vertex -2.02073 -3.5 24.875
      vertex 2.02073 -3.5 24.875
    endloop
  endfacet
  facet normal 0 1 0
    outer loop
      vertex -2.02073 -3.5 24.875
      vertex 2.02073 -3.5 23.875
      vertex -2.02073 -3.5 23.875
    endloop
  endfacet
endsolid OpenSCAD_Model
