solid OpenSCAD_Model
  facet normal -1 0 0
    outer loop
      vertex -7.75 1.38589 -4.42634
      vertex -7.75 7.875 -12.875
      vertex -7.75 1.5 -5
    endloop
  endfacet
  facet normal -1 0 0
    outer loop
      vertex -7.75 7.875 -12.875
      vertex -7.75 1.49993 -5.00037
      vertex -7.75 1.5 -5
    endloop
  endfacet
  facet normal -1 0 0
    outer loop
      vertex -7.75 7.875 -12.875
      vertex -7.75 1.38582 -5.57402
      vertex -7.75 1.49993 -5.00037
    endloop
  endfacet
  facet normal -1 0 0
    outer loop
      vertex -7.75 7.875 -12.875
      vertex -7.75 1.06066 -6.06066
      vertex -7.75 1.38582 -5.57402
    endloop
  endfacet
  facet normal -1 0 0
    outer loop
      vertex -7.75 7.875 -12.875
      vertex -7.75 0.574024 -6.38582
      vertex -7.75 1.06066 -6.06066
    endloop
  endfacet
  facet normal -1 0 0
    outer loop
      vertex -7.75 7.875 -12.875
      vertex -7.75 0.000369834 -6.49993
      vertex -7.75 0.574024 -6.38582
    endloop
  endfacet
  facet normal -1 0 0
    outer loop
      vertex -7.75 7.875 -12.875
      vertex -7.75 0 -6.5
      vertex -7.75 0.000369834 -6.49993
    endloop
  endfacet
  facet normal -1 0 0
    outer loop
      vertex -7.75 -7.875 -12.875
      vertex -7.75 0 -6.5
      vertex -7.75 7.875 -12.875
    endloop
  endfacet
  facet normal -1 -0 0
    outer loop
      vertex -7.75 0 -6.5
      vertex -7.75 -7.875 -12.875
      vertex -7.75 -0.000369834 -6.49993
    endloop
  endfacet
  facet normal -1 -0 0
    outer loop
      vertex -7.75 -0.000369834 -6.49993
      vertex -7.75 -7.875 -12.875
      vertex -7.75 -0.574024 -6.38582
    endloop
  endfacet
  facet normal -1 -0 0
    outer loop
      vertex -7.75 -1.49993 -5.00037
      vertex -7.75 -7.875 -12.875
      vertex -7.75 -1.5 -5
    endloop
  endfacet
  facet normal -1 -0 0
    outer loop
      vertex -7.75 -1.38582 -5.57402
      vertex -7.75 -7.875 -12.875
      vertex -7.75 -1.49993 -5.00037
    endloop
  endfacet
  facet normal -1 -0 0
    outer loop
      vertex -7.75 -1.06066 -6.06066
      vertex -7.75 -7.875 -12.875
      vertex -7.75 -1.38582 -5.57402
    endloop
  endfacet
  facet normal -1 -0 0
    outer loop
      vertex -7.75 -0.574024 -6.38582
      vertex -7.75 -7.875 -12.875
      vertex -7.75 -1.06066 -6.06066
    endloop
  endfacet
  facet normal -1 0 0
    outer loop
      vertex -7.75 1.38582 -4.42597
      vertex -7.75 7.875 -12.875
      vertex -7.75 1.38589 -4.42634
    endloop
  endfacet
  facet normal -1 0 0
    outer loop
      vertex -7.75 7.875 -12.875
      vertex -7.75 1.38582 -4.42597
      vertex -7.75 7.875 26.875
    endloop
  endfacet
  facet normal -1 0 0
    outer loop
      vertex -7.75 1.06066 -3.93934
      vertex -7.75 7.875 26.875
      vertex -7.75 1.38582 -4.42597
    endloop
  endfacet
  facet normal -1 0 0
    outer loop
      vertex -7.75 0.574024 -3.61418
      vertex -7.75 7.875 26.875
      vertex -7.75 1.06066 -3.93934
    endloop
  endfacet
  facet normal -1 0 0
    outer loop
      vertex -7.75 0.573654 -3.61411
      vertex -7.75 7.875 26.875
      vertex -7.75 0.574024 -3.61418
    endloop
  endfacet
  facet normal -1 0 0
    outer loop
      vertex -7.75 0 -3.5
      vertex -7.75 7.875 26.875
      vertex -7.75 0.573654 -3.61411
    endloop
  endfacet
  facet normal -1 0 0
    outer loop
      vertex -7.75 -7.875 26.875
      vertex -7.75 0 -3.5
      vertex -7.75 -0.573654 -3.61411
    endloop
  endfacet
  facet normal -1 0 0
    outer loop
      vertex -7.75 -7.875 26.875
      vertex -7.75 -0.573654 -3.61411
      vertex -7.75 -0.574024 -3.61418
    endloop
  endfacet
  facet normal -1 0 0
    outer loop
      vertex -7.75 -7.875 26.875
      vertex -7.75 -0.574024 -3.61418
      vertex -7.75 -1.06066 -3.93934
    endloop
  endfacet
  facet normal -1 0 0
    outer loop
      vertex -7.75 -7.875 26.875
      vertex -7.75 -1.06066 -3.93934
      vertex -7.75 -1.38582 -4.42597
    endloop
  endfacet
  facet normal -1 0 0
    outer loop
      vertex -7.75 -7.875 -12.875
      vertex -7.75 -1.38589 -4.42634
      vertex -7.75 -1.5 -5
    endloop
  endfacet
  facet normal -1 -0 0
    outer loop
      vertex -7.75 -1.38589 -4.42634
      vertex -7.75 -7.875 -12.875
      vertex -7.75 -1.38582 -4.42597
    endloop
  endfacet
  facet normal -1 0 0
    outer loop
      vertex -7.75 -7.875 26.875
      vertex -7.75 -1.38582 -4.42597
      vertex -7.75 -7.875 -12.875
    endloop
  endfacet
  facet normal -1 0 0
    outer loop
      vertex -7.75 0 -3.5
      vertex -7.75 -7.875 26.875
      vertex -7.75 7.875 26.875
    endloop
  endfacet
  facet normal -0 0 1
    outer loop
      vertex -4.75 7.875 4.875
      vertex 4.75 -7.875 4.875
      vertex 4.75 7.875 4.875
    endloop
  endfacet
  facet normal 0 0 1
    outer loop
      vertex 4.75 -7.875 4.875
      vertex -4.75 7.875 4.875
      vertex -4.75 -7.875 4.875
    endloop
  endfacet
  facet normal 1 -0 0
    outer loop
      vertex 7.75 1.38582 -4.42597
      vertex 7.75 7.875 -12.875
      vertex 7.75 7.875 26.875
    endloop
  endfacet
  facet normal 1 0 0
    outer loop
      vertex 7.75 7.875 -12.875
      vertex 7.75 1.49993 -4.99963
      vertex 7.75 1.5 -5
    endloop
  endfacet
  facet normal 1 0 0
    outer loop
      vertex 7.75 7.875 -12.875
      vertex 7.75 1.38582 -4.42597
      vertex 7.75 1.49993 -4.99963
    endloop
  endfacet
  facet normal 1 0 0
    outer loop
      vertex 7.75 7.875 26.875
      vertex 7.75 1.06066 -3.93934
      vertex 7.75 1.38582 -4.42597
    endloop
  endfacet
  facet normal 1 0 0
    outer loop
      vertex 7.75 7.875 26.875
      vertex 7.75 0.574024 -3.61418
      vertex 7.75 1.06066 -3.93934
    endloop
  endfacet
  facet normal 1 0 0
    outer loop
      vertex 7.75 7.875 26.875
      vertex 7.75 0.000369834 -3.50007
      vertex 7.75 0.574024 -3.61418
    endloop
  endfacet
  facet normal 1 0 0
    outer loop
      vertex 7.75 7.875 26.875
      vertex 7.75 0 -3.5
      vertex 7.75 0.000369834 -3.50007
    endloop
  endfacet
  facet normal 1 -0 0
    outer loop
      vertex 7.75 -7.875 26.875
      vertex 7.75 0 -3.5
      vertex 7.75 7.875 26.875
    endloop
  endfacet
  facet normal 1 0 0
    outer loop
      vertex 7.75 0 -3.5
      vertex 7.75 -7.875 26.875
      vertex 7.75 -0.000369834 -3.50007
    endloop
  endfacet
  facet normal 1 0 0
    outer loop
      vertex 7.75 -0.000369834 -3.50007
      vertex 7.75 -7.875 26.875
      vertex 7.75 -0.574024 -3.61418
    endloop
  endfacet
  facet normal 1 0 0
    outer loop
      vertex 7.75 -0.574024 -3.61418
      vertex 7.75 -7.875 26.875
      vertex 7.75 -1.06066 -3.93934
    endloop
  endfacet
  facet normal 1 0 0
    outer loop
      vertex 7.75 -1.38582 -4.42597
      vertex 7.75 -7.875 -12.875
      vertex 7.75 -1.49993 -4.99963
    endloop
  endfacet
  facet normal 1 0 0
    outer loop
      vertex 7.75 -7.875 -12.875
      vertex 7.75 -1.38582 -4.42597
      vertex 7.75 -7.875 26.875
    endloop
  endfacet
  facet normal 1 0 0
    outer loop
      vertex 7.75 -1.06066 -3.93934
      vertex 7.75 -7.875 26.875
      vertex 7.75 -1.38582 -4.42597
    endloop
  endfacet
  facet normal 1 -0 0
    outer loop
      vertex 7.75 1.38589 -5.57365
      vertex 7.75 7.875 -12.875
      vertex 7.75 1.5 -5
    endloop
  endfacet
  facet normal 1 -0 0
    outer loop
      vertex 7.75 1.38582 -5.57402
      vertex 7.75 7.875 -12.875
      vertex 7.75 1.38589 -5.57365
    endloop
  endfacet
  facet normal 1 -0 0
    outer loop
      vertex 7.75 1.06066 -6.06066
      vertex 7.75 7.875 -12.875
      vertex 7.75 1.38582 -5.57402
    endloop
  endfacet
  facet normal 1 -0 0
    outer loop
      vertex 7.75 0.574024 -6.38582
      vertex 7.75 7.875 -12.875
      vertex 7.75 1.06066 -6.06066
    endloop
  endfacet
  facet normal 1 -0 0
    outer loop
      vertex 7.75 0.573654 -6.38589
      vertex 7.75 7.875 -12.875
      vertex 7.75 0.574024 -6.38582
    endloop
  endfacet
  facet normal 1 -0 0
    outer loop
      vertex 7.75 0 -6.5
      vertex 7.75 7.875 -12.875
      vertex 7.75 0.573654 -6.38589
    endloop
  endfacet
  facet normal 1 0 0
    outer loop
      vertex 7.75 -7.875 -12.875
      vertex 7.75 0 -6.5
      vertex 7.75 -0.573654 -6.38589
    endloop
  endfacet
  facet normal 1 0 0
    outer loop
      vertex 7.75 -7.875 -12.875
      vertex 7.75 -0.573654 -6.38589
      vertex 7.75 -0.574024 -6.38582
    endloop
  endfacet
  facet normal 1 0 0
    outer loop
      vertex 7.75 -7.875 -12.875
      vertex 7.75 -0.574024 -6.38582
      vertex 7.75 -1.06066 -6.06066
    endloop
  endfacet
  facet normal 1 0 0
    outer loop
      vertex 7.75 -7.875 -12.875
      vertex 7.75 -1.38589 -5.57365
      vertex 7.75 -1.5 -5
    endloop
  endfacet
  facet normal 1 0 0
    outer loop
      vertex 7.75 -1.49993 -4.99963
      vertex 7.75 -7.875 -12.875
      vertex 7.75 -1.5 -5
    endloop
  endfacet
  facet normal 1 0 0
    outer loop
      vertex 7.75 0 -6.5
      vertex 7.75 -7.875 -12.875
      vertex 7.75 7.875 -12.875
    endloop
  endfacet
  facet normal 1 0 0
    outer loop
      vertex 7.75 -1.38582 -5.57402
      vertex 7.75 -7.875 -12.875
      vertex 7.75 -1.06066 -6.06066
    endloop
  endfacet
  facet normal 1 0 0
    outer loop
      vertex 7.75 -1.38589 -5.57365
      vertex 7.75 -7.875 -12.875
      vertex 7.75 -1.38582 -5.57402
    endloop
  endfacet
  facet normal 0 1 0
    outer loop
      vertex 7.75 7.875 26.875
      vertex 4.75 7.875 23.875
      vertex -7.75 7.875 26.875
    endloop
  endfacet
  facet normal 0 1 0
    outer loop
      vertex 7.75 7.875 26.875
      vertex 4.75 7.875 4.875
      vertex 4.75 7.875 23.875
    endloop
  endfacet
  facet normal 0 1 0
    outer loop
      vertex 4.75 7.875 4.875
      vertex 4.75 7.875 2.875
      vertex -4.75 7.875 4.875
    endloop
  endfacet
  facet normal 0 1 -0
    outer loop
      vertex 7.75 7.875 -12.875
      vertex 4.75 7.875 4.875
      vertex 7.75 7.875 26.875
    endloop
  endfacet
  facet normal 0 1 0
    outer loop
      vertex 4.75 7.875 4.875
      vertex 7.75 7.875 -12.875
      vertex 4.75 7.875 2.875
    endloop
  endfacet
  facet normal 0 1 0
    outer loop
      vertex 4.75 7.875 2.875
      vertex 7.75 7.875 -12.875
      vertex 4.75 7.875 -12.875
    endloop
  endfacet
  facet normal 0 1 -0
    outer loop
      vertex -4.75 7.875 23.875
      vertex -7.75 7.875 26.875
      vertex 4.75 7.875 23.875
    endloop
  endfacet
  facet normal 0 1 -0
    outer loop
      vertex -4.75 7.875 4.875
      vertex -7.75 7.875 26.875
      vertex -4.75 7.875 23.875
    endloop
  endfacet
  facet normal 0 1 0
    outer loop
      vertex -4.75 7.875 2.875
      vertex -4.75 7.875 4.875
      vertex 4.75 7.875 2.875
    endloop
  endfacet
  facet normal 0 1 0
    outer loop
      vertex -7.75 7.875 -12.875
      vertex -4.75 7.875 4.875
      vertex -4.75 7.875 2.875
    endloop
  endfacet
  facet normal 0 1 0
    outer loop
      vertex -7.75 7.875 -12.875
      vertex -4.75 7.875 2.875
      vertex -4.75 7.875 -12.875
    endloop
  endfacet
  facet normal 0 1 0
    outer loop
      vertex -4.75 7.875 4.875
      vertex -7.75 7.875 -12.875
      vertex -7.75 7.875 26.875
    endloop
  endfacet
  facet normal 0 0 -1
    outer loop
      vertex -7.75 -7.875 -12.875
      vertex -4.75 7.875 -12.875
      vertex -4.75 -7.875 -12.875
    endloop
  endfacet
  facet normal -0 0 -1
    outer loop
      vertex -4.75 7.875 -12.875
      vertex -7.75 -7.875 -12.875
      vertex -7.75 7.875 -12.875
    endloop
  endfacet
  facet normal 0 0 -1
    outer loop
      vertex 4.75 -7.875 -12.875
      vertex 7.75 7.875 -12.875
      vertex 7.75 -7.875 -12.875
    endloop
  endfacet
  facet normal -0 0 -1
    outer loop
      vertex 7.75 7.875 -12.875
      vertex 4.75 -7.875 -12.875
      vertex 4.75 7.875 -12.875
    endloop
  endfacet
  facet normal 0 -1 0
    outer loop
      vertex -7.75 -7.875 26.875
      vertex -4.75 -7.875 23.875
      vertex 7.75 -7.875 26.875
    endloop
  endfacet
  facet normal 0 -1 0
    outer loop
      vertex -7.75 -7.875 26.875
      vertex -4.75 -7.875 4.875
      vertex -4.75 -7.875 23.875
    endloop
  endfacet
  facet normal 0 -1 0
    outer loop
      vertex -4.75 -7.875 4.875
      vertex -4.75 -7.875 2.875
      vertex 4.75 -7.875 4.875
    endloop
  endfacet
  facet normal 0 -1 0
    outer loop
      vertex -7.75 -7.875 -12.875
      vertex -4.75 -7.875 4.875
      vertex -7.75 -7.875 26.875
    endloop
  endfacet
  facet normal 0 -1 -0
    outer loop
      vertex -4.75 -7.875 4.875
      vertex -7.75 -7.875 -12.875
      vertex -4.75 -7.875 2.875
    endloop
  endfacet
  facet normal 0 -1 -0
    outer loop
      vertex -4.75 -7.875 2.875
      vertex -7.75 -7.875 -12.875
      vertex -4.75 -7.875 -12.875
    endloop
  endfacet
  facet normal 0 -1 0
    outer loop
      vertex 4.75 -7.875 23.875
      vertex 7.75 -7.875 26.875
      vertex -4.75 -7.875 23.875
    endloop
  endfacet
  facet normal 0 -1 0
    outer loop
      vertex 4.75 -7.875 4.875
      vertex 7.75 -7.875 26.875
      vertex 4.75 -7.875 23.875
    endloop
  endfacet
  facet normal 0 -1 0
    outer loop
      vertex 4.75 -7.875 2.875
      vertex 4.75 -7.875 4.875
      vertex -4.75 -7.875 2.875
    endloop
  endfacet
  facet normal 0 -1 0
    outer loop
      vertex 7.75 -7.875 -12.875
      vertex 4.75 -7.875 4.875
      vertex 4.75 -7.875 2.875
    endloop
  endfacet
  facet normal 0 -1 0
    outer loop
      vertex 7.75 -7.875 -12.875
      vertex 4.75 -7.875 2.875
      vertex 4.75 -7.875 -12.875
    endloop
  endfacet
  facet normal 0 -1 0
    outer loop
      vertex 4.75 -7.875 4.875
      vertex 7.75 -7.875 -12.875
      vertex 7.75 -7.875 26.875
    endloop
  endfacet
  facet normal 1 0 0
    outer loop
      vertex -4.75 7.875 2.875
      vertex -4.75 1.5 -5
      vertex -4.75 7.875 -12.875
    endloop
  endfacet
  facet normal 1 0 0
    outer loop
      vertex -4.75 7.875 2.875
      vertex -4.75 1.40796 -4.5373
      vertex -4.75 1.5 -5
    endloop
  endfacet
  facet normal 1 0 0
    outer loop
      vertex -4.75 7.875 2.875
      vertex -4.75 1.38582 -4.42597
      vertex -4.75 1.40796 -4.5373
    endloop
  endfacet
  facet normal 1 0 0
    outer loop
      vertex -4.75 7.875 2.875
      vertex -4.75 1.06066 -3.93934
      vertex -4.75 1.38582 -4.42597
    endloop
  endfacet
  facet normal 1 0 0
    outer loop
      vertex -4.75 7.875 2.875
      vertex -4.75 0.574024 -3.61418
      vertex -4.75 1.06066 -3.93934
    endloop
  endfacet
  facet normal 1 0 0
    outer loop
      vertex -4.75 7.875 2.875
      vertex -4.75 0.462696 -3.59204
      vertex -4.75 0.574024 -3.61418
    endloop
  endfacet
  facet normal 1 0 0
    outer loop
      vertex -4.75 7.875 2.875
      vertex -4.75 0 -3.5
      vertex -4.75 0.462696 -3.59204
    endloop
  endfacet
  facet normal 1 -0 0
    outer loop
      vertex -4.75 -7.875 2.875
      vertex -4.75 0 -3.5
      vertex -4.75 7.875 2.875
    endloop
  endfacet
  facet normal 1 0 0
    outer loop
      vertex -4.75 0 -3.5
      vertex -4.75 -7.875 2.875
      vertex -4.75 -0.462696 -3.59204
    endloop
  endfacet
  facet normal 1 0 0
    outer loop
      vertex -4.75 -0.462696 -3.59204
      vertex -4.75 -7.875 2.875
      vertex -4.75 -0.574024 -3.61418
    endloop
  endfacet
  facet normal 1 0 0
    outer loop
      vertex -4.75 -1.40796 -4.5373
      vertex -4.75 -7.875 2.875
      vertex -4.75 -1.5 -5
    endloop
  endfacet
  facet normal 1 0 0
    outer loop
      vertex -4.75 -1.38582 -4.42597
      vertex -4.75 -7.875 2.875
      vertex -4.75 -1.40796 -4.5373
    endloop
  endfacet
  facet normal 1 0 0
    outer loop
      vertex -4.75 -1.06066 -3.93934
      vertex -4.75 -7.875 2.875
      vertex -4.75 -1.38582 -4.42597
    endloop
  endfacet
  facet normal 1 0 0
    outer loop
      vertex -4.75 -0.574024 -3.61418
      vertex -4.75 -7.875 2.875
      vertex -4.75 -1.06066 -3.93934
    endloop
  endfacet
  facet normal 1 -0 0
    outer loop
      vertex -4.75 1.47786 -5.11133
      vertex -4.75 7.875 -12.875
      vertex -4.75 1.5 -5
    endloop
  endfacet
  facet normal 1 -0 0
    outer loop
      vertex -4.75 1.38582 -5.57402
      vertex -4.75 7.875 -12.875
      vertex -4.75 1.47786 -5.11133
    endloop
  endfacet
  facet normal 1 -0 0
    outer loop
      vertex -4.75 1.06066 -6.06066
      vertex -4.75 7.875 -12.875
      vertex -4.75 1.38582 -5.57402
    endloop
  endfacet
  facet normal 1 -0 0
    outer loop
      vertex -4.75 0.574024 -6.38582
      vertex -4.75 7.875 -12.875
      vertex -4.75 1.06066 -6.06066
    endloop
  endfacet
  facet normal 1 -0 0
    outer loop
      vertex -4.75 0.111328 -6.47786
      vertex -4.75 7.875 -12.875
      vertex -4.75 0.574024 -6.38582
    endloop
  endfacet
  facet normal 1 -0 0
    outer loop
      vertex -4.75 0 -6.5
      vertex -4.75 7.875 -12.875
      vertex -4.75 0.111328 -6.47786
    endloop
  endfacet
  facet normal 1 0 0
    outer loop
      vertex -4.75 -7.875 -12.875
      vertex -4.75 0 -6.5
      vertex -4.75 -0.111328 -6.47786
    endloop
  endfacet
  facet normal 1 0 0
    outer loop
      vertex -4.75 -7.875 -12.875
      vertex -4.75 -0.111328 -6.47786
      vertex -4.75 -0.574024 -6.38582
    endloop
  endfacet
  facet normal 1 0 0
    outer loop
      vertex -4.75 -7.875 -12.875
      vertex -4.75 -0.574024 -6.38582
      vertex -4.75 -1.06066 -6.06066
    endloop
  endfacet
  facet normal 1 0 0
    outer loop
      vertex -4.75 -7.875 -12.875
      vertex -4.75 -1.47786 -5.11133
      vertex -4.75 -1.5 -5
    endloop
  endfacet
  facet normal 1 0 0
    outer loop
      vertex -4.75 -7.875 -12.875
      vertex -4.75 -1.5 -5
      vertex -4.75 -7.875 2.875
    endloop
  endfacet
  facet normal 1 0 0
    outer loop
      vertex -4.75 -1.47786 -5.11133
      vertex -4.75 -7.875 -12.875
      vertex -4.75 -1.38582 -5.57402
    endloop
  endfacet
  facet normal 1 0 0
    outer loop
      vertex -4.75 0 -6.5
      vertex -4.75 -7.875 -12.875
      vertex -4.75 7.875 -12.875
    endloop
  endfacet
  facet normal 1 0 0
    outer loop
      vertex -4.75 -1.38582 -5.57402
      vertex -4.75 -7.875 -12.875
      vertex -4.75 -1.06066 -6.06066
    endloop
  endfacet
  facet normal 0 0 -1
    outer loop
      vertex -4.75 -7.875 2.875
      vertex 4.75 7.875 2.875
      vertex 4.75 -7.875 2.875
    endloop
  endfacet
  facet normal -0 0 -1
    outer loop
      vertex 4.75 7.875 2.875
      vertex -4.75 -7.875 2.875
      vertex -4.75 7.875 2.875
    endloop
  endfacet
  facet normal -1 0 0
    outer loop
      vertex 4.75 7.875 -12.875
      vertex 4.75 1.5 -5
      vertex 4.75 7.875 2.875
    endloop
  endfacet
  facet normal -1 0 0
    outer loop
      vertex 4.75 7.875 -12.875
      vertex 4.75 1.40796 -5.4627
      vertex 4.75 1.5 -5
    endloop
  endfacet
  facet normal -1 0 0
    outer loop
      vertex 4.75 7.875 -12.875
      vertex 4.75 1.38582 -5.57402
      vertex 4.75 1.40796 -5.4627
    endloop
  endfacet
  facet normal -1 0 0
    outer loop
      vertex 4.75 7.875 -12.875
      vertex 4.75 1.06066 -6.06066
      vertex 4.75 1.38582 -5.57402
    endloop
  endfacet
  facet normal -1 0 0
    outer loop
      vertex 4.75 7.875 -12.875
      vertex 4.75 0.574024 -6.38582
      vertex 4.75 1.06066 -6.06066
    endloop
  endfacet
  facet normal -1 0 0
    outer loop
      vertex 4.75 7.875 -12.875
      vertex 4.75 0.462696 -6.40796
      vertex 4.75 0.574024 -6.38582
    endloop
  endfacet
  facet normal -1 0 0
    outer loop
      vertex 4.75 7.875 -12.875
      vertex 4.75 0 -6.5
      vertex 4.75 0.462696 -6.40796
    endloop
  endfacet
  facet normal -1 0 0
    outer loop
      vertex 4.75 -7.875 -12.875
      vertex 4.75 0 -6.5
      vertex 4.75 7.875 -12.875
    endloop
  endfacet
  facet normal -1 -0 0
    outer loop
      vertex 4.75 0 -6.5
      vertex 4.75 -7.875 -12.875
      vertex 4.75 -0.462696 -6.40796
    endloop
  endfacet
  facet normal -1 -0 0
    outer loop
      vertex 4.75 -0.462696 -6.40796
      vertex 4.75 -7.875 -12.875
      vertex 4.75 -0.574024 -6.38582
    endloop
  endfacet
  facet normal -1 -0 0
    outer loop
      vertex 4.75 -1.40796 -5.4627
      vertex 4.75 -7.875 -12.875
      vertex 4.75 -1.5 -5
    endloop
  endfacet
  facet normal -1 -0 0
    outer loop
      vertex 4.75 -1.38582 -5.57402
      vertex 4.75 -7.875 -12.875
      vertex 4.75 -1.40796 -5.4627
    endloop
  endfacet
  facet normal -1 -0 0
    outer loop
      vertex 4.75 -1.06066 -6.06066
      vertex 4.75 -7.875 -12.875
      vertex 4.75 -1.38582 -5.57402
    endloop
  endfacet
  facet normal -1 -0 0
    outer loop
      vertex 4.75 -0.574024 -6.38582
      vertex 4.75 -7.875 -12.875
      vertex 4.75 -1.06066 -6.06066
    endloop
  endfacet
  facet normal -1 0 0
    outer loop
      vertex 4.75 1.47786 -4.88867
      vertex 4.75 7.875 2.875
      vertex 4.75 1.5 -5
    endloop
  endfacet
  facet normal -1 0 0
    outer loop
      vertex 4.75 1.38582 -4.42597
      vertex 4.75 7.875 2.875
      vertex 4.75 1.47786 -4.88867
    endloop
  endfacet
  facet normal -1 0 0
    outer loop
      vertex 4.75 1.06066 -3.93934
      vertex 4.75 7.875 2.875
      vertex 4.75 1.38582 -4.42597
    endloop
  endfacet
  facet normal -1 0 0
    outer loop
      vertex 4.75 0.574024 -3.61418
      vertex 4.75 7.875 2.875
      vertex 4.75 1.06066 -3.93934
    endloop
  endfacet
  facet normal -1 0 0
    outer loop
      vertex 4.75 0.111328 -3.52214
      vertex 4.75 7.875 2.875
      vertex 4.75 0.574024 -3.61418
    endloop
  endfacet
  facet normal -1 0 0
    outer loop
      vertex 4.75 0 -3.5
      vertex 4.75 7.875 2.875
      vertex 4.75 0.111328 -3.52214
    endloop
  endfacet
  facet normal -1 0 0
    outer loop
      vertex 4.75 -7.875 2.875
      vertex 4.75 0 -3.5
      vertex 4.75 -0.111328 -3.52214
    endloop
  endfacet
  facet normal -1 0 0
    outer loop
      vertex 4.75 -7.875 2.875
      vertex 4.75 -0.111328 -3.52214
      vertex 4.75 -0.574024 -3.61418
    endloop
  endfacet
  facet normal -1 0 0
    outer loop
      vertex 4.75 -7.875 2.875
      vertex 4.75 -0.574024 -3.61418
      vertex 4.75 -1.06066 -3.93934
    endloop
  endfacet
  facet normal -1 0 0
    outer loop
      vertex 4.75 -7.875 2.875
      vertex 4.75 -1.47786 -4.88867
      vertex 4.75 -1.5 -5
    endloop
  endfacet
  facet normal -1 0 0
    outer loop
      vertex 4.75 -7.875 2.875
      vertex 4.75 -1.5 -5
      vertex 4.75 -7.875 -12.875
    endloop
  endfacet
  facet normal -1 0 0
    outer loop
      vertex 4.75 -1.47786 -4.88867
      vertex 4.75 -7.875 2.875
      vertex 4.75 -1.38582 -4.42597
    endloop
  endfacet
  facet normal -1 0 0
    outer loop
      vertex 4.75 0 -3.5
      vertex 4.75 -7.875 2.875
      vertex 4.75 7.875 2.875
    endloop
  endfacet
  facet normal -1 0 0
    outer loop
      vertex 4.75 -1.38582 -4.42597
      vertex 4.75 -7.875 2.875
      vertex 4.75 -1.06066 -3.93934
    endloop
  endfacet
  facet normal 0 -0.195092 0.980785
    outer loop
      vertex -7.75 0.574024 -6.38582
      vertex -4.75 0.111328 -6.47786
      vertex -4.75 0.574024 -6.38582
    endloop
  endfacet
  facet normal -5.35243e-08 -0.195092 0.980785
    outer loop
      vertex -4.75 0.111328 -6.47786
      vertex -7.75 0.574024 -6.38582
      vertex -7.75 0.000369834 -6.49993
    endloop
  endfacet
  facet normal 0 -0.194748 0.980853
    outer loop
      vertex 4.75 0.574024 -6.38582
      vertex 7.75 0.573654 -6.38589
      vertex 7.75 0.574024 -6.38582
    endloop
  endfacet
  facet normal -4.41441e-08 -0.195092 0.980785
    outer loop
      vertex 7.75 0.573654 -6.38589
      vertex 4.75 0.574024 -6.38582
      vertex 4.75 0.462696 -6.40796
    endloop
  endfacet
  facet normal -4.3321e-08 -0.195092 0.980785
    outer loop
      vertex -7.75 0.000369834 -6.49993
      vertex -4.75 0 -6.5
      vertex -4.75 0.111328 -6.47786
    endloop
  endfacet
  facet normal 0 -0.194754 0.980852
    outer loop
      vertex -4.75 0 -6.5
      vertex -7.75 0.000369834 -6.49993
      vertex -7.75 0 -6.5
    endloop
  endfacet
  facet normal -1.14978e-07 -0.195091 0.980785
    outer loop
      vertex 4.75 0.462696 -6.40796
      vertex 7.75 0 -6.5
      vertex 7.75 0.573654 -6.38589
    endloop
  endfacet
  facet normal 0 -0.19509 0.980785
    outer loop
      vertex 7.75 0 -6.5
      vertex 4.75 0.462696 -6.40796
      vertex 4.75 0 -6.5
    endloop
  endfacet
  facet normal 0 0.195356 -0.980732
    outer loop
      vertex -7.75 -0.573654 -3.61411
      vertex -4.75 -0.574024 -3.61418
      vertex -7.75 -0.574024 -3.61418
    endloop
  endfacet
  facet normal -3.38017e-08 0.195092 -0.980785
    outer loop
      vertex -4.75 -0.574024 -3.61418
      vertex -7.75 -0.573654 -3.61411
      vertex -4.75 -0.462696 -3.59204
    endloop
  endfacet
  facet normal 0 0.195092 -0.980785
    outer loop
      vertex 4.75 -0.111328 -3.52214
      vertex 7.75 -0.574024 -3.61418
      vertex 4.75 -0.574024 -3.61418
    endloop
  endfacet
  facet normal -9.34496e-09 0.195092 -0.980785
    outer loop
      vertex 7.75 -0.574024 -3.61418
      vertex 4.75 -0.111328 -3.52214
      vertex 7.75 -0.000369834 -3.50007
    endloop
  endfacet
  facet normal -0 0.55557 0.83147
    outer loop
      vertex -7.75 -0.574024 -6.38582
      vertex -4.75 -1.06066 -6.06066
      vertex -4.75 -0.574024 -6.38582
    endloop
  endfacet
  facet normal 0 0.55557 0.83147
    outer loop
      vertex -4.75 -1.06066 -6.06066
      vertex -7.75 -0.574024 -6.38582
      vertex -7.75 -1.06066 -6.06066
    endloop
  endfacet
  facet normal -0 0.55557 0.83147
    outer loop
      vertex 4.75 -0.574024 -6.38582
      vertex 7.75 -1.06066 -6.06066
      vertex 7.75 -0.574024 -6.38582
    endloop
  endfacet
  facet normal 0 0.55557 0.83147
    outer loop
      vertex 7.75 -1.06066 -6.06066
      vertex 4.75 -0.574024 -6.38582
      vertex 4.75 -1.06066 -6.06066
    endloop
  endfacet
  facet normal 0 0.980785 -0.195091
    outer loop
      vertex -7.75 -1.5 -5
      vertex -4.75 -1.40796 -4.5373
      vertex -4.75 -1.5 -5
    endloop
  endfacet
  facet normal 4.46116e-08 0.980785 -0.195092
    outer loop
      vertex -4.75 -1.40796 -4.5373
      vertex -7.75 -1.5 -5
      vertex -7.75 -1.38589 -4.42634
    endloop
  endfacet
  facet normal 0 0.980811 -0.194961
    outer loop
      vertex 4.75 -1.5 -5
      vertex 7.75 -1.49993 -4.99963
      vertex 7.75 -1.5 -5
    endloop
  endfacet
  facet normal 1.67996e-08 0.980785 -0.195092
    outer loop
      vertex 7.75 -1.49993 -4.99963
      vertex 4.75 -1.5 -5
      vertex 4.75 -1.47786 -4.88867
    endloop
  endfacet
  facet normal 4.46116e-08 -0.980785 -0.195092
    outer loop
      vertex -7.75 1.5 -5
      vertex -4.75 1.40796 -4.5373
      vertex -7.75 1.38589 -4.42634
    endloop
  endfacet
  facet normal 0 -0.980785 -0.195091
    outer loop
      vertex -4.75 1.40796 -4.5373
      vertex -7.75 1.5 -5
      vertex -4.75 1.5 -5
    endloop
  endfacet
  facet normal 1.67996e-08 -0.980785 -0.195092
    outer loop
      vertex 4.75 1.5 -5
      vertex 7.75 1.49993 -4.99963
      vertex 4.75 1.47786 -4.88867
    endloop
  endfacet
  facet normal 0 -0.980811 -0.194961
    outer loop
      vertex 7.75 1.49993 -4.99963
      vertex 4.75 1.5 -5
      vertex 7.75 1.5 -5
    endloop
  endfacet
  facet normal 0 -0.55557 -0.83147
    outer loop
      vertex -7.75 0.574024 -3.61418
      vertex -4.75 1.06066 -3.93934
      vertex -4.75 0.574024 -3.61418
    endloop
  endfacet
  facet normal -0 -0.55557 -0.83147
    outer loop
      vertex -4.75 1.06066 -3.93934
      vertex -7.75 0.574024 -3.61418
      vertex -7.75 1.06066 -3.93934
    endloop
  endfacet
  facet normal 0 -0.55557 -0.83147
    outer loop
      vertex 4.75 0.574024 -3.61418
      vertex 7.75 1.06066 -3.93934
      vertex 7.75 0.574024 -3.61418
    endloop
  endfacet
  facet normal -0 -0.55557 -0.83147
    outer loop
      vertex 7.75 1.06066 -3.93934
      vertex 4.75 0.574024 -3.61418
      vertex 4.75 1.06066 -3.93934
    endloop
  endfacet
  facet normal -5.35243e-08 0.195092 0.980785
    outer loop
      vertex -7.75 -0.574024 -6.38582
      vertex -4.75 -0.111328 -6.47786
      vertex -7.75 -0.000369834 -6.49993
    endloop
  endfacet
  facet normal 0 0.195092 0.980785
    outer loop
      vertex -4.75 -0.111328 -6.47786
      vertex -7.75 -0.574024 -6.38582
      vertex -4.75 -0.574024 -6.38582
    endloop
  endfacet
  facet normal -4.41441e-08 0.195092 0.980785
    outer loop
      vertex 4.75 -0.574024 -6.38582
      vertex 7.75 -0.573654 -6.38589
      vertex 4.75 -0.462696 -6.40796
    endloop
  endfacet
  facet normal 0 0.194748 0.980853
    outer loop
      vertex 7.75 -0.573654 -6.38589
      vertex 4.75 -0.574024 -6.38582
      vertex 7.75 -0.574024 -6.38582
    endloop
  endfacet
  facet normal 0 0.194754 0.980852
    outer loop
      vertex -7.75 -0.000369834 -6.49993
      vertex -4.75 0 -6.5
      vertex -7.75 0 -6.5
    endloop
  endfacet
  facet normal -4.3321e-08 0.195092 0.980785
    outer loop
      vertex -4.75 0 -6.5
      vertex -7.75 -0.000369834 -6.49993
      vertex -4.75 -0.111328 -6.47786
    endloop
  endfacet
  facet normal 0 0.19509 0.980785
    outer loop
      vertex 4.75 -0.462696 -6.40796
      vertex 7.75 0 -6.5
      vertex 4.75 0 -6.5
    endloop
  endfacet
  facet normal -1.14978e-07 0.195091 0.980785
    outer loop
      vertex 7.75 0 -6.5
      vertex 4.75 -0.462696 -6.40796
      vertex 7.75 -0.573654 -6.38589
    endloop
  endfacet
  facet normal 7.79458e-08 -0.19509 -0.980785
    outer loop
      vertex -7.75 0 -3.5
      vertex -4.75 0.462696 -3.59204
      vertex -4.75 0 -3.5
    endloop
  endfacet
  facet normal 5.21083e-08 -0.19509 -0.980785
    outer loop
      vertex -4.75 0.462696 -3.59204
      vertex -7.75 0 -3.5
      vertex -7.75 0.573654 -3.61411
    endloop
  endfacet
  facet normal 7.79415e-08 -0.195363 -0.980731
    outer loop
      vertex 4.75 0 -3.5
      vertex 7.75 0.000369834 -3.50007
      vertex 7.75 0 -3.5
    endloop
  endfacet
  facet normal 4.30621e-08 -0.19509 -0.980785
    outer loop
      vertex 7.75 0.000369834 -3.50007
      vertex 4.75 0 -3.5
      vertex 4.75 0.111328 -3.52214
    endloop
  endfacet
  facet normal -3.26159e-08 -0.980785 0.195092
    outer loop
      vertex -7.75 1.38582 -5.57402
      vertex -4.75 1.47786 -5.11133
      vertex -7.75 1.49993 -5.00037
    endloop
  endfacet
  facet normal 0 -0.980785 0.195092
    outer loop
      vertex -4.75 1.47786 -5.11133
      vertex -7.75 1.38582 -5.57402
      vertex -4.75 1.38582 -5.57402
    endloop
  endfacet
  facet normal -1.67996e-08 -0.980785 0.195092
    outer loop
      vertex 4.75 1.38582 -5.57402
      vertex 7.75 1.38589 -5.57365
      vertex 4.75 1.40796 -5.4627
    endloop
  endfacet
  facet normal 0 -0.980811 0.194961
    outer loop
      vertex 7.75 1.38589 -5.57365
      vertex 4.75 1.38582 -5.57402
      vertex 7.75 1.38582 -5.57402
    endloop
  endfacet
  facet normal 0 -0.980811 0.194961
    outer loop
      vertex -7.75 1.49993 -5.00037
      vertex -4.75 1.5 -5
      vertex -7.75 1.5 -5
    endloop
  endfacet
  facet normal -1.67996e-08 -0.980785 0.195092
    outer loop
      vertex -4.75 1.5 -5
      vertex -7.75 1.49993 -5.00037
      vertex -4.75 1.47786 -5.11133
    endloop
  endfacet
  facet normal 0 -0.980785 0.195091
    outer loop
      vertex 4.75 1.40796 -5.4627
      vertex 7.75 1.5 -5
      vertex 4.75 1.5 -5
    endloop
  endfacet
  facet normal -4.46116e-08 -0.980785 0.195092
    outer loop
      vertex 7.75 1.5 -5
      vertex 4.75 1.40796 -5.4627
      vertex 7.75 1.38589 -5.57365
    endloop
  endfacet
  facet normal 0 -0.83147 0.55557
    outer loop
      vertex -7.75 1.06066 -6.06066
      vertex -4.75 1.38582 -5.57402
      vertex -7.75 1.38582 -5.57402
    endloop
  endfacet
  facet normal 0 -0.83147 0.55557
    outer loop
      vertex -4.75 1.38582 -5.57402
      vertex -7.75 1.06066 -6.06066
      vertex -4.75 1.06066 -6.06066
    endloop
  endfacet
  facet normal 0 -0.83147 0.55557
    outer loop
      vertex 4.75 1.06066 -6.06066
      vertex 7.75 1.38582 -5.57402
      vertex 4.75 1.38582 -5.57402
    endloop
  endfacet
  facet normal 0 -0.83147 0.55557
    outer loop
      vertex 7.75 1.38582 -5.57402
      vertex 4.75 1.06066 -6.06066
      vertex 7.75 1.06066 -6.06066
    endloop
  endfacet
  facet normal 0 -0.55557 0.83147
    outer loop
      vertex -7.75 1.06066 -6.06066
      vertex -4.75 0.574024 -6.38582
      vertex -4.75 1.06066 -6.06066
    endloop
  endfacet
  facet normal 0 -0.55557 0.83147
    outer loop
      vertex -4.75 0.574024 -6.38582
      vertex -7.75 1.06066 -6.06066
      vertex -7.75 0.574024 -6.38582
    endloop
  endfacet
  facet normal 0 -0.55557 0.83147
    outer loop
      vertex 4.75 1.06066 -6.06066
      vertex 7.75 0.574024 -6.38582
      vertex 7.75 1.06066 -6.06066
    endloop
  endfacet
  facet normal 0 -0.55557 0.83147
    outer loop
      vertex 7.75 0.574024 -6.38582
      vertex 4.75 1.06066 -6.06066
      vertex 4.75 0.574024 -6.38582
    endloop
  endfacet
  facet normal 0 0.980811 -0.194961
    outer loop
      vertex -4.75 -1.38582 -4.42597
      vertex -7.75 -1.38589 -4.42634
      vertex -7.75 -1.38582 -4.42597
    endloop
  endfacet
  facet normal 1.67996e-08 0.980785 -0.195092
    outer loop
      vertex -7.75 -1.38589 -4.42634
      vertex -4.75 -1.38582 -4.42597
      vertex -4.75 -1.40796 -4.5373
    endloop
  endfacet
  facet normal 0 0.980785 -0.195092
    outer loop
      vertex 7.75 -1.38582 -4.42597
      vertex 4.75 -1.47786 -4.88867
      vertex 4.75 -1.38582 -4.42597
    endloop
  endfacet
  facet normal 3.26159e-08 0.980785 -0.195092
    outer loop
      vertex 4.75 -1.47786 -4.88867
      vertex 7.75 -1.38582 -4.42597
      vertex 7.75 -1.49993 -4.99963
    endloop
  endfacet
  facet normal -0 0.980785 0.195092
    outer loop
      vertex -7.75 -1.38582 -5.57402
      vertex -4.75 -1.47786 -5.11133
      vertex -4.75 -1.38582 -5.57402
    endloop
  endfacet
  facet normal -3.26159e-08 0.980785 0.195092
    outer loop
      vertex -4.75 -1.47786 -5.11133
      vertex -7.75 -1.38582 -5.57402
      vertex -7.75 -1.49993 -5.00037
    endloop
  endfacet
  facet normal -0 0.980811 0.194961
    outer loop
      vertex 4.75 -1.38582 -5.57402
      vertex 7.75 -1.38589 -5.57365
      vertex 7.75 -1.38582 -5.57402
    endloop
  endfacet
  facet normal -1.67996e-08 0.980785 0.195092
    outer loop
      vertex 7.75 -1.38589 -5.57365
      vertex 4.75 -1.38582 -5.57402
      vertex 4.75 -1.40796 -5.4627
    endloop
  endfacet
  facet normal 0 0.83147 0.55557
    outer loop
      vertex -4.75 -1.06066 -6.06066
      vertex -7.75 -1.38582 -5.57402
      vertex -4.75 -1.38582 -5.57402
    endloop
  endfacet
  facet normal 0 0.83147 0.55557
    outer loop
      vertex -7.75 -1.38582 -5.57402
      vertex -4.75 -1.06066 -6.06066
      vertex -7.75 -1.06066 -6.06066
    endloop
  endfacet
  facet normal 0 0.83147 0.55557
    outer loop
      vertex 7.75 -1.06066 -6.06066
      vertex 4.75 -1.38582 -5.57402
      vertex 7.75 -1.38582 -5.57402
    endloop
  endfacet
  facet normal 0 0.83147 0.55557
    outer loop
      vertex 4.75 -1.38582 -5.57402
      vertex 7.75 -1.06066 -6.06066
      vertex 4.75 -1.06066 -6.06066
    endloop
  endfacet
  facet normal -3.38017e-08 -0.195092 -0.980785
    outer loop
      vertex -7.75 0.573654 -3.61411
      vertex -4.75 0.574024 -3.61418
      vertex -4.75 0.462696 -3.59204
    endloop
  endfacet
  facet normal -0 -0.195356 -0.980732
    outer loop
      vertex -4.75 0.574024 -3.61418
      vertex -7.75 0.573654 -3.61411
      vertex -7.75 0.574024 -3.61418
    endloop
  endfacet
  facet normal -9.34496e-09 -0.195092 -0.980785
    outer loop
      vertex 4.75 0.111328 -3.52214
      vertex 7.75 0.574024 -3.61418
      vertex 7.75 0.000369834 -3.50007
    endloop
  endfacet
  facet normal -0 -0.195092 -0.980785
    outer loop
      vertex 7.75 0.574024 -3.61418
      vertex 4.75 0.111328 -3.52214
      vertex 4.75 0.574024 -3.61418
    endloop
  endfacet
  facet normal 5.21083e-08 0.19509 -0.980785
    outer loop
      vertex -7.75 0 -3.5
      vertex -4.75 -0.462696 -3.59204
      vertex -7.75 -0.573654 -3.61411
    endloop
  endfacet
  facet normal 7.79458e-08 0.19509 -0.980785
    outer loop
      vertex -4.75 -0.462696 -3.59204
      vertex -7.75 0 -3.5
      vertex -4.75 0 -3.5
    endloop
  endfacet
  facet normal 4.30621e-08 0.19509 -0.980785
    outer loop
      vertex 4.75 0 -3.5
      vertex 7.75 -0.000369834 -3.50007
      vertex 4.75 -0.111328 -3.52214
    endloop
  endfacet
  facet normal 7.79415e-08 0.195363 -0.980731
    outer loop
      vertex 7.75 -0.000369834 -3.50007
      vertex 4.75 0 -3.5
      vertex 7.75 0 -3.5
    endloop
  endfacet
  facet normal 0 -0.83147 -0.55557
    outer loop
      vertex -7.75 1.38582 -4.42597
      vertex -4.75 1.06066 -3.93934
      vertex -7.75 1.06066 -3.93934
    endloop
  endfacet
  facet normal 0 -0.83147 -0.55557
    outer loop
      vertex -4.75 1.06066 -3.93934
      vertex -7.75 1.38582 -4.42597
      vertex -4.75 1.38582 -4.42597
    endloop
  endfacet
  facet normal 0 -0.83147 -0.55557
    outer loop
      vertex 4.75 1.38582 -4.42597
      vertex 7.75 1.06066 -3.93934
      vertex 4.75 1.06066 -3.93934
    endloop
  endfacet
  facet normal 0 -0.83147 -0.55557
    outer loop
      vertex 7.75 1.06066 -3.93934
      vertex 4.75 1.38582 -4.42597
      vertex 7.75 1.38582 -4.42597
    endloop
  endfacet
  facet normal 0 -0.980811 -0.194961
    outer loop
      vertex -7.75 1.38589 -4.42634
      vertex -4.75 1.38582 -4.42597
      vertex -7.75 1.38582 -4.42597
    endloop
  endfacet
  facet normal 1.67996e-08 -0.980785 -0.195092
    outer loop
      vertex -4.75 1.38582 -4.42597
      vertex -7.75 1.38589 -4.42634
      vertex -4.75 1.40796 -4.5373
    endloop
  endfacet
  facet normal 0 -0.980785 -0.195092
    outer loop
      vertex 4.75 1.47786 -4.88867
      vertex 7.75 1.38582 -4.42597
      vertex 4.75 1.38582 -4.42597
    endloop
  endfacet
  facet normal 3.26159e-08 -0.980785 -0.195092
    outer loop
      vertex 7.75 1.38582 -4.42597
      vertex 4.75 1.47786 -4.88867
      vertex 7.75 1.49993 -4.99963
    endloop
  endfacet
  facet normal 0 0.55557 -0.83147
    outer loop
      vertex -7.75 -1.06066 -3.93934
      vertex -4.75 -0.574024 -3.61418
      vertex -4.75 -1.06066 -3.93934
    endloop
  endfacet
  facet normal 0 0.55557 -0.83147
    outer loop
      vertex -4.75 -0.574024 -3.61418
      vertex -7.75 -1.06066 -3.93934
      vertex -7.75 -0.574024 -3.61418
    endloop
  endfacet
  facet normal 0 0.55557 -0.83147
    outer loop
      vertex 4.75 -1.06066 -3.93934
      vertex 7.75 -0.574024 -3.61418
      vertex 7.75 -1.06066 -3.93934
    endloop
  endfacet
  facet normal 0 0.55557 -0.83147
    outer loop
      vertex 7.75 -0.574024 -3.61418
      vertex 4.75 -1.06066 -3.93934
      vertex 4.75 -0.574024 -3.61418
    endloop
  endfacet
  facet normal 0 0.980811 0.194961
    outer loop
      vertex -4.75 -1.5 -5
      vertex -7.75 -1.49993 -5.00037
      vertex -7.75 -1.5 -5
    endloop
  endfacet
  facet normal -1.67996e-08 0.980785 0.195092
    outer loop
      vertex -7.75 -1.49993 -5.00037
      vertex -4.75 -1.5 -5
      vertex -4.75 -1.47786 -5.11133
    endloop
  endfacet
  facet normal 0 0.980785 0.195091
    outer loop
      vertex 7.75 -1.5 -5
      vertex 4.75 -1.40796 -5.4627
      vertex 4.75 -1.5 -5
    endloop
  endfacet
  facet normal -4.46116e-08 0.980785 0.195092
    outer loop
      vertex 4.75 -1.40796 -5.4627
      vertex 7.75 -1.5 -5
      vertex 7.75 -1.38589 -5.57365
    endloop
  endfacet
  facet normal 0 0.83147 -0.55557
    outer loop
      vertex -4.75 -1.38582 -4.42597
      vertex -7.75 -1.06066 -3.93934
      vertex -4.75 -1.06066 -3.93934
    endloop
  endfacet
  facet normal 0 0.83147 -0.55557
    outer loop
      vertex -7.75 -1.06066 -3.93934
      vertex -4.75 -1.38582 -4.42597
      vertex -7.75 -1.38582 -4.42597
    endloop
  endfacet
  facet normal 0 0.83147 -0.55557
    outer loop
      vertex 7.75 -1.38582 -4.42597
      vertex 4.75 -1.06066 -3.93934
      vertex 7.75 -1.06066 -3.93934
    endloop
  endfacet
  facet normal 0 0.83147 -0.55557
    outer loop
      vertex 4.75 -1.06066 -3.93934
      vertex 7.75 -1.38582 -4.42597
      vertex 4.75 -1.38582 -4.42597
    endloop
  endfacet
  facet normal -1 0 0
    outer loop
      vertex 4.75 -7.875 4.875
      vertex 4.75 7.875 23.875
      vertex 4.75 7.875 4.875
    endloop
  endfacet
  facet normal -1 -0 0
    outer loop
      vertex 4.75 7.875 23.875
      vertex 4.75 -7.875 4.875
      vertex 4.75 -7.875 23.875
    endloop
  endfacet
  facet normal 0 0 -1
    outer loop
      vertex 4.75 -7.875 23.875
      vertex 4.04145 0 23.875
      vertex 4.75 7.875 23.875
    endloop
  endfacet
  facet normal 0 0 -1
    outer loop
      vertex 4.75 -7.875 23.875
      vertex 2.02073 -3.5 23.875
      vertex 4.04145 0 23.875
    endloop
  endfacet
  facet normal 0 0 -1
    outer loop
      vertex 4.75 -7.875 23.875
      vertex -2.02073 -3.5 23.875
      vertex 2.02073 -3.5 23.875
    endloop
  endfacet
  facet normal -0 0 -1
    outer loop
      vertex -2.02073 -3.5 23.875
      vertex -4.75 -7.875 23.875
      vertex -4.04145 0 23.875
    endloop
  endfacet
  facet normal 0 0 -1
    outer loop
      vertex -4.75 -7.875 23.875
      vertex -2.02073 -3.5 23.875
      vertex 4.75 -7.875 23.875
    endloop
  endfacet
  facet normal 0 0 -1
    outer loop
      vertex 2.02073 3.5 23.875
      vertex 4.75 7.875 23.875
      vertex 4.04145 0 23.875
    endloop
  endfacet
  facet normal 0 0 -1
    outer loop
      vertex -2.02073 3.5 23.875
      vertex 4.75 7.875 23.875
      vertex 2.02073 3.5 23.875
    endloop
  endfacet
  facet normal 0 0 -1
    outer loop
      vertex -2.02073 3.5 23.875
      vertex -4.75 7.875 23.875
      vertex 4.75 7.875 23.875
    endloop
  endfacet
  facet normal 0 0 -1
    outer loop
      vertex -4.04145 0 23.875
      vertex -4.75 7.875 23.875
      vertex -2.02073 3.5 23.875
    endloop
  endfacet
  facet normal 0 0 -1
    outer loop
      vertex -4.75 7.875 23.875
      vertex -4.04145 0 23.875
      vertex -4.75 -7.875 23.875
    endloop
  endfacet
  facet normal 1 -0 0
    outer loop
      vertex -4.75 -7.875 23.875
      vertex -4.75 7.875 4.875
      vertex -4.75 7.875 23.875
    endloop
  endfacet
  facet normal 1 0 0
    outer loop
      vertex -4.75 7.875 4.875
      vertex -4.75 -7.875 23.875
      vertex -4.75 -7.875 4.875
    endloop
  endfacet
  facet normal 0 0 1
    outer loop
      vertex 7.75 7.875 26.875
      vertex 2 0 26.875
      vertex 7.75 -7.875 26.875
    endloop
  endfacet
  facet normal 0 0 1
    outer loop
      vertex 7.75 7.875 26.875
      vertex 1.84776 0.765367 26.875
      vertex 2 0 26.875
    endloop
  endfacet
  facet normal 0 0 1
    outer loop
      vertex 7.75 7.875 26.875
      vertex 1.41421 1.41421 26.875
      vertex 1.84776 0.765367 26.875
    endloop
  endfacet
  facet normal 0 0 1
    outer loop
      vertex 7.75 7.875 26.875
      vertex 0.765367 1.84776 26.875
      vertex 1.41421 1.41421 26.875
    endloop
  endfacet
  facet normal 0 0 1
    outer loop
      vertex 7.75 7.875 26.875
      vertex 0 2 26.875
      vertex 0.765367 1.84776 26.875
    endloop
  endfacet
  facet normal -0 0 1
    outer loop
      vertex -7.75 7.875 26.875
      vertex 0 2 26.875
      vertex 7.75 7.875 26.875
    endloop
  endfacet
  facet normal 0 0 1
    outer loop
      vertex 0 2 26.875
      vertex -7.75 7.875 26.875
      vertex -0.765367 1.84776 26.875
    endloop
  endfacet
  facet normal 0 0 1
    outer loop
      vertex -1.84776 0.765367 26.875
      vertex -7.75 7.875 26.875
      vertex -2 0 26.875
    endloop
  endfacet
  facet normal 0 0 1
    outer loop
      vertex -1.41421 1.41421 26.875
      vertex -7.75 7.875 26.875
      vertex -1.84776 0.765367 26.875
    endloop
  endfacet
  facet normal 0 0 1
    outer loop
      vertex -0.765367 1.84776 26.875
      vertex -7.75 7.875 26.875
      vertex -1.41421 1.41421 26.875
    endloop
  endfacet
  facet normal -0 0 1
    outer loop
      vertex 1.84776 -0.765367 26.875
      vertex 7.75 -7.875 26.875
      vertex 2 0 26.875
    endloop
  endfacet
  facet normal -0 0 1
    outer loop
      vertex 1.41421 -1.41421 26.875
      vertex 7.75 -7.875 26.875
      vertex 1.84776 -0.765367 26.875
    endloop
  endfacet
  facet normal -0 0 1
    outer loop
      vertex 0.765367 -1.84776 26.875
      vertex 7.75 -7.875 26.875
      vertex 1.41421 -1.41421 26.875
    endloop
  endfacet
  facet normal -0 0 1
    outer loop
      vertex 0 -2 26.875
      vertex 7.75 -7.875 26.875
      vertex 0.765367 -1.84776 26.875
    endloop
  endfacet
  facet normal 0 0 1
    outer loop
      vertex -7.75 -7.875 26.875
      vertex 0 -2 26.875
      vertex -0.765367 -1.84776 26.875
    endloop
  endfacet
  facet normal 0 0 1
    outer loop
      vertex -7.75 -7.875 26.875
      vertex -0.765367 -1.84776 26.875
      vertex -1.41421 -1.41421 26.875
    endloop
  endfacet
  facet normal 0 0 1
    outer loop
      vertex -7.75 -7.875 26.875
      vertex -2 0 26.875
      vertex -7.75 7.875 26.875
    endloop
  endfacet
  facet normal 0 0 1
    outer loop
      vertex -2 0 26.875
      vertex -7.75 -7.875 26.875
      vertex -1.84776 -0.765367 26.875
    endloop
  endfacet
  facet normal 0 0 1
    outer loop
      vertex 0 -2 26.875
      vertex -7.75 -7.875 26.875
      vertex 7.75 -7.875 26.875
    endloop
  endfacet
  facet normal 0 0 1
    outer loop
      vertex -1.84776 -0.765367 26.875
      vertex -7.75 -7.875 26.875
      vertex -1.41421 -1.41421 26.875
    endloop
  endfacet
  facet normal -0.980785 -0.195091 0
    outer loop
      vertex 2 0 24.875
      vertex 1.84776 0.765367 26.875
      vertex 1.84776 0.765367 24.875
    endloop
  endfacet
  facet normal -0.980785 -0.195091 0
    outer loop
      vertex 1.84776 0.765367 26.875
      vertex 2 0 24.875
      vertex 2 0 26.875
    endloop
  endfacet
  facet normal 0.980785 -0.195091 0
    outer loop
      vertex -2 0 26.875
      vertex -1.84776 0.765367 24.875
      vertex -1.84776 0.765367 26.875
    endloop
  endfacet
  facet normal 0.980785 -0.195091 0
    outer loop
      vertex -1.84776 0.765367 24.875
      vertex -2 0 26.875
      vertex -2 0 24.875
    endloop
  endfacet
  facet normal -0.195091 -0.980785 0
    outer loop
      vertex 0 2 24.875
      vertex 0.765367 1.84776 26.875
      vertex 0 2 26.875
    endloop
  endfacet
  facet normal -0.195091 -0.980785 -0
    outer loop
      vertex 0.765367 1.84776 26.875
      vertex 0 2 24.875
      vertex 0.765367 1.84776 24.875
    endloop
  endfacet
  facet normal -0.83147 -0.55557 0
    outer loop
      vertex 1.84776 0.765367 24.875
      vertex 1.41421 1.41421 26.875
      vertex 1.41421 1.41421 24.875
    endloop
  endfacet
  facet normal -0.83147 -0.55557 0
    outer loop
      vertex 1.41421 1.41421 26.875
      vertex 1.84776 0.765367 24.875
      vertex 1.84776 0.765367 26.875
    endloop
  endfacet
  facet normal 0.195091 0.980785 -0
    outer loop
      vertex 0 -2 24.875
      vertex -0.765367 -1.84776 26.875
      vertex 0 -2 26.875
    endloop
  endfacet
  facet normal 0.195091 0.980785 0
    outer loop
      vertex -0.765367 -1.84776 26.875
      vertex 0 -2 24.875
      vertex -0.765367 -1.84776 24.875
    endloop
  endfacet
  facet normal -0.55557 -0.83147 0
    outer loop
      vertex 0.765367 1.84776 24.875
      vertex 1.41421 1.41421 26.875
      vertex 0.765367 1.84776 26.875
    endloop
  endfacet
  facet normal -0.55557 -0.83147 -0
    outer loop
      vertex 1.41421 1.41421 26.875
      vertex 0.765367 1.84776 24.875
      vertex 1.41421 1.41421 24.875
    endloop
  endfacet
  facet normal 0.55557 -0.83147 0
    outer loop
      vertex -1.41421 1.41421 24.875
      vertex -0.765367 1.84776 26.875
      vertex -1.41421 1.41421 26.875
    endloop
  endfacet
  facet normal 0.55557 -0.83147 0
    outer loop
      vertex -0.765367 1.84776 26.875
      vertex -1.41421 1.41421 24.875
      vertex -0.765367 1.84776 24.875
    endloop
  endfacet
  facet normal 0.83147 -0.55557 0
    outer loop
      vertex -1.84776 0.765367 26.875
      vertex -1.41421 1.41421 24.875
      vertex -1.41421 1.41421 26.875
    endloop
  endfacet
  facet normal 0.83147 -0.55557 0
    outer loop
      vertex -1.41421 1.41421 24.875
      vertex -1.84776 0.765367 26.875
      vertex -1.84776 0.765367 24.875
    endloop
  endfacet
  facet normal 0.195091 -0.980785 0
    outer loop
      vertex -0.765367 1.84776 24.875
      vertex 0 2 26.875
      vertex -0.765367 1.84776 26.875
    endloop
  endfacet
  facet normal 0.195091 -0.980785 0
    outer loop
      vertex 0 2 26.875
      vertex -0.765367 1.84776 24.875
      vertex 0 2 24.875
    endloop
  endfacet
  facet normal 0.55557 0.83147 -0
    outer loop
      vertex -0.765367 -1.84776 24.875
      vertex -1.41421 -1.41421 26.875
      vertex -0.765367 -1.84776 26.875
    endloop
  endfacet
  facet normal 0.55557 0.83147 0
    outer loop
      vertex -1.41421 -1.41421 26.875
      vertex -0.765367 -1.84776 24.875
      vertex -1.41421 -1.41421 24.875
    endloop
  endfacet
  facet normal 0.980785 0.195091 0
    outer loop
      vertex -1.84776 -0.765367 26.875
      vertex -2 0 24.875
      vertex -2 0 26.875
    endloop
  endfacet
  facet normal 0.980785 0.195091 0
    outer loop
      vertex -2 0 24.875
      vertex -1.84776 -0.765367 26.875
      vertex -1.84776 -0.765367 24.875
    endloop
  endfacet
  facet normal -0.980785 0.195091 0
    outer loop
      vertex 1.84776 -0.765367 24.875
      vertex 2 0 26.875
      vertex 2 0 24.875
    endloop
  endfacet
  facet normal -0.980785 0.195091 0
    outer loop
      vertex 2 0 26.875
      vertex 1.84776 -0.765367 24.875
      vertex 1.84776 -0.765367 26.875
    endloop
  endfacet
  facet normal -0.55557 0.83147 0
    outer loop
      vertex 1.41421 -1.41421 24.875
      vertex 0.765367 -1.84776 26.875
      vertex 1.41421 -1.41421 26.875
    endloop
  endfacet
  facet normal -0.55557 0.83147 0
    outer loop
      vertex 0.765367 -1.84776 26.875
      vertex 1.41421 -1.41421 24.875
      vertex 0.765367 -1.84776 24.875
    endloop
  endfacet
  facet normal -0.195091 0.980785 0
    outer loop
      vertex 0.765367 -1.84776 24.875
      vertex 0 -2 26.875
      vertex 0.765367 -1.84776 26.875
    endloop
  endfacet
  facet normal -0.195091 0.980785 0
    outer loop
      vertex 0 -2 26.875
      vertex 0.765367 -1.84776 24.875
      vertex 0 -2 24.875
    endloop
  endfacet
  facet normal -0.83147 0.55557 0
    outer loop
      vertex 1.41421 -1.41421 24.875
      vertex 1.84776 -0.765367 26.875
      vertex 1.84776 -0.765367 24.875
    endloop
  endfacet
  facet normal -0.83147 0.55557 0
    outer loop
      vertex 1.84776 -0.765367 26.875
      vertex 1.41421 -1.41421 24.875
      vertex 1.41421 -1.41421 26.875
    endloop
  endfacet
  facet normal 0.83147 0.55557 0
    outer loop
      vertex -1.41421 -1.41421 26.875
      vertex -1.84776 -0.765367 24.875
      vertex -1.84776 -0.765367 26.875
    endloop
  endfacet
  facet normal 0.83147 0.55557 0
    outer loop
      vertex -1.84776 -0.765367 24.875
      vertex -1.41421 -1.41421 26.875
      vertex -1.41421 -1.41421 24.875
    endloop
  endfacet
  facet normal -0.866026 -0.499999 0
    outer loop
      vertex 4.04145 0 23.875
      vertex 2.02073 3.5 24.875
      vertex 2.02073 3.5 23.875
    endloop
  endfacet
  facet normal -0.866026 -0.499999 0
    outer loop
      vertex 2.02073 3.5 24.875
      vertex 4.04145 0 23.875
      vertex 4.04145 0 24.875
    endloop
  endfacet
  facet normal 0.866026 -0.499999 0
    outer loop
      vertex -4.04145 0 24.875
      vertex -2.02073 3.5 23.875
      vertex -2.02073 3.5 24.875
    endloop
  endfacet
  facet normal 0.866026 -0.499999 0
    outer loop
      vertex -2.02073 3.5 23.875
      vertex -4.04145 0 24.875
      vertex -4.04145 0 23.875
    endloop
  endfacet
  facet normal 0 -1 0
    outer loop
      vertex -2.02073 3.5 23.875
      vertex 2.02073 3.5 24.875
      vertex -2.02073 3.5 24.875
    endloop
  endfacet
  facet normal 0 -1 -0
    outer loop
      vertex 2.02073 3.5 24.875
      vertex -2.02073 3.5 23.875
      vertex 2.02073 3.5 23.875
    endloop
  endfacet
  facet normal 0 0 -1
    outer loop
      vertex 1.84776 -0.765367 24.875
      vertex 4.04145 0 24.875
      vertex 2.02073 -3.5 24.875
    endloop
  endfacet
  facet normal 0 0 -1
    outer loop
      vertex 1.84776 0.765367 24.875
      vertex 4.04145 0 24.875
      vertex 2 0 24.875
    endloop
  endfacet
  facet normal -0 0 -1
    outer loop
      vertex 4.04145 0 24.875
      vertex 1.84776 -0.765367 24.875
      vertex 2 0 24.875
    endloop
  endfacet
  facet normal 0 0 -1
    outer loop
      vertex 2.02073 -3.5 24.875
      vertex 1.41421 -1.41421 24.875
      vertex 1.84776 -0.765367 24.875
    endloop
  endfacet
  facet normal 0 0 -1
    outer loop
      vertex 2.02073 -3.5 24.875
      vertex 0.765367 -1.84776 24.875
      vertex 1.41421 -1.41421 24.875
    endloop
  endfacet
  facet normal 0 0 -1
    outer loop
      vertex 2.02073 -3.5 24.875
      vertex 0 -2 24.875
      vertex 0.765367 -1.84776 24.875
    endloop
  endfacet
  facet normal 0 0 -1
    outer loop
      vertex -2.02073 -3.5 24.875
      vertex 0 -2 24.875
      vertex 2.02073 -3.5 24.875
    endloop
  endfacet
  facet normal 0 0 -1
    outer loop
      vertex -4.04145 0 24.875
      vertex -1.84776 -0.765367 24.875
      vertex -2.02073 -3.5 24.875
    endloop
  endfacet
  facet normal -0 0 -1
    outer loop
      vertex -1.41421 -1.41421 24.875
      vertex -2.02073 -3.5 24.875
      vertex -1.84776 -0.765367 24.875
    endloop
  endfacet
  facet normal -0 0 -1
    outer loop
      vertex -0.765367 -1.84776 24.875
      vertex -2.02073 -3.5 24.875
      vertex -1.41421 -1.41421 24.875
    endloop
  endfacet
  facet normal -0 0 -1
    outer loop
      vertex 0 -2 24.875
      vertex -2.02073 -3.5 24.875
      vertex -0.765367 -1.84776 24.875
    endloop
  endfacet
  facet normal 0 0 -1
    outer loop
      vertex 4.04145 0 24.875
      vertex 1.84776 0.765367 24.875
      vertex 2.02073 3.5 24.875
    endloop
  endfacet
  facet normal 0 0 -1
    outer loop
      vertex 1.41421 1.41421 24.875
      vertex 2.02073 3.5 24.875
      vertex 1.84776 0.765367 24.875
    endloop
  endfacet
  facet normal 0 0 -1
    outer loop
      vertex 0.765367 1.84776 24.875
      vertex 2.02073 3.5 24.875
      vertex 1.41421 1.41421 24.875
    endloop
  endfacet
  facet normal 0 0 -1
    outer loop
      vertex 0 2 24.875
      vertex 2.02073 3.5 24.875
      vertex 0.765367 1.84776 24.875
    endloop
  endfacet
  facet normal 0 0 -1
    outer loop
      vertex -2.02073 3.5 24.875
      vertex 0 2 24.875
      vertex -0.765367 1.84776 24.875
    endloop
  endfacet
  facet normal 0 0 -1
    outer loop
      vertex 0 2 24.875
      vertex -2.02073 3.5 24.875
      vertex 2.02073 3.5 24.875
    endloop
  endfacet
  facet normal 0 0 -1
    outer loop
      vertex -1.41421 1.41421 24.875
      vertex -2.02073 3.5 24.875
      vertex -0.765367 1.84776 24.875
    endloop
  endfacet
  facet normal 0 0 -1
    outer loop
      vertex -1.84776 0.765367 24.875
      vertex -2.02073 3.5 24.875
      vertex -1.41421 1.41421 24.875
    endloop
  endfacet
  facet normal 0 0 -1
    outer loop
      vertex -4.04145 0 24.875
      vertex -1.84776 0.765367 24.875
      vertex -2 0 24.875
    endloop
  endfacet
  facet normal 0 0 -1
    outer loop
      vertex -1.84776 -0.765367 24.875
      vertex -4.04145 0 24.875
      vertex -2 0 24.875
    endloop
  endfacet
  facet normal -0 0 -1
    outer loop
      vertex -1.84776 0.765367 24.875
      vertex -4.04145 0 24.875
      vertex -2.02073 3.5 24.875
    endloop
  endfacet
  facet normal -0.866026 0.499999 0
    outer loop
      vertex 2.02073 -3.5 23.875
      vertex 4.04145 0 24.875
      vertex 4.04145 0 23.875
    endloop
  endfacet
  facet normal -0.866026 0.499999 0
    outer loop
      vertex 4.04145 0 24.875
      vertex 2.02073 -3.5 23.875
      vertex 2.02073 -3.5 24.875
    endloop
  endfacet
  facet normal 0.866026 0.499999 0
    outer loop
      vertex -2.02073 -3.5 24.875
      vertex -4.04145 0 23.875
      vertex -4.04145 0 24.875
    endloop
  endfacet
  facet normal 0.866026 0.499999 0
    outer loop
      vertex -4.04145 0 23.875
      vertex -2.02073 -3.5 24.875
      vertex -2.02073 -3.5 23.875
    endloop
  endfacet
  facet normal 0 1 -0
    outer loop
      vertex 2.02073 -3.5 23.875
      vertex -2.02073 -3.5 24.875
      vertex 2.02073 -3.5 24.875
    endloop
  endfacet
  facet normal 0 1 0
    outer loop
      vertex -2.02073 -3.5 24.875
      vertex 2.02073 -3.5 23.875
      vertex -2.02073 -3.5 23.875
    endloop
  endfacet
endsolid OpenSCAD_Model
